<?xml version="1.0" encoding="UTF-8" standalone="no"?>
<!-- Created with Inkscape (http://www.inkscape.org/) -->

<svg
   xmlns:dc="http://purl.org/dc/elements/1.1/"
   xmlns:cc="http://creativecommons.org/ns#"
   xmlns:rdf="http://www.w3.org/1999/02/22-rdf-syntax-ns#"
   xmlns:svg="http://www.w3.org/2000/svg"
   xmlns="http://www.w3.org/2000/svg"
   xmlns:sodipodi="http://sodipodi.sourceforge.net/DTD/sodipodi-0.dtd"
   xmlns:inkscape="http://www.inkscape.org/namespaces/inkscape"
   width="910.58875"
   height="584.34222"
   viewBox="0 0 240.92659 154.60722"
   version="1.1"
   id="svg23489"
   inkscape:version="0.48.5 r10040"
   sodipodi:docname="side_scroller_foreground_left_end.svg"
   tags="side scrolling foreground, stone paving, paving, paving foreground, egypt, desert foreground, desert, egypt pack, desert foreground pack">
  <defs
     id="defs23483" />
  <sodipodi:namedview
     id="base"
     pagecolor="#7d848b"
     bordercolor="#666666"
     borderopacity="1.0"
     inkscape:pageopacity="0"
     inkscape:pageshadow="2"
     inkscape:zoom="0.33253587"
     inkscape:cx="85.561355"
     inkscape:cy="543.27437"
     inkscape:document-units="px"
     inkscape:current-layer="layer1"
     showgrid="false"
     inkscape:pagecheckerboard="false"
     showborder="true"
     units="px"
     inkscape:window-width="1920"
     inkscape:window-height="1017"
     inkscape:window-x="-8"
     inkscape:window-y="-8"
     inkscape:window-maximized="1"
     inkscape:showpageshadow="false"
     guidetolerance="28"
     fit-margin-top="0"
     fit-margin-left="0"
     fit-margin-right="0"
     fit-margin-bottom="0">
    <inkscape:grid
       type="xygrid"
       id="grid24034"
       spacingx="1px"
       spacingy="1px"
       empspacing="8"
       visible="true"
       enabled="true"
       snapvisiblegridlinesonly="true"
       originx="219.02487px"
       originy="28.38686px" />
  </sodipodi:namedview>
  <metadata
     id="metadata23486">
    <rdf:RDF>
      <cc:Work
         rdf:about="">
        <dc:format>image/svg+xml</dc:format>
        <dc:type
           rdf:resource="http://purl.org/dc/dcmitype/StillImage" />
        <dc:title></dc:title>
        <cc:license
           rdf:resource="" />
        <dc:creator>
          <cc:Agent>
            <dc:title>Robert Brooks</dc:title>
          </cc:Agent>
        </dc:creator>
      </cc:Work>
    </rdf:RDF>
  </metadata>
  <g
     inkscape:label="Layer 1"
     inkscape:groupmode="layer"
     id="layer1"
     transform="translate(57.95034,-149.90346)">
    <g
       transform="translate(621.58466,-3841.4564)"
       id="g38372">
      <g
         transform="translate(13.924252,4.0693766e-7)"
         id="g37138">
        <g
           id="g37060">
          <g
             transform="translate(338.15687,-33.953999)"
             id="g35229">
            <path
               inkscape:connector-curvature="0"
               style="color:#000000;fill:#b59235;fill-opacity:1;fill-rule:nonzero;stroke:none;stroke-width:12;marker:none;visibility:visible;display:inline;overflow:visible;enable-background:accumulate"
               d="m -3687.9688,15215.969 c -23.945,0.174 -43.1193,1.306 -43.0937,3.75 -0.161,0.347 -4.5937,1.406 -4.5937,1.406 -0.6799,0.813 -1.1321,1.821 -1.4376,2.813 -0.3767,11.005 -0.875,19.406 -0.875,19.406 0,0 55.8086,35.281 58.375,35.281 2.5665,0 58.375,1.937 58.375,1.937 l 77,41.688 23.75,-0.625 0,2.563 48.75,31.437 c 0,0 -123.1796,-1.297 -128.3124,-0.656 -5.133,0.642 -19.2647,0.635 -19.9063,3.843 -0.6416,3.209 1.2813,24.407 1.2813,24.407 l 76.375,41.687 -105.875,2.563 c 0,0 -2.5772,1.933 -3.2188,4.5 -0.6416,2.566 0.6562,27.593 0.6562,27.593 l 69.9376,41.063 -145.6563,2.563 c 0,0 -3.8437,0 -3.8437,4.5 0,4.491 2.5624,36.562 2.5624,36.562 l 127.0313,75.719 c 0,0 39.1523,15.377 41.7187,14.093 2.5666,-1.284 75.7188,1.282 75.7188,1.282 l 0.625,3.875 c 0,0 101.4714,69.625 130.625,88.75 l 363.5625,0 0,-506.844 -9.3125,0 c -14.132,-1.367 -59.1759,-5.512 -73.6562,-3.969 -15.4565,1.648 -49.1965,3.595 -55.8438,3.969 l -3.0312,0 -9.0626,-3.5 c 0,0 -98.8367,-0.04 -101.6874,0.437 -1.9157,0.307 -2.1188,1.666 -2.1876,3.063 l -8,0 c -2.7513,-1.082 -5.5042,-2.156 -6.9062,-2.156 -3.3258,0 -162,-2.281 -162,-2.281 0,0 -2.1725,0.63 -5,4.437 l -2,0 c -9.6463,-4.657 -149.3101,-3.549 -160.9062,0 l -7.6563,0 c -4.2874,-2.969 -45.8235,-5.024 -81.7813,-5.156 -3.5733,-0.01 -7.0792,-0.02 -10.5,0 z"
               transform="matrix(0.26458334,0,0,0.26458334,-6.3049604e-6,18.562493)"
               id="path33631" />
            <path
               sodipodi:nodetypes="sccccssccccs"
               style="color:#000000;fill:#e8c050;fill-opacity:1;fill-rule:nonzero;stroke:none;stroke-width:2;marker:none;visibility:visible;display:inline;overflow:visible;enable-background:accumulate"
               d="m -881.41823,4121.077 c -15.401,-0.034 -30.83678,0.6321 -29.09394,1.5617 0,0 37.82462,23.3459 42.85297,23.7751 2.76558,0.4291 57.87616,0.432 57.87616,0.432 0,0 -36.07211,-20.9886 -43.86604,-24.2071 -3.8378,-1.0848 -15.79056,-1.5349 -27.76915,-1.5617 z m 51.69373,1.379 c -10.28911,-0.013 -18.87072,0.022 -20.00211,0.1827 2.76559,3.6476 40.58899,23.1342 43.8574,24.2071 2.76559,0.2145 15.17909,0 15.17909,0 l 0,-24.2071 c 0,0 -21.88588,-0.1618 -39.03438,-0.1827 z"
               id="path33633"
               inkscape:connector-curvature="0" />
            <path
               inkscape:connector-curvature="0"
               id="path34844"
               d="m -972.9949,4045.4155 c -7.56363,-0.028 -14.19112,0.2581 -14.18327,0.9968 -0.45445,0.9849 3.74306,5.2276 13.378,9.2459 l 36.28952,0 c -0.74018,-0.772 -1.46179,-1.5399 -2.44185,-2.3759 l 3.70602,2.3759 43.33787,0 -13.76767,-8.8305 c -1.77996,-1.3627 -44.09273,-0.9691 -42.83565,0.1163 l 3.2731,2.301 c -1.40547,-0.7318 -3.05493,-1.5284 -5.04816,-2.4173 -0.70709,-0.8143 -11.98314,-1.3764 -21.70791,-1.4122 z"
               style="color:#000000;fill:#f2ce6a;fill-opacity:1;fill-rule:nonzero;stroke:none;stroke-width:2;marker:none;visibility:visible;display:inline;overflow:visible;enable-background:accumulate" />
            <path
               inkscape:connector-curvature="0"
               id="path34838"
               d="m -845.77816,4046.188 c -5.57615,0.011 -10.62575,0.1919 -11.32586,0.6397 -1.24373,0.543 6.27828,5.2455 14.40843,9.952 l -19.10153,0 16.73766,9.4037 c 5.43101,-0.2018 12.05999,-0.5418 17.49101,0.191 0.96276,0.5499 1.50207,0.6366 3.3077,1.5369 7.03968,0.4291 26.11157,0.5342 29.12857,-0.324 0,0 -3.58392,-2.58 -6.96175,-4.5524 -7.93634,-5.2128 -25.50173,-15.8595 -27.67389,-16.2072 -0.8,-0.3838 -8.8409,-0.6539 -16.01034,-0.6397 z"
               style="color:#000000;fill:#f2ce6a;fill-opacity:1;fill-rule:nonzero;stroke:none;stroke-width:2;marker:none;visibility:visible;display:inline;overflow:visible;enable-background:accumulate" />
            <path
               inkscape:connector-curvature="0"
               id="path34830"
               d="m -914.55589,4055.7662 c -0.21385,0.011 -0.33768,0.042 -0.33768,0.042 l -40.0648,0.3904 c -2.01123,0.02 -0.75334,1.1879 -0.75334,1.1879 0,0 10.58742,7.5523 19.63841,10.0849 l 37.90007,0.1163 c 0,0 4.9849,0.01 3.60211,-0.5981 l -17.12733,-10.2178 c -1.02139,-0.8291 -2.01419,-0.9946 -2.61499,-1.0052 -0.0902,0 -0.17116,0 -0.24245,0 z"
               style="color:#000000;fill:#f2ce6a;fill-opacity:1;fill-rule:nonzero;stroke:none;stroke-width:2;marker:none;visibility:visible;display:inline;overflow:visible;enable-background:accumulate" />
            <path
               inkscape:connector-curvature="0"
               id="path34816"
               d="m -927.89929,4068.9579 c -1.75993,0.4292 0.83993,2.1931 0.83993,2.1931 l 48.7064,27.7625 c 0,0 3.93574,2.3897 7.20421,1.9605 l 66.30993,0 c 0,0 4.30507,0.5896 3.04793,-0.6978 l -50.78451,-29.6399 c 0,0 -2.21236,-0.9347 -5.7322,-1.5784 l -69.59169,0 z"
               style="color:#000000;fill:#f2ce6a;fill-opacity:1;fill-rule:nonzero;stroke:none;stroke-width:2;marker:none;visibility:visible;display:inline;overflow:visible;enable-background:accumulate" />
            <path
               inkscape:connector-curvature="0"
               id="path34801"
               d="m -869.5815,4147.4356 c -20.5621,-0.036 -47.28121,0.6562 -47.90975,1.595 -1.45437,1.9412 38.01715,27.406 43.86602,27.289 l 71.55726,0 c 4.52549,0 -39.08018,-27.5079 -44.10847,-27.937 -0.94276,-0.6436 -11.06781,-0.9256 -23.40506,-0.947 z"
               style="color:#000000;fill:#f2ce6a;fill-opacity:1;fill-rule:nonzero;stroke:none;stroke-width:2;marker:none;visibility:visible;display:inline;overflow:visible;enable-background:accumulate" />
            <path
               style="color:#000000;fill:#e1b94a;fill-opacity:1;fill-rule:nonzero;stroke:none;stroke-width:2;marker:none;visibility:visible;display:inline;overflow:visible;enable-background:accumulate"
               d="m -790.69012,4055.9572 c -8.38094,0.035 -16.16895,0.2991 -19.2055,0.9636 0.53337,2.7311 15.60364,10.6664 18.27034,10.6664 0,0 0.89737,0.01 0.93516,0.01 z m -138.99286,45.5814 c -11.65977,0 -22.78998,0.4887 -33.89101,0.6811 -1.61945,1.5634 28.41825,20.2942 32.02933,19.4969 l 20.79871,0 c 0.0384,-0.055 0.0775,-0.1083 0.12122,-0.1827 0.42763,-0.73 24.35338,-1.0019 33.5533,-1.1963 -11.68174,-8.0059 -21.0511,-12.6819 -30.94698,-18.1179 -7.47928,-0.5127 -14.66875,-0.6833 -21.66457,-0.6811 z m 100.98888,0.5233 c -5.45378,0.011 -9.35467,0.054 -9.65467,0.1495 3.2,4.2639 33.2935,19.4969 33.2935,19.4969 l 14.36515,0 0,-19.4969 c 0,0 -18.19685,-0.1328 -32.10725,-0.1495 -2.08664,0 -4.0788,0 -5.89673,0 z"
               id="path33637"
               inkscape:connector-curvature="0"
               sodipodi:nodetypes="cccccccccccscccccscc" />
            <path
               sodipodi:nodetypes="cccccc"
               inkscape:connector-curvature="0"
               id="path33639"
               d="m -905.18069,4046.8327 13.77124,8.8258 44.75656,0 c -0.49967,-2.1661 -11.15854,-7.0145 -13.77124,-8.8258 -1.77779,-0.6822 -43.48923,-0.8442 -43.48923,-0.8442 -0.87997,0 -1.26733,0.8442 -1.26733,0.8442 z"
               style="color:#000000;fill:#eac767;fill-opacity:1;fill-rule:nonzero;stroke:none;stroke-width:2;marker:none;visibility:visible;display:inline;overflow:visible;enable-background:accumulate" />
            <path
               style="color:#000000;fill:#eac767;fill-opacity:1;fill-rule:nonzero;stroke:none;stroke-width:2;marker:none;visibility:visible;display:inline;overflow:visible;enable-background:accumulate"
               d="m -857.10339,4046.8298 c -1.24374,0.5429 6.27826,5.24 14.40844,9.9465 l -19.10157,0 16.73362,9.4057 c 5.43101,-0.2017 12.06144,-0.5429 17.49245,0.1899 0.96277,0.5499 1.50299,0.6373 3.30862,1.5376 7.03968,0.4291 26.11326,0.5363 29.13027,-0.3219 0,0 -3.58393,-2.5796 -6.96177,-4.5521 -7.93633,-5.2128 -25.50172,-15.8581 -27.67388,-16.2057 -1.42223,-0.6822 -25.73616,-1.0234 -27.33618,0 z"
               id="path33641"
               inkscape:connector-curvature="0"
               sodipodi:nodetypes="cccccccccc" />
            <path
               style="color:#000000;fill:#eac767;fill-opacity:1;fill-rule:nonzero;stroke:none;stroke-width:2;marker:none;visibility:visible;display:inline;overflow:visible;enable-background:accumulate"
               d="m -806.18033,4046.0908 c -7.74536,0.039 -14.37534,0.4741 -21.48275,0.739 l 13.77634,8.8308 c 8.07972,0.364 15.7641,0.4711 23.19721,0.4212 l 0,-9.5107 c -5.79542,-0.3857 -10.84356,-0.5037 -15.4908,-0.4803 z"
               id="path33643"
               inkscape:connector-curvature="0"
               sodipodi:nodetypes="sccccs" />
            <path
               inkscape:connector-curvature="0"
               id="path34797"
               d="m -884.56142,4055.5751 c -8.44752,0.01 -16.23902,0.2503 -23.96787,0.5151 -1.75994,-0.1207 -0.3204,0.9387 -0.3204,0.9387 l 15.94108,9.5117 c 0,0 1.50357,0.6849 4.01774,1.0467 l 31.60502,0.075 c -0.006,-0.3529 0.52699,-1.3107 1.36811,-1.2958 3.27643,-0.134 5.92802,0.01 9.20442,-0.1329 l -16.6684,-10.1431 c -7.63907,-0.3798 -14.6094,-0.5198 -21.1797,-0.5151 z"
               style="color:#000000;fill:#e9c254;fill-opacity:1;fill-rule:nonzero;stroke:none;stroke-width:2;marker:none;visibility:visible;display:inline;overflow:visible;enable-background:accumulate" />
            <path
               inkscape:connector-curvature="0"
               id="path34791"
               d="m -810.85676,4068.7171 c -3.33258,0.01 -7.02045,0.069 -11.36049,0.2325 3.77124,4.7206 24.79912,13.7483 24.79912,13.7483 l 6.728,0 0,-13.7483 c -7.19901,-0.01 -12.83493,-0.2501 -20.16663,-0.2325 z"
               style="color:#000000;fill:#e9c254;fill-opacity:1;fill-rule:nonzero;stroke:none;stroke-width:2;marker:none;visibility:visible;display:inline;overflow:visible;enable-background:accumulate" />
            <path
               inkscape:connector-curvature="0"
               id="path34787"
               d="m -937.3981,4082.806 c -7.58111,0.01 -14.54694,0.2076 -17.94127,0.7725 -2.01133,-0.2163 25.07932,16.6434 29.60483,17.2872 0,0 44.76287,0.6436 47.77986,0 1.5085,-0.8584 -30.10702,-17.2872 -30.10702,-17.2872 -2.35706,-0.2698 -16.70101,-0.7872 -29.3364,-0.7725 z"
               style="color:#000000;fill:#e9c254;fill-opacity:1;fill-rule:nonzero;stroke:none;stroke-width:2;marker:none;visibility:visible;display:inline;overflow:visible;enable-background:accumulate" />
            <path
               inkscape:connector-curvature="0"
               id="path34783"
               d="m -827.2221,4083.3708 c 0,0 28.59483,16.6368 33.12033,17.4949 l 3.41164,0 0,-17.4949 -36.53197,0 z"
               style="color:#000000;fill:#e9c254;fill-opacity:1;fill-rule:nonzero;stroke:none;stroke-width:2;marker:none;visibility:visible;display:inline;overflow:visible;enable-background:accumulate" />
            <path
               inkscape:connector-curvature="0"
               id="path34781"
               d="m -888.50988,4101.5303 c -8.61303,0.021 -15.52417,0.2016 -17.41306,0.6812 8.65379,6.2068 18.3787,12.2893 30.80839,18.0431 0.11808,-0.01 0.29935,0 0.38099,-0.01 3.21739,-0.2112 20.79718,0.824 22.30535,1.4705 l 43.33787,0 c 0,0 -22.6268,-16.0858 -33.29353,-19.4969 0,0 -27.17734,-0.7267 -46.12601,-0.6812 l 0,-0.01 z"
               style="color:#000000;fill:#e9c254;fill-opacity:1;fill-rule:nonzero;stroke:none;stroke-width:2;marker:none;visibility:visible;display:inline;overflow:visible;enable-background:accumulate" />
            <path
               inkscape:connector-curvature="0"
               id="path34775"
               d="m -951.90179,4121.9908 c -9.90167,0 -20.7137,0.174 -32.97314,0.5898 14.66257,8.5754 29.00012,17.2184 35.76133,21.7149 2.104,0.9265 4.19732,1.7764 6.27771,2.542 l 71.95555,0 c -10.51519,-6.7055 -38.36081,-22.8249 -44.36826,-24.1987 -11.5404,-0.3568 -23.28702,-0.652 -36.65319,-0.648 z"
               style="color:#000000;fill:#e9c254;fill-opacity:1;fill-rule:nonzero;stroke:none;stroke-width:2;marker:none;visibility:visible;display:inline;overflow:visible;enable-background:accumulate" />
            <path
               inkscape:connector-curvature="0"
               id="path33645"
               d="m -840.94646,4147.8261 c 11.7823,9.0964 26.72411,19.3971 43.86602,28.4935 l 6.39031,0 0,-28.4935 -50.25633,0 z"
               style="color:#000000;fill:#e9c254;fill-opacity:1;fill-rule:nonzero;stroke:none;stroke-width:2;marker:none;visibility:visible;display:inline;overflow:visible;enable-background:accumulate" />
            <path
               style="color:#000000;fill:#eac767;fill-opacity:1;fill-rule:nonzero;stroke:none;stroke-width:2;marker:none;visibility:visible;display:inline;overflow:visible;enable-background:accumulate"
               d="m -854.1323,4067.7912 c -0.59779,1.3353 25.14262,14.9082 25.14262,14.9082 l 29.60525,0 c 0,0 -25.23758,-14.6994 -28.506,-15.5577 -5.03301,-0.5722 -14.84292,-0.4209 -24.90427,-0.1297 -0.5828,0.017 -1.16454,0.1598 -1.3376,0.7792 z"
               id="path33655"
               inkscape:connector-curvature="0"
               sodipodi:nodetypes="ccccsc" />
            <path
               sodipodi:nodetypes="cc"
               inkscape:connector-curvature="0"
               id="path33671"
               d="M -878.74547,4146.8449 z"
               style="color:#000000;fill:#e9c254;fill-opacity:1;fill-rule:nonzero;stroke:none;stroke-width:2;marker:none;visibility:visible;display:inline;overflow:visible;enable-background:accumulate" />
            <path
               inkscape:connector-curvature="0"
               id="path34884"
               d="m -972.99494,4045.4153 c -7.56379,-0.028 -14.19104,0.2665 -14.1833,1.0052 -0.32627,0.7075 1.76443,3.0956 6.52881,5.8731 -0.036,-0.036 -0.0752,-0.074 -0.1213,-0.1165 -2.01145,-1.8094 -3.37028,-2.9182 -4.26884,-5.0674 -0.58324,-1.3946 26.31355,-0.8827 32.5574,0.6063 1.24418,0.2968 9.93278,4.2222 9.17854,2.7747 -0.24201,-0.464 -3.2012,-2.1005 -2.03472,-3.2813 6.82056,-1.6647 37.2893,0.8526 39.66636,1.5367 1.04121,0.2996 3.13226,1.1773 5.14343,2.0269 l -6.14781,-3.9458 c -0.77874,-0.596 -9.3122,-0.8508 -18.56465,-0.8639 -6.15693,0 -12.5906,0.09 -17.30055,0.2741 -0.002,2e-4 -0.005,-2e-4 -0.009,0 -0.0712,0 -0.13418,0 -0.20469,0 -0.36267,0.02 -0.73916,0.034 -1.08212,0.05 -1.22478,0.056 -2.29243,0.1146 -3.16907,0.1829 -0.16225,0.02 -0.37628,0.028 -0.52775,0.042 -0.002,0 -0.005,0 -0.005,0 -1.40127,0.1266 -2.16486,0.2665 -1.98296,0.4236 l 1.66258,1.1631 0.25996,0.1829 1.35084,0.9471 c -0.49543,-0.2581 -1.03296,-0.5223 -1.59331,-0.7976 -0.0141,0 -0.0398,-0.022 -0.0599,-0.032 -0.037,-0.02 -0.0689,-0.032 -0.10409,-0.05 -0.98682,-0.4821 -2.0682,-0.9917 -3.29049,-1.5369 -0.70715,-0.8144 -11.98317,-1.3763 -21.70795,-1.4122 z"
               style="color:#000000;fill:#ffdf88;fill-opacity:1;fill-rule:nonzero;stroke:none;stroke-width:2;marker:none;visibility:visible;display:inline;overflow:visible;enable-background:accumulate" />
            <path
               inkscape:connector-curvature="0"
               id="path34870"
               d="m -914.55592,4055.7661 c -0.20753,0.02 -0.33724,0.042 -0.33724,0.042 l -40.06481,0.3904 c -2.01093,0.02 -0.75341,1.1878 -0.75341,1.1878 0,0 3.3895,2.4249 7.97494,4.9844 -2.41947,-2.0131 -6.05439,-5.1753 -5.44643,-5.1753 0.73158,0 38.68208,-0.1567 39.65782,0 0.52804,0.084 4.597,1.824 8.05277,3.2896 l -6.22581,-3.7134 c -1.02137,-0.8291 -2.01417,-0.9945 -2.61498,-1.0051 l -0.24245,0 z"
               style="color:#000000;fill:#ffdf88;fill-opacity:1;fill-rule:nonzero;stroke:none;stroke-width:2;marker:none;visibility:visible;display:inline;overflow:visible;enable-background:accumulate" />
            <path
               inkscape:connector-curvature="0"
               id="path34856"
               d="m -927.89928,4068.9496 c -1.75999,0.4292 0.83131,2.1931 0.83131,2.1931 l 48.7063,27.7707 c 0,0 3.93587,2.3817 7.20423,1.9522 l 1.13431,0 c -2.68625,-0.3004 -5.29929,-1.8774 -5.29929,-1.8774 l -46.8706,-26.7157 c 0,0 -2.49006,-1.7053 -0.79668,-2.1184 l 66.95935,0 c 3.34807,0.6123 5.45025,1.4914 5.49845,1.5119 l -2.04356,-1.1382 c 0,0 -2.21224,-0.9346 -5.73212,-1.5782 l -69.5917,0 z"
               style="color:#000000;fill:#ffdf88;fill-opacity:1;fill-rule:nonzero;stroke:none;stroke-width:2;marker:none;visibility:visible;display:inline;overflow:visible;enable-background:accumulate" />
            <path
               inkscape:connector-curvature="0"
               id="path33681"
               d="m -869.58148,4147.4356 c -20.56244,-0.036 -47.28128,0.6476 -47.90973,1.5867 -0.94062,1.2551 15.22963,12.3443 28.35793,19.9953 -8.279,-6.1863 -24.09453,-18.5813 -23.09335,-18.741 1.06676,-0.1708 64.71287,-1.5341 67.20179,-0.6812 2.48892,0.8528 30.57703,17.5646 31.82156,18.0764 0.22475,0.092 0.66883,0.2508 1.23819,0.4236 -12.09701,-8.1421 -31.01106,-19.4389 -34.21997,-19.7128 -0.9428,-0.6436 -11.05916,-0.9257 -23.39642,-0.947 z"
               style="color:#000000;fill:#ffdf88;fill-opacity:1;fill-rule:nonzero;stroke:none;stroke-width:2;marker:none;visibility:visible;display:inline;overflow:visible;enable-background:accumulate" />
            <path
               sodipodi:nodetypes="sccccsccccccccccccccccccccccsccccccccccc"
               style="color:#000000;fill:#ffd45d;fill-opacity:1;fill-rule:nonzero;stroke:none;stroke-width:2;marker:none;visibility:visible;display:inline;overflow:visible;enable-background:accumulate"
               d="m -810.85676,4068.7253 c -3.33259,0.01 -7.02045,0.069 -11.36049,0.2326 0.28304,0.3544 0.67307,0.7326 1.1343,1.1298 l 30.39281,0 0,-1.1298 c -7.199,-0.01 -12.83492,-0.2501 -20.16662,-0.2326 z m -126.54134,14.0889 c -7.58099,0.01 -14.54686,0.2059 -17.94126,0.7726 -0.33422,-0.038 0.14957,0.4083 1.18626,1.163 l 48.31672,0 c -1.28423,-0.6733 -2.22532,-1.163 -2.22532,-1.163 -2.35703,-0.2717 -16.70092,-0.7872 -29.3364,-0.7726 z m 110.176,0.5649 c 0,0 1.0079,0.5852 2.37254,1.3707 l 34.15942,0 0,-1.3707 z m -61.28778,18.1595 c -8.61303,0.021 -15.52417,0.2016 -17.41306,0.6811 5.44996,3.9091 11.32883,7.7627 18.0365,11.5221 -6.52524,-5.1957 -14.35512,-10.9146 -13.55985,-11.0236 0.87996,-0.1207 58.9525,1.4493 60.3353,1.57 1.12876,0.099 14.14256,6.5421 18.54738,8.4484 -6.81419,-4.3038 -14.69144,-8.8767 -19.82026,-10.5169 0,0 -27.17734,-0.7266 -46.12601,-0.6811 z m -63.39191,20.4605 c -9.90163,0 -20.71372,0.174 -32.97313,0.5898 11.5345,6.7459 22.80796,13.4974 30.4101,18.2757 -4.5145,-3.7333 -26.36674,-17.2539 -25.54377,-17.2539 0.88887,0 63.66692,-0.7226 65.08903,-0.042 1.08388,0.52 15.73401,7.7058 23.80334,11.223 -10.30422,-5.8538 -20.72744,-11.3665 -24.13238,-12.1451 -11.54029,-0.3567 -23.28704,-0.6519 -36.65319,-0.6479 z m 110.95533,25.8352 c 10.25769,7.9193 22.91445,16.7495 37.32856,24.9049 l -27.18032,-22.3878 40.10808,0 0,-2.5171 z"
               id="path33697"
               inkscape:connector-curvature="0" />
            <path
               style="opacity:0.6017699;color:#000000;fill:#ffd45d;fill-opacity:1;fill-rule:nonzero;stroke:none;stroke-width:2;marker:none;visibility:visible;display:inline;overflow:visible;enable-background:accumulate"
               d="m -929.68674,4101.5357 c -11.65968,0 -22.78224,0.4938 -33.88317,0.6862 -1.21254,1.1707 15.3167,11.9588 25.21807,16.9747 -5.17369,-3.7025 -17.25642,-13.0638 -15.7675,-13.0638 1.59999,0 45.70254,-2.6068 46.947,-2.2655 0.84998,0.2329 13.07743,6.5021 20.60443,10.3435 -7.56999,-4.6009 -14.37608,-8.1043 -21.44778,-11.9889 -7.47922,-0.5128 -14.67528,-0.6884 -21.67105,-0.6862 z m 91.33915,0.6779 c 0.40105,0.5345 1.22248,1.2397 2.35643,2.0671 l 45.30164,0 0,-2.0671 z"
               id="path33705"
               inkscape:connector-curvature="0"
               sodipodi:nodetypes="cccsccccccccc" />
            <path
               inkscape:connector-curvature="0"
               id="path33747"
               d="m -850.94598,4052.1478 0.32904,1.4788 c 0,0 -40.72611,0.1242 -41.60607,0.3656 -0.51716,0.1416 -1.98557,-0.3844 -3.29039,-0.9637 l 4.10432,2.6333 44.75792,0 c -0.19917,-0.8634 -2.02042,-2.1604 -4.29482,-3.514 z"
               style="opacity:0.77876108;color:#000000;fill:#e0ad21;fill-opacity:1;fill-rule:nonzero;stroke:none;stroke-width:2;marker:none;visibility:visible;display:inline;overflow:visible;enable-background:accumulate" />
            <path
               sodipodi:nodetypes="ccccccccsccscccccccscccc"
               style="color:#000000;fill:#e1b94a;fill-opacity:1;fill-rule:nonzero;stroke:none;stroke-width:2;marker:none;visibility:visible;display:inline;overflow:visible;enable-background:accumulate"
               d="m -982.95261,4050.7071 c 2.10782,1.5298 5.11599,3.2676 9.15246,4.951 l 36.28951,0 c -0.74009,-0.7719 -1.4619,-1.5395 -2.44184,-2.3758 l 3.70602,2.3758 43.33787,0 -4.51995,-2.8991 c 0.46963,0.7961 1.17761,1.8275 1.17761,1.8275 0,0 -38.08932,0.2411 -39.09501,0 -1.00565,-0.2411 -5.40191,-2.7742 -6.40759,-3.2564 -1.00565,-0.4825 2.26029,2.2919 2.00887,3.0155 -0.2514,0.7239 -32.92858,-0.3572 -33.93427,-0.3572 -0.80947,0 -6.2596,-1.953 -9.27368,-3.2813 z m 121.1555,6.0725 16.73767,9.4037 c 5.431,-0.2017 12.05999,-0.5417 17.491,0.1911 0.96276,0.5498 1.50208,0.6365 3.3077,1.5368 7.03968,0.4292 26.11157,0.5342 29.12858,-0.324 0,0 -0.48645,-0.3395 -1.1343,-0.7892 -1.65049,0.014 -25.66651,0.2077 -26.44435,0.2077 -0.80451,0 -4.36409,-1.8691 -4.36409,-1.8691 0,0 -16.66756,-0.222 -17.1273,-0.3323 -0.39911,-0.096 -11.08205,-6.0838 -14.20061,-8.0247 z"
               id="path33754"
               inkscape:connector-curvature="0" />
            <path
               style="color:#000000;fill:#ffd45d;fill-opacity:1;fill-rule:nonzero;stroke:none;stroke-width:2;marker:none;visibility:visible;display:inline;overflow:visible;enable-background:accumulate"
               d="m -884.30163,4121.077 c -14.37948,0.048 -27.84443,0.6902 -26.21054,1.5617 0,0 7.06492,4.3607 15.4908,9.3456 -5.32012,-3.9048 -12.86484,-8.9634 -12.0532,-8.9634 1.14935,0 43.50101,-0.5082 47.12859,0.2219 5.99299,1.2062 26.85041,10.8331 32.96634,13.7341 -10.4575,-5.9312 -22.52688,-12.6275 -26.66944,-14.3382 -3.8378,-1.0848 -15.79051,-1.5349 -27.76915,-1.5617 -0.96254,0 -1.92477,0 -2.8834,0 z m 47.26901,1.379 c -6.80737,0.012 -11.84539,0.062 -12.69399,0.1827 1.27287,1.6788 9.97975,6.7134 19.31805,11.763 -6.58319,-4.1976 -15.96477,-10.3547 -14.59893,-10.5003 1.90732,-0.2033 47.01534,-0.036 54.31737,-0.01 l 0,-1.2544 c 0,0 -21.88588,-0.1618 -39.03438,-0.1827 -2.57232,0 -5.03901,0 -7.30812,0 z"
               id="path33781"
               inkscape:connector-curvature="0"
               sodipodi:nodetypes="sccssccsscccsccssc" />
            <path
               sodipodi:nodetypes="ccccccccsccc"
               style="opacity:0.1946903;color:#000000;fill:#d3a834;fill-opacity:1;fill-rule:nonzero;stroke:none;stroke-width:2;marker:none;visibility:visible;display:inline;overflow:visible;enable-background:accumulate"
               d="m -889.41472,4112.0846 c -0.13134,0.047 0.17131,0.4982 0.81394,1.2545 4.1469,2.3491 8.60799,4.6597 13.49059,6.9198 0.11806,-0.01 0.29933,-0.011 0.38099,-0.016 3.21737,-0.2113 20.79718,0.8238 22.30536,1.4703 l 43.33785,0 c 0,0 -2.77337,-1.9674 -6.79724,-4.652 0.63785,1.6088 1.42872,3.2647 1.42872,3.2647 0,0 -58.57539,-1.2082 -60.3353,-1.57 -1.75992,-0.3618 -10.93699,-4.3423 -13.82829,-6.272 -0.45176,-0.3014 -0.71237,-0.429 -0.79662,-0.3987 z"
               id="path33817"
               inkscape:connector-curvature="0" />
            <path
               id="path33819"
               d="m -903.91401,4045.9905 c -0.87997,0 -1.2642,0.8389 -1.2642,0.8389 l 8.77149,5.6324 c 0.007,0 0.0102,0.01 0.0172,0.01 0.66098,0.2366 0.96043,0.2852 0.64943,0.016 -1.25708,-1.0854 -4.27132,-3.9784 -2.25996,-4.4611 2.01133,-0.4825 36.07951,0 37.83943,0.4819 1.31071,0.3592 5.25927,1.7859 7.19556,2.4922 -2.99322,-1.667 -6.17952,-3.2857 -7.45533,-4.1703 -1.77778,-0.6822 -43.49371,-0.839 -43.49371,-0.839 z"
               style="color:#000000;fill:#eac767;fill-opacity:1;fill-rule:nonzero;stroke:none;stroke-width:2;marker:none;visibility:visible;display:inline;overflow:visible;enable-background:accumulate"
               inkscape:connector-curvature="0" />
            <path
               id="path33821"
               d="m -806.18087,4046.0901 c -7.74537,0.039 -14.37535,0.4745 -21.48276,0.7393 l 6.72797,4.3115 c -1.48974,-1.3775 -3.13245,-2.9435 -2.77085,-2.8741 0.60659,0.1164 30.83212,0.01 33.01643,0 l 0,-1.6947 c -5.79542,-0.3857 -10.84355,-0.5053 -15.49079,-0.482 z"
               style="color:#000000;fill:#ffd45d;fill-opacity:1;fill-rule:nonzero;stroke:none;stroke-width:2;marker:none;visibility:visible;display:inline;overflow:visible;enable-background:accumulate"
               inkscape:connector-curvature="0" />
            <path
               id="path33823"
               d="m -845.77808,4046.1816 c -5.57615,0.011 -10.62585,0.2002 -11.32585,0.6478 -0.63742,0.2783 1.03593,1.6529 3.90517,3.5557 -1.06529,-0.8961 -2.20629,-2.1162 -1.05639,-2.4839 1.88562,-0.6029 23.38139,0.2446 25.0156,0.6064 1.63421,0.3618 10.43398,4.5855 10.43398,4.5855 0,0 -0.55669,-0.509 -1.25554,-1.1465 -4.79752,-2.8085 -8.74897,-4.9638 -9.70664,-5.1172 -0.8,-0.3836 -8.84099,-0.6622 -16.01033,-0.6478 z"
               style="color:#000000;fill:#ffd45d;fill-opacity:1;fill-rule:nonzero;stroke:none;stroke-width:2;marker:none;visibility:visible;display:inline;overflow:visible;enable-background:accumulate"
               inkscape:connector-curvature="0" />
            <path
               id="path33825"
               d="m -903.91401,4045.9905 c -0.87997,0 -1.2642,0.8389 -1.2642,0.8389 l 8.77149,5.6324 c 0.007,0 0.0102,0.01 0.0172,0.01 0.66098,0.2366 0.96043,0.2852 0.64943,0.016 -1.25708,-1.0854 -4.27132,-3.9784 -2.25996,-4.4611 2.01133,-0.4825 36.07951,0 37.83943,0.4819 1.31071,0.3592 5.25927,1.7859 7.19556,2.4922 -2.99322,-1.667 -6.17952,-3.2857 -7.45533,-4.1703 -1.77778,-0.6822 -43.49371,-0.839 -43.49371,-0.839 z"
               style="color:#000000;fill:#ffd45d;fill-opacity:1;fill-rule:nonzero;stroke:none;stroke-width:2;marker:none;visibility:visible;display:inline;overflow:visible;enable-background:accumulate"
               inkscape:connector-curvature="0" />
            <path
               id="path33827"
               d="m -908.81496,4056.0837 c -1.29196,0.016 -0.0346,0.9472 -0.0346,0.9472 l 15.94107,9.5116 c 0,0 1.50355,0.6848 4.01772,1.0466 l 31.60503,0.075 c -0.006,-0.3533 0.52699,-1.311 1.36811,-1.2962 3.27642,-0.1339 5.92802,0.01 9.20442,-0.1329 l -8.05279,-4.9011 c 1.0297,1.2901 2.04045,2.4749 2.35523,2.5504 0.71111,0.1704 -3.20163,0.6848 -4.62386,0.8557 -1.42223,0.1704 -2.48511,0.8472 -2.48511,0.8472 0,0 -30.5811,0.3416 -32.00333,-0.3405 -1.28778,-0.6181 -10.00967,-3.329 -17.05808,-9.1546 -0.0863,-0.01 -0.16329,-0.01 -0.23378,-0.01 z m 87.04805,12.8513 c -0.1538,0.01 -0.29481,0.011 -0.45027,0.016 0.15507,0.1941 0.35207,0.3987 0.56283,0.6064 0.0385,-0.2116 -2.7e-4,-0.4155 -0.11256,-0.6229 z"
               style="color:#000000;fill:#e2b330;fill-opacity:1;fill-rule:nonzero;stroke:none;stroke-width:2;marker:none;visibility:visible;display:inline;overflow:visible;enable-background:accumulate"
               inkscape:connector-curvature="0" />
            <path
               style="color:#000000;fill:#e1b94a;fill-opacity:1;fill-rule:nonzero;stroke:none;stroke-width:2;marker:none;visibility:visible;display:inline;overflow:visible;enable-background:accumulate"
               d="m -949.32139,4060.9498 c -0.20513,-0.028 -0.11979,0.2086 0.2251,0.6397 3.75268,2.1787 8.57094,4.6356 13.02301,5.8814 l 37.90007,0.1163 c 0,0 4.9849,0 3.60211,-0.5981 l -6.49419,-3.8711 c 0.37529,0.7537 4.41538,3.0897 3.55016,3.2813 -1.05653,0.2339 -36.89476,0.6243 -38.60143,0.3904 -1.70666,-0.2339 -10.32315,-4.0594 -12.59874,-5.5408 -0.28442,-0.1852 -0.49088,-0.2831 -0.60609,-0.2991 z"
               id="path33835"
               inkscape:connector-curvature="0" />
            <path
               style="color:#000000;fill:#cda232;fill-opacity:1;fill-rule:nonzero;stroke:none;stroke-width:19.38441849;marker:none;visibility:visible;display:inline;overflow:visible;enable-background:accumulate"
               d="m -3730.9215,15226.656 c 0.6416,5.774 0,14.115 0,14.115 l 50.6867,30.155 62.8771,0.642 0,-9.624 c 0,0 -37.213,-4.491 -40.421,-3.85 -3.208,0.642 -25.0225,2.567 -25.0225,2.567 z"
               id="path35208"
               inkscape:connector-curvature="0"
               transform="matrix(0.26458334,0,0,0.26458334,-6.3049604e-6,18.562493)"
               sodipodi:nodetypes="cccccccc" />
            <path
               style="color:#000000;fill:#cda232;fill-opacity:1;fill-rule:nonzero;stroke:none;stroke-width:19.38441849;marker:none;visibility:visible;display:inline;overflow:visible;enable-background:accumulate"
               d="m -3615.4329,15266.435 -0.6416,10.907 74.4259,38.496 0,-10.265 c 0,0 -41.7042,-20.531 -42.9874,-23.098 -1.2832,-2.566 -30.7969,-16.04 -30.7969,-16.04 z"
               id="path35210"
               inkscape:connector-curvature="0"
               transform="matrix(0.26458334,0,0,0.26458334,-6.3049604e-6,18.562493)"
               sodipodi:nodetypes="cccccc" />
            <path
               style="color:#000000;fill:#cda232;fill-opacity:1;fill-rule:nonzero;stroke:none;stroke-width:19.38441849;marker:none;visibility:visible;display:inline;overflow:visible;enable-background:accumulate"
               d="m -3612.2249,15365.884 0.6416,9.624 89.1828,52.611 9.6241,0 -53.2531,-33.363 z"
               id="path35212"
               inkscape:connector-curvature="0"
               transform="matrix(0.26458334,0,0,0.26458334,-6.3049604e-6,18.562493)" />
            <path
               style="color:#000000;fill:#cda232;fill-opacity:1;fill-rule:nonzero;stroke:none;stroke-width:19.38441849;marker:none;visibility:visible;display:inline;overflow:visible;enable-background:accumulate"
               d="m -3643.6635,15439.026 c 0,3.208 0.6417,15.399 0.6417,15.399 l 87.8996,53.894 17.3232,0 -53.8946,-35.288 z"
               id="path35214"
               inkscape:connector-curvature="0"
               transform="matrix(0.26458334,0,0,0.26458334,-6.3049604e-6,18.562493)" />
            <path
               style="color:#000000;fill:#cda232;fill-opacity:1;fill-rule:nonzero;stroke:none;stroke-width:19.38441849;marker:none;visibility:visible;display:inline;overflow:visible;enable-background:accumulate"
               d="m -3536.5158,15305.573 -0.6416,7.699 23.7394,0.642 -1.2832,-7.7 z"
               id="path35216"
               inkscape:connector-curvature="0"
               transform="matrix(0.26458334,0,0,0.26458334,-6.3049604e-6,18.562493)" />
            <path
               style="color:#000000;fill:#cda232;fill-opacity:1;fill-rule:nonzero;stroke:none;stroke-width:19.38441849;marker:none;visibility:visible;display:inline;overflow:visible;enable-background:accumulate"
               d="m -3514.7012,15321.613 c 3.208,2.566 66.7267,37.855 66.7267,37.855 l 9.624,0.641 c 0,0 -40.421,-27.589 -44.9122,-30.155 -4.4912,-2.567 -30.7969,-15.399 -30.7969,-15.399 z"
               id="path35218"
               inkscape:connector-curvature="0"
               transform="matrix(0.26458334,0,0,0.26458334,-6.3049604e-6,18.562493)"
               sodipodi:nodetypes="cccccc" />
            <path
               style="color:#000000;fill:#cda232;fill-opacity:1;fill-rule:nonzero;stroke:none;stroke-width:19.38441849;marker:none;visibility:visible;display:inline;overflow:visible;enable-background:accumulate"
               d="m -3720.0142,15519.868 c -0.6416,2.567 1.2832,16.682 1.2832,16.682 l 121.9046,73.784 32.7217,9.624 c 0,0 2.5664,-12.832 -1.2832,-13.473 -3.8496,-0.642 -22.4561,-7.7 -22.4561,-7.7 l -73.1427,-51.328 z"
               id="path35220"
               inkscape:connector-curvature="0"
               transform="matrix(0.26458334,0,0,0.26458334,-6.3049604e-6,18.562493)" />
            <path
               style="color:#000000;fill:#cda232;fill-opacity:1;fill-rule:nonzero;stroke:none;stroke-width:19.38441849;marker:none;visibility:visible;display:inline;overflow:visible;enable-background:accumulate"
               d="m -3562.8215,15607.768 c -0.6416,2.566 0.6416,14.757 0.6416,14.757 l 85.9748,0 -0.6416,-11.549 c 0,0 -36.5713,-7.699 -39.7794,-7.699 -3.208,0 -46.1954,4.491 -46.1954,4.491 z"
               id="path35222"
               inkscape:connector-curvature="0"
               transform="matrix(0.26458334,0,0,0.26458334,-6.3049604e-6,18.562493)" />
            <path
               style="color:#000000;fill:#cda232;fill-opacity:1;fill-rule:nonzero;stroke:none;stroke-width:19.38441849;marker:none;visibility:visible;display:inline;overflow:visible;enable-background:accumulate"
               d="m -3472.3555,15618.675 c 0,3.208 -0.6416,15.399 -0.6416,15.399 l 134.7367,85.333 23.7393,-2.567 -85.3332,-55.177 z"
               id="path35224"
               inkscape:connector-curvature="0"
               transform="matrix(0.26458334,0,0,0.26458334,-6.3049604e-6,18.562493)" />
          </g>
          <path
             inkscape:connector-curvature="0"
             id="path35276"
             d="m -658.38745,4032.6795 c 14.88456,0.4802 39.61209,-12.0036 40.33232,-10.5632 0.72022,1.4406 15.60475,13.9244 18.48564,16.085 2.88089,2.1606 -68.42088,-2.4008 -70.34146,-2.1606 -1.92061,0.24 11.5235,-3.3612 11.5235,-3.3612 z"
             style="color:#000000;fill:#f4d06e;fill-opacity:1;fill-rule:nonzero;stroke:none;stroke-width:19.38441849;marker:none;visibility:visible;display:inline;overflow:visible;enable-background:accumulate" />
          <g
             id="g36705"
             transform="matrix(1.0979256,0,0,1,-526.25876,-197.13114)">
            <path
               sodipodi:nodetypes="cccsscc"
               inkscape:connector-curvature="0"
               id="path36707"
               transform="matrix(0.24098476,0,0,0.26458334,479.32096,215.69363)"
               d="m -2042.75,15498.469 c -65.1076,29.868 -75.3816,53.253 -92.5,61.812 -15.4313,7.716 -104.171,15.449 -203.7188,39.344 l 628.5626,0 c 0.015,0 0.031,-0.02 0.031,-0.06 l 0,-99.562 c -160.4512,2.293 -256.6212,0.752 -332.375,-1.531 z"
               style="opacity:0.27876108;color:#000000;fill:#f7ba31;fill-opacity:1;fill-rule:nonzero;stroke:none;stroke-width:19.38441849;marker:none;visibility:visible;display:inline;overflow:visible;enable-background:accumulate" />
            <path
               sodipodi:nodetypes="cccscssccc"
               inkscape:connector-curvature="0"
               id="path36709"
               transform="matrix(0.24098476,0,0,0.26458334,479.32096,215.69363)"
               d="m -1968.4375,15545.781 c -2.295,0 -4.5383,0.04 -6.75,0.09 -52.4447,0.306 -98.5028,2.276 -147.9063,5.656 -4.2358,3.713 -7.9964,6.67 -12.1562,8.75 -15.4313,7.716 -104.171,15.449 -203.7188,39.344 l 628.5626,0 c 0.015,0 0.031,-0.02 0.031,-0.06 l 0,-46.13 c -76.9272,2.962 -186.9189,-7.576 -258.0625,-7.651 z"
               style="color:#000000;fill:#fddd82;fill-opacity:1;fill-rule:nonzero;stroke:none;stroke-width:19.38441849;marker:none;visibility:visible;display:inline;overflow:visible;enable-background:accumulate" />
            <path
               sodipodi:nodetypes="ccccccccc"
               inkscape:connector-curvature="0"
               id="path36711"
               transform="matrix(0.24098476,0,0,0.26458334,479.32096,215.69363)"
               d="m -1968.4062,15545.781 c -2.295,0 -4.5696,0.01 -6.7813,0.06 -52.4447,0.306 -98.5068,2.305 -147.9063,5.687 -3.6548,3.204 -6.9609,5.844 -10.4687,7.844 55.8136,-6.484 106.8708,-11.605 163.8125,-11.937 70.774,-1.572 179.9662,20.052 259.375,16.994 l 0,-11 c -76.9272,2.962 -186.8877,-7.576 -258.0312,-7.651 z"
               style="color:#000000;fill:#fde294;fill-opacity:1;fill-rule:nonzero;stroke:none;stroke-width:19.38441849;marker:none;visibility:visible;display:inline;overflow:visible;enable-background:accumulate" />
          </g>
          <g
             id="g36882">
            <path
               style="font-size:medium;font-style:normal;font-variant:normal;font-weight:normal;font-stretch:normal;text-indent:0;text-align:start;text-decoration:none;line-height:normal;letter-spacing:normal;word-spacing:normal;text-transform:none;direction:ltr;block-progression:tb;writing-mode:lr-tb;text-anchor:start;baseline-shift:baseline;color:#000000;fill:#b59235;fill-opacity:1;fill-rule:nonzero;stroke:none;stroke-width:19.38400078;marker:none;visibility:visible;display:inline;overflow:visible;enable-background:accumulate;font-family:Sans;-inkscape-font-specification:Sans"
               d="m -641.29888,4037.6627 c -0.0516,0 -0.10308,0 -0.15444,0.01 l -22.64662,2.2393 c -0.82948,0.085 -1.59516,0.6374 -1.93807,1.3975 -0.019,0.038 -0.0371,0.077 -0.0541,0.1159 -0.22929,0.4401 -0.31699,0.9526 -0.24709,1.4439 l 0.44784,3.0268 c 0.0929,0.6339 0.45241,1.2245 0.97289,1.5982 l 16.19933,11.6516 0.0695,0.047 c 0.0228,0.018 0.046,0.037 0.0695,0.054 l 0.0926,0.062 c 0.47179,0.3153 1.05819,0.455 1.62148,0.3861 l 22.53855,-2.8029 c 0.99042,-0.1227 1.85818,-0.9285 2.05385,-1.9072 l 0.3938,-1.9611 c 1.07543,-0.9908 0.895,-3.0002 -0.33974,-3.7836 l -17.71271,-11.2037 c -0.40473,-0.2565 -0.88782,-0.3875 -1.36669,-0.3706 z m -0.49417,4.8569 15.2033,9.6206 -0.0387,0.2086 -19.89013,2.4708 -14.46203,-10.4008 19.18748,-1.8992 z m -7.85258,14.6781 c -10e-5,0.013 -10e-5,0.025 0,0.038 -2.7e-4,0.087 -0.007,0.124 0,0.1621 -0.008,-0.04 -0.003,-0.097 0,-0.2007 z"
               id="path36868"
               inkscape:connector-curvature="0"
               sodipodi:nodetypes="cccccccccccccccccccccccccccccccc" />
            <path
               sodipodi:nodetypes="ccccccc"
               inkscape:connector-curvature="0"
               id="path36861"
               d="m -664.64296,4045.5046 17.52537,12.6039 24.12736,-3.0008 0.7202,-3.6013 -18.48563,-7.6823 -24.36744,-1.5604 z"
               style="color:#000000;fill:#cda232;fill-opacity:1;fill-rule:nonzero;stroke:none;stroke-width:19.38441849;marker:none;visibility:visible;display:inline;overflow:visible;enable-background:accumulate" />
            <path
               inkscape:connector-curvature="0"
               style="color:#000000;fill:#a48128;fill-opacity:1;fill-rule:nonzero;stroke:none;stroke-width:19.38441849;marker:none;visibility:visible;display:inline;overflow:visible;enable-background:accumulate"
               d="m -2405.0938,15220.5 c -18.4012,8.059 -20.1969,10.404 -23,12.156 -3.6294,2.268 -15.875,11.782 -15.875,11.782 0.6795,9.059 -0.803,16.867 -2.2187,22.874 l 0.375,0.25 91.2187,-11.343 2.7188,-13.594 -53.2188,-22.125 z"
               transform="matrix(0.26458334,0,0,0.26458334,-6.3049604e-6,18.562493)"
               id="path36863" />
            <path
               style="color:#000000;fill:#e9c254;fill-opacity:1;fill-rule:nonzero;stroke:none;stroke-width:19.38441849;marker:none;visibility:visible;display:inline;overflow:visible;enable-background:accumulate"
               d="m -2504.3237,15214.948 60.7934,39.924 72.5891,-8.166 20.8693,-3.63 -71.6817,-45.368 -91.6437,9.074 z"
               id="path36859"
               inkscape:connector-curvature="0"
               transform="matrix(0.26458334,0,0,0.26458334,-6.3049604e-6,18.562493)"
               sodipodi:nodetypes="ccccccc" />
            <path
               inkscape:connector-curvature="0"
               style="color:#000000;fill:#f7cd5a;fill-opacity:1;fill-rule:nonzero;stroke:none;stroke-width:19.38400078;marker:none;visibility:visible;display:inline;overflow:visible;enable-background:accumulate"
               d="m -2421.75,15197.719 -91.6562,9.062 9.0937,8.157 44.75,29.406 c -12.8553,-10.426 -40.7742,-32.028 -37.0625,-31.656 4.5368,0.453 71.6841,-9.534 74.4062,-8.626 1.6296,0.543 28.214,14.203 48.9688,24.344 l -48.5,-30.687 z"
               transform="matrix(0.26458334,0,0,0.26458334,-6.3049604e-6,18.562493)"
               id="path36877" />
          </g>
          <g
             transform="matrix(0.99971467,0.02388694,-0.02388694,0.99971467,86.684064,66.228039)"
             id="g36889">
            <path
               sodipodi:nodetypes="cccccccccccccccccccccccccccccccc"
               inkscape:connector-curvature="0"
               id="path36891"
               d="m -641.29888,4037.6627 c -0.0516,0 -0.10308,0 -0.15444,0.01 l -22.64662,2.2393 c -0.82948,0.085 -1.59516,0.6374 -1.93807,1.3975 -0.019,0.038 -0.0371,0.077 -0.0541,0.1159 -0.22929,0.4401 -0.31699,0.9526 -0.24709,1.4439 l 0.44784,3.0268 c 0.0929,0.6339 0.45241,1.2245 0.97289,1.5982 l 33.91795,24.5561 0.0695,0.047 c 0.0228,0.018 0.046,0.037 0.0695,0.054 l 0.0926,0.062 c 0.47179,0.3153 1.05819,0.455 1.62148,0.3861 l 22.53855,-2.8029 c 0.99042,-0.1227 1.85818,-0.9285 2.05385,-1.9072 l 0.3938,-1.9611 c 1.07543,-0.9908 0.895,-3.0002 -0.33974,-3.7836 l -35.43133,-24.1082 c -0.40473,-0.2565 -0.88782,-0.3875 -1.36669,-0.3706 z m -0.49417,4.8569 32.92192,22.5251 -0.0387,0.2086 -19.89013,2.4708 -32.18065,-23.3053 19.18748,-1.8992 z m 9.86604,27.5826 c -10e-5,0.013 -10e-5,0.025 0,0.038 -2.7e-4,0.087 -0.007,0.124 0,0.1621 -0.008,-0.04 -0.003,-0.097 0,-0.2007 z"
               style="font-size:medium;font-style:normal;font-variant:normal;font-weight:normal;font-stretch:normal;text-indent:0;text-align:start;text-decoration:none;line-height:normal;letter-spacing:normal;word-spacing:normal;text-transform:none;direction:ltr;block-progression:tb;writing-mode:lr-tb;text-anchor:start;baseline-shift:baseline;color:#000000;fill:#b59235;fill-opacity:1;fill-rule:nonzero;stroke:none;stroke-width:19.38400078;marker:none;visibility:visible;display:inline;overflow:visible;enable-background:accumulate;font-family:Sans;-inkscape-font-specification:Sans" />
            <path
               style="color:#000000;fill:#cda232;fill-opacity:1;fill-rule:nonzero;stroke:none;stroke-width:19.38441849;marker:none;visibility:visible;display:inline;overflow:visible;enable-background:accumulate"
               d="m -664.64296,4045.5046 35.24399,25.5084 24.12736,-3.0008 0.7202,-3.6013 -36.20425,-20.5868 -24.36744,-1.5604 z"
               id="path36893"
               inkscape:connector-curvature="0"
               sodipodi:nodetypes="ccccccc" />
            <path
               sodipodi:nodetypes="cccccccc"
               inkscape:connector-curvature="0"
               id="path36895"
               transform="matrix(0.26458334,0,0,0.26458334,-6.3049604e-6,18.562493)"
               d="m -2405.0938,15220.5 c -18.4012,8.059 46.7711,59.177 43.968,60.929 -3.6294,2.268 -15.875,11.782 -15.875,11.782 0.6795,9.059 -0.803,16.867 -2.2187,22.874 l 0.375,0.25 91.2187,-11.343 2.7188,-13.594 z"
               style="color:#000000;fill:#a48128;fill-opacity:1;fill-rule:nonzero;stroke:none;stroke-width:19.38441849;marker:none;visibility:visible;display:inline;overflow:visible;enable-background:accumulate" />
            <path
               sodipodi:nodetypes="ccccccc"
               transform="matrix(0.26458334,0,0,0.26458334,-6.3049604e-6,18.562493)"
               inkscape:connector-curvature="0"
               id="path36897"
               d="m -2504.3237,15214.948 127.7614,88.697 72.5891,-8.166 20.8693,-3.63 -138.6497,-94.141 -91.6437,9.074 z"
               style="color:#000000;fill:#e9c254;fill-opacity:1;fill-rule:nonzero;stroke:none;stroke-width:19.38441849;marker:none;visibility:visible;display:inline;overflow:visible;enable-background:accumulate" />
            <path
               inkscape:connector-curvature="0"
               id="path36899"
               transform="matrix(0.26458334,0,0,0.26458334,-6.3049604e-6,18.562493)"
               d="m -2421.75,15197.719 -91.6562,9.062 9.0937,8.157 44.75,29.406 c -12.8553,-10.426 -40.7742,-32.028 -37.0625,-31.656 4.5368,0.453 71.6841,-9.534 74.4062,-8.626 1.6296,0.543 28.214,14.203 48.9688,24.344 l -48.5,-30.687 z"
               style="color:#000000;fill:#f7cd5a;fill-opacity:1;fill-rule:nonzero;stroke:none;stroke-width:19.38400078;marker:none;visibility:visible;display:inline;overflow:visible;enable-background:accumulate" />
          </g>
          <path
             transform="matrix(0.26458334,0,0,0.26458334,-6.3049604e-6,18.562493)"
             inkscape:connector-curvature="0"
             id="path36953"
             d="m -2552.414,15160.96 c 41.7387,0.907 135.1972,-10.889 157.8813,-16.333 22.6841,-5.444 36.2945,-12.703 48.9976,-18.147 12.7031,-5.444 130.6604,-0.907 125.2162,0.907 -5.4442,1.815 -108.8836,7.259 -108.8836,7.259 0,0 38.1092,37.202 51.7197,47.183 13.6104,9.981 21.7767,10.889 17.2399,12.703 -4.5368,1.815 -36.2945,-23.591 -100.7174,-26.313 -64.4228,-2.722 -228.6556,-2.722 -228.6556,-2.722 z"
             style="color:#000000;fill:#fddd82;fill-opacity:1;fill-rule:nonzero;stroke:none;stroke-width:19.38400078;marker:none;visibility:visible;display:inline;overflow:visible;enable-background:accumulate" />
          <path
             sodipodi:nodetypes="cccccscscsccccc"
             inkscape:connector-curvature="0"
             id="path36955"
             transform="matrix(0.26458334,0,0,0.26458334,-6.3049604e-6,18.562493)"
             d="m -2597.1875,15197.812 c 0.032,0.07 0.9897,0.485 3.0313,1.25 0.7676,0.288 1.8493,0.569 3.0937,0.813 -3.9089,-1.426 -6.175,-2.172 -6.125,-2.063 z m 6.125,2.063 c 11.4765,4.187 37.6311,14.584 64.9687,29.125 42.6462,22.684 70.7724,62.617 78.0313,68.969 7.2589,6.351 24.5078,-3.629 52.6361,-19.055 28.1283,-15.426 51.7076,-21.789 51.7076,-21.789 0,0 -6.3504,-2.721 -26.3124,-1.813 -19.9621,0.908 -74.4063,0.907 -74.4063,0.907 0,0 -19.383,2.119 -68.9687,-29.938 l -2.4688,-14.906 c -0.404,-2.586 -0.7995,-5.3 -1.1875,-8.031 -26.415,-0.627 -61.4232,-0.998 -74,-3.469 z"
             style="color:#000000;fill:#fddd82;fill-opacity:1;fill-rule:nonzero;stroke:none;stroke-width:19.38400078;marker:none;visibility:visible;display:inline;overflow:visible;enable-background:accumulate" />
          <path
             sodipodi:nodetypes="csssssssc"
             transform="matrix(0.26458334,0,0,0.26458334,-6.3049604e-6,18.562493)"
             inkscape:connector-curvature="0"
             id="path36960"
             d="m -2497.0648,15512.11 c 61.4669,-8.354 164.0887,-41.129 176.0285,-29.036 8.5769,8.687 30.8504,19.962 64.4229,14.518 33.5724,-5.444 52.6271,-18.147 63.5154,-19.962 10.8884,-1.815 178.7507,-1.815 162.4181,0 -16.3325,1.815 -139.734,1.815 -146.0855,11.796 -6.3516,9.981 32.6651,50.812 58.0712,60.793 25.4062,9.981 27.6465,-0.272 -115.2352,-19.055 -142.456,-18.727 -263.1354,-4.367 -263.1354,-19.054 z"
             style="color:#000000;fill:#fddd82;fill-opacity:1;fill-rule:nonzero;stroke:none;stroke-width:19.38400078;marker:none;visibility:visible;display:inline;overflow:visible;enable-background:accumulate" />
          <path
             transform="matrix(0.26458334,0,0,0.26458334,-6.3049604e-6,18.562493)"
             inkscape:connector-curvature="0"
             id="path36962"
             d="m -2436.2714,15376.912 c 56.2565,-9.073 45.3681,-53.534 70.7743,-42.646 25.4062,10.889 72.5891,25.406 86.1996,29.943 13.6104,4.537 135.1972,9.981 135.1972,9.981 0,0 115.2351,0.908 105.2541,0.908 -9.981,0 -127.0309,1.814 -123.4014,8.166 3.6294,6.351 103.4394,59.886 92.5511,55.349 -10.8884,-4.537 -99.81,-50.812 -122.4941,-55.349 -22.6841,-4.537 -244.0808,-6.352 -244.0808,-6.352 z"
             style="color:#000000;fill:#fddd82;fill-opacity:1;fill-rule:nonzero;stroke:none;stroke-width:19.38400078;marker:none;visibility:visible;display:inline;overflow:visible;enable-background:accumulate" />
          <path
             transform="matrix(0.26458334,0,0,0.26458334,-6.3049604e-6,18.562493)"
             inkscape:connector-curvature="0"
             id="path36964"
             d="m -1850.1145,15106.518 c -65.3302,-0.907 -125.2162,12.703 -86.1996,17.24 39.0167,4.537 142.4561,6.351 146.9929,-4.537 4.5369,-10.888 -60.7933,-12.703 -60.7933,-12.703 z"
             style="color:#000000;fill:#fddd82;fill-opacity:1;fill-rule:nonzero;stroke:none;stroke-width:19.38400078;marker:none;visibility:visible;display:inline;overflow:visible;enable-background:accumulate" />
          <path
             transform="matrix(0.26458334,0,0,0.26458334,-6.3049604e-6,18.562493)"
             inkscape:connector-curvature="0"
             id="path36966"
             d="m -1968.9792,15115.592 c -26.3135,1.814 -27.2209,14.517 0,14.517 27.221,0 53.5345,-6.351 38.1093,-9.073 -15.4252,-2.722 -38.1093,-5.444 -38.1093,-5.444 z"
             style="color:#000000;fill:#fddd82;fill-opacity:1;fill-rule:nonzero;stroke:none;stroke-width:19.38400078;marker:none;visibility:visible;display:inline;overflow:visible;enable-background:accumulate" />
          <path
             transform="matrix(0.26458334,0,0,0.26458334,-6.3049604e-6,18.562493)"
             inkscape:connector-curvature="0"
             id="path36968"
             d="m -2148.6372,15127.387 c 30.8504,-5.444 32.6651,-9.073 42.6461,-6.351 9.981,2.722 115.2352,10.888 97.0879,11.796 -18.1472,0.907 -138.8266,-2.723 -134.2898,3.629 4.5368,6.352 38.1093,32.665 12.7031,17.24 -25.4062,-15.425 -60.7934,-23.592 -48.9976,-24.499 11.7957,-0.907 30.8503,-1.815 30.8503,-1.815 z"
             style="color:#000000;fill:#fddd82;fill-opacity:1;fill-rule:nonzero;stroke:none;stroke-width:19.38400078;marker:none;visibility:visible;display:inline;overflow:visible;enable-background:accumulate" />
          <path
             sodipodi:nodetypes="csccsc"
             transform="matrix(0.26458334,0,0,0.26458334,-6.3049604e-6,18.562493)"
             inkscape:connector-curvature="0"
             id="path36970"
             d="m -2305.6111,15173.663 c 37.2019,20.869 72.5891,-0.907 70.7744,7.259 -1.8147,8.166 49.905,47.182 49.905,47.182 l -119.772,-1.814 c 0,0 29.9429,2.722 39.9239,-15.425 9.981,-18.147 -40.8313,-37.202 -40.8313,-37.202 z"
             style="color:#000000;fill:#fddd82;fill-opacity:1;fill-rule:nonzero;stroke:none;stroke-width:19.38400078;marker:none;visibility:visible;display:inline;overflow:visible;enable-background:accumulate" />
          <path
             transform="matrix(0.26458334,0,0,0.26458334,-6.3049604e-6,18.562493)"
             inkscape:connector-curvature="0"
             id="path36972"
             d="m -2336.4614,15257.14 c 48.9976,23.592 93.4584,33.573 96.1805,34.48 2.7221,0.908 197.8053,3.63 193.2685,3.63 -4.5369,0 -56.2566,-39.017 -48.9977,-35.388 7.2589,3.63 76.2186,39.017 87.1069,40.832 10.8884,1.815 101.6248,1.815 97.9953,0 -3.6294,-1.815 -225.9335,4.537 -225.9335,4.537 0,0 42.6461,37.202 30.8503,27.221 -11.7957,-9.981 -48.0902,-26.314 -58.9786,-29.036 -10.8884,-2.722 -93.4585,-8.166 -101.6247,-9.074 -8.1663,-0.907 -69.867,-37.202 -69.867,-37.202 z"
             style="color:#000000;fill:#fddd82;fill-opacity:1;fill-rule:nonzero;stroke:none;stroke-width:19.38400078;marker:none;visibility:visible;display:inline;overflow:visible;enable-background:accumulate" />
          <path
             transform="matrix(0.26458334,0,0,0.26458334,-6.3049604e-6,18.562493)"
             inkscape:connector-curvature="0"
             id="path37052"
             d="m -2620.9483,15411.437 c 41.7042,3.85 66.0851,-24.381 66.7267,-18.606 0.6416,5.774 94.9573,100.09 130.8871,110.997 35.9297,10.907 39.1377,10.907 34.0049,10.266 -5.1328,-0.642 -109.0725,7.699 -94.9572,-0.642 14.1152,-8.341 -17.3233,-59.669 -34.005,-75.709 -16.6817,-16.04 -100.0901,-24.381 -100.0901,-24.381 z"
             style="color:#000000;fill:#fddd82;fill-opacity:1;fill-rule:nonzero;stroke:none;stroke-width:19.38400078;marker:none;visibility:visible;display:inline;overflow:visible;enable-background:accumulate" />
          <path
             transform="matrix(0.26458334,0,0,0.26458334,-6.3049604e-6,18.562493)"
             inkscape:connector-curvature="0"
             id="path37054"
             d="m -2461.8307,15383.848 c 17.9649,13.474 15.3985,35.93 48.7618,61.594 33.3634,25.664 89.8244,33.364 86.6164,32.08 -3.208,-1.283 -27.5889,-37.854 -50.6866,-55.177 -23.0977,-17.324 -84.6916,-38.497 -84.6916,-38.497 z"
             style="color:#000000;fill:#fddd82;fill-opacity:1;fill-rule:nonzero;stroke:none;stroke-width:19.38400078;marker:none;visibility:visible;display:inline;overflow:visible;enable-background:accumulate" />
          <path
             transform="matrix(0.26458334,0,0,0.26458334,-6.3049604e-6,18.562493)"
             inkscape:connector-curvature="0"
             id="path37056"
             d="m -2462.585,15111.055 c 26.3136,17.24 48.0903,9.073 49.905,16.332 1.8147,7.259 32.6651,16.333 23.5915,19.962 -9.0737,3.63 -81.6628,6.352 -64.4229,7.259 17.24,0.908 11.7958,-19.962 3.6295,-30.85 -8.1663,-10.888 -12.7031,-12.703 -12.7031,-12.703 z"
             style="color:#000000;fill:#fddd82;fill-opacity:1;fill-rule:nonzero;stroke:none;stroke-width:19.38400078;marker:none;visibility:visible;display:inline;overflow:visible;enable-background:accumulate" />
          <path
             sodipodi:nodetypes="ccccscsscc"
             transform="matrix(0.26458334,0,0,0.26458334,-6.3049604e-6,18.562493)"
             inkscape:connector-curvature="0"
             id="path37058"
             d="m -2047.0124,15473.093 c 28.2419,-11.04 210.5232,-22.362 231.3777,-6.352 5.4442,-4.536 -75.3112,-56.256 -58.9786,-47.182 16.3325,9.073 93.4584,49.905 116.1425,48.997 22.6841,-0.907 39.0166,9.074 0,7.259 -39.0166,-1.815 -97.9953,6.352 -100.7174,19.962 -2.722,13.611 122.4941,80.755 107.9763,77.126 -14.5178,-3.629 -98.9026,-51.72 -143.3634,-77.126 -44.4609,-25.406 -178.7507,-17.24 -187.8243,-18.147 -9.0737,-0.908 35.3872,-4.537 35.3872,-4.537 z"
             style="color:#000000;fill:#fddd82;fill-opacity:1;fill-rule:nonzero;stroke:none;stroke-width:19.38400078;marker:none;visibility:visible;display:inline;overflow:visible;enable-background:accumulate" />
        </g>
        <g
           transform="matrix(1.0979295,0,0,0.9999937,-526.25962,-214.89039)"
           id="g36664">
          <path
             style="opacity:0.27876108;color:#000000;fill:#f7ba31;fill-opacity:1;fill-rule:nonzero;stroke:none;stroke-width:19.38441849;marker:none;visibility:visible;display:inline;overflow:visible;enable-background:accumulate"
             d="m -2399.4375,15089.125 c -40.121,7.366 -33.3776,7.336 -41.0571,12.136 -4.07,2.544 -10.3319,-3.229 -11.0982,3.126 9.1662,-0.923 -0.2791,5.145 8.8054,3.572 31.4712,-5.449 12.4674,11.088 23.2874,8.322 25.2202,2.171 48.0005,4.481 61.0625,5.188 29.0357,1.571 107.0714,-1.565 150.625,-12.563 9.924,-2.506 23.1549,-4.103 37.6563,-5.094 -9.9052,-0.06 -20.5815,-0.146 -31.3126,-0.218 40.547,-9.797 100.25,-6.344 100.25,-6.344 0,0 10.4157,2.496 26.8126,6.125 -22.3324,-0.875 -62.3836,-1.841 -95.75,0.437 41.3096,0.261 76.3367,0.44 99.9062,0.5 48.7681,10.695 142.6679,29.494 187.1875,26.282 26.5158,-1.913 98.6694,-1.358 172.6875,-1.875 l 0,-39.469 c 0,-0.05 -0.016,-0.125 -0.031,-0.125 z"
             transform="matrix(0.24098391,0,0,0.26458501,479.32004,233.45435)"
             id="path36666"
             inkscape:connector-curvature="0"
             sodipodi:nodetypes="cccsccsccccccscssc" />
          <path
             inkscape:connector-curvature="0"
             style="color:#000000;fill:#fddd82;fill-opacity:1;fill-rule:nonzero;stroke:none;stroke-width:10.92599964;marker:none;visibility:visible;display:inline;overflow:visible;enable-background:accumulate"
             d="m -1966.375,15066.406 c -67.1448,0 -121.7103,6.213 -256,12.438 -19.3658,0.309 -41.3125,-0.136 -64.25,-1 -31.057,5.585 -57.2657,8.315 -77.0312,7.656 -22.2938,-0.743 -59.6039,7.997 -89.0938,16.719 53.7704,3.772 162.081,12.494 195.4688,8.937 35.3713,-3.767 42.447,-10.982 74.2812,-11.156 31.8342,-0.17 166.496,-0.734 187.7188,0.938 21.2228,1.671 -50.4333,2.008 -109.9063,11.156 -23.5433,6.505 128.3212,-3.6 273.3437,-16.906 52.1599,0 102.4918,1.101 108.25,-1.407 l 13.2188,0 0,-19.906 c -148.8185,0 -190.2679,-7.469 -256,-7.469 z"
             transform="matrix(0.24098391,0,0,0.26458501,479.32004,233.45435)"
             id="path36668" />
          <path
             inkscape:connector-curvature="0"
             style="opacity:0.42920353;color:#000000;fill:#feeab2;fill-opacity:1;fill-rule:nonzero;stroke:none;stroke-width:10.92599964;marker:none;visibility:visible;display:inline;overflow:visible;enable-background:accumulate"
             d="m -1966.375,15066.406 c -67.1448,0 -121.7103,6.213 -256,12.438 -19.3658,0.309 -41.3125,-0.138 -64.25,-1 -26.2006,4.709 -48.9427,7.394 -67.2812,7.718 45.8066,2.568 93.5984,4.887 131.5312,4.282 134.2897,-6.225 188.8552,-12.469 256,-12.469 65.7321,0 107.1815,7.5 256,7.5 l 0,-11 c -148.8185,0 -190.2679,-7.469 -256,-7.469 z m -129.75,44.375 c -3.0408,0.418 -6.07,0.822 -9.0625,1.281 -11.7981,3.261 20.4518,2.365 73.8125,-1.031 -18.6918,-0.193 -41.8212,-0.246 -64.75,-0.25 z"
             transform="matrix(0.24098391,0,0,0.26458501,479.32004,233.45435)"
             id="path36672" />
          <path
             sodipodi:type="arc"
             style="color:#000000;fill:#fddd82;fill-opacity:1;fill-rule:nonzero;stroke:none;stroke-width:19.38441849;marker:none;visibility:visible;display:inline;overflow:visible;enable-background:accumulate"
             id="path36676"
             sodipodi:cx="-1288.4564"
             sodipodi:cy="16220.761"
             sodipodi:rx="25.406183"
             sodipodi:ry="6.3515458"
             d="m -1263.0502,16220.761 c 0,3.508 -11.3748,6.351 -25.4062,6.351 -14.0315,0 -25.4062,-2.843 -25.4062,-6.351 0,-3.508 11.3747,-6.352 25.4062,-6.352 14.0314,0 25.4062,2.844 25.4062,6.352 z"
             transform="matrix(0.24098364,0,0,0.22907458,201.78492,512.99212)" />
          <path
             sodipodi:type="arc"
             style="color:#000000;fill:#fddd82;fill-opacity:1;fill-rule:nonzero;stroke:none;stroke-width:19.38441849;marker:none;visibility:visible;display:inline;overflow:visible;enable-background:accumulate"
             id="path36678"
             sodipodi:cx="-698.67004"
             sodipodi:cy="16221.668"
             sodipodi:rx="10.888364"
             sodipodi:ry="1.8147273"
             d="m -687.78168,16221.668 c 0,1.002 -4.87489,1.815 -10.88836,1.815 -6.01348,0 -10.88837,-0.813 -10.88837,-1.815 0,-1.002 4.87489,-1.815 10.88837,-1.815 6.01347,0 10.88836,0.813 10.88836,1.815 z"
             transform="matrix(0.24098364,0,0,0.22907458,201.78492,512.99212)" />
        </g>
      </g>
      <rect
         ry="0.0057491274"
         rx="0.0016903153"
         y="3991.3599"
         x="-543.52594"
         height="154.60721"
         width="25.927917"
         id="rect38184"
         style="opacity:0;color:#000000;fill:#b59235;fill-opacity:1;fill-rule:nonzero;stroke:none;stroke-width:19.38400078;marker:none;visibility:visible;display:inline;overflow:visible;enable-background:accumulate" />
    </g>
  </g>
</svg>
