<?xml version="1.0" encoding="UTF-8" standalone="no"?>
<!-- Created with Inkscape (http://www.inkscape.org/) -->

<svg
   xmlns:dc="http://purl.org/dc/elements/1.1/"
   xmlns:cc="http://creativecommons.org/ns#"
   xmlns:rdf="http://www.w3.org/1999/02/22-rdf-syntax-ns#"
   xmlns:svg="http://www.w3.org/2000/svg"
   xmlns="http://www.w3.org/2000/svg"
   xmlns:sodipodi="http://sodipodi.sourceforge.net/DTD/sodipodi-0.dtd"
   xmlns:inkscape="http://www.inkscape.org/namespaces/inkscape"
   width="461.25223"
   height="111.46282"
   viewBox="0 0 122.03965 29.491206"
   version="1.1"
   id="svg23489"
   inkscape:version="0.48.5 r10040"
   sodipodi:docname="New document 15">
  <defs
     id="defs23483" />
  <sodipodi:namedview
     id="base"
     pagecolor="#7d848b"
     bordercolor="#666666"
     borderopacity="1.0"
     inkscape:pageopacity="1"
     inkscape:pageshadow="2"
     inkscape:zoom="1.2054152"
     inkscape:cx="294.10628"
     inkscape:cy="62.123637"
     inkscape:document-units="px"
     inkscape:current-layer="layer1"
     showgrid="false"
     inkscape:pagecheckerboard="false"
     showborder="true"
     units="px"
     inkscape:window-width="1920"
     inkscape:window-height="1017"
     inkscape:window-x="-8"
     inkscape:window-y="-8"
     inkscape:window-maximized="1"
     inkscape:showpageshadow="false"
     guidetolerance="28"
     fit-margin-bottom="15"
     fit-margin-top="15"
     fit-margin-left="15"
     fit-margin-right="15">
    <inkscape:grid
       type="xygrid"
       id="grid24034"
       spacingx="1px"
       spacingy="1px"
       empspacing="8"
       visible="true"
       enabled="true"
       snapvisiblegridlinesonly="true"
       originx="-38.990537px"
       originy="-493.45183px" />
  </sodipodi:namedview>
  <metadata
     id="metadata23486">
    <rdf:RDF>
      <cc:Work
         rdf:about="">
        <dc:format>image/svg+xml</dc:format>
        <dc:type
           rdf:resource="http://purl.org/dc/dcmitype/StillImage" />
        <dc:title></dc:title>
        <cc:license
           rdf:resource="" />
        <dc:creator>
          <cc:Agent>
            <dc:title>Robert Brooks</dc:title>
          </cc:Agent>
        </dc:creator>
      </cc:Work>
    </rdf:RDF>
  </metadata>
  <g
     inkscape:label="Layer 1"
     inkscape:groupmode="layer"
     id="layer1"
     transform="translate(-10.316247,-136.94965)">
    <g
       transform="matrix(0.86868896,0,0,0.86868896,344.58378,-2833.8682)"
       id="g21973">
      <path
         style="color:#000000;fill:#fddd82;fill-opacity:1;stroke:#706021;stroke-width:12;stroke-linecap:round;stroke-linejoin:round;stroke-miterlimit:4;stroke-opacity:1;stroke-dasharray:none;stroke-dashoffset:0;marker:none;visibility:visible;display:inline;overflow:visible;enable-background:accumulate"
         d="m -1340.3159,12929.37 c 66.6046,11.512 143.0766,-57.559 152.1217,-50.159 9.0451,7.401 97.029,37.003 102.785,33.714 5.7559,-3.289 1.6445,-29.602 1.6445,-29.602 0,0 15.6234,23.846 51.8037,34.535 36.18027,10.69 72.36057,15.624 59.2041,19.736 -13.15648,4.111 -193.2357,13.156 -303.4212,18.089 -110.1855,4.934 -141.7496,-17.002 -129.4154,-16.18 25.2266,-13.024 35.6755,-20.822 41.4315,-19.178 5.7559,1.645 23.8461,9.045 23.8461,9.045 z"
         id="path21975"
         inkscape:connector-curvature="0"
         transform="matrix(0.26458334,0,0,0.26458334,-6.3049604e-6,18.562493)"
         sodipodi:nodetypes="ccscccsccc" />
      <path
         transform="matrix(0.26458334,0,0,0.26458334,-6.3049604e-6,18.562493)"
         inkscape:connector-curvature="0"
         id="path21977"
         d="m -1340.3159,12929.37 c 66.6046,11.512 143.0766,-57.559 152.1217,-50.159 9.0451,7.401 97.029,37.003 102.785,33.714 5.7559,-3.289 1.6445,-29.602 1.6445,-29.602 0,0 15.6234,23.846 51.8037,34.535 36.18027,10.69 102.78492,18.09 89.62845,22.202 -13.15648,4.111 -49.01211,23.209 -300.95435,26.313 -133.1692,1.641 -204.7477,-26.313 -192.4135,-25.491 12.3342,0.823 65.7824,-22.201 71.5384,-20.557 5.7559,1.645 23.8461,9.045 23.8461,9.045 z"
         style="color:#000000;fill:#fddd82;fill-opacity:1;stroke:none;stroke-width:5;marker:none;visibility:visible;display:inline;overflow:visible;enable-background:accumulate"
         sodipodi:nodetypes="ccscccsccc" />
      <path
         inkscape:connector-curvature="0"
         id="path21979"
         transform="matrix(0.30457776,0,0,0.30457776,-330.12388,3633.2941)"
         d="m 50.21875,-680.46875 c -12.582263,-0.47685 -75.509695,53.59408 -130.65625,44.0625 0,0 -15.718663,-6.41476 -20.71875,-7.84375 -5.00017,-1.42812 -51.44167,18.55868 -62.15625,17.84375 -4.99624,-0.33297 5.88739,4.75965 30.625,10.15625 24.16558,-6.66626 35.658933,-21.5174 36.875,-18.78125 1.659179,3.73315 33.58839,16.18823 80.875,2.5 47.28661,-13.68823 59.724123,-40.22485 65.53125,-32.34375 5.807128,7.8811 68.02638,28.60791 106.1875,29.4375 38.16113,0.82959 14.51709,-7.0625 13.6875,-7.0625 -0.82959,0 40.25171,7.90064 61.40625,6.65625 0.99559,-0.0586 2.06623,-0.13105 3.09375,-0.1875 -15.70515,-2.94135 -34.01193,-6.37128 -47.5625,-10.375 -31.42943,-9.28542 -45,-30 -45,-30 0,0 3.59384,22.86163 -1.40625,25.71875 -5.00017,2.85712 -81.455121,-22.85208 -89.3125,-29.28125 -0.368315,-0.30133 -0.84995,-0.47655 -1.46875,-0.5 z"
         style="color:#000000;fill:#ffeeaa;fill-opacity:1;stroke:none;stroke-width:5;marker:none;visibility:visible;display:inline;overflow:visible;enable-background:accumulate" />
    </g>
  </g>
</svg>
