<?xml version="1.0" encoding="UTF-8" standalone="no"?>
<!-- Created with Inkscape (http://www.inkscape.org/) -->

<svg
   xmlns:dc="http://purl.org/dc/elements/1.1/"
   xmlns:cc="http://creativecommons.org/ns#"
   xmlns:rdf="http://www.w3.org/1999/02/22-rdf-syntax-ns#"
   xmlns:svg="http://www.w3.org/2000/svg"
   xmlns="http://www.w3.org/2000/svg"
   xmlns:xlink="http://www.w3.org/1999/xlink"
   xmlns:sodipodi="http://sodipodi.sourceforge.net/DTD/sodipodi-0.dtd"
   xmlns:inkscape="http://www.inkscape.org/namespaces/inkscape"
   width="401.5936"
   height="1188.5184"
   viewBox="0 0 106.25497 314.46217"
   version="1.1"
   id="svg23489"
   inkscape:version="0.48.5 r10040"
   sodipodi:docname="pillar_01_side_scroller_base.svg">
  <defs
     id="defs23483">
    <linearGradient
       inkscape:collect="always"
       xlink:href="#linearGradient31565"
       id="linearGradient26501"
       gradientUnits="userSpaceOnUse"
       x1="-1431.589"
       y1="12111.613"
       x2="-1252.7432"
       y2="12115.519" />
    <linearGradient
       id="linearGradient31565">
      <stop
         style="stop-color:#ffcc00;stop-opacity:1;"
         offset="0"
         id="stop31567" />
      <stop
         id="stop31575"
         offset="0.5"
         style="stop-color:#ffff00;stop-opacity:1" />
      <stop
         style="stop-color:#ffcc00;stop-opacity:1"
         offset="1"
         id="stop31569" />
    </linearGradient>
    <linearGradient
       inkscape:collect="always"
       xlink:href="#linearGradient31565"
       id="linearGradient26519"
       gradientUnits="userSpaceOnUse"
       x1="-1431.589"
       y1="12111.613"
       x2="-1252.7432"
       y2="12115.519" />
    <linearGradient
       id="linearGradient10809">
      <stop
         style="stop-color:#ffcc00;stop-opacity:1;"
         offset="0"
         id="stop10811" />
      <stop
         id="stop10813"
         offset="0.5"
         style="stop-color:#ffff00;stop-opacity:1" />
      <stop
         style="stop-color:#ffcc00;stop-opacity:1"
         offset="1"
         id="stop10815" />
    </linearGradient>
    <linearGradient
       inkscape:collect="always"
       xlink:href="#linearGradient31565"
       id="linearGradient14845"
       gradientUnits="userSpaceOnUse"
       x1="-1431.589"
       y1="12111.613"
       x2="-1252.7432"
       y2="12115.519" />
    <linearGradient
       inkscape:collect="always"
       xlink:href="#linearGradient31565"
       id="linearGradient14847"
       gradientUnits="userSpaceOnUse"
       x1="-1431.589"
       y1="12111.613"
       x2="-1252.7432"
       y2="12115.519" />
  </defs>
  <sodipodi:namedview
     id="base"
     pagecolor="#7d848b"
     bordercolor="#666666"
     borderopacity="1.0"
     inkscape:pageopacity="1"
     inkscape:pageshadow="2"
     inkscape:zoom="0.21308932"
     inkscape:cx="1917.2369"
     inkscape:cy="1615.6489"
     inkscape:document-units="px"
     inkscape:current-layer="layer1"
     showgrid="false"
     inkscape:pagecheckerboard="false"
     showborder="true"
     units="px"
     inkscape:window-width="1920"
     inkscape:window-height="1017"
     inkscape:window-x="-8"
     inkscape:window-y="-8"
     inkscape:window-maximized="1"
     inkscape:showpageshadow="false"
     guidetolerance="28"
     fit-margin-top="25"
     fit-margin-left="25"
     fit-margin-right="25"
     fit-margin-bottom="25">
    <inkscape:grid
       type="xygrid"
       id="grid24034"
       spacingx="1px"
       spacingy="1px"
       empspacing="8"
       visible="true"
       enabled="true"
       snapvisiblegridlinesonly="true"
       originx="1154.3972px"
       originy="275.94828px" />
  </sodipodi:namedview>
  <metadata
     id="metadata23486">
    <rdf:RDF>
      <cc:Work
         rdf:about="">
        <dc:format>image/svg+xml</dc:format>
        <dc:type
           rdf:resource="http://purl.org/dc/dcmitype/StillImage" />
        <dc:title></dc:title>
        <cc:license
           rdf:resource="" />
        <dc:creator>
          <cc:Agent>
            <dc:title>Robert Brooks</dc:title>
          </cc:Agent>
        </dc:creator>
      </cc:Work>
    </rdf:RDF>
  </metadata>
  <g
     inkscape:label="Layer 1"
     inkscape:groupmode="layer"
     id="layer1"
     transform="translate(305.43427,-55.549131)">
    <g
       id="g26712"
       transform="translate(-725.69302,675.29468)">
      <g
         id="g26521"
         transform="translate(394.13656,-592.64508)">
        <g
           transform="matrix(2.3061253,0,0,3.1950301,-237.18142,-460.30949)"
           id="g26523">
          <g
             id="g26525"
             transform="translate(116.24253,40.16349)">
            <g
               id="g26527"
               transform="matrix(0.90934944,0,0,0.90934944,341.12312,-2833.2001)">
              <g
                 transform="matrix(1.0366626,0,0,1,13.076783,0)"
                 id="g26529">
                <path
                   sodipodi:nodetypes="ccccccccccccccc"
                   id="path26531"
                   transform="matrix(0.12170582,0,0,0.09225387,-446.88914,3294.4802)"
                   d="m 772.15625,-770.53125 c -40.33403,0.22851 -80.21557,3.96699 -110.59375,11.59375 -32.11623,6.41148 -53.59375,22.46848 -53.59375,39.07502 0.009,1.14395 0.41255,7.55505 0.71865,6.67498 l 1.03125,12.40625 0,0.0625 c 3.44697,0.3843 325.86251,1.82446 337.4375,-1.25 l 0.375,0 0,-2.125 c 0.009,-0.008 0.0232,-0.0237 0.0312,-0.0312 -0.0427,-7.86417 -0.004,-24.58383 -0.1562,-25.53125 -0.0467,-2.29596 0.12222,13.28963 -0.125,0.55127 0,-8.88021 -16.31105,-22.27134 -41.75,-27.27002 -33.91783,-9.45928 -83.95297,-14.43625 -133.375,-14.15625 z"
                   style="color:#000000;fill:#ffcc00;fill-opacity:1;fill-rule:nonzero;stroke:#77382f;stroke-width:11.92249966;stroke-linejoin:round;stroke-miterlimit:4;stroke-opacity:1;stroke-dasharray:none;marker:none;visibility:visible;display:inline;overflow:visible;enable-background:accumulate"
                   inkscape:connector-curvature="0" />
                <path
                   sodipodi:nodetypes="cccccc"
                   id="path26533"
                   transform="matrix(0.25522609,0,0,0.26458334,-12.614316,18.562493)"
                   d="m -1411.625,12129.672 0.8438,7.422 c 1.6437,0.134 155.3866,0.634 160.9062,-0.438 0.066,0 0.1223,0 0.1875,0 l 0,-8.64 c 1.6598,-19.117 -160.5677,-22.122 -161.9375,1.656 z"
                   style="color:#000000;fill:#ee705d;fill-opacity:1;fill-rule:nonzero;stroke:none;stroke-width:12;marker:none;visibility:visible;display:inline;overflow:visible;enable-background:accumulate"
                   inkscape:connector-curvature="0" />
                <path
                   style="opacity:0.2522124;color:#000000;fill:#000000;fill-opacity:1;fill-rule:nonzero;stroke:none;stroke-width:12;marker:none;visibility:visible;display:inline;overflow:visible;enable-background:accumulate"
                   d="m 630.09375,453.40778 0,20.90472 c 3.65064,-0.012 7.2038,-0.0448 10.53125,-0.0625 0.18393,-9.8e-4 0.34812,10e-4 0.53125,0 2.1977,-0.0146 4.35461,-0.0479 6.375,-0.0625 1.47073,-0.0107 2.73915,-0.0208 4.125,-0.0312 4.17242,-0.0383 8.62641,-0.0706 11.53125,-0.125 1.95977,-0.0367 3.492,-0.0802 4.75,-0.125 0.16411,-0.006 0.31776,0.006 0.46875,0 1.21076,-0.0477 2.14015,-0.0986 2.4375,-0.15625 l 0.1875,0 0,-7.87347 c 0,-1.01597 -0.43013,-1.99579 -1.25,-2.90625 -0.0434,-0.0482 -0.0794,-0.10835 -0.125,-0.15625 -0.12434,-0.12082 -0.26621,-0.25603 -0.40625,-0.375 -0.13184,-0.12054 -0.29192,-0.22516 -0.4375,-0.34375 -5.46941,-4.11705 -20.42365,-7.08043 -38.71875,-8.6875 z"
                   transform="matrix(0.28066888,0,0,0.29095893,-519.90565,3091.8797)"
                   id="path26535"
                   inkscape:connector-curvature="0"
                   sodipodi:nodetypes="ccccccsccccscccccc" />
                <path
                   id="path26537"
                   transform="matrix(0.12170582,0,0,0.0910661,-388.68464,3236.2882)"
                   d="m 293.90625,-141.59375 c -35.30995,0.20365 -70.26414,3.14735 -98.8125,9.0625 -0.0101,0.002 -0.0212,-0.002 -0.0312,0 -2.19353,0.45473 -4.35406,0.91606 -6.46875,1.40625 -0.54892,0.12707 -1.08161,0.27679 -1.625,0.40625 -1.5958,0.38071 -3.17244,0.75477 -4.71875,1.15625 -0.48899,0.12677 -0.98486,0.24615 -1.46875,0.375 -1.96184,0.52325 -3.87541,1.09859 -5.75,1.65625 -1.03167,0.30691 -2.05847,0.62012 -3.0625,0.9375 -1.00875,0.31834 -1.98872,0.63981 -2.96875,0.96875 -1.9583,0.65843 -3.88061,1.3302 -5.71875,2.03125 -0.92137,0.3514 -1.82889,0.70033 -2.71875,1.0625 -0.88266,0.35924 -1.74295,0.72388 -2.59375,1.09375 -0.85563,0.37197 -1.70872,0.74223 -2.53125,1.125 -0.0292,0.0136 -0.0645,0.0176 -0.0937,0.0312 -1.62689,0.75894 -3.16446,1.54223 -4.65625,2.34375 -0.55463,0.298 -1.12093,0.60234 -1.65625,0.90625 -0.179,0.10151 -0.35444,0.21033 -0.53125,0.3125 -1.43878,0.83251 -2.80372,1.68593 -4.09375,2.5625 -0.65024,0.44184 -1.2639,0.89066 -1.875,1.34375 -0.60103,0.44562 -1.18769,0.8872 -1.75,1.34375 -0.50327,0.40861 -0.99715,0.83261 -1.46875,1.25 -0.0935,0.0826 -0.18902,0.16705 -0.28125,0.25 -0.0593,0.0534 -0.12869,0.10266 -0.1875,0.15625 -0.0829,0.0755 -0.16811,0.14299 -0.25,0.21875 -0.37755,0.34931 -0.73857,0.70712 -1.09375,1.0625 -0.44503,0.44528 -0.87195,0.88891 -1.28125,1.34375 -0.42801,0.47559 -0.8305,0.95146 -1.21875,1.4375 -0.018,0.0225 -0.0446,0.04 -0.0625,0.0625 -0.35945,0.45269 -0.67566,0.91323 -1,1.375 -0.13104,0.18633 -0.24976,0.37469 -0.375,0.5625 -0.23034,0.34584 -0.47699,0.68038 -0.6875,1.03125 -0.0553,0.0921 -0.10234,0.18883 -0.15625,0.28125 -0.25209,0.43252 -0.49711,0.87237 -0.71875,1.3125 -0.0464,0.0921 -0.08,0.18879 -0.125,0.28125 -0.22569,0.46314 -0.43343,0.934709 -0.625,1.40625 -0.0174,0.04286 -0.0454,0.08207 -0.0625,0.125 -0.21437,0.537313 -0.39312,1.076781 -0.5625,1.625 -0.1251,0.404892 -0.24358,0.807892 -0.34375,1.21875 -0.0706,0.289762 -0.12943,0.582251 -0.1875,0.875 -0.0917,0.462265 -0.15876,0.936521 -0.21875,1.40625 -0.0456,0.358391 -0.0668,0.731023 -0.0937,1.09375 -0.0148,0.20108 -0.0535,0.39133 -0.0625,0.59375 l 0,0.03125 c -4.5e-4,0.0105 4.4e-4,0.02075 0,0.03125 -4.4e-4,0.01032 4.3e-4,0.02093 0,0.03125 l 0.4375,5.84375 c 0.009,-0.04193 0.022,-0.08313 0.0312,-0.125 L 131.5,-70.875 c 0.86174,0.0973 21.63971,0.26398 52.53125,0.40625 3.24305,0.0149 7.60832,0.01695 11.0625,0.03125 l 0,-52.71875 c 98.2951,-20.33328 272.89629,-5.19459 274.21875,34.03125 l 0,-8.125 c 1.74028,-27.77125 -82.46278,-43.85382 -167.4375,-44.34375 -2.65546,-0.0153 -5.31435,-0.0153 -7.96875,0 z"
                   style="opacity:0.70796461;color:#000000;fill:#ff9a8a;fill-opacity:1;fill-rule:nonzero;stroke:none;stroke-width:12;marker:none;visibility:visible;display:inline;overflow:visible;enable-background:accumulate"
                   inkscape:connector-curvature="0" />
              </g>
            </g>
            <g
               transform="translate(0,0.27161195)"
               id="g26539">
              <path
                 sodipodi:nodetypes="ccccc"
                 inkscape:connector-curvature="0"
                 id="path26541"
                 d="m 152.54817,326.88605 c 0,3.89444 -32.95394,7.05151 -72.700163,7.05151 -39.746223,0 -73.2867725,-3.15707 -73.2867725,-7.05151 3.8129555,-0.0815 33.5405495,-1.24438 73.2867725,-1.24438 39.746223,0 44.836263,-1.18355 72.700163,1.24438 z"
                 style="color:#000000;fill:#ffbb00;fill-opacity:1;fill-rule:nonzero;stroke:#77382f;stroke-width:4.2650547;stroke-linecap:round;stroke-linejoin:round;stroke-miterlimit:4;stroke-opacity:1;stroke-dasharray:none;stroke-dashoffset:0;marker:none;visibility:visible;display:inline;overflow:visible;enable-background:accumulate"
                 transform="matrix(0.26458334,0,0,0.26458334,-6.3049604e-6,16.916276)" />
              <path
                 sodipodi:nodetypes="ssss"
                 inkscape:connector-curvature="0"
                 id="path26543"
                 d="m 152.54817,326.88605 c -0.48157,3.8789 -32.95394,7.05151 -72.700163,7.05151 -39.746223,0 -73.3999501,-3.15793 -73.2867725,-7.05151 0.4664614,-16.04741 147.7537155,-14.23073 145.9869355,0 z"
                 style="color:#000000;fill:#236385;fill-opacity:1;fill-rule:nonzero;stroke:none;stroke-width:10;marker:none;visibility:visible;display:inline;overflow:visible;enable-background:accumulate"
                 transform="matrix(0.26458334,0,0,0.26458334,-6.3049604e-6,16.916276)" />
            </g>
          </g>
        </g>
        <path
           style="color:#000000;fill:#d5b352;fill-opacity:1;fill-rule:nonzero;stroke:#77382f;stroke-width:3.17499995;stroke-linejoin:round;stroke-miterlimit:4;stroke-opacity:1;stroke-dasharray:none;marker:none;visibility:visible;display:inline;overflow:visible;enable-background:accumulate"
           d="m 36.795368,1.014245 c 27.02378,7.240999 21.7293,27.087344 21.7293,32.592268 0,-3.815107 39.65226,-3.140589 40.18088,0 0,-5.053171 -5.77267,-24.929071 22.826772,-32.592268 0,-9.117936 -84.736952,-8.753724 -84.736952,0 z"
           id="path26545"
           inkscape:connector-curvature="0"
           sodipodi:nodetypes="ccccc" />
        <path
           sodipodi:nodetypes="ccccc"
           inkscape:connector-curvature="0"
           id="path26547"
           d="m 36.795368,1.014245 c 27.02378,7.240999 21.7293,27.087344 21.7293,32.592268 0,-3.815107 39.65226,-3.140589 40.18088,0 0,-5.053171 -5.77267,-24.929071 22.826772,-32.592268 0.31108,-12.064307 -84.463202,-11.363661 -84.736952,0 z"
           style="color:#000000;fill:#42bbfb;fill-opacity:1;fill-rule:nonzero;stroke:none;stroke-width:12;marker:none;visibility:visible;display:inline;overflow:visible;enable-background:accumulate" />
        <path
           sodipodi:nodetypes="sccccs"
           inkscape:connector-curvature="0"
           id="path26549"
           d="m 79.380239,-7.7693871 c -21.188903,0.08758 -42.444507,3.0990303 -42.581382,8.7808596 8.14109,2.1813971 13.340618,5.5112181 16.643946,9.2438805 7.635912,-14.9300939 51.296317,-8.0601902 52.800917,-1.9182292 3.46403,-2.901503 8.36743,-5.471303 15.28795,-7.3256513 0.15554,-6.0321535 -20.96253,-8.8684393 -42.151431,-8.7808596 z"
           style="opacity:0.26106196;color:#000000;fill:#000000;fill-opacity:1;fill-rule:nonzero;stroke:none;stroke-width:12;marker:none;visibility:visible;display:inline;overflow:visible;enable-background:accumulate" />
        <path
           id="path26551"
           d="M 37.733167,1.2760559 C 63.544278,8.6793941 58.58483,27.93946 58.527764,33.505614 c 0.664956,-3.706781 39.651216,-3.014583 40.175327,0.09922 0,-1.491652 -0.497872,-4.276897 -0.471289,-7.656381 -2.651551,1.038334 -6.307437,2.039456 -10.955404,1.736329 C 77.179601,27.026293 62.038788,25.708155 61.380303,21.318244 60.778794,17.308187 54.677677,1.7618865 37.733167,1.2760559 z"
           style="opacity:0.65486725;color:#000000;fill:#42bbfb;fill-opacity:1;fill-rule:nonzero;stroke:none;stroke-width:12;marker:none;visibility:visible;display:inline;overflow:visible;enable-background:accumulate"
           inkscape:connector-curvature="0" />
        <path
           style="color:#000000;fill:#236385;fill-opacity:1;fill-rule:nonzero;stroke:none;stroke-width:12;marker:none;visibility:visible;display:inline;overflow:visible;enable-background:accumulate"
           d="m 78.680465,-7.7635493 c -0.457954,0.00329 -0.914937,0.00225 -1.372526,0.00827 0.01246,0.5564066 0.02035,1.1117916 0.03307,1.6701823 l -9.582878,-1.3394531 c -1.728859,0.097964 -3.423568,0.2167281 -5.084961,0.3555338 l 14.576888,2.0339845 a 0.5292196,0.5292196 0 0 0 0.124023,0.2315104 c 0.02585,1.0871142 0.04623,2.1687282 0.07442,3.2494141 -0.756688,-0.2970874 -1.729775,-0.5758698 -2.860808,-0.8598958 -1.63894,-0.4115724 -3.559791,-0.8071972 -5.399154,-1.1575521 -3.236544,-0.6164848 -5.845371,-1.0213317 -6.515364,-1.1244792 -0.597702,-0.7639066 -1.237361,-1.5000103 -1.91823,-2.199349 -0.463589,0.044014 -0.924803,0.084993 -1.380794,0.1322916 0.761307,0.7281344 1.471446,1.5050456 2.133203,2.3151042 L 54.380139,2.1004483 C 54.163363,1.9921451 53.807112,1.8303389 53.297001,1.6539639 52.90579,1.3324735 52.494427,1.0287852 52.073303,0.72792224 l 6.184635,-7.36699234 c -0.517713,0.057591 -1.03174,0.1199684 -1.53789,0.181901 L 51.38704,-0.10716893 49.278641,-1.1572341 a 0.5292196,0.5292196 0 0 0 -0.04961,-0.024805 c 0,0 -0.357569,-0.1326801 -0.967383,-0.3059245 -0.0034,-0.00156 -0.0049,-0.00672 -0.0083,-0.00827 a 0.5292196,0.5292196 0 0 0 0.0083,-0.00827 l 2.406055,-4.0514324 c -0.47298,0.084747 -0.934289,0.1667804 -1.389063,0.2563151 l -1.703255,2.8773438 c -0.256966,-0.1023866 -1.766271,-0.7053789 -3.902604,-1.4965495 -1.258835,0.3912474 -2.371564,0.8074346 -3.31556,1.2567709 0.847225,0.1212236 1.664425,0.2680301 2.447395,0.4464844 -1.767533,0.054713 -3.664947,0.4502039 -5.283398,1.52135419 -0.460211,0.54000507 -0.713158,1.11181359 -0.727604,1.71152351 0.07513,0.020132 0.148608,0.037552 0.223242,0.057878 1.796783,-1.85549786 4.287367,-2.3010623 6.58151,-2.2406902 1.746735,0.045967 3.328517,0.40073476 4.291212,0.66972659 0.971026,0.45112703 1.874453,0.95878494 2.720247,1.50481771 C 49.012354,0.76429636 46.963722,0.66411691 44.483068,0.95943266 42.522352,1.192851 41.091369,1.5632685 40.026492,1.9846931 c 0.55168,0.1867183 1.083406,0.3888857 1.604037,0.5870443 0.802505,-0.2200534 1.780506,-0.419852 2.976562,-0.5622396 3.195117,-0.3803711 5.615332,-0.070947 7.226433,0.3224609 0.355245,0.086746 0.660704,0.177142 0.93431,0.2645834 0.862168,0.7218246 1.655418,1.4943635 2.372982,2.306836 -0.78712,-0.2263992 -1.895491,-0.5025015 -3.265951,-0.7027995 -1.903457,-0.2781978 -4.114456,-0.3719833 -6.035807,0.2480469 0.477837,0.2509472 0.93631,0.5071716 1.380794,0.7689453 1.446406,-0.2501673 3.051307,-0.1795632 4.506185,0.033073 2.46217,0.3598556 4.431771,1.0748698 4.431771,1.0748698 a 0.5292196,0.5292196 0 0 0 0.157096,0.033073 c 0.76613,1.0237764 1.452145,2.0923452 2.042253,3.1915366 -1.339408,-0.3383227 -4.545074,-1.1344506 -7.474479,-1.7694011 0.570007,0.4735367 1.101135,0.9542717 1.595768,1.4469401 3.111066,0.7148727 6.148387,1.4897728 6.498828,1.5792318 0.33967,0.71676 0.656,1.437694 0.93431,2.166276 0.113173,0.29627 0.218858,0.59613 0.322461,0.892969 l -5.564518,-2.100131 c 0.367175,0.49948 0.699452,1.004719 1.008724,1.513086 l 4.977474,1.876888 c 0.373745,1.2253 0.680101,2.444437 0.917773,3.629753 -0.290753,-0.160084 -0.882848,-0.486278 -1.876888,-0.975651 -0.757058,-0.372705 -1.572839,-0.75845 -2.323372,-1.050065 0.171934,0.454822 0.332927,0.910668 0.471289,1.364258 0.465468,0.203402 0.941406,0.416269 1.389062,0.636654 1.247669,0.614237 2.282032,1.190625 2.282032,1.190625 a 0.5292196,0.5292196 0 0 0 0.281119,0.06614 c 0.149818,0.882937 0.264462,1.739909 0.355534,2.563151 -0.587216,-0.232372 -2.133147,-0.853054 -3.604948,-1.471744 0.06889,0.406426 0.124667,0.816021 0.173633,1.215429 1.658387,0.687256 3.296007,1.339717 3.54707,1.438672 0.09455,1.111915 0.1377,2.135437 0.157097,3.050977 -0.650076,-0.263177 -2.131002,-0.875741 -3.497461,-1.570964 0.01027,0.402259 0.01114,0.795299 0.0083,1.182357 1.550217,0.757504 3.108227,1.380974 3.505729,1.537891 -0.0064,1.952236 -0.132278,3.166732 -0.132278,3.166732 l 1.050065,0.115755 c 0,0 0.148971,-1.331661 0.148828,-3.472656 l 6.746875,-4.464844 c 0.188722,3.41158 0.146831,6.203584 0.115755,7.830013 0.352534,-0.01595 0.706419,-0.02814 1.066602,-0.04134 0.03094,-1.630396 0.07119,-4.409181 -0.115755,-7.821745 0.175913,0.081 0.371414,0.16903 0.587044,0.272851 0.776531,0.373886 1.769303,0.877705 2.736784,1.380795 1.913403,0.994969 3.729545,1.970666 3.770312,1.992643 0.0833,2.014328 0.164632,3.867843 0.173633,4.076237 0.353272,0.0033 0.705477,0.01103 1.058334,0.01654 -0.0049,-0.116425 -0.08904,-2.18236 -0.206706,-5.084961 0.553299,-0.289366 1.207894,-0.62365 1.943034,-1.000455 0.981509,-0.50309 1.982068,-1.006909 2.769857,-1.380795 0.21876,-0.103821 0.416843,-0.191851 0.595312,-0.272851 -0.192185,3.457649 -0.147243,6.275408 -0.115755,7.896159 0.138414,0.0064 0.275865,0.0098 0.413411,0.01654 l 0.669727,0 c -0.0316,-1.619918 -0.07738,-4.438212 0.115755,-7.879622 l 6.846094,4.464844 c -1.4e-4,2.140994 0.148828,3.472656 0.148828,3.472656 l 1.066602,-0.115755 c 0,0 -0.126291,-1.214496 -0.132292,-3.166732 0.482915,-0.187912 2.645675,-1.044836 4.473112,-2.000912 0.003,-0.400948 0.01352,-0.807078 0.03307,-1.223698 -1.579409,0.884757 -3.675385,1.750392 -4.489648,2.075326 0.01969,-0.91554 0.0612,-1.939062 0.157096,-3.050977 0.30612,-0.11893 2.638324,-1.02108 4.605404,-1.843815 0.06381,-0.41661 0.143351,-0.832781 0.23151,-1.256771 -1.735212,0.746016 -3.967062,1.627314 -4.712891,1.918229 0.09241,-0.823242 0.203544,-1.680214 0.355534,-2.563151 a 0.5368973,0.5292196 0 0 0 0.289388,-0.06614 c 0,0 1.049335,-0.576388 2.315104,-1.190625 0.859587,-0.417131 1.832507,-0.850002 2.596225,-1.12448 0.151315,-0.419483 0.321312,-0.836413 0.504356,-1.256771 -1.007414,0.227711 -2.361671,0.843134 -3.57187,1.430404 -1.008459,0.489373 -1.606722,0.815567 -1.901692,0.975651 0.24112,-1.185316 0.546872,-2.404453 0.926041,-3.629753 l 6.622851,-2.455664 c 0.35298,-0.500214 0.73424,-0.997196 1.14928,-1.488281 a 0.53802051,0.53032677 0 0 0 -0.27285,0.0248 l -7.069333,2.629297 c 0.105119,-0.296839 0.207651,-0.596699 0.322461,-0.892969 0.28235,-0.728582 0.606256,-1.449516 0.950847,-2.166276 0.42392,-0.106672 4.719555,-1.1846742 8.400515,-1.9761068 0.55606,-0.494202 1.15549,-0.9804217 1.79421,-1.4552083 -3.35166,0.6470999 -7.893782,1.7581118 -9.56634,2.1745443 0.59867,-1.0991914 1.298086,-2.1677602 2.075326,-3.1915366 a 0.5368973,0.5292196 0 0 0 0.157094,-0.033073 c 0,0 2.00004,-0.7150142 4.49792,-1.0748698 1.87069,-0.2694988 3.98665,-0.3121528 5.70508,0.2397787 0.38859,-0.2259111 0.79399,-0.4509048 1.20716,-0.6697266 -2.138,-1.0135635 -4.81147,-0.9442032 -7.06107,-0.6201172 -1.39034,0.200298 -2.51702,0.4764003 -3.31556,0.7027995 0.72797,-0.8124725 1.53137,-1.5850114 2.40605,-2.306836 0.27757,-0.087441 0.59045,-0.1778373 0.95085,-0.2645834 1.63448,-0.3934079 4.08418,-0.702832 7.32565,-0.3224609 1.74773,0.2050881 3.03114,0.518836 3.98529,0.8598958 0.46804,-0.1826381 0.94603,-0.362917 1.43867,-0.5374349 -1.12029,-0.5554025 -2.7823,-1.0780644 -5.29167,-1.37252604 -2.51664,-0.29531575 -4.59706,-0.1951363 -6.21771,0.0496093 0.85807,-0.54603401 1.77647,-1.05369192 2.76159,-1.50481895 0.97667,-0.26899183 2.57702,-0.62375825 4.34909,-0.66972535 2.48424,-0.064439 5.20437,0.45013547 7.04453,2.6375652 0.35743,-0.1064075 0.72236,-0.2118575 1.09141,-0.3141927 -1.88839,-2.4998186 -4.74716,-3.2945114 -7.33392,-3.3734376 1.3647,-0.3065944 2.82905,-0.5285029 4.39043,-0.6614584 -0.59689,-0.2944175 -1.26275,-0.5759826 -1.99264,-0.8433594 -0.43534,0.06111 -0.86169,0.1312688 -1.28158,0.2067058 0.31266,-0.1111467 0.61402,-0.2209533 0.92604,-0.3307292 -0.52267,-0.1835153 -1.07221,-0.3587266 -1.65364,-0.5291667 -2.82641,1.0098337 -4.91735,1.8302677 -5.22552,1.9513021 l -2.14148,-3.5553386 c -0.45153,-0.073218 -0.9067,-0.1462852 -1.37252,-0.2149739 l 2.81946,4.688086 a 0.5368973,0.5292196 0 0 0 0.008,0.00827 c -0.003,0.00156 -0.005,0.00672 -0.008,0.00827 -0.61864,0.1732444 -0.98392,0.3059245 -0.98392,0.3059245 a 0.5368973,0.5292196 0 0 0 -0.0496,0.024805 l -2.14148,1.05006393 -5.804291,-6.82128803 c -0.505182,-0.048864 -1.014989,-0.095982 -1.529622,-0.1405599 L 104.27894,0.72793 c -0.42723,0.3008632 -0.84334,0.6045515 -1.24023,0.9260419 -0.51751,0.176375 -0.87976,0.3381812 -1.09968,0.4464844 l -7.226427,-6.5484377 c 0.777595,-0.9382461 1.615787,-1.8286778 2.530079,-2.6541016 -0.475197,-0.039969 -0.956318,-0.079398 -1.438672,-0.1157552 -0.814586,0.795681 -1.57244,1.6382834 -2.273763,2.52181 -0.67971,0.1031475 -3.331094,0.5079944 -6.614584,1.1244792 -1.866061,0.3503549 -3.810857,0.7459797 -5.473568,1.1575521 -1.147439,0.284026 -2.134478,0.5628084 -2.902148,0.8598958 0.0286,-1.0806859 0.04811,-2.1622999 0.07441,-3.2494141 a 0.5368973,0.5292196 0 0 0 0.124023,-0.2315104 l 16.29668,-2.2406902 c -1.800045,-0.127589 -3.641397,-0.2276001 -5.514909,-0.3059245 L 78.64743,-6.0850908 c 0.01299,-0.561154 0.02064,-1.119296 0.03307,-1.6784505 z m -16.519923,4.1506511 c 0.754507,1.0013149 1.442765,2.050396 2.067058,3.14192718 L 56.604292,4.9943286 C 56.068442,4.3324707 55.488155,3.698827 54.867964,3.0843676 l 7.292578,-6.6972658 z m 31.890561,0 7.391797,6.6972658 c -0.62919,0.6144594 -1.21751,1.2481031 -1.761133,1.909961 l -7.730794,-5.46529962 c 0.633341,-1.09153118 1.33468,-2.14061228 2.10013,-3.14192718 z M 63.57441,-3.4806065 c 1.189839,0.1915985 2.983542,0.4875803 5.41569,0.9508464 1.827398,0.3480758 3.735422,0.737752 5.341276,1.1410156 1.35151,0.339393 2.498633,0.70575888 3.150195,1.00045577 0.02553,0.9512422 0.04756,1.90561363 0.07442,2.84427093 L 65.492639,-0.38828873 C 64.912257,-1.4537047 64.27206,-2.486546 63.57441,-3.4806065 z m 29.038021,0 c -0.707771,0.9940605 -1.354233,2.0269018 -1.943034,3.09231777 L 78.622587,2.414641 c -0.02577,-0.9154813 -0.04942,-1.83334556 -0.07441,-2.76158858 a 0.5292196,0.5292196 0 0 0 0.04134,-0.0744141 c 0.67128,-0.2890602 1.786115,-0.63996332 3.108854,-0.96738282 1.629159,-0.4032636 3.57005,-0.7929398 5.423959,-1.1410156 2.467441,-0.4632661 4.283004,-0.7592479 5.490104,-0.9508464 z m -27.930079,3.98528654 0.09922,0.0248047 C 65.213814,1.3492338 65.61088,2.1902175 65.980465,3.0430265 a 0.5292196,0.5292196 0 0 0 -0.08268,0.3720703 L 59.481636,9.4178313 C 58.842138,8.1855241 58.101815,6.9802231 57.249214,5.8294198 l 7.433138,-5.32473976 z m 26.8056,0 7.540625,5.32473976 c -0.86497,1.1508033 -1.616715,2.3561043 -2.265495,3.5884115 L 90.255986,3.4150968 a 0.5368973,0.5292196 0 0 0 -0.08268,-0.3720703 c 0.374949,-0.852809 0.776919,-1.6937927 1.215429,-2.51354177 l 0.09922,-0.0248047 z M 66.129293,0.84367745 77.589058,3.5473885 c 0.03259,1.1129536 0.06548,2.1570918 0.09922,3.2411459 l -10.484115,-3.7207032 0,-0.00827 A 0.5292196,0.5292196 0 0 0 67.080139,2.919003 C 66.783319,2.2192954 66.467488,1.5262059 66.129293,0.84367745 z m 23.895182,0 C 89.681366,1.5262059 89.358223,2.2192954 89.057093,2.919003 a 0.5368973,0.5292196 0 0 0 -0.124024,0.1405599 l 0,0.00827 -10.17819,3.5553386 C 78.72442,5.6370158 78.693874,4.6978172 78.663928,3.6796801 A 0.5292196,0.5292196 0 0 0 78.903707,3.4316332 L 90.024475,0.84367745 z M 66.509631,4.2997973 c 0.160401,0.4074152 0.315164,0.8199208 0.463021,1.2319662 0.285988,0.7969801 0.544449,1.599066 0.785482,2.4060548 l -6.35,6.0688807 C 61.25141,13.53509 61.083773,13.06405 60.903772,12.592831 60.624287,11.861175 60.310645,11.133017 59.969462,10.410019 l 6.540169,-6.1102217 z m 23.126238,0 6.63112,6.1102217 c -0.346142,0.722998 -0.659048,1.451156 -0.942579,2.182812 -0.18261,0.471219 -0.353639,0.942259 -0.51263,1.413868 L 88.37083,7.9378183 c 0.24453,-0.8069888 0.50361,-1.6090747 0.79375,-2.4060548 0.15,-0.4120454 0.308559,-0.824551 0.471289,-1.2319662 z m -21.985222,0.041341 10.078971,3.5801433 c 0.02854,0.8996183 0.05385,1.8487896 0.08268,2.7202474 L 68.874345,7.9791594 C 68.601475,7.0440563 68.296844,6.1097146 67.964839,5.1844979 67.863287,4.9014956 67.758184,4.6226755 67.650647,4.3411385 z m 20.82767,0 c -0.109101,0.281537 -0.219441,0.5603571 -0.322461,0.8433594 -0.336831,0.9252167 -0.640943,1.8595584 -0.917774,2.7946615 l -8.367448,2.4556648 c -0.02833,-0.8646844 -0.05457,-1.8092811 -0.08268,-2.7037117 l 9.690365,-3.389974 z M 68.088863,9.0953704 c 0.327795,1.2000956 0.608589,2.3966966 0.851628,3.5884116 a 0.5292196,0.5292196 0 0 0 -0.05788,0.04134 l -6.358268,5.423959 C 62.314777,17.15887 62.057237,16.149323 61.755397,15.131177 l 6.333464,-6.0358076 z m 19.942969,0 6.424414,6.0358076 c -0.30622,1.018146 -0.564613,2.027693 -0.777213,3.017904 l -6.449219,-5.423959 a 0.5368973,0.5292196 0 0 0 -0.05788,-0.04134 c 0.246571,-1.191715 0.527336,-2.388316 0.859896,-3.5884116 z m -18.826758,0.09095 8.648568,2.5714196 c 0.04994,1.484524 0.09157,2.794814 0.14056,4.167187 L 70.06497,12.882219 C 69.823291,11.66112 69.534237,10.422487 69.205074,9.1863209 z m 17.694011,0 C 86.565154,10.422487 86.27611,11.66112 86.030921,12.882219 l -6.986654,2.637566 c -0.0457,-1.288156 -0.08646,-2.61918 -0.132292,-3.993555 l 7.98711,-2.3399091 z M 69.172001,13.866139 c 0.229701,1.248916 0.41669,2.47958 0.570508,3.679362 l -6.54017,4.812109 c -0.108595,-0.962226 -0.257762,-1.970597 -0.446484,-3.009635 l 6.416146,-5.481836 z m 17.760157,0 6.515364,5.481836 c -0.19146,1.039038 -0.344582,2.047409 -0.454752,3.009635 l -6.639388,-4.812109 c 0.156051,-1.199782 0.345736,-2.430447 0.578776,-3.679362 z m -16.643946,0.239778 7.747331,2.968295 c 0.04357,1.203045 0.08303,2.322822 0.124023,3.40651 l -0.09095,0.04134 0,0.07441 -7.267774,-3.175 c -0.139462,-1.085225 -0.311819,-2.186828 -0.51263,-3.31556 z m 15.511198,0 c -0.203721,1.128732 -0.379399,2.230335 -0.520898,3.31556 l -6.068881,2.612761 c -0.03777,-1.047676 -0.07338,-2.084928 -0.115755,-3.257683 a 0.5292196,0.5292196 0 0 0 0,-0.140559 l 6.705534,-2.530079 z m -14.858008,4.53099 7.267774,3.175 c 0.04858,1.263726 0.09769,2.437034 0.14056,3.489193 -0.07195,0.03791 -0.214503,0.113564 -0.28112,0.148828 l 0,0.09095 c -0.64911,-0.349294 -1.637115,-0.879411 -2.935222,-1.554428 -0.972605,-0.505753 -1.96665,-1.014583 -2.761588,-1.39733 -0.397468,-0.191374 -0.747165,-0.346401 -1.025261,-0.463021 -0.0345,-0.01447 -0.05909,-0.0201 -0.09095,-0.03307 -0.07576,-1.103829 -0.179801,-2.257109 -0.314193,-3.45612 z m 14.19655,0 c -0.136329,1.19901 -0.237292,2.352291 -0.314193,3.45612 -0.0322,0.01297 -0.06422,0.0186 -0.09922,0.03307 -0.282141,0.11662 -0.630287,0.271647 -1.033528,0.463021 -0.806471,0.382748 -1.816209,0.891578 -2.80293,1.39733 -0.649893,0.333115 -1.008097,0.523291 -1.49655,0.777214 -0.04096,-1.024123 -0.069,-1.737196 -0.115755,-2.951758 a 0.5293121,0.5293121 0 0 0 -0.02479,-0.636654 0.5293121,0.5293121 0 0 0 0,-0.0083 l 5.886979,-2.530078 z m -15.246615,0.115755 c 0.128929,1.154089 0.21508,2.27312 0.289388,3.340365 l -6.688998,4.423503 c -0.02339,-0.891916 -0.08145,-1.881939 -0.173632,-2.94349 l 6.573242,-4.820378 z m 16.313216,0 6.672462,4.820378 c -0.09345,1.061551 -0.158203,2.051574 -0.181901,2.94349 l -6.788217,-4.423503 c 0.07539,-1.067245 0.166857,-2.186276 0.297656,-3.340365 z"
           id="path26553"
           inkscape:connector-curvature="0" />
        <g
           id="g26555"
           transform="matrix(1.2343721,0,0,1.5510544,-90.829055,-185.56889)">
          <g
             transform="translate(116.24253,40.16349)"
             id="g26557">
            <g
               transform="matrix(0.90934944,0,0,0.90934944,341.12312,-2833.2001)"
               id="g26559">
              <g
                 id="g26561"
                 transform="matrix(1.0366626,0,0,1,13.076783,0)">
                <path
                   sodipodi:nodetypes="ccccsc"
                   inkscape:connector-curvature="0"
                   id="path26563"
                   d="m -372.89476,3227.5762 c 0.0276,2.6752 0.0955,-0.3799 0.21258,2.2551 1.1416,-0.3423 40.25222,0.3051 41.11532,-0.3087 -0.0208,-2.902 0.0421,-0.015 -0.0319,-2.9098 0,-1.7122 -8.65919,-1.5313 -18.04723,-1.7655 -11.11368,-0.2773 -23.24877,-0.574 -23.24877,2.7289 z"
                   style="color:#000000;fill:#ffcc00;fill-opacity:1;fill-rule:nonzero;stroke:#77382f;stroke-width:2.47832155;stroke-linejoin:round;stroke-miterlimit:4;stroke-opacity:1;stroke-dasharray:none;marker:none;visibility:visible;display:inline;overflow:visible;enable-background:accumulate" />
                <path
                   inkscape:connector-curvature="0"
                   style="color:#000000;fill:#ee705d;fill-opacity:1;fill-rule:nonzero;stroke:none;stroke-width:12;marker:none;visibility:visible;display:inline;overflow:visible;enable-background:accumulate"
                   d="m -1411.625,12129.672 0.8438,7.422 c 1.6437,0.134 155.3866,0.634 160.9062,-0.438 0.066,0 0.1223,0 0.1875,0 l 0,-8.64 c 1.6598,-19.117 -160.5677,-22.122 -161.9375,1.656 z"
                   transform="matrix(0.25522609,0,0,0.26458334,-12.614316,18.562493)"
                   id="path26565"
                   sodipodi:nodetypes="cccccc" />
                <path
                   sodipodi:nodetypes="ccccccsccccscccccc"
                   inkscape:connector-curvature="0"
                   id="path26567"
                   transform="matrix(0.28066888,0,0,0.29095893,-519.90565,3091.8797)"
                   d="m 630.09375,453.40778 0,20.90472 c 3.65064,-0.012 7.2038,-0.0448 10.53125,-0.0625 0.18393,-9.8e-4 0.34812,10e-4 0.53125,0 2.1977,-0.0146 4.35461,-0.0479 6.375,-0.0625 1.47073,-0.0107 2.73915,-0.0208 4.125,-0.0312 4.17242,-0.0383 8.62641,-0.0706 11.53125,-0.125 1.95977,-0.0367 3.492,-0.0802 4.75,-0.125 0.16411,-0.006 0.31776,0.006 0.46875,0 1.21076,-0.0477 2.14015,-0.0986 2.4375,-0.15625 l 0.1875,0 0,-7.87347 c 0,-1.01597 -0.43013,-1.99579 -1.25,-2.90625 -0.0434,-0.0482 -0.0794,-0.10835 -0.125,-0.15625 -0.12434,-0.12082 -0.26621,-0.25603 -0.40625,-0.375 -0.13184,-0.12054 -0.29192,-0.22516 -0.4375,-0.34375 -5.46941,-4.11705 -20.42365,-7.08043 -38.71875,-8.6875 z"
                   style="color:#000000;fill:#b25446;fill-opacity:1;fill-rule:nonzero;stroke:none;stroke-width:12;marker:none;visibility:visible;display:inline;overflow:visible;enable-background:accumulate" />
                <path
                   id="path26569"
                   transform="matrix(0.22737785,0,0,0.18758783,-419.7291,3216.1946)"
                   d="m 298.125,38.375 c -20.33715,-0.106346 -40.75459,1.284945 -57.1875,4.375 l 0,-0.34375 c -20.61232,3.960804 -34.91917,10.53721 -34.96875,19.8125 -5.1e-4,0.01041 4.8e-4,0.02084 0,0.03125 l 0.25,2.8125 c -0.002,0.01 0.002,0.02125 0,0.03125 l 0.6875,7.65625 c 0.50648,0.0439 14.76652,0.123131 34.03125,0.1875 l 0,-25.59375 c 52.61197,-9.872901 146.10461,-2.543352 146.8125,16.5 l 0,-3.9375 C 388.6815,46.42446 343.6084,38.61284 298.125,38.375 z"
                   style="color:#000000;fill:#fa8e7d;fill-opacity:1;fill-rule:nonzero;stroke:none;stroke-width:12;marker:none;visibility:visible;display:inline;overflow:visible;enable-background:accumulate"
                   inkscape:connector-curvature="0" />
              </g>
            </g>
            <g
               id="g26571"
               transform="translate(0,0.27161195)">
              <path
                 transform="matrix(0.26458334,0,0,0.26458334,-6.3049604e-6,16.916276)"
                 style="color:#000000;fill:#ffbb00;fill-opacity:1;fill-rule:nonzero;stroke:#77382f;stroke-width:8.67250729;stroke-linecap:round;stroke-linejoin:round;stroke-miterlimit:4;stroke-opacity:1;stroke-dasharray:none;stroke-dashoffset:0;marker:none;visibility:visible;display:inline;overflow:visible;enable-background:accumulate"
                 d="m 152.54817,326.88605 c 0,3.89444 -32.95394,7.05151 -72.700163,7.05151 -39.746223,0 -73.2867725,-3.15707 -73.2867725,-7.05151 3.8129555,-0.0815 33.5405495,-1.24438 73.2867725,-1.24438 39.746223,0 44.836263,-1.18355 72.700163,1.24438 z"
                 id="path26573"
                 inkscape:connector-curvature="0"
                 sodipodi:nodetypes="ccccc" />
              <path
                 transform="matrix(0.26458334,0,0,0.26458334,-6.3049604e-6,16.916276)"
                 style="color:#000000;fill:#b25446;fill-opacity:1;fill-rule:nonzero;stroke:none;stroke-width:10;marker:none;visibility:visible;display:inline;overflow:visible;enable-background:accumulate"
                 d="m 152.54817,326.88605 c 0,3.89444 -32.95394,7.05151 -72.700163,7.05151 -39.746223,0 -73.2867725,-3.15707 -73.2867725,-7.05151 0,-15.50871 145.9869355,-12.19035 145.9869355,0 z"
                 id="path26575"
                 inkscape:connector-curvature="0"
                 sodipodi:nodetypes="ssss" />
            </g>
          </g>
        </g>
      </g>
      <g
         transform="translate(337.34024,-392.60763)"
         id="g26437">
        <g
           transform="matrix(1.010705,0,0,1.010705,-4.018552,-224.98473)"
           id="g26439">
          <g
             id="g26441"
             transform="translate(116.24253,40.16349)">
            <g
               id="g26443"
               transform="matrix(0.90934944,0,0,0.90934944,341.12312,-2833.2001)">
              <g
                 transform="matrix(1.0366626,0,0,1,13.076783,0)"
                 id="g26445">
                <path
                   style="color:#000000;fill:#ffcc00;fill-opacity:1;fill-rule:nonzero;stroke:#6a5b1d;stroke-width:2.85767603;stroke-linejoin:round;stroke-miterlimit:4;stroke-opacity:1;stroke-dasharray:none;marker:none;visibility:visible;display:inline;overflow:visible;enable-background:accumulate"
                   d="m -372.89476,3148.8494 c 0.0276,2.6752 0.0955,78.3469 0.21258,80.9819 1.1416,-0.3423 40.25222,0.3051 41.11532,-0.3087 -0.0208,-2.902 0.0421,-78.742 -0.0319,-81.6366 0,-3.739 -41.296,-5.1295 -41.296,0.9634 z"
                   id="path26447"
                   inkscape:connector-curvature="0"
                   sodipodi:nodetypes="ccccc" />
                <path
                   sodipodi:nodetypes="cccccc"
                   id="path26449"
                   transform="matrix(0.25522609,0,0,0.26458334,-12.614316,18.562493)"
                   d="m -1411.625,11829.286 0.8438,307.808 c 1.6437,0.134 155.3866,0.634 160.9062,-0.438 0.066,0 0.1223,0 0.1875,0 l 0,-309.026 c 0.5983,-24.778 -161.3195,-26.131 -161.9375,1.656 z"
                   style="color:#000000;fill:#f6e3ae;fill-opacity:1;fill-rule:nonzero;stroke:none;stroke-width:12;marker:none;visibility:visible;display:inline;overflow:visible;enable-background:accumulate"
                   inkscape:connector-curvature="0" />
                <path
                   inkscape:connector-curvature="0"
                   style="color:#000000;fill:#f0cf75;fill-opacity:1;fill-rule:nonzero;stroke:none;stroke-width:12;marker:none;visibility:visible;display:inline;overflow:visible;enable-background:accumulate"
                   d="m 551.28125,179.81309 0,294.49941 c 3.65064,-0.012 7.2038,-0.0448 10.53125,-0.0625 2.39125,-0.0128 4.71751,-0.0467 6.90625,-0.0625 6.1726,-0.0448 11.71232,-0.0824 15.65625,-0.15625 1.95977,-0.0367 3.492,-0.0802 4.75,-0.125 0.16411,-0.006 0.31776,0.006 0.46875,0 1.21076,-0.0477 2.14015,-0.0986 2.4375,-0.15625 l 0.1875,0 0,-281.03066 c 0,-6.50219 -17.75372,-10.85554 -40.9375,-12.90625 z"
                   transform="matrix(0.28066888,0,0,0.29095893,-497.78585,3091.8797)"
                   id="path26451"
                   sodipodi:nodetypes="ccccsccccsc" />
                <path
                   inkscape:connector-curvature="0"
                   style="color:#000000;fill:#fff3d4;fill-opacity:1;fill-rule:nonzero;stroke:none;stroke-width:12;marker:none;visibility:visible;display:inline;overflow:visible;enable-background:accumulate"
                   d="m 473.3125,181.43809 c -16.69863,2.55362 -28.30358,6.80126 -28.34375,12.78125 l 0.75,279.93691 c 0.41031,0.0283 11.98684,0.0835 27.59375,0.125 z"
                   transform="matrix(0.28066888,0,0,0.29095893,-497.78585,3091.8797)"
                   id="path26453"
                   sodipodi:nodetypes="ccccc" />
                <path
                   style="opacity:0.25;color:#000000;fill:#00cfff;fill-opacity:1;fill-rule:nonzero;stroke:none;stroke-width:12;marker:none;visibility:visible;display:inline;overflow:visible;enable-background:accumulate"
                   d="m 542.3125,-650.40625 0,17.75 c 23.26928,1.84996 41.0625,5.53057 41.0625,10.90625 l 0,-18.25 c 0.87847,-5.2708 -17.23087,-8.75462 -41.0625,-10.40625 z m 0,33.1875 0,10.125 c 23.26928,1.84996 41.0625,5.53064 41.0625,10.90625 l 0,-10.625 c 0.87847,-5.27085 -17.23087,-8.75464 -41.0625,-10.40625 z"
                   transform="matrix(0.27769614,0,0,0.2878772,-493.56814,3337.0529)"
                   id="path26455"
                   inkscape:connector-curvature="0" />
                <path
                   style="color:#000000;fill:#00cfff;fill-opacity:1;fill-rule:nonzero;stroke:none;stroke-width:12;marker:none;visibility:visible;display:inline;overflow:visible;enable-background:accumulate"
                   d="m -353.73946,3147.8122 c -9.69118,0.1018 -18.93638,1.1836 -19.15235,3.3106 l 0.0174,4.8579 c 1.09349,-4.4714 41.30731,-4.0206 41.30731,0.3958 l 0,-5.2537 c 0.36715,-2.2837 -11.18896,-3.426 -22.17231,-3.3106 z"
                   id="path26457"
                   inkscape:connector-curvature="0" />
                <path
                   style="color:#000000;fill:#00cfff;fill-opacity:1;fill-rule:nonzero;stroke:none;stroke-width:12;marker:none;visibility:visible;display:inline;overflow:visible;enable-background:accumulate"
                   d="m -372.87446,3155.9807 c -0.0315,0.129 -0.0355,0.2587 0,0.3958 z"
                   id="path26459"
                   inkscape:connector-curvature="0" />
                <path
                   sodipodi:nodetypes="sccccsccc"
                   inkscape:connector-curvature="0"
                   id="path26461"
                   d="m -353.73946,3195.6641 c -9.69117,0.1018 -18.93638,1.1836 -19.15235,3.3106 l 0.0174,17.3928 c 1.09351,-4.4714 41.30731,-4.0206 41.30731,0.3958 l 0,-17.7886 c 0.3442,-2.141 -21.4859,-3.3206 -22.17236,-3.3106 z m -19.135,20.7024 c -0.0315,0.1289 -0.0355,0.2587 0,0.3959 z"
                   style="opacity:0.56194691;color:#000000;fill:#ffcc00;fill-opacity:1;fill-rule:nonzero;stroke:none;stroke-width:12;marker:none;visibility:visible;display:inline;overflow:visible;enable-background:accumulate" />
                <path
                   style="color:#000000;fill:#ff2a2a;fill-opacity:1;fill-rule:nonzero;stroke:none;stroke-width:12;marker:none;visibility:visible;display:inline;overflow:visible;enable-background:accumulate"
                   d="m 168.65625,-2493.5938 c -2.47711,-0.01 -4.96552,0.01 -7.4375,0.031 -34.8985,0.3536 -68.191029,4.1114 -68.96875,11.5 l 0.0625,16.875 c 3.906994,-15.411 146.52229,-14.0077 148.75,1 l 0,-17.875 c 1.2395,-7.4374 -35.24963,-11.3966 -72.40625,-11.5313 z m 0,46.9063 c -2.47711,-0.01 -4.96552,0.01 -7.4375,0.031 -34.8985,0.3535 -68.191029,4.1114 -68.96875,11.5 l 0.0625,16.9062 c 3.906994,-15.411 146.52229,-14.0077 148.75,1 l 0,-17.9062 c 1.2395,-7.4371 -35.24964,-11.3964 -72.40625,-11.5313 z m -7.34375,46.2813 c -2.64887,0.01 -5.2891,0.045 -7.90625,0.094 l 0,52.9375 c -6.31121,0.1587 -12.48547,0.4232 -18.34375,0.8125 l 0,-53.0625 c -6.08845,0.373 -11.81746,0.8937 -17,1.5312 l 0,53.125 c -6.56209,0.8317 -12.25852,1.8835 -16.59375,3.125 l 0,-52.0937 -3.3125,0 c -3.331952,1.2798 -5.419891,2.7656 -5.84375,4.4375 l -0.03125,-4.4375 -0.78125,0 0,63.3437 0.75,0 0,-2.4687 c 0.0054,-0.051 0.02277,-0.1055 0.03125,-0.1563 l 0.03125,2.4376 c 3.907026,-15.411 146.52229,-13.9764 148.75,1.0312 l 0,-6.2812 c 0.17899,-1.074 -0.43581,-2.0723 -1.71875,-3 l 0,-51.875 c -1.83858,-1.4328 -5.08022,-2.7272 -9.40625,-3.8438 l 0,52.1875 c -4.88606,-1.165 -11.17153,-2.1455 -18.3125,-2.9063 l 0,-52.4062 c -5.60471,-0.6646 -11.72653,-1.2216 -18.1875,-1.625 l 0,52.625 c -5.92069,-0.3143 -12.08153,-0.4963 -18.34375,-0.5938 l 0,-52.8124 c -4.5823,-0.107 -9.1831,-0.1394 -13.78125,-0.125 z m -69,69.625 c -0.11343,0.4476 -0.12784,0.8984 0,1.375 l 0,-1.375 z m 51.125,-61.4063 c -2.81011,0.2854 -5,2.6771 -5,5.5625 0,3.0778 2.48474,5.5625 5.5625,5.5625 3.07776,0 5.59375,-2.4847 5.59375,-5.5625 l -0.0312,-0.4062 c -0.21727,-2.9087 -2.64578,-5.1563 -5.5625,-5.1563 -0.19236,0 -0.37516,-0.019 -0.5625,0 z m 42.21875,1.75 c -3.07776,0 -5.5625,2.4847 -5.5625,5.5625 0,3.0778 2.48474,5.5625 5.5625,5.5625 3.07776,0 5.5625,-2.4847 5.5625,-5.5625 l 0,-0.4062 c -0.21727,-2.9087 -2.64578,-5.1563 -5.5625,-5.1563 z m -75.96875,3.5 c -2.26782,0 -4.09375,2.516 -4.09375,5.5937 0,3.0778 1.82593,5.5626 4.09375,5.5626 2.26782,0 4.125,-2.4848 4.125,-5.5626 l -0.0312,-0.4374 c -0.16009,-2.9087 -1.94459,-5.1563 -4.09375,-5.1563 z m 110.28125,0 c -2.26782,0 -4.09375,2.516 -4.09375,5.5937 0,3.0778 1.82593,5.5626 4.09375,5.5626 2.26782,0 4.125,-2.4848 4.125,-5.5626 l -0.0312,-0.4374 c -0.16009,-2.9087 -1.94459,-5.1563 -4.09375,-5.1563 z m -51.3125,58.2813 c -2.4771,0 -4.96552,0 -7.4375,0.031 -34.89847,0.3536 -68.19103,4.1114 -68.96875,11.5 l 0.0625,1.25 c 3.907026,-15.411 146.52229,-13.9763 148.75,1.0312 l 0,-2.2812 c 1.23948,-7.4368 -35.24963,-11.3969 -72.40625,-11.5312 z m -76.34375,12.7812 c -0.11343,0.4478 -0.12784,0.8984 0,1.375 l 0,-1.375 z m 76.34375,0.125 c -2.4771,0 -4.96552,0 -7.4375,0.031 -34.89847,0.3537 -68.19103,4.1116 -68.96875,11.5 l 0.0625,5.25 c 3.907026,-15.4108 146.52229,-13.9763 148.75,1.0313 l 0,-6.2813 c 1.23948,-7.4367 -35.24963,-11.3964 -72.40625,-11.5312 z m -76.34375,16.7812 c -0.11343,0.4478 -0.12784,0.8986 0,1.375 l 0,-1.375 z m 76.34375,1.4063 c -2.4771,0 -4.96552,0 -7.4375,0.031 -34.89847,0.3535 -68.19103,4.1114 -68.96875,11.5 l 0.0625,1.25 c 3.907026,-15.411 146.52229,-13.9764 148.75,1.0312 l 0,-2.2812 c 1.23948,-7.4369 -35.24963,-11.3969 -72.40625,-11.5313 z m -76.34375,12.7813 c -0.11343,0.4476 -0.12784,0.8984 0,1.375 l 0,-1.375 z m 76.34375,0.6874 c -2.47711,-0.01 -4.96552,0.01 -7.4375,0.031 -34.8985,0.3536 -68.19103,4.1114 -68.96875,11.5 l 0.0625,5.25 c 3.906996,-15.411 146.52229,-13.9764 148.75,1.0313 l 0,-6.2813 c 1.2395,-7.4371 -35.24963,-11.3966 -72.40625,-11.5313 z m -76.34375,16.7813 c -0.11343,0.4478 -0.12784,0.8984 0,1.375 l 0,-1.375 z"
                   transform="matrix(0.27769614,0,0,0.2878772,-398.51274,3870.1417)"
                   id="path26463"
                   inkscape:connector-curvature="0" />
                <path
                   style="color:#000000;fill:#00cfff;fill-opacity:1;fill-rule:nonzero;stroke:none;stroke-width:12;marker:none;visibility:visible;display:inline;overflow:visible;enable-background:accumulate"
                   d="m -372.87446,3163.3396 c -0.0315,0.1289 -0.0355,0.2586 0,0.3958 z"
                   id="path26465"
                   inkscape:connector-curvature="0" />
                <path
                   style="color:#000000;fill:#00ce00;fill-opacity:1;fill-rule:nonzero;stroke:none;stroke-width:12;marker:none;visibility:visible;display:inline;overflow:visible;enable-background:accumulate"
                   d="m -353.73946,3156.9312 c -9.69118,0.1018 -18.93638,1.1836 -19.15235,3.3106 l 0.0174,4.8579 c 1.09349,-4.4714 41.30731,-4.0206 41.30731,0.3959 l 0,-5.2538 c 0.36715,-2.2837 -11.18896,-3.4259 -22.17231,-3.3106 z"
                   id="path26467"
                   inkscape:connector-curvature="0"
                   sodipodi:nodetypes="ccccccc" />
                <path
                   style="color:#000000;fill:#00cfff;fill-opacity:1;fill-rule:nonzero;stroke:none;stroke-width:12;marker:none;visibility:visible;display:inline;overflow:visible;enable-background:accumulate"
                   d="m -372.87446,3170.5036 c -0.0315,0.129 -0.0355,0.2587 0,0.3959 z"
                   id="path26469"
                   inkscape:connector-curvature="0" />
                <path
                   style="color:#000000;fill:#00cfff;fill-opacity:1;fill-rule:nonzero;stroke:none;stroke-width:12;marker:none;visibility:visible;display:inline;overflow:visible;enable-background:accumulate"
                   d="m -353.73946,3161.2501 c -9.69118,0.1018 -18.93638,1.1836 -19.15235,3.3106 l 0.0174,4.8582 c 1.0935,-4.4714 41.30731,-4.0206 41.30731,0.3958 l 0,-5.254 c 0.36715,-2.2837 -11.18896,-3.4259 -22.17231,-3.3106 z"
                   id="path26471"
                   inkscape:connector-curvature="0"
                   sodipodi:nodetypes="ccccccc" />
                <path
                   style="color:#000000;fill:#00cfff;fill-opacity:1;fill-rule:nonzero;stroke:none;stroke-width:12;marker:none;visibility:visible;display:inline;overflow:visible;enable-background:accumulate"
                   d="m -372.87446,3177.8625 c -0.0315,0.129 -0.0355,0.2586 0,0.3958 z"
                   id="path26473"
                   inkscape:connector-curvature="0" />
                <path
                   style="color:#000000;fill:#ff2a2a;fill-opacity:1;fill-rule:nonzero;stroke:none;stroke-width:12;marker:none;visibility:visible;display:inline;overflow:visible;enable-background:accumulate"
                   d="m -353.73946,3175.0975 c -9.69118,0.1018 -18.93638,1.1836 -19.15235,3.3106 l 0.0174,4.8582 c 1.0935,-4.4714 41.30731,-4.0206 41.30731,0.3958 l 0,-5.254 c 0.36715,-2.2837 -11.18896,-3.4259 -22.17231,-3.3106 z"
                   id="path26475"
                   inkscape:connector-curvature="0"
                   sodipodi:nodetypes="ccccccc" />
                <path
                   style="color:#000000;fill:#00c2ef;fill-opacity:1;fill-rule:nonzero;stroke:none;stroke-width:12;marker:none;visibility:visible;display:inline;overflow:visible;enable-background:accumulate"
                   d="m 164.5,-2279.6875 c 0,0 -18.92958,14.4628 -24.5625,32.5313 -0.12334,-0.5983 -0.28619,-1.2204 -0.4375,-1.8438 -4.22819,-17.4214 -16.375,-27.375 -16.375,-27.375 0,0 -12.81591,15.5384 -13.15625,32.7812 -1.36695,-19.4954 -7.49799,-25.7157 -7.15625,-27.375 0.3412,-1.6566 -10.558853,19.847 -7.53125,46.75 1.153498,0.02 7.32321,0.068 13,0.094 1.42197,-2.7485 2.16484,-7.3413 1.9375,-14.8438 0.59905,5.023 2.38274,10.1027 6.03125,14.875 4.67241,0.015 11.52125,0.019 17.0625,0.031 2.43295,-1.3725 4.52704,-3.5072 5.875,-6.5625 0.0967,0.3759 0.22947,0.7488 0.34375,1.125 0,0 3.46953,2.8935 9.09375,5.4375 11.02294,0.015 21.10558,0.043 32.3125,0.031 7.12487,-3.1212 10.6588,-6.3454 11.71875,-10.3438 1.02915,5.1404 3.70831,8.4376 7.03125,10.3125 6.01032,-0.02 12.06339,-0.058 17.125,-0.094 3.60572,-4.7426 5.40031,-9.7927 6,-14.7813 -0.22224,7.4133 0.51277,11.9653 1.90625,14.7187 5.76804,-0.06 10.23385,-0.1224 13.03125,-0.2187 2.94325,-26.7994 -7.87151,-48.1833 -7.53125,-46.5313 0.34174,1.6593 -5.82055,7.8796 -7.1875,27.375 -0.34034,-17.2428 -13.15625,-32.7812 -13.15625,-32.7812 0,0 -12.14681,9.9536 -16.375,27.375 -0.62159,2.5611 -0.9825,4.9185 -1.15625,7.0625 -0.88649,-3.4258 -2.61925,-7.3647 -4.78125,-12.0313 -7.68713,-16.5917 -23.0625,-25.7187 -23.0625,-25.7187 z"
                   transform="matrix(0.27769614,0,0,0.2878772,-398.51274,3870.1417)"
                   id="path26477"
                   inkscape:connector-curvature="0" />
              </g>
            </g>
            <g
               transform="translate(0,0.27161195)"
               id="g26479">
              <path
                 sodipodi:nodetypes="ccccc"
                 inkscape:connector-curvature="0"
                 id="path26481"
                 d="m 152.54817,326.88605 c 0,3.89444 -32.95394,7.05151 -72.700163,7.05151 -39.746223,0 -73.2867725,-3.15707 -73.2867725,-7.05151 3.8129555,-0.0815 33.5405495,-1.24438 73.2867725,-1.24438 39.746223,0 44.836263,-1.18355 72.700163,1.24438 z"
                 style="color:#000000;fill:#f0cf75;fill-opacity:1;fill-rule:nonzero;stroke:#6a5b1d;stroke-width:10;stroke-linecap:round;stroke-linejoin:round;stroke-miterlimit:4;stroke-opacity:1;stroke-dashoffset:0;marker:none;visibility:visible;display:inline;overflow:visible;enable-background:accumulate"
                 transform="matrix(0.26458334,0,0,0.26458334,-6.3049604e-6,16.916276)" />
              <path
                 sodipodi:nodetypes="ssss"
                 inkscape:connector-curvature="0"
                 id="path26483"
                 d="m 152.54817,326.88605 c 0,3.89444 -32.95394,7.05151 -72.700163,7.05151 -39.746223,0 -73.2867725,-3.15707 -73.2867725,-7.05151 0,-15.50871 145.9869355,-12.19035 145.9869355,0 z"
                 style="color:#000000;fill:#daba61;fill-opacity:1;fill-rule:nonzero;stroke:none;stroke-width:10;marker:none;visibility:visible;display:inline;overflow:visible;enable-background:accumulate"
                 transform="matrix(0.26458334,0,0,0.26458334,-6.3049604e-6,16.916276)" />
            </g>
          </g>
        </g>
      </g>
      <g
         id="g22579"
         transform="matrix(0.86868896,0,0,0.86868896,753.41667,-3300.9469)">
        <path
           style="color:#000000;fill:#ffe581;fill-opacity:1;fill-rule:nonzero;stroke:#6a5b1d;stroke-width:12;stroke-linecap:round;stroke-linejoin:round;stroke-miterlimit:4;stroke-opacity:1;stroke-dasharray:none;stroke-dashoffset:0;marker:none;visibility:visible;display:inline;overflow:visible;enable-background:accumulate"
           d="m -1224,12841.406 c -67.259,0 -107.6945,5.525 -121.5,17.813 -22.9495,21.129 -17.4062,59.156 -17.4062,59.156 l 1.5624,0 c 9.5309,9.234 67.3786,6.477 137.3438,6.477 69.9652,0 127.8442,2.757 137.375,-6.477 l 1.0625,0 c 0,0 0.03,-0.744 0.062,-1.594 0.1522,-0.365 0.25,-0.723 0.25,-1.093 0,-0.32 -0.074,-0.654 -0.1875,-0.969 0,0 0,-0.02 0,-0.03 0.1859,-10.878 -0.6737,-43.246 -16.8125,-56.188 0.02,-0.123 -18.3107,-17.094 -121.75,-17.094 z"
           transform="matrix(0.26458334,0,0,0.26458334,-6.3049604e-6,18.562493)"
           id="path22581"
           inkscape:connector-curvature="0"
           sodipodi:nodetypes="ccccscccscccsc" />
        <path
           sodipodi:nodetypes="scccscccscccs"
           inkscape:connector-curvature="0"
           id="path22583"
           transform="matrix(0.26458334,0,0,0.26458334,-6.3049604e-6,18.562493)"
           d="m -1224,12841.406 c -67.259,0 -107.6945,5.525 -121.5,17.813 -22.9495,21.129 -17.4062,59.156 -17.4062,59.156 l 1.5624,0 c 9.5309,9.234 67.3786,16.344 137.3438,16.344 69.9652,0 127.8442,-7.11 137.375,-16.344 l 1.0625,0 c 0,0 0.03,-0.744 0.062,-1.594 0.1522,-0.365 0.25,-0.723 0.25,-1.093 0,-0.32 -0.074,-0.654 -0.1875,-0.969 0,0 0,-0.02 0,-0.03 0.1859,-10.878 -0.6737,-43.246 -16.8125,-56.188 0.02,-0.123 -18.3107,-17.094 -121.75,-17.094 z"
           style="color:#000000;fill:#ffe581;fill-opacity:1;fill-rule:nonzero;stroke:none;stroke-width:0;marker:none;visibility:visible;display:inline;overflow:visible;enable-background:accumulate" />
        <path
           id="path22585"
           transform="matrix(0.26458334,0,0,0.26458334,-6.3049604e-6,18.562493)"
           d="m -1224,12841.406 c -29.3156,0 -53.5475,1.049 -72.6875,3.25 57.0396,35.785 124.3558,21.52 140.5625,28.813 15.1611,6.823 14.2423,46.41 12.7188,57.719 30.1506,-2.96 51.3467,-7.548 56.7812,-12.813 l 1.0625,0 c 0,0 0.031,-0.744 0.062,-1.594 0.1522,-0.365 0.25,-0.723 0.25,-1.093 0,-0.321 -0.074,-0.654 -0.1875,-0.969 l 0,-0.03 c 0.1859,-10.879 -0.6737,-43.246 -16.8125,-56.188 0.02,-0.123 -18.3107,-17.094 -121.75,-17.094 z"
           style="opacity:0.71238942;color:#000000;fill:#d5b352;fill-opacity:1;fill-rule:nonzero;stroke:none;stroke-width:12;marker:none;visibility:visible;display:inline;overflow:visible;enable-background:accumulate"
           inkscape:connector-curvature="0" />
        <path
           id="path22587"
           transform="matrix(0.26458334,0,0,0.26458334,-6.3049604e-6,18.562493)"
           d="m -1338.75,12854.781 c -2.692,1.371 -4.9569,2.842 -6.75,4.438 -22.9495,21.129 -17.4062,59.156 -17.4062,59.156 l 1.5624,0 c 9.531,9.234 67.3786,16.344 137.3438,16.344 69.9652,0 127.8442,-7.11 137.375,-16.344 l 1.0625,0 c 0,0 0.031,-0.744 0.062,-1.594 0.1522,-0.365 0.25,-0.723 0.25,-1.093 0,-0.321 -0.074,-0.654 -0.1875,-0.969 l 0,-0.03 c 0.1859,-10.879 -0.6737,-43.246 -16.8125,-56.188 0.01,-0.03 -1.4208,-1.381 -5.75,-3.312 2.5153,8.36 -4.1271,19.201 -63.75,21.562 -68.8112,2.726 -157.361,-5.856 -167,-21.969 z"
           style="opacity:0.58407078;color:#000000;fill:#cfa838;fill-opacity:1;fill-rule:nonzero;stroke:none;stroke-width:12;marker:none;visibility:visible;display:inline;overflow:visible;enable-background:accumulate"
           inkscape:connector-curvature="0" />
        <path
           id="path22589"
           transform="matrix(0.26458334,0,0,0.26458334,-6.3049604e-6,18.562493)"
           d="m -1230.4062,12849.594 c 0,0 -14.469,1.64 -29.8126,4.75 -7.6715,1.555 -15.5822,3.478 -22.0937,5.781 -6.5115,2.303 -11.7521,4.659 -14.125,8.813 -6.4777,11.336 -9.5528,33.762 -8.3125,62.218 1.6356,0.161 3.3436,0.318 5.0312,0.469 -1.208,-28.365 2.2461,-50.805 7.625,-60.219 0.9165,-1.603 5.3378,-4.394 11.4688,-6.562 6.131,-2.169 13.8345,-4.066 21.375,-5.594 15.0809,-3.057 42.7761,-11.373 42.7761,-11.373 z m 16.5,4.062 c -1.1352,0.107 -2.1268,1.085 -2.25,2.219 -1.286,10.287 -1.6784,33.772 -1.7813,54.969 -0.043,8.906 -0.026,17.013 0,23.844 1.6682,-0.01 3.3476,-0.05 5,-0.06 -0.026,-6.808 -0.043,-14.881 0,-23.75 0.1028,-21.151 0.5378,-44.927 1.7187,-54.375 0.2113,-1.483 -2.6274,-9.179 -4.1199,-9.051 z m 19.5312,-0.361 c -1.8838,0.03 -3.7478,0.123 -5.5625,0.281 -1.3673,0.02 -14.9811,-1.031 -14.8612,0.332 0.12,1.362 13.9482,4.852 15.2987,4.637 13.4401,-1.186 30.1361,2.78 44.1562,6.643 7.0103,1.929 13.3588,4.071 18.3438,5.968 4.9631,1.89 8.6581,3.613 9.9375,4.406 0.011,0.103 0.7339,1.004 1.2813,2.532 0.6253,1.745 1.2486,4.216 1.8124,7.094 1.1281,5.752 2.066,13.162 2.7813,20.468 0.8656,8.842 1.41,17.095 1.7187,22.563 1.7086,-0.269 3.3394,-0.563 4.9376,-0.844 -0.3213,-5.529 -0.8443,-13.576 -1.6876,-22.187 -0.7237,-7.394 -1.659,-14.927 -2.8437,-20.969 -0.5923,-3.021 -1.2315,-5.668 -2,-7.813 -0.7685,-2.144 -1.4244,-3.882 -3.3125,-5.062 -2.0256,-1.266 -5.7042,-2.919 -10.8438,-4.875 -5.1392,-1.957 -11.6383,-4.15 -18.8124,-6.125 -10.7614,-2.963 -23.0363,-6.42 -34.625,-6.955 -1.9317,-0.09 -3.55,-2.259 -5.7188,-0.09 z"
           style="font-size:medium;font-style:normal;font-variant:normal;font-weight:normal;font-stretch:normal;text-indent:0;text-align:start;text-decoration:none;line-height:normal;letter-spacing:normal;word-spacing:normal;text-transform:none;direction:ltr;block-progression:tb;writing-mode:lr-tb;text-anchor:start;baseline-shift:baseline;opacity:0.71238942;color:#000000;fill:#897832;fill-opacity:1;stroke:none;stroke-width:5;marker:none;visibility:visible;display:inline;overflow:visible;enable-background:accumulate;font-family:Sans;-inkscape-font-specification:Sans"
           inkscape:connector-curvature="0"
           sodipodi:nodetypes="csscccccccccccccccccccsccccccsccccccccccc" />
      </g>
      <g
         id="g22591"
         transform="translate(337.34024,-318.80892)">
        <g
           id="g22593"
           transform="matrix(1.010705,0,0,1.010705,-4.018552,-224.98473)">
          <g
             transform="translate(116.24253,40.16349)"
             id="g22595">
            <g
               transform="matrix(0.90934944,0,0,0.90934944,341.12312,-2833.2001)"
               id="g22597">
              <g
                 id="g22599"
                 transform="matrix(1.0366626,0,0,1,13.076783,0)">
                <path
                   sodipodi:nodetypes="ccccc"
                   inkscape:connector-curvature="0"
                   id="path22601"
                   d="m -372.89476,3148.8494 c 0.0276,2.6752 0.0955,78.3469 0.21258,80.9819 1.1416,-0.3423 40.25222,0.3051 41.11532,-0.3087 -0.0208,-2.902 0.0421,-78.742 -0.0319,-81.6366 0,-3.739 -41.296,-5.1295 -41.296,0.9634 z"
                   style="color:#000000;fill:#ffcc00;fill-opacity:1;fill-rule:nonzero;stroke:#6a5b1d;stroke-width:2.85767603;stroke-linejoin:round;stroke-miterlimit:4;stroke-opacity:1;stroke-dasharray:none;marker:none;visibility:visible;display:inline;overflow:visible;enable-background:accumulate" />
                <path
                   inkscape:connector-curvature="0"
                   style="color:#000000;fill:#f6e3ae;fill-opacity:1;fill-rule:nonzero;stroke:none;stroke-width:12;marker:none;visibility:visible;display:inline;overflow:visible;enable-background:accumulate"
                   d="m -1411.625,11829.286 0.8438,307.808 c 1.6437,0.134 155.3866,0.634 160.9062,-0.438 0.066,0 0.1223,0 0.1875,0 l 0,-309.026 c 0.5983,-24.778 -161.3195,-26.131 -161.9375,1.656 z"
                   transform="matrix(0.25522609,0,0,0.26458334,-12.614316,18.562493)"
                   id="path22603"
                   sodipodi:nodetypes="cccccc" />
                <path
                   sodipodi:nodetypes="ccccsccccsc"
                   id="path22605"
                   transform="matrix(0.28066888,0,0,0.29095893,-497.78585,3091.8797)"
                   d="m 551.28125,179.81309 0,294.49941 c 3.65064,-0.012 7.2038,-0.0448 10.53125,-0.0625 2.39125,-0.0128 4.71751,-0.0467 6.90625,-0.0625 6.1726,-0.0448 11.71232,-0.0824 15.65625,-0.15625 1.95977,-0.0367 3.492,-0.0802 4.75,-0.125 0.16411,-0.006 0.31776,0.006 0.46875,0 1.21076,-0.0477 2.14015,-0.0986 2.4375,-0.15625 l 0.1875,0 0,-281.03066 c 0,-6.50219 -17.75372,-10.85554 -40.9375,-12.90625 z"
                   style="color:#000000;fill:#f0cf75;fill-opacity:1;fill-rule:nonzero;stroke:none;stroke-width:12;marker:none;visibility:visible;display:inline;overflow:visible;enable-background:accumulate"
                   inkscape:connector-curvature="0" />
                <path
                   sodipodi:nodetypes="ccccc"
                   id="path22607"
                   transform="matrix(0.28066888,0,0,0.29095893,-497.78585,3091.8797)"
                   d="m 473.3125,181.43809 c -16.69863,2.55362 -28.30358,6.80126 -28.34375,12.78125 l 0.75,279.93691 c 0.41031,0.0283 11.98684,0.0835 27.59375,0.125 z"
                   style="color:#000000;fill:#fff2d2;fill-opacity:1;fill-rule:nonzero;stroke:none;stroke-width:12;marker:none;visibility:visible;display:inline;overflow:visible;enable-background:accumulate"
                   inkscape:connector-curvature="0" />
                <path
                   inkscape:connector-curvature="0"
                   id="path22609"
                   transform="matrix(0.27769614,0,0,0.2878772,-493.56814,3337.0529)"
                   d="m 542.3125,-650.40625 0,17.75 c 23.26928,1.84996 41.0625,5.53057 41.0625,10.90625 l 0,-18.25 c 0.87847,-5.2708 -17.23087,-8.75462 -41.0625,-10.40625 z m 0,33.1875 0,10.125 c 23.26928,1.84996 41.0625,5.53064 41.0625,10.90625 l 0,-10.625 c 0.87847,-5.27085 -17.23087,-8.75464 -41.0625,-10.40625 z"
                   style="opacity:0.25;color:#000000;fill:#00cfff;fill-opacity:1;fill-rule:nonzero;stroke:none;stroke-width:12;marker:none;visibility:visible;display:inline;overflow:visible;enable-background:accumulate" />
                <path
                   inkscape:connector-curvature="0"
                   id="path22611"
                   transform="matrix(0.27769614,0,0,0.2878772,-493.56814,3337.0529)"
                   d="m 503.53125,-651.5 c -34.89853,0.35355 -68.19101,4.11147 -68.96875,11.5 l 0.0625,16.875 c 3.93772,-15.53235 148.75,-13.96655 148.75,1.375 l 0,-18.25 c 1.32216,-7.93295 -40.29209,-11.90069 -79.84375,-11.5 z m -68.90625,28.375 c -0.11357,0.44798 -0.12768,0.89848 0,1.375 l 0,-1.375 z m 68.90625,4.8125 c -34.89853,0.35356 -68.19101,4.11143 -68.96875,11.5 l 0.0625,9.25 c 3.93775,-15.5323 148.75,-13.96634 148.75,1.375 l 0,-10.625 c 1.32216,-7.93303 -40.29208,-11.90071 -79.84375,-11.5 z m -68.90625,20.75 c -0.11357,0.44798 -0.12768,0.89848 0,1.375 l 0,-1.375 z"
                   style="opacity:0.70353986;color:#000000;fill:#00cfff;fill-opacity:1;fill-rule:nonzero;stroke:none;stroke-width:12;marker:none;visibility:visible;display:inline;overflow:visible;enable-background:accumulate" />
                <path
                   style="opacity:0.56194691;color:#000000;fill:#ffcc00;fill-opacity:1;fill-rule:nonzero;stroke:none;stroke-width:12;marker:none;visibility:visible;display:inline;overflow:visible;enable-background:accumulate"
                   d="m -353.73946,3195.6641 c -9.69117,0.1018 -18.93638,1.1836 -19.15235,3.3106 l 0.0174,17.3928 c 1.09351,-4.4714 41.30731,-4.0206 41.30731,0.3958 l 0,-17.7886 c 0.3442,-2.141 -21.4859,-3.3206 -22.17236,-3.3106 z m -19.135,20.7024 c -0.0315,0.1289 -0.0355,0.2587 0,0.3959 z"
                   id="path22613"
                   inkscape:connector-curvature="0"
                   sodipodi:nodetypes="sccccsccc" />
                <path
                   sodipodi:nodetypes="ccccccccccccccccccccccccccccccccccccccccscccccsccc"
                   inkscape:connector-curvature="0"
                   id="path22615"
                   transform="matrix(0.27769614,0,0,0.2878772,-493.56814,3336.4559)"
                   d="m 510.96875,-493.68286 c -2.4771,0 -4.96552,-0.003 -7.4375,0.0312 -34.89847,0.35362 -68.19103,4.11143 -68.96875,11.5 l 0.0625,5.25 c 3.93779,-15.53232 148.75,-13.96626 148.75,1.375 l 0,-6.625 c 1.23948,-7.43685 -35.24963,-11.39682 -72.40625,-11.53125 z m -76.34375,16.78125 c -0.11343,0.44776 -0.12784,0.89841 0,1.375 z m 76.34375,2.125 c -2.4771,0 -4.96552,-0.003 -7.4375,0.0312 -34.89847,0.35362 -68.19103,4.11143 -68.96875,11.5 l 0.0625,1.25 c 3.93779,-15.53232 148.75,-13.96626 148.75,1.375 l 0,-2.625 c 1.23948,-7.43685 -35.24963,-11.39682 -72.40625,-11.53125 z m -76.34375,12.78125 c -0.11343,0.44776 -0.12784,0.89841 0,1.375 z m 76.34375,0.125 c -2.4771,0 -4.96552,-0.003 -7.4375,0.0312 -34.89847,0.35362 -68.19103,4.11143 -68.96875,11.5 l 0.0625,5.25 c 3.93779,-15.53232 148.75,-13.96626 148.75,1.375 l 0,-6.625 c 1.23948,-7.43685 -35.24963,-11.39647 -72.40625,-11.53125 z m -76.34375,16.78125 c -0.11343,0.44776 -0.12784,0.89841 0,1.375 z m 76.34375,1.40625 c -2.4771,0 -4.96552,-0.003 -7.4375,0.0312 -34.89847,0.35362 -68.19103,4.11143 -68.96875,11.5 l 0.0625,1.25 c 3.93779,-15.53232 148.75,-13.96626 148.75,1.375 l 0,-2.625 c 1.23948,-7.43685 -35.24963,-11.39682 -72.40625,-11.53125 z m -76.34375,12.78125 c -0.11343,0.44776 -0.12784,0.89841 0,1.375 z m 76.34375,0.6875 c -2.47711,-0.009 -4.96552,0.006 -7.4375,0.0312 -34.8985,0.35362 -68.19103,4.11143 -68.96875,11.5 l 0.0625,5.25 c 3.93776,-15.53232 148.75,-13.96626 148.75,1.375 l 0,-6.625 c 1.2395,-7.43709 -35.24963,-11.39656 -72.40625,-11.53125 z m -76.34375,16.78125 c -0.11343,0.44776 -0.12784,0.89841 0,1.375 z"
                   style="color:#000000;fill:#ff2a2a;fill-opacity:1;fill-rule:nonzero;stroke:none;stroke-width:12;marker:none;visibility:visible;display:inline;overflow:visible;enable-background:accumulate" />
                <path
                   sodipodi:nodetypes="ccccccccccccccccscccccccccccccccccc"
                   inkscape:connector-curvature="0"
                   id="path22617"
                   transform="matrix(0.27769614,0,0,0.2878772,-493.56814,3336.4559)"
                   d="m 510.9375,-580.15625 -22.875,63.125 c -2.73555,7.06581 -5.42564,7.37325 -8.0625,0.40625 -3.94534,-17.70565 -10.89564,-54.88543 -11.3125,-60.53125 -0.80514,5.5197 -9.28859,44.43517 -13.15625,62.96875 -5.23054,8.89424 -6.67596,4.66519 -8.09375,1.5 -2.38279,-17.44112 -8.39547,-51.40758 -8.71875,-59.03125 -0.4363,3.58903 -2.10718,14.46458 -3.96875,26.6875 l 0.125,38.15625 c -0.1539,0.3072 -0.27872,0.61662 -0.3125,0.9375 l 0.0625,16.875 c 3.93772,-15.53232 148.75,-13.96661 148.75,1.375 l 0,-13.65625 0,-4.59375 c 0.0387,-0.23241 0.0338,-0.46189 0,-0.6875 l 0,-0.96875 c -2.04144,-18.057 -7.3125,-64.73493 -7.3125,-66.6875 0,-0.0347 -0.0276,-0.0312 -0.0312,-0.0312 -0.35489,1.45316 -4.24326,34.92314 -9.83929,60.60089 -1.7208,-0.34505 -2.39536,-1.28229 -4.35804,-1.58661 -2.51456,-14.79841 -12.58094,-59.93251 -12.08392,-61.92053 0.51205,-2.0479 -6.89969,42.13601 -11.40625,60.59375 -2.1307,4.5319 -6.66208,7.88936 -9.48572,-0.4375 z m -76.3125,91.09375 c -0.11343,0.44811 -0.12784,0.89841 0,1.375 z m 34.0625,-88.09375 c 0.0587,-0.40225 0.0601,-0.65242 0.0312,-0.6875 -0.0108,0 -0.01,-0.003 -0.0312,0.0312 -0.0479,0.0973 -0.0252,0.33702 0,0.65625 z m -29.84375,3.90625 c -0.0108,-0.0347 -0.0251,-5e-5 -0.0625,0.125 -0.0706,0.2119 -0.0877,0.68791 -0.0625,1.34375 0.0929,-0.77325 0.15345,-1.39719 0.125,-1.46875 z"
                   style="opacity:0.99557525;color:#000000;fill:#28865c;fill-opacity:1;fill-rule:nonzero;stroke:none;stroke-width:12;marker:none;visibility:visible;display:inline;overflow:visible;enable-background:accumulate" />
              </g>
            </g>
            <g
               id="g22619"
               transform="translate(0,0.27161195)">
              <path
                 transform="matrix(0.26458334,0,0,0.26458334,-6.3049604e-6,16.916276)"
                 style="color:#000000;fill:#ffbb00;fill-opacity:1;fill-rule:nonzero;stroke:#6a5b1d;stroke-width:10;stroke-linecap:round;stroke-linejoin:round;stroke-miterlimit:4;stroke-opacity:1;stroke-dashoffset:0;marker:none;visibility:visible;display:inline;overflow:visible;enable-background:accumulate"
                 d="m 152.54817,326.88605 c 0,3.89444 -32.95394,7.05151 -72.700163,7.05151 -39.746223,0 -73.2867725,-3.15707 -73.2867725,-7.05151 3.8129555,-0.0815 33.5405495,-1.24438 73.2867725,-1.24438 39.746223,0 44.836263,-1.18355 72.700163,1.24438 z"
                 id="path22621"
                 inkscape:connector-curvature="0"
                 sodipodi:nodetypes="ccccc" />
              <path
                 transform="matrix(0.26458334,0,0,0.26458334,-6.3049604e-6,16.916276)"
                 style="color:#000000;fill:#f0cf75;fill-opacity:1;fill-rule:nonzero;stroke:none;stroke-width:10;marker:none;visibility:visible;display:inline;overflow:visible;enable-background:accumulate"
                 d="m 152.54817,326.88605 c 0,3.89444 -32.95394,7.05151 -72.700163,7.05151 -39.746223,0 -73.2867725,-3.15707 -73.2867725,-7.05151 0,-15.50871 145.9869355,-12.19035 145.9869355,0 z"
                 id="path22623"
                 inkscape:connector-curvature="0"
                 sodipodi:nodetypes="ssss" />
            </g>
          </g>
        </g>
      </g>
      <g
         id="g22637"
         transform="translate(1253.4712,1.4689483)">
        <g
           id="g22639"
           transform="matrix(1.0168964,0,0,-1.4597443,-1073.0672,-225.1073)">
          <g
             id="g22641">
            <path
               sodipodi:nodetypes="ccccccccc"
               inkscape:connector-curvature="0"
               id="path22643"
               d="m 268.19738,74.786337 39.42255,0 5.04422,1.805939 c 0.31041,-0.59786 10e-6,-1.316781 0.15521,-3.382116 0,-1.63053 -8.59848,-2.455358 -25.82714,-2.455358 -19.86709,0 -25.62854,1.305845 -25.78374,2.827672 0.1552,1.73923 0.0857,3.091329 0.0857,3.091329 l 7.11471,-1.630374 z"
               style="color:#000000;fill:#eec85d;fill-opacity:1;fill-rule:nonzero;stroke:none;stroke-width:10;marker:none;visibility:visible;display:inline;overflow:visible;enable-background:accumulate" />
            <path
               sodipodi:nodetypes="ccccccscccccccccsc"
               inkscape:connector-curvature="0"
               id="path22645"
               transform="matrix(0.34493599,0,0,-0.25812253,980.50353,-171.71439)"
               d="m -2016.0625,-972.25 c -33.5528,-0.0841 -65.1141,3.00366 -66.1563,10.40625 -0.041,0.11632 -0.035,0.25064 0,0.375 0.03,0.38896 0.097,0.76723 0.25,1.15625 0.034,3.20449 0.079,-0.79122 -0.25,4.13696 0,7.77283 13.0052,10.72875 66.375,11.25741 1.7217,0.017 3.4814,0 5.2813,0 49.9474,0 74.875,-2.23322 74.875,-11.10116 -0.3689,-6.55982 0.1649,-1.30566 -0.125,-4.29321 0.019,-0.0592 0.046,-0.12719 0.062,-0.1875 0.018,-0.0722 0.02,-0.14622 0.031,-0.21875 0.026,-0.12903 0.031,-0.24778 0.031,-0.375 -0.01,-0.0942 -0.014,-0.19136 -0.031,-0.28125 -0.021,-0.10738 -0.057,-0.21117 -0.094,-0.3125 -0.158,-0.43452 -0.4674,-0.79312 -0.875,-1.125 -0.1588,-0.12929 -0.3116,-0.25983 -0.5,-0.375 -7.7682,-5.54749 -44.3744,-8.97602 -78.875,-9.0625 z"
               style="color:#000000;fill:#eec85d;fill-opacity:1;fill-rule:nonzero;stroke:#6a5b1d;stroke-width:10.37123299;stroke-linejoin:round;stroke-miterlimit:4;stroke-opacity:1;stroke-dasharray:none;marker:none;visibility:visible;display:inline;overflow:visible;enable-background:accumulate" />
            <path
               style="color:#000000;fill:#d1ad43;fill-opacity:1;fill-rule:nonzero;stroke:none;stroke-width:0.05858524;marker:none;visibility:visible;display:inline;overflow:visible;enable-background:accumulate"
               d="m 268.19738,74.786337 39.42255,0 5.04422,1.805939 c 0.31041,-0.59786 10e-6,0.528568 0.15521,-1.536767 0,-2.289017 -8.59848,-4.321071 -25.82714,-4.321071 -19.86709,0 -24.72541,2.293076 -24.72541,4.364141 0.1552,1.73923 0.0857,1.575224 0.0857,1.575224 l 6.05638,-1.630374 z"
               id="path22647"
               inkscape:connector-curvature="0"
               sodipodi:nodetypes="ccccccccc" />
            <path
               style="color:#000000;fill:#ffde88;fill-opacity:1;fill-rule:nonzero;stroke:none;stroke-width:10;marker:none;visibility:visible;display:inline;overflow:visible;enable-background:accumulate"
               d="m 312.81936,76.362515 c 0,-1.630529 -8.59848,-4.069547 -25.82714,-4.069547 -19.86709,0 -24.57021,2.64828 -24.72541,4.170106 0,4.227516 50.30543,3.188348 50.55255,-0.100559 z"
               id="path22649"
               inkscape:connector-curvature="0"
               sodipodi:nodetypes="cccc" />
          </g>
        </g>
        <g
           transform="matrix(0.83360354,0,0,-1.1139666,-1020.4596,-255.57659)"
           id="g22651">
          <g
             id="g22653">
            <path
               style="color:#000000;fill:#eec85d;fill-opacity:1;fill-rule:nonzero;stroke:none;stroke-width:10;marker:none;visibility:visible;display:inline;overflow:visible;enable-background:accumulate"
               d="m 268.19738,74.786337 39.42255,0 5.04422,1.805939 c 0.31041,-0.59786 10e-6,-1.316781 0.15521,-3.382116 0,-1.63053 -8.59848,-2.455358 -25.82714,-2.455358 -19.86709,0 -25.62854,1.305845 -25.78374,2.827672 0.1552,1.73923 0.0857,3.091329 0.0857,3.091329 l 7.11471,-1.630374 z"
               id="path22655"
               inkscape:connector-curvature="0"
               sodipodi:nodetypes="ccccccccc" />
            <path
               style="color:#000000;fill:#eec85d;fill-opacity:1;fill-rule:nonzero;stroke:#6a5b1d;stroke-width:10.37123299;stroke-linejoin:round;stroke-miterlimit:4;stroke-opacity:1;stroke-dasharray:none;marker:none;visibility:visible;display:inline;overflow:visible;enable-background:accumulate"
               d="m -2016.0625,-972.25 c -33.5528,-0.0841 -65.1141,3.00366 -66.1563,10.40625 -0.041,0.11632 -0.035,0.25064 0,0.375 0.03,0.38896 0.097,0.76723 0.25,1.15625 0.034,3.20449 0.079,3.42197 -0.25,8.35015 0,7.77283 13.0052,16.34634 66.375,16.875 1.7217,0.017 3.4814,0 5.2813,0 49.9474,0 74.875,-7.85081 74.875,-16.71875 -0.3689,-6.55982 0.1649,-5.51885 -0.125,-8.5064 0.019,-0.0592 0.046,-0.12719 0.062,-0.1875 0.018,-0.0722 0.02,-0.14622 0.031,-0.21875 0.026,-0.12903 0.031,-0.24778 0.031,-0.375 -0.01,-0.0942 -0.014,-0.19136 -0.031,-0.28125 -0.021,-0.10738 -0.057,-0.21117 -0.094,-0.3125 -0.158,-0.43452 -0.4674,-0.79312 -0.875,-1.125 -0.1588,-0.12929 -0.3116,-0.25983 -0.5,-0.375 -7.7682,-5.54749 -44.3744,-8.97602 -78.875,-9.0625 z"
               transform="matrix(0.34493599,0,0,-0.25812253,980.50353,-171.71439)"
               id="path22657"
               inkscape:connector-curvature="0"
               sodipodi:nodetypes="ccccccscccccccccsc" />
            <path
               sodipodi:nodetypes="ccccccccc"
               inkscape:connector-curvature="0"
               id="path22659"
               d="m 268.19738,74.786337 39.42255,0 5.04422,1.805939 c 0.31041,-0.59786 10e-6,-0.558951 0.15521,-2.624286 0,-2.289017 -8.59848,-4.321071 -25.82714,-4.321071 -19.86709,0 -24.72541,2.293076 -24.72541,4.364141 0.1552,1.73923 0.0857,2.662743 0.0857,2.662743 l 6.05638,-1.630374 z"
               style="color:#000000;fill:#d1ad43;fill-opacity:1;fill-rule:nonzero;stroke:none;stroke-width:0.05858524;marker:none;visibility:visible;display:inline;overflow:visible;enable-background:accumulate" />
            <path
               sodipodi:nodetypes="cccc"
               inkscape:connector-curvature="0"
               id="path22661"
               d="m 312.81936,76.362515 c 0,-1.630529 -8.59848,-4.069547 -25.82714,-4.069547 -19.86709,0 -24.57021,2.64828 -24.72541,4.170106 0,4.227516 50.30543,3.188348 50.55255,-0.100559 z"
               style="color:#000000;fill:#ffde88;fill-opacity:1;fill-rule:nonzero;stroke:none;stroke-width:10;marker:none;visibility:visible;display:inline;overflow:visible;enable-background:accumulate" />
          </g>
        </g>
        <g
           id="g22663"
           transform="matrix(1,0,0,0.91917934,-250.19341,-68.177855)">
          <path
             style="color:#000000;fill:#eec85d;fill-opacity:1;fill-rule:nonzero;stroke:#6d5d1e;stroke-width:3.17499995;stroke-linejoin:round;stroke-miterlimit:4;stroke-opacity:1;stroke-dasharray:none;marker:none;visibility:visible;display:inline;overflow:visible;enable-background:accumulate"
             d="m -511.49377,-365.72722 c -0.002,-1.1e-4 0.002,0.0219 0.008,0.0496 0.005,-0.01 0.0122,-0.0231 0.008,-0.0331 -0.006,-0.0157 -0.015,-0.0165 -0.0166,-0.0166 z m 0.008,0.0496 c -0.44572,5.66248 -37.97413,7.81193 -39.58,-0.0331 -0.64008,-0.73813 -12.02203,41.61423 -12.02203,45.76464 0,7.52852 4.03582,14.29759 10.46119,18.9826 5.64573,4.11654 13.1363,5.07203 21.35495,5.07203 9.12278,0 17.34846,-1.53752 23.14971,-6.48778 5.37312,-4.58493 8.66644,-10.76602 8.66644,-17.56685 l -0.0909,-1.90995 c -0.31527,-3.39709 -11.66375,-42.56674 -11.93958,-43.82165 z"
             id="path22665"
             inkscape:connector-curvature="0"
             sodipodi:nodetypes="cccccccsssscccc" />
          <path
             sodipodi:nodetypes="cccccccsscccc"
             inkscape:connector-curvature="0"
             id="path22667"
             d="m -511.49377,-365.72722 c -0.002,-1.1e-4 0.002,0.0219 0.008,0.0496 0.005,-0.01 0.0122,-0.0231 0.008,-0.0331 -0.006,-0.0157 -0.015,-0.0165 -0.0166,-0.0166 z m 0.008,0.0496 c 0.30774,2.45804 -37.08267,3.59413 -39.58,-0.0331 -0.64008,-0.73813 -12.02203,41.61423 -12.02203,45.76464 0,14.14354 14.2439,25.6067 31.81614,25.6067 17.57231,0 31.81615,-11.46316 31.81615,-25.6067 l -0.0909,-1.90995 c -0.31527,-3.39709 -11.66375,-42.56674 -11.93958,-43.82165 z"
             style="color:#000000;fill:#eec85d;fill-opacity:1;fill-rule:nonzero;stroke:none;stroke-width:4;marker:none;visibility:visible;display:inline;overflow:visible;enable-background:accumulate" />
          <path
             id="path22669"
             transform="matrix(0.26458334,0,0,0.26458334,-6.3049604e-6,18.562493)"
             d="m -1933.2188,-1452.4375 c -0.01,-4e-4 0.01,0.083 0.031,0.1875 0.019,-0.038 0.047,-0.087 0.031,-0.125 -0.023,-0.059 -0.057,-0.062 -0.063,-0.062 z m 0.031,0.1875 c 0.2782,2.2225 -7.6325,4.1525 -19.9063,5.625 20.0277,67.8397 37.5728,146.3647 18.4688,165.4688 -35.1965,35.1965 -187.716,31.6787 -190.0625,-15.25 -0.04,-0.7938 -0.07,-1.5409 -0.125,-2.25 -2.0991,9.5954 -3.4063,16.5666 -3.4063,19.25 0,53.4558 53.8353,96.7812 120.25,96.7812 66.4151,0 120.25,-43.3254 120.25,-96.7812 l -0.3437,-7.2188 c -1.1916,-12.8394 -44.0825,-160.882 -45.125,-165.625 z"
             style="color:#000000;fill:#d1ad43;fill-opacity:1;fill-rule:nonzero;stroke:none;stroke-width:12;marker:none;visibility:visible;display:inline;overflow:visible;enable-background:accumulate"
             inkscape:connector-curvature="0" />
          <path
             style="opacity:0.80088495;color:#000000;fill:#00cce9;fill-opacity:1;fill-rule:nonzero;stroke:none;stroke-width:4;marker:none;visibility:visible;display:inline;overflow:visible;enable-background:accumulate"
             d="m -3055.5938,-1512.7188 c -1.7991,6.3421 -3.5459,12.5997 -5.2187,18.6876 12.4313,6.545 26.175,10.0163 39.7813,13.1874 28.6795,5.1271 58.0328,5.4987 87.0312,3.4063 27.8206,-2.1982 55.7805,-6.0499 82.2188,-15.3125 1.5326,-0.6325 3.1052,-1.2405 4.6562,-1.875 -1.7247,-5.7645 -3.5618,-11.8254 -5.4062,-17.9062 -3.9126,2.1877 -8.3595,3.9008 -12.625,5.3437 -10.7483,3.6179 -22.0246,5.2875 -33.0938,7.5937 -15.5082,2.566 -31.1285,4.3976 -46.8438,5 -23.6593,1.1223 -47.5515,0.5722 -70.9062,-3.625 -13.8053,-2.832 -27.7531,-6.6523 -39.5938,-14.5 z m 209.4688,21.4376 c -0.8937,0.5905 -1.734,1.2849 -2.4688,2.0312 -3.249,2.0146 -7.0239,4.6303 -10.9687,5.9688 -11.5887,4.1895 -23.7573,6.3698 -35.7813,8.9062 -16.039,2.8268 -32.2528,4.7392 -48.5312,5.5625 -22.6186,1.0692 -45.476,1.0014 -67.8438,-2.875 -15.7921,-3.1076 -32.1527,-6.6534 -45.4062,-16.2813 -1.5745,-0.9827 -3.0421,-2.0652 -4.4688,-3.1562 -1.8502,6.7738 -3.582,13.2957 -5.125,19.25 2.5226,1.8488 5.1796,3.527 8.0626,4.8125 7.7423,3.3126 15.5156,6.7813 23.75,8.8125 18.132,4.9248 36.9469,6.6514 55.6562,7.6562 31.9029,1.0751 63.8624,-1.9076 95.25,-7.5312 14.9124,-3.0681 29.9648,-6.8777 43.5312,-13.9062 -1.6839,-5.8319 -3.5957,-12.3392 -5.6562,-19.25 z"
             transform="matrix(0.26458334,0,0,0.28784735,250.1934,94.367165)"
             id="path22671"
             inkscape:connector-curvature="0" />
          <path
             style="color:#000000;fill:#d22a2a;fill-opacity:1;fill-rule:nonzero;stroke:none;stroke-width:4;marker:none;visibility:visible;display:inline;overflow:visible;enable-background:accumulate"
             d="m -2893.75,-1589.7188 -19.9375,37.5313 -37.5313,-29.3125 -34.0312,27.5625 -23.4688,-34.0313 -30.25,19.2188 c -0.6462,2.0695 -1.289,4.1634 -1.9687,6.375 13.2352,-10.0701 28.6875,-19.125 28.6875,-19.125 l 25.8125,36.375 36.375,-29.9375 c 0,0 39.3125,32.8464 39.3125,30.5 0,-2.3464 20.5312,-36.9375 20.5312,-36.9375 l 19.125,8.4375 c -0.7638,-2.4732 -1.2635,-4.1288 -1.9374,-6.3125 l -20.7188,-10.3438 z m 7.0625,14.6563 -21.7187,43.4063 -44.5938,-34 -35.1875,32.8437 -25.2187,-39.9063 c 0,0 -18.3918,15.077 -31.0938,22.0938 -1.6032,5.3371 -3.2755,10.8841 -4.9375,16.5625 14.1599,-11.2463 31.3437,-23.4063 31.3437,-23.4063 l 28.1563,45.1876 39.875,-38.125 47.5313,34.5937 c 0,0 19.9446,-43.4089 20.5312,-41.0625 0.2898,1.1593 11.3309,10.7485 22.0625,20.0312 -2.6847,-8.7523 -5.1822,-16.8492 -7.5625,-24.5624 -8.1804,-6.116 -19.1875,-13.6563 -19.1875,-13.6563 z"
             transform="matrix(0.26458334,0,0,0.28784735,250.1934,94.367165)"
             id="path22673"
             inkscape:connector-curvature="0" />
        </g>
        <path
           sodipodi:nodetypes="ccssccccccccccsssccs"
           inkscape:connector-curvature="0"
           id="path22675"
           transform="matrix(0.26458334,0,0,0.26458334,-6.3049604e-6,18.562493)"
           d="m -2876.0312,-1531.9866 c -0.4146,0.023 -0.8497,0.085 -1.25,0.2188 -3.3795,1.131 -4.8125,5.9255 -3.2188,10.6875 1.5937,4.762 5.6205,7.6935 9,6.5625 3.3795,-1.131 4.8437,-5.9255 3.25,-10.6875 l -0.25,-0.625 c -1.5266,-3.8679 -4.6296,-6.3183 -7.5312,-6.1563 z m -147.3126,1.0626 c -3.1884,0.049 -6.3341,2.9968 -7.4374,7.25 -1.261,4.8607 0.6436,9.5644 4.25,10.5 3.6063,0.9355 7.5515,-2.2331 8.8124,-7.0938 l 0.1563,-0.6562 c 0.937,-4.6597 -0.9886,-8.9572 -4.4063,-9.8438 -0.4507,-0.1169 -0.9195,-0.1632 -1.375,-0.1562 z m 73,3.9687 c -6.6414,0 -12.0312,5.3898 -12.0312,12.0313 0,6.6414 5.3898,12.0312 12.0312,12.0312 6.6415,0 12.0313,-5.3898 12.0313,-12.0312 l -0.031,-0.9063 c -0.4688,-6.2765 -5.706,-11.125 -12,-11.125 z"
           style="opacity:0.80088495;color:#000000;fill:#d40000;fill-opacity:1;fill-rule:nonzero;stroke:none;stroke-width:12;marker:none;visibility:visible;display:inline;overflow:visible;enable-background:accumulate" />
      </g>
      <g
         id="g26485"
         transform="matrix(0.9789007,0,0,1,817.0736,-3702.0342)">
        <g
           transform="matrix(1.0366626,0,0,1,13.076783,0)"
           id="g26487">
          <path
             style="color:#000000;fill:#ffcc00;fill-opacity:1;fill-rule:nonzero;stroke:#6a5b1d;stroke-width:2.5986259;stroke-linejoin:round;stroke-miterlimit:4;stroke-opacity:1;stroke-dasharray:none;marker:none;visibility:visible;display:inline;overflow:visible;enable-background:accumulate"
             d="m -354.02707,3216.318 c -5.21299,0.1154 -10.54124,0.3196 -15.52093,2.0722 -1.42034,0.5816 -3.40326,1.5169 -3.34676,3.3854 0.0276,2.6752 0.0955,5.4207 0.21258,8.0557 1.1416,-0.3423 2.1537,-1.4994 3.47674,-1.6679 5.57383,-1.556 11.40419,-2.4644 17.14384,-2.4742 5.71651,0.1223 11.51083,1.1579 17.04923,2.7459 1.1523,0.058 2.58241,1.7013 3.44551,1.0875 -0.0208,-2.902 0.0421,-5.8158 -0.0319,-8.7104 -0.57066,-1.4459 -2.26316,-1.8857 -3.55726,-2.3799 -5.5636,-1.6502 -11.40006,-1.9828 -17.15732,-2.1114 -0.57104,-0.01 -1.144,-0.01 -1.71372,0 z"
             id="path26489"
             inkscape:connector-curvature="0"
             sodipodi:nodetypes="ccccccccccccc" />
          <path
             id="path26491"
             transform="matrix(0.25522609,0,0,0.26458334,-12.614316,18.562493)"
             d="m -1337.6875,12090.531 c -38.2312,0.286 -74.3371,6.374 -73.9375,20.25 l 0.75,26.313 1.5625,0 c 14.6404,-13.435 134.6165,-12.638 156.2813,-0.688 1.2044,0.07 2.2351,0.158 3.3437,0.25 l 0,-27.5 c 1.3585,-11.795 -44.6713,-18.949 -88,-18.625 z"
             style="color:#000000;fill:#d97d00;fill-opacity:1;fill-rule:nonzero;stroke:none;stroke-width:12;marker:none;visibility:visible;display:inline;overflow:visible;enable-background:accumulate"
             inkscape:connector-curvature="0" />
          <path
             id="path26493"
             transform="matrix(0.25522609,0,0,0.26458334,-12.614316,18.562493)"
             d="m -1337.6875,12086 c -38.2312,0.286 -74.3371,6.405 -73.9375,20.281 l 0.8438,30.813 c 0.8114,-17.332 154.6702,-15.96 160.9062,-0.438 0.066,0 0.1223,0 0.1875,0 l 0,-32.031 c 1.3585,-11.795 -44.6713,-18.949 -88,-18.625 z"
             style="color:#000000;fill:url(#linearGradient14845);fill-opacity:1;fill-rule:nonzero;stroke:none;stroke-width:12;marker:none;visibility:visible;display:inline;overflow:visible;enable-background:accumulate"
             inkscape:connector-curvature="0" />
          <path
             id="path26495"
             transform="matrix(0.25522609,0,0,0.26458334,-12.614316,18.562493)"
             d="m -1337.6875,12086 c -38.2312,0.286 -74.3371,6.405 -73.9375,20.281 l 0.031,1.594 c 1.4732,-13.108 36.6894,-18.909 73.9063,-19.187 41.9747,-0.314 86.4942,6.388 88,17.531 l 0,-1.594 c 1.3585,-11.795 -44.6713,-18.949 -88,-18.625 z"
             style="color:#000000;fill:#ffff00;fill-opacity:1;fill-rule:nonzero;stroke:none;stroke-width:12;marker:none;visibility:visible;display:inline;overflow:visible;enable-background:accumulate"
             inkscape:connector-curvature="0" />
          <path
             id="path26497"
             transform="matrix(0.25522609,0,0,0.26458334,-12.614316,18.562493)"
             d="m -1294.5312,12088.188 c 0.8425,12.589 0.9787,26.5 0.9062,37.874 23.4613,1.875 41.6887,5.463 43.75,10.594 0.066,0 0.1223,0 0.1875,0 l 0,-32.031 c 0.8962,-7.781 -18.8741,-13.51 -44.8437,-16.437 z"
             style="opacity:0.28318583;color:#000000;fill:#ff6600;fill-opacity:1;fill-rule:nonzero;stroke:none;stroke-width:12;marker:none;visibility:visible;display:inline;overflow:visible;enable-background:accumulate"
             inkscape:connector-curvature="0" />
          <path
             id="path26499"
             transform="matrix(0.25522609,0,0,0.26458334,-12.614316,18.562493)"
             d="m -1370.7812,12087.906 c -1.2406,0.147 -2.4511,0.305 -3.6563,0.469 l 0,37.813 c 1.2625,-0.115 2.5726,-0.21 3.875,-0.313 0.076,-10.1 -0.4935,-36.923 -0.2187,-37.969 z m -16.0313,2.594 c -4.5533,0.993 -8.6455,2.187 -12.125,3.531 -0.2539,8.069 -0.6277,24.233 -0.625,36.063 3.5124,-0.939 7.7368,-1.741 12.5,-2.438 0,-14.48 0.1951,-32.495 0.25,-37.156 z"
             style="color:#000000;fill:#ffff00;fill-opacity:1;fill-rule:nonzero;stroke:none;stroke-width:12;marker:none;visibility:visible;display:inline;overflow:visible;enable-background:accumulate"
             inkscape:connector-curvature="0" />
        </g>
      </g>
      <g
         transform="matrix(0.9789007,0,0,1,817.0736,-3772.9233)"
         id="g26503">
        <g
           id="g26505"
           transform="matrix(1.0366626,0,0,1,13.076783,0)">
          <path
             sodipodi:nodetypes="ccccccccccccc"
             inkscape:connector-curvature="0"
             id="path26507"
             d="m -354.02707,3216.318 c -5.21299,0.1154 -10.54124,0.3196 -15.52093,2.0722 -1.42034,0.5816 -3.40326,1.5169 -3.34676,3.3854 0.0276,2.6752 0.0955,5.4207 0.21258,8.0557 1.1416,-0.3423 2.1537,-1.4994 3.47674,-1.6679 5.57383,-1.556 11.40419,-2.4644 17.14384,-2.4742 5.71651,0.1223 11.51083,1.1579 17.04923,2.7459 1.1523,0.058 2.58241,1.7013 3.44551,1.0875 -0.0208,-2.902 0.0421,-5.8158 -0.0319,-8.7104 -0.57066,-1.4459 -2.26316,-1.8857 -3.55726,-2.3799 -5.5636,-1.6502 -11.40006,-1.9828 -17.15732,-2.1114 -0.57104,-0.01 -1.144,-0.01 -1.71372,0 z"
             style="color:#000000;fill:#ffcc00;fill-opacity:1;fill-rule:nonzero;stroke:#6a5b1d;stroke-width:2.5986259;stroke-linejoin:round;stroke-miterlimit:4;stroke-opacity:1;stroke-dasharray:none;marker:none;visibility:visible;display:inline;overflow:visible;enable-background:accumulate" />
          <path
             inkscape:connector-curvature="0"
             style="color:#000000;fill:#d97d00;fill-opacity:1;fill-rule:nonzero;stroke:none;stroke-width:12;marker:none;visibility:visible;display:inline;overflow:visible;enable-background:accumulate"
             d="m -1337.6875,12090.531 c -38.2312,0.286 -74.3371,6.374 -73.9375,20.25 l 0.75,26.313 1.5625,0 c 14.6404,-13.435 134.6165,-12.638 156.2813,-0.688 1.2044,0.07 2.2351,0.158 3.3437,0.25 l 0,-27.5 c 1.3585,-11.795 -44.6713,-18.949 -88,-18.625 z"
             transform="matrix(0.25522609,0,0,0.26458334,-12.614316,18.562493)"
             id="path26509" />
          <path
             inkscape:connector-curvature="0"
             style="color:#000000;fill:url(#linearGradient14847);fill-opacity:1;fill-rule:nonzero;stroke:none;stroke-width:12;marker:none;visibility:visible;display:inline;overflow:visible;enable-background:accumulate"
             d="m -1337.6875,12086 c -38.2312,0.286 -74.3371,6.405 -73.9375,20.281 l 0.8438,30.813 c 0.8114,-17.332 154.6702,-15.96 160.9062,-0.438 0.066,0 0.1223,0 0.1875,0 l 0,-32.031 c 1.3585,-11.795 -44.6713,-18.949 -88,-18.625 z"
             transform="matrix(0.25522609,0,0,0.26458334,-12.614316,18.562493)"
             id="path26511" />
          <path
             inkscape:connector-curvature="0"
             style="color:#000000;fill:#ffff00;fill-opacity:1;fill-rule:nonzero;stroke:none;stroke-width:12;marker:none;visibility:visible;display:inline;overflow:visible;enable-background:accumulate"
             d="m -1337.6875,12086 c -38.2312,0.286 -74.3371,6.405 -73.9375,20.281 l 0.031,1.594 c 1.4732,-13.108 36.6894,-18.909 73.9063,-19.187 41.9747,-0.314 86.4942,6.388 88,17.531 l 0,-1.594 c 1.3585,-11.795 -44.6713,-18.949 -88,-18.625 z"
             transform="matrix(0.25522609,0,0,0.26458334,-12.614316,18.562493)"
             id="path26513" />
          <path
             inkscape:connector-curvature="0"
             style="opacity:0.28318583;color:#000000;fill:#ff6600;fill-opacity:1;fill-rule:nonzero;stroke:none;stroke-width:12;marker:none;visibility:visible;display:inline;overflow:visible;enable-background:accumulate"
             d="m -1294.5312,12088.188 c 0.8425,12.589 0.9787,26.5 0.9062,37.874 23.4613,1.875 41.6887,5.463 43.75,10.594 0.066,0 0.1223,0 0.1875,0 l 0,-32.031 c 0.8962,-7.781 -18.8741,-13.51 -44.8437,-16.437 z"
             transform="matrix(0.25522609,0,0,0.26458334,-12.614316,18.562493)"
             id="path26515" />
          <path
             inkscape:connector-curvature="0"
             style="color:#000000;fill:#ffff00;fill-opacity:1;fill-rule:nonzero;stroke:none;stroke-width:12;marker:none;visibility:visible;display:inline;overflow:visible;enable-background:accumulate"
             d="m -1370.7812,12087.906 c -1.2406,0.147 -2.4511,0.305 -3.6563,0.469 l 0,37.813 c 1.2625,-0.115 2.5726,-0.21 3.875,-0.313 0.076,-10.1 -0.4935,-36.923 -0.2187,-37.969 z m -16.0313,2.594 c -4.5533,0.993 -8.6455,2.187 -12.125,3.531 -0.2539,8.069 -0.6277,24.233 -0.625,36.063 3.5124,-0.939 7.7368,-1.741 12.5,-2.438 0,-14.48 0.1951,-32.495 0.25,-37.156 z"
             transform="matrix(0.25522609,0,0,0.26458334,-12.614316,18.562493)"
             id="path26517" />
        </g>
      </g>
    </g>
  </g>
</svg>
