<?xml version="1.0" encoding="UTF-8" standalone="no"?>
<!-- Created with Inkscape (http://www.inkscape.org/) -->

<svg
   xmlns:dc="http://purl.org/dc/elements/1.1/"
   xmlns:cc="http://creativecommons.org/ns#"
   xmlns:rdf="http://www.w3.org/1999/02/22-rdf-syntax-ns#"
   xmlns:svg="http://www.w3.org/2000/svg"
   xmlns="http://www.w3.org/2000/svg"
   xmlns:xlink="http://www.w3.org/1999/xlink"
   xmlns:sodipodi="http://sodipodi.sourceforge.net/DTD/sodipodi-0.dtd"
   xmlns:inkscape="http://www.inkscape.org/namespaces/inkscape"
   width="371.66547"
   height="1161.0396"
   viewBox="0 0 98.336484 307.19172"
   version="1.1"
   id="svg23489"
   inkscape:version="0.48.5 r10040"
   sodipodi:docname="pillar_04_side_scroller_base.svg">
  <defs
     id="defs23483">
    <linearGradient
       inkscape:collect="always"
       xlink:href="#linearGradient31565"
       id="linearGradient26501"
       gradientUnits="userSpaceOnUse"
       x1="-1431.589"
       y1="12111.613"
       x2="-1252.7432"
       y2="12115.519" />
    <linearGradient
       id="linearGradient31565">
      <stop
         style="stop-color:#ffcc00;stop-opacity:1;"
         offset="0"
         id="stop31567" />
      <stop
         id="stop31575"
         offset="0.5"
         style="stop-color:#ffff00;stop-opacity:1" />
      <stop
         style="stop-color:#ffcc00;stop-opacity:1"
         offset="1"
         id="stop31569" />
    </linearGradient>
    <linearGradient
       inkscape:collect="always"
       xlink:href="#linearGradient31565"
       id="linearGradient26519"
       gradientUnits="userSpaceOnUse"
       x1="-1431.589"
       y1="12111.613"
       x2="-1252.7432"
       y2="12115.519" />
    <linearGradient
       id="linearGradient10809">
      <stop
         style="stop-color:#ffcc00;stop-opacity:1;"
         offset="0"
         id="stop10811" />
      <stop
         id="stop10813"
         offset="0.5"
         style="stop-color:#ffff00;stop-opacity:1" />
      <stop
         style="stop-color:#ffcc00;stop-opacity:1"
         offset="1"
         id="stop10815" />
    </linearGradient>
  </defs>
  <sodipodi:namedview
     id="base"
     pagecolor="#7d848b"
     bordercolor="#666666"
     borderopacity="1.0"
     inkscape:pageopacity="1"
     inkscape:pageshadow="2"
     inkscape:zoom="0.21308932"
     inkscape:cx="1079.7021"
     inkscape:cy="1001.3462"
     inkscape:document-units="px"
     inkscape:current-layer="layer1"
     showgrid="false"
     inkscape:pagecheckerboard="false"
     showborder="true"
     units="px"
     inkscape:window-width="1920"
     inkscape:window-height="1017"
     inkscape:window-x="-8"
     inkscape:window-y="-8"
     inkscape:window-maximized="1"
     inkscape:showpageshadow="false"
     guidetolerance="28"
     fit-margin-top="25"
     fit-margin-left="25"
     fit-margin-right="25"
     fit-margin-bottom="25">
    <inkscape:grid
       type="xygrid"
       id="grid24034"
       spacingx="1px"
       spacingy="1px"
       empspacing="8"
       visible="true"
       enabled="true"
       snapvisiblegridlinesonly="true"
       originx="-72.316534px"
       originy="256.13613px" />
  </sodipodi:namedview>
  <metadata
     id="metadata23486">
    <rdf:RDF>
      <cc:Work
         rdf:about="">
        <dc:format>image/svg+xml</dc:format>
        <dc:type
           rdf:resource="http://purl.org/dc/dcmitype/StillImage" />
        <dc:title></dc:title>
        <cc:license
           rdf:resource="" />
        <dc:creator>
          <cc:Agent>
            <dc:title>Robert Brooks</dc:title>
          </cc:Agent>
        </dc:creator>
      </cc:Work>
    </rdf:RDF>
  </metadata>
  <g
     inkscape:label="Layer 1"
     inkscape:groupmode="layer"
     id="layer1"
     transform="translate(-19.133747,-57.577618)">
    <g
       id="g18468"
       transform="translate(-371.69015,-53.59018)">
      <g
         transform="matrix(0.91504068,0,0,0.91504068,367.47546,136.53915)"
         id="g17689">
        <g
           id="g17691"
           transform="matrix(2.3061253,0,0,3.1950301,-237.18142,-460.30949)">
          <g
             transform="translate(116.24253,40.16349)"
             id="g17693">
            <g
               transform="matrix(0.90934944,0,0,0.90934944,341.12312,-2833.2001)"
               id="g17695">
              <g
                 id="g17697"
                 transform="matrix(1.0366626,0,0,1,13.076783,0)">
                <path
                   inkscape:connector-curvature="0"
                   style="color:#000000;fill:#6a5b1d;fill-opacity:1;fill-rule:nonzero;stroke:#6a5b1d;stroke-width:11.92249966;stroke-linejoin:round;stroke-miterlimit:4;stroke-opacity:1;stroke-dasharray:none;marker:none;visibility:visible;display:inline;overflow:visible;enable-background:accumulate"
                   d="m 772.15625,-770.53125 c -40.33403,0.22851 -80.21557,3.96699 -110.59375,11.59375 -32.11623,6.41148 -53.59375,22.46848 -53.59375,39.07502 0.009,1.14395 0.41255,7.55505 0.71865,6.67498 l 1.03125,12.40625 0,0.0625 c 3.44697,0.3843 325.86251,1.82446 337.4375,-1.25 l 0.375,0 0,-2.125 c 0.009,-0.008 0.0232,-0.0237 0.0312,-0.0312 -0.0427,-7.86417 -0.004,-24.58383 -0.1562,-25.53125 -0.0467,-2.29596 0.12222,13.28963 -0.125,0.55127 0,-8.88021 -16.31105,-22.27134 -41.75,-27.27002 -33.91783,-9.45928 -83.95297,-14.43625 -133.375,-14.15625 z"
                   transform="matrix(0.12170582,0,0,0.09225387,-446.88914,3294.4802)"
                   id="path17699"
                   sodipodi:nodetypes="ccccccccccccccc" />
                <path
                   inkscape:connector-curvature="0"
                   style="color:#000000;fill:#eec85d;fill-opacity:1;fill-rule:nonzero;stroke:none;stroke-width:12;marker:none;visibility:visible;display:inline;overflow:visible;enable-background:accumulate"
                   d="m -1411.625,12129.672 0.8438,7.422 c 1.6437,0.134 155.3866,0.634 160.9062,-0.438 0.066,0 0.1223,0 0.1875,0 l 0,-8.64 c 1.6598,-19.117 -160.5677,-22.122 -161.9375,1.656 z"
                   transform="matrix(0.25522609,0,0,0.26458334,-12.614316,18.562493)"
                   id="path17701"
                   sodipodi:nodetypes="cccccc" />
                <path
                   sodipodi:nodetypes="ccccccsccccscccccc"
                   inkscape:connector-curvature="0"
                   id="path17703"
                   transform="matrix(0.28066888,0,0,0.29095893,-519.90565,3091.8797)"
                   d="m 630.09375,453.40778 0,20.90472 c 3.65064,-0.012 7.2038,-0.0448 10.53125,-0.0625 0.18393,-9.8e-4 0.34812,10e-4 0.53125,0 2.1977,-0.0146 4.35461,-0.0479 6.375,-0.0625 1.47073,-0.0107 2.73915,-0.0208 4.125,-0.0312 4.17242,-0.0383 8.62641,-0.0706 11.53125,-0.125 1.95977,-0.0367 3.492,-0.0802 4.75,-0.125 0.16411,-0.006 0.31776,0.006 0.46875,0 1.21076,-0.0477 2.14015,-0.0986 2.4375,-0.15625 l 0.1875,0 0,-7.87347 c 0,-1.01597 -0.43013,-1.99579 -1.25,-2.90625 -0.0434,-0.0482 -0.0794,-0.10835 -0.125,-0.15625 -0.12434,-0.12082 -0.26621,-0.25603 -0.40625,-0.375 -0.13184,-0.12054 -0.29192,-0.22516 -0.4375,-0.34375 -5.46941,-4.11705 -20.42365,-7.08043 -38.71875,-8.6875 z"
                   style="color:#000000;fill:#ddb850;fill-opacity:1;fill-rule:nonzero;stroke:none;stroke-width:12;marker:none;visibility:visible;display:inline;overflow:visible;enable-background:accumulate" />
                <path
                   inkscape:connector-curvature="0"
                   style="opacity:0.70796461;color:#000000;fill:#f8d67a;fill-opacity:1;fill-rule:nonzero;stroke:none;stroke-width:12;marker:none;visibility:visible;display:inline;overflow:visible;enable-background:accumulate"
                   d="m 293.90625,-141.59375 c -35.30995,0.20365 -70.26414,3.14735 -98.8125,9.0625 -0.0101,0.002 -0.0212,-0.002 -0.0312,0 -2.19353,0.45473 -4.35406,0.91606 -6.46875,1.40625 -0.54892,0.12707 -1.08161,0.27679 -1.625,0.40625 -1.5958,0.38071 -3.17244,0.75477 -4.71875,1.15625 -0.48899,0.12677 -0.98486,0.24615 -1.46875,0.375 -1.96184,0.52325 -3.87541,1.09859 -5.75,1.65625 -1.03167,0.30691 -2.05847,0.62012 -3.0625,0.9375 -1.00875,0.31834 -1.98872,0.63981 -2.96875,0.96875 -1.9583,0.65843 -3.88061,1.3302 -5.71875,2.03125 -0.92137,0.3514 -1.82889,0.70033 -2.71875,1.0625 -0.88266,0.35924 -1.74295,0.72388 -2.59375,1.09375 -0.85563,0.37197 -1.70872,0.74223 -2.53125,1.125 -0.0292,0.0136 -0.0645,0.0176 -0.0937,0.0312 -1.62689,0.75894 -3.16446,1.54223 -4.65625,2.34375 -0.55463,0.298 -1.12093,0.60234 -1.65625,0.90625 -0.179,0.10151 -0.35444,0.21033 -0.53125,0.3125 -1.43878,0.83251 -2.80372,1.68593 -4.09375,2.5625 -0.65024,0.44184 -1.2639,0.89066 -1.875,1.34375 -0.60103,0.44562 -1.18769,0.8872 -1.75,1.34375 -0.50327,0.40861 -0.99715,0.83261 -1.46875,1.25 -0.0935,0.0826 -0.18902,0.16705 -0.28125,0.25 -0.0593,0.0534 -0.12869,0.10266 -0.1875,0.15625 -0.0829,0.0755 -0.16811,0.14299 -0.25,0.21875 -0.37755,0.34931 -0.73857,0.70712 -1.09375,1.0625 -0.44503,0.44528 -0.87195,0.88891 -1.28125,1.34375 -0.42801,0.47559 -0.8305,0.95146 -1.21875,1.4375 -0.018,0.0225 -0.0446,0.04 -0.0625,0.0625 -0.35945,0.45269 -0.67566,0.91323 -1,1.375 -0.13104,0.18633 -0.24976,0.37469 -0.375,0.5625 -0.23034,0.34584 -0.47699,0.68038 -0.6875,1.03125 -0.0553,0.0921 -0.10234,0.18883 -0.15625,0.28125 -0.25209,0.43252 -0.49711,0.87237 -0.71875,1.3125 -0.0464,0.0921 -0.08,0.18879 -0.125,0.28125 -0.22569,0.46314 -0.43343,0.934709 -0.625,1.40625 -0.0174,0.04286 -0.0454,0.08207 -0.0625,0.125 -0.21437,0.537313 -0.39312,1.076781 -0.5625,1.625 -0.1251,0.404892 -0.24358,0.807892 -0.34375,1.21875 -0.0706,0.289762 -0.12943,0.582251 -0.1875,0.875 -0.0917,0.462265 -0.15876,0.936521 -0.21875,1.40625 -0.0456,0.358391 -0.0668,0.731023 -0.0937,1.09375 -0.0148,0.20108 -0.0535,0.39133 -0.0625,0.59375 l 0,0.03125 c -4.5e-4,0.0105 4.4e-4,0.02075 0,0.03125 -4.4e-4,0.01032 4.3e-4,0.02093 0,0.03125 l 0.4375,5.84375 c 0.009,-0.04193 0.022,-0.08313 0.0312,-0.125 L 131.5,-70.875 c 0.86174,0.0973 21.63971,0.26398 52.53125,0.40625 3.24305,0.0149 7.60832,0.01695 11.0625,0.03125 l 0,-52.71875 c 98.2951,-20.33328 272.89629,-5.19459 274.21875,34.03125 l 0,-8.125 c 1.74028,-27.77125 -82.46278,-43.85382 -167.4375,-44.34375 -2.65546,-0.0153 -5.31435,-0.0153 -7.96875,0 z"
                   transform="matrix(0.12170582,0,0,0.0910661,-388.68464,3236.2882)"
                   id="path17705" />
              </g>
            </g>
            <g
               id="g17707"
               transform="translate(0,0.27161195)">
              <path
                 transform="matrix(0.26458334,0,0,0.26458334,-6.3049604e-6,16.916276)"
                 style="color:#000000;fill:#ffbb00;fill-opacity:1;fill-rule:nonzero;stroke:#6a5b1d;stroke-width:4.2650547;stroke-linecap:round;stroke-linejoin:round;stroke-miterlimit:4;stroke-opacity:1;stroke-dasharray:none;stroke-dashoffset:0;marker:none;visibility:visible;display:inline;overflow:visible;enable-background:accumulate"
                 d="m 152.54817,326.88605 c 0,3.89444 -32.95394,7.05151 -72.700163,7.05151 -39.746223,0 -73.2867725,-3.15707 -73.2867725,-7.05151 3.8129555,-0.0815 33.5405495,-1.24438 73.2867725,-1.24438 39.746223,0 44.836263,-1.18355 72.700163,1.24438 z"
                 id="path17709"
                 inkscape:connector-curvature="0"
                 sodipodi:nodetypes="ccccc" />
              <path
                 transform="matrix(0.26458334,0,0,0.26458334,-6.3049604e-6,16.916276)"
                 style="color:#000000;fill:#9c8135;fill-opacity:1;fill-rule:nonzero;stroke:none;stroke-width:10;marker:none;visibility:visible;display:inline;overflow:visible;enable-background:accumulate"
                 d="m 152.54817,326.88605 c -0.48157,3.8789 -32.95394,7.05151 -72.700163,7.05151 -39.746223,0 -73.3999501,-3.15793 -73.2867725,-7.05151 0.4664614,-16.04741 147.7537155,-14.23073 145.9869355,0 z"
                 id="path17711"
                 inkscape:connector-curvature="0"
                 sodipodi:nodetypes="ssss" />
            </g>
          </g>
        </g>
        <path
           sodipodi:nodetypes="ccccc"
           inkscape:connector-curvature="0"
           id="path17713"
           d="m 36.795368,1.014245 c 27.02378,7.240999 21.7293,27.087344 21.7293,32.592268 0,-3.815107 39.65226,-3.140589 40.18088,0 0,-5.053171 -5.77267,-24.929071 22.826772,-32.592268 0,-9.117936 -84.736952,-8.753724 -84.736952,0 z"
           style="color:#000000;fill:#d5b352;fill-opacity:1;fill-rule:nonzero;stroke:#6a5b1d;stroke-width:3.17499995;stroke-linejoin:round;stroke-miterlimit:4;stroke-opacity:1;stroke-dasharray:none;marker:none;visibility:visible;display:inline;overflow:visible;enable-background:accumulate" />
        <path
           style="color:#000000;fill:#b69842;fill-opacity:1;fill-rule:nonzero;stroke:none;stroke-width:12;marker:none;visibility:visible;display:inline;overflow:visible;enable-background:accumulate"
           d="m 36.795368,1.014245 c 27.02378,7.240999 21.7293,27.087344 21.7293,32.592268 0,-3.815107 39.65226,-3.140589 40.18088,0 0,-5.053171 -5.77267,-24.929071 22.826772,-32.592268 0.31108,-12.064307 -84.463202,-11.363661 -84.736952,0 z"
           id="path17715"
           inkscape:connector-curvature="0"
           sodipodi:nodetypes="ccccc" />
        <path
           style="color:#000000;fill:#947c35;fill-opacity:1;fill-rule:nonzero;stroke:none;stroke-width:12;marker:none;visibility:visible;display:inline;overflow:visible;enable-background:accumulate"
           d="m 79.380239,-7.7693871 c -21.188903,0.08758 -42.444507,3.0990303 -42.581382,8.7808596 8.14109,2.1813971 13.340618,5.5112181 16.643946,9.2438805 7.635912,-14.9300939 51.296317,-8.0601902 52.800917,-1.9182292 3.46403,-2.901503 8.36743,-5.471303 15.28795,-7.3256513 0.15554,-6.0321535 -20.96253,-8.8684393 -42.151431,-8.7808596 z"
           id="path17717"
           inkscape:connector-curvature="0"
           sodipodi:nodetypes="sccccs" />
        <path
           inkscape:connector-curvature="0"
           style="opacity:0.65486725;color:#000000;fill:#947c35;fill-opacity:1;fill-rule:nonzero;stroke:none;stroke-width:12;marker:none;visibility:visible;display:inline;overflow:visible;enable-background:accumulate"
           d="M 37.733167,1.2760559 C 63.544278,8.6793941 58.58483,27.93946 58.527764,33.505614 c 0.664956,-3.706781 39.651216,-3.014583 40.175327,0.09922 0,-1.491652 -0.497872,-4.276897 -0.471289,-7.656381 -2.651551,1.038334 -6.307437,2.039456 -10.955404,1.736329 C 77.179601,27.026293 62.038788,25.708155 61.380303,21.318244 60.778794,17.308187 54.677677,1.7618865 37.733167,1.2760559 z"
           id="path17719" />
        <path
           inkscape:connector-curvature="0"
           id="path17721"
           d="m 78.680465,-7.7635493 c -0.457954,0.00329 -0.914937,0.00225 -1.372526,0.00827 0.01246,0.5564066 0.02035,1.1117916 0.03307,1.6701823 l -9.582878,-1.3394531 c -1.728859,0.097964 -3.423568,0.2167281 -5.084961,0.3555338 l 14.576888,2.0339845 a 0.5292196,0.5292196 0 0 0 0.124023,0.2315104 c 0.02585,1.0871142 0.04623,2.1687282 0.07442,3.2494141 -0.756688,-0.2970874 -1.729775,-0.5758698 -2.860808,-0.8598958 -1.63894,-0.4115724 -3.559791,-0.8071972 -5.399154,-1.1575521 -3.236544,-0.6164848 -5.845371,-1.0213317 -6.515364,-1.1244792 -0.597702,-0.7639066 -1.237361,-1.5000103 -1.91823,-2.199349 -0.463589,0.044014 -0.924803,0.084993 -1.380794,0.1322916 0.761307,0.7281344 1.471446,1.5050456 2.133203,2.3151042 L 54.380139,2.1004483 C 54.163363,1.9921451 53.807112,1.8303389 53.297001,1.6539639 52.90579,1.3324735 52.494427,1.0287852 52.073303,0.72792224 l 6.184635,-7.36699234 c -0.517713,0.057591 -1.03174,0.1199684 -1.53789,0.181901 L 51.38704,-0.10716893 49.278641,-1.1572341 a 0.5292196,0.5292196 0 0 0 -0.04961,-0.024805 c 0,0 -0.357569,-0.1326801 -0.967383,-0.3059245 -0.0034,-0.00156 -0.0049,-0.00672 -0.0083,-0.00827 a 0.5292196,0.5292196 0 0 0 0.0083,-0.00827 l 2.406055,-4.0514324 c -0.47298,0.084747 -0.934289,0.1667804 -1.389063,0.2563151 l -1.703255,2.8773438 c -0.256966,-0.1023866 -1.766271,-0.7053789 -3.902604,-1.4965495 -1.258835,0.3912474 -2.371564,0.8074346 -3.31556,1.2567709 0.847225,0.1212236 1.664425,0.2680301 2.447395,0.4464844 -1.767533,0.054713 -3.664947,0.4502039 -5.283398,1.52135419 -0.460211,0.54000507 -0.713158,1.11181359 -0.727604,1.71152351 0.07513,0.020132 0.148608,0.037552 0.223242,0.057878 1.796783,-1.85549786 4.287367,-2.3010623 6.58151,-2.2406902 1.746735,0.045967 3.328517,0.40073476 4.291212,0.66972659 0.971026,0.45112703 1.874453,0.95878494 2.720247,1.50481771 C 49.012354,0.76429636 46.963722,0.66411691 44.483068,0.95943266 42.522352,1.192851 41.091369,1.5632685 40.026492,1.9846931 c 0.55168,0.1867183 1.083406,0.3888857 1.604037,0.5870443 0.802505,-0.2200534 1.780506,-0.419852 2.976562,-0.5622396 3.195117,-0.3803711 5.615332,-0.070947 7.226433,0.3224609 0.355245,0.086746 0.660704,0.177142 0.93431,0.2645834 0.862168,0.7218246 1.655418,1.4943635 2.372982,2.306836 -0.78712,-0.2263992 -1.895491,-0.5025015 -3.265951,-0.7027995 -1.903457,-0.2781978 -4.114456,-0.3719833 -6.035807,0.2480469 0.477837,0.2509472 0.93631,0.5071716 1.380794,0.7689453 1.446406,-0.2501673 3.051307,-0.1795632 4.506185,0.033073 2.46217,0.3598556 4.431771,1.0748698 4.431771,1.0748698 a 0.5292196,0.5292196 0 0 0 0.157096,0.033073 c 0.76613,1.0237764 1.452145,2.0923452 2.042253,3.1915366 -1.339408,-0.3383227 -4.545074,-1.1344506 -7.474479,-1.7694011 0.570007,0.4735367 1.101135,0.9542717 1.595768,1.4469401 3.111066,0.7148727 6.148387,1.4897728 6.498828,1.5792318 0.33967,0.71676 0.656,1.437694 0.93431,2.166276 0.113173,0.29627 0.218858,0.59613 0.322461,0.892969 l -5.564518,-2.100131 c 0.367175,0.49948 0.699452,1.004719 1.008724,1.513086 l 4.977474,1.876888 c 0.373745,1.2253 0.680101,2.444437 0.917773,3.629753 -0.290753,-0.160084 -0.882848,-0.486278 -1.876888,-0.975651 -0.757058,-0.372705 -1.572839,-0.75845 -2.323372,-1.050065 0.171934,0.454822 0.332927,0.910668 0.471289,1.364258 0.465468,0.203402 0.941406,0.416269 1.389062,0.636654 1.247669,0.614237 2.282032,1.190625 2.282032,1.190625 a 0.5292196,0.5292196 0 0 0 0.281119,0.06614 c 0.149818,0.882937 0.264462,1.739909 0.355534,2.563151 -0.587216,-0.232372 -2.133147,-0.853054 -3.604948,-1.471744 0.06889,0.406426 0.124667,0.816021 0.173633,1.215429 1.658387,0.687256 3.296007,1.339717 3.54707,1.438672 0.09455,1.111915 0.1377,2.135437 0.157097,3.050977 -0.650076,-0.263177 -2.131002,-0.875741 -3.497461,-1.570964 0.01027,0.402259 0.01114,0.795299 0.0083,1.182357 1.550217,0.757504 3.108227,1.380974 3.505729,1.537891 -0.0064,1.952236 -0.132278,3.166732 -0.132278,3.166732 l 1.050065,0.115755 c 0,0 0.148971,-1.331661 0.148828,-3.472656 l 6.746875,-4.464844 c 0.188722,3.41158 0.146831,6.203584 0.115755,7.830013 0.352534,-0.01595 0.706419,-0.02814 1.066602,-0.04134 0.03094,-1.630396 0.07119,-4.409181 -0.115755,-7.821745 0.175913,0.081 0.371414,0.16903 0.587044,0.272851 0.776531,0.373886 1.769303,0.877705 2.736784,1.380795 1.913403,0.994969 3.729545,1.970666 3.770312,1.992643 0.0833,2.014328 0.164632,3.867843 0.173633,4.076237 0.353272,0.0033 0.705477,0.01103 1.058334,0.01654 -0.0049,-0.116425 -0.08904,-2.18236 -0.206706,-5.084961 0.553299,-0.289366 1.207894,-0.62365 1.943034,-1.000455 0.981509,-0.50309 1.982068,-1.006909 2.769857,-1.380795 0.21876,-0.103821 0.416843,-0.191851 0.595312,-0.272851 -0.192185,3.457649 -0.147243,6.275408 -0.115755,7.896159 0.138414,0.0064 0.275865,0.0098 0.413411,0.01654 l 0.669727,0 c -0.0316,-1.619918 -0.07738,-4.438212 0.115755,-7.879622 l 6.846094,4.464844 c -1.4e-4,2.140994 0.148828,3.472656 0.148828,3.472656 l 1.066602,-0.115755 c 0,0 -0.126291,-1.214496 -0.132292,-3.166732 0.482915,-0.187912 2.645675,-1.044836 4.473112,-2.000912 0.003,-0.400948 0.01352,-0.807078 0.03307,-1.223698 -1.579409,0.884757 -3.675385,1.750392 -4.489648,2.075326 0.01969,-0.91554 0.0612,-1.939062 0.157096,-3.050977 0.30612,-0.11893 2.638324,-1.02108 4.605404,-1.843815 0.06381,-0.41661 0.143351,-0.832781 0.23151,-1.256771 -1.735212,0.746016 -3.967062,1.627314 -4.712891,1.918229 0.09241,-0.823242 0.203544,-1.680214 0.355534,-2.563151 a 0.5368973,0.5292196 0 0 0 0.289388,-0.06614 c 0,0 1.049335,-0.576388 2.315104,-1.190625 0.859587,-0.417131 1.832507,-0.850002 2.596225,-1.12448 0.151315,-0.419483 0.321312,-0.836413 0.504356,-1.256771 -1.007414,0.227711 -2.361671,0.843134 -3.57187,1.430404 -1.008459,0.489373 -1.606722,0.815567 -1.901692,0.975651 0.24112,-1.185316 0.546872,-2.404453 0.926041,-3.629753 l 6.622851,-2.455664 c 0.35298,-0.500214 0.73424,-0.997196 1.14928,-1.488281 a 0.53802051,0.53032677 0 0 0 -0.27285,0.0248 l -7.069333,2.629297 c 0.105119,-0.296839 0.207651,-0.596699 0.322461,-0.892969 0.28235,-0.728582 0.606256,-1.449516 0.950847,-2.166276 0.42392,-0.106672 4.719555,-1.1846742 8.400515,-1.9761068 0.55606,-0.494202 1.15549,-0.9804217 1.79421,-1.4552083 -3.35166,0.6470999 -7.893782,1.7581118 -9.56634,2.1745443 0.59867,-1.0991914 1.298086,-2.1677602 2.075326,-3.1915366 a 0.5368973,0.5292196 0 0 0 0.157094,-0.033073 c 0,0 2.00004,-0.7150142 4.49792,-1.0748698 1.87069,-0.2694988 3.98665,-0.3121528 5.70508,0.2397787 0.38859,-0.2259111 0.79399,-0.4509048 1.20716,-0.6697266 -2.138,-1.0135635 -4.81147,-0.9442032 -7.06107,-0.6201172 -1.39034,0.200298 -2.51702,0.4764003 -3.31556,0.7027995 0.72797,-0.8124725 1.53137,-1.5850114 2.40605,-2.306836 0.27757,-0.087441 0.59045,-0.1778373 0.95085,-0.2645834 1.63448,-0.3934079 4.08418,-0.702832 7.32565,-0.3224609 1.74773,0.2050881 3.03114,0.518836 3.98529,0.8598958 0.46804,-0.1826381 0.94603,-0.362917 1.43867,-0.5374349 -1.12029,-0.5554025 -2.7823,-1.0780644 -5.29167,-1.37252604 -2.51664,-0.29531575 -4.59706,-0.1951363 -6.21771,0.0496093 0.85807,-0.54603469 1.77647,-1.0536926 2.76159,-1.50481963 0.97667,-0.26899183 2.57702,-0.62375757 4.34909,-0.66972467 2.48424,-0.064439 5.20437,0.45013479 7.04453,2.6375652 0.35743,-0.1064075 0.72236,-0.2118575 1.09141,-0.3141927 -1.88839,-2.4998186 -4.74716,-3.2945114 -7.33392,-3.3734376 1.3647,-0.3065944 2.82905,-0.5285029 4.39043,-0.6614584 -0.59689,-0.2944175 -1.26275,-0.5759826 -1.99264,-0.8433594 -0.43534,0.06111 -0.86169,0.1312688 -1.28158,0.2067058 0.31266,-0.1111467 0.61402,-0.2209533 0.92604,-0.3307292 -0.52267,-0.1835153 -1.07221,-0.3587266 -1.65364,-0.5291667 -2.82641,1.0098337 -4.91735,1.8302677 -5.22552,1.9513021 l -2.14148,-3.5553386 c -0.45153,-0.073218 -0.9067,-0.1462852 -1.37252,-0.2149739 l 2.81946,4.688086 a 0.5368973,0.5292196 0 0 0 0.008,0.00827 c -0.003,0.00156 -0.005,0.00672 -0.008,0.00827 -0.61864,0.1732444 -0.98392,0.3059245 -0.98392,0.3059245 a 0.5368973,0.5292196 0 0 0 -0.0496,0.024805 l -2.14148,1.05006325 -5.804291,-6.82128735 c -0.505182,-0.048864 -1.014989,-0.095982 -1.529622,-0.1405599 L 104.27894,0.72793 c -0.42723,0.3008632 -0.84334,0.6045515 -1.24023,0.9260419 -0.51751,0.176375 -0.87976,0.3381812 -1.09968,0.4464844 l -7.226427,-6.5484377 c 0.777595,-0.9382461 1.615787,-1.8286778 2.530079,-2.6541016 -0.475197,-0.039969 -0.956318,-0.079398 -1.438672,-0.1157552 -0.814586,0.795681 -1.57244,1.6382834 -2.273763,2.52181 -0.67971,0.1031475 -3.331094,0.5079944 -6.614584,1.1244792 -1.866061,0.3503549 -3.810857,0.7459797 -5.473568,1.1575521 -1.147439,0.284026 -2.134478,0.5628084 -2.902148,0.8598958 0.0286,-1.0806859 0.04811,-2.1622999 0.07441,-3.2494141 a 0.5368973,0.5292196 0 0 0 0.124023,-0.2315104 l 16.29668,-2.2406902 c -1.800045,-0.127589 -3.641397,-0.2276001 -5.514909,-0.3059245 L 78.64743,-6.0850908 c 0.01299,-0.561154 0.02064,-1.119296 0.03307,-1.6784505 z m -16.519923,4.1506511 c 0.754507,1.0013149 1.442765,2.050396 2.067058,3.14192718 L 56.604292,4.9943286 C 56.068442,4.3324707 55.488155,3.698827 54.867964,3.0843676 l 7.292578,-6.6972658 z m 31.890561,0 7.391797,6.6972658 c -0.62919,0.6144594 -1.21751,1.2481031 -1.761133,1.909961 l -7.730794,-5.46529962 c 0.633341,-1.09153118 1.33468,-2.14061228 2.10013,-3.14192718 z M 63.57441,-3.4806065 c 1.189839,0.1915985 2.983542,0.4875803 5.41569,0.9508464 1.827398,0.3480758 3.735422,0.737752 5.341276,1.1410156 1.35151,0.339393 2.498633,0.70575888 3.150195,1.00045577 0.02553,0.9512422 0.04756,1.90561363 0.07442,2.84427093 L 65.492639,-0.38828873 C 64.912257,-1.4537047 64.27206,-2.486546 63.57441,-3.4806065 z m 29.038021,0 c -0.707771,0.9940605 -1.354233,2.0269018 -1.943034,3.09231777 L 78.622587,2.414641 c -0.02577,-0.9154813 -0.04942,-1.83334556 -0.07441,-2.76158858 a 0.5292196,0.5292196 0 0 0 0.04134,-0.0744141 c 0.67128,-0.2890602 1.786115,-0.63996332 3.108854,-0.96738282 1.629159,-0.4032636 3.57005,-0.7929398 5.423959,-1.1410156 2.467441,-0.4632661 4.283004,-0.7592479 5.490104,-0.9508464 z m -27.930079,3.98528654 0.09922,0.0248047 C 65.213814,1.3492338 65.61088,2.1902175 65.980465,3.0430265 a 0.5292196,0.5292196 0 0 0 -0.08268,0.3720703 L 59.481636,9.4178313 C 58.842138,8.1855241 58.101815,6.9802231 57.249214,5.8294198 l 7.433138,-5.32473976 z m 26.8056,0 7.540625,5.32473976 c -0.86497,1.1508033 -1.616715,2.3561043 -2.265495,3.5884115 L 90.255986,3.4150968 a 0.5368973,0.5292196 0 0 0 -0.08268,-0.3720703 c 0.374949,-0.852809 0.776919,-1.6937927 1.215429,-2.51354177 l 0.09922,-0.0248047 z M 66.129293,0.84367745 77.589058,3.5473885 c 0.03259,1.1129536 0.06548,2.1570918 0.09922,3.2411459 l -10.484115,-3.7207032 0,-0.00827 A 0.5292196,0.5292196 0 0 0 67.080139,2.919003 C 66.783319,2.2192954 66.467488,1.5262059 66.129293,0.84367745 z m 23.895182,0 C 89.681366,1.5262059 89.358223,2.2192954 89.057093,2.919003 a 0.5368973,0.5292196 0 0 0 -0.124024,0.1405599 l 0,0.00827 -10.17819,3.5553386 C 78.72442,5.6370158 78.693874,4.6978172 78.663928,3.6796801 A 0.5292196,0.5292196 0 0 0 78.903707,3.4316332 L 90.024475,0.84367745 z M 66.509631,4.2997973 c 0.160401,0.4074152 0.315164,0.8199208 0.463021,1.2319662 0.285988,0.7969801 0.544449,1.599066 0.785482,2.4060548 l -6.35,6.0688807 C 61.25141,13.53509 61.083773,13.06405 60.903772,12.592831 60.624287,11.861175 60.310645,11.133017 59.969462,10.410019 l 6.540169,-6.1102217 z m 23.126238,0 6.63112,6.1102217 c -0.346142,0.722998 -0.659048,1.451156 -0.942579,2.182812 -0.18261,0.471219 -0.353639,0.942259 -0.51263,1.413868 L 88.37083,7.9378183 c 0.24453,-0.8069888 0.50361,-1.6090747 0.79375,-2.4060548 0.15,-0.4120454 0.308559,-0.824551 0.471289,-1.2319662 z m -21.985222,0.041341 10.078971,3.5801433 c 0.02854,0.8996183 0.05385,1.8487896 0.08268,2.7202474 L 68.874345,7.9791594 C 68.601475,7.0440563 68.296844,6.1097146 67.964839,5.1844979 67.863287,4.9014956 67.758184,4.6226755 67.650647,4.3411385 z m 20.82767,0 c -0.109101,0.281537 -0.219441,0.5603571 -0.322461,0.8433594 -0.336831,0.9252167 -0.640943,1.8595584 -0.917774,2.7946615 l -8.367448,2.4556648 c -0.02833,-0.8646844 -0.05457,-1.8092811 -0.08268,-2.7037117 l 9.690365,-3.389974 z M 68.088863,9.0953704 c 0.327795,1.2000956 0.608589,2.3966966 0.851628,3.5884116 a 0.5292196,0.5292196 0 0 0 -0.05788,0.04134 l -6.358268,5.423959 C 62.314777,17.15887 62.057237,16.149323 61.755397,15.131177 l 6.333464,-6.0358076 z m 19.942969,0 6.424414,6.0358076 c -0.30622,1.018146 -0.564613,2.027693 -0.777213,3.017904 l -6.449219,-5.423959 a 0.5368973,0.5292196 0 0 0 -0.05788,-0.04134 c 0.246571,-1.191715 0.527336,-2.388316 0.859896,-3.5884116 z m -18.826758,0.09095 8.648568,2.5714196 c 0.04994,1.484524 0.09157,2.794814 0.14056,4.167187 L 70.06497,12.882219 C 69.823291,11.66112 69.534237,10.422487 69.205074,9.1863209 z m 17.694011,0 C 86.565154,10.422487 86.27611,11.66112 86.030921,12.882219 l -6.986654,2.637566 c -0.0457,-1.288156 -0.08646,-2.61918 -0.132292,-3.993555 l 7.98711,-2.3399091 z M 69.172001,13.866139 c 0.229701,1.248916 0.41669,2.47958 0.570508,3.679362 l -6.54017,4.812109 c -0.108595,-0.962226 -0.257762,-1.970597 -0.446484,-3.009635 l 6.416146,-5.481836 z m 17.760157,0 6.515364,5.481836 c -0.19146,1.039038 -0.344582,2.047409 -0.454752,3.009635 l -6.639388,-4.812109 c 0.156051,-1.199782 0.345736,-2.430447 0.578776,-3.679362 z m -16.643946,0.239778 7.747331,2.968295 c 0.04357,1.203045 0.08303,2.322822 0.124023,3.40651 l -0.09095,0.04134 0,0.07441 -7.267774,-3.175 c -0.139462,-1.085225 -0.311819,-2.186828 -0.51263,-3.31556 z m 15.511198,0 c -0.203721,1.128732 -0.379399,2.230335 -0.520898,3.31556 l -6.068881,2.612761 c -0.03777,-1.047676 -0.07338,-2.084928 -0.115755,-3.257683 a 0.5292196,0.5292196 0 0 0 0,-0.140559 l 6.705534,-2.530079 z m -14.858008,4.53099 7.267774,3.175 c 0.04858,1.263726 0.09769,2.437034 0.14056,3.489193 -0.07195,0.03791 -0.214503,0.113564 -0.28112,0.148828 l 0,0.09095 c -0.64911,-0.349294 -1.637115,-0.879411 -2.935222,-1.554428 -0.972605,-0.505753 -1.96665,-1.014583 -2.761588,-1.39733 -0.397468,-0.191374 -0.747165,-0.346401 -1.025261,-0.463021 -0.0345,-0.01447 -0.05909,-0.0201 -0.09095,-0.03307 -0.07576,-1.103829 -0.179801,-2.257109 -0.314193,-3.45612 z m 14.19655,0 c -0.136329,1.19901 -0.237292,2.352291 -0.314193,3.45612 -0.0322,0.01297 -0.06422,0.0186 -0.09922,0.03307 -0.282141,0.11662 -0.630287,0.271647 -1.033528,0.463021 -0.806471,0.382748 -1.816209,0.891578 -2.80293,1.39733 -0.649893,0.333115 -1.008097,0.523291 -1.49655,0.777214 -0.04096,-1.024123 -0.069,-1.737196 -0.115755,-2.951758 a 0.5293121,0.5293121 0 0 0 -0.02479,-0.636654 0.5293121,0.5293121 0 0 0 0,-0.0083 l 5.886979,-2.530078 z m -15.246615,0.115755 c 0.128929,1.154089 0.21508,2.27312 0.289388,3.340365 l -6.688998,4.423503 c -0.02339,-0.891916 -0.08145,-1.881939 -0.173632,-2.94349 l 6.573242,-4.820378 z m 16.313216,0 6.672462,4.820378 c -0.09345,1.061551 -0.158203,2.051574 -0.181901,2.94349 l -6.788217,-4.423503 c 0.07539,-1.067245 0.166857,-2.186276 0.297656,-3.340365 z"
           style="color:#000000;fill:#dcb954;fill-opacity:1;fill-rule:nonzero;stroke:none;stroke-width:12;marker:none;visibility:visible;display:inline;overflow:visible;enable-background:accumulate" />
        <g
           transform="matrix(1.2343721,0,0,1.5510544,-90.829055,-185.56889)"
           id="g17723">
          <g
             id="g17725"
             transform="translate(116.24253,40.16349)">
            <g
               id="g17727"
               transform="matrix(0.90934944,0,0,0.90934944,341.12312,-2833.2001)">
              <g
                 transform="matrix(1.0366626,0,0,1,13.076783,0)"
                 id="g17729">
                <path
                   style="color:#000000;fill:#ffcc00;fill-opacity:1;fill-rule:nonzero;stroke:#6a5b1d;stroke-width:2.47832155;stroke-linejoin:round;stroke-miterlimit:4;stroke-opacity:1;stroke-dasharray:none;marker:none;visibility:visible;display:inline;overflow:visible;enable-background:accumulate"
                   d="m -372.89476,3227.5762 c 0.0276,2.6752 0.0955,-0.3799 0.21258,2.2551 1.1416,-0.3423 40.25222,0.3051 41.11532,-0.3087 -0.0208,-2.902 0.0421,-0.015 -0.0319,-2.9098 0,-1.7122 -8.65919,-1.5313 -18.04723,-1.7655 -11.11368,-0.2773 -23.24877,-0.574 -23.24877,2.7289 z"
                   id="path17731"
                   inkscape:connector-curvature="0"
                   sodipodi:nodetypes="ccccsc" />
                <path
                   sodipodi:nodetypes="cccccc"
                   id="path17733"
                   transform="matrix(0.25522609,0,0,0.26458334,-12.614316,18.562493)"
                   d="m -1411.625,12129.672 0.8438,7.422 c 1.6437,0.134 155.3866,0.634 160.9062,-0.438 0.066,0 0.1223,0 0.1875,0 l 0,-8.64 c 1.6598,-19.117 -160.5677,-22.122 -161.9375,1.656 z"
                   style="color:#000000;fill:#eec85d;fill-opacity:1;fill-rule:nonzero;stroke:none;stroke-width:12;marker:none;visibility:visible;display:inline;overflow:visible;enable-background:accumulate"
                   inkscape:connector-curvature="0" />
                <path
                   style="color:#000000;fill:#ddb850;fill-opacity:1;fill-rule:nonzero;stroke:none;stroke-width:12;marker:none;visibility:visible;display:inline;overflow:visible;enable-background:accumulate"
                   d="m 630.09375,453.40778 0,20.90472 c 3.65064,-0.012 7.2038,-0.0448 10.53125,-0.0625 0.18393,-9.8e-4 0.34812,10e-4 0.53125,0 2.1977,-0.0146 4.35461,-0.0479 6.375,-0.0625 1.47073,-0.0107 2.73915,-0.0208 4.125,-0.0312 4.17242,-0.0383 8.62641,-0.0706 11.53125,-0.125 1.95977,-0.0367 3.492,-0.0802 4.75,-0.125 0.16411,-0.006 0.31776,0.006 0.46875,0 1.21076,-0.0477 2.14015,-0.0986 2.4375,-0.15625 l 0.1875,0 0,-7.87347 c 0,-1.01597 -0.43013,-1.99579 -1.25,-2.90625 -0.0434,-0.0482 -0.0794,-0.10835 -0.125,-0.15625 -0.12434,-0.12082 -0.26621,-0.25603 -0.40625,-0.375 -0.13184,-0.12054 -0.29192,-0.22516 -0.4375,-0.34375 -5.46941,-4.11705 -20.42365,-7.08043 -38.71875,-8.6875 z"
                   transform="matrix(0.28066888,0,0,0.29095893,-519.90565,3091.8797)"
                   id="path17735"
                   inkscape:connector-curvature="0"
                   sodipodi:nodetypes="ccccccsccccscccccc" />
                <path
                   inkscape:connector-curvature="0"
                   style="color:#000000;fill:#f5d272;fill-opacity:1;fill-rule:nonzero;stroke:none;stroke-width:12;marker:none;visibility:visible;display:inline;overflow:visible;enable-background:accumulate"
                   d="m 298.125,38.375 c -20.33715,-0.106346 -40.75459,1.284945 -57.1875,4.375 l 0,-0.34375 c -20.61232,3.960804 -34.91917,10.53721 -34.96875,19.8125 -5.1e-4,0.01041 4.8e-4,0.02084 0,0.03125 l 0.25,2.8125 c -0.002,0.01 0.002,0.02125 0,0.03125 l 0.6875,7.65625 c 0.50648,0.0439 14.76652,0.123131 34.03125,0.1875 l 0,-25.59375 c 52.61197,-9.872901 146.10461,-2.543352 146.8125,16.5 l 0,-3.9375 C 388.6815,46.42446 343.6084,38.61284 298.125,38.375 z"
                   transform="matrix(0.22737785,0,0,0.18758783,-419.7291,3216.1946)"
                   id="path17737" />
              </g>
            </g>
            <g
               transform="translate(0,0.27161195)"
               id="g17739">
              <path
                 sodipodi:nodetypes="ccccc"
                 inkscape:connector-curvature="0"
                 id="path17741"
                 d="m 152.54817,326.88605 c 0,3.89444 -32.95394,7.05151 -72.700163,7.05151 -39.746223,0 -73.2867725,-3.15707 -73.2867725,-7.05151 3.8129555,-0.0815 33.5405495,-1.24438 73.2867725,-1.24438 39.746223,0 44.836263,-1.18355 72.700163,1.24438 z"
                 style="color:#000000;fill:#ffbb00;fill-opacity:1;fill-rule:nonzero;stroke:#6a5b1d;stroke-width:8.67250729;stroke-linecap:round;stroke-linejoin:round;stroke-miterlimit:4;stroke-opacity:1;stroke-dasharray:none;stroke-dashoffset:0;marker:none;visibility:visible;display:inline;overflow:visible;enable-background:accumulate"
                 transform="matrix(0.26458334,0,0,0.26458334,-6.3049604e-6,16.916276)" />
              <path
                 sodipodi:nodetypes="ssss"
                 inkscape:connector-curvature="0"
                 id="path17743"
                 d="m 152.54817,326.88605 c 0,3.89444 -32.95394,7.05151 -72.700163,7.05151 -39.746223,0 -73.2867725,-3.15707 -73.2867725,-7.05151 0,-15.50871 145.9869355,-12.19035 145.9869355,0 z"
                 style="color:#000000;fill:#9c8135;fill-opacity:1;fill-rule:nonzero;stroke:none;stroke-width:10;marker:none;visibility:visible;display:inline;overflow:visible;enable-background:accumulate"
                 transform="matrix(0.26458334,0,0,0.26458334,-6.3049604e-6,16.916276)" />
            </g>
          </g>
        </g>
      </g>
      <g
         transform="matrix(1.010705,0,0,1.010705,301.30767,102.16391)"
         id="g4592">
        <g
           id="g4594"
           transform="translate(116.24253,40.16349)">
          <g
             id="g4596"
             transform="matrix(0.90934944,0,0,0.90934944,341.12312,-2833.2001)">
            <g
               transform="matrix(1.0366626,0,0,1,13.076783,0)"
               id="g4598">
              <path
                 style="color:#000000;fill:#ffcc00;fill-opacity:1;fill-rule:nonzero;stroke:#6a5b1d;stroke-width:2.85767603;stroke-linejoin:round;stroke-miterlimit:4;stroke-opacity:1;stroke-dasharray:none;marker:none;visibility:visible;display:inline;overflow:visible;enable-background:accumulate"
                 d="m -372.89476,3148.8494 c 0.0276,2.6752 0.0955,78.3469 0.21258,80.9819 1.1416,-0.3423 40.25222,0.3051 41.11532,-0.3087 -0.0208,-2.902 0.0421,-78.742 -0.0319,-81.6366 0,-3.739 -41.296,-5.1295 -41.296,0.9634 z"
                 id="path4600"
                 inkscape:connector-curvature="0"
                 sodipodi:nodetypes="ccccc" />
              <path
                 sodipodi:nodetypes="cccccc"
                 id="path4602"
                 transform="matrix(0.25522609,0,0,0.26458334,-12.614316,18.562493)"
                 d="m -1411.625,11829.286 0.8438,307.808 c 1.6437,0.134 155.3866,0.634 160.9062,-0.438 0.066,0 0.1223,0 0.1875,0 l 0,-309.026 c 0.5983,-24.778 -161.3195,-26.131 -161.9375,1.656 z"
                 style="color:#000000;fill:#eec85d;fill-opacity:1;fill-rule:nonzero;stroke:none;stroke-width:12;marker:none;visibility:visible;display:inline;overflow:visible;enable-background:accumulate"
                 inkscape:connector-curvature="0" />
              <path
                 inkscape:connector-curvature="0"
                 style="color:#000000;fill:#d5b352;fill-opacity:1;fill-rule:nonzero;stroke:none;stroke-width:12;marker:none;visibility:visible;display:inline;overflow:visible;enable-background:accumulate"
                 d="m 551.28125,179.81309 0,294.49941 c 3.65064,-0.012 7.2038,-0.0448 10.53125,-0.0625 2.39125,-0.0128 4.71751,-0.0467 6.90625,-0.0625 6.1726,-0.0448 11.71232,-0.0824 15.65625,-0.15625 1.95977,-0.0367 3.492,-0.0802 4.75,-0.125 0.16411,-0.006 0.31776,0.006 0.46875,0 1.21076,-0.0477 2.14015,-0.0986 2.4375,-0.15625 l 0.1875,0 0,-281.03066 c 0,-6.50219 -17.75372,-10.85554 -40.9375,-12.90625 z"
                 transform="matrix(0.28066888,0,0,0.29095893,-497.78585,3091.8797)"
                 id="path4604"
                 sodipodi:nodetypes="ccccsccccsc" />
              <path
                 inkscape:connector-curvature="0"
                 style="color:#000000;fill:#f8d67a;fill-opacity:1;fill-rule:nonzero;stroke:none;stroke-width:12;marker:none;visibility:visible;display:inline;overflow:visible;enable-background:accumulate"
                 d="m 473.3125,181.43809 c -16.69863,2.55362 -28.30358,6.80126 -28.34375,12.78125 l 0.75,279.93691 c 0.41031,0.0283 11.98684,0.0835 27.59375,0.125 z"
                 transform="matrix(0.28066888,0,0,0.29095893,-497.78585,3091.8797)"
                 id="path4606"
                 sodipodi:nodetypes="ccccc" />
            </g>
          </g>
          <g
             transform="translate(0,0.27161195)"
             id="g4608">
            <path
               sodipodi:nodetypes="ccccc"
               inkscape:connector-curvature="0"
               id="path4610"
               d="m 152.54817,326.88605 c 0,3.89444 -32.95394,7.05151 -72.700163,7.05151 -39.746223,0 -73.2867725,-3.15707 -73.2867725,-7.05151 3.8129555,-0.0815 33.5405495,-1.24438 73.2867725,-1.24438 39.746223,0 44.836263,-1.18355 72.700163,1.24438 z"
               style="color:#000000;fill:#ffbb00;fill-opacity:1;fill-rule:nonzero;stroke:#6a5b1d;stroke-width:10;stroke-linecap:round;stroke-linejoin:round;stroke-miterlimit:4;stroke-opacity:1;stroke-dashoffset:0;marker:none;visibility:visible;display:inline;overflow:visible;enable-background:accumulate"
               transform="matrix(0.26458334,0,0,0.26458334,-6.3049604e-6,16.916276)" />
            <path
               sodipodi:nodetypes="ssss"
               inkscape:connector-curvature="0"
               id="path4612"
               d="m 152.54817,326.88605 c 0,3.89444 -32.95394,7.05151 -72.700163,7.05151 -39.746223,0 -73.2867725,-3.15707 -73.2867725,-7.05151 0,-15.50871 145.9869355,-12.19035 145.9869355,0 z"
               style="color:#000000;fill:#9c8135;fill-opacity:1;fill-rule:nonzero;stroke:none;stroke-width:10;marker:none;visibility:visible;display:inline;overflow:visible;enable-background:accumulate"
               transform="matrix(0.26458334,0,0,0.26458334,-6.3049604e-6,16.916276)" />
          </g>
        </g>
      </g>
      <g
         id="g18336"
         transform="translate(302.7756,141.12919)">
        <g
           transform="translate(116.24253,40.16349)"
           id="g18338">
          <g
             transform="matrix(0.90934944,0,0,0.90934944,341.12312,-2833.2001)"
             id="g18340">
            <g
               id="g18342"
               transform="matrix(1.0366626,0,0,1,13.076783,0)">
              <path
                 inkscape:connector-curvature="0"
                 id="path18344"
                 transform="matrix(0.28066888,0,0,0.29095893,-359.52452,3352.6478)"
                 d="m 19.03125,-578.65625 c -34.34988,0.33105 -66.65625,4.49652 -66.65625,14.3125 0.02319,2.16838 0.08542,21.63837 0.125,33.5625 2.496325,10.07532 5.25,22.62687 5.25,27.46875 0,4.25912 -2.569714,8.06863 -5.125,11.46875 0.124244,32.78808 0.294453,65.28756 0.5,69.75 4.067426,-1.17645 143.424846,1.04708 146.5,-1.0625 -0.01877,-2.52673 -0.03798,-12.52293 -0.03125,-26.03125 -2.847582,-3.1092 -4.5625,-6.03125 -4.5625,-6.03125 0,0 2.344822,-1.99114 4.5625,-5.25 0.02446,-40.70554 0.08725,-100.35787 -0.09375,-107.1875 0,-6.82689 -41.538886,-11.37519 -80.46875,-11 z"
                 style="color:#000000;fill:#ffcc00;fill-opacity:1;fill-rule:nonzero;stroke:#6a5b1d;stroke-width:10;stroke-linejoin:round;stroke-miterlimit:4;stroke-opacity:1;stroke-dasharray:none;marker:none;visibility:visible;display:inline;overflow:visible;enable-background:accumulate" />
              <path
                 inkscape:connector-curvature="0"
                 id="path18346"
                 transform="matrix(0.28066888,0,0,0.29095893,-359.52452,3352.6478)"
                 d="m 26.40625,-584.59375 c -36.812205,0.0344 -73.781511,6.05345 -74.0625,18.6875 l 0.1875,35.28125 c 2.486289,10.04927 5.21875,22.49545 5.21875,27.3125 0,4.19307 -2.484291,7.95199 -5,11.3125 l 0.375,69.90625 c 1.494698,0.12185 141.293255,0.56857 146.3125,-0.40625 l 0.1875,0 0,-26.625 c -2.875975,-3.12805 -4.59375,-6.09375 -4.59375,-6.09375 0,0 2.369269,-2.00159 4.59375,-5.28125 l 0,-106.90625 c 0.272032,-11.26593 -36.406545,-17.22194 -73.21875,-17.1875 z"
                 style="color:#000000;fill:#eec85d;fill-opacity:1;fill-rule:nonzero;stroke:none;stroke-width:12;marker:none;visibility:visible;display:inline;overflow:visible;enable-background:accumulate" />
              <path
                 inkscape:connector-curvature="0"
                 id="path18348"
                 transform="matrix(0.28066888,0,0,0.29095893,-359.52452,3352.6478)"
                 d="m 58.65625,-580.34375 0,158.40625 c 3.65064,-0.012 7.2038,-0.0448 10.53125,-0.0625 2.39125,-0.0128 4.71751,-0.0467 6.90625,-0.0625 6.1726,-0.0448 11.71232,-0.0824 15.65625,-0.15625 1.95977,-0.0367 3.492,-0.0802 4.75,-0.125 0.16411,-0.006 0.31776,0.006 0.46875,0 1.21076,-0.0477 2.14015,-0.0986 2.4375,-0.15625 l 0.1875,0 0,-26.6875 c -2.847582,-3.1092 -4.5625,-6.03125 -4.5625,-6.03125 0,0 2.348961,-1.97243 4.5625,-5.21875 l 0,-107 c 0,-6.50219 -17.75372,-10.85554 -40.9375,-12.90625 z"
                 style="color:#000000;fill:#d5b352;fill-opacity:1;fill-rule:nonzero;stroke:none;stroke-width:12;marker:none;visibility:visible;display:inline;overflow:visible;enable-background:accumulate" />
              <path
                 inkscape:connector-curvature="0"
                 id="path18350"
                 transform="matrix(0.28066888,0,0,0.29095893,-359.52452,3352.6478)"
                 d="m -19.3125,-578.71875 c -16.69863,2.55362 -28.30358,6.80126 -28.34375,12.78125 l 0.1875,35.28125 c 2.488214,10.0543 5.21875,22.52197 5.21875,27.34375 0,4.19913 -2.511859,7.94834 -5.03125,11.3125 l 0.375,69.90625 c 0.41031,0.0283 11.98684,0.0835 27.59375,0.125 l 0,-156.75 z"
                 style="color:#000000;fill:#f8d67a;fill-opacity:1;fill-rule:nonzero;stroke:none;stroke-width:12;marker:none;visibility:visible;display:inline;overflow:visible;enable-background:accumulate" />
              <path
                 inkscape:connector-curvature="0"
                 id="path18352"
                 transform="matrix(0.28066888,0,0,0.29095893,-359.52452,3352.6478)"
                 d="m 99.125,-459.8125 c -14.621005,8.33181 -16.47244,9.56833 -22.8125,10.625 -7.466307,1.24439 -9.116699,4.56542 -4.96875,2.90625 4.147948,-1.65918 24.462891,-0.8352 27.78125,-1.25 0.138732,-0.0173 0.325538,-0.0596 0.5,-0.0937 l 0,-1.5 c -2.875975,-3.12805 -4.59375,-6.09375 -4.59375,-6.09375 0,0 2.027334,-1.73693 4.09375,-4.59375 z"
                 style="color:#000000;fill:#f8d67a;fill-opacity:1;fill-rule:nonzero;stroke:none;stroke-width:12;marker:none;visibility:visible;display:inline;overflow:visible;enable-background:accumulate" />
              <path
                 inkscape:connector-curvature="0"
                 id="path18354"
                 transform="matrix(0.28066888,0,0,0.29095893,-359.52452,3352.6478)"
                 d="m 97.96875,-458.28125 c -12.795326,6.40888 -17.5,7.4375 -17.5,7.4375 0,0 10.852554,-1.69081 15.65625,-2.75 -0.672552,-0.97494 -1.09375,-1.625 -1.09375,-1.625 0,0 1.331106,-1.11837 2.9375,-3.0625 z"
                 style="color:#000000;fill:#6a5b1d;fill-opacity:1;fill-rule:nonzero;stroke:none;stroke-width:12;marker:none;visibility:visible;display:inline;overflow:visible;enable-background:accumulate" />
            </g>
          </g>
          <g
             id="g18356"
             transform="translate(0,0.27161195)">
            <path
               transform="matrix(0.26458334,0,0,0.26458334,-6.3049604e-6,16.916276)"
               style="color:#000000;fill:#ffbb00;fill-opacity:1;fill-rule:nonzero;stroke:#6a5b1d;stroke-width:10;stroke-linecap:round;stroke-linejoin:round;stroke-miterlimit:4;stroke-opacity:1;stroke-dashoffset:0;marker:none;visibility:visible;display:inline;overflow:visible;enable-background:accumulate"
               d="m 152.54817,326.88605 c 0,3.89444 -32.95394,7.05151 -72.700163,7.05151 -39.746223,0 -73.2867725,-3.15707 -73.2867725,-7.05151 3.8129555,-0.0815 33.5405495,-1.24438 73.2867725,-1.24438 39.746223,0 44.836263,-1.18355 72.700163,1.24438 z"
               id="path18358"
               inkscape:connector-curvature="0"
               sodipodi:nodetypes="ccccc" />
            <path
               transform="matrix(0.26458334,0,0,0.26458334,-6.3049604e-6,16.916276)"
               style="color:#000000;fill:#9c8135;fill-opacity:1;fill-rule:nonzero;stroke:none;stroke-width:10;marker:none;visibility:visible;display:inline;overflow:visible;enable-background:accumulate"
               d="m 152.54817,326.88605 c 0,3.89444 -32.95394,7.05151 -72.700163,7.05151 -39.746223,0 -73.2867725,-3.15707 -73.2867725,-7.05151 0,-15.50871 145.9869355,-12.19035 145.9869355,0 z"
               id="path18360"
               inkscape:connector-curvature="0"
               sodipodi:nodetypes="ssss" />
          </g>
        </g>
      </g>
      <g
         transform="translate(317.51681,256.65818)"
         id="g18264">
        <g
           id="g18266"
           transform="matrix(0.94278896,0,0,0.94278896,454.34394,-2958.8114)">
          <g
             transform="matrix(0.96297086,0,0,0.96297086,-13.036687,106.50947)"
             id="g18268">
            <g
               id="g18270"
               transform="matrix(1.0366626,0,0,1,13.076783,0)">
              <path
                 sodipodi:nodetypes="cccccccccc"
                 inkscape:connector-curvature="0"
                 id="path18272"
                 d="m -354.02707,3180.9348 c -5.21299,0.1154 -10.54124,0.3196 -15.52093,2.0722 -1.42034,0.5816 -3.40326,1.5169 -3.34676,3.3854 0.0276,2.6752 0.0955,40.8039 0.21258,43.4389 1.1416,-0.3423 40.25222,0.3051 41.11532,-0.3087 -0.0208,-2.902 0.0421,-39.6275 -0.0319,-42.5221 -0.57066,-1.4459 -2.26316,-1.8857 -3.55726,-2.3799 -5.5636,-1.6502 -11.40006,-3.5543 -17.15732,-3.6829 -0.57104,-0.01 -1.144,-0.01 -1.71372,0 z"
                 style="color:#000000;fill:#ffcc00;fill-opacity:1;fill-rule:nonzero;stroke:#6a5b1d;stroke-width:2.5986259;stroke-linejoin:round;stroke-miterlimit:4;stroke-opacity:1;stroke-dasharray:none;marker:none;visibility:visible;display:inline;overflow:visible;enable-background:accumulate" />
              <path
                 inkscape:connector-curvature="0"
                 style="color:#000000;fill:#eec85d;fill-opacity:1;fill-rule:nonzero;stroke:none;stroke-width:12;marker:none;visibility:visible;display:inline;overflow:visible;enable-background:accumulate"
                 d="m -1337.6875,11958.665 c -38.2312,0.286 -74.3371,6.405 -73.9375,20.281 l 0.8438,158.148 c 1.6437,0.134 155.3866,0.634 160.9062,-0.438 0.066,0 0.1223,0 0.1875,0 l 0,-159.366 c 1.3585,-11.795 -44.6713,-18.949 -88,-18.625 z"
                 transform="matrix(0.25522609,0,0,0.26458334,-12.614316,18.562493)"
                 id="path18274"
                 sodipodi:nodetypes="scccccs" />
              <path
                 inkscape:connector-curvature="0"
                 style="opacity:0.61061946;color:#000000;fill:#635322;fill-opacity:1;fill-rule:nonzero;stroke:none;stroke-width:12;marker:none;visibility:visible;display:inline;overflow:visible;enable-background:accumulate"
                 d="m 495.3125,49.125 0,160.1875 c 8.62046,-0.03 16.15654,-0.0635 22.6875,-0.125 1.81258,-0.0178 3.5852,-0.0416 5.15625,-0.0625 0.32013,-0.004 0.471,0.004 0.78125,0 3.20289,-0.0422 6.05814,-0.0998 8.0625,-0.15625 1.06051,-0.0299 1.89454,-0.0595 2.5625,-0.0937 0.0294,-0.002 0.0652,0.002 0.0937,0 0.2511,-0.0132 0.31122,-0.0173 0.5,-0.0312 0.39659,-0.0267 0.68374,-0.0645 0.84375,-0.0937 l 0.1875,0 0,-144.6875 0,-0.96875 C 535.29851,56.515267 517.8524,51.651355 495.3125,49.125 z"
                 transform="matrix(0.28112368,0,0,0.2914304,-482.30222,3168.8806)"
                 id="path18276" />
              <path
                 style="color:#000000;fill:#e0bd5a;fill-opacity:1;fill-rule:nonzero;stroke:none;stroke-width:12;marker:none;visibility:visible;display:inline;overflow:visible;enable-background:accumulate"
                 d="m -1378.5938,11895.331 c -17.8797,3.042 -30.2617,8.371 -30.0312,16.375 l 0.8125,160.232 c 0.4345,0.03 12.6915,0.08 29.2187,0.124 z"
                 transform="matrix(0.2650403,0,0,0.27475737,0.44488676,-87.015423)"
                 id="path18278"
                 inkscape:connector-curvature="0"
                 sodipodi:nodetypes="ccccc" />
            </g>
          </g>
          <g
             transform="translate(-0.15383922,0)"
             id="g18280">
            <path
               sodipodi:nodetypes="cccscc"
               transform="matrix(0.26458334,0,0,0.26458334,-6.3049604e-6,18.562493)"
               inkscape:connector-curvature="0"
               id="path18282"
               d="m -1396.6179,11917.472 c -0.5814,6.977 1.7444,169.45 1.7444,169.45 l 46.5152,-2.907 c 0,0 -6.7982,-46.195 -7.0071,-94.775 -0.1413,-32.881 6.5168,-66.865 5.8442,-75.838 -2.2479,-1.298 -46.5152,-2.907 -47.0967,4.07 z"
               style="color:#000000;fill:#eec85d;fill-opacity:1;fill-rule:nonzero;stroke:#6a5b1d;stroke-width:10;stroke-linejoin:round;stroke-opacity:1;marker:none;visibility:visible;display:inline;overflow:visible;enable-background:accumulate" />
            <path
               style="color:#000000;fill:#ddb850;fill-opacity:1;fill-rule:nonzero;stroke:none;stroke-width:10;marker:none;visibility:visible;display:inline;overflow:visible;enable-background:accumulate"
               d="m -1396.6179,11917.472 c -0.5814,6.977 1.7444,169.45 1.7444,169.45 l 46.5152,-0.581 c 1.973,0 3.1605,-150.71 -1.1629,-172.939 -2.2479,-1.298 -46.5152,-2.907 -47.0967,4.07 z"
               id="path18284"
               inkscape:connector-curvature="0"
               transform="matrix(0.26458334,0,0,0.26458334,-6.3049604e-6,18.562493)"
               sodipodi:nodetypes="ccccc" />
            <path
               inkscape:connector-curvature="0"
               id="path18286"
               transform="matrix(0.26458334,0,0,0.26458334,-6.3049604e-6,18.562493)"
               d="m -1369.4375,11907.875 c -1.3093,0 -2.6145,0.03 -3.9375,0.06 l 0,178.718 25.0312,-0.312 c 1.9731,0 3.136,-155.115 -1.1874,-177.344 -0.9835,-0.568 -10.0143,-1.183 -19.9063,-1.125 z"
               style="opacity:0.59734509;color:#000000;fill:#ad9141;fill-opacity:1;fill-rule:nonzero;stroke:none;stroke-width:10;marker:none;visibility:visible;display:inline;overflow:visible;enable-background:accumulate" />
            <path
               sodipodi:nodetypes="cccccc"
               inkscape:connector-curvature="0"
               id="path18288"
               transform="matrix(0.26458334,0,0,0.26458334,-6.3049604e-6,18.562493)"
               d="m -1388.4688,11913.556 c -4.7304,0.808 -8.0014,2.049 -8.1562,3.906 -0.5814,6.978 1.75,169.476 1.75,169.476 l 6.0312,-0.06 c -0.6572,-29.124 -1.6714,-117.01 0.375,-173.319 z"
               style="color:#000000;fill:#ffe08d;fill-opacity:1;fill-rule:nonzero;stroke:none;stroke-width:10;marker:none;visibility:visible;display:inline;overflow:visible;enable-background:accumulate" />
          </g>
          <g
             transform="matrix(-1,0,0,1,-703.83914,0)"
             id="g18290">
            <path
               style="color:#000000;fill:#eec85d;fill-opacity:1;fill-rule:nonzero;stroke:#6a5b1d;stroke-width:10;stroke-linejoin:round;stroke-opacity:1;marker:none;visibility:visible;display:inline;overflow:visible;enable-background:accumulate"
               d="m -1396.6179,11918.352 c -0.5814,6.977 1.7444,168.57 1.7444,168.57 l 46.5152,-2.907 c 0,0 -6.7982,-46.195 -7.0071,-94.775 -0.1413,-32.881 6.5168,-65.985 5.8442,-74.958 -2.2479,-1.298 -46.5152,-2.907 -47.0967,4.07 z"
               id="path18292"
               inkscape:connector-curvature="0"
               transform="matrix(0.26458334,0,0,0.26458334,-6.3049604e-6,18.562493)"
               sodipodi:nodetypes="cccscc" />
            <path
               sodipodi:nodetypes="ccccc"
               transform="matrix(0.26458334,0,0,0.26458334,-6.3049604e-6,18.562493)"
               inkscape:connector-curvature="0"
               id="path18294"
               d="m -1396.6179,11918.352 c -0.5814,6.977 1.7444,168.57 1.7444,168.57 l 46.5152,-0.581 c 1.973,0 3.1605,-149.83 -1.1629,-172.059 -2.2479,-1.298 -46.5152,-2.907 -47.0967,4.07 z"
               style="color:#000000;fill:#eec85d;fill-opacity:1;fill-rule:nonzero;stroke:none;stroke-width:10;marker:none;visibility:visible;display:inline;overflow:visible;enable-background:accumulate" />
            <path
               inkscape:connector-curvature="0"
               style="opacity:0.59734509;color:#000000;fill:#ad9141;fill-opacity:1;fill-rule:nonzero;stroke:none;stroke-width:10;marker:none;visibility:visible;display:inline;overflow:visible;enable-background:accumulate"
               d="m -1369.4375,11907.875 c -1.3093,0 -2.6145,0.03 -3.9375,0.06 l 0,178.718 25.0312,-0.312 c 1.9731,0 3.136,-155.115 -1.1874,-177.344 -0.9835,-0.568 -10.0143,-1.183 -19.9063,-1.125 z"
               transform="matrix(0.26458334,0,0,0.26458334,-6.3049604e-6,18.562493)"
               id="path18296" />
            <path
               style="color:#000000;fill:#ffe08d;fill-opacity:1;fill-rule:nonzero;stroke:none;stroke-width:10;marker:none;visibility:visible;display:inline;overflow:visible;enable-background:accumulate"
               d="m -1388.4688,11914.436 c -4.7304,0.808 -8.0014,2.049 -8.1562,3.906 -0.5814,6.978 1.75,168.596 1.75,168.596 l 6.0312,-0.06 c -0.6572,-29.124 -1.6714,-116.13 0.375,-172.439 z"
               transform="matrix(0.26458334,0,0,0.26458334,-6.3049604e-6,18.562493)"
               id="path18298"
               inkscape:connector-curvature="0"
               sodipodi:nodetypes="cccccc" />
          </g>
          <g
             id="g18300"
             transform="matrix(-1.0369049,0,0,1.0369049,-723.08705,-118.75568)">
            <path
               sodipodi:nodetypes="csccscc"
               transform="matrix(0.26458334,0,0,0.26458334,-6.3049604e-6,18.562493)"
               inkscape:connector-curvature="0"
               id="path18302"
               d="m -1396.6179,11919.012 c -0.2763,3.315 0.1039,36.794 0.579,77.256 0.5248,44.69 1.1654,90.654 1.1654,90.654 l 46.5152,-2.907 c 0,0 -6.7982,-46.195 -7.0071,-94.775 -0.1413,-32.881 6.5168,-65.325 5.8442,-74.298 -2.2479,-1.298 -46.5152,-2.907 -47.0967,4.07 z"
               style="color:#000000;fill:#eec85d;fill-opacity:1;fill-rule:nonzero;stroke:#6a5b1d;stroke-width:10;stroke-linejoin:round;stroke-opacity:1;marker:none;visibility:visible;display:inline;overflow:visible;enable-background:accumulate" />
            <path
               style="color:#000000;fill:#eec85d;fill-opacity:1;fill-rule:nonzero;stroke:none;stroke-width:10;marker:none;visibility:visible;display:inline;overflow:visible;enable-background:accumulate"
               d="m -1396.6179,11919.012 c -0.5814,6.977 1.7444,167.91 1.7444,167.91 l 46.5152,-0.581 c 1.973,0 3.1605,-149.17 -1.1629,-171.399 -2.2479,-1.298 -46.5152,-2.907 -47.0967,4.07 z"
               id="path18304"
               inkscape:connector-curvature="0"
               transform="matrix(0.26458334,0,0,0.26458334,-6.3049604e-6,18.562493)"
               sodipodi:nodetypes="ccccc" />
            <path
               id="path18306"
               transform="matrix(0.26458334,0,0,0.26458334,-6.3049604e-6,18.562493)"
               d="m -1369.4375,11907.875 c -1.3093,0 -2.6145,0.03 -3.9375,0.06 l 0,178.718 25.0312,-0.312 c 1.9731,0 3.136,-155.115 -1.1874,-177.344 -0.9835,-0.568 -10.0143,-1.183 -19.9063,-1.125 z"
               style="opacity:0.59734509;color:#000000;fill:#ad9141;fill-opacity:1;fill-rule:nonzero;stroke:none;stroke-width:10;marker:none;visibility:visible;display:inline;overflow:visible;enable-background:accumulate"
               inkscape:connector-curvature="0" />
            <path
               sodipodi:nodetypes="cccccc"
               inkscape:connector-curvature="0"
               id="path18308"
               transform="matrix(0.26458334,0,0,0.26458334,-6.3049604e-6,18.562493)"
               d="m -1388.4688,11915.096 c -4.7304,0.808 -8.0014,2.049 -8.1562,3.906 -0.5814,6.978 1.75,167.936 1.75,167.936 l 6.0312,-0.06 c -0.6572,-29.124 -1.6714,-115.47 0.375,-171.779 z"
               style="color:#000000;fill:#ffe08d;fill-opacity:1;fill-rule:nonzero;stroke:none;stroke-width:10;marker:none;visibility:visible;display:inline;overflow:visible;enable-background:accumulate" />
          </g>
          <g
             transform="matrix(1,0,0,1.0461311,4.769014,-148.4446)"
             id="g18310">
            <path
               style="color:#000000;fill:#eec85d;fill-opacity:1;fill-rule:nonzero;stroke:#6a5b1d;stroke-width:10;stroke-linejoin:round;stroke-opacity:1;marker:none;visibility:visible;display:inline;overflow:visible;enable-background:accumulate"
               d="m -1396.6179,11918.96 c -0.2984,3.581 5.402,22.273 5.9277,65.914 0.4986,41.39 -4.1833,102.048 -4.1833,102.048 l 46.5152,-2.907 c 0,0 -6.7982,-46.195 -7.0071,-94.775 -0.1413,-32.881 6.5168,-65.377 5.8442,-74.35 -2.2479,-1.298 -46.5152,-2.907 -47.0967,4.07 z"
               id="path18312"
               inkscape:connector-curvature="0"
               transform="matrix(0.26458334,0,0,0.26458334,-6.3049604e-6,18.562493)"
               sodipodi:nodetypes="csccscc" />
            <path
               sodipodi:nodetypes="ccccc"
               transform="matrix(0.26458334,0,0,0.26458334,-6.3049604e-6,18.562493)"
               inkscape:connector-curvature="0"
               id="path18314"
               d="m -1396.6179,11918.96 c -0.5814,6.977 1.7444,167.962 1.7444,167.962 l 46.5152,-0.581 c 1.973,0 3.1605,-149.222 -1.1629,-171.451 -2.2479,-1.298 -46.5152,-2.907 -47.0967,4.07 z"
               style="color:#000000;fill:#eec85d;fill-opacity:1;fill-rule:nonzero;stroke:none;stroke-width:10;marker:none;visibility:visible;display:inline;overflow:visible;enable-background:accumulate" />
            <path
               inkscape:connector-curvature="0"
               style="opacity:0.59734509;color:#000000;fill:#ad9141;fill-opacity:1;fill-rule:nonzero;stroke:none;stroke-width:10;marker:none;visibility:visible;display:inline;overflow:visible;enable-background:accumulate"
               d="m -1369.4375,11907.875 c -1.3093,0 -2.6145,0.03 -3.9375,0.06 l 0,178.718 25.0312,-0.312 c 1.9731,0 3.136,-155.115 -1.1874,-177.344 -0.9835,-0.568 -10.0143,-1.183 -19.9063,-1.125 z"
               transform="matrix(0.26458334,0,0,0.26458334,-6.3049604e-6,18.562493)"
               id="path18316" />
            <path
               style="color:#000000;fill:#ffe08d;fill-opacity:1;fill-rule:nonzero;stroke:none;stroke-width:10;marker:none;visibility:visible;display:inline;overflow:visible;enable-background:accumulate"
               d="m -1388.4688,11915.044 c -4.7304,0.808 -8.0014,2.049 -8.1562,3.906 -0.5814,6.978 1.75,167.988 1.75,167.988 l 6.0312,-0.06 c -0.6572,-29.124 -1.6714,-115.522 0.375,-171.831 z"
               transform="matrix(0.26458334,0,0,0.26458334,-6.3049604e-6,18.562493)"
               id="path18318"
               inkscape:connector-curvature="0"
               sodipodi:nodetypes="cccccc" />
          </g>
          <g
             transform="matrix(-1,0,0,1,-704.7375,0)"
             id="g18320">
            <path
               style="color:#000000;fill:#ffe08d;fill-opacity:1;fill-rule:nonzero;stroke:#6a5b1d;stroke-width:2.29850125;stroke-linejoin:round;stroke-opacity:1;marker:none;visibility:visible;display:inline;overflow:visible;enable-background:accumulate"
               d="m -357.73447,3168.2676 c 0.329,10.4023 0.42579,52.256 -0.11541,48.1525 0,0 5.13496,-1.1465 5.59651,-1.3011 0.46158,-0.1548 5.36575,1.2203 5.36575,1.2203 -1.15988,-15.5055 -0.88336,-29.5027 0,-47.8687 -2.85556,-1.4686 -9.33402,-0.9919 -10.84685,-0.203 z"
               id="path18322"
               inkscape:connector-curvature="0"
               sodipodi:nodetypes="ccsccc" />
            <path
               sodipodi:nodetypes="ccccccc"
               inkscape:connector-curvature="0"
               id="path18324"
               d="m -357.73447,3168.1611 c 0,2.4765 -0.11541,48.3358 -0.11541,48.3358 l 5.59651,-1.3779 5.36575,1.3741 0.46152,-27.5146 -0.46152,-20.5079 c -2.61079,-2.1213 -10.84685,-0.3095 -10.84685,-0.3095 z"
               style="color:#000000;fill:#ffe08d;fill-opacity:1;fill-rule:nonzero;stroke:none;stroke-width:10;marker:none;visibility:visible;display:inline;overflow:visible;enable-background:accumulate" />
            <path
               sodipodi:nodetypes="ccccc"
               inkscape:connector-curvature="0"
               style="opacity:0.73893804;color:#000000;fill:#ddb850;fill-opacity:1;fill-rule:nonzero;stroke:none;stroke-width:10;marker:none;visibility:visible;display:inline;overflow:visible;enable-background:accumulate"
               d="m -1332.8438,11901.664 -19.2187,2.32 c 0,9.36 -0.4375,183.286 -0.4375,183.286 l 20.125,-5.791 c -0.1605,-62.183 -0.9844,-141.446 -0.4688,-179.815 z"
               transform="matrix(0.26458334,0,0,0.26458334,-6.3049604e-6,18.562493)"
               id="path18326" />
          </g>
          <path
             transform="matrix(0.26458334,0,0,0.26458334,-6.3049604e-6,18.562493)"
             inkscape:connector-curvature="0"
             id="path18328"
             d="m -1347.1955,12087.504 c 1.4536,-1.454 15.1175,-6.687 15.1175,-6.687 0,0 19.4782,8.14 18.0246,7.559 -1.4536,-0.582 -33.1421,-0.872 -33.1421,-0.872 z"
             style="color:#000000;fill:#998039;fill-opacity:1;fill-rule:nonzero;stroke:none;stroke-width:10;marker:none;visibility:visible;display:inline;overflow:visible;enable-background:accumulate" />
        </g>
        <g
           transform="translate(101.49788,-29.563177)"
           id="g18330">
          <path
             sodipodi:nodetypes="ccccc"
             inkscape:connector-curvature="0"
             id="path18332"
             d="m 152.54817,326.88605 c 0,3.89444 -32.95394,7.05151 -72.700163,7.05151 -39.746223,0 -73.2867725,-3.15707 -73.2867725,-7.05151 3.8129555,-0.0815 33.5405495,-1.24438 73.2867725,-1.24438 39.746223,0 44.836263,-1.18355 72.700163,1.24438 z"
             style="color:#000000;fill:#ffbb00;fill-opacity:1;fill-rule:nonzero;stroke:#6a5b1d;stroke-width:10;stroke-linecap:round;stroke-linejoin:round;stroke-miterlimit:4;stroke-opacity:1;stroke-dashoffset:0;marker:none;visibility:visible;display:inline;overflow:visible;enable-background:accumulate"
             transform="matrix(0.26458334,0,0,0.26458334,-6.3049604e-6,16.916276)" />
          <path
             sodipodi:nodetypes="sssss"
             inkscape:connector-curvature="0"
             id="path18334"
             d="m 152.54817,326.88605 c 0,3.89444 -32.95394,7.05151 -72.700163,7.05151 -39.746223,0 -73.2867725,-3.15707 -73.2867725,-7.05151 0,-3.89445 33.5405495,-8.22473 73.2867725,-8.22473 39.746223,0 72.700163,4.33028 72.700163,8.22473 z"
             style="color:#000000;fill:#87722e;fill-opacity:1;fill-rule:nonzero;stroke:none;stroke-width:10;marker:none;visibility:visible;display:inline;overflow:visible;enable-background:accumulate"
             transform="matrix(0.26458334,0,0,0.26458334,-6.3049604e-6,16.916276)" />
        </g>
      </g>
      <g
         id="g18051"
         transform="matrix(0.93292247,0,0,0.93292247,742.21101,-2798.3234)">
        <path
           style="color:#000000;fill:#ffe581;fill-opacity:1;fill-rule:nonzero;stroke:#6a5b1d;stroke-width:12;stroke-linecap:round;stroke-linejoin:round;stroke-miterlimit:4;stroke-opacity:1;stroke-dasharray:none;stroke-dashoffset:0;marker:none;visibility:visible;display:inline;overflow:visible;enable-background:accumulate"
           d="m -1224,12841.406 c -67.259,0 -107.6945,5.525 -121.5,17.813 -22.9495,21.129 -17.4062,59.156 -17.4062,59.156 l 1.5624,0 c 9.5309,9.234 67.3786,6.477 137.3438,6.477 69.9652,0 127.8442,2.757 137.375,-6.477 l 1.0625,0 c 0,0 0.03,-0.744 0.062,-1.594 0.1522,-0.365 0.25,-0.723 0.25,-1.093 0,-0.32 -0.074,-0.654 -0.1875,-0.969 0,0 0,-0.02 0,-0.03 0.1859,-10.878 -0.6737,-43.246 -16.8125,-56.188 0.02,-0.123 -18.3107,-17.094 -121.75,-17.094 z"
           transform="matrix(0.26458334,0,0,0.26458334,-6.3049604e-6,18.562493)"
           id="path18053"
           inkscape:connector-curvature="0"
           sodipodi:nodetypes="ccccscccscccsc" />
        <path
           sodipodi:nodetypes="scccscccscccs"
           inkscape:connector-curvature="0"
           id="path18055"
           transform="matrix(0.26458334,0,0,0.26458334,-6.3049604e-6,18.562493)"
           d="m -1224,12841.406 c -67.259,0 -107.6945,5.525 -121.5,17.813 -22.9495,21.129 -17.4062,59.156 -17.4062,59.156 l 1.5624,0 c 9.5309,9.234 67.3786,16.344 137.3438,16.344 69.9652,0 127.8442,-7.11 137.375,-16.344 l 1.0625,0 c 0,0 0.03,-0.744 0.062,-1.594 0.1522,-0.365 0.25,-0.723 0.25,-1.093 0,-0.32 -0.074,-0.654 -0.1875,-0.969 0,0 0,-0.02 0,-0.03 0.1859,-10.878 -0.6737,-43.246 -16.8125,-56.188 0.02,-0.123 -18.3107,-17.094 -121.75,-17.094 z"
           style="color:#000000;fill:#ffe581;fill-opacity:1;fill-rule:nonzero;stroke:none;stroke-width:0;marker:none;visibility:visible;display:inline;overflow:visible;enable-background:accumulate" />
        <path
           id="path18057"
           transform="matrix(0.26458334,0,0,0.26458334,-6.3049604e-6,18.562493)"
           d="m -1224,12841.406 c -29.3156,0 -53.5475,1.049 -72.6875,3.25 57.0396,35.785 124.3558,21.52 140.5625,28.813 15.1611,6.823 14.2423,46.41 12.7188,57.719 30.1506,-2.96 51.3467,-7.548 56.7812,-12.813 l 1.0625,0 c 0,0 0.031,-0.744 0.062,-1.594 0.1522,-0.365 0.25,-0.723 0.25,-1.093 0,-0.321 -0.074,-0.654 -0.1875,-0.969 l 0,-0.03 c 0.1859,-10.879 -0.6737,-43.246 -16.8125,-56.188 0.02,-0.123 -18.3107,-17.094 -121.75,-17.094 z"
           style="opacity:0.71238942;color:#000000;fill:#d5b352;fill-opacity:1;fill-rule:nonzero;stroke:none;stroke-width:12;marker:none;visibility:visible;display:inline;overflow:visible;enable-background:accumulate"
           inkscape:connector-curvature="0" />
        <path
           id="path18059"
           transform="matrix(0.26458334,0,0,0.26458334,-6.3049604e-6,18.562493)"
           d="m -1338.75,12854.781 c -2.692,1.371 -4.9569,2.842 -6.75,4.438 -22.9495,21.129 -17.4062,59.156 -17.4062,59.156 l 1.5624,0 c 9.531,9.234 67.3786,16.344 137.3438,16.344 69.9652,0 127.8442,-7.11 137.375,-16.344 l 1.0625,0 c 0,0 0.031,-0.744 0.062,-1.594 0.1522,-0.365 0.25,-0.723 0.25,-1.093 0,-0.321 -0.074,-0.654 -0.1875,-0.969 l 0,-0.03 c 0.1859,-10.879 -0.6737,-43.246 -16.8125,-56.188 0.01,-0.03 -1.4208,-1.381 -5.75,-3.312 2.5153,8.36 -4.1271,19.201 -63.75,21.562 -68.8112,2.726 -157.361,-5.856 -167,-21.969 z"
           style="opacity:0.58407078;color:#000000;fill:#cfa838;fill-opacity:1;fill-rule:nonzero;stroke:none;stroke-width:12;marker:none;visibility:visible;display:inline;overflow:visible;enable-background:accumulate"
           inkscape:connector-curvature="0" />
        <path
           id="path18061"
           transform="matrix(0.26458334,0,0,0.26458334,-6.3049604e-6,18.562493)"
           d="m -1230.4062,12849.594 c 0,0 -14.469,1.64 -29.8126,4.75 -7.6715,1.555 -15.5822,3.478 -22.0937,5.781 -6.5115,2.303 -11.7521,4.659 -14.125,8.813 -6.4777,11.336 -9.5528,33.762 -8.3125,62.218 1.6356,0.161 3.3436,0.318 5.0312,0.469 -1.208,-28.365 2.2461,-50.805 7.625,-60.219 0.9165,-1.603 5.3378,-4.394 11.4688,-6.562 6.131,-2.169 13.8345,-4.066 21.375,-5.594 15.0809,-3.057 42.7761,-11.373 42.7761,-11.373 z m 16.5,4.062 c -1.1352,0.107 -2.1268,1.085 -2.25,2.219 -1.286,10.287 -1.6784,33.772 -1.7813,54.969 -0.043,8.906 -0.026,17.013 0,23.844 1.6682,-0.01 3.3476,-0.05 5,-0.06 -0.026,-6.808 -0.043,-14.881 0,-23.75 0.1028,-21.151 0.5378,-44.927 1.7187,-54.375 0.2113,-1.483 -2.6274,-9.179 -4.1199,-9.051 z m 19.5312,-0.361 c -1.8838,0.03 -3.7478,0.123 -5.5625,0.281 -1.3673,0.02 -14.9811,-1.031 -14.8612,0.332 0.12,1.362 13.9482,4.852 15.2987,4.637 13.4401,-1.186 30.1361,2.78 44.1562,6.643 7.0103,1.929 13.3588,4.071 18.3438,5.968 4.9631,1.89 8.6581,3.613 9.9375,4.406 0.011,0.103 0.7339,1.004 1.2813,2.532 0.6253,1.745 1.2486,4.216 1.8124,7.094 1.1281,5.752 2.066,13.162 2.7813,20.468 0.8656,8.842 1.41,17.095 1.7187,22.563 1.7086,-0.269 3.3394,-0.563 4.9376,-0.844 -0.3213,-5.529 -0.8443,-13.576 -1.6876,-22.187 -0.7237,-7.394 -1.659,-14.927 -2.8437,-20.969 -0.5923,-3.021 -1.2315,-5.668 -2,-7.813 -0.7685,-2.144 -1.4244,-3.882 -3.3125,-5.062 -2.0256,-1.266 -5.7042,-2.919 -10.8438,-4.875 -5.1392,-1.957 -11.6383,-4.15 -18.8124,-6.125 -10.7614,-2.963 -23.0363,-6.42 -34.625,-6.955 -1.9317,-0.09 -3.55,-2.259 -5.7188,-0.09 z"
           style="font-size:medium;font-style:normal;font-variant:normal;font-weight:normal;font-stretch:normal;text-indent:0;text-align:start;text-decoration:none;line-height:normal;letter-spacing:normal;word-spacing:normal;text-transform:none;direction:ltr;block-progression:tb;writing-mode:lr-tb;text-anchor:start;baseline-shift:baseline;opacity:0.71238942;color:#000000;fill:#897832;fill-opacity:1;stroke:none;stroke-width:5;marker:none;visibility:visible;display:inline;overflow:visible;enable-background:accumulate;font-family:Sans;-inkscape-font-specification:Sans"
           inkscape:connector-curvature="0"
           sodipodi:nodetypes="csscccccccccccccccccccsccccccsccccccccccc" />
      </g>
      <g
         transform="translate(977.78247,661.36077)"
         id="g17745">
        <g
           transform="matrix(0.88751321,0,0,-1.1860075,-792.25769,-184.37025)"
           id="g17747">
          <g
             id="g17749">
            <path
               style="color:#000000;fill:#eec85d;fill-opacity:1;fill-rule:nonzero;stroke:none;stroke-width:10;marker:none;visibility:visible;display:inline;overflow:visible;enable-background:accumulate"
               d="m 268.19738,74.786337 39.42255,0 5.04422,1.805939 c 0.31041,-0.59786 10e-6,-1.316781 0.15521,-3.382116 0,-1.63053 -8.59848,-2.455358 -25.82714,-2.455358 -19.86709,0 -25.62854,1.305845 -25.78374,2.827672 0.1552,1.73923 0.0857,3.091329 0.0857,3.091329 l 7.11471,-1.630374 z"
               id="path17751"
               inkscape:connector-curvature="0"
               sodipodi:nodetypes="ccccccccc" />
            <path
               style="color:#000000;fill:#eec85d;fill-opacity:1;fill-rule:nonzero;stroke:#6a5b1d;stroke-width:10.37123299;stroke-linejoin:round;stroke-miterlimit:4;stroke-opacity:1;stroke-dasharray:none;marker:none;visibility:visible;display:inline;overflow:visible;enable-background:accumulate"
               d="m -2016.0625,-972.25 c -33.5528,-0.0841 -65.1141,3.00366 -66.1563,10.40625 -0.041,0.11632 -0.035,0.25064 0,0.375 0.03,0.38896 0.097,0.76723 0.25,1.15625 0.034,3.20449 0.079,3.42197 -0.25,8.35015 0,7.77283 13.0052,16.34634 66.375,16.875 1.7217,0.017 3.4814,0 5.2813,0 49.9474,0 74.875,-7.85081 74.875,-16.71875 -0.3689,-6.55982 0.1649,-5.51885 -0.125,-8.5064 0.019,-0.0592 0.046,-0.12719 0.062,-0.1875 0.018,-0.0722 0.02,-0.14622 0.031,-0.21875 0.026,-0.12903 0.031,-0.24778 0.031,-0.375 -0.01,-0.0942 -0.014,-0.19136 -0.031,-0.28125 -0.021,-0.10738 -0.057,-0.21117 -0.094,-0.3125 -0.158,-0.43452 -0.4674,-0.79312 -0.875,-1.125 -0.1588,-0.12929 -0.3116,-0.25983 -0.5,-0.375 -7.7682,-5.54749 -44.3744,-8.97602 -78.875,-9.0625 z"
               transform="matrix(0.34493599,0,0,-0.25812253,980.50353,-171.71439)"
               id="path17753"
               inkscape:connector-curvature="0"
               sodipodi:nodetypes="ccccccscccccccccsc" />
            <path
               sodipodi:nodetypes="ccccccccc"
               inkscape:connector-curvature="0"
               id="path17755"
               d="m 268.19738,74.786337 39.42255,0 5.04422,1.805939 c 0.31041,-0.59786 10e-6,-0.558951 0.15521,-2.624286 0,-2.289017 -8.59848,-4.321071 -25.82714,-4.321071 -19.86709,0 -24.72541,2.293076 -24.72541,4.364141 0.1552,1.73923 0.0857,2.662743 0.0857,2.662743 l 6.05638,-1.630374 z"
               style="color:#000000;fill:#eec85d;fill-opacity:1;fill-rule:nonzero;stroke:none;stroke-width:0.05858524;marker:none;visibility:visible;display:inline;overflow:visible;enable-background:accumulate" />
            <path
               sodipodi:nodetypes="cccc"
               inkscape:connector-curvature="0"
               id="path17757"
               d="m 312.81936,76.362515 c 0,-1.630529 -8.59848,-4.069547 -25.82714,-4.069547 -19.86709,0 -24.57021,2.64828 -24.72541,4.170106 0,4.227516 50.30543,3.188348 50.55255,-0.100559 z"
               style="color:#000000;fill:#fde194;fill-opacity:1;fill-rule:nonzero;stroke:none;stroke-width:10;marker:none;visibility:visible;display:inline;overflow:visible;enable-background:accumulate" />
          </g>
        </g>
        <g
           id="g17759"
           transform="matrix(1,0,0,0.91917934,-6.5186867,-2.6805741)">
          <path
             style="color:#000000;fill:#eec85d;fill-opacity:1;fill-rule:nonzero;stroke:#6d5d1e;stroke-width:3.17499995;stroke-linejoin:round;stroke-miterlimit:4;stroke-opacity:1;stroke-dasharray:none;marker:none;visibility:visible;display:inline;overflow:visible;enable-background:accumulate"
             d="m -511.49377,-365.72722 c -0.002,-1.1e-4 0.002,0.0219 0.008,0.0496 0.005,-0.01 0.0122,-0.0231 0.008,-0.0331 -0.006,-0.0157 -0.015,-0.0165 -0.0166,-0.0166 z m 0.008,0.0496 c -0.44572,5.66248 -37.97413,7.81193 -39.58,-0.0331 -0.64008,-0.73813 -12.02203,41.61423 -12.02203,45.76464 0,7.52852 4.03582,14.29759 10.46119,18.9826 5.64573,4.11654 13.1363,5.07203 21.35495,5.07203 9.12278,0 17.34846,-1.53752 23.14971,-6.48778 5.37312,-4.58493 8.66644,-10.76602 8.66644,-17.56685 l -0.0909,-1.90995 c -0.31527,-3.39709 -11.66375,-42.56674 -11.93958,-43.82165 z"
             id="path17761"
             inkscape:connector-curvature="0"
             sodipodi:nodetypes="cccccccsssscccc" />
          <path
             sodipodi:nodetypes="cccccccsscccc"
             inkscape:connector-curvature="0"
             id="path17763"
             d="m -511.49377,-365.72722 c -0.002,-1.1e-4 0.002,0.0219 0.008,0.0496 0.005,-0.01 0.0122,-0.0231 0.008,-0.0331 -0.006,-0.0157 -0.015,-0.0165 -0.0166,-0.0166 z m 0.008,0.0496 c 0.30774,2.45804 -37.08267,3.59413 -39.58,-0.0331 -0.64008,-0.73813 -12.02203,41.61423 -12.02203,45.76464 0,14.14354 14.2439,25.6067 31.81614,25.6067 17.57231,0 31.81615,-11.46316 31.81615,-25.6067 l -0.0909,-1.90995 c -0.31527,-3.39709 -11.66375,-42.56674 -11.93958,-43.82165 z"
             style="color:#000000;fill:#eec85d;fill-opacity:1;fill-rule:nonzero;stroke:none;stroke-width:4;marker:none;visibility:visible;display:inline;overflow:visible;enable-background:accumulate" />
          <path
             id="path17765"
             transform="matrix(0.26458334,0,0,0.26458334,-6.3049604e-6,18.562493)"
             d="m -1933.2188,-1452.4375 c -0.01,-4e-4 0.01,0.083 0.031,0.1875 0.019,-0.038 0.047,-0.087 0.031,-0.125 -0.023,-0.059 -0.057,-0.062 -0.063,-0.062 z m 0.031,0.1875 c 0.2782,2.2225 -7.6325,4.1525 -19.9063,5.625 20.0277,67.8397 37.5728,146.3647 18.4688,165.4688 -35.1965,35.1965 -187.716,31.6787 -190.0625,-15.25 -0.04,-0.7938 -0.07,-1.5409 -0.125,-2.25 -2.0991,9.5954 -3.4063,16.5666 -3.4063,19.25 0,53.4558 53.8353,96.7812 120.25,96.7812 66.4151,0 120.25,-43.3254 120.25,-96.7812 l -0.3437,-7.2188 c -1.1916,-12.8394 -44.0825,-160.882 -45.125,-165.625 z"
             style="color:#000000;fill:#d1ad43;fill-opacity:1;fill-rule:nonzero;stroke:none;stroke-width:12;marker:none;visibility:visible;display:inline;overflow:visible;enable-background:accumulate"
             inkscape:connector-curvature="0" />
        </g>
      </g>
      <g
         id="g18408"
         transform="matrix(0.94657007,0,0,0.91871272,167.48509,221.40867)">
        <g
           id="g18410">
          <path
             sodipodi:nodetypes="ccccccccc"
             inkscape:connector-curvature="0"
             id="path18412"
             d="m 268.19738,74.786337 39.42255,0 5.04422,1.805939 c 0.31041,-0.59786 10e-6,-1.316781 0.15521,-3.382116 0,-1.63053 -8.59848,-2.455358 -25.82714,-2.455358 -19.86709,0 -25.62854,1.305845 -25.78374,2.827672 0.1552,1.73923 0.0857,3.091329 0.0857,3.091329 l 7.11471,-1.630374 z"
             style="color:#000000;fill:#eec85d;fill-opacity:1;fill-rule:nonzero;stroke:none;stroke-width:10;marker:none;visibility:visible;display:inline;overflow:visible;enable-background:accumulate" />
          <path
             style="color:#000000;fill:#eec85d;fill-opacity:1;fill-rule:nonzero;stroke:#6a5b1d;stroke-width:10;stroke-linejoin:round;stroke-miterlimit:4;stroke-opacity:1;stroke-dasharray:none;marker:none;visibility:visible;display:inline;overflow:visible;enable-background:accumulate"
             d="m 1077.8125,186.90625 c -69.578,0.51575 -86.5625,8.88572 -86.5625,16.46875 0.43204,4.84162 0.38885,11.3364 0.34375,14.4375 -0.18846,0.3393 -0.30917,0.69215 -0.34375,1.03125 -0.0928,0.24264 0.0203,0.46294 0.3125,0.6875 -1.1e-4,0.004 0,0.0937 0,0.0937 0.0312,-0.011 0.0625,-0.0203 0.0937,-0.0312 2.63531,1.78846 12.341,2.91007 18.5313,2.1875 l 0.375,-2.90625 c 0,-5.7059 56.4089,-13.92924 101.2813,-12.55151 17.9931,2.19128 48.2026,3.51317 55.3694,12.55151 l 0,3.53125 c 0,0 14.8052,-0.0236 15.0993,-3.9375 0,-0.24822 -0.082,-0.50527 -0.1875,-0.75 0.378,-2.9146 -0.2934,-8.10036 0.1875,-14.5 0,-8.6514 -32.5088,-16.3125 -97.625,-16.3125 -2.3465,0 -4.6305,-0.0166 -6.875,0 z"
             transform="matrix(0.26458334,0,0,0.26458334,-6.3049604e-6,18.562493)"
             id="path18414"
             inkscape:connector-curvature="0"
             sodipodi:nodetypes="cccccccccccccccssc" />
          <path
             style="color:#000000;fill:#eec85d;fill-opacity:1;fill-rule:nonzero;stroke:#6a5b1d;stroke-width:0.05858524;stroke-linejoin:round;stroke-miterlimit:4;stroke-opacity:1;stroke-dasharray:none;marker:none;visibility:visible;display:inline;overflow:visible;enable-background:accumulate"
             d="m 268.19738,74.786337 39.42255,0 5.04422,1.805939 c 0.31041,-0.59786 10e-6,-2.194763 0.15521,-4.260098 0,-2.289017 -8.59848,-4.321071 -25.82714,-4.321071 -19.86709,0 -24.72541,2.293076 -24.72541,4.364141 0.1552,1.73923 0.0857,4.298555 0.0857,4.298555 l 6.05638,-1.630374 z"
             id="path18416"
             inkscape:connector-curvature="0"
             sodipodi:nodetypes="ccccccccc" />
          <path
             style="color:#000000;fill:#9c8135;fill-opacity:1;fill-rule:nonzero;stroke:none;stroke-width:10;marker:none;visibility:visible;display:inline;overflow:visible;enable-background:accumulate"
             d="m 267.37427,76.471217 c 0,-2.507655 41.25274,-1.704392 41.12364,0 l 0,0.932663 c 0,0 4.24364,-0.0058 4.32145,-1.041365 0,-1.630529 -8.59848,-2.998868 -25.82714,-2.998868 -19.86709,0 -24.57021,1.577601 -24.72541,3.099427 -0.22456,0.586956 3.14539,0.998819 5.00787,0.781414 z"
             id="path18418"
             inkscape:connector-curvature="0"
             sodipodi:nodetypes="cccccccc" />
        </g>
      </g>
      <g
         transform="matrix(1.029326,0,0,0.91871272,144.27724,114.79111)"
         id="g18420">
        <g
           id="g18422">
          <path
             style="color:#000000;fill:#eec85d;fill-opacity:1;fill-rule:nonzero;stroke:none;stroke-width:10;marker:none;visibility:visible;display:inline;overflow:visible;enable-background:accumulate"
             d="m 268.19738,74.786337 39.42255,0 5.04422,1.805939 c 0.31041,-0.59786 10e-6,-1.316781 0.15521,-3.382116 0,-1.63053 -8.59848,-2.455358 -25.82714,-2.455358 -19.86709,0 -25.62854,1.305845 -25.78374,2.827672 0.1552,1.73923 0.0857,3.091329 0.0857,3.091329 l 7.11471,-1.630374 z"
             id="path18424"
             inkscape:connector-curvature="0"
             sodipodi:nodetypes="ccccccccc" />
          <path
             sodipodi:nodetypes="cccccccccccccccssc"
             inkscape:connector-curvature="0"
             id="path18426"
             transform="matrix(0.26458334,0,0,0.26458334,-6.3049604e-6,18.562493)"
             d="m 1077.8125,186.90625 c -69.578,0.51575 -86.5625,8.88572 -86.5625,16.46875 0.43204,4.84162 0.38885,11.3364 0.34375,14.4375 -0.18846,0.3393 -0.30917,0.69215 -0.34375,1.03125 -0.0928,0.24264 0.0203,0.46294 0.3125,0.6875 -1.1e-4,0.004 0,0.0937 0,0.0937 0.0312,-0.011 0.0625,-0.0203 0.0937,-0.0312 2.63531,1.78846 12.341,2.91007 18.5313,2.1875 l 0.375,-2.90625 c 0,-5.7059 56.4089,-13.92924 101.2813,-12.55151 17.9931,2.19128 48.2026,3.51317 55.3694,12.55151 l 0,3.53125 c 0,0 14.8052,-0.0236 15.0993,-3.9375 0,-0.24822 -0.082,-0.50527 -0.1875,-0.75 0.378,-2.9146 -0.2934,-8.10036 0.1875,-14.5 0,-8.6514 -32.5088,-16.3125 -97.625,-16.3125 -2.3465,0 -4.6305,-0.0166 -6.875,0 z"
             style="color:#000000;fill:#eec85d;fill-opacity:1;fill-rule:nonzero;stroke:#6a5b1d;stroke-width:10;stroke-linejoin:round;stroke-miterlimit:4;stroke-opacity:1;stroke-dasharray:none;marker:none;visibility:visible;display:inline;overflow:visible;enable-background:accumulate" />
          <path
             sodipodi:nodetypes="ccccccccc"
             inkscape:connector-curvature="0"
             id="path18428"
             d="m 268.19738,74.786337 39.42255,0 5.04422,1.805939 c 0.31041,-0.59786 10e-6,-2.194763 0.15521,-4.260098 0,-2.289017 -8.59848,-4.321071 -25.82714,-4.321071 -19.86709,0 -24.72541,2.293076 -24.72541,4.364141 0.1552,1.73923 0.0857,4.298555 0.0857,4.298555 l 6.05638,-1.630374 z"
             style="color:#000000;fill:#eec85d;fill-opacity:1;fill-rule:nonzero;stroke:none;stroke-width:0;marker:none;visibility:visible;display:inline;overflow:visible;enable-background:accumulate" />
          <path
             sodipodi:nodetypes="cccccccc"
             inkscape:connector-curvature="0"
             id="path18430"
             d="m 267.37427,76.471217 c 0,-2.507655 41.25274,-1.704392 41.12364,0 l 0,0.932663 c 0,0 4.24364,-0.0058 4.32145,-1.041365 0,-1.630529 -8.59848,-2.998868 -25.82714,-2.998868 -19.86709,0 -24.57021,1.577601 -24.72541,3.099427 -0.22456,0.586956 3.14539,0.998819 5.00787,0.781414 z"
             style="color:#000000;fill:#9c8135;fill-opacity:1;fill-rule:nonzero;stroke:none;stroke-width:10;marker:none;visibility:visible;display:inline;overflow:visible;enable-background:accumulate" />
        </g>
      </g>
      <g
         id="g18432"
         transform="matrix(1.029326,0,0,0.91871272,144.27724,125.53243)">
        <g
           id="g18434">
          <path
             sodipodi:nodetypes="ccccccccc"
             inkscape:connector-curvature="0"
             id="path18436"
             d="m 268.19738,74.786337 39.42255,0 5.04422,1.805939 c 0.31041,-0.59786 10e-6,-1.316781 0.15521,-3.382116 0,-1.63053 -8.59848,-2.455358 -25.82714,-2.455358 -19.86709,0 -25.62854,1.305845 -25.78374,2.827672 0.1552,1.73923 0.0857,3.091329 0.0857,3.091329 l 7.11471,-1.630374 z"
             style="color:#000000;fill:#eec85d;fill-opacity:1;fill-rule:nonzero;stroke:none;stroke-width:10;marker:none;visibility:visible;display:inline;overflow:visible;enable-background:accumulate" />
          <path
             style="color:#000000;fill:#eec85d;fill-opacity:1;fill-rule:nonzero;stroke:#6a5b1d;stroke-width:10;stroke-linejoin:round;stroke-miterlimit:4;stroke-opacity:1;stroke-dasharray:none;marker:none;visibility:visible;display:inline;overflow:visible;enable-background:accumulate"
             d="m 1077.8125,186.90625 c -69.578,0.51575 -86.5625,8.88572 -86.5625,16.46875 0.43204,4.84162 0.38885,11.3364 0.34375,14.4375 -0.18846,0.3393 -0.30917,0.69215 -0.34375,1.03125 -0.0928,0.24264 0.0203,0.46294 0.3125,0.6875 -1.1e-4,0.004 0,0.0937 0,0.0937 0.0312,-0.011 0.0625,-0.0203 0.0937,-0.0312 2.63531,1.78846 12.341,2.91007 18.5313,2.1875 l 0.375,-2.90625 c 0,-5.7059 56.4089,-13.92924 101.2813,-12.55151 17.9931,2.19128 48.2026,3.51317 55.3694,12.55151 l 0,3.53125 c 0,0 14.8052,-0.0236 15.0993,-3.9375 0,-0.24822 -0.082,-0.50527 -0.1875,-0.75 0.378,-2.9146 -0.2934,-8.10036 0.1875,-14.5 0,-8.6514 -32.5088,-16.3125 -97.625,-16.3125 -2.3465,0 -4.6305,-0.0166 -6.875,0 z"
             transform="matrix(0.26458334,0,0,0.26458334,-6.3049604e-6,18.562493)"
             id="path18438"
             inkscape:connector-curvature="0"
             sodipodi:nodetypes="cccccccccccccccssc" />
          <path
             style="color:#000000;fill:#eec85d;fill-opacity:1;fill-rule:nonzero;stroke:none;stroke-width:0;marker:none;visibility:visible;display:inline;overflow:visible;enable-background:accumulate"
             d="m 268.19738,74.786337 39.42255,0 5.04422,1.805939 c 0.31041,-0.59786 10e-6,-2.194763 0.15521,-4.260098 0,-2.289017 -8.59848,-4.321071 -25.82714,-4.321071 -19.86709,0 -24.72541,2.293076 -24.72541,4.364141 0.1552,1.73923 0.0857,4.298555 0.0857,4.298555 l 6.05638,-1.630374 z"
             id="path18440"
             inkscape:connector-curvature="0"
             sodipodi:nodetypes="ccccccccc" />
          <path
             style="color:#000000;fill:#9c8135;fill-opacity:1;fill-rule:nonzero;stroke:none;stroke-width:10;marker:none;visibility:visible;display:inline;overflow:visible;enable-background:accumulate"
             d="m 267.37427,76.471217 c 0,-2.507655 41.25274,-1.704392 41.12364,0 l 0,0.932663 c 0,0 4.24364,-0.0058 4.32145,-1.041365 0,-1.630529 -8.59848,-2.998868 -25.82714,-2.998868 -19.86709,0 -24.57021,1.577601 -24.72541,3.099427 -0.22456,0.586956 3.14539,0.998819 5.00787,0.781414 z"
             id="path18442"
             inkscape:connector-curvature="0"
             sodipodi:nodetypes="cccccccc" />
        </g>
      </g>
      <g
         transform="matrix(1.029326,0,0,0.91871272,144.27724,135.87593)"
         id="g18444">
        <g
           id="g18446">
          <path
             style="color:#000000;fill:#eec85d;fill-opacity:1;fill-rule:nonzero;stroke:none;stroke-width:10;marker:none;visibility:visible;display:inline;overflow:visible;enable-background:accumulate"
             d="m 268.19738,74.786337 39.42255,0 5.04422,1.805939 c 0.31041,-0.59786 10e-6,-1.316781 0.15521,-3.382116 0,-1.63053 -8.59848,-2.455358 -25.82714,-2.455358 -19.86709,0 -25.62854,1.305845 -25.78374,2.827672 0.1552,1.73923 0.0857,3.091329 0.0857,3.091329 l 7.11471,-1.630374 z"
             id="path18448"
             inkscape:connector-curvature="0"
             sodipodi:nodetypes="ccccccccc" />
          <path
             sodipodi:nodetypes="cccccccccccccccssc"
             inkscape:connector-curvature="0"
             id="path18450"
             transform="matrix(0.26458334,0,0,0.26458334,-6.3049604e-6,18.562493)"
             d="m 1077.8125,186.90625 c -69.578,0.51575 -86.5625,8.88572 -86.5625,16.46875 0.43204,4.84162 0.38885,11.3364 0.34375,14.4375 -0.18846,0.3393 -0.30917,0.69215 -0.34375,1.03125 -0.0928,0.24264 0.0203,0.46294 0.3125,0.6875 -1.1e-4,0.004 0,0.0937 0,0.0937 0.0312,-0.011 0.0625,-0.0203 0.0937,-0.0312 2.63531,1.78846 12.341,2.91007 18.5313,2.1875 l 0.375,-2.90625 c 0,-5.7059 56.4089,-13.92924 101.2813,-12.55151 17.9931,2.19128 48.2026,3.51317 55.3694,12.55151 l 0,3.53125 c 0,0 14.8052,-0.0236 15.0993,-3.9375 0,-0.24822 -0.082,-0.50527 -0.1875,-0.75 0.378,-2.9146 -0.2934,-8.10036 0.1875,-14.5 0,-8.6514 -32.5088,-16.3125 -97.625,-16.3125 -2.3465,0 -4.6305,-0.0166 -6.875,0 z"
             style="color:#000000;fill:#eec85d;fill-opacity:1;fill-rule:nonzero;stroke:#6a5b1d;stroke-width:10;stroke-linejoin:round;stroke-miterlimit:4;stroke-opacity:1;stroke-dasharray:none;marker:none;visibility:visible;display:inline;overflow:visible;enable-background:accumulate" />
          <path
             sodipodi:nodetypes="ccccccccc"
             inkscape:connector-curvature="0"
             id="path18452"
             d="m 268.19738,74.786337 39.42255,0 5.04422,1.805939 c 0.31041,-0.59786 10e-6,-2.194763 0.15521,-4.260098 0,-2.289017 -8.59848,-4.321071 -25.82714,-4.321071 -19.86709,0 -24.72541,2.293076 -24.72541,4.364141 0.1552,1.73923 0.0857,4.298555 0.0857,4.298555 l 6.05638,-1.630374 z"
             style="color:#000000;fill:#eec85d;fill-opacity:1;fill-rule:nonzero;stroke:none;stroke-width:0;marker:none;visibility:visible;display:inline;overflow:visible;enable-background:accumulate" />
          <path
             sodipodi:nodetypes="cccccccc"
             inkscape:connector-curvature="0"
             id="path18454"
             d="m 267.37427,76.471217 c 0,-2.507655 41.25274,-1.704392 41.12364,0 l 0,0.932663 c 0,0 4.24364,-0.0058 4.32145,-1.041365 0,-1.630529 -8.59848,-2.998868 -25.82714,-2.998868 -19.86709,0 -24.57021,1.577601 -24.72541,3.099427 -0.22456,0.586956 3.14539,0.998819 5.00787,0.781414 z"
             style="color:#000000;fill:#9c8135;fill-opacity:1;fill-rule:nonzero;stroke:none;stroke-width:10;marker:none;visibility:visible;display:inline;overflow:visible;enable-background:accumulate" />
        </g>
      </g>
      <g
         transform="matrix(0.99170965,0,0,-0.91871272,155.69425,392.8017)"
         id="g18456">
        <g
           id="g18458">
          <path
             style="color:#000000;fill:#eec85d;fill-opacity:1;fill-rule:nonzero;stroke:none;stroke-width:10;marker:none;visibility:visible;display:inline;overflow:visible;enable-background:accumulate"
             d="m 268.19738,74.786337 39.42255,0 5.04422,1.805939 c 0.31041,-0.59786 10e-6,-1.316781 0.15521,-3.382116 0,-1.63053 -8.59848,-2.455358 -25.82714,-2.455358 -19.86709,0 -25.62854,1.305845 -25.78374,2.827672 0.1552,1.73923 0.0857,3.091329 0.0857,3.091329 l 7.11471,-1.630374 z"
             id="path18460"
             inkscape:connector-curvature="0"
             sodipodi:nodetypes="ccccccccc" />
          <path
             sodipodi:nodetypes="cccccccccccccccssc"
             inkscape:connector-curvature="0"
             id="path18462"
             transform="matrix(0.26458334,0,0,0.26458334,-6.3049604e-6,18.562493)"
             d="m 1077.8125,186.90625 c -69.578,0.51575 -86.5625,8.88572 -86.5625,16.46875 0.43204,4.84162 0.38885,11.3364 0.34375,14.4375 -0.18846,0.3393 -0.30917,0.69215 -0.34375,1.03125 -0.0928,0.24264 0.0203,0.46294 0.3125,0.6875 -1.1e-4,0.004 0,0.0937 0,0.0937 0.0312,-0.011 0.0625,-0.0203 0.0937,-0.0312 2.63531,1.78846 12.341,2.91007 18.5313,2.1875 l 0.375,-2.90625 c 0,-5.7059 56.4089,-13.92924 101.2813,-12.55151 17.9931,2.19128 48.2026,3.51317 55.3694,12.55151 l 0,3.53125 c 0,0 14.8052,-0.0236 15.0993,-3.9375 0,-0.24822 -0.082,-0.50527 -0.1875,-0.75 0.378,-2.9146 -0.2934,-8.10036 0.1875,-14.5 0,-8.6514 -32.5088,-16.3125 -97.625,-16.3125 -2.3465,0 -4.6305,-0.0166 -6.875,0 z"
             style="color:#000000;fill:#eec85d;fill-opacity:1;fill-rule:nonzero;stroke:#6a5b1d;stroke-width:10;stroke-linejoin:round;stroke-miterlimit:4;stroke-opacity:1;stroke-dasharray:none;marker:none;visibility:visible;display:inline;overflow:visible;enable-background:accumulate" />
          <path
             sodipodi:nodetypes="ccccccccc"
             inkscape:connector-curvature="0"
             id="path18464"
             d="m 268.19738,74.786337 39.42255,0 5.04422,1.805939 c 0.31041,-0.59786 10e-6,-2.194763 0.15521,-4.260098 0,-2.289017 -8.59848,-4.321071 -25.82714,-4.321071 -19.86709,0 -24.72541,2.293076 -24.72541,4.364141 0.1552,1.73923 0.0857,4.298555 0.0857,4.298555 l 6.05638,-1.630374 z"
             style="color:#000000;fill:#eec85d;fill-opacity:1;fill-rule:nonzero;stroke:#6a5b1d;stroke-width:0.05858524;stroke-linejoin:round;stroke-miterlimit:4;stroke-opacity:1;stroke-dasharray:none;marker:none;visibility:visible;display:inline;overflow:visible;enable-background:accumulate" />
          <path
             sodipodi:nodetypes="cccccccc"
             inkscape:connector-curvature="0"
             id="path18466"
             d="m 267.37427,76.471217 c 0,-2.507655 41.25274,-1.704392 41.12364,0 l 0,0.932663 c 0,0 4.24364,-0.0058 4.32145,-1.041365 0,-1.630529 -8.59848,-2.998868 -25.82714,-2.998868 -19.86709,0 -24.57021,1.577601 -24.72541,3.099427 -0.22456,0.586956 3.14539,0.998819 5.00787,0.781414 z"
             style="color:#000000;fill:#9c8135;fill-opacity:1;fill-rule:nonzero;stroke:none;stroke-width:10;marker:none;visibility:visible;display:inline;overflow:visible;enable-background:accumulate" />
        </g>
      </g>
    </g>
  </g>
</svg>
