<?xml version="1.0" encoding="UTF-8" standalone="no"?>
<!-- Created with Inkscape (http://www.inkscape.org/) -->

<svg
   xmlns:dc="http://purl.org/dc/elements/1.1/"
   xmlns:cc="http://creativecommons.org/ns#"
   xmlns:rdf="http://www.w3.org/1999/02/22-rdf-syntax-ns#"
   xmlns:svg="http://www.w3.org/2000/svg"
   xmlns="http://www.w3.org/2000/svg"
   xmlns:xlink="http://www.w3.org/1999/xlink"
   xmlns:sodipodi="http://sodipodi.sourceforge.net/DTD/sodipodi-0.dtd"
   xmlns:inkscape="http://www.inkscape.org/namespaces/inkscape"
   width="444.25433"
   height="213.5986"
   viewBox="0 0 117.54229 56.514631"
   version="1.1"
   id="svg23489"
   inkscape:version="0.48.5 r10040"
   sodipodi:docname="pillar_top_block.svg">
  <defs
     id="defs23483">
    <linearGradient
       inkscape:collect="always"
       xlink:href="#linearGradient39048"
       id="linearGradient40179"
       gradientUnits="userSpaceOnUse"
       x1="287.13263"
       y1="-106.38255"
       x2="275.689"
       y2="-130.61598" />
    <linearGradient
       id="linearGradient39048"
       inkscape:collect="always">
      <stop
         id="stop39050"
         offset="0"
         style="stop-color:#ffa800;stop-opacity:1" />
      <stop
         id="stop39052"
         offset="1"
         style="stop-color:#ffcc00;stop-opacity:1" />
    </linearGradient>
  </defs>
  <sodipodi:namedview
     id="base"
     pagecolor="#7d848b"
     bordercolor="#666666"
     borderopacity="1.0"
     inkscape:pageopacity="1"
     inkscape:pageshadow="2"
     inkscape:zoom="0.42617864"
     inkscape:cx="606.90889"
     inkscape:cy="-118.91478"
     inkscape:document-units="px"
     inkscape:current-layer="layer1"
     showgrid="false"
     inkscape:pagecheckerboard="false"
     showborder="true"
     units="px"
     inkscape:window-width="1920"
     inkscape:window-height="1017"
     inkscape:window-x="-8"
     inkscape:window-y="-8"
     inkscape:window-maximized="1"
     inkscape:showpageshadow="false"
     guidetolerance="28"
     fit-margin-top="25"
     fit-margin-left="25"
     fit-margin-right="25"
     fit-margin-bottom="25">
    <inkscape:grid
       type="xygrid"
       id="grid24034"
       spacingx="1px"
       spacingy="1px"
       empspacing="8"
       visible="true"
       enabled="true"
       snapvisiblegridlinesonly="true"
       originx="-25.202355px"
       originy="-402.16694px" />
  </sodipodi:namedview>
  <metadata
     id="metadata23486">
    <rdf:RDF>
      <cc:Work
         rdf:about="">
        <dc:format>image/svg+xml</dc:format>
        <dc:type
           rdf:resource="http://purl.org/dc/dcmitype/StillImage" />
        <dc:title></dc:title>
        <cc:license
           rdf:resource="" />
        <dc:creator>
          <cc:Agent>
            <dc:title>Robert Brooks</dc:title>
          </cc:Agent>
        </dc:creator>
      </cc:Work>
    </rdf:RDF>
  </metadata>
  <g
     inkscape:label="Layer 1"
     inkscape:groupmode="layer"
     id="layer1"
     transform="translate(-6.6681239,-134.07869)">
    <g
       id="g40173"
       transform="translate(-213.74792,278.72874)">
      <path
         style="color:#000000;fill:#fff900;fill-opacity:1;fill-rule:nonzero;stroke:#6a5b1d;stroke-width:3.17499995;stroke-miterlimit:4;stroke-opacity:1;stroke-dasharray:none;marker:none;visibility:visible;display:inline;overflow:visible;enable-background:accumulate"
         d="m 228.62864,-123.17084 -0.0218,2.89482 c -0.13491,17.91413 22.64756,23.943198 50.57746,23.943198 27.9299,0 50.57017,-6.028558 50.57017,-23.943198 l -0.0436,-2.70174 c 0,-17.38326 -101.0822,-18.44221 -101.0822,-0.19308 z"
         id="path39026"
         inkscape:connector-curvature="0"
         sodipodi:nodetypes="csscccc" />
      <path
         sodipodi:nodetypes="csscccc"
         inkscape:connector-curvature="0"
         id="path39010"
         d="m 228.62864,-123.17084 -0.0218,2.89482 c -0.13491,17.91413 22.64756,23.943198 50.57746,23.943198 27.9299,0 50.57017,-6.028558 50.57017,-23.943198 l -0.0436,-2.70174 c 0,-17.38326 -101.0822,-18.44221 -101.0822,-0.19308 z"
         style="color:#000000;fill:url(#linearGradient40179);fill-opacity:1;fill-rule:nonzero;stroke:none;stroke-width:16.8849659;marker:none;visibility:visible;display:inline;overflow:visible;enable-background:accumulate" />
      <path
         transform="matrix(0.26458334,0,0,0.26458334,-6.3049604e-6,18.562493)"
         sodipodi:nodetypes="csccscccc"
         inkscape:connector-curvature="0"
         id="path39041"
         d="m 1241.1562,-547.40625 c -0.5382,2.89184 -3.3294,6.16662 -1.6562,8.875 15.9813,25.8683 -325.99154,111.62495 -375.4375,8.375 l -0.0312,5.40625 c -0.5099,67.70695 85.59443,90.5 191.1563,90.5 105.5618,0 191.125,-22.79113 191.125,-90.5 l -0.1563,-10.21875 c 0,-4.4309 -1.7591,-8.5713 -5,-12.4375 z"
         style="opacity:0.18584068;color:#000000;fill:#d40000;fill-opacity:1;fill-rule:nonzero;stroke:none;stroke-width:12;marker:none;visibility:visible;display:inline;overflow:visible;enable-background:accumulate" />
      <path
         sodipodi:nodetypes="sccccccs"
         inkscape:connector-curvature="0"
         id="path39028"
         transform="matrix(0.26458334,0,0,0.26458334,-6.3049604e-6,18.562493)"
         d="m 1046.1875,-585.84375 c -92.43567,0.44757 -182.09375,16.74741 -182.09375,50.15625 l -0.0625,10.9375 c -0.008,1.09022 -0.005,2.18298 0.0312,3.25 -0.80854,-51.21321 370.52395,-51.28531 382.18755,0 0.044,-1.06702 0.062,-2.15978 0.062,-3.25 l -0.1563,-10.21875 c 0,-33.87682 -101.5694,-51.35144 -199.9687,-50.875 z"
         style="color:#000000;fill:#ffff00;fill-opacity:1;fill-rule:nonzero;stroke:none;stroke-width:12;marker:none;visibility:visible;display:inline;overflow:visible;enable-background:accumulate" />
    </g>
  </g>
</svg>
