<?xml version="1.0" encoding="UTF-8" standalone="no"?>
<!-- Created with Inkscape (http://www.inkscape.org/) -->

<svg
   xmlns:dc="http://purl.org/dc/elements/1.1/"
   xmlns:cc="http://creativecommons.org/ns#"
   xmlns:rdf="http://www.w3.org/1999/02/22-rdf-syntax-ns#"
   xmlns:svg="http://www.w3.org/2000/svg"
   xmlns="http://www.w3.org/2000/svg"
   xmlns:xlink="http://www.w3.org/1999/xlink"
   xmlns:sodipodi="http://sodipodi.sourceforge.net/DTD/sodipodi-0.dtd"
   xmlns:inkscape="http://www.inkscape.org/namespaces/inkscape"
   width="320.884"
   height="865.55103"
   viewBox="0 0 84.900556 229.01038"
   version="1.1"
   id="svg23489"
   inkscape:version="0.48.5 r10040"
   sodipodi:docname="pillar_07_side_scroller_base.svg">
  <defs
     id="defs23483">
    <linearGradient
       inkscape:collect="always"
       xlink:href="#linearGradient31565"
       id="linearGradient26501"
       gradientUnits="userSpaceOnUse"
       x1="-1431.589"
       y1="12111.613"
       x2="-1252.7432"
       y2="12115.519" />
    <linearGradient
       id="linearGradient31565">
      <stop
         style="stop-color:#ffcc00;stop-opacity:1;"
         offset="0"
         id="stop31567" />
      <stop
         id="stop31575"
         offset="0.5"
         style="stop-color:#ffff00;stop-opacity:1" />
      <stop
         style="stop-color:#ffcc00;stop-opacity:1"
         offset="1"
         id="stop31569" />
    </linearGradient>
    <linearGradient
       inkscape:collect="always"
       xlink:href="#linearGradient31565"
       id="linearGradient26519"
       gradientUnits="userSpaceOnUse"
       x1="-1431.589"
       y1="12111.613"
       x2="-1252.7432"
       y2="12115.519" />
    <linearGradient
       id="linearGradient10809">
      <stop
         style="stop-color:#ffcc00;stop-opacity:1;"
         offset="0"
         id="stop10811" />
      <stop
         id="stop10813"
         offset="0.5"
         style="stop-color:#ffff00;stop-opacity:1" />
      <stop
         style="stop-color:#ffcc00;stop-opacity:1"
         offset="1"
         id="stop10815" />
    </linearGradient>
  </defs>
  <sodipodi:namedview
     id="base"
     pagecolor="#7d848b"
     bordercolor="#666666"
     borderopacity="1.0"
     inkscape:pageopacity="1"
     inkscape:pageshadow="2"
     inkscape:zoom="0.21308932"
     inkscape:cx="-23.716158"
     inkscape:cy="1001.3463"
     inkscape:document-units="px"
     inkscape:current-layer="layer1"
     showgrid="false"
     inkscape:pagecheckerboard="false"
     showborder="true"
     units="px"
     inkscape:window-width="1920"
     inkscape:window-height="1017"
     inkscape:window-x="-8"
     inkscape:window-y="-8"
     inkscape:window-maximized="1"
     inkscape:showpageshadow="false"
     guidetolerance="28"
     fit-margin-top="25"
     fit-margin-left="25"
     fit-margin-right="25"
     fit-margin-bottom="25">
    <inkscape:grid
       type="xygrid"
       id="grid24034"
       spacingx="1px"
       spacingy="1px"
       empspacing="8"
       visible="true"
       enabled="true"
       snapvisiblegridlinesonly="true"
       originx="-1175.7348px"
       originy="256.13624px" />
  </sodipodi:namedview>
  <metadata
     id="metadata23486">
    <rdf:RDF>
      <cc:Work
         rdf:about="">
        <dc:format>image/svg+xml</dc:format>
        <dc:type
           rdf:resource="http://purl.org/dc/dcmitype/StillImage" />
        <dc:title></dc:title>
        <cc:license
           rdf:resource="" />
        <dc:creator>
          <cc:Agent>
            <dc:title>Robert Brooks</dc:title>
          </cc:Agent>
        </dc:creator>
      </cc:Work>
    </rdf:RDF>
  </metadata>
  <g
     inkscape:label="Layer 1"
     inkscape:groupmode="layer"
     id="layer1"
     transform="translate(-311.07985,-135.75898)">
    <g
       id="g20818"
       transform="translate(-507.9085,715.80273)">
      <g
         transform="translate(618.05237,182.32803)"
         id="g20148">
        <g
           id="g20128">
          <g
             id="g20106">
            <path
               inkscape:connector-curvature="0"
               id="path20104"
               d="m 237.70149,-752.66593 c 6.56414,-1.3924 10.54241,0.19891 10.54241,0.19891 l 1.79022,4.17719 2.9837,1.59131 0.19891,3.58045 0.79566,7.55869 6.16631,1.3924 c 0,0 0.99457,2.98371 0.99457,3.77936 0,0.79566 0,6.1663 0,6.1663 l -1.98914,16.90764 c 0,0 -16.90763,-8.35435 -19.49351,-14.52067 -2.58587,-6.1663 -3.97827,-18.69787 -4.575,-21.28372 -0.59675,-2.58588 0.39782,-3.97828 0.59673,-4.97285 0.19892,-0.99456 1.98914,-4.57501 1.98914,-4.57501 z"
               style="color:#000000;fill:#d5b352;fill-opacity:1;fill-rule:nonzero;stroke:#6a5b1d;stroke-width:3.17500019;stroke-linejoin:round;stroke-miterlimit:4;stroke-opacity:1;stroke-dasharray:none;marker:none;visibility:visible;display:inline;overflow:visible;enable-background:accumulate" />
            <path
               style="color:#000000;fill:#aa8e3f;fill-opacity:1;fill-rule:nonzero;stroke:none;stroke-width:5;marker:none;visibility:visible;display:inline;overflow:visible;enable-background:accumulate"
               d="m 237.70149,-752.66593 c 6.56414,-1.3924 10.54241,0.19891 10.54241,0.19891 l 1.79022,4.17719 2.9837,1.59131 0.19891,3.58045 0.79566,7.55869 6.16631,1.3924 c 0,0 0.99457,2.98371 0.99457,3.77936 0,0.79566 0,6.1663 0,6.1663 l -1.98914,16.90764 c 0,0 -16.90763,-8.35435 -19.49351,-14.52067 -2.58587,-6.1663 -3.97827,-18.69787 -4.575,-21.28372 -0.59675,-2.58588 0.39782,-3.97828 0.59673,-4.97285 0.19892,-0.99456 1.98914,-4.57501 1.98914,-4.57501 z"
               id="path20102"
               inkscape:connector-curvature="0" />
            <path
               inkscape:connector-curvature="0"
               id="path20125"
               transform="matrix(0.26458334,0,0,0.26458334,-6.3049604e-6,18.562493)"
               d="m 918.625,-2917.0312 c -5.68346,-0.03 -12.46583,0.5116 -20.21875,2.1562 0,0 -2.93516,5.8763 -5.15625,10.9688 16.53136,-1.3758 35.48321,-2.5289 38.96875,-0.4376 3.759,2.2555 3.02226,11.2813 6.78125,11.2813 3.75899,0 12.03125,3.75 12.03125,3.75 l 7.375,23.6875 -1.375,-13.1562 -0.75,-13.5313 -11.28125,-6.0313 -6.75,-15.7812 c 0,0 -7.12139,-2.8396 -19.625,-2.9062 z m 49.03125,68.5312 c -0.83198,2.5649 -0.82914,4.2812 0.65625,4.2812 4.5108,0 10.53125,6.0313 10.53125,6.0313 0,0 2.26686,16.5313 8.28125,16.5313 l 0,-9.0313 c 0,-3.0072 -3.78125,-14.2813 -3.78125,-14.2813 l -15.6875,-3.5312 z"
               style="opacity:0.30973451;color:#000000;fill:#eec85d;fill-opacity:1;fill-rule:nonzero;stroke:none;stroke-width:5;marker:none;visibility:visible;display:inline;overflow:visible;enable-background:accumulate" />
          </g>
          <g
             transform="matrix(1.010705,0,0,1.010705,104.71775,-822.10397)"
             id="g20066">
            <g
               id="g20068"
               transform="translate(116.24253,40.16349)">
              <g
                 id="g20070"
                 transform="matrix(0.90934944,0,0,0.90934944,341.12312,-2833.2001)">
                <g
                   transform="matrix(1.0366626,0,0,1,13.076783,0)"
                   id="g20072">
                  <path
                     sodipodi:nodetypes="ccccsccsccccscccccccc"
                     inkscape:connector-curvature="0"
                     id="path20074"
                     transform="matrix(0.27769614,0,0,0.2878772,-607.69343,3986.1454)"
                     d="m 905.76506,-2921.4964 c -34.57558,0.3636 -60.23381,3.1112 -60.23381,12.9964 0.0303,2.8371 0.0667,31.7357 0.125,67.4062 4.10609,7.0002 4.125,16.6563 4.125,16.6563 0,0 -3.53125,7.0402 -3.53125,12.9063 0,1.1903 -0.22353,6.5377 -0.53125,13.4374 0.0672,39.3217 0.15419,78.1775 0.25,111.4688 1.15122,4.2369 2.20066,8.5247 2.625,12.3438 0.84518,7.6066 -0.13711,16.4274 -2.5,25.5937 0.0563,11.4348 0.12308,20.1015 0.1875,21.5 4.11097,-1.189 144.95443,1.0384 148.0625,-1.0937 -0.0267,-3.5993 -0.014,-42.5237 0,-87.6563 -1.76861,-16.4746 -4.9375,-43.6706 -4.9375,-53.375 0,-5.5664 0.28524,-22.4003 0.6875,-39.875 l -6,-5.6875 -10.5,-12.0312 -0.78125,-33.8438 -6,-17.2812 -48.10567,21.0353 -0.004,-44.3443 z"
                     style="color:#000000;fill:#ffcc00;fill-opacity:1;fill-rule:nonzero;stroke:#6a5b1d;stroke-width:10.1070509;stroke-linejoin:round;stroke-miterlimit:4;stroke-opacity:1;stroke-dasharray:none;marker:none;visibility:visible;display:inline;overflow:visible;enable-background:accumulate" />
                  <path
                     sodipodi:nodetypes="cccccsccscccccscccccccccsc"
                     inkscape:connector-curvature="0"
                     id="path20076"
                     transform="matrix(0.27769614,0,0,0.2878772,-607.69343,3986.1454)"
                     d="m 890.73381,-2922.5276 c -10.02793,-0.016 -16.40264,-1.3888 -25.76506,-0.7849 -11.71131,3.0927 -19.34119,7.4836 -19.46875,13.2187 l 0.1875,69.0626 c 4.07046,6.995 4.09375,16.5937 4.09375,16.5937 0,0 -3.53125,7.0402 -3.53125,12.9063 0,1.0893 -0.17422,5.8077 -0.4375,11.7812 l 0.3125,113.7188 c 1.08644,4.042 2.06418,8.1088 2.46875,11.75 0.82974,7.4676 -0.10536,16.1072 -2.375,25.0937 l 0.0625,22 c 1.5107,0.1232 142.80202,0.579 147.875,-0.4063 l 0.1875,0 0,-88.3437 c -1.76861,-16.4746 -4.9375,-43.6706 -4.9375,-53.375 0,-5.5664 0.28524,-22.4003 0.6875,-39.875 l -6,-5.6875 -10.5,-12.0312 -0.78125,-33.8438 -6,-17.2812 -29.32042,-0.01 -14.27446,-8.2749 -4.51506,-15.0241 -13.53125,-21.0624 c 0,0 -6.13835,-0.1118 -14.4375,-0.125 z"
                     style="color:#000000;fill:#eec85d;fill-opacity:1;fill-rule:nonzero;stroke:none;stroke-width:12;marker:none;visibility:visible;display:inline;overflow:visible;enable-background:accumulate" />
                  <path
                     inkscape:connector-curvature="0"
                     id="path20078"
                     transform="matrix(0.27769614,0,0,0.2878772,-607.69343,3986.1454)"
                     d="m 952.96875,-2878.0312 0,251 c 3.68242,-0.012 7.26808,-0.013 10.625,-0.031 0.64742,0 1.23634,-0.026 1.875,-0.031 1.74551,-0.015 3.50542,-0.019 5.125,-0.031 6.23868,-0.045 11.82635,-0.1129 15.8125,-0.1875 1.98075,-0.037 3.54103,-0.08 4.8125,-0.125 0.16587,-0.01 0.31614,0.01 0.46875,0 1.22372,-0.048 2.16822,-0.098 2.46875,-0.1563 l 0.1875,0 0,-50.9374 c -1.06746,-7.7309 -2.01332,-13.9417 -2.59375,-16.8438 -2.34643,-11.7322 -7.0625,-32.8696 -7.0625,-37.5625 0,-4.6929 0.0286,-19.9268 2.375,-29.3125 1.42683,-5.7073 0.69442,-21.4717 2.53125,-47.4062 l -5.5,-5.2188 -10.5,-12.0312 -0.78125,-33.8438 -6,-17.2812 -13.84375,0 z"
                     style="color:#000000;fill:#d5b352;fill-opacity:1;fill-rule:nonzero;stroke:none;stroke-width:12;marker:none;visibility:visible;display:inline;overflow:visible;enable-background:accumulate" />
                  <path
                     inkscape:connector-curvature="0"
                     id="path20080"
                     transform="matrix(0.27769614,0,0,0.2878772,-607.69343,3986.1454)"
                     d="m 874.15625,-2923.0312 c -16.87739,2.5809 -28.61565,6.8934 -28.65625,12.9374 l 0.1875,69.0626 c 4.07046,6.995 4.09375,16.5937 4.09375,16.5937 0,0 -3.53125,7.0402 -3.53125,12.9063 0,1.0893 -0.17422,5.8077 -0.4375,11.7812 l 0.3125,113.7188 c 1.08644,4.042 2.06418,8.1088 2.46875,11.75 0.82974,7.4676 -0.10536,16.1072 -2.375,25.0937 l 0.0625,22.0313 c 0.4147,0.028 12.10102,0.083 27.875,0.125 l 0,-296 z"
                     style="color:#000000;fill:#f8d67a;fill-opacity:1;fill-rule:nonzero;stroke:none;stroke-width:12;marker:none;visibility:visible;display:inline;overflow:visible;enable-background:accumulate" />
                  <path
                     inkscape:connector-curvature="0"
                     id="path20120"
                     transform="matrix(0.27769614,0,0,0.2878772,-607.69343,3986.1454)"
                     d="m 868.34375,-2923.4375 c -1.08991,0.02 -2.2047,0.05 -3.375,0.125 -11.71131,3.0927 -19.34119,7.4837 -19.46875,13.2187 l 0.0937,37.2813 c 2.0599,-18.3696 5.06429,-34.8137 9.1875,-37.5625 6.76618,-4.5108 16.5625,-3.75 16.5625,-3.75 l 27.8125,-1.5 17.28125,24.0625 -3,12.7813 -10.53125,23.2812 c 0,0 18.8053,27.8312 21.8125,33.0938 3.00719,5.2626 8.25,24.8124 8.25,24.8124 l 1.53125,-18.8124 -20.3125,-42.7813 c 0.006,-0.026 -0.006,-0.036 0,-0.062 1.50359,-6.7662 13.53125,-17.2812 13.53125,-17.2812 0,0 8.27226,7.5 12.03125,7.5 3.75899,0 21.8125,-3 21.8125,-3 l 6,15.7812 -0.75,25.5625 c 0,0 5.2518,2.274 4.5,5.2813 -0.7518,3.0071 -3,21.7812 -3,21.7812 0,0 3,15.7999 3,21.0625 l 0,21.8125 7.53125,-48.125 4.5,6.7812 c 0,0 3.0018,24.7928 2.25,33.0626 -0.51343,5.6477 3.11629,16.7317 5.75,25.2187 -1.07692,-10.5842 -1.9375,-20.4347 -1.9375,-25.5 0,-5.5664 0.28524,-22.4003 0.6875,-39.875 l -6,-5.6875 -10.5,-12.0312 -0.78125,-33.8438 -6,-17.2812 -29.3125,0 -14.28125,-8.2813 -4.53125,-15.0313 -13.53125,-21.0624 c 0,0 -6.13835,-0.1119 -14.4375,-0.125 -8.77444,-0.014 -14.74565,-1.0479 -22.375,-0.9063 z"
                     style="color:#000000;fill:#fae09a;fill-opacity:1;fill-rule:nonzero;stroke:none;stroke-width:12;marker:none;visibility:visible;display:inline;overflow:visible;enable-background:accumulate" />
                  <path
                     style="color:#000000;fill:#ddb850;fill-opacity:1;fill-rule:nonzero;stroke:none;stroke-width:12;marker:none;visibility:visible;display:inline;overflow:visible;enable-background:accumulate"
                     d="m -222.34375,-642.71875 0.0312,6.65625 c 4.07046,6.99508 4.09375,16.59375 4.09375,16.59375 0,0 -0.12713,0.25272 -0.15625,0.3125 4.01726,-2.23654 7.1875,-3.84375 7.1875,-3.84375 0,0 -6.48473,-17.31194 -11.15625,-19.71875 z m 1.125,164.21875 c 0.80435,3.18053 1.4934,6.31556 1.8125,9.1875 0.65073,5.85657 0.18766,12.44356 -1.125,19.34375 6.62384,-7.27609 10.20678,-17.0479 9.34375,-20.5 -0.8031,-3.21241 -4.88908,-3.13679 -10.03125,-8.03125 z"
                     transform="matrix(0.27769614,0,0,0.2878772,-311.11205,3351.3821)"
                     id="path20082"
                     inkscape:connector-curvature="0" />
                  <path
                     inkscape:connector-curvature="0"
                     id="path20115"
                     transform="matrix(0.27769614,0,0,0.2878772,-607.69343,3986.1454)"
                     d="m 921.5,-2891.9688 c 0.30197,4.6723 -0.18274,8.0123 -0.53125,9.4063 -0.7518,3.0072 -12.03125,24.8125 -12.03125,24.8125 l 11.25,20.3125 9.78125,18.0313 c 0,0 0.74461,28.5733 3,24.0624 2.2554,-4.5108 0.75,-25.5624 0.75,-25.5624 L 914.9375,-2858.5 c 0,0 9.55904,-22.0851 11.1875,-26.125 l -2.90625,-1.6875 -1.71875,-5.6563 z m 52.59375,65.625 c -0.99515,7.8564 -2.03125,14.4688 -2.03125,14.4688 0,0 0.77946,16.5445 1.53125,24.0625 0.7518,7.518 -1.53125,29.3125 -1.53125,29.3125 0,0 4.53125,-16.5391 4.53125,-26.3125 0,-9.7734 -1.5018,-24.0757 -0.75,-31.5937 0.13524,-1.3525 0.78479,-3.4116 1.6875,-6 l -3.4375,-3.9376 z"
                     style="color:#000000;fill:#7d6a27;fill-opacity:1;fill-rule:nonzero;stroke:none;stroke-width:12;marker:none;visibility:visible;display:inline;overflow:visible;enable-background:accumulate" />
                </g>
              </g>
              <g
                 transform="translate(0,0.27161195)"
                 id="g20084">
                <path
                   sodipodi:nodetypes="ccccc"
                   inkscape:connector-curvature="0"
                   id="path20086"
                   d="m 152.54817,326.88605 c 0,3.89444 -32.95394,7.05151 -72.700163,7.05151 -39.746223,0 -73.2867725,-3.15707 -73.2867725,-7.05151 3.8129555,-0.0815 33.5405495,-1.24438 73.2867725,-1.24438 39.746223,0 44.836263,-1.18355 72.700163,1.24438 z"
                   style="color:#000000;fill:#ffbb00;fill-opacity:1;fill-rule:nonzero;stroke:#6a5b1d;stroke-width:10;stroke-linecap:round;stroke-linejoin:round;stroke-miterlimit:4;stroke-opacity:1;stroke-dashoffset:0;marker:none;visibility:visible;display:inline;overflow:visible;enable-background:accumulate"
                   transform="matrix(0.26458334,0,0,0.26458334,-6.3049604e-6,16.916276)" />
                <path
                   sodipodi:nodetypes="ssss"
                   inkscape:connector-curvature="0"
                   id="path20088"
                   d="m 152.54817,326.88605 c 0,3.89444 -32.95394,7.05151 -72.700163,7.05151 -39.746223,0 -73.2867725,-3.15707 -73.2867725,-7.05151 0,-15.50871 145.9869355,-12.19035 145.9869355,0 z"
                   style="color:#000000;fill:#9c8135;fill-opacity:1;fill-rule:nonzero;stroke:none;stroke-width:10;marker:none;visibility:visible;display:inline;overflow:visible;enable-background:accumulate"
                   transform="matrix(0.26458334,0,0,0.26458334,-6.3049604e-6,16.916276)" />
              </g>
            </g>
          </g>
        </g>
      </g>
      <g
         id="g20666"
         transform="translate(738.97718,-531.91752)">
        <g
           transform="matrix(0.94278896,0,0,0.94278896,454.34394,-2958.8114)"
           id="g20668">
          <g
             id="g20670"
             transform="matrix(0.96297086,0,0,0.96297086,-13.036687,106.50947)">
            <g
               transform="matrix(1.0366626,0,0,1,13.076783,0)"
               id="g20672">
              <path
                 style="color:#000000;fill:#ffcc00;fill-opacity:1;fill-rule:nonzero;stroke:#6a5b1d;stroke-width:2.5986259;stroke-linejoin:round;stroke-miterlimit:4;stroke-opacity:1;stroke-dasharray:none;marker:none;visibility:visible;display:inline;overflow:visible;enable-background:accumulate"
                 d="m -354.02707,3180.9348 c -5.21299,0.1154 -10.54124,0.3196 -15.52093,2.0722 -1.42034,0.5816 -3.40326,1.5169 -3.34676,3.3854 0.0276,2.6752 0.0955,40.8039 0.21258,43.4389 1.1416,-0.3423 40.25222,0.3051 41.11532,-0.3087 -0.0208,-2.902 0.0421,-39.6275 -0.0319,-42.5221 -0.57066,-1.4459 -2.26316,-1.8857 -3.55726,-2.3799 -5.5636,-1.6502 -11.40006,-3.5543 -17.15732,-3.6829 -0.57104,-0.01 -1.144,-0.01 -1.71372,0 z"
                 id="path20674"
                 inkscape:connector-curvature="0"
                 sodipodi:nodetypes="cccccccccc" />
              <path
                 sodipodi:nodetypes="scccccs"
                 id="path20676"
                 transform="matrix(0.25522609,0,0,0.26458334,-12.614316,18.562493)"
                 d="m -1337.6875,11958.665 c -38.2312,0.286 -74.3371,6.405 -73.9375,20.281 l 0.8438,158.148 c 1.6437,0.134 155.3866,0.634 160.9062,-0.438 0.066,0 0.1223,0 0.1875,0 l 0,-159.366 c 1.3585,-11.795 -44.6713,-18.949 -88,-18.625 z"
                 style="color:#000000;fill:#eec85d;fill-opacity:1;fill-rule:nonzero;stroke:none;stroke-width:12;marker:none;visibility:visible;display:inline;overflow:visible;enable-background:accumulate"
                 inkscape:connector-curvature="0" />
              <path
                 id="path20678"
                 transform="matrix(0.28112368,0,0,0.2914304,-482.30222,3168.8806)"
                 d="m 495.3125,49.125 0,160.1875 c 8.62046,-0.03 16.15654,-0.0635 22.6875,-0.125 1.81258,-0.0178 3.5852,-0.0416 5.15625,-0.0625 0.32013,-0.004 0.471,0.004 0.78125,0 3.20289,-0.0422 6.05814,-0.0998 8.0625,-0.15625 1.06051,-0.0299 1.89454,-0.0595 2.5625,-0.0937 0.0294,-0.002 0.0652,0.002 0.0937,0 0.2511,-0.0132 0.31122,-0.0173 0.5,-0.0312 0.39659,-0.0267 0.68374,-0.0645 0.84375,-0.0937 l 0.1875,0 0,-144.6875 0,-0.96875 C 535.29851,56.515267 517.8524,51.651355 495.3125,49.125 z"
                 style="opacity:0.61061946;color:#000000;fill:#635322;fill-opacity:1;fill-rule:nonzero;stroke:none;stroke-width:12;marker:none;visibility:visible;display:inline;overflow:visible;enable-background:accumulate"
                 inkscape:connector-curvature="0" />
              <path
                 sodipodi:nodetypes="ccccc"
                 inkscape:connector-curvature="0"
                 id="path20680"
                 transform="matrix(0.2650403,0,0,0.27475737,0.44488676,-87.015423)"
                 d="m -1378.5938,11895.331 c -17.8797,3.042 -30.2617,8.371 -30.0312,16.375 l 0.8125,160.232 c 0.4345,0.03 12.6915,0.08 29.2187,0.124 z"
                 style="color:#000000;fill:#e0bd5a;fill-opacity:1;fill-rule:nonzero;stroke:none;stroke-width:12;marker:none;visibility:visible;display:inline;overflow:visible;enable-background:accumulate" />
            </g>
          </g>
          <g
             id="g20682"
             transform="translate(-0.15383922,0)">
            <path
               style="color:#000000;fill:#eec85d;fill-opacity:1;fill-rule:nonzero;stroke:#6a5b1d;stroke-width:10;stroke-linejoin:round;stroke-opacity:1;marker:none;visibility:visible;display:inline;overflow:visible;enable-background:accumulate"
               d="m -1396.6179,11917.472 c -0.5814,6.977 1.7444,169.45 1.7444,169.45 l 46.5152,-2.907 c 0,0 -6.7982,-46.195 -7.0071,-94.775 -0.1413,-32.881 6.5168,-66.865 5.8442,-75.838 -2.2479,-1.298 -46.5152,-2.907 -47.0967,4.07 z"
               id="path20684"
               inkscape:connector-curvature="0"
               transform="matrix(0.26458334,0,0,0.26458334,-6.3049604e-6,18.562493)"
               sodipodi:nodetypes="cccscc" />
            <path
               sodipodi:nodetypes="ccccc"
               transform="matrix(0.26458334,0,0,0.26458334,-6.3049604e-6,18.562493)"
               inkscape:connector-curvature="0"
               id="path20686"
               d="m -1396.6179,11917.472 c -0.5814,6.977 1.7444,169.45 1.7444,169.45 l 46.5152,-0.581 c 1.973,0 3.1605,-150.71 -1.1629,-172.939 -2.2479,-1.298 -46.5152,-2.907 -47.0967,4.07 z"
               style="color:#000000;fill:#ddb850;fill-opacity:1;fill-rule:nonzero;stroke:none;stroke-width:10;marker:none;visibility:visible;display:inline;overflow:visible;enable-background:accumulate" />
            <path
               style="opacity:0.59734509;color:#000000;fill:#ad9141;fill-opacity:1;fill-rule:nonzero;stroke:none;stroke-width:10;marker:none;visibility:visible;display:inline;overflow:visible;enable-background:accumulate"
               d="m -1369.4375,11907.875 c -1.3093,0 -2.6145,0.03 -3.9375,0.06 l 0,178.718 25.0312,-0.312 c 1.9731,0 3.136,-155.115 -1.1874,-177.344 -0.9835,-0.568 -10.0143,-1.183 -19.9063,-1.125 z"
               transform="matrix(0.26458334,0,0,0.26458334,-6.3049604e-6,18.562493)"
               id="path20688"
               inkscape:connector-curvature="0" />
            <path
               style="color:#000000;fill:#ffe08d;fill-opacity:1;fill-rule:nonzero;stroke:none;stroke-width:10;marker:none;visibility:visible;display:inline;overflow:visible;enable-background:accumulate"
               d="m -1388.4688,11913.556 c -4.7304,0.808 -8.0014,2.049 -8.1562,3.906 -0.5814,6.978 1.75,169.476 1.75,169.476 l 6.0312,-0.06 c -0.6572,-29.124 -1.6714,-117.01 0.375,-173.319 z"
               transform="matrix(0.26458334,0,0,0.26458334,-6.3049604e-6,18.562493)"
               id="path20690"
               inkscape:connector-curvature="0"
               sodipodi:nodetypes="cccccc" />
          </g>
          <g
             id="g20692"
             transform="matrix(-1,0,0,1,-703.83914,0)">
            <path
               sodipodi:nodetypes="cccscc"
               transform="matrix(0.26458334,0,0,0.26458334,-6.3049604e-6,18.562493)"
               inkscape:connector-curvature="0"
               id="path20694"
               d="m -1396.6179,11918.352 c -0.5814,6.977 1.7444,168.57 1.7444,168.57 l 46.5152,-2.907 c 0,0 -6.7982,-46.195 -7.0071,-94.775 -0.1413,-32.881 6.5168,-65.985 5.8442,-74.958 -2.2479,-1.298 -46.5152,-2.907 -47.0967,4.07 z"
               style="color:#000000;fill:#eec85d;fill-opacity:1;fill-rule:nonzero;stroke:#6a5b1d;stroke-width:10;stroke-linejoin:round;stroke-opacity:1;marker:none;visibility:visible;display:inline;overflow:visible;enable-background:accumulate" />
            <path
               style="color:#000000;fill:#eec85d;fill-opacity:1;fill-rule:nonzero;stroke:none;stroke-width:10;marker:none;visibility:visible;display:inline;overflow:visible;enable-background:accumulate"
               d="m -1396.6179,11918.352 c -0.5814,6.977 1.7444,168.57 1.7444,168.57 l 46.5152,-0.581 c 1.973,0 3.1605,-149.83 -1.1629,-172.059 -2.2479,-1.298 -46.5152,-2.907 -47.0967,4.07 z"
               id="path20696"
               inkscape:connector-curvature="0"
               transform="matrix(0.26458334,0,0,0.26458334,-6.3049604e-6,18.562493)"
               sodipodi:nodetypes="ccccc" />
            <path
               id="path20698"
               transform="matrix(0.26458334,0,0,0.26458334,-6.3049604e-6,18.562493)"
               d="m -1369.4375,11907.875 c -1.3093,0 -2.6145,0.03 -3.9375,0.06 l 0,178.718 25.0312,-0.312 c 1.9731,0 3.136,-155.115 -1.1874,-177.344 -0.9835,-0.568 -10.0143,-1.183 -19.9063,-1.125 z"
               style="opacity:0.59734509;color:#000000;fill:#ad9141;fill-opacity:1;fill-rule:nonzero;stroke:none;stroke-width:10;marker:none;visibility:visible;display:inline;overflow:visible;enable-background:accumulate"
               inkscape:connector-curvature="0" />
            <path
               sodipodi:nodetypes="cccccc"
               inkscape:connector-curvature="0"
               id="path20700"
               transform="matrix(0.26458334,0,0,0.26458334,-6.3049604e-6,18.562493)"
               d="m -1388.4688,11914.436 c -4.7304,0.808 -8.0014,2.049 -8.1562,3.906 -0.5814,6.978 1.75,168.596 1.75,168.596 l 6.0312,-0.06 c -0.6572,-29.124 -1.6714,-116.13 0.375,-172.439 z"
               style="color:#000000;fill:#ffe08d;fill-opacity:1;fill-rule:nonzero;stroke:none;stroke-width:10;marker:none;visibility:visible;display:inline;overflow:visible;enable-background:accumulate" />
          </g>
          <g
             transform="matrix(-1.0369049,0,0,1.0369049,-723.08705,-118.75568)"
             id="g20702">
            <path
               style="color:#000000;fill:#eec85d;fill-opacity:1;fill-rule:nonzero;stroke:#6a5b1d;stroke-width:10;stroke-linejoin:round;stroke-opacity:1;marker:none;visibility:visible;display:inline;overflow:visible;enable-background:accumulate"
               d="m -1396.6179,11919.012 c -0.2763,3.315 0.1039,36.794 0.579,77.256 0.5248,44.69 1.1654,90.654 1.1654,90.654 l 46.5152,-2.907 c 0,0 -6.7982,-46.195 -7.0071,-94.775 -0.1413,-32.881 6.5168,-65.325 5.8442,-74.298 -2.2479,-1.298 -46.5152,-2.907 -47.0967,4.07 z"
               id="path20704"
               inkscape:connector-curvature="0"
               transform="matrix(0.26458334,0,0,0.26458334,-6.3049604e-6,18.562493)"
               sodipodi:nodetypes="csccscc" />
            <path
               sodipodi:nodetypes="ccccc"
               transform="matrix(0.26458334,0,0,0.26458334,-6.3049604e-6,18.562493)"
               inkscape:connector-curvature="0"
               id="path20706"
               d="m -1396.6179,11919.012 c -0.5814,6.977 1.7444,167.91 1.7444,167.91 l 46.5152,-0.581 c 1.973,0 3.1605,-149.17 -1.1629,-171.399 -2.2479,-1.298 -46.5152,-2.907 -47.0967,4.07 z"
               style="color:#000000;fill:#eec85d;fill-opacity:1;fill-rule:nonzero;stroke:none;stroke-width:10;marker:none;visibility:visible;display:inline;overflow:visible;enable-background:accumulate" />
            <path
               inkscape:connector-curvature="0"
               style="opacity:0.59734509;color:#000000;fill:#ad9141;fill-opacity:1;fill-rule:nonzero;stroke:none;stroke-width:10;marker:none;visibility:visible;display:inline;overflow:visible;enable-background:accumulate"
               d="m -1369.4375,11907.875 c -1.3093,0 -2.6145,0.03 -3.9375,0.06 l 0,178.718 25.0312,-0.312 c 1.9731,0 3.136,-155.115 -1.1874,-177.344 -0.9835,-0.568 -10.0143,-1.183 -19.9063,-1.125 z"
               transform="matrix(0.26458334,0,0,0.26458334,-6.3049604e-6,18.562493)"
               id="path20708" />
            <path
               style="color:#000000;fill:#ffe08d;fill-opacity:1;fill-rule:nonzero;stroke:none;stroke-width:10;marker:none;visibility:visible;display:inline;overflow:visible;enable-background:accumulate"
               d="m -1388.4688,11915.096 c -4.7304,0.808 -8.0014,2.049 -8.1562,3.906 -0.5814,6.978 1.75,167.936 1.75,167.936 l 6.0312,-0.06 c -0.6572,-29.124 -1.6714,-115.47 0.375,-171.779 z"
               transform="matrix(0.26458334,0,0,0.26458334,-6.3049604e-6,18.562493)"
               id="path20710"
               inkscape:connector-curvature="0"
               sodipodi:nodetypes="cccccc" />
          </g>
          <g
             id="g20712"
             transform="matrix(1,0,0,1.0461311,4.769014,-148.4446)">
            <path
               sodipodi:nodetypes="csccscc"
               transform="matrix(0.26458334,0,0,0.26458334,-6.3049604e-6,18.562493)"
               inkscape:connector-curvature="0"
               id="path20714"
               d="m -1396.6179,11918.96 c -0.2984,3.581 5.402,22.273 5.9277,65.914 0.4986,41.39 -4.1833,102.048 -4.1833,102.048 l 46.5152,-2.907 c 0,0 -6.7982,-46.195 -7.0071,-94.775 -0.1413,-32.881 6.5168,-65.377 5.8442,-74.35 -2.2479,-1.298 -46.5152,-2.907 -47.0967,4.07 z"
               style="color:#000000;fill:#eec85d;fill-opacity:1;fill-rule:nonzero;stroke:#6a5b1d;stroke-width:10;stroke-linejoin:round;stroke-opacity:1;marker:none;visibility:visible;display:inline;overflow:visible;enable-background:accumulate" />
            <path
               style="color:#000000;fill:#eec85d;fill-opacity:1;fill-rule:nonzero;stroke:none;stroke-width:10;marker:none;visibility:visible;display:inline;overflow:visible;enable-background:accumulate"
               d="m -1396.6179,11918.96 c -0.5814,6.977 1.7444,167.962 1.7444,167.962 l 46.5152,-0.581 c 1.973,0 3.1605,-149.222 -1.1629,-171.451 -2.2479,-1.298 -46.5152,-2.907 -47.0967,4.07 z"
               id="path20716"
               inkscape:connector-curvature="0"
               transform="matrix(0.26458334,0,0,0.26458334,-6.3049604e-6,18.562493)"
               sodipodi:nodetypes="ccccc" />
            <path
               id="path20718"
               transform="matrix(0.26458334,0,0,0.26458334,-6.3049604e-6,18.562493)"
               d="m -1369.4375,11907.875 c -1.3093,0 -2.6145,0.03 -3.9375,0.06 l 0,178.718 25.0312,-0.312 c 1.9731,0 3.136,-155.115 -1.1874,-177.344 -0.9835,-0.568 -10.0143,-1.183 -19.9063,-1.125 z"
               style="opacity:0.59734509;color:#000000;fill:#ad9141;fill-opacity:1;fill-rule:nonzero;stroke:none;stroke-width:10;marker:none;visibility:visible;display:inline;overflow:visible;enable-background:accumulate"
               inkscape:connector-curvature="0" />
            <path
               sodipodi:nodetypes="cccccc"
               inkscape:connector-curvature="0"
               id="path20720"
               transform="matrix(0.26458334,0,0,0.26458334,-6.3049604e-6,18.562493)"
               d="m -1388.4688,11915.044 c -4.7304,0.808 -8.0014,2.049 -8.1562,3.906 -0.5814,6.978 1.75,167.988 1.75,167.988 l 6.0312,-0.06 c -0.6572,-29.124 -1.6714,-115.522 0.375,-171.831 z"
               style="color:#000000;fill:#ffe08d;fill-opacity:1;fill-rule:nonzero;stroke:none;stroke-width:10;marker:none;visibility:visible;display:inline;overflow:visible;enable-background:accumulate" />
          </g>
          <g
             id="g20722"
             transform="matrix(-1,0,0,1,-704.7375,0)">
            <path
               sodipodi:nodetypes="ccsccc"
               inkscape:connector-curvature="0"
               id="path20724"
               d="m -357.73447,3168.2676 c 0.329,10.4023 0.42579,52.256 -0.11541,48.1525 0,0 5.13496,-1.1465 5.59651,-1.3011 0.46158,-0.1548 5.36575,1.2203 5.36575,1.2203 -1.15988,-15.5055 -0.88336,-29.5027 0,-47.8687 -2.85556,-1.4686 -9.33402,-0.9919 -10.84685,-0.203 z"
               style="color:#000000;fill:#ffe08d;fill-opacity:1;fill-rule:nonzero;stroke:#6a5b1d;stroke-width:2.29850125;stroke-linejoin:round;stroke-opacity:1;marker:none;visibility:visible;display:inline;overflow:visible;enable-background:accumulate" />
            <path
               style="color:#000000;fill:#ffe08d;fill-opacity:1;fill-rule:nonzero;stroke:none;stroke-width:10;marker:none;visibility:visible;display:inline;overflow:visible;enable-background:accumulate"
               d="m -357.73447,3168.1611 c 0,2.4765 -0.11541,48.3358 -0.11541,48.3358 l 5.59651,-1.3779 5.36575,1.3741 0.46152,-27.5146 -0.46152,-20.5079 c -2.61079,-2.1213 -10.84685,-0.3095 -10.84685,-0.3095 z"
               id="path20726"
               inkscape:connector-curvature="0"
               sodipodi:nodetypes="ccccccc" />
            <path
               id="path20728"
               transform="matrix(0.26458334,0,0,0.26458334,-6.3049604e-6,18.562493)"
               d="m -1332.8438,11901.664 -19.2187,2.32 c 0,9.36 -0.4375,183.286 -0.4375,183.286 l 20.125,-5.791 c -0.1605,-62.183 -0.9844,-141.446 -0.4688,-179.815 z"
               style="opacity:0.73893804;color:#000000;fill:#ddb850;fill-opacity:1;fill-rule:nonzero;stroke:none;stroke-width:10;marker:none;visibility:visible;display:inline;overflow:visible;enable-background:accumulate"
               inkscape:connector-curvature="0"
               sodipodi:nodetypes="ccccc" />
          </g>
          <path
             style="color:#000000;fill:#998039;fill-opacity:1;fill-rule:nonzero;stroke:none;stroke-width:10;marker:none;visibility:visible;display:inline;overflow:visible;enable-background:accumulate"
             d="m -1347.1955,12087.504 c 1.4536,-1.454 15.1175,-6.687 15.1175,-6.687 0,0 19.4782,8.14 18.0246,7.559 -1.4536,-0.582 -33.1421,-0.872 -33.1421,-0.872 z"
             id="path20730"
             inkscape:connector-curvature="0"
             transform="matrix(0.26458334,0,0,0.26458334,-6.3049604e-6,18.562493)" />
        </g>
        <g
           id="g20732"
           transform="translate(101.49788,-29.563177)">
          <path
             transform="matrix(0.26458334,0,0,0.26458334,-6.3049604e-6,16.916276)"
             style="color:#000000;fill:#ffbb00;fill-opacity:1;fill-rule:nonzero;stroke:#6a5b1d;stroke-width:10;stroke-linecap:round;stroke-linejoin:round;stroke-miterlimit:4;stroke-opacity:1;stroke-dashoffset:0;marker:none;visibility:visible;display:inline;overflow:visible;enable-background:accumulate"
             d="m 152.54817,326.88605 c 0,3.89444 -32.95394,7.05151 -72.700163,7.05151 -39.746223,0 -73.2867725,-3.15707 -73.2867725,-7.05151 3.8129555,-0.0815 33.5405495,-1.24438 73.2867725,-1.24438 39.746223,0 44.836263,-1.18355 72.700163,1.24438 z"
             id="path20734"
             inkscape:connector-curvature="0"
             sodipodi:nodetypes="ccccc" />
          <path
             transform="matrix(0.26458334,0,0,0.26458334,-6.3049604e-6,16.916276)"
             style="color:#000000;fill:#87722e;fill-opacity:1;fill-rule:nonzero;stroke:none;stroke-width:10;marker:none;visibility:visible;display:inline;overflow:visible;enable-background:accumulate"
             d="m 152.54817,326.88605 c 0,3.89444 -32.95394,7.05151 -72.700163,7.05151 -39.746223,0 -73.2867725,-3.15707 -73.2867725,-7.05151 0,-3.89445 33.5405495,-8.22473 73.2867725,-8.22473 39.746223,0 72.700163,4.33028 72.700163,8.22473 z"
             id="path20736"
             inkscape:connector-curvature="0"
             sodipodi:nodetypes="sssss" />
        </g>
      </g>
      <g
         id="g20738"
         transform="translate(738.97718,-505.47555)">
        <g
           id="g20740"
           transform="matrix(0.94278896,0,0,0.94278896,454.34394,-2958.8114)">
          <g
             transform="matrix(0.96297086,0,0,0.96297086,-13.036687,106.50947)"
             id="g20742">
            <g
               id="g20744"
               transform="matrix(1.0366626,0,0,1,13.076783,0)">
              <path
                 sodipodi:nodetypes="cccccccccc"
                 inkscape:connector-curvature="0"
                 id="path20746"
                 d="m -354.02707,3199.7399 c -5.21299,0.1154 -10.54124,0.3196 -15.52093,2.0722 -1.42034,0.5816 -3.40326,1.5169 -3.34676,3.3854 0.0276,2.6752 0.0955,21.9988 0.21258,24.6338 1.1416,-0.3423 40.25222,0.3051 41.11532,-0.3087 -0.0208,-2.902 0.0421,-22.1046 -0.0319,-24.9992 -0.57066,-1.4459 -2.26316,-1.8857 -3.55726,-2.3799 -5.5636,-1.6502 -11.40006,-2.2721 -17.15732,-2.4007 -0.57104,-0.01 -1.144,-0.01 -1.71372,0 z"
                 style="color:#000000;fill:#ffcc00;fill-opacity:1;fill-rule:nonzero;stroke:#6a5b1d;stroke-width:2.5986259;stroke-linejoin:round;stroke-miterlimit:4;stroke-opacity:1;stroke-dasharray:none;marker:none;visibility:visible;display:inline;overflow:visible;enable-background:accumulate" />
              <path
                 inkscape:connector-curvature="0"
                 style="color:#000000;fill:#eec85d;fill-opacity:1;fill-rule:nonzero;stroke:none;stroke-width:12;marker:none;visibility:visible;display:inline;overflow:visible;enable-background:accumulate"
                 d="m -1337.6875,12021.986 c -38.2312,0.286 -74.3371,6.405 -73.9375,20.281 l 0.8438,94.827 c 1.6437,0.134 155.3866,0.634 160.9062,-0.438 0.066,0 0.1223,0 0.1875,0 l 0,-92.814 c 1.3585,-11.795 -44.6713,-22.18 -88,-21.856 z"
                 transform="matrix(0.25522609,0,0,0.26458334,-12.614316,18.562493)"
                 id="path20748"
                 sodipodi:nodetypes="scccccs" />
              <path
                 style="opacity:0.61061946;color:#000000;fill:#635322;fill-opacity:1;fill-rule:nonzero;stroke:none;stroke-width:12;marker:none;visibility:visible;display:inline;overflow:visible;enable-background:accumulate"
                 d="m 684.9375,110.28125 c -4.72018,2.32812 -9.91595,3.67787 -15.40625,3.0625 l 0,95.96875 c 7.83681,-0.0273 14.52102,-0.0735 20.625,-0.125 0.76155,-0.007 1.33645,0.007 2.0625,0 1.81258,-0.0178 3.5852,-0.0416 5.15625,-0.0625 0.75307,-0.01 1.77626,-0.0205 2.46875,-0.0312 2.40003,-0.0379 4.79015,-0.0804 6.375,-0.125 1.06051,-0.0299 1.89454,-0.0596 2.5625,-0.0937 0.18682,-0.01 0.44065,-0.0209 0.59375,-0.0312 0.39659,-0.0267 0.68374,-0.0645 0.84375,-0.0937 l 0.1875,0 0,-80.46875 0,-3.78125 0,-1 c -0.67237,-5.06014 -10.82654,-9.77279 -25.46875,-13.21875 z"
                 transform="matrix(0.28112368,0,0,0.2914304,-531.27785,3168.8806)"
                 id="path20750"
                 inkscape:connector-curvature="0" />
              <path
                 style="color:#000000;fill:#cea739;fill-opacity:1;fill-rule:nonzero;stroke:none;stroke-width:12;marker:none;visibility:visible;display:inline;overflow:visible;enable-background:accumulate"
                 d="m -1378.5938,11963.463 c -17.8797,3.042 -30.2617,8.371 -30.0312,16.375 l 0.8125,92.1 c 0.4345,0.03 12.6915,0.08 29.2187,0.124 z"
                 transform="matrix(0.2650403,0,0,0.27475737,0.44488676,-87.015423)"
                 id="path20752"
                 inkscape:connector-curvature="0"
                 sodipodi:nodetypes="ccccc" />
            </g>
          </g>
          <g
             transform="translate(-0.15383922,0)"
             id="g20754">
            <path
               sodipodi:nodetypes="cccscc"
               transform="matrix(0.26458334,0,0,0.26458334,-6.3049604e-6,18.562493)"
               inkscape:connector-curvature="0"
               id="path20756"
               d="m -1396.6179,11985.915 c -0.5814,6.977 1.7444,101.007 1.7444,101.007 l 46.5152,-2.907 c 0,0 -6.7982,-0.463 -7.0071,-49.043 -0.1413,-32.881 6.5168,-44.154 5.8442,-53.127 -2.2479,-1.298 -46.5152,-2.907 -47.0967,4.07 z"
               style="color:#000000;fill:#eec85d;fill-opacity:1;fill-rule:nonzero;stroke:#6a5b1d;stroke-width:10;stroke-linejoin:round;stroke-opacity:1;marker:none;visibility:visible;display:inline;overflow:visible;enable-background:accumulate" />
            <path
               style="color:#000000;fill:#ddb850;fill-opacity:1;fill-rule:nonzero;stroke:none;stroke-width:10;marker:none;visibility:visible;display:inline;overflow:visible;enable-background:accumulate"
               d="m -1396.6179,11985.604 c -0.5814,6.977 1.7444,101.318 1.7444,101.318 l 46.5152,-0.581 c 1.973,0 3.1605,-82.578 -1.1629,-104.807 -2.2479,-1.298 -46.5152,-2.907 -47.0967,4.07 z"
               id="path20758"
               inkscape:connector-curvature="0"
               transform="matrix(0.26458334,0,0,0.26458334,-6.3049604e-6,18.562493)"
               sodipodi:nodetypes="ccccc" />
            <path
               sodipodi:nodetypes="cccccc"
               inkscape:connector-curvature="0"
               id="path20760"
               transform="matrix(0.26458334,0,0,0.26458334,-6.3049604e-6,18.562493)"
               d="m -1388.4688,11981.999 c -4.7304,0.808 -8.0014,2.049 -8.1562,3.906 -0.5814,6.978 1.75,101.033 1.75,101.033 l 6.0312,-0.06 c -0.6572,-29.124 -1.6714,-48.567 0.375,-104.876 z"
               style="color:#000000;fill:#ffe08d;fill-opacity:1;fill-rule:nonzero;stroke:none;stroke-width:10;marker:none;visibility:visible;display:inline;overflow:visible;enable-background:accumulate" />
          </g>
          <g
             transform="matrix(-1,0,0,1,-703.83914,0)"
             id="g20762">
            <path
               style="color:#000000;fill:#eec85d;fill-opacity:1;fill-rule:nonzero;stroke:#6a5b1d;stroke-width:10;stroke-linejoin:round;stroke-opacity:1;marker:none;visibility:visible;display:inline;overflow:visible;enable-background:accumulate"
               d="m -1396.6179,11986.795 c -0.5814,6.977 1.7444,100.127 1.7444,100.127 l 46.5152,-2.907 c 0,0 -6.7982,-0.463 -7.0071,-49.043 -0.1413,-32.881 6.5168,-43.274 5.8442,-52.247 -2.2479,-1.298 -46.5152,-2.907 -47.0967,4.07 z"
               id="path20764"
               inkscape:connector-curvature="0"
               transform="matrix(0.26458334,0,0,0.26458334,-6.3049604e-6,18.562493)"
               sodipodi:nodetypes="cccscc" />
            <path
               sodipodi:nodetypes="ccccc"
               transform="matrix(0.26458334,0,0,0.26458334,-6.3049604e-6,18.562493)"
               inkscape:connector-curvature="0"
               id="path20766"
               d="m -1396.6179,11986.795 c -0.5814,6.977 1.7444,100.127 1.7444,100.127 l 46.5152,-0.581 c 1.973,0 3.1605,-81.387 -1.1629,-103.616 -2.2479,-1.298 -46.5152,-2.907 -47.0967,4.07 z"
               style="color:#000000;fill:#eec85d;fill-opacity:1;fill-rule:nonzero;stroke:none;stroke-width:10;marker:none;visibility:visible;display:inline;overflow:visible;enable-background:accumulate" />
            <path
               inkscape:connector-curvature="0"
               style="opacity:0.59734509;color:#000000;fill:#ad9141;fill-opacity:1;fill-rule:nonzero;stroke:none;stroke-width:10;marker:none;visibility:visible;display:inline;overflow:visible;enable-background:accumulate"
               d="m -1369.4375,11976.94 c -1.3093,0 -2.6145,0.03 -3.9375,0.06 l 0,109.653 25.0312,-0.312 c 1.9731,0 3.136,-86.05 -1.1874,-108.279 -0.9835,-0.568 -10.0143,-1.183 -19.9063,-1.125 z"
               transform="matrix(0.26458334,0,0,0.26458334,-6.3049604e-6,18.562493)"
               id="path20768"
               sodipodi:nodetypes="ccccccc" />
            <path
               style="color:#000000;fill:#ffe08d;fill-opacity:1;fill-rule:nonzero;stroke:none;stroke-width:10;marker:none;visibility:visible;display:inline;overflow:visible;enable-background:accumulate"
               d="m -1388.4688,11982.879 c -4.7304,0.808 -8.0014,2.049 -8.1562,3.906 -0.5814,6.978 1.75,100.153 1.75,100.153 l 6.0312,-0.06 c -0.6572,-29.124 -1.6714,-47.687 0.375,-103.996 z"
               transform="matrix(0.26458334,0,0,0.26458334,-6.3049604e-6,18.562493)"
               id="path20770"
               inkscape:connector-curvature="0"
               sodipodi:nodetypes="cccccc" />
          </g>
          <g
             id="g20772"
             transform="matrix(-1.0369049,0,0,1.0369049,-723.08705,-118.75568)">
            <path
               sodipodi:nodetypes="csccscc"
               transform="matrix(0.26458334,0,0,0.26458334,-6.3049604e-6,18.562493)"
               inkscape:connector-curvature="0"
               id="path20774"
               d="m -1396.6179,11985.019 c -0.2763,3.315 0.1039,14.891 0.579,55.353 0.5248,44.69 1.1654,46.55 1.1654,46.55 l 46.5152,-2.907 c 0,0 -6.7982,-2.091 -7.0071,-50.671 -0.1413,-32.881 6.5168,-43.422 5.8442,-52.395 -2.2479,-1.298 -46.5152,-2.907 -47.0967,4.07 z"
               style="color:#000000;fill:#eec85d;fill-opacity:1;fill-rule:nonzero;stroke:#6a5b1d;stroke-width:10;stroke-linejoin:round;stroke-opacity:1;marker:none;visibility:visible;display:inline;overflow:visible;enable-background:accumulate" />
            <path
               style="color:#000000;fill:#eec85d;fill-opacity:1;fill-rule:nonzero;stroke:none;stroke-width:10;marker:none;visibility:visible;display:inline;overflow:visible;enable-background:accumulate"
               d="m -1396.6179,11984.719 c -0.5814,6.977 1.7444,102.203 1.7444,102.203 l 46.5152,-0.581 c 1.973,0 3.1605,-83.463 -1.1629,-105.692 -2.2479,-1.298 -46.5152,-2.907 -47.0967,4.07 z"
               id="path20776"
               inkscape:connector-curvature="0"
               transform="matrix(0.26458334,0,0,0.26458334,-6.3049604e-6,18.562493)"
               sodipodi:nodetypes="ccccc" />
            <path
               id="path20778"
               transform="matrix(0.26458334,0,0,0.26458334,-6.3049604e-6,18.562493)"
               d="m -1369.4375,11973.582 c -1.3093,0 -2.6145,0.03 -3.9375,0.06 l 0,113.011 25.0312,-0.312 c 1.9731,0 3.136,-89.408 -1.1874,-111.637 -0.9835,-0.568 -10.0143,-1.183 -19.9063,-1.125 z"
               style="opacity:0.59734509;color:#000000;fill:#ad9141;fill-opacity:1;fill-rule:nonzero;stroke:none;stroke-width:10;marker:none;visibility:visible;display:inline;overflow:visible;enable-background:accumulate"
               inkscape:connector-curvature="0"
               sodipodi:nodetypes="ccccccc" />
            <path
               style="color:#000000;fill:#ffe08d;fill-opacity:1;fill-rule:nonzero;stroke:none;stroke-width:10;marker:none;visibility:visible;display:inline;overflow:visible;enable-background:accumulate"
               d="m 672.4375,104.625 c 1.62842,49.82298 0.73579,76.5687 0.125,103.625 l 5.875,0.0625 c 0,0 0.15907,-6.44984 0.375,-15.8125 0.0208,-0.97024 0.0405,-2.55952 0.0625,-3.59375 0.49223,-23.13356 1.23154,-60.38068 1.34375,-78.25 -0.0146,-1.05649 -0.027,-1.82371 -0.0625,-2.25 -0.14859,-1.78283 -3.2307,-2.99005 -7.71875,-3.78125 z"
               transform="matrix(-0.27065065,0,0,0.27065065,-185.43751,3160.1788)"
               id="path20780"
               inkscape:connector-curvature="0" />
          </g>
          <g
             transform="matrix(1,0,0,1.0461311,4.769014,-148.4446)"
             id="g20782">
            <path
               style="color:#000000;fill:#eec85d;fill-opacity:1;fill-rule:nonzero;stroke:#6a5b1d;stroke-width:10;stroke-linejoin:round;stroke-opacity:1;marker:none;visibility:visible;display:inline;overflow:visible;enable-background:accumulate"
               d="m -1396.6179,11984.384 c -0.2984,3.581 5.402,0.564 5.9277,44.205 0.4986,41.39 -4.1833,58.333 -4.1833,58.333 l 46.5152,-2.907 c 0,0 -6.7982,-2.48 -7.0071,-51.06 -0.1413,-32.881 6.5168,-43.668 5.8442,-52.641 -2.2479,-1.298 -46.5152,-2.907 -47.0967,4.07 z"
               id="path20784"
               inkscape:connector-curvature="0"
               transform="matrix(0.26458334,0,0,0.26458334,-6.3049604e-6,18.562493)"
               sodipodi:nodetypes="csccscc" />
            <path
               sodipodi:nodetypes="ccccc"
               transform="matrix(0.26458334,0,0,0.26458334,-6.3049604e-6,18.562493)"
               inkscape:connector-curvature="0"
               id="path20786"
               d="m -1396.6179,11984.087 c -0.5814,6.977 1.7444,102.835 1.7444,102.835 l 46.5152,-0.581 c 1.973,0 3.1605,-84.095 -1.1629,-106.324 -2.2479,-1.298 -46.5152,-2.907 -47.0967,4.07 z"
               style="color:#000000;fill:#eec85d;fill-opacity:1;fill-rule:nonzero;stroke:none;stroke-width:10;marker:none;visibility:visible;display:inline;overflow:visible;enable-background:accumulate" />
            <path
               style="color:#000000;fill:#ffe08d;fill-opacity:1;fill-rule:nonzero;stroke:none;stroke-width:10;marker:none;visibility:visible;display:inline;overflow:visible;enable-background:accumulate"
               d="m -1388.4688,11980.468 c -4.7304,0.808 -8.0014,2.049 -8.1562,3.906 -0.5814,6.978 1.75,102.564 1.75,102.564 l 6.0312,-0.06 c -0.6572,-29.124 -1.6714,-50.098 0.375,-106.407 z"
               transform="matrix(0.26458334,0,0,0.26458334,-6.3049604e-6,18.562493)"
               id="path20788"
               inkscape:connector-curvature="0"
               sodipodi:nodetypes="cccccc" />
          </g>
          <g
             transform="matrix(-1,0,0,1,-704.7375,0)"
             id="g20790">
            <path
               style="color:#000000;fill:#ffe08d;fill-opacity:1;fill-rule:nonzero;stroke:#6a5b1d;stroke-width:2.29850125;stroke-linejoin:round;stroke-opacity:1;marker:none;visibility:visible;display:inline;overflow:visible;enable-background:accumulate"
               d="m -357.73447,3186.3764 c 0.329,10.4023 0.42579,34.1472 -0.11541,30.0437 0,0 5.13496,-1.1465 5.59651,-1.3011 0.46158,-0.1548 5.36575,1.2203 5.36575,1.2203 -1.15988,-15.5055 -0.88336,-11.3939 0,-29.7599 -2.85556,-1.4686 -9.33402,-0.9919 -10.84685,-0.203 z"
               id="path20792"
               inkscape:connector-curvature="0"
               sodipodi:nodetypes="ccsccc" />
            <path
               sodipodi:nodetypes="ccccccc"
               inkscape:connector-curvature="0"
               id="path20794"
               d="m -357.73447,3186.1876 c 0,2.4765 -0.11541,30.3093 -0.11541,30.3093 l 5.59651,-1.3779 5.36575,1.3741 0.46152,-14.0976 -0.46152,-15.8984 c -2.61079,-2.1213 -10.84685,-0.3095 -10.84685,-0.3095 z"
               style="color:#000000;fill:#ffe08d;fill-opacity:1;fill-rule:nonzero;stroke:none;stroke-width:10;marker:none;visibility:visible;display:inline;overflow:visible;enable-background:accumulate" />
            <path
               sodipodi:nodetypes="ccccc"
               inkscape:connector-curvature="0"
               style="opacity:0.73893804;color:#000000;fill:#ddb850;fill-opacity:1;fill-rule:nonzero;stroke:none;stroke-width:10;marker:none;visibility:visible;display:inline;overflow:visible;enable-background:accumulate"
               d="m -1332.8438,11970.107 -19.2187,2.32 c 0,9.36 -0.4375,114.843 -0.4375,114.843 l 20.125,-5.791 c -0.1605,-62.183 -0.9844,-73.003 -0.4688,-111.372 z"
               transform="matrix(0.26458334,0,0,0.26458334,-6.3049604e-6,18.562493)"
               id="path20796" />
          </g>
          <path
             transform="matrix(0.26458334,0,0,0.26458334,-6.3049604e-6,18.562493)"
             inkscape:connector-curvature="0"
             id="path20798"
             d="m -1347.1955,12087.504 c 1.4536,-1.454 15.1175,-6.687 15.1175,-6.687 0,0 19.4782,8.14 18.0246,7.559 -1.4536,-0.582 -33.1421,-0.872 -33.1421,-0.872 z"
             style="color:#000000;fill:#998039;fill-opacity:1;fill-rule:nonzero;stroke:none;stroke-width:10;marker:none;visibility:visible;display:inline;overflow:visible;enable-background:accumulate" />
        </g>
        <g
           transform="translate(101.49788,-29.563177)"
           id="g20800">
          <path
             sodipodi:nodetypes="ccccc"
             inkscape:connector-curvature="0"
             id="path20802"
             d="m 152.54817,326.88605 c 0,3.89444 -32.95394,7.05151 -72.700163,7.05151 -39.746223,0 -73.2867725,-3.15707 -73.2867725,-7.05151 3.8129555,-0.0815 33.5405495,-1.24438 73.2867725,-1.24438 39.746223,0 44.836263,-1.18355 72.700163,1.24438 z"
             style="color:#000000;fill:#ffbb00;fill-opacity:1;fill-rule:nonzero;stroke:#6a5b1d;stroke-width:10;stroke-linecap:round;stroke-linejoin:round;stroke-miterlimit:4;stroke-opacity:1;stroke-dashoffset:0;marker:none;visibility:visible;display:inline;overflow:visible;enable-background:accumulate"
             transform="matrix(0.26458334,0,0,0.26458334,-6.3049604e-6,16.916276)" />
          <path
             sodipodi:nodetypes="sssss"
             inkscape:connector-curvature="0"
             id="path20804"
             d="m 152.54817,326.88605 c 0,3.89444 -32.95394,7.05151 -72.700163,7.05151 -39.746223,0 -73.2867725,-3.15707 -73.2867725,-7.05151 0,-3.89445 33.5405495,-8.22473 73.2867725,-8.22473 39.746223,0 72.700163,4.33028 72.700163,8.22473 z"
             style="color:#000000;fill:#998039;fill-opacity:1;fill-rule:nonzero;stroke:none;stroke-width:10;marker:none;visibility:visible;display:inline;overflow:visible;enable-background:accumulate"
             transform="matrix(0.26458334,0,0,0.26458334,-6.3049604e-6,16.916276)" />
        </g>
      </g>
      <g
         transform="matrix(0.99170965,0,0,0.91871272,575.50064,-524.56087)"
         id="g20381">
        <g
           id="g20383">
          <path
             style="color:#000000;fill:#eec85d;fill-opacity:1;fill-rule:nonzero;stroke:none;stroke-width:10;marker:none;visibility:visible;display:inline;overflow:visible;enable-background:accumulate"
             d="m 268.19738,74.786337 39.42255,0 5.04422,1.805939 c 0.31041,-0.59786 10e-6,-1.316781 0.15521,-3.382116 0,-1.63053 -8.59848,-2.455358 -25.82714,-2.455358 -19.86709,0 -25.62854,1.305845 -25.78374,2.827672 0.1552,1.73923 0.0857,3.091329 0.0857,3.091329 l 7.11471,-1.630374 z"
             id="path20385"
             inkscape:connector-curvature="0"
             sodipodi:nodetypes="ccccccccc" />
          <path
             sodipodi:nodetypes="cccccccccccccccssc"
             inkscape:connector-curvature="0"
             id="path20387"
             transform="matrix(0.26458334,0,0,0.26458334,-6.3049604e-6,18.562493)"
             d="m 1077.8125,186.90625 c -69.578,0.51575 -86.5625,8.88572 -86.5625,16.46875 0.43204,4.84162 0.38885,11.3364 0.34375,14.4375 -0.18846,0.3393 -0.30917,0.69215 -0.34375,1.03125 -0.0928,0.24264 0.0203,0.46294 0.3125,0.6875 -1.1e-4,0.004 0,0.0937 0,0.0937 0.0312,-0.011 0.0625,-0.0203 0.0937,-0.0312 2.63531,1.78846 12.341,2.91007 18.5313,2.1875 l 0.375,-2.90625 c 0,-5.7059 56.4089,-13.92924 101.2813,-12.55151 17.9931,2.19128 48.2026,3.51317 55.3694,12.55151 l 0,3.53125 c 0,0 14.8052,-0.0236 15.0993,-3.9375 0,-0.24822 -0.082,-0.50527 -0.1875,-0.75 0.378,-2.9146 -0.2934,-8.10036 0.1875,-14.5 0,-8.6514 -32.5088,-16.3125 -97.625,-16.3125 -2.3465,0 -4.6305,-0.0166 -6.875,0 z"
             style="color:#000000;fill:#eec85d;fill-opacity:1;fill-rule:nonzero;stroke:#6a5b1d;stroke-width:10;stroke-linejoin:round;stroke-miterlimit:4;stroke-opacity:1;stroke-dasharray:none;marker:none;visibility:visible;display:inline;overflow:visible;enable-background:accumulate" />
          <path
             sodipodi:nodetypes="ccccccccc"
             inkscape:connector-curvature="0"
             id="path20389"
             d="m 268.19738,74.786337 39.42255,0 5.04422,1.805939 c 0.31041,-0.59786 10e-6,-2.194763 0.15521,-4.260098 0,-2.289017 -8.59848,-4.321071 -25.82714,-4.321071 -19.86709,0 -24.72541,2.293076 -24.72541,4.364141 0.1552,1.73923 0.0857,4.298555 0.0857,4.298555 l 6.05638,-1.630374 z"
             style="color:#000000;fill:#eec85d;fill-opacity:1;fill-rule:nonzero;stroke:none;stroke-width:0.05858524;marker:none;visibility:visible;display:inline;overflow:visible;enable-background:accumulate" />
          <path
             sodipodi:nodetypes="cccccccc"
             inkscape:connector-curvature="0"
             id="path20391"
             d="m 267.37427,76.471217 c 0,-2.507655 41.25274,-1.704392 41.12364,0 l 0,0.932663 c 0,0 4.24364,-0.0058 4.32145,-1.041365 0,-1.630529 -8.59848,-2.998868 -25.82714,-2.998868 -19.86709,0 -24.57021,1.577601 -24.72541,3.099427 -0.22456,0.586956 3.14539,0.998819 5.00787,0.781414 z"
             style="color:#000000;fill:#9c8135;fill-opacity:1;fill-rule:nonzero;stroke:none;stroke-width:10;marker:none;visibility:visible;display:inline;overflow:visible;enable-background:accumulate" />
        </g>
      </g>
      <g
         id="g20453"
         transform="matrix(0.93292247,0,0,0.93292247,1163.6718,-3567.7163)">
        <path
           style="color:#000000;fill:#ffe581;fill-opacity:1;fill-rule:nonzero;stroke:#6a5b1d;stroke-width:12;stroke-linecap:round;stroke-linejoin:round;stroke-miterlimit:4;stroke-opacity:1;stroke-dasharray:none;stroke-dashoffset:0;marker:none;visibility:visible;display:inline;overflow:visible;enable-background:accumulate"
           d="m -1224,12841.406 c -67.259,0 -107.6945,5.525 -121.5,17.813 -22.9495,21.129 -17.4062,59.156 -17.4062,59.156 l 1.5624,0 c 9.5309,9.234 67.3786,6.477 137.3438,6.477 69.9652,0 127.8442,2.757 137.375,-6.477 l 1.0625,0 c 0,0 0.03,-0.744 0.062,-1.594 0.1522,-0.365 0.25,-0.723 0.25,-1.093 0,-0.32 -0.074,-0.654 -0.1875,-0.969 0,0 0,-0.02 0,-0.03 0.1859,-10.878 -0.6737,-43.246 -16.8125,-56.188 0.02,-0.123 -18.3107,-17.094 -121.75,-17.094 z"
           transform="matrix(0.26458334,0,0,0.26458334,-6.3049604e-6,18.562493)"
           id="path20455"
           inkscape:connector-curvature="0"
           sodipodi:nodetypes="ccccscccscccsc" />
        <path
           sodipodi:nodetypes="scccscccscccs"
           inkscape:connector-curvature="0"
           id="path20457"
           transform="matrix(0.26458334,0,0,0.26458334,-6.3049604e-6,18.562493)"
           d="m -1224,12841.406 c -67.259,0 -107.6945,5.525 -121.5,17.813 -22.9495,21.129 -17.4062,59.156 -17.4062,59.156 l 1.5624,0 c 9.5309,9.234 67.3786,16.344 137.3438,16.344 69.9652,0 127.8442,-7.11 137.375,-16.344 l 1.0625,0 c 0,0 0.03,-0.744 0.062,-1.594 0.1522,-0.365 0.25,-0.723 0.25,-1.093 0,-0.32 -0.074,-0.654 -0.1875,-0.969 0,0 0,-0.02 0,-0.03 0.1859,-10.878 -0.6737,-43.246 -16.8125,-56.188 0.02,-0.123 -18.3107,-17.094 -121.75,-17.094 z"
           style="color:#000000;fill:#ffe581;fill-opacity:1;fill-rule:nonzero;stroke:none;stroke-width:0;marker:none;visibility:visible;display:inline;overflow:visible;enable-background:accumulate" />
        <path
           id="path20459"
           transform="matrix(0.26458334,0,0,0.26458334,-6.3049604e-6,18.562493)"
           d="m -1224,12841.406 c -29.3156,0 -53.5475,1.049 -72.6875,3.25 57.0396,35.785 124.3558,21.52 140.5625,28.813 15.1611,6.823 14.2423,46.41 12.7188,57.719 30.1506,-2.96 51.3467,-7.548 56.7812,-12.813 l 1.0625,0 c 0,0 0.031,-0.744 0.062,-1.594 0.1522,-0.365 0.25,-0.723 0.25,-1.093 0,-0.321 -0.074,-0.654 -0.1875,-0.969 l 0,-0.03 c 0.1859,-10.879 -0.6737,-43.246 -16.8125,-56.188 0.02,-0.123 -18.3107,-17.094 -121.75,-17.094 z"
           style="opacity:0.71238942;color:#000000;fill:#d5b352;fill-opacity:1;fill-rule:nonzero;stroke:none;stroke-width:12;marker:none;visibility:visible;display:inline;overflow:visible;enable-background:accumulate"
           inkscape:connector-curvature="0" />
        <path
           id="path20461"
           transform="matrix(0.26458334,0,0,0.26458334,-6.3049604e-6,18.562493)"
           d="m -1338.75,12854.781 c -2.692,1.371 -4.9569,2.842 -6.75,4.438 -22.9495,21.129 -17.4062,59.156 -17.4062,59.156 l 1.5624,0 c 9.531,9.234 67.3786,16.344 137.3438,16.344 69.9652,0 127.8442,-7.11 137.375,-16.344 l 1.0625,0 c 0,0 0.031,-0.744 0.062,-1.594 0.1522,-0.365 0.25,-0.723 0.25,-1.093 0,-0.321 -0.074,-0.654 -0.1875,-0.969 l 0,-0.03 c 0.1859,-10.879 -0.6737,-43.246 -16.8125,-56.188 0.01,-0.03 -1.4208,-1.381 -5.75,-3.312 2.5153,8.36 -4.1271,19.201 -63.75,21.562 -68.8112,2.726 -157.361,-5.856 -167,-21.969 z"
           style="opacity:0.58407078;color:#000000;fill:#cfa838;fill-opacity:1;fill-rule:nonzero;stroke:none;stroke-width:12;marker:none;visibility:visible;display:inline;overflow:visible;enable-background:accumulate"
           inkscape:connector-curvature="0" />
        <path
           id="path20463"
           transform="matrix(0.26458334,0,0,0.26458334,-6.3049604e-6,18.562493)"
           d="m -1230.4062,12849.594 c 0,0 -14.469,1.64 -29.8126,4.75 -7.6715,1.555 -15.5822,3.478 -22.0937,5.781 -6.5115,2.303 -11.7521,4.659 -14.125,8.813 -6.4777,11.336 -9.5528,33.762 -8.3125,62.218 1.6356,0.161 3.3436,0.318 5.0312,0.469 -1.208,-28.365 2.2461,-50.805 7.625,-60.219 0.9165,-1.603 5.3378,-4.394 11.4688,-6.562 6.131,-2.169 13.8345,-4.066 21.375,-5.594 15.0809,-3.057 42.7761,-11.373 42.7761,-11.373 z m 16.5,4.062 c -1.1352,0.107 -2.1268,1.085 -2.25,2.219 -1.286,10.287 -1.6784,33.772 -1.7813,54.969 -0.043,8.906 -0.026,17.013 0,23.844 1.6682,-0.01 3.3476,-0.05 5,-0.06 -0.026,-6.808 -0.043,-14.881 0,-23.75 0.1028,-21.151 0.5378,-44.927 1.7187,-54.375 0.2113,-1.483 -2.6274,-9.179 -4.1199,-9.051 z m 19.5312,-0.361 c -1.8838,0.03 -3.7478,0.123 -5.5625,0.281 -1.3673,0.02 -14.9811,-1.031 -14.8612,0.332 0.12,1.362 13.9482,4.852 15.2987,4.637 13.4401,-1.186 30.1361,2.78 44.1562,6.643 7.0103,1.929 13.3588,4.071 18.3438,5.968 4.9631,1.89 8.6581,3.613 9.9375,4.406 0.011,0.103 0.7339,1.004 1.2813,2.532 0.6253,1.745 1.2486,4.216 1.8124,7.094 1.1281,5.752 2.066,13.162 2.7813,20.468 0.8656,8.842 1.41,17.095 1.7187,22.563 1.7086,-0.269 3.3394,-0.563 4.9376,-0.844 -0.3213,-5.529 -0.8443,-13.576 -1.6876,-22.187 -0.7237,-7.394 -1.659,-14.927 -2.8437,-20.969 -0.5923,-3.021 -1.2315,-5.668 -2,-7.813 -0.7685,-2.144 -1.4244,-3.882 -3.3125,-5.062 -2.0256,-1.266 -5.7042,-2.919 -10.8438,-4.875 -5.1392,-1.957 -11.6383,-4.15 -18.8124,-6.125 -10.7614,-2.963 -23.0363,-6.42 -34.625,-6.955 -1.9317,-0.09 -3.55,-2.259 -5.7188,-0.09 z"
           style="font-size:medium;font-style:normal;font-variant:normal;font-weight:normal;font-stretch:normal;text-indent:0;text-align:start;text-decoration:none;line-height:normal;letter-spacing:normal;word-spacing:normal;text-transform:none;direction:ltr;block-progression:tb;writing-mode:lr-tb;text-anchor:start;baseline-shift:baseline;opacity:0.71238942;color:#000000;fill:#897832;fill-opacity:1;stroke:none;stroke-width:5;marker:none;visibility:visible;display:inline;overflow:visible;enable-background:accumulate;font-family:Sans;-inkscape-font-specification:Sans"
           inkscape:connector-curvature="0"
           sodipodi:nodetypes="csscccccccccccccccccccsccccccsccccccccccc" />
      </g>
      <g
         id="g20465"
         transform="matrix(0.89685344,0,0,-1.1984891,603.57313,-292.49446)">
        <g
           id="g20467">
          <path
             sodipodi:nodetypes="ccccccccc"
             inkscape:connector-curvature="0"
             id="path20469"
             d="m 268.19738,74.786337 39.42255,0 5.04422,1.805939 c 0.31041,-0.59786 10e-6,-1.316781 0.15521,-3.382116 0,-1.63053 -8.59848,-2.455358 -25.82714,-2.455358 -19.86709,0 -25.62854,1.305845 -25.78374,2.827672 0.1552,1.73923 0.0857,3.091329 0.0857,3.091329 l 7.11471,-1.630374 z"
             style="color:#000000;fill:#eec85d;fill-opacity:1;fill-rule:nonzero;stroke:none;stroke-width:10;marker:none;visibility:visible;display:inline;overflow:visible;enable-background:accumulate" />
          <path
             sodipodi:nodetypes="ccccccscccccccccsc"
             inkscape:connector-curvature="0"
             id="path20471"
             transform="matrix(0.34493599,0,0,-0.25812253,980.50353,-171.71439)"
             d="m -2016.0625,-972.25 c -33.5528,-0.0841 -65.1141,3.00366 -66.1563,10.40625 -0.041,0.11632 -0.035,0.25064 0,0.375 0.03,0.38896 0.097,0.76723 0.25,1.15625 0.034,3.20449 0.079,3.42197 -0.25,8.35015 0,7.77283 13.0052,16.34634 66.375,16.875 1.7217,0.017 3.4814,0 5.2813,0 49.9474,0 74.875,-7.85081 74.875,-16.71875 -0.3689,-6.55982 0.1649,-5.51885 -0.125,-8.5064 0.019,-0.0592 0.046,-0.12719 0.062,-0.1875 0.018,-0.0722 0.02,-0.14622 0.031,-0.21875 0.026,-0.12903 0.031,-0.24778 0.031,-0.375 -0.01,-0.0942 -0.014,-0.19136 -0.031,-0.28125 -0.021,-0.10738 -0.057,-0.21117 -0.094,-0.3125 -0.158,-0.43452 -0.4674,-0.79312 -0.875,-1.125 -0.1588,-0.12929 -0.3116,-0.25983 -0.5,-0.375 -7.7682,-5.54749 -44.3744,-8.97602 -78.875,-9.0625 z"
             style="color:#000000;fill:#eec85d;fill-opacity:1;fill-rule:nonzero;stroke:#6a5b1d;stroke-width:10.37123299;stroke-linejoin:round;stroke-miterlimit:4;stroke-opacity:1;stroke-dasharray:none;marker:none;visibility:visible;display:inline;overflow:visible;enable-background:accumulate" />
          <path
             style="color:#000000;fill:#d1ad43;fill-opacity:1;fill-rule:nonzero;stroke:none;stroke-width:0.05858524;marker:none;visibility:visible;display:inline;overflow:visible;enable-background:accumulate"
             d="m 268.19738,74.786337 39.42255,0 5.04422,1.805939 c 0.31041,-0.59786 10e-6,-0.558951 0.15521,-2.624286 0,-2.289017 -8.59848,-4.321071 -25.82714,-4.321071 -19.86709,0 -24.72541,2.293076 -24.72541,4.364141 0.1552,1.73923 0.0857,2.662743 0.0857,2.662743 l 6.05638,-1.630374 z"
             id="path20473"
             inkscape:connector-curvature="0"
             sodipodi:nodetypes="ccccccccc" />
          <path
             style="color:#000000;fill:#ffde88;fill-opacity:1;fill-rule:nonzero;stroke:none;stroke-width:10;marker:none;visibility:visible;display:inline;overflow:visible;enable-background:accumulate"
             d="m 312.81936,76.362515 c 0,-1.630529 -8.59848,-4.069547 -25.82714,-4.069547 -19.86709,0 -24.57021,2.64828 -24.72541,4.170106 0,4.227516 50.30543,3.188348 50.55255,-0.100559 z"
             id="path20475"
             inkscape:connector-curvature="0"
             sodipodi:nodetypes="cccc" />
        </g>
      </g>
      <g
         id="g20477"
         transform="translate(431.64594,-516.22346)">
        <path
           style="color:#000000;fill:#f5cb5d;fill-opacity:1;fill-rule:nonzero;stroke:#6a5b1d;stroke-width:3.08614802;stroke-linecap:round;stroke-linejoin:round;stroke-miterlimit:4;stroke-opacity:1;stroke-dasharray:none;stroke-dashoffset:0;marker:none;visibility:visible;display:inline;overflow:visible;enable-background:accumulate"
           d="m 409.89027,79.339827 c -2.07332,5.082667 -8.91943,31.098683 -8.59136,32.236623 0.46435,1.61062 9.0389,19.47712 9.0389,20.44869 0,1.47492 8.72,2.67076 19.47487,2.67076 10.7548,0 19.47482,-1.19584 19.47482,-2.67076 0,-0.97157 9.0389,-18.7725 9.0389,-20.44869 0,-1.72115 -8.63196,-30.937391 -8.63196,-32.017127 -0.25604,2.288643 -33.94314,4.674703 -39.80417,-0.219496 z"
           id="path20479"
           inkscape:connector-curvature="0"
           sodipodi:nodetypes="cssssscc" />
        <path
           sodipodi:nodetypes="ssssssss"
           inkscape:connector-curvature="0"
           id="path20481"
           d="m 410.02036,79.469801 c -0.68545,-0.790452 -8.72145,30.385499 -8.72145,32.106649 0,1.67619 9.0389,19.47712 9.0389,20.44869 0,1.47492 8.72,2.67076 19.47487,2.67076 10.7548,0 19.47482,-1.19584 19.47482,-2.67076 0,-0.97157 9.0389,-18.7725 9.0389,-20.44869 0,-1.72115 -9.11073,-33.109546 -8.72139,-32.106649 0.35877,0.92426 -37.95195,1.882966 -39.58465,0 z"
           style="color:#000000;fill:#fdd979;fill-opacity:1;fill-rule:nonzero;stroke:none;stroke-width:0;marker:none;visibility:visible;display:inline;overflow:visible;enable-background:accumulate" />
        <path
           sodipodi:nodetypes="csssssccc"
           inkscape:connector-curvature="0"
           id="path20483"
           d="m 401.32918,111.27912 c -0.0208,0.12936 -0.0308,0.23581 -0.0308,0.29733 0,1.67619 9.03899,19.47712 9.03899,20.44869 0,1.47492 8.71991,5.1746 19.4748,5.1746 10.75488,0 19.47481,-3.69968 19.47481,-5.1746 0,-0.97157 9.0389,-18.7725 9.0389,-20.44869 0,-0.0529 -0.007,-0.13267 -0.0214,-0.23573 2.23693,3.36876 -44.99609,9.02154 -56.97567,-0.0615 z"
           style="color:#000000;fill:#d5b352;fill-opacity:1;fill-rule:nonzero;stroke:none;stroke-width:0;marker:none;visibility:visible;display:inline;overflow:visible;enable-background:accumulate" />
        <path
           style="color:#000000;fill:#feefc4;fill-opacity:1;fill-rule:nonzero;stroke:none;stroke-width:0;marker:none;visibility:visible;display:inline;overflow:visible;enable-background:accumulate"
           d="m 449.59511,79.446523 c -0.003,0 0.003,0.02649 0.007,0.05394 0.005,-0.01041 0.004,-0.02366 0,-0.03407 -0.006,-0.01609 -0.005,-0.01987 -0.007,-0.01987 z m 0.007,0.05394 c -0.48234,0.914607 -37.96317,1.828553 -39.57822,-0.03407 -0.38193,-0.440412 -3.34746,9.044724 -5.51227,17.827984 2.79572,-8.231941 6.2233,-16.444291 6.57939,-16.033593 1.51067,1.742154 34.27586,1.048983 39.0141,0.203741 -0.2579,-0.973943 -0.47058,-1.800069 -0.503,-1.964254 z m -39.46286,51.907777 c 0.11642,0.29857 0.19709,0.53703 0.19709,0.61851 0,0.20885 0.17925,0.41003 0.50978,0.60488 -0.1932,-0.34342 -0.43281,-0.76424 -0.70687,-1.22339 z"
           id="path20485"
           inkscape:connector-curvature="0"
           sodipodi:nodetypes="cccccscccccscc" />
        <path
           style="opacity:0.58407078;color:#000000;fill:#d3af49;fill-opacity:1;fill-rule:nonzero;stroke:none;stroke-width:12;marker:none;visibility:visible;display:inline;overflow:visible;enable-background:accumulate"
           d="m 449.59499,79.446523 c -0.002,0 0,0.02554 0.007,0.05394 0.005,-0.01135 0.004,-0.02366 0,-0.03407 -0.006,-0.01513 -0.006,-0.01987 -0.007,-0.01987 z m 0.007,0.05394 c -0.17354,0.342184 -5.53929,0.679449 -12.26156,0.876754 0.80644,2.079703 9.76965,25.254813 10.45359,30.042173 0.71539,5.00759 0.71369,6.4368 0.71369,6.4368 l -6.98213,18.65411 c 4.30381,-0.4901 7.76376,-2.65658 7.76376,-3.48355 0,-0.97158 9.03986,-18.77543 9.03986,-20.45172 0,-1.65718 -8.44603,-30.801498 -8.72721,-32.074567 z"
           id="path20487"
           inkscape:connector-curvature="0"
           sodipodi:nodetypes="ccccccsccssc" />
      </g>
      <g
         id="g20806"
         transform="matrix(0.99170965,0,0,0.91871272,576.29629,-567.92398)">
        <g
           id="g20808">
          <path
             sodipodi:nodetypes="ccccccccc"
             inkscape:connector-curvature="0"
             id="path20810"
             d="m 268.19738,74.786337 39.42255,0 5.04422,1.805939 c 0.31041,-0.59786 10e-6,-1.316781 0.15521,-3.382116 0,-1.63053 -8.59848,-2.455358 -25.82714,-2.455358 -19.86709,0 -25.62854,1.305845 -25.78374,2.827672 0.1552,1.73923 0.0857,3.091329 0.0857,3.091329 l 7.11471,-1.630374 z"
             style="color:#000000;fill:#eec85d;fill-opacity:1;fill-rule:nonzero;stroke:none;stroke-width:10;marker:none;visibility:visible;display:inline;overflow:visible;enable-background:accumulate" />
          <path
             style="color:#000000;fill:#eec85d;fill-opacity:1;fill-rule:nonzero;stroke:#6a5b1d;stroke-width:10;stroke-linejoin:round;stroke-miterlimit:4;stroke-opacity:1;stroke-dasharray:none;marker:none;visibility:visible;display:inline;overflow:visible;enable-background:accumulate"
             d="m 1077.8125,186.90625 c -69.578,0.51575 -86.5625,8.88572 -86.5625,16.46875 0.43204,4.84162 0.38885,11.3364 0.34375,14.4375 -0.18846,0.3393 -0.30917,0.69215 -0.34375,1.03125 -0.0928,0.24264 0.0203,0.46294 0.3125,0.6875 -1.1e-4,0.004 0,0.0937 0,0.0937 0.0312,-0.011 0.0625,-0.0203 0.0937,-0.0312 2.63531,1.78846 12.341,2.91007 18.5313,2.1875 l 0.375,-2.90625 c 0,-5.7059 56.4089,-13.92924 101.2813,-12.55151 17.9931,2.19128 48.2026,3.51317 55.3694,12.55151 l 0,3.53125 c 0,0 14.8052,-0.0236 15.0993,-3.9375 0,-0.24822 -0.082,-0.50527 -0.1875,-0.75 0.378,-2.9146 -0.2934,-8.10036 0.1875,-14.5 0,-8.6514 -32.5088,-16.3125 -97.625,-16.3125 -2.3465,0 -4.6305,-0.0166 -6.875,0 z"
             transform="matrix(0.26458334,0,0,0.26458334,-6.3049604e-6,18.562493)"
             id="path20812"
             inkscape:connector-curvature="0"
             sodipodi:nodetypes="cccccccccccccccssc" />
          <path
             style="color:#000000;fill:#eec85d;fill-opacity:1;fill-rule:nonzero;stroke:none;stroke-width:0.05858524;marker:none;visibility:visible;display:inline;overflow:visible;enable-background:accumulate"
             d="m 268.19738,74.786337 39.42255,0 5.04422,1.805939 c 0.31041,-0.59786 10e-6,-2.194763 0.15521,-4.260098 0,-2.289017 -8.59848,-4.321071 -25.82714,-4.321071 -19.86709,0 -24.72541,2.293076 -24.72541,4.364141 0.1552,1.73923 0.0857,4.298555 0.0857,4.298555 l 6.05638,-1.630374 z"
             id="path20814"
             inkscape:connector-curvature="0"
             sodipodi:nodetypes="ccccccccc" />
          <path
             style="color:#000000;fill:#9c8135;fill-opacity:1;fill-rule:nonzero;stroke:none;stroke-width:10;marker:none;visibility:visible;display:inline;overflow:visible;enable-background:accumulate"
             d="m 267.37427,76.471217 c 0,-2.507655 41.25274,-1.704392 41.12364,0 l 0,0.932663 c 0,0 4.24364,-0.0058 4.32145,-1.041365 0,-1.630529 -8.59848,-2.998868 -25.82714,-2.998868 -19.86709,0 -24.57021,1.577601 -24.72541,3.099427 -0.22456,0.586956 3.14539,0.998819 5.00787,0.781414 z"
             id="path20816"
             inkscape:connector-curvature="0"
             sodipodi:nodetypes="cccccccc" />
        </g>
      </g>
    </g>
  </g>
</svg>
