<?xml version="1.0" encoding="UTF-8" standalone="no"?>
<!-- Created with Inkscape (http://www.inkscape.org/) -->

<svg
   xmlns:dc="http://purl.org/dc/elements/1.1/"
   xmlns:cc="http://creativecommons.org/ns#"
   xmlns:rdf="http://www.w3.org/1999/02/22-rdf-syntax-ns#"
   xmlns:svg="http://www.w3.org/2000/svg"
   xmlns="http://www.w3.org/2000/svg"
   xmlns:xlink="http://www.w3.org/1999/xlink"
   xmlns:sodipodi="http://sodipodi.sourceforge.net/DTD/sodipodi-0.dtd"
   xmlns:inkscape="http://www.inkscape.org/namespaces/inkscape"
   width="401.5936"
   height="1160.9242"
   viewBox="0 0 106.25497 307.1612"
   version="1.1"
   id="svg23489"
   inkscape:version="0.48.5 r10040"
   sodipodi:docname="pillar_01_face_on_base.svg">
  <defs
     id="defs23483">
    <linearGradient
       id="linearGradient31565">
      <stop
         style="stop-color:#ffcc00;stop-opacity:1;"
         offset="0"
         id="stop31567" />
      <stop
         id="stop31575"
         offset="0.5"
         style="stop-color:#ffff00;stop-opacity:1" />
      <stop
         style="stop-color:#ffcc00;stop-opacity:1"
         offset="1"
         id="stop31569" />
    </linearGradient>
    <linearGradient
       id="linearGradient10809">
      <stop
         style="stop-color:#ffcc00;stop-opacity:1;"
         offset="0"
         id="stop10811" />
      <stop
         id="stop10813"
         offset="0.5"
         style="stop-color:#ffff00;stop-opacity:1" />
      <stop
         style="stop-color:#ffcc00;stop-opacity:1"
         offset="1"
         id="stop10815" />
    </linearGradient>
    <linearGradient
       inkscape:collect="always"
       xlink:href="#linearGradient31565-9"
       id="linearGradient17133"
       gradientUnits="userSpaceOnUse"
       x1="-1431.589"
       y1="12111.613"
       x2="-1252.7432"
       y2="12115.519" />
    <linearGradient
       id="linearGradient31565-9">
      <stop
         style="stop-color:#ffcc00;stop-opacity:1;"
         offset="0"
         id="stop31567-3" />
      <stop
         id="stop31575-9"
         offset="0.5"
         style="stop-color:#ffff00;stop-opacity:1" />
      <stop
         style="stop-color:#ffcc00;stop-opacity:1"
         offset="1"
         id="stop31569-2" />
    </linearGradient>
    <linearGradient
       inkscape:collect="always"
       xlink:href="#linearGradient31565-9"
       id="linearGradient17135"
       gradientUnits="userSpaceOnUse"
       x1="-1431.589"
       y1="12111.613"
       x2="-1252.7432"
       y2="12115.519" />
    <linearGradient
       id="linearGradient14865">
      <stop
         style="stop-color:#ffcc00;stop-opacity:1;"
         offset="0"
         id="stop14867" />
      <stop
         id="stop14869"
         offset="0.5"
         style="stop-color:#ffff00;stop-opacity:1" />
      <stop
         style="stop-color:#ffcc00;stop-opacity:1"
         offset="1"
         id="stop14871" />
    </linearGradient>
  </defs>
  <sodipodi:namedview
     id="base"
     pagecolor="#7d848b"
     bordercolor="#666666"
     borderopacity="1.0"
     inkscape:pageopacity="1"
     inkscape:pageshadow="2"
     inkscape:zoom="0.21308932"
     inkscape:cx="1562.7713"
     inkscape:cy="789.29961"
     inkscape:document-units="px"
     inkscape:current-layer="layer1"
     showgrid="false"
     inkscape:pagecheckerboard="false"
     showborder="true"
     units="px"
     inkscape:window-width="1920"
     inkscape:window-height="1017"
     inkscape:window-x="-8"
     inkscape:window-y="-8"
     inkscape:window-maximized="1"
     inkscape:showpageshadow="false"
     guidetolerance="28"
     fit-margin-top="25"
     fit-margin-left="25"
     fit-margin-right="25"
     fit-margin-bottom="25">
    <inkscape:grid
       type="xygrid"
       id="grid24034"
       spacingx="1px"
       spacingy="1px"
       empspacing="8"
       visible="true"
       enabled="true"
       snapvisiblegridlinesonly="true"
       originx="-635.15648px"
       originy="167.53944px" />
  </sodipodi:namedview>
  <metadata
     id="metadata23486">
    <rdf:RDF>
      <cc:Work
         rdf:about="">
        <dc:format>image/svg+xml</dc:format>
        <dc:type
           rdf:resource="http://purl.org/dc/dcmitype/StillImage" />
        <dc:title></dc:title>
        <cc:license
           rdf:resource="" />
        <dc:creator>
          <cc:Agent>
            <dc:title>Robert Brooks</dc:title>
          </cc:Agent>
        </dc:creator>
      </cc:Work>
    </rdf:RDF>
  </metadata>
  <g
     inkscape:label="Layer 1"
     inkscape:groupmode="layer"
     id="layer1"
     transform="translate(-168.05183,-34.166921)">
    <g
       id="g16169"
       transform="translate(-418.23241,354.93431)">
      <g
         transform="translate(-1.6748794,-33.772625)"
         id="g15042">
        <g
           id="g15029"
           transform="matrix(1.1554409,0,0,1.1554409,603.25976,297.93925)">
          <path
             sodipodi:nodetypes="ssccsccs"
             inkscape:connector-curvature="0"
             id="path15031"
             d="m 11.675181,-264.93003 c -6.6702297,0 -8.1644949,9.17521 -8.1644949,14.6831 0,0.26489 0.01179,0.52396 0.028334,0.78351 0.3222141,2.74715 56.7795059,2.61633 56.9943169,0 0.01654,-0.25955 0.02429,-0.51862 0.02429,-0.78351 0,-5.50789 -1.060605,-14.6831 -8.160455,-14.6831 0.164697,4.70637 -40.600685,5.02314 -40.721979,0 z"
             style="color:#000000;fill:#236385;fill-opacity:1;fill-rule:nonzero;stroke:#6a5b1d;stroke-width:2.64583349;stroke-linecap:round;stroke-linejoin:round;stroke-miterlimit:4;stroke-opacity:1;stroke-dasharray:none;stroke-dashoffset:0;marker:none;visibility:visible;display:inline;overflow:visible;enable-background:accumulate" />
          <path
             style="color:#000000;fill:#eec85d;fill-opacity:1;fill-rule:nonzero;stroke:none;stroke-width:2.64583349;marker:none;visibility:visible;display:inline;overflow:visible;enable-background:accumulate"
             d="m 11.675181,-264.93003 c -6.6702297,0 -8.1644949,9.17521 -8.1644949,14.6831 0,0.26489 0.01179,0.52396 0.028334,0.78351 0.3222141,2.74715 56.7795059,2.61633 56.9943169,0 0.01654,-0.25955 0.02429,-0.51862 0.02429,-0.78351 0,-5.50789 -1.060605,-14.6831 -8.160455,-14.6831 0,2.35833 -40.721979,3.29388 -40.721979,0 z"
             id="path15033"
             inkscape:connector-curvature="0"
             sodipodi:nodetypes="ssccsccs" />
          <path
             id="path15035"
             transform="matrix(0.26458334,0,0,0.26458334,-6.3049604e-6,18.562493)"
             d="m 44.125,-1071.4688 c -5.081598,0 -9.362847,1.4234 -12.96875,3.8438 6.137583,15.313 87.76312,18.4332 143.875,12 18.37797,-2.107 31.91495,-4.777 41.625,-7.625 -4.46241,-5.0133 -10.49797,-8.2188 -18.625,-8.2188 0,8.9134 -153.90625,12.4494 -153.90625,0 z"
             style="opacity:0.86283133;color:#000000;fill:#f8d67a;fill-opacity:1;fill-rule:nonzero;stroke:none;stroke-width:0;marker:none;visibility:visible;display:inline;overflow:visible;enable-background:accumulate"
             inkscape:connector-curvature="0" />
          <path
             sodipodi:nodetypes="cccssccssccccsscccssccccccsccscccsccscc"
             inkscape:connector-curvature="0"
             id="path15037"
             transform="matrix(0.26458334,0,0,0.26458334,-6.3049604e-6,18.562493)"
             d="m 195.28125,-1069.4375 c -1.64094,0.5829 -4.00762,1.1124 -6.90625,1.625 5.90415,1.2265 10.12591,3.172 13.34375,8.2471 3.69008,5.8197 6.3063,13.5834 7.50854,21.375 1.20224,7.7914 0.99292,17.311 0.89771,23.1592 -0.0428,2.6286 -0.11814,4.7961 -0.21875,6.4687 1.40982,-0.1421 2.7895,-0.286 4.0625,-0.4375 0.0766,-1.6541 0.11721,-3.6323 0.15625,-6.0312 0.0978,-6.0057 -0.0293,-13.9802 -1.28125,-22.0938 -1.25195,-8.1136 -3.52819,-16.3464 -7.6875,-22.9062 -2.49703,-3.9383 -5.78455,-7.2416 -9.875,-9.4063 z m -142.25,2.4375 c -2.98638,2.1704 -5.48793,5.0928 -7.53125,8.4062 -3.969815,6.4376 -6.434149,14.4594 -8,22.3438 -1.565852,7.8844 -2.230247,15.621 -2.5,21.4375 -0.124659,2.6879 -0.156032,4.9027 -0.15625,6.5937 1.283264,0.1188 2.62529,0.2327 4,0.3438 -0.0034,-1.6539 0.02731,-3.972 0.15625,-6.75 0.263168,-5.6742 0.926974,-15.7266 2.4375,-23.3326 1.510526,-7.6058 3.900264,-12.7557 7.46875,-18.5424 2.778923,-4.5063 6.157527,-7.8534 10.46875,-9.4688 -2.333492,-0.3211 -4.485948,-0.6436 -6.34375,-1.0312 z m 98.09375,2.625 c -1.46365,0.073 -2.94206,0.154 -4.4375,0.2188 0.12653,0.1886 0.24719,0.3477 0.375,0.5624 1.0882,1.8289 2.15814,4.482 3.0625,7.5626 1.80872,6.1609 3.07384,14.2692 4,22.2187 1.34601,11.5532 1.85197,22.6652 2.03125,27.9687 1.34333,-0.031 2.70525,-0.059 4.03125,-0.094 -0.17386,-5.3988 -0.66806,-16.6431 -2.03125,-28.3437 -0.94042,-8.0721 -2.32557,-16.3824 -4.25,-22.9376 -0.8002,-2.7256 -1.71605,-5.1085 -2.78125,-7.1562 z m -53.4375,0.8438 c -7.057448,8.2559 -9.809799,21.4105 -11,33.3124 -1.027316,10.2733 -0.800897,19.6585 -0.5625,24.4688 1.339336,0.028 2.676682,0.038 4.03125,0.062 -0.242255,-4.5674 -1.765016,-14.3334 -0.744384,-24.5398 1.304454,-13.0445 6.17795,-26.6338 13.838134,-33.2102 -1.87142,-0.021 -3.72564,-0.058 -5.5625,-0.094 z"
             style="font-size:medium;font-style:normal;font-variant:normal;font-weight:normal;font-stretch:normal;text-indent:0;text-align:start;text-decoration:none;line-height:normal;letter-spacing:normal;word-spacing:normal;text-transform:none;direction:ltr;block-progression:tb;writing-mode:lr-tb;text-anchor:start;baseline-shift:baseline;opacity:0.42920353;color:#000000;fill:#6a5b1d;fill-opacity:1;fill-rule:nonzero;stroke:none;stroke-width:4;marker:none;visibility:visible;display:inline;overflow:visible;enable-background:accumulate;font-family:Sans;-inkscape-font-specification:Sans" />
        </g>
        <g
           id="g13957"
           transform="matrix(0.89685344,0,0,-1.0693615,382.40908,69.31998)">
          <g
             id="g13959">
            <path
               sodipodi:nodetypes="ccccccccc"
               inkscape:connector-curvature="0"
               id="path13961"
               d="m 268.19738,74.786337 39.42255,0 5.04422,1.805939 c 0.31041,-0.59786 10e-6,-1.316781 0.15521,-3.382116 0,-1.63053 -8.59848,-2.455358 -25.82714,-2.455358 -19.86709,0 -25.62854,1.305845 -25.78374,2.827672 0.1552,1.73923 0.0857,3.091329 0.0857,3.091329 l 7.11471,-1.630374 z"
               style="color:#000000;fill:#eec85d;fill-opacity:1;fill-rule:nonzero;stroke:none;stroke-width:10;marker:none;visibility:visible;display:inline;overflow:visible;enable-background:accumulate" />
            <path
               sodipodi:nodetypes="ccccscccccccc"
               inkscape:connector-curvature="0"
               id="path13963"
               transform="matrix(0.34493599,0,0,-0.25812253,980.50353,-171.71439)"
               d="m -2082.2188,-958.04768 c 0.03,0.38896 0.097,0.76723 0.25,1.15625 0.034,3.20449 0.079,9e-4 -0.25,4.92908 0,7.77283 13.0052,9.16824 66.375,9.6969 1.7217,0.017 3.4814,0 5.2813,0 49.9474,0 74.875,-0.67271 74.875,-9.54065 -0.3689,-6.55982 0.1649,-2.09778 -0.125,-5.08533 0.019,-0.0592 0.046,-0.12719 0.062,-0.1875 0.018,-0.0722 0.02,-0.14622 0.031,-0.21875 0.026,-0.12903 0.031,-0.24778 0.031,-0.375 -0.01,-0.0942 -0.014,-0.19136 -0.031,-0.28125 -0.021,-0.10738 -146.4993,-0.0937 -146.4993,-0.0937 z"
               style="color:#000000;fill:#eec85d;fill-opacity:1;fill-rule:nonzero;stroke:#6a5b1d;stroke-width:10.37123299;stroke-linejoin:round;stroke-miterlimit:4;stroke-opacity:1;stroke-dasharray:none;marker:none;visibility:visible;display:inline;overflow:visible;enable-background:accumulate" />
            <path
               style="color:#000000;fill:#d1ad43;fill-opacity:1;fill-rule:nonzero;stroke:none;stroke-width:0.05858524;marker:none;visibility:visible;display:inline;overflow:visible;enable-background:accumulate"
               d="m 2587.2217,-23.970274 c 0,0 0.6759,-4.15143 0.5908,-0.592226 1.132,-0.414691 5.7256,-0.735625 12.6563,-1 z m 171.1221,-0.18452 -9.5313,-1.032706 c 5.5367,0.242507 9.2627,0.509096 9.9063,0.8125 0.08,-2.841794 0.3192,2.007038 -0.375,0.220206 z m -170.5626,-0.0015 c -0.047,1.710664 -0.1193,3.668552 -0.2812,6.09375 0,9.3813497 16.4694,11.9167122 83.8125,11.9167122 58.3997,0 87.5313,-1.3606004 87.5313,-11.7292122 -0.1695,-3.01408 -0.16,-4.830681 -0.125,-6.28125 -0.8534,0.454462 -6.0783,0.999537 -15.125,1.46875 l -2.375,1.125 -39.2188,0 c -9.2136,0.11745 -19.218,0.1875 -30.6875,0.1875 -12.6339,0 -22.9342,-0.07153 -32.1875,-0.1875 l -31.5312,0 0.4374,-0.71875 c -13.5337,-0.564377 -18.9979,-1.303736 -20.25,-1.875 z"
               transform="matrix(0.29501291,0,0,-0.22076408,-501.07956,70.022737)"
               id="path13965"
               inkscape:connector-curvature="0"
               sodipodi:nodetypes="ccccccccccscccccscccc" />
            <path
               style="color:#000000;fill:#ffde88;fill-opacity:1;fill-rule:nonzero;stroke:none;stroke-width:10;marker:none;visibility:visible;display:inline;overflow:visible;enable-background:accumulate"
               d="m 312.81936,75.38374 c 0,-0.258493 -8.59848,-0.64516 -25.82714,-0.64516 -19.86709,0 -24.57021,0.419842 -24.72541,0.661102 0,0.670204 50.30543,0.505461 50.55255,-0.01594 z"
               id="path13967"
               inkscape:connector-curvature="0"
               sodipodi:nodetypes="cccc" />
          </g>
        </g>
      </g>
      <g
         id="g12713"
         transform="translate(475.57505,-235.93571)">
        <g
           transform="matrix(2.3061253,0,0,3.1950301,-152.59441,-518.0407)"
           id="g12715">
          <g
             id="g12717"
             transform="translate(116.24253,40.16349)">
            <g
               id="g12719"
               transform="matrix(0.90934944,0,0,0.90934944,341.12312,-2833.2001)">
              <g
                 transform="matrix(1.0366626,0,0,1,13.076783,0)"
                 id="g12721">
                <path
                   sodipodi:nodetypes="ccccccccccccccc"
                   id="path12723"
                   transform="matrix(0.12170582,0,0,0.09225387,-446.88914,3294.4802)"
                   d="m 772.15625,-770.53125 c -40.33403,0.22851 -80.21557,3.96699 -110.59375,11.59375 -32.11623,6.41148 -53.59375,22.46848 -53.59375,39.07502 0.009,1.14395 0.41255,7.55505 0.71865,6.67498 l 1.03125,12.40625 0,0.0625 c 3.44697,0.3843 325.86251,1.82446 337.4375,-1.25 l 0.375,0 0,-2.125 c 0.009,-0.008 0.0232,-0.0237 0.0312,-0.0312 -0.0427,-7.86417 -0.004,-24.58383 -0.1562,-25.53125 -0.0467,-2.29596 0.12222,13.28963 -0.125,0.55127 0,-8.88021 -16.31105,-22.27134 -41.75,-27.27002 -33.91783,-9.45928 -83.95297,-14.43625 -133.375,-14.15625 z"
                   style="color:#000000;fill:#ffcc00;fill-opacity:1;fill-rule:nonzero;stroke:#6a5b1d;stroke-width:11.92249966;stroke-linejoin:round;stroke-miterlimit:4;stroke-opacity:1;stroke-dasharray:none;marker:none;visibility:visible;display:inline;overflow:visible;enable-background:accumulate"
                   inkscape:connector-curvature="0" />
                <path
                   sodipodi:nodetypes="cccccc"
                   id="path12725"
                   transform="matrix(0.25522609,0,0,0.26458334,-12.614316,18.562493)"
                   d="m -1411.625,12129.672 0.8438,7.422 c 1.6437,0.134 155.3866,0.634 160.9062,-0.438 0.066,0 0.1223,0 0.1875,0 l 0,-8.64 c 1.6598,-19.117 -160.5677,-22.122 -161.9375,1.656 z"
                   style="color:#000000;fill:#eec85d;fill-opacity:1;fill-rule:nonzero;stroke:none;stroke-width:0;marker:none;visibility:visible;display:inline;overflow:visible;enable-background:accumulate"
                   inkscape:connector-curvature="0" />
                <path
                   style="color:#000000;fill:#ddb850;fill-opacity:1;fill-rule:nonzero;stroke:none;stroke-width:12;marker:none;visibility:visible;display:inline;overflow:visible;enable-background:accumulate"
                   d="m 630.09375,453.40778 0,20.90472 c 3.65064,-0.012 7.2038,-0.0448 10.53125,-0.0625 0.18393,-9.8e-4 0.34812,10e-4 0.53125,0 2.1977,-0.0146 4.35461,-0.0479 6.375,-0.0625 1.47073,-0.0107 2.73915,-0.0208 4.125,-0.0312 4.17242,-0.0383 8.62641,-0.0706 11.53125,-0.125 1.95977,-0.0367 3.492,-0.0802 4.75,-0.125 0.16411,-0.006 0.31776,0.006 0.46875,0 1.21076,-0.0477 2.14015,-0.0986 2.4375,-0.15625 l 0.1875,0 0,-7.87347 c 0,-1.01597 -0.43013,-1.99579 -1.25,-2.90625 -0.0434,-0.0482 -0.0794,-0.10835 -0.125,-0.15625 -0.12434,-0.12082 -0.26621,-0.25603 -0.40625,-0.375 -0.13184,-0.12054 -0.29192,-0.22516 -0.4375,-0.34375 -5.46941,-4.11705 -20.42365,-7.08043 -38.71875,-8.6875 z"
                   transform="matrix(0.28066888,0,0,0.29095893,-519.90565,3091.8797)"
                   id="path12727"
                   inkscape:connector-curvature="0"
                   sodipodi:nodetypes="ccccccsccccscccccc" />
                <path
                   id="path12729"
                   transform="matrix(0.12170582,0,0,0.0910661,-427.59386,3256.1585)"
                   d="m 514.78125,-350.71875 c -37.92513,7.85078 -64.52504,20.96684 -65.375,40.03125 l 0,0.0312 c -4.5e-4,0.0105 4.4e-4,0.0207 0,0.0312 l 0.21875,2.625 1.5625,18.9375 c 0.86174,0.0973 21.63971,0.26398 52.53125,0.40625 3.24305,0.0149 7.60832,0.0169 11.0625,0.0312 l 0,-62.09375 z"
                   style="opacity:0.70796461;color:#000000;fill:#f8d67a;fill-opacity:1;fill-rule:nonzero;stroke:none;stroke-width:12;marker:none;visibility:visible;display:inline;overflow:visible;enable-background:accumulate"
                   inkscape:connector-curvature="0" />
                <path
                   inkscape:connector-curvature="0"
                   style="color:#000000;fill:#f8d67a;fill-opacity:1;fill-rule:nonzero;stroke:none;stroke-width:12;marker:none;visibility:visible;display:inline;overflow:visible;enable-background:accumulate"
                   d="m 1302.3125,-656.59375 c -45.4834,-0.23784 -91.3875,7.10615 -92.1563,23.875 l 0.25,2.84375 c 7.461,-31.43265 180.567,-27.19117 181.5313,-1.25 l 0,-3.9375 c 0.9315,-13.48179 -44.1416,-21.29341 -89.625,-21.53125 z"
                   transform="matrix(0.22737785,0,0,0.18758783,-648.06172,3346.563)"
                   id="path12731" />
              </g>
            </g>
            <g
               transform="translate(0,0.27161195)"
               id="g12733">
              <path
                 sodipodi:nodetypes="ccccc"
                 inkscape:connector-curvature="0"
                 id="path12735"
                 d="m 152.54817,326.88605 c 0,3.89444 -32.95394,7.05151 -72.700163,7.05151 -39.746223,0 -73.2867725,-3.15707 -73.2867725,-7.05151 3.8129555,-0.0815 33.5405495,-1.24438 73.2867725,-1.24438 39.746223,0 44.836263,-1.18355 72.700163,1.24438 z"
                 style="color:#000000;fill:#ffbb00;fill-opacity:1;fill-rule:nonzero;stroke:#6a5b1d;stroke-width:4.2650547;stroke-linecap:round;stroke-linejoin:round;stroke-miterlimit:4;stroke-opacity:1;stroke-dasharray:none;stroke-dashoffset:0;marker:none;visibility:visible;display:inline;overflow:visible;enable-background:accumulate"
                 transform="matrix(0.26458334,0,0,0.26458334,-6.3049604e-6,16.916276)" />
              <path
                 sodipodi:nodetypes="ssss"
                 inkscape:connector-curvature="0"
                 id="path12737"
                 d="m 152.54817,326.88605 c -0.48157,3.8789 -32.95394,7.05151 -72.700163,7.05151 -39.746223,0 -73.3999501,-3.15793 -73.2867725,-7.05151 0.4664614,-16.04741 147.7537155,-14.23073 145.9869355,0 z"
                 style="color:#000000;fill:#9c8135;fill-opacity:1;fill-rule:nonzero;stroke:none;stroke-width:10;marker:none;visibility:visible;display:inline;overflow:visible;enable-background:accumulate"
                 transform="matrix(0.26458334,0,0,0.26458334,-6.3049604e-6,16.916276)" />
            </g>
          </g>
        </g>
        <path
           style="color:#000000;fill:#d5b352;fill-opacity:1;fill-rule:nonzero;stroke:#6a5b1d;stroke-width:3.17499995;stroke-linejoin:round;stroke-miterlimit:4;stroke-opacity:1;stroke-dasharray:none;marker:none;visibility:visible;display:inline;overflow:visible;enable-background:accumulate"
           d="m 121.38238,-56.716963 c 27.02378,7.240999 21.7293,27.087344 21.7293,32.592268 0,-3.815107 39.65226,-3.140589 40.18088,0 0,-5.053171 -5.77267,-24.929071 22.82677,-32.592268 0,-9.117936 -84.73695,-8.753724 -84.73695,0 z"
           id="path12739"
           inkscape:connector-curvature="0"
           sodipodi:nodetypes="ccccc" />
        <path
           sodipodi:nodetypes="ccccc"
           inkscape:connector-curvature="0"
           id="path12741"
           d="m 121.38238,-56.716963 c 27.02378,7.240999 21.7293,27.087344 21.7293,32.592268 0,-3.815107 39.65226,-3.140589 40.18088,0 0,-5.053171 -5.77267,-24.929071 22.82677,-32.592268 0.31108,-12.064307 -84.4632,-11.363661 -84.73695,0 z"
           style="color:#000000;fill:#d5b352;fill-opacity:1;fill-rule:nonzero;stroke:none;stroke-width:12;marker:none;visibility:visible;display:inline;overflow:visible;enable-background:accumulate" />
        <path
           sodipodi:nodetypes="sccccs"
           inkscape:connector-curvature="0"
           id="path12743"
           transform="matrix(0.26458334,0,0,0.26458334,-6.3049604e-6,18.562493)"
           d="m 619.71875,-317.71875 c -80.08404,0.33101 -160.42018,11.71287 -160.9375,33.1875 30.76947,8.24465 50.42123,20.8298 62.90625,34.9375 28.86014,-56.4287 193.87584,-30.46371 199.5625,-7.25 13.09241,-10.96631 31.62495,-20.67894 57.78125,-27.6875 0.58787,-22.79869 -79.22846,-33.51851 -159.3125,-33.1875 z"
           style="opacity:0.65486725;color:#000000;fill:#9c8135;fill-opacity:1;fill-rule:nonzero;stroke:none;stroke-width:12;marker:none;visibility:visible;display:inline;overflow:visible;enable-background:accumulate" />
        <path
           id="path12745"
           transform="matrix(0.26458334,0,0,0.26458334,-6.3049604e-6,18.562493)"
           d="m 462.3125,-283.53125 c 97.5538,27.98112 78.80943,100.77507 78.59375,121.8125 2.51322,-14.00988 149.86286,-11.3937 151.84375,0.375 0,-5.63774 -1.88172,-16.16465 -1.78125,-28.9375 -10.02161,3.92441 -23.83913,7.70818 -41.40625,6.5625 -38.16112,-2.48877 -95.38624,-7.47071 -97.875,-24.0625 -2.27342,-15.15612 -25.33276,-73.91379 -89.375,-75.75 z"
           style="opacity:0.65486725;color:#000000;fill:#f8d67a;fill-opacity:1;fill-rule:nonzero;stroke:none;stroke-width:12;marker:none;visibility:visible;display:inline;overflow:visible;enable-background:accumulate"
           inkscape:connector-curvature="0" />
        <g
           id="g12747"
           transform="matrix(1.2343721,0,0,1.5510544,-6.2420427,-243.3001)">
          <g
             transform="translate(116.24253,40.16349)"
             id="g12749">
            <g
               transform="matrix(0.90934944,0,0,0.90934944,341.12312,-2833.2001)"
               id="g12751">
              <g
                 id="g12753"
                 transform="matrix(1.0366626,0,0,1,13.076783,0)">
                <path
                   sodipodi:nodetypes="ccccsc"
                   inkscape:connector-curvature="0"
                   id="path12755"
                   d="m -372.89476,3227.5762 c 0.0276,2.6752 0.0955,-0.3799 0.21258,2.2551 1.1416,-0.3423 40.25222,0.3051 41.11532,-0.3087 -0.0208,-2.902 0.0421,-0.015 -0.0319,-2.9098 0,-1.7122 -8.65919,-1.5313 -18.04723,-1.7655 -11.11368,-0.2773 -23.24877,-0.574 -23.24877,2.7289 z"
                   style="color:#000000;fill:#ffcc00;fill-opacity:1;fill-rule:nonzero;stroke:#6a5b1d;stroke-width:2.47832155;stroke-linejoin:round;stroke-miterlimit:4;stroke-opacity:1;stroke-dasharray:none;marker:none;visibility:visible;display:inline;overflow:visible;enable-background:accumulate" />
                <path
                   inkscape:connector-curvature="0"
                   style="color:#000000;fill:#eec85d;fill-opacity:1;fill-rule:nonzero;stroke:none;stroke-width:0;marker:none;visibility:visible;display:inline;overflow:visible;enable-background:accumulate"
                   d="m -1411.625,12129.672 0.8438,7.422 c 1.6437,0.134 155.3866,0.634 160.9062,-0.438 0.066,0 0.1223,0 0.1875,0 l 0,-8.64 c 1.6598,-19.117 -160.5677,-22.122 -161.9375,1.656 z"
                   transform="matrix(0.25522609,0,0,0.26458334,-12.614316,18.562493)"
                   id="path12757"
                   sodipodi:nodetypes="cccccc" />
                <path
                   sodipodi:nodetypes="ccccccsccccscccccc"
                   inkscape:connector-curvature="0"
                   id="path12759"
                   transform="matrix(0.28066888,0,0,0.29095893,-519.90565,3091.8797)"
                   d="m 630.09375,453.40778 0,20.90472 c 3.65064,-0.012 7.2038,-0.0448 10.53125,-0.0625 0.18393,-9.8e-4 0.34812,10e-4 0.53125,0 2.1977,-0.0146 4.35461,-0.0479 6.375,-0.0625 1.47073,-0.0107 2.73915,-0.0208 4.125,-0.0312 4.17242,-0.0383 8.62641,-0.0706 11.53125,-0.125 1.95977,-0.0367 3.492,-0.0802 4.75,-0.125 0.16411,-0.006 0.31776,0.006 0.46875,0 1.21076,-0.0477 2.14015,-0.0986 2.4375,-0.15625 l 0.1875,0 0,-7.87347 c 0,-1.01597 -0.43013,-1.99579 -1.25,-2.90625 -0.0434,-0.0482 -0.0794,-0.10835 -0.125,-0.15625 -0.12434,-0.12082 -0.26621,-0.25603 -0.40625,-0.375 -0.13184,-0.12054 -0.29192,-0.22516 -0.4375,-0.34375 -5.46941,-4.11705 -20.42365,-7.08043 -38.71875,-8.6875 z"
                   style="color:#000000;fill:#ddb850;fill-opacity:1;fill-rule:nonzero;stroke:none;stroke-width:12;marker:none;visibility:visible;display:inline;overflow:visible;enable-background:accumulate" />
                <path
                   sodipodi:nodetypes="ccccc"
                   id="path12761"
                   transform="matrix(0.28066888,0,0,0.29095893,-497.78585,3091.8797)"
                   d="m 473.3125,454.59378 c -16.69863,2.55362 -28.30358,6.80126 -28.34375,12.78125 l 0.75,6.78122 c 0.41031,0.0283 11.98684,0.0835 27.59375,0.125 z"
                   style="color:#000000;fill:#f8d67a;fill-opacity:1;fill-rule:nonzero;stroke:none;stroke-width:12;marker:none;visibility:visible;display:inline;overflow:visible;enable-background:accumulate"
                   inkscape:connector-curvature="0" />
                <path
                   id="path12763"
                   transform="matrix(0.22737785,0,0,0.18758783,-648.06172,3346.563)"
                   d="m 1302.3125,-656.59375 c -45.4834,-0.23784 -91.3875,7.10615 -92.1563,23.875 l 0.25,2.84375 c 7.461,-31.43265 180.567,-27.19117 181.5313,-1.25 l 0,-3.9375 c 0.9315,-13.48179 -44.1416,-21.29341 -89.625,-21.53125 z"
                   style="color:#000000;fill:#f8d67a;fill-opacity:1;fill-rule:nonzero;stroke:none;stroke-width:12;marker:none;visibility:visible;display:inline;overflow:visible;enable-background:accumulate"
                   inkscape:connector-curvature="0" />
              </g>
            </g>
            <g
               id="g12765"
               transform="translate(0,0.27161195)">
              <path
                 transform="matrix(0.26458334,0,0,0.26458334,-6.3049604e-6,16.916276)"
                 style="color:#000000;fill:#ffbb00;fill-opacity:1;fill-rule:nonzero;stroke:#6a5b1d;stroke-width:8.67250729;stroke-linecap:round;stroke-linejoin:round;stroke-miterlimit:4;stroke-opacity:1;stroke-dasharray:none;stroke-dashoffset:0;marker:none;visibility:visible;display:inline;overflow:visible;enable-background:accumulate"
                 d="m 152.54817,326.88605 c 0,3.89444 -32.95394,7.05151 -72.700163,7.05151 -39.746223,0 -73.2867725,-3.15707 -73.2867725,-7.05151 3.8129555,-0.0815 33.5405495,-1.24438 73.2867725,-1.24438 39.746223,0 44.836263,-1.18355 72.700163,1.24438 z"
                 id="path12767"
                 inkscape:connector-curvature="0"
                 sodipodi:nodetypes="ccccc" />
              <path
                 transform="matrix(0.26458334,0,0,0.26458334,-6.3049604e-6,16.916276)"
                 style="color:#000000;fill:#9c8135;fill-opacity:1;fill-rule:nonzero;stroke:none;stroke-width:10;marker:none;visibility:visible;display:inline;overflow:visible;enable-background:accumulate"
                 d="m 152.54817,326.88605 c 0,3.89444 -32.95394,7.05151 -72.700163,7.05151 -39.746223,0 -73.2867725,-3.15707 -73.2867725,-7.05151 0,-15.50871 145.9869355,-12.19035 145.9869355,0 z"
                 id="path12769"
                 inkscape:connector-curvature="0"
                 sodipodi:nodetypes="ssss" />
            </g>
          </g>
        </g>
      </g>
      <g
         transform="translate(589.09704,-304.82414)"
         id="g12795">
        <g
           transform="translate(-86.900872,-55.617684)"
           id="g12797">
          <g
             id="g12799"
             transform="translate(116.24253,40.16349)">
            <g
               id="g12801"
               transform="matrix(0.90934944,0,0,0.90934944,341.12312,-2833.2001)">
              <g
                 transform="matrix(1.0366626,0,0,1,13.076783,0)"
                 id="g12803">
                <path
                   style="color:#000000;fill:#ffcc00;fill-opacity:1;fill-rule:nonzero;stroke:#6a5b1d;stroke-width:2.85767603;stroke-linejoin:round;stroke-miterlimit:4;stroke-opacity:1;stroke-dasharray:none;marker:none;visibility:visible;display:inline;overflow:visible;enable-background:accumulate"
                   d="m -372.89476,3188.4469 c 0.0276,2.6752 0.0955,38.7494 0.21258,41.3844 1.1416,-0.3423 40.25222,0.3051 41.11532,-0.3087 -0.0208,-2.902 0.0421,-39.1445 -0.0319,-42.0391 0,-3.739 -41.296,-5.1295 -41.296,0.9634 z"
                   id="path12805"
                   inkscape:connector-curvature="0"
                   sodipodi:nodetypes="ccccc" />
                <path
                   sodipodi:nodetypes="cccccc"
                   id="path12807"
                   transform="matrix(0.25522609,0,0,0.26458334,-12.614316,18.562493)"
                   d="m -1411.625,11978.946 0.8438,158.148 c 1.6437,0.134 155.3866,0.634 160.9062,-0.438 0.066,0 0.1223,0 0.1875,0 l 0,-159.366 c 0.5983,-24.778 -161.3195,-26.131 -161.9375,1.656 z"
                   style="color:#000000;fill:#eec85d;fill-opacity:1;fill-rule:nonzero;stroke:none;stroke-width:12;marker:none;visibility:visible;display:inline;overflow:visible;enable-background:accumulate"
                   inkscape:connector-curvature="0" />
                <path
                   inkscape:connector-curvature="0"
                   style="color:#000000;fill:#d5b352;fill-opacity:1;fill-rule:nonzero;stroke:none;stroke-width:12;marker:none;visibility:visible;display:inline;overflow:visible;enable-background:accumulate"
                   d="m 551.28125,315.90625 0,158.40625 c 3.65064,-0.012 7.2038,-0.0448 10.53125,-0.0625 2.39125,-0.0128 4.71751,-0.0467 6.90625,-0.0625 6.1726,-0.0448 11.71232,-0.0824 15.65625,-0.15625 1.95977,-0.0367 3.492,-0.0802 4.75,-0.125 0.16411,-0.006 0.31776,0.006 0.46875,0 1.21076,-0.0477 2.14015,-0.0986 2.4375,-0.15625 l 0.1875,0 0,-144.9375 c 0,-6.50219 -17.75372,-10.85554 -40.9375,-12.90625 z"
                   transform="matrix(0.28066888,0,0,0.29095893,-497.78585,3091.8797)"
                   id="path12809" />
                <path
                   inkscape:connector-curvature="0"
                   style="color:#000000;fill:#f8d67a;fill-opacity:1;fill-rule:nonzero;stroke:none;stroke-width:12;marker:none;visibility:visible;display:inline;overflow:visible;enable-background:accumulate"
                   d="m 473.3125,317.53125 c -16.69863,2.55362 -28.30358,6.80126 -28.34375,12.78125 l 0.75,143.84375 c 0.41031,0.0283 11.98684,0.0835 27.59375,0.125 l 0,-156.75 z"
                   transform="matrix(0.28066888,0,0,0.29095893,-497.78585,3091.8797)"
                   id="path12811" />
                <path
                   style="color:#000000;fill:#fce5a5;fill-opacity:1;fill-rule:nonzero;stroke:none;stroke-width:12;marker:none;visibility:visible;display:inline;overflow:visible;enable-background:accumulate"
                   d="m -352.95881,3189.5299 c -3.07287,0 -5.56076,4.5316 -5.56076,8.1832 0,2.0057 0.75165,2.2342 1.93837,3.446 -3.20182,-0.3921 -7.56928,0.7911 -7.56928,0.7911 l 0.12279,3.7097 c 0,0 3.48808,-1.8036 10.0076,-2.5277 -0.20341,5.5793 -1.10514,20.4126 -1.10514,20.4126 l 4.69244,0 -1.01743,-20.3672 c 3.37618,0 9.56906,2.4823 9.56906,2.4823 l 0.12279,-3.7097 c 0,0 -4.38269,-1.1741 -7.58683,-0.782 1.19112,-1.2119 1.95591,-1.4449 1.95591,-3.4551 l -0.0175,-0.491 c -0.21681,-3.4509 -2.63995,-7.6922 -5.55198,-7.6922 z m 0,1.9276 c 2.06524,0 3.78426,1.8896 3.93813,4.3371 l 0.009,0.3546 c 0,2.5897 -1.76758,4.6826 -3.9469,4.6826 -2.17933,0 -3.94691,-2.0929 -3.94691,-4.6826 0,-2.5899 1.76758,-4.6917 3.94691,-4.6917 z m -18.18208,4.0552 c -0.10752,0.01 -0.21444,0.029 -0.32453,0.054 -0.49937,0.1157 -0.96815,0.4114 -1.39457,0.8275 l 0.009,1.8094 c 0.39215,-0.5465 0.86896,-0.9259 1.3858,-1.0457 0.0781,-0.018 0.15181,-0.031 0.22805,-0.036 1.14362,-0.085 2.0616,1.2017 2.14887,3.0823 l 0.009,0.291 c 0,2.1454 -1.06741,4.1317 -2.38569,4.4371 -0.50239,0.1164 -0.96481,-0.031 -1.35072,-0.3728 l 0.009,2.6732 0.69291,-0.2455 c -0.11247,4.251 -0.53508,13.0762 -0.61397,14.7025 l 0,1.0456 2.78915,-0.6455 -0.61396,-15.4299 5.78002,-0.582 0.0789,-3.0914 c 0,0 -2.64899,0.9447 -4.58718,1.7185 0.72051,-1.1709 1.1753,-2.7718 1.1753,-4.4371 l -0.009,-0.4092 c -0.12298,-2.6517 -1.41326,-4.4663 -3.02596,-4.3462 z m 37.21494,0 c -1.46199,0.1237 -2.59543,1.8713 -2.71021,4.3462 l -0.009,0.4092 c 0,1.6653 0.45478,3.2662 1.1753,4.4371 -1.9382,-0.7738 -4.58719,-1.7185 -4.58719,-1.7185 l 0.0789,3.0914 5.78003,0.582 -0.61397,15.4299 2.84178,0.6546 c 0,0 -0.54355,-11.1066 -0.66659,-15.7572 l 1.07005,0.391 0,-3.2279 c -0.43572,0.6262 -1.04694,0.9377 -1.7191,0.782 -1.31828,-0.3054 -2.38568,-2.2917 -2.38568,-4.4371 l 0.009,-0.291 c 0.0814,-1.7552 0.88417,-2.9944 1.92082,-3.0823 0.1481,-0.013 0.29993,2e-4 0.45609,0.036 0.67351,0.156 1.28321,0.7583 1.7191,1.5912 l 0,-2.0094 c -0.50349,-0.6037 -1.09109,-1.0275 -1.7191,-1.173 -0.22019,-0.051 -0.43142,-0.072 -0.64027,-0.054 z"
                   id="path12813"
                   inkscape:connector-curvature="0" />
                <path
                   style="color:#000000;fill:#9c8135;fill-opacity:1;fill-rule:nonzero;stroke:none;stroke-width:12;marker:none;visibility:visible;display:inline;overflow:visible;enable-background:accumulate"
                   d="m 187.5625,123.0625 c -10.94836,0 -21.05688,7.48627 -21.05688,26.05103 0,6.89355 3.92242,9.75295 8.15063,13.91772 C 163.24842,161.68356 147.6875,165.75 147.6875,165.75 l 0.4375,12.75 c 0,0 12.42774,-6.19873 35.65625,-8.6875 -0.72474,19.17558 -3.9375,70.15625 -3.9375,70.15625 l 16.71875,0 -3.625,-70 c 12.02905,0 34.09375,8.53125 34.09375,8.53125 l 0.4375,-12.75 c 0,0 -15.61517,-4.03514 -27.03125,-2.6875 4.24387,-4.16513 8.00574,-6.62534 8.00574,-13.53418 l -0.0625,-1.6875 c 0,-17.0518 -10.44291,-24.77832 -20.81824,-24.77832 z m 0,6.625 c 7.35828,0 13.48301,6.49463 14.03125,14.90625 l 0.0312,1.21875 c 0,8.90069 -6.29774,16.09375 -14.0625,16.09375 -7.76476,0 -14.0625,-7.19306 -14.0625,-16.09375 0,-8.9011 6.29774,-16.125 14.0625,-16.125 z m -64.78125,13.9375 c -0.38306,0.0276 -0.764,0.0999 -1.15625,0.1875 -1.77312,0.3962 -3.45347,1.39029 -4.96875,2.8125 l 0.0312,6.25 c 1.3972,-1.87811 3.09603,-3.18228 4.9375,-3.59375 0.27821,-0.0622 0.54086,-0.10554 0.8125,-0.125 4.07465,-0.29235 7.34534,4.13019 7.65625,10.59375 l 0.0312,1 c 0,7.37373 -3.80307,14.20048 -8.5,15.25 -1.78997,0.39996 -3.43756,-0.10712 -4.8125,-1.28125 l 0.0625,9.1875 2.4375,-0.84375 c -0.39909,14.55119 -1.89657,44.58684 -2.1875,50.375 l 0.0312,3.75 9.90625,-2.21875 -2.1875,-53.03125 20.59375,-2 0.28125,-10.625 c 0,0 -9.43813,3.24676 -16.34375,5.90625 2.56713,-4.0242 4.1875,-9.52641 4.1875,-15.25 l -0.0312,-1.40625 c -0.43816,-9.11365 -5.03533,-15.3504 -10.78125,-14.9375 z m 132.59375,0 c -5.20895,0.42522 -9.2473,6.43143 -9.65625,14.9375 l -0.0312,1.40625 c 0,5.72359 1.62037,11.2258 4.1875,15.25 -6.90562,-2.65949 -16.34375,-5.90625 -16.34375,-5.90625 l 0.28125,10.625 20.59375,2 -2.1875,53.03125 10.125,2.25 c 0,0 -1.93661,-38.17238 -2.375,-54.15625 l 3.8125,1.34375 0,-11.09375 c -1.55243,2.15193 -3.73015,3.22262 -6.125,2.6875 -4.69693,-1.04952 -8.5,-7.87627 -8.5,-15.25 l 0.0312,-1 c 0.29019,-6.03265 3.15022,-10.29134 6.84375,-10.59375 0.52765,-0.0432 1.06862,6.9e-4 1.625,0.125 2.39964,0.53619 4.57195,2.6062 6.125,5.46875 l 0,-6.90625 c -1.79387,-2.07486 -3.88745,-3.53127 -6.125,-4.03125 -0.78451,-0.17529 -1.53711,-0.24824 -2.28125,-0.1875 z"
                   transform="matrix(0.28066888,0,0,0.29095893,-405.60177,3153.0418)"
                   id="path12815"
                   inkscape:connector-curvature="0"
                   sodipodi:nodetypes="ssccccccccccccssccssscsccccccscccccccccccccscccccccccccsccsccccs" />
                <path
                   style="opacity:0.52212387;color:#000000;fill:#28220b;fill-opacity:1;fill-rule:nonzero;stroke:none;stroke-width:12;marker:none;visibility:visible;display:inline;overflow:visible;enable-background:accumulate"
                   d="m 187.5625,123.0625 c -10.94836,0 -21.0625,7.49774 -21.0625,26.0625 0,0.12947 0.0285,0.24834 0.0312,0.375 0.37969,-17.78752 10.29444,-25 21.03125,-25 10.37533,0 20.8125,7.72945 20.8125,24.78125 l 0.0312,1.09375 c 0.0131,-0.27617 0.0312,-0.5522 0.0312,-0.84375 l -0.0625,-1.6875 c 0,-17.0518 -10.43717,-24.78125 -20.8125,-24.78125 z m -64.78125,20.5625 c -0.38306,0.0276 -0.764,0.0999 -1.15625,0.1875 -1.77312,0.3962 -3.45347,1.39029 -4.96875,2.8125 l 0,1.4375 c 1.51528,-1.42221 3.19563,-2.4163 4.96875,-2.8125 0.0201,-0.005 2.94596,0.004 2.96606,0 4.03384,1.0309 8.57736,6.55327 8.97144,14.75 l 0,0.59375 c 0.004,-0.20989 0.0312,-0.41445 0.0312,-0.625 l -0.0312,-1.40625 c -0.43816,-9.11365 -5.03533,-15.3504 -10.78125,-14.9375 z m 132.59375,0 c -5.20895,0.42522 -9.2473,6.43143 -9.65625,14.9375 l -0.0312,1.40625 c 0,0.21055 0.0269,0.41511 0.0312,0.625 l 0,-0.59375 c 0.40895,-8.50607 4.4473,-14.51228 9.65625,-14.9375 0.74414,-0.0607 1.49674,0.0122 2.28125,0.1875 2.23755,0.49998 6.125,1.28844 6.125,4.03125 l 0,-1.4375 c -1.79387,-2.07486 -3.88745,-3.53127 -6.125,-4.03125 -0.78451,-0.17529 -1.53711,-0.24824 -2.28125,-0.1875 z m -53.78125,2.78125 c -0.27366,8.62361 -6.44056,15.5 -14.03125,15.5 -7.55411,0 -13.70228,-6.80984 -14.03125,-15.375 -0.01,0.24343 -0.0312,0.47264 -0.0312,0.71875 0,8.90069 6.29774,16.09375 14.0625,16.09375 7.76476,0 14.0625,-7.19306 14.0625,-16.09375 z m -71.5,15.1875 c -0.27649,7.04308 -3.95202,13.39699 -8.46875,14.40625 -1.78997,0.39996 -3.43756,-0.10712 -4.8125,-1.28125 l 0,1.4375 c 1.37494,1.17413 3.02253,1.68121 4.8125,1.28125 4.69693,-1.04952 8.72995,-7.87985 8.5,-15.25 z m 119.09375,0 -0.0312,0.59375 c -0.22995,7.37015 3.80307,14.20048 8.5,15.25 2.39485,0.53512 4.57257,-0.53557 6.125,-2.6875 l 0,-1.4375 c -1.55243,2.15193 -3.73015,3.22262 -6.125,2.6875 -4.51673,-1.00926 -8.19226,-7.36317 -8.46875,-14.40625 z M 170.21875,162.75 c -10.62081,-0.1245 -22.53125,3 -22.53125,3 l 0.0625,1.4375 c 0.17461,-0.0455 15.56302,-4.05881 26.90625,-2.71875 -0.57255,-0.56396 -1.10389,-1.0644 -1.65625,-1.59375 -0.91286,-0.0665 -1.8388,-0.11395 -2.78125,-0.125 z m 34.65625,0.0312 c -0.94386,0.0116 -1.86743,0.0583 -2.78125,0.125 -0.55693,0.52438 -1.07255,1.02088 -1.65625,1.59375 11.35143,-1.34001 26.79354,2.64236 26.96875,2.6875 l 0.0625,-1.4375 c 0,0 -11.95703,-3.09921 -22.59375,-2.96875 z m -59.125,6.53125 c 0,0 -8.52985,2.95226 -15.3125,5.53125 -0.32744,0.63472 -0.66282,1.23495 -1.03125,1.8125 6.88846,-2.65288 16.26577,-5.89017 16.3125,-5.90625 z m 87.78125,0 0.0312,1.4375 c 0.0467,0.0161 9.42404,3.25337 16.3125,5.90625 -0.36843,-0.57755 -0.70381,-1.17778 -1.03125,-1.8125 -6.78265,-2.57899 -15.3125,-5.53125 -15.3125,-5.53125 z m -49.8125,1.9375 c -0.8096,20.04729 -3.875,68.71875 -3.875,68.71875 l 0.0937,0 c 0.15776,-2.50831 3.1377,-50.03775 3.84375,-68.71875 -0.0212,0.002 -0.0413,-0.002 -0.0625,0 z m 9.21875,0.15625 3.5625,68.5625 0.0625,0 L 193,171.40625 c -0.0198,-5e-5 -0.0428,0 -0.0625,0 z m -68.0625,11.9688 2.125,51.59375 0.0625,0 -2.125,-51.59375 z m 129.46875,0 -2.125,51.59375 0.0625,0 2.125,-51.59375 z M 119.3125,184.5 119.25,184.5312 c -0.44571,14.95445 -1.84217,43.27929 -2.125,48.90625 l 0,1.21875 c 0.3014,-5.999 1.7904,-35.67764 2.1875,-50.15625 z m 140.65625,0 c 0.42311,15.42674 2.18623,50.18999 2.3125,52.6875 l 0.0625,0.0312 c 0,0 -1.84186,-36.02192 -2.34375,-52.6875 z"
                   transform="matrix(0.28066888,0,0,0.29095893,-405.60177,3153.0418)"
                   id="path12817"
                   inkscape:connector-curvature="0"
                   sodipodi:nodetypes="cscsccccscscccccccccsccccsccccscccssccccccsccccsccscsccccssccccscccccccccccccccccccccccccccccccccccccccccccccc" />
              </g>
            </g>
            <g
               transform="translate(0,0.27161195)"
               id="g12819">
              <path
                 sodipodi:nodetypes="ccccc"
                 inkscape:connector-curvature="0"
                 id="path12821"
                 d="m 152.54817,326.88605 c 0,3.89444 -32.95394,7.05151 -72.700163,7.05151 -39.746223,0 -73.2867725,-3.15707 -73.2867725,-7.05151 3.8129555,-0.0815 33.5405495,-1.24438 73.2867725,-1.24438 39.746223,0 44.836263,-1.18355 72.700163,1.24438 z"
                 style="color:#000000;fill:#ffbb00;fill-opacity:1;fill-rule:nonzero;stroke:#6a5b1d;stroke-width:10;stroke-linecap:round;stroke-linejoin:round;stroke-miterlimit:4;stroke-opacity:1;stroke-dashoffset:0;marker:none;visibility:visible;display:inline;overflow:visible;enable-background:accumulate"
                 transform="matrix(0.26458334,0,0,0.26458334,-6.3049604e-6,16.916276)" />
              <path
                 sodipodi:nodetypes="ssss"
                 inkscape:connector-curvature="0"
                 id="path12823"
                 d="m 152.54817,326.88605 c 0,3.89444 -32.95394,7.05151 -72.700163,7.05151 -39.746223,0 -73.2867725,-3.15707 -73.2867725,-7.05151 0,-15.50871 145.9869355,-12.19035 145.9869355,0 z"
                 style="color:#000000;fill:#9c8135;fill-opacity:1;fill-rule:nonzero;stroke:none;stroke-width:10;marker:none;visibility:visible;display:inline;overflow:visible;enable-background:accumulate"
                 transform="matrix(0.26458334,0,0,0.26458334,-6.3049604e-6,16.916276)" />
            </g>
          </g>
        </g>
      </g>
      <g
         transform="matrix(1,0,0,0.86686043,209.59822,-160.15948)"
         id="g12825">
        <path
           style="color:#000000;fill:#f5cb5d;fill-opacity:1;fill-rule:nonzero;stroke:#6a5b1d;stroke-width:11.66418171;stroke-linecap:round;stroke-linejoin:round;stroke-miterlimit:4;stroke-opacity:1;stroke-dasharray:none;stroke-dashoffset:0;marker:none;visibility:visible;display:inline;overflow:visible;enable-background:accumulate"
           d="m 1107.25,-110.0625 c -31.8947,0.27837 -60.2031,3.58648 -60.5625,11.1875 -10.181,147.605889 -15.643,295.7039 -23.25,443.53125 -2.6605,60.67003 -6.0905,121.32399 -8.4375,182 -0.7969,16.04007 -1.2812,25.97793 -1.2812,26.75 0,2.12278 0.029,4.18445 0.094,6.1875 0.02,10.90726 1.5174,22.24751 4.9063,32.84375 0.033,0.10369 0.06,0.20895 0.094,0.3125 4.196,13.76121 10.3083,22.23097 15.875,27.625 3.7948,3.97768 8.1599,7.46771 13.1875,10.3125 0,2.16751 5.0199,4.19886 13.5,5.84375 7.5143,1.99048 15.6308,2.56858 23.7188,2.9375 5.6481,0.44206 11.7617,0.77464 18.2187,1 5.823,0.20323 11.8723,0.3125 18.1563,0.3125 5.081,0 10.0524,-0.053 14.8437,-0.1875 12.5022,-0.10577 25.0128,-0.69952 37.2187,-2.75 0.1425,-0.0195 0.265,-0.0428 0.4063,-0.0625 9.1595,-1.27678 15.8726,-2.88964 19.0625,-4.6875 0.021,-0.0118 0.042,-0.0194 0.062,-0.0312 0.035,-0.0261 0.059,-0.0676 0.094,-0.0937 0.5725,-0.3379 1.0257,-0.68128 1.3438,-1.03125 3.1441,-2.40803 6.2257,-4.97426 9.1562,-7.71875 4.765,-3.6819 10.6892,-9.5616 15.6563,-19.46875 0.017,-0.0335 0.046,-0.0601 0.062,-0.0937 3.3098,-5.93784 5.6854,-12.40572 6.7188,-19.4375 1.9516,-8.71811 3.1562,-19.18578 3.1562,-31.8125 0,-0.40657 -0.1183,-3.19706 -0.3438,-8.09375 -6e-4,-0.0148 7e-4,-0.0477 0,-0.0625 -0.1226,-11.62191 -0.8302,-23.28787 -1.6562,-34.9375 -6.6923,-138.54498 -29.0459,-586.313824 -30.9688,-609.1875 -1.1038,-6.90128 -48.0237,-11.54541 -89.0312,-11.1875 z"
           transform="matrix(0.26458334,0,0,0.26458334,133.08743,-34.846011)"
           id="path12827"
           inkscape:connector-curvature="0" />
        <path
           sodipodi:nodetypes="cssssscc"
           inkscape:connector-curvature="0"
           id="path12829"
           d="m 410.02036,-61.007382 c -0.24646,6.782146 -8.72145,170.862682 -8.72145,172.583832 0,17.97291 9.0389,19.47712 9.0389,20.44869 0,1.47492 8.72,2.67076 19.47487,2.67076 10.7548,0 19.47482,-1.19584 19.47482,-2.67076 0,-0.97157 9.0389,-2.63099 9.0389,-20.44869 0,-1.72115 -8.123,-165.465392 -8.72139,-172.583832 -0.51921,-3.246156 -39.3673,-4.596806 -39.58465,0 z"
           style="color:#000000;fill:#fdd979;fill-opacity:1;fill-rule:nonzero;stroke:none;stroke-width:0;marker:none;visibility:visible;display:inline;overflow:visible;enable-background:accumulate" />
        <path
           style="color:#000000;fill:#ffdf88;fill-opacity:1;fill-rule:nonzero;stroke:none;stroke-width:0;marker:none;visibility:visible;display:inline;overflow:visible;enable-background:accumulate"
           d="m 1085.5,-109.3125 c -21.9831,1.36043 -38.5384,4.63981 -38.8125,10.4375 -0.9315,25.633307 -32.9687,645.77612 -32.9687,652.28125 0,67.92911 34.1562,73.60917 34.1562,77.28125 0,4.39542 20.5309,8.14592 49.125,9.53125 -4.18,-5.316 -7.7314,-11.65 -10.25,-19.25 -14.5082,-43.77925 1.0076,-379.5778 -1.25,-730.28125 z"
           transform="matrix(0.26458334,0,0,0.26458334,133.08743,-34.846011)"
           id="path12831"
           inkscape:connector-curvature="0" />
        <path
           style="color:#000000;fill:#d5b352;fill-opacity:1;fill-rule:nonzero;stroke:none;stroke-width:0;marker:none;visibility:visible;display:inline;overflow:visible;enable-background:accumulate"
           d="m 1013.8125,552.28125 c -0.079,0.48892 0.084,0.97476 -0.094,1.125 0,67.92911 30.9637,75.46689 34.1562,77.28125 12.9054,7.33433 32.9454,10.09375 73.5938,10.09375 40.648,0 62.4794,-2.17282 73.625,-10.09375 2.982,-2.11922 33.9019,-9.89672 34.1562,-76.53125 7.8174,77.87206 -200.6002,92.58848 -215.4375,-1.875 z m 215.3437,0.25 c 0.055,0.38952 0.094,0.67506 0.094,0.875 0,-0.0376 -0.029,-0.70081 -0.031,-0.78125 -0.02,-0.0333 -0.041,-0.0606 -0.063,-0.0937 z"
           transform="matrix(0.26458334,0,0,0.26458334,133.08743,-34.846011)"
           id="path12833"
           inkscape:connector-curvature="0"
           sodipodi:nodetypes="ccssscccccccc" />
        <path
           style="opacity:0.58407078;color:#000000;fill:#d3af49;fill-opacity:1;fill-rule:nonzero;stroke:none;stroke-width:12;marker:none;visibility:visible;display:inline;overflow:visible;enable-background:accumulate"
           d="m 1171.7812,-106.5625 c 5.7071,197.558901 15.6361,641.453 17.6563,655.59375 2.7038,18.92632 2.6875,24.34375 2.6875,24.34375 l -24.375,65.15625 c 0.061,-0.007 0.1269,-0.0245 0.1875,-0.0312 0.1299,-0.0145 0.2459,-0.0166 0.375,-0.0312 3.9378,-0.44633 7.5624,-0.95259 10.75,-1.5 0.8362,-0.14361 1.6272,-0.28767 2.4063,-0.4375 0.779,-0.14983 1.5303,-0.313 2.25,-0.46875 0.5339,-0.11556 1.031,-0.22508 1.5312,-0.34375 0.1706,-0.0407 0.3647,-0.084 0.5312,-0.125 0.1392,-0.0341 0.27,-0.0594 0.4063,-0.0937 0.5232,-0.13208 1.0191,-0.27069 1.5,-0.40625 0.044,-0.0124 0.081,-0.0188 0.125,-0.0312 0.5453,-0.15462 1.0427,-0.30985 1.5313,-0.46875 0.4489,-0.14605 0.8817,-0.28804 1.2812,-0.4375 0.079,-0.0295 0.142,-0.0641 0.2188,-0.0937 0.3342,-0.12838 0.6405,-0.24427 0.9374,-0.375 0.1226,-0.054 0.2277,-0.10184 0.3438,-0.15625 0.037,-0.0175 0.057,-0.045 0.094,-0.0625 0.2986,-0.14186 0.5586,-0.26189 0.8124,-0.40625 0.042,-0.0237 0.085,-0.0388 0.125,-0.0625 0.1617,-0.0948 0.2955,-0.18545 0.4376,-0.28125 0.039,-0.0262 0.056,-0.0675 0.094,-0.0937 0.1536,-0.1073 0.3089,-0.20401 0.4375,-0.3125 0.041,-0.0349 0.086,-0.0587 0.125,-0.0937 0.1382,-0.124 0.2388,-0.24956 0.3438,-0.375 0.04,-0.0473 0.09,-0.0775 0.125,-0.125 0.04,-0.0539 0.06,-0.10213 0.094,-0.15625 0.074,-0.1173 0.1429,-0.22532 0.1875,-0.34375 0.03,-0.082 0.046,-0.16752 0.062,-0.25 0.021,-0.0984 0.031,-0.18218 0.031,-0.28125 0,-0.34426 0.2996,-0.7182 0.8437,-1.15625 0.5441,-0.43805 1.3368,-0.93428 2.3125,-1.5625 1.292,-0.83189 2.9307,-1.88825 4.75,-3.25 0.011,-0.008 0.02,-0.0229 0.031,-0.0312 0.9173,-0.6878 1.8744,-1.44738 2.875,-2.3125 0.4947,-0.42767 0.9911,-0.89878 1.5,-1.375 0.5046,-0.47248 1.0167,-0.9452 1.5313,-1.46875 0.011,-0.0108 0.021,-0.0205 0.031,-0.0312 0.01,-0.0101 0.021,-0.0211 0.031,-0.0312 0.5254,-0.5355 1.0309,-1.09518 1.5625,-1.6875 1.0634,-1.18481 2.1553,-2.47273 3.2187,-3.90625 1.5902,-2.14375 3.1592,-4.59521 4.6563,-7.375 0,-0.008 0,-0.0233 0,-0.0312 0.496,-0.92202 0.9911,-1.87609 1.4687,-2.875 0,-0.008 0,-0.0229 0,-0.0312 0.1489,-0.31155 0.2908,-0.6495 0.4376,-0.96875 0.7997,-1.74096 1.5855,-3.58285 2.3124,-5.5625 3.8839,-10.57874 6.5938,-24.68492 6.5938,-43.625 0,-6.50513 -30.7071,-625.37691 -32.9688,-652.28125 -0.4951,-3.09581 -10.2307,-5.75001 -24.5,-7.6875 z"
           transform="matrix(0.26458334,0,0,0.26458334,133.08743,-34.846011)"
           id="path12835"
           inkscape:connector-curvature="0" />
        <path
           style="opacity:0.50884956;color:#000000;fill:#d5b352;fill-opacity:1;fill-rule:nonzero;stroke:none;stroke-width:0;marker:none;visibility:visible;display:inline;overflow:visible;enable-background:accumulate"
           d="m 1023.125,365.96875 c -5.1214,100.43833 -9.4062,185.16658 -9.4062,187.4375 0,67.92911 34.1562,73.60917 34.1562,77.28125 0,5.5745 32.9454,10.09375 73.5938,10.09375 28.1172,0 52.5426,-2.16536 64.9374,-5.34375 C 1042.9526,609.00127 1024.4187,452.74961 1023.125,365.96875 z"
           transform="matrix(0.26458334,0,0,0.26458334,133.08743,-34.846011)"
           id="path12837"
           inkscape:connector-curvature="0" />
      </g>
      <g
         id="g12839"
         transform="matrix(0.99966189,0,0,0.91871272,351.96893,-284.97253)">
        <g
           id="g12841">
          <path
             sodipodi:nodetypes="ccccccccc"
             inkscape:connector-curvature="0"
             id="path12843"
             d="m 268.19738,74.786337 39.42255,0 5.04422,1.805939 c 0.31041,-0.59786 10e-6,-1.316781 0.15521,-3.382116 0,-1.63053 -8.59848,-2.455358 -25.82714,-2.455358 -19.86709,0 -25.62854,1.305845 -25.78374,2.827672 0.1552,1.73923 0.0857,3.091329 0.0857,3.091329 l 7.11471,-1.630374 z"
             style="color:#000000;fill:#eec85d;fill-opacity:1;fill-rule:nonzero;stroke:none;stroke-width:10;marker:none;visibility:visible;display:inline;overflow:visible;enable-background:accumulate" />
          <path
             style="color:#000000;fill:#eec85d;fill-opacity:1;fill-rule:nonzero;stroke:#6a5b1d;stroke-width:10;stroke-linejoin:round;stroke-miterlimit:4;stroke-opacity:1;stroke-dasharray:none;marker:none;visibility:visible;display:inline;overflow:visible;enable-background:accumulate"
             d="m 1077.8125,186.90625 c -69.578,0.51575 -86.5625,8.88572 -86.5625,16.46875 0.43204,4.84162 0.38885,11.3364 0.34375,14.4375 -0.18846,0.3393 -0.30917,0.69215 -0.34375,1.03125 -0.0928,0.24264 0.0203,0.46294 0.3125,0.6875 -1.1e-4,0.004 0,0.0937 0,0.0937 0.0312,-0.011 0.0625,-0.0203 0.0937,-0.0312 2.63531,1.78846 12.341,2.91007 18.5313,2.1875 l 0.375,-2.90625 c 0,-5.7059 56.4089,-13.92924 101.2813,-12.55151 17.9931,2.19128 48.2026,3.51317 55.3694,12.55151 l 0,3.53125 c 0,0 14.8052,-0.0236 15.0993,-3.9375 0,-0.24822 -0.082,-0.50527 -0.1875,-0.75 0.378,-2.9146 -0.2934,-8.10036 0.1875,-14.5 0,-8.6514 -32.5088,-16.3125 -97.625,-16.3125 -2.3465,0 -4.6305,-0.0166 -6.875,0 z"
             transform="matrix(0.26458334,0,0,0.26458334,-6.3049604e-6,18.562493)"
             id="path12845"
             inkscape:connector-curvature="0"
             sodipodi:nodetypes="cccccccccccccccssc" />
          <path
             style="color:#000000;fill:#eec85d;fill-opacity:1;fill-rule:nonzero;stroke:none;stroke-width:0;marker:none;visibility:visible;display:inline;overflow:visible;enable-background:accumulate"
             d="m 268.19738,74.786337 39.42255,0 5.04422,1.805939 c 0.31041,-0.59786 10e-6,-2.194763 0.15521,-4.260098 0,-2.289017 -8.59848,-4.321071 -25.82714,-4.321071 -19.86709,0 -24.72541,2.293076 -24.72541,4.364141 0.1552,1.73923 0.0857,4.298555 0.0857,4.298555 l 6.05638,-1.630374 z"
             id="path12847"
             inkscape:connector-curvature="0"
             sodipodi:nodetypes="ccccccccc" />
          <path
             style="color:#000000;fill:#9c8135;fill-opacity:1;fill-rule:nonzero;stroke:none;stroke-width:10;marker:none;visibility:visible;display:inline;overflow:visible;enable-background:accumulate"
             d="m 267.37427,76.471217 c 0,-2.507655 41.25274,-1.704392 41.12364,0 l 0,0.932663 c 0,0 4.24364,-0.0058 4.32145,-1.041365 0,-1.630529 -8.59848,-2.998868 -25.82714,-2.998868 -19.86709,0 -24.57021,1.577601 -24.72541,3.099427 -0.22456,0.586956 3.14539,0.998819 5.00787,0.781414 z"
             id="path12849"
             inkscape:connector-curvature="0"
             sodipodi:nodetypes="cccccccc" />
        </g>
      </g>
    </g>
  </g>
</svg>
