<?xml version="1.0" encoding="UTF-8" standalone="no"?>
<!-- Created with Inkscape (http://www.inkscape.org/) -->

<svg
   xmlns:dc="http://purl.org/dc/elements/1.1/"
   xmlns:cc="http://creativecommons.org/ns#"
   xmlns:rdf="http://www.w3.org/1999/02/22-rdf-syntax-ns#"
   xmlns:svg="http://www.w3.org/2000/svg"
   xmlns="http://www.w3.org/2000/svg"
   xmlns:xlink="http://www.w3.org/1999/xlink"
   xmlns:sodipodi="http://sodipodi.sourceforge.net/DTD/sodipodi-0.dtd"
   xmlns:inkscape="http://www.inkscape.org/namespaces/inkscape"
   width="277.29727"
   height="875.73785"
   viewBox="0 0 73.368234 231.70564"
   version="1.1"
   id="svg23489"
   inkscape:version="0.48.5 r10040"
   sodipodi:docname="pillar_06_face_on_base.svg">
  <defs
     id="defs23483">
    <linearGradient
       id="linearGradient31565">
      <stop
         style="stop-color:#ffcc00;stop-opacity:1;"
         offset="0"
         id="stop31567" />
      <stop
         id="stop31575"
         offset="0.5"
         style="stop-color:#ffff00;stop-opacity:1" />
      <stop
         style="stop-color:#ffcc00;stop-opacity:1"
         offset="1"
         id="stop31569" />
    </linearGradient>
    <linearGradient
       id="linearGradient10809">
      <stop
         style="stop-color:#ffcc00;stop-opacity:1;"
         offset="0"
         id="stop10811" />
      <stop
         id="stop10813"
         offset="0.5"
         style="stop-color:#ffff00;stop-opacity:1" />
      <stop
         style="stop-color:#ffcc00;stop-opacity:1"
         offset="1"
         id="stop10815" />
    </linearGradient>
    <linearGradient
       inkscape:collect="always"
       xlink:href="#linearGradient31565-9"
       id="linearGradient17133"
       gradientUnits="userSpaceOnUse"
       x1="-1431.589"
       y1="12111.613"
       x2="-1252.7432"
       y2="12115.519" />
    <linearGradient
       id="linearGradient31565-9">
      <stop
         style="stop-color:#ffcc00;stop-opacity:1;"
         offset="0"
         id="stop31567-3" />
      <stop
         id="stop31575-9"
         offset="0.5"
         style="stop-color:#ffff00;stop-opacity:1" />
      <stop
         style="stop-color:#ffcc00;stop-opacity:1"
         offset="1"
         id="stop31569-2" />
    </linearGradient>
    <linearGradient
       inkscape:collect="always"
       xlink:href="#linearGradient31565-9"
       id="linearGradient17135"
       gradientUnits="userSpaceOnUse"
       x1="-1431.589"
       y1="12111.613"
       x2="-1252.7432"
       y2="12115.519" />
    <linearGradient
       id="linearGradient14865">
      <stop
         style="stop-color:#ffcc00;stop-opacity:1;"
         offset="0"
         id="stop14867" />
      <stop
         id="stop14869"
         offset="0.5"
         style="stop-color:#ffff00;stop-opacity:1" />
      <stop
         style="stop-color:#ffcc00;stop-opacity:1"
         offset="1"
         id="stop14871" />
    </linearGradient>
  </defs>
  <sodipodi:namedview
     id="base"
     pagecolor="#7d848b"
     bordercolor="#666666"
     borderopacity="1.0"
     inkscape:pageopacity="1"
     inkscape:pageshadow="2"
     inkscape:zoom="0.21308932"
     inkscape:cx="324.15701"
     inkscape:cy="617.12016"
     inkscape:document-units="px"
     inkscape:current-layer="layer1"
     showgrid="false"
     inkscape:pagecheckerboard="false"
     showborder="true"
     units="px"
     inkscape:window-width="1920"
     inkscape:window-height="1017"
     inkscape:window-x="-8"
     inkscape:window-y="-8"
     inkscape:window-maximized="1"
     inkscape:showpageshadow="false"
     guidetolerance="28"
     fit-margin-top="25"
     fit-margin-left="25"
     fit-margin-right="25"
     fit-margin-bottom="25">
    <inkscape:grid
       type="xygrid"
       id="grid24034"
       spacingx="1px"
       spacingy="1px"
       empspacing="8"
       visible="true"
       enabled="true"
       snapvisiblegridlinesonly="true"
       originx="-2532.1985px"
       originy="174.79168px" />
  </sodipodi:namedview>
  <metadata
     id="metadata23486">
    <rdf:RDF>
      <cc:Work
         rdf:about="">
        <dc:format>image/svg+xml</dc:format>
        <dc:type
           rdf:resource="http://purl.org/dc/dcmitype/StillImage" />
        <dc:title></dc:title>
        <cc:license
           rdf:resource="" />
        <dc:creator>
          <cc:Agent>
            <dc:title>Robert Brooks</dc:title>
          </cc:Agent>
        </dc:creator>
      </cc:Work>
    </rdf:RDF>
  </metadata>
  <g
     inkscape:label="Layer 1"
     inkscape:groupmode="layer"
     id="layer1"
     transform="translate(-669.97755,-111.54131)">
    <g
       id="g15373"
       transform="translate(-418.23241,354.93431)">
      <g
         id="g12853"
         transform="translate(881.49504,518.97878)">
        <g
           id="g12855">
          <g
             id="g12857">
            <path
               style="color:#000000;fill:#d5b352;fill-opacity:1;fill-rule:nonzero;stroke:#6a5b1d;stroke-width:3.17500019;stroke-linejoin:round;stroke-miterlimit:4;stroke-opacity:1;stroke-dasharray:none;marker:none;visibility:visible;display:inline;overflow:visible;enable-background:accumulate"
               d="m 237.70149,-752.66593 c 6.56414,-1.3924 10.54241,0.19891 10.54241,0.19891 l 1.79022,4.17719 2.9837,1.59131 0.19891,3.58045 0.79566,7.55869 6.16631,1.3924 c 0,0 0.99457,2.98371 0.99457,3.77936 0,0.79566 0,6.1663 0,6.1663 l -1.98914,16.90764 c 0,0 -16.90763,-8.35435 -19.49351,-14.52067 -2.58587,-6.1663 -3.97827,-18.69787 -4.575,-21.28372 -0.59675,-2.58588 0.39782,-3.97828 0.59673,-4.97285 0.19892,-0.99456 1.98914,-4.57501 1.98914,-4.57501 z"
               id="path12859"
               inkscape:connector-curvature="0" />
            <path
               inkscape:connector-curvature="0"
               id="path12861"
               d="m 237.70149,-752.66593 c 6.56414,-1.3924 10.54241,0.19891 10.54241,0.19891 l 1.79022,4.17719 2.9837,1.59131 0.19891,3.58045 0.79566,7.55869 6.16631,1.3924 c 0,0 0.99457,2.98371 0.99457,3.77936 0,0.79566 0,6.1663 0,6.1663 l -1.98914,16.90764 c 0,0 -16.90763,-8.35435 -19.49351,-14.52067 -2.58587,-6.1663 -3.97827,-18.69787 -4.575,-21.28372 -0.59675,-2.58588 0.39782,-3.97828 0.59673,-4.97285 0.19892,-0.99456 1.98914,-4.57501 1.98914,-4.57501 z"
               style="color:#000000;fill:#aa8e3f;fill-opacity:1;fill-rule:nonzero;stroke:none;stroke-width:5;marker:none;visibility:visible;display:inline;overflow:visible;enable-background:accumulate" />
            <path
               style="opacity:0.30973451;color:#000000;fill:#eec85d;fill-opacity:1;fill-rule:nonzero;stroke:none;stroke-width:5;marker:none;visibility:visible;display:inline;overflow:visible;enable-background:accumulate"
               d="m 918.625,-2917.0312 c -5.68346,-0.03 -12.46583,0.5116 -20.21875,2.1562 0,0 -2.93516,5.8763 -5.15625,10.9688 16.53136,-1.3758 35.48321,-2.5289 38.96875,-0.4376 3.759,2.2555 3.02226,11.2813 6.78125,11.2813 3.75899,0 12.03125,3.75 12.03125,3.75 l 7.375,23.6875 -1.375,-13.1562 -0.75,-13.5313 -11.28125,-6.0313 -6.75,-15.7812 c 0,0 -7.12139,-2.8396 -19.625,-2.9062 z m 49.03125,68.5312 c -0.83198,2.5649 -0.82914,4.2812 0.65625,4.2812 4.5108,0 10.53125,6.0313 10.53125,6.0313 0,0 2.26686,16.5313 8.28125,16.5313 l 0,-9.0313 c 0,-3.0072 -3.78125,-14.2813 -3.78125,-14.2813 l -15.6875,-3.5312 z"
               transform="matrix(0.26458334,0,0,0.26458334,-6.3049604e-6,18.562493)"
               id="path12863"
               inkscape:connector-curvature="0" />
          </g>
          <g
             id="g12865"
             transform="matrix(1.010705,0,0,1.010705,104.71775,-822.10397)">
            <g
               transform="translate(116.24253,40.16349)"
               id="g12867">
              <g
                 transform="matrix(0.90934944,0,0,0.90934944,341.12312,-2833.2001)"
                 id="g12869">
                <g
                   id="g12871"
                   transform="matrix(1.0366626,0,0,1,13.076783,0)">
                  <path
                     style="color:#000000;fill:#ffcc00;fill-opacity:1;fill-rule:nonzero;stroke:#6a5b1d;stroke-width:10.1070509;stroke-linejoin:round;stroke-miterlimit:4;stroke-opacity:1;stroke-dasharray:none;marker:none;visibility:visible;display:inline;overflow:visible;enable-background:accumulate"
                     d="m 905.76506,-2921.4964 c -34.57558,0.3636 -60.23381,3.1112 -60.23381,12.9964 0.0303,2.8371 0.0667,31.7357 0.125,67.4062 4.10609,7.0002 4.125,16.6563 4.125,16.6563 0,0 -3.53125,7.0402 -3.53125,12.9063 0,1.1903 -0.22353,6.5377 -0.53125,13.4374 0.0672,39.3217 0.15419,78.1775 0.25,111.4688 1.15122,4.2369 2.20066,8.5247 2.625,12.3438 0.84518,7.6066 -0.13711,16.4274 -2.5,25.5937 0.0563,11.4348 0.12308,20.1015 0.1875,21.5 4.11097,-1.189 144.95443,1.0384 148.0625,-1.0937 -0.0267,-3.5993 -0.014,-42.5237 0,-87.6563 -1.76861,-16.4746 -4.9375,-43.6706 -4.9375,-53.375 0,-5.5664 0.28524,-22.4003 0.6875,-39.875 l -6,-5.6875 -10.5,-12.0312 -0.78125,-33.8438 -6,-17.2812 -48.10567,21.0353 -0.004,-44.3443 z"
                     transform="matrix(0.27769614,0,0,0.2878772,-607.69343,3986.1454)"
                     id="path12873"
                     inkscape:connector-curvature="0"
                     sodipodi:nodetypes="ccccsccsccccscccccccc" />
                  <path
                     style="color:#000000;fill:#eec85d;fill-opacity:1;fill-rule:nonzero;stroke:none;stroke-width:12;marker:none;visibility:visible;display:inline;overflow:visible;enable-background:accumulate"
                     d="m 890.73381,-2922.5276 c -10.02793,-0.016 -16.40264,-1.3888 -25.76506,-0.7849 -11.71131,3.0927 -19.34119,7.4836 -19.46875,13.2187 l 0.1875,69.0626 c 4.07046,6.995 4.09375,16.5937 4.09375,16.5937 0,0 -3.53125,7.0402 -3.53125,12.9063 0,1.0893 -0.17422,5.8077 -0.4375,11.7812 l 0.3125,113.7188 c 1.08644,4.042 2.06418,8.1088 2.46875,11.75 0.82974,7.4676 -0.10536,16.1072 -2.375,25.0937 l 0.0625,22 c 1.5107,0.1232 142.80202,0.579 147.875,-0.4063 l 0.1875,0 0,-88.3437 c -1.76861,-16.4746 -4.9375,-43.6706 -4.9375,-53.375 0,-5.5664 0.28524,-22.4003 0.6875,-39.875 l -6,-5.6875 -10.5,-12.0312 -0.78125,-33.8438 -6,-17.2812 -29.32042,-0.01 -14.27446,-8.2749 -4.51506,-15.0241 -13.53125,-21.0624 c 0,0 -6.13835,-0.1118 -14.4375,-0.125 z"
                     transform="matrix(0.27769614,0,0,0.2878772,-607.69343,3986.1454)"
                     id="path12875"
                     inkscape:connector-curvature="0"
                     sodipodi:nodetypes="cccccsccscccccscccccccccsc" />
                  <path
                     style="color:#000000;fill:#d5b352;fill-opacity:1;fill-rule:nonzero;stroke:none;stroke-width:12;marker:none;visibility:visible;display:inline;overflow:visible;enable-background:accumulate"
                     d="m 952.96875,-2878.0312 0,251 c 3.68242,-0.012 7.26808,-0.013 10.625,-0.031 0.64742,0 1.23634,-0.026 1.875,-0.031 1.74551,-0.015 3.50542,-0.019 5.125,-0.031 6.23868,-0.045 11.82635,-0.1129 15.8125,-0.1875 1.98075,-0.037 3.54103,-0.08 4.8125,-0.125 0.16587,-0.01 0.31614,0.01 0.46875,0 1.22372,-0.048 2.16822,-0.098 2.46875,-0.1563 l 0.1875,0 0,-50.9374 c -1.06746,-7.7309 -2.01332,-13.9417 -2.59375,-16.8438 -2.34643,-11.7322 -7.0625,-32.8696 -7.0625,-37.5625 0,-4.6929 0.0286,-19.9268 2.375,-29.3125 1.42683,-5.7073 0.69442,-21.4717 2.53125,-47.4062 l -5.5,-5.2188 -10.5,-12.0312 -0.78125,-33.8438 -6,-17.2812 -13.84375,0 z"
                     transform="matrix(0.27769614,0,0,0.2878772,-607.69343,3986.1454)"
                     id="path12877"
                     inkscape:connector-curvature="0" />
                  <path
                     style="color:#000000;fill:#f8d67a;fill-opacity:1;fill-rule:nonzero;stroke:none;stroke-width:12;marker:none;visibility:visible;display:inline;overflow:visible;enable-background:accumulate"
                     d="m 874.15625,-2923.0312 c -16.87739,2.5809 -28.61565,6.8934 -28.65625,12.9374 l 0.1875,69.0626 c 4.07046,6.995 4.09375,16.5937 4.09375,16.5937 0,0 -3.53125,7.0402 -3.53125,12.9063 0,1.0893 -0.17422,5.8077 -0.4375,11.7812 l 0.3125,113.7188 c 1.08644,4.042 2.06418,8.1088 2.46875,11.75 0.82974,7.4676 -0.10536,16.1072 -2.375,25.0937 l 0.0625,22.0313 c 0.4147,0.028 12.10102,0.083 27.875,0.125 l 0,-296 z"
                     transform="matrix(0.27769614,0,0,0.2878772,-607.69343,3986.1454)"
                     id="path12879"
                     inkscape:connector-curvature="0" />
                  <path
                     style="color:#000000;fill:#fae09a;fill-opacity:1;fill-rule:nonzero;stroke:none;stroke-width:12;marker:none;visibility:visible;display:inline;overflow:visible;enable-background:accumulate"
                     d="m 868.34375,-2923.4375 c -1.08991,0.02 -2.2047,0.05 -3.375,0.125 -11.71131,3.0927 -19.34119,7.4837 -19.46875,13.2187 l 0.0937,37.2813 c 2.0599,-18.3696 5.06429,-34.8137 9.1875,-37.5625 6.76618,-4.5108 16.5625,-3.75 16.5625,-3.75 l 27.8125,-1.5 17.28125,24.0625 -3,12.7813 -10.53125,23.2812 c 0,0 18.8053,27.8312 21.8125,33.0938 3.00719,5.2626 8.25,24.8124 8.25,24.8124 l 1.53125,-18.8124 -20.3125,-42.7813 c 0.006,-0.026 -0.006,-0.036 0,-0.062 1.50359,-6.7662 13.53125,-17.2812 13.53125,-17.2812 0,0 8.27226,7.5 12.03125,7.5 3.75899,0 21.8125,-3 21.8125,-3 l 6,15.7812 -0.75,25.5625 c 0,0 5.2518,2.274 4.5,5.2813 -0.7518,3.0071 -3,21.7812 -3,21.7812 0,0 3,15.7999 3,21.0625 l 0,21.8125 7.53125,-48.125 4.5,6.7812 c 0,0 3.0018,24.7928 2.25,33.0626 -0.51343,5.6477 3.11629,16.7317 5.75,25.2187 -1.07692,-10.5842 -1.9375,-20.4347 -1.9375,-25.5 0,-5.5664 0.28524,-22.4003 0.6875,-39.875 l -6,-5.6875 -10.5,-12.0312 -0.78125,-33.8438 -6,-17.2812 -29.3125,0 -14.28125,-8.2813 -4.53125,-15.0313 -13.53125,-21.0624 c 0,0 -6.13835,-0.1119 -14.4375,-0.125 -8.77444,-0.014 -14.74565,-1.0479 -22.375,-0.9063 z"
                     transform="matrix(0.27769614,0,0,0.2878772,-607.69343,3986.1454)"
                     id="path12881"
                     inkscape:connector-curvature="0" />
                  <path
                     inkscape:connector-curvature="0"
                     id="path12883"
                     transform="matrix(0.27769614,0,0,0.2878772,-311.11205,3351.3821)"
                     d="m -222.34375,-642.71875 0.0312,6.65625 c 4.07046,6.99508 4.09375,16.59375 4.09375,16.59375 0,0 -0.12713,0.25272 -0.15625,0.3125 4.01726,-2.23654 7.1875,-3.84375 7.1875,-3.84375 0,0 -6.48473,-17.31194 -11.15625,-19.71875 z m 1.125,164.21875 c 0.80435,3.18053 1.4934,6.31556 1.8125,9.1875 0.65073,5.85657 0.18766,12.44356 -1.125,19.34375 6.62384,-7.27609 10.20678,-17.0479 9.34375,-20.5 -0.8031,-3.21241 -4.88908,-3.13679 -10.03125,-8.03125 z"
                     style="color:#000000;fill:#ddb850;fill-opacity:1;fill-rule:nonzero;stroke:none;stroke-width:12;marker:none;visibility:visible;display:inline;overflow:visible;enable-background:accumulate" />
                  <path
                     style="color:#000000;fill:#7d6a27;fill-opacity:1;fill-rule:nonzero;stroke:none;stroke-width:12;marker:none;visibility:visible;display:inline;overflow:visible;enable-background:accumulate"
                     d="m 921.5,-2891.9688 c 0.30197,4.6723 -0.18274,8.0123 -0.53125,9.4063 -0.7518,3.0072 -12.03125,24.8125 -12.03125,24.8125 l 11.25,20.3125 9.78125,18.0313 c 0,0 0.74461,28.5733 3,24.0624 2.2554,-4.5108 0.75,-25.5624 0.75,-25.5624 L 914.9375,-2858.5 c 0,0 9.55904,-22.0851 11.1875,-26.125 l -2.90625,-1.6875 -1.71875,-5.6563 z m 52.59375,65.625 c -0.99515,7.8564 -2.03125,14.4688 -2.03125,14.4688 0,0 0.77946,16.5445 1.53125,24.0625 0.7518,7.518 -1.53125,29.3125 -1.53125,29.3125 0,0 4.53125,-16.5391 4.53125,-26.3125 0,-9.7734 -1.5018,-24.0757 -0.75,-31.5937 0.13524,-1.3525 0.78479,-3.4116 1.6875,-6 l -3.4375,-3.9376 z"
                     transform="matrix(0.27769614,0,0,0.2878772,-607.69343,3986.1454)"
                     id="path12885"
                     inkscape:connector-curvature="0" />
                </g>
              </g>
              <g
                 id="g12887"
                 transform="translate(0,0.27161195)">
                <path
                   transform="matrix(0.26458334,0,0,0.26458334,-6.3049604e-6,16.916276)"
                   style="color:#000000;fill:#ffbb00;fill-opacity:1;fill-rule:nonzero;stroke:#6a5b1d;stroke-width:10;stroke-linecap:round;stroke-linejoin:round;stroke-miterlimit:4;stroke-opacity:1;stroke-dashoffset:0;marker:none;visibility:visible;display:inline;overflow:visible;enable-background:accumulate"
                   d="m 152.54817,326.88605 c 0,3.89444 -32.95394,7.05151 -72.700163,7.05151 -39.746223,0 -73.2867725,-3.15707 -73.2867725,-7.05151 3.8129555,-0.0815 33.5405495,-1.24438 73.2867725,-1.24438 39.746223,0 44.836263,-1.18355 72.700163,1.24438 z"
                   id="path12889"
                   inkscape:connector-curvature="0"
                   sodipodi:nodetypes="ccccc" />
                <path
                   transform="matrix(0.26458334,0,0,0.26458334,-6.3049604e-6,16.916276)"
                   style="color:#000000;fill:#9c8135;fill-opacity:1;fill-rule:nonzero;stroke:none;stroke-width:10;marker:none;visibility:visible;display:inline;overflow:visible;enable-background:accumulate"
                   d="m 152.54817,326.88605 c 0,3.89444 -32.95394,7.05151 -72.700163,7.05151 -39.746223,0 -73.2867725,-3.15707 -73.2867725,-7.05151 0,-15.50871 145.9869355,-12.19035 145.9869355,0 z"
                   id="path12891"
                   inkscape:connector-curvature="0"
                   sodipodi:nodetypes="ssss" />
              </g>
            </g>
          </g>
        </g>
      </g>
      <g
         transform="translate(1002.4198,-195.26677)"
         id="g12893">
        <g
           id="g12895"
           transform="matrix(0.94278896,0,0,0.94278896,454.34394,-2958.8114)">
          <g
             transform="matrix(0.96297086,0,0,0.96297086,-13.036687,106.50947)"
             id="g12897">
            <g
               id="g12899"
               transform="matrix(1.0366626,0,0,1,13.076783,0)">
              <path
                 sodipodi:nodetypes="cccccccccc"
                 inkscape:connector-curvature="0"
                 id="path12901"
                 d="m -354.02707,3180.9348 c -5.21299,0.1154 -10.54124,0.3196 -15.52093,2.0722 -1.42034,0.5816 -3.40326,1.5169 -3.34676,3.3854 0.0276,2.6752 0.0955,40.8039 0.21258,43.4389 1.1416,-0.3423 40.25222,0.3051 41.11532,-0.3087 -0.0208,-2.902 0.0421,-39.6275 -0.0319,-42.5221 -0.57066,-1.4459 -2.26316,-1.8857 -3.55726,-2.3799 -5.5636,-1.6502 -11.40006,-3.5543 -17.15732,-3.6829 -0.57104,-0.01 -1.144,-0.01 -1.71372,0 z"
                 style="color:#000000;fill:#ffcc00;fill-opacity:1;fill-rule:nonzero;stroke:#6a5b1d;stroke-width:2.5986259;stroke-linejoin:round;stroke-miterlimit:4;stroke-opacity:1;stroke-dasharray:none;marker:none;visibility:visible;display:inline;overflow:visible;enable-background:accumulate" />
              <path
                 inkscape:connector-curvature="0"
                 style="color:#000000;fill:#eec85d;fill-opacity:1;fill-rule:nonzero;stroke:none;stroke-width:12;marker:none;visibility:visible;display:inline;overflow:visible;enable-background:accumulate"
                 d="m -1337.6875,11958.665 c -38.2312,0.286 -74.3371,6.405 -73.9375,20.281 l 0.8438,158.148 c 1.6437,0.134 155.3866,0.634 160.9062,-0.438 0.066,0 0.1223,0 0.1875,0 l 0,-159.366 c 1.3585,-11.795 -44.6713,-18.949 -88,-18.625 z"
                 transform="matrix(0.25522609,0,0,0.26458334,-12.614316,18.562493)"
                 id="path12903"
                 sodipodi:nodetypes="scccccs" />
              <path
                 inkscape:connector-curvature="0"
                 style="opacity:0.61061946;color:#000000;fill:#635322;fill-opacity:1;fill-rule:nonzero;stroke:none;stroke-width:12;marker:none;visibility:visible;display:inline;overflow:visible;enable-background:accumulate"
                 d="m 495.3125,49.125 0,160.1875 c 8.62046,-0.03 16.15654,-0.0635 22.6875,-0.125 1.81258,-0.0178 3.5852,-0.0416 5.15625,-0.0625 0.32013,-0.004 0.471,0.004 0.78125,0 3.20289,-0.0422 6.05814,-0.0998 8.0625,-0.15625 1.06051,-0.0299 1.89454,-0.0595 2.5625,-0.0937 0.0294,-0.002 0.0652,0.002 0.0937,0 0.2511,-0.0132 0.31122,-0.0173 0.5,-0.0312 0.39659,-0.0267 0.68374,-0.0645 0.84375,-0.0937 l 0.1875,0 0,-144.6875 0,-0.96875 C 535.29851,56.515267 517.8524,51.651355 495.3125,49.125 z"
                 transform="matrix(0.28112368,0,0,0.2914304,-482.30222,3168.8806)"
                 id="path12905" />
              <path
                 style="color:#000000;fill:#e0bd5a;fill-opacity:1;fill-rule:nonzero;stroke:none;stroke-width:12;marker:none;visibility:visible;display:inline;overflow:visible;enable-background:accumulate"
                 d="m -1378.5938,11895.331 c -17.8797,3.042 -30.2617,8.371 -30.0312,16.375 l 0.8125,160.232 c 0.4345,0.03 12.6915,0.08 29.2187,0.124 z"
                 transform="matrix(0.2650403,0,0,0.27475737,0.44488676,-87.015423)"
                 id="path12907"
                 inkscape:connector-curvature="0"
                 sodipodi:nodetypes="ccccc" />
            </g>
          </g>
          <g
             transform="translate(-0.15383922,0)"
             id="g12909">
            <path
               sodipodi:nodetypes="cccscc"
               transform="matrix(0.26458334,0,0,0.26458334,-6.3049604e-6,18.562493)"
               inkscape:connector-curvature="0"
               id="path12911"
               d="m -1396.6179,11917.472 c -0.5814,6.977 1.7444,169.45 1.7444,169.45 l 46.5152,-2.907 c 0,0 -6.7982,-46.195 -7.0071,-94.775 -0.1413,-32.881 6.5168,-66.865 5.8442,-75.838 -2.2479,-1.298 -46.5152,-2.907 -47.0967,4.07 z"
               style="color:#000000;fill:#eec85d;fill-opacity:1;fill-rule:nonzero;stroke:#6a5b1d;stroke-width:10;stroke-linejoin:round;stroke-opacity:1;marker:none;visibility:visible;display:inline;overflow:visible;enable-background:accumulate" />
            <path
               style="color:#000000;fill:#ddb850;fill-opacity:1;fill-rule:nonzero;stroke:none;stroke-width:10;marker:none;visibility:visible;display:inline;overflow:visible;enable-background:accumulate"
               d="m -1396.6179,11917.472 c -0.5814,6.977 1.7444,169.45 1.7444,169.45 l 46.5152,-0.581 c 1.973,0 3.1605,-150.71 -1.1629,-172.939 -2.2479,-1.298 -46.5152,-2.907 -47.0967,4.07 z"
               id="path12913"
               inkscape:connector-curvature="0"
               transform="matrix(0.26458334,0,0,0.26458334,-6.3049604e-6,18.562493)"
               sodipodi:nodetypes="ccccc" />
            <path
               inkscape:connector-curvature="0"
               id="path12915"
               transform="matrix(0.26458334,0,0,0.26458334,-6.3049604e-6,18.562493)"
               d="m -1369.4375,11907.875 c -1.3093,0 -2.6145,0.03 -3.9375,0.06 l 0,178.718 25.0312,-0.312 c 1.9731,0 3.136,-155.115 -1.1874,-177.344 -0.9835,-0.568 -10.0143,-1.183 -19.9063,-1.125 z"
               style="opacity:0.59734509;color:#000000;fill:#ad9141;fill-opacity:1;fill-rule:nonzero;stroke:none;stroke-width:10;marker:none;visibility:visible;display:inline;overflow:visible;enable-background:accumulate" />
            <path
               sodipodi:nodetypes="cccccc"
               inkscape:connector-curvature="0"
               id="path12917"
               transform="matrix(0.26458334,0,0,0.26458334,-6.3049604e-6,18.562493)"
               d="m -1388.4688,11913.556 c -4.7304,0.808 -8.0014,2.049 -8.1562,3.906 -0.5814,6.978 1.75,169.476 1.75,169.476 l 6.0312,-0.06 c -0.6572,-29.124 -1.6714,-117.01 0.375,-173.319 z"
               style="color:#000000;fill:#ffe08d;fill-opacity:1;fill-rule:nonzero;stroke:none;stroke-width:10;marker:none;visibility:visible;display:inline;overflow:visible;enable-background:accumulate" />
          </g>
          <g
             transform="matrix(-1,0,0,1,-703.83914,0)"
             id="g12919">
            <path
               style="color:#000000;fill:#eec85d;fill-opacity:1;fill-rule:nonzero;stroke:#6a5b1d;stroke-width:10;stroke-linejoin:round;stroke-opacity:1;marker:none;visibility:visible;display:inline;overflow:visible;enable-background:accumulate"
               d="m -1396.6179,11918.352 c -0.5814,6.977 1.7444,168.57 1.7444,168.57 l 46.5152,-2.907 c 0,0 -6.7982,-46.195 -7.0071,-94.775 -0.1413,-32.881 6.5168,-65.985 5.8442,-74.958 -2.2479,-1.298 -46.5152,-2.907 -47.0967,4.07 z"
               id="path12921"
               inkscape:connector-curvature="0"
               transform="matrix(0.26458334,0,0,0.26458334,-6.3049604e-6,18.562493)"
               sodipodi:nodetypes="cccscc" />
            <path
               sodipodi:nodetypes="ccccc"
               transform="matrix(0.26458334,0,0,0.26458334,-6.3049604e-6,18.562493)"
               inkscape:connector-curvature="0"
               id="path12923"
               d="m -1396.6179,11918.352 c -0.5814,6.977 1.7444,168.57 1.7444,168.57 l 46.5152,-0.581 c 1.973,0 3.1605,-149.83 -1.1629,-172.059 -2.2479,-1.298 -46.5152,-2.907 -47.0967,4.07 z"
               style="color:#000000;fill:#eec85d;fill-opacity:1;fill-rule:nonzero;stroke:none;stroke-width:10;marker:none;visibility:visible;display:inline;overflow:visible;enable-background:accumulate" />
            <path
               inkscape:connector-curvature="0"
               style="opacity:0.59734509;color:#000000;fill:#ad9141;fill-opacity:1;fill-rule:nonzero;stroke:none;stroke-width:10;marker:none;visibility:visible;display:inline;overflow:visible;enable-background:accumulate"
               d="m -1369.4375,11907.875 c -1.3093,0 -2.6145,0.03 -3.9375,0.06 l 0,178.718 25.0312,-0.312 c 1.9731,0 3.136,-155.115 -1.1874,-177.344 -0.9835,-0.568 -10.0143,-1.183 -19.9063,-1.125 z"
               transform="matrix(0.26458334,0,0,0.26458334,-6.3049604e-6,18.562493)"
               id="path12925" />
            <path
               style="color:#000000;fill:#ffe08d;fill-opacity:1;fill-rule:nonzero;stroke:none;stroke-width:10;marker:none;visibility:visible;display:inline;overflow:visible;enable-background:accumulate"
               d="m -1388.4688,11914.436 c -4.7304,0.808 -8.0014,2.049 -8.1562,3.906 -0.5814,6.978 1.75,168.596 1.75,168.596 l 6.0312,-0.06 c -0.6572,-29.124 -1.6714,-116.13 0.375,-172.439 z"
               transform="matrix(0.26458334,0,0,0.26458334,-6.3049604e-6,18.562493)"
               id="path12927"
               inkscape:connector-curvature="0"
               sodipodi:nodetypes="cccccc" />
          </g>
          <g
             id="g12929"
             transform="matrix(-1.0369049,0,0,1.0369049,-723.08705,-118.75568)">
            <path
               sodipodi:nodetypes="csccscc"
               transform="matrix(0.26458334,0,0,0.26458334,-6.3049604e-6,18.562493)"
               inkscape:connector-curvature="0"
               id="path12931"
               d="m -1396.6179,11919.012 c -0.2763,3.315 0.1039,36.794 0.579,77.256 0.5248,44.69 1.1654,90.654 1.1654,90.654 l 46.5152,-2.907 c 0,0 -6.7982,-46.195 -7.0071,-94.775 -0.1413,-32.881 6.5168,-65.325 5.8442,-74.298 -2.2479,-1.298 -46.5152,-2.907 -47.0967,4.07 z"
               style="color:#000000;fill:#eec85d;fill-opacity:1;fill-rule:nonzero;stroke:#6a5b1d;stroke-width:10;stroke-linejoin:round;stroke-opacity:1;marker:none;visibility:visible;display:inline;overflow:visible;enable-background:accumulate" />
            <path
               style="color:#000000;fill:#eec85d;fill-opacity:1;fill-rule:nonzero;stroke:none;stroke-width:10;marker:none;visibility:visible;display:inline;overflow:visible;enable-background:accumulate"
               d="m -1396.6179,11919.012 c -0.5814,6.977 1.7444,167.91 1.7444,167.91 l 46.5152,-0.581 c 1.973,0 3.1605,-149.17 -1.1629,-171.399 -2.2479,-1.298 -46.5152,-2.907 -47.0967,4.07 z"
               id="path12933"
               inkscape:connector-curvature="0"
               transform="matrix(0.26458334,0,0,0.26458334,-6.3049604e-6,18.562493)"
               sodipodi:nodetypes="ccccc" />
            <path
               id="path12935"
               transform="matrix(0.26458334,0,0,0.26458334,-6.3049604e-6,18.562493)"
               d="m -1369.4375,11907.875 c -1.3093,0 -2.6145,0.03 -3.9375,0.06 l 0,178.718 25.0312,-0.312 c 1.9731,0 3.136,-155.115 -1.1874,-177.344 -0.9835,-0.568 -10.0143,-1.183 -19.9063,-1.125 z"
               style="opacity:0.59734509;color:#000000;fill:#ad9141;fill-opacity:1;fill-rule:nonzero;stroke:none;stroke-width:10;marker:none;visibility:visible;display:inline;overflow:visible;enable-background:accumulate"
               inkscape:connector-curvature="0" />
            <path
               sodipodi:nodetypes="cccccc"
               inkscape:connector-curvature="0"
               id="path12937"
               transform="matrix(0.26458334,0,0,0.26458334,-6.3049604e-6,18.562493)"
               d="m -1388.4688,11915.096 c -4.7304,0.808 -8.0014,2.049 -8.1562,3.906 -0.5814,6.978 1.75,167.936 1.75,167.936 l 6.0312,-0.06 c -0.6572,-29.124 -1.6714,-115.47 0.375,-171.779 z"
               style="color:#000000;fill:#ffe08d;fill-opacity:1;fill-rule:nonzero;stroke:none;stroke-width:10;marker:none;visibility:visible;display:inline;overflow:visible;enable-background:accumulate" />
          </g>
          <g
             transform="matrix(1,0,0,1.0461311,4.769014,-148.4446)"
             id="g12939">
            <path
               style="color:#000000;fill:#eec85d;fill-opacity:1;fill-rule:nonzero;stroke:#6a5b1d;stroke-width:10;stroke-linejoin:round;stroke-opacity:1;marker:none;visibility:visible;display:inline;overflow:visible;enable-background:accumulate"
               d="m -1396.6179,11918.96 c -0.2984,3.581 5.402,22.273 5.9277,65.914 0.4986,41.39 -4.1833,102.048 -4.1833,102.048 l 46.5152,-2.907 c 0,0 -6.7982,-46.195 -7.0071,-94.775 -0.1413,-32.881 6.5168,-65.377 5.8442,-74.35 -2.2479,-1.298 -46.5152,-2.907 -47.0967,4.07 z"
               id="path12941"
               inkscape:connector-curvature="0"
               transform="matrix(0.26458334,0,0,0.26458334,-6.3049604e-6,18.562493)"
               sodipodi:nodetypes="csccscc" />
            <path
               sodipodi:nodetypes="ccccc"
               transform="matrix(0.26458334,0,0,0.26458334,-6.3049604e-6,18.562493)"
               inkscape:connector-curvature="0"
               id="path12943"
               d="m -1396.6179,11918.96 c -0.5814,6.977 1.7444,167.962 1.7444,167.962 l 46.5152,-0.581 c 1.973,0 3.1605,-149.222 -1.1629,-171.451 -2.2479,-1.298 -46.5152,-2.907 -47.0967,4.07 z"
               style="color:#000000;fill:#eec85d;fill-opacity:1;fill-rule:nonzero;stroke:none;stroke-width:10;marker:none;visibility:visible;display:inline;overflow:visible;enable-background:accumulate" />
            <path
               inkscape:connector-curvature="0"
               style="opacity:0.59734509;color:#000000;fill:#ad9141;fill-opacity:1;fill-rule:nonzero;stroke:none;stroke-width:10;marker:none;visibility:visible;display:inline;overflow:visible;enable-background:accumulate"
               d="m -1369.4375,11907.875 c -1.3093,0 -2.6145,0.03 -3.9375,0.06 l 0,178.718 25.0312,-0.312 c 1.9731,0 3.136,-155.115 -1.1874,-177.344 -0.9835,-0.568 -10.0143,-1.183 -19.9063,-1.125 z"
               transform="matrix(0.26458334,0,0,0.26458334,-6.3049604e-6,18.562493)"
               id="path12945" />
            <path
               style="color:#000000;fill:#ffe08d;fill-opacity:1;fill-rule:nonzero;stroke:none;stroke-width:10;marker:none;visibility:visible;display:inline;overflow:visible;enable-background:accumulate"
               d="m -1388.4688,11915.044 c -4.7304,0.808 -8.0014,2.049 -8.1562,3.906 -0.5814,6.978 1.75,167.988 1.75,167.988 l 6.0312,-0.06 c -0.6572,-29.124 -1.6714,-115.522 0.375,-171.831 z"
               transform="matrix(0.26458334,0,0,0.26458334,-6.3049604e-6,18.562493)"
               id="path12947"
               inkscape:connector-curvature="0"
               sodipodi:nodetypes="cccccc" />
          </g>
          <g
             transform="matrix(-1,0,0,1,-704.7375,0)"
             id="g12949">
            <path
               style="color:#000000;fill:#ffe08d;fill-opacity:1;fill-rule:nonzero;stroke:#6a5b1d;stroke-width:2.29850125;stroke-linejoin:round;stroke-opacity:1;marker:none;visibility:visible;display:inline;overflow:visible;enable-background:accumulate"
               d="m -357.73447,3168.2676 c 0.329,10.4023 0.42579,52.256 -0.11541,48.1525 0,0 5.13496,-1.1465 5.59651,-1.3011 0.46158,-0.1548 5.36575,1.2203 5.36575,1.2203 -1.15988,-15.5055 -0.88336,-29.5027 0,-47.8687 -2.85556,-1.4686 -9.33402,-0.9919 -10.84685,-0.203 z"
               id="path12951"
               inkscape:connector-curvature="0"
               sodipodi:nodetypes="ccsccc" />
            <path
               sodipodi:nodetypes="ccccccc"
               inkscape:connector-curvature="0"
               id="path12953"
               d="m -357.73447,3168.1611 c 0,2.4765 -0.11541,48.3358 -0.11541,48.3358 l 5.59651,-1.3779 5.36575,1.3741 0.46152,-27.5146 -0.46152,-20.5079 c -2.61079,-2.1213 -10.84685,-0.3095 -10.84685,-0.3095 z"
               style="color:#000000;fill:#ffe08d;fill-opacity:1;fill-rule:nonzero;stroke:none;stroke-width:10;marker:none;visibility:visible;display:inline;overflow:visible;enable-background:accumulate" />
            <path
               sodipodi:nodetypes="ccccc"
               inkscape:connector-curvature="0"
               style="opacity:0.73893804;color:#000000;fill:#ddb850;fill-opacity:1;fill-rule:nonzero;stroke:none;stroke-width:10;marker:none;visibility:visible;display:inline;overflow:visible;enable-background:accumulate"
               d="m -1332.8438,11901.664 -19.2187,2.32 c 0,9.36 -0.4375,183.286 -0.4375,183.286 l 20.125,-5.791 c -0.1605,-62.183 -0.9844,-141.446 -0.4688,-179.815 z"
               transform="matrix(0.26458334,0,0,0.26458334,-6.3049604e-6,18.562493)"
               id="path12955" />
          </g>
          <path
             transform="matrix(0.26458334,0,0,0.26458334,-6.3049604e-6,18.562493)"
             inkscape:connector-curvature="0"
             id="path12957"
             d="m -1347.1955,12087.504 c 1.4536,-1.454 15.1175,-6.687 15.1175,-6.687 0,0 19.4782,8.14 18.0246,7.559 -1.4536,-0.582 -33.1421,-0.872 -33.1421,-0.872 z"
             style="color:#000000;fill:#998039;fill-opacity:1;fill-rule:nonzero;stroke:none;stroke-width:10;marker:none;visibility:visible;display:inline;overflow:visible;enable-background:accumulate" />
        </g>
        <g
           transform="translate(101.49788,-29.563177)"
           id="g12959">
          <path
             sodipodi:nodetypes="ccccc"
             inkscape:connector-curvature="0"
             id="path12961"
             d="m 152.54817,326.88605 c 0,3.89444 -32.95394,7.05151 -72.700163,7.05151 -39.746223,0 -73.2867725,-3.15707 -73.2867725,-7.05151 3.8129555,-0.0815 33.5405495,-1.24438 73.2867725,-1.24438 39.746223,0 44.836263,-1.18355 72.700163,1.24438 z"
             style="color:#000000;fill:#ffbb00;fill-opacity:1;fill-rule:nonzero;stroke:#6a5b1d;stroke-width:10;stroke-linecap:round;stroke-linejoin:round;stroke-miterlimit:4;stroke-opacity:1;stroke-dashoffset:0;marker:none;visibility:visible;display:inline;overflow:visible;enable-background:accumulate"
             transform="matrix(0.26458334,0,0,0.26458334,-6.3049604e-6,16.916276)" />
          <path
             sodipodi:nodetypes="sssss"
             inkscape:connector-curvature="0"
             id="path12963"
             d="m 152.54817,326.88605 c 0,3.89444 -32.95394,7.05151 -72.700163,7.05151 -39.746223,0 -73.2867725,-3.15707 -73.2867725,-7.05151 0,-3.89445 33.5405495,-8.22473 73.2867725,-8.22473 39.746223,0 72.700163,4.33028 72.700163,8.22473 z"
             style="color:#000000;fill:#87722e;fill-opacity:1;fill-rule:nonzero;stroke:none;stroke-width:10;marker:none;visibility:visible;display:inline;overflow:visible;enable-background:accumulate"
             transform="matrix(0.26458334,0,0,0.26458334,-6.3049604e-6,16.916276)" />
        </g>
      </g>
      <g
         transform="translate(1002.4198,-168.8248)"
         id="g12965">
        <g
           transform="matrix(0.94278896,0,0,0.94278896,454.34394,-2958.8114)"
           id="g12967">
          <g
             id="g12969"
             transform="matrix(0.96297086,0,0,0.96297086,-13.036687,106.50947)">
            <g
               transform="matrix(1.0366626,0,0,1,13.076783,0)"
               id="g12971">
              <path
                 style="color:#000000;fill:#ffcc00;fill-opacity:1;fill-rule:nonzero;stroke:#6a5b1d;stroke-width:2.5986259;stroke-linejoin:round;stroke-miterlimit:4;stroke-opacity:1;stroke-dasharray:none;marker:none;visibility:visible;display:inline;overflow:visible;enable-background:accumulate"
                 d="m -354.02707,3199.7399 c -5.21299,0.1154 -10.54124,0.3196 -15.52093,2.0722 -1.42034,0.5816 -3.40326,1.5169 -3.34676,3.3854 0.0276,2.6752 0.0955,21.9988 0.21258,24.6338 1.1416,-0.3423 40.25222,0.3051 41.11532,-0.3087 -0.0208,-2.902 0.0421,-22.1046 -0.0319,-24.9992 -0.57066,-1.4459 -2.26316,-1.8857 -3.55726,-2.3799 -5.5636,-1.6502 -11.40006,-2.2721 -17.15732,-2.4007 -0.57104,-0.01 -1.144,-0.01 -1.71372,0 z"
                 id="path12973"
                 inkscape:connector-curvature="0"
                 sodipodi:nodetypes="cccccccccc" />
              <path
                 sodipodi:nodetypes="scccccs"
                 id="path12975"
                 transform="matrix(0.25522609,0,0,0.26458334,-12.614316,18.562493)"
                 d="m -1337.6875,12021.986 c -38.2312,0.286 -74.3371,6.405 -73.9375,20.281 l 0.8438,94.827 c 1.6437,0.134 155.3866,0.634 160.9062,-0.438 0.066,0 0.1223,0 0.1875,0 l 0,-92.814 c 1.3585,-11.795 -44.6713,-22.18 -88,-21.856 z"
                 style="color:#000000;fill:#eec85d;fill-opacity:1;fill-rule:nonzero;stroke:none;stroke-width:12;marker:none;visibility:visible;display:inline;overflow:visible;enable-background:accumulate"
                 inkscape:connector-curvature="0" />
              <path
                 inkscape:connector-curvature="0"
                 id="path12977"
                 transform="matrix(0.28112368,0,0,0.2914304,-531.27785,3168.8806)"
                 d="m 684.9375,110.28125 c -4.72018,2.32812 -9.91595,3.67787 -15.40625,3.0625 l 0,95.96875 c 7.83681,-0.0273 14.52102,-0.0735 20.625,-0.125 0.76155,-0.007 1.33645,0.007 2.0625,0 1.81258,-0.0178 3.5852,-0.0416 5.15625,-0.0625 0.75307,-0.01 1.77626,-0.0205 2.46875,-0.0312 2.40003,-0.0379 4.79015,-0.0804 6.375,-0.125 1.06051,-0.0299 1.89454,-0.0596 2.5625,-0.0937 0.18682,-0.01 0.44065,-0.0209 0.59375,-0.0312 0.39659,-0.0267 0.68374,-0.0645 0.84375,-0.0937 l 0.1875,0 0,-80.46875 0,-3.78125 0,-1 c -0.67237,-5.06014 -10.82654,-9.77279 -25.46875,-13.21875 z"
                 style="opacity:0.61061946;color:#000000;fill:#635322;fill-opacity:1;fill-rule:nonzero;stroke:none;stroke-width:12;marker:none;visibility:visible;display:inline;overflow:visible;enable-background:accumulate" />
              <path
                 sodipodi:nodetypes="ccccc"
                 inkscape:connector-curvature="0"
                 id="path12979"
                 transform="matrix(0.2650403,0,0,0.27475737,0.44488676,-87.015423)"
                 d="m -1378.5938,11963.463 c -17.8797,3.042 -30.2617,8.371 -30.0312,16.375 l 0.8125,92.1 c 0.4345,0.03 12.6915,0.08 29.2187,0.124 z"
                 style="color:#000000;fill:#cea739;fill-opacity:1;fill-rule:nonzero;stroke:none;stroke-width:12;marker:none;visibility:visible;display:inline;overflow:visible;enable-background:accumulate" />
            </g>
          </g>
          <g
             id="g12981"
             transform="translate(-0.15383922,0)">
            <path
               style="color:#000000;fill:#eec85d;fill-opacity:1;fill-rule:nonzero;stroke:#6a5b1d;stroke-width:10;stroke-linejoin:round;stroke-opacity:1;marker:none;visibility:visible;display:inline;overflow:visible;enable-background:accumulate"
               d="m -1396.6179,11985.915 c -0.5814,6.977 1.7444,101.007 1.7444,101.007 l 46.5152,-2.907 c 0,0 -6.7982,-0.463 -7.0071,-49.043 -0.1413,-32.881 6.5168,-44.154 5.8442,-53.127 -2.2479,-1.298 -46.5152,-2.907 -47.0967,4.07 z"
               id="path12983"
               inkscape:connector-curvature="0"
               transform="matrix(0.26458334,0,0,0.26458334,-6.3049604e-6,18.562493)"
               sodipodi:nodetypes="cccscc" />
            <path
               sodipodi:nodetypes="ccccc"
               transform="matrix(0.26458334,0,0,0.26458334,-6.3049604e-6,18.562493)"
               inkscape:connector-curvature="0"
               id="path12985"
               d="m -1396.6179,11985.604 c -0.5814,6.977 1.7444,101.318 1.7444,101.318 l 46.5152,-0.581 c 1.973,0 3.1605,-82.578 -1.1629,-104.807 -2.2479,-1.298 -46.5152,-2.907 -47.0967,4.07 z"
               style="color:#000000;fill:#ddb850;fill-opacity:1;fill-rule:nonzero;stroke:none;stroke-width:10;marker:none;visibility:visible;display:inline;overflow:visible;enable-background:accumulate" />
            <path
               style="color:#000000;fill:#ffe08d;fill-opacity:1;fill-rule:nonzero;stroke:none;stroke-width:10;marker:none;visibility:visible;display:inline;overflow:visible;enable-background:accumulate"
               d="m -1388.4688,11981.999 c -4.7304,0.808 -8.0014,2.049 -8.1562,3.906 -0.5814,6.978 1.75,101.033 1.75,101.033 l 6.0312,-0.06 c -0.6572,-29.124 -1.6714,-48.567 0.375,-104.876 z"
               transform="matrix(0.26458334,0,0,0.26458334,-6.3049604e-6,18.562493)"
               id="path12987"
               inkscape:connector-curvature="0"
               sodipodi:nodetypes="cccccc" />
          </g>
          <g
             id="g12989"
             transform="matrix(-1,0,0,1,-703.83914,0)">
            <path
               sodipodi:nodetypes="cccscc"
               transform="matrix(0.26458334,0,0,0.26458334,-6.3049604e-6,18.562493)"
               inkscape:connector-curvature="0"
               id="path12991"
               d="m -1396.6179,11986.795 c -0.5814,6.977 1.7444,100.127 1.7444,100.127 l 46.5152,-2.907 c 0,0 -6.7982,-0.463 -7.0071,-49.043 -0.1413,-32.881 6.5168,-43.274 5.8442,-52.247 -2.2479,-1.298 -46.5152,-2.907 -47.0967,4.07 z"
               style="color:#000000;fill:#eec85d;fill-opacity:1;fill-rule:nonzero;stroke:#6a5b1d;stroke-width:10;stroke-linejoin:round;stroke-opacity:1;marker:none;visibility:visible;display:inline;overflow:visible;enable-background:accumulate" />
            <path
               style="color:#000000;fill:#eec85d;fill-opacity:1;fill-rule:nonzero;stroke:none;stroke-width:10;marker:none;visibility:visible;display:inline;overflow:visible;enable-background:accumulate"
               d="m -1396.6179,11986.795 c -0.5814,6.977 1.7444,100.127 1.7444,100.127 l 46.5152,-0.581 c 1.973,0 3.1605,-81.387 -1.1629,-103.616 -2.2479,-1.298 -46.5152,-2.907 -47.0967,4.07 z"
               id="path12993"
               inkscape:connector-curvature="0"
               transform="matrix(0.26458334,0,0,0.26458334,-6.3049604e-6,18.562493)"
               sodipodi:nodetypes="ccccc" />
            <path
               sodipodi:nodetypes="ccccccc"
               id="path12995"
               transform="matrix(0.26458334,0,0,0.26458334,-6.3049604e-6,18.562493)"
               d="m -1369.4375,11976.94 c -1.3093,0 -2.6145,0.03 -3.9375,0.06 l 0,109.653 25.0312,-0.312 c 1.9731,0 3.136,-86.05 -1.1874,-108.279 -0.9835,-0.568 -10.0143,-1.183 -19.9063,-1.125 z"
               style="opacity:0.59734509;color:#000000;fill:#ad9141;fill-opacity:1;fill-rule:nonzero;stroke:none;stroke-width:10;marker:none;visibility:visible;display:inline;overflow:visible;enable-background:accumulate"
               inkscape:connector-curvature="0" />
            <path
               sodipodi:nodetypes="cccccc"
               inkscape:connector-curvature="0"
               id="path12997"
               transform="matrix(0.26458334,0,0,0.26458334,-6.3049604e-6,18.562493)"
               d="m -1388.4688,11982.879 c -4.7304,0.808 -8.0014,2.049 -8.1562,3.906 -0.5814,6.978 1.75,100.153 1.75,100.153 l 6.0312,-0.06 c -0.6572,-29.124 -1.6714,-47.687 0.375,-103.996 z"
               style="color:#000000;fill:#ffe08d;fill-opacity:1;fill-rule:nonzero;stroke:none;stroke-width:10;marker:none;visibility:visible;display:inline;overflow:visible;enable-background:accumulate" />
          </g>
          <g
             transform="matrix(-1.0369049,0,0,1.0369049,-723.08705,-118.75568)"
             id="g12999">
            <path
               style="color:#000000;fill:#eec85d;fill-opacity:1;fill-rule:nonzero;stroke:#6a5b1d;stroke-width:10;stroke-linejoin:round;stroke-opacity:1;marker:none;visibility:visible;display:inline;overflow:visible;enable-background:accumulate"
               d="m -1396.6179,11985.019 c -0.2763,3.315 0.1039,14.891 0.579,55.353 0.5248,44.69 1.1654,46.55 1.1654,46.55 l 46.5152,-2.907 c 0,0 -6.7982,-2.091 -7.0071,-50.671 -0.1413,-32.881 6.5168,-43.422 5.8442,-52.395 -2.2479,-1.298 -46.5152,-2.907 -47.0967,4.07 z"
               id="path13001"
               inkscape:connector-curvature="0"
               transform="matrix(0.26458334,0,0,0.26458334,-6.3049604e-6,18.562493)"
               sodipodi:nodetypes="csccscc" />
            <path
               sodipodi:nodetypes="ccccc"
               transform="matrix(0.26458334,0,0,0.26458334,-6.3049604e-6,18.562493)"
               inkscape:connector-curvature="0"
               id="path13003"
               d="m -1396.6179,11984.719 c -0.5814,6.977 1.7444,102.203 1.7444,102.203 l 46.5152,-0.581 c 1.973,0 3.1605,-83.463 -1.1629,-105.692 -2.2479,-1.298 -46.5152,-2.907 -47.0967,4.07 z"
               style="color:#000000;fill:#eec85d;fill-opacity:1;fill-rule:nonzero;stroke:none;stroke-width:10;marker:none;visibility:visible;display:inline;overflow:visible;enable-background:accumulate" />
            <path
               sodipodi:nodetypes="ccccccc"
               inkscape:connector-curvature="0"
               style="opacity:0.59734509;color:#000000;fill:#ad9141;fill-opacity:1;fill-rule:nonzero;stroke:none;stroke-width:10;marker:none;visibility:visible;display:inline;overflow:visible;enable-background:accumulate"
               d="m -1369.4375,11973.582 c -1.3093,0 -2.6145,0.03 -3.9375,0.06 l 0,113.011 25.0312,-0.312 c 1.9731,0 3.136,-89.408 -1.1874,-111.637 -0.9835,-0.568 -10.0143,-1.183 -19.9063,-1.125 z"
               transform="matrix(0.26458334,0,0,0.26458334,-6.3049604e-6,18.562493)"
               id="path13005" />
            <path
               inkscape:connector-curvature="0"
               id="path13007"
               transform="matrix(-0.27065065,0,0,0.27065065,-185.43751,3160.1788)"
               d="m 672.4375,104.625 c 1.62842,49.82298 0.73579,76.5687 0.125,103.625 l 5.875,0.0625 c 0,0 0.15907,-6.44984 0.375,-15.8125 0.0208,-0.97024 0.0405,-2.55952 0.0625,-3.59375 0.49223,-23.13356 1.23154,-60.38068 1.34375,-78.25 -0.0146,-1.05649 -0.027,-1.82371 -0.0625,-2.25 -0.14859,-1.78283 -3.2307,-2.99005 -7.71875,-3.78125 z"
               style="color:#000000;fill:#ffe08d;fill-opacity:1;fill-rule:nonzero;stroke:none;stroke-width:10;marker:none;visibility:visible;display:inline;overflow:visible;enable-background:accumulate" />
          </g>
          <g
             id="g13009"
             transform="matrix(1,0,0,1.0461311,4.769014,-148.4446)">
            <path
               sodipodi:nodetypes="csccscc"
               transform="matrix(0.26458334,0,0,0.26458334,-6.3049604e-6,18.562493)"
               inkscape:connector-curvature="0"
               id="path13011"
               d="m -1396.6179,11984.384 c -0.2984,3.581 5.402,0.564 5.9277,44.205 0.4986,41.39 -4.1833,58.333 -4.1833,58.333 l 46.5152,-2.907 c 0,0 -6.7982,-2.48 -7.0071,-51.06 -0.1413,-32.881 6.5168,-43.668 5.8442,-52.641 -2.2479,-1.298 -46.5152,-2.907 -47.0967,4.07 z"
               style="color:#000000;fill:#eec85d;fill-opacity:1;fill-rule:nonzero;stroke:#6a5b1d;stroke-width:10;stroke-linejoin:round;stroke-opacity:1;marker:none;visibility:visible;display:inline;overflow:visible;enable-background:accumulate" />
            <path
               style="color:#000000;fill:#eec85d;fill-opacity:1;fill-rule:nonzero;stroke:none;stroke-width:10;marker:none;visibility:visible;display:inline;overflow:visible;enable-background:accumulate"
               d="m -1396.6179,11984.087 c -0.5814,6.977 1.7444,102.835 1.7444,102.835 l 46.5152,-0.581 c 1.973,0 3.1605,-84.095 -1.1629,-106.324 -2.2479,-1.298 -46.5152,-2.907 -47.0967,4.07 z"
               id="path13013"
               inkscape:connector-curvature="0"
               transform="matrix(0.26458334,0,0,0.26458334,-6.3049604e-6,18.562493)"
               sodipodi:nodetypes="ccccc" />
            <path
               sodipodi:nodetypes="cccccc"
               inkscape:connector-curvature="0"
               id="path13015"
               transform="matrix(0.26458334,0,0,0.26458334,-6.3049604e-6,18.562493)"
               d="m -1388.4688,11980.468 c -4.7304,0.808 -8.0014,2.049 -8.1562,3.906 -0.5814,6.978 1.75,102.564 1.75,102.564 l 6.0312,-0.06 c -0.6572,-29.124 -1.6714,-50.098 0.375,-106.407 z"
               style="color:#000000;fill:#ffe08d;fill-opacity:1;fill-rule:nonzero;stroke:none;stroke-width:10;marker:none;visibility:visible;display:inline;overflow:visible;enable-background:accumulate" />
          </g>
          <g
             id="g13017"
             transform="matrix(-1,0,0,1,-704.7375,0)">
            <path
               sodipodi:nodetypes="ccsccc"
               inkscape:connector-curvature="0"
               id="path13019"
               d="m -357.73447,3186.3764 c 0.329,10.4023 0.42579,34.1472 -0.11541,30.0437 0,0 5.13496,-1.1465 5.59651,-1.3011 0.46158,-0.1548 5.36575,1.2203 5.36575,1.2203 -1.15988,-15.5055 -0.88336,-11.3939 0,-29.7599 -2.85556,-1.4686 -9.33402,-0.9919 -10.84685,-0.203 z"
               style="color:#000000;fill:#ffe08d;fill-opacity:1;fill-rule:nonzero;stroke:#6a5b1d;stroke-width:2.29850125;stroke-linejoin:round;stroke-opacity:1;marker:none;visibility:visible;display:inline;overflow:visible;enable-background:accumulate" />
            <path
               style="color:#000000;fill:#ffe08d;fill-opacity:1;fill-rule:nonzero;stroke:none;stroke-width:10;marker:none;visibility:visible;display:inline;overflow:visible;enable-background:accumulate"
               d="m -357.73447,3186.1876 c 0,2.4765 -0.11541,30.3093 -0.11541,30.3093 l 5.59651,-1.3779 5.36575,1.3741 0.46152,-14.0976 -0.46152,-15.8984 c -2.61079,-2.1213 -10.84685,-0.3095 -10.84685,-0.3095 z"
               id="path13021"
               inkscape:connector-curvature="0"
               sodipodi:nodetypes="ccccccc" />
            <path
               id="path13023"
               transform="matrix(0.26458334,0,0,0.26458334,-6.3049604e-6,18.562493)"
               d="m -1332.8438,11970.107 -19.2187,2.32 c 0,9.36 -0.4375,114.843 -0.4375,114.843 l 20.125,-5.791 c -0.1605,-62.183 -0.9844,-73.003 -0.4688,-111.372 z"
               style="opacity:0.73893804;color:#000000;fill:#ddb850;fill-opacity:1;fill-rule:nonzero;stroke:none;stroke-width:10;marker:none;visibility:visible;display:inline;overflow:visible;enable-background:accumulate"
               inkscape:connector-curvature="0"
               sodipodi:nodetypes="ccccc" />
          </g>
          <path
             style="color:#000000;fill:#998039;fill-opacity:1;fill-rule:nonzero;stroke:none;stroke-width:10;marker:none;visibility:visible;display:inline;overflow:visible;enable-background:accumulate"
             d="m -1347.1955,12087.504 c 1.4536,-1.454 15.1175,-6.687 15.1175,-6.687 0,0 19.4782,8.14 18.0246,7.559 -1.4536,-0.582 -33.1421,-0.872 -33.1421,-0.872 z"
             id="path13025"
             inkscape:connector-curvature="0"
             transform="matrix(0.26458334,0,0,0.26458334,-6.3049604e-6,18.562493)" />
        </g>
        <g
           id="g13027"
           transform="translate(101.49788,-29.563177)">
          <path
             transform="matrix(0.26458334,0,0,0.26458334,-6.3049604e-6,16.916276)"
             style="color:#000000;fill:#ffbb00;fill-opacity:1;fill-rule:nonzero;stroke:#6a5b1d;stroke-width:10;stroke-linecap:round;stroke-linejoin:round;stroke-miterlimit:4;stroke-opacity:1;stroke-dashoffset:0;marker:none;visibility:visible;display:inline;overflow:visible;enable-background:accumulate"
             d="m 152.54817,326.88605 c 0,3.89444 -32.95394,7.05151 -72.700163,7.05151 -39.746223,0 -73.2867725,-3.15707 -73.2867725,-7.05151 3.8129555,-0.0815 33.5405495,-1.24438 73.2867725,-1.24438 39.746223,0 44.836263,-1.18355 72.700163,1.24438 z"
             id="path13029"
             inkscape:connector-curvature="0"
             sodipodi:nodetypes="ccccc" />
          <path
             transform="matrix(0.26458334,0,0,0.26458334,-6.3049604e-6,16.916276)"
             style="color:#000000;fill:#998039;fill-opacity:1;fill-rule:nonzero;stroke:none;stroke-width:10;marker:none;visibility:visible;display:inline;overflow:visible;enable-background:accumulate"
             d="m 152.54817,326.88605 c 0,3.89444 -32.95394,7.05151 -72.700163,7.05151 -39.746223,0 -73.2867725,-3.15707 -73.2867725,-7.05151 0,-3.89445 33.5405495,-8.22473 73.2867725,-8.22473 39.746223,0 72.700163,4.33028 72.700163,8.22473 z"
             id="path13031"
             inkscape:connector-curvature="0"
             sodipodi:nodetypes="sssss" />
        </g>
      </g>
      <g
         id="g13033"
         transform="matrix(0.99170965,0,0,0.91871272,838.94331,-187.91012)">
        <g
           id="g13035">
          <path
             sodipodi:nodetypes="ccccccccc"
             inkscape:connector-curvature="0"
             id="path13037"
             d="m 268.19738,74.786337 39.42255,0 5.04422,1.805939 c 0.31041,-0.59786 10e-6,-1.316781 0.15521,-3.382116 0,-1.63053 -8.59848,-2.455358 -25.82714,-2.455358 -19.86709,0 -25.62854,1.305845 -25.78374,2.827672 0.1552,1.73923 0.0857,3.091329 0.0857,3.091329 l 7.11471,-1.630374 z"
             style="color:#000000;fill:#eec85d;fill-opacity:1;fill-rule:nonzero;stroke:none;stroke-width:10;marker:none;visibility:visible;display:inline;overflow:visible;enable-background:accumulate" />
          <path
             style="color:#000000;fill:#eec85d;fill-opacity:1;fill-rule:nonzero;stroke:#6a5b1d;stroke-width:10;stroke-linejoin:round;stroke-miterlimit:4;stroke-opacity:1;stroke-dasharray:none;marker:none;visibility:visible;display:inline;overflow:visible;enable-background:accumulate"
             d="m 1077.8125,186.90625 c -69.578,0.51575 -86.5625,8.88572 -86.5625,16.46875 0.43204,4.84162 0.38885,11.3364 0.34375,14.4375 -0.18846,0.3393 -0.30917,0.69215 -0.34375,1.03125 -0.0928,0.24264 0.0203,0.46294 0.3125,0.6875 -1.1e-4,0.004 0,0.0937 0,0.0937 0.0312,-0.011 0.0625,-0.0203 0.0937,-0.0312 2.63531,1.78846 12.341,2.91007 18.5313,2.1875 l 0.375,-2.90625 c 0,-5.7059 56.4089,-13.92924 101.2813,-12.55151 17.9931,2.19128 48.2026,3.51317 55.3694,12.55151 l 0,3.53125 c 0,0 14.8052,-0.0236 15.0993,-3.9375 0,-0.24822 -0.082,-0.50527 -0.1875,-0.75 0.378,-2.9146 -0.2934,-8.10036 0.1875,-14.5 0,-8.6514 -32.5088,-16.3125 -97.625,-16.3125 -2.3465,0 -4.6305,-0.0166 -6.875,0 z"
             transform="matrix(0.26458334,0,0,0.26458334,-6.3049604e-6,18.562493)"
             id="path13039"
             inkscape:connector-curvature="0"
             sodipodi:nodetypes="cccccccccccccccssc" />
          <path
             style="color:#000000;fill:#eec85d;fill-opacity:1;fill-rule:nonzero;stroke:#6a5b1d;stroke-width:0.05858524;stroke-linejoin:round;stroke-miterlimit:4;stroke-opacity:1;stroke-dasharray:none;marker:none;visibility:visible;display:inline;overflow:visible;enable-background:accumulate"
             d="m 268.19738,74.786337 39.42255,0 5.04422,1.805939 c 0.31041,-0.59786 10e-6,-2.194763 0.15521,-4.260098 0,-2.289017 -8.59848,-4.321071 -25.82714,-4.321071 -19.86709,0 -24.72541,2.293076 -24.72541,4.364141 0.1552,1.73923 0.0857,4.298555 0.0857,4.298555 l 6.05638,-1.630374 z"
             id="path13041"
             inkscape:connector-curvature="0"
             sodipodi:nodetypes="ccccccccc" />
          <path
             style="color:#000000;fill:#9c8135;fill-opacity:1;fill-rule:nonzero;stroke:none;stroke-width:10;marker:none;visibility:visible;display:inline;overflow:visible;enable-background:accumulate"
             d="m 267.37427,76.471217 c 0,-2.507655 41.25274,-1.704392 41.12364,0 l 0,0.932663 c 0,0 4.24364,-0.0058 4.32145,-1.041365 0,-1.630529 -8.59848,-2.998868 -25.82714,-2.998868 -19.86709,0 -24.57021,1.577601 -24.72541,3.099427 -0.22456,0.586956 3.14539,0.998819 5.00787,0.781414 z"
             id="path13043"
             inkscape:connector-curvature="0"
             sodipodi:nodetypes="cccccccc" />
        </g>
      </g>
      <g
         id="g15349"
         transform="matrix(0.81565209,0,0,1,602.65528,-31.858628)">
        <g
           transform="matrix(1.1554409,0,0,1.1554409,603.25976,297.93925)"
           id="g15351">
          <path
             style="color:#000000;fill:#236385;fill-opacity:1;fill-rule:nonzero;stroke:#6a5b1d;stroke-width:2.64583349;stroke-linecap:round;stroke-linejoin:round;stroke-miterlimit:4;stroke-opacity:1;stroke-dasharray:none;stroke-dashoffset:0;marker:none;visibility:visible;display:inline;overflow:visible;enable-background:accumulate"
             d="m 11.675181,-264.93003 c -6.6702297,0 -8.1644949,9.17521 -8.1644949,14.6831 0,0.26489 0.01179,0.52396 0.028334,0.78351 0.3222141,2.74715 56.7795059,2.61633 56.9943169,0 0.01654,-0.25955 0.02429,-0.51862 0.02429,-0.78351 0,-5.50789 -1.060605,-14.6831 -8.160455,-14.6831 0.164697,4.70637 -40.600685,5.02314 -40.721979,0 z"
             id="path15353"
             inkscape:connector-curvature="0"
             sodipodi:nodetypes="ssccsccs" />
          <path
             sodipodi:nodetypes="ssccsccs"
             inkscape:connector-curvature="0"
             id="path15355"
             d="m 11.675181,-264.93003 c -6.6702297,0 -8.1644949,9.17521 -8.1644949,14.6831 0,0.26489 0.01179,0.52396 0.028334,0.78351 0.3222141,2.74715 56.7795059,2.61633 56.9943169,0 0.01654,-0.25955 0.02429,-0.51862 0.02429,-0.78351 0,-5.50789 -1.060605,-14.6831 -8.160455,-14.6831 0,2.35833 -40.721979,3.29388 -40.721979,0 z"
             style="color:#000000;fill:#eec85d;fill-opacity:1;fill-rule:nonzero;stroke:none;stroke-width:2.64583349;marker:none;visibility:visible;display:inline;overflow:visible;enable-background:accumulate" />
          <path
             inkscape:connector-curvature="0"
             style="opacity:0.86283133;color:#000000;fill:#f8d67a;fill-opacity:1;fill-rule:nonzero;stroke:none;stroke-width:4;marker:none;visibility:visible;display:inline;overflow:visible;enable-background:accumulate"
             d="m 44.125,-1071.4688 c -5.081598,0 -9.362847,1.4234 -12.96875,3.8438 6.137583,15.313 87.76312,18.4332 143.875,12 18.37797,-2.107 31.91495,-4.777 41.625,-7.625 -4.46241,-5.0133 -10.49797,-8.2188 -18.625,-8.2188 0,8.9134 -153.90625,12.4494 -153.90625,0 z"
             transform="matrix(0.26458334,0,0,0.26458334,-6.3049604e-6,18.562493)"
             id="path15357" />
          <path
             style="font-size:medium;font-style:normal;font-variant:normal;font-weight:normal;font-stretch:normal;text-indent:0;text-align:start;text-decoration:none;line-height:normal;letter-spacing:normal;word-spacing:normal;text-transform:none;direction:ltr;block-progression:tb;writing-mode:lr-tb;text-anchor:start;baseline-shift:baseline;opacity:0.42920353;color:#000000;fill:#6a5b1d;fill-opacity:1;fill-rule:nonzero;stroke:none;stroke-width:4;marker:none;visibility:visible;display:inline;overflow:visible;enable-background:accumulate;font-family:Sans;-inkscape-font-specification:Sans"
             d="m 195.28125,-1069.4375 c -1.64094,0.5829 -4.00762,1.1124 -6.90625,1.625 5.90415,1.2265 10.12591,3.172 13.34375,8.2471 3.69008,5.8197 6.3063,13.5834 7.50854,21.375 1.20224,7.7914 0.99292,17.311 0.89771,23.1592 -0.0428,2.6286 -0.11814,4.7961 -0.21875,6.4687 1.40982,-0.1421 2.7895,-0.286 4.0625,-0.4375 0.0766,-1.6541 0.11721,-3.6323 0.15625,-6.0312 0.0978,-6.0057 -0.0293,-13.9802 -1.28125,-22.0938 -1.25195,-8.1136 -3.52819,-16.3464 -7.6875,-22.9062 -2.49703,-3.9383 -5.78455,-7.2416 -9.875,-9.4063 z m -142.25,2.4375 c -2.98638,2.1704 -5.48793,5.0928 -7.53125,8.4062 -3.969815,6.4376 -6.434149,14.4594 -8,22.3438 -1.565852,7.8844 -2.230247,15.621 -2.5,21.4375 -0.124659,2.6879 -0.156032,4.9027 -0.15625,6.5937 1.283264,0.1188 2.62529,0.2327 4,0.3438 -0.0034,-1.6539 0.02731,-3.972 0.15625,-6.75 0.263168,-5.6742 0.926974,-15.7266 2.4375,-23.3326 1.510526,-7.6058 3.900264,-12.7557 7.46875,-18.5424 2.778923,-4.5063 6.157527,-7.8534 10.46875,-9.4688 -2.333492,-0.3211 -4.485948,-0.6436 -6.34375,-1.0312 z m 98.09375,2.625 c -1.46365,0.073 -2.94206,0.154 -4.4375,0.2188 0.12653,0.1886 0.24719,0.3477 0.375,0.5624 1.0882,1.8289 2.15814,4.482 3.0625,7.5626 1.80872,6.1609 3.07384,14.2692 4,22.2187 1.34601,11.5532 1.85197,22.6652 2.03125,27.9687 1.34333,-0.031 2.70525,-0.059 4.03125,-0.094 -0.17386,-5.3988 -0.66806,-16.6431 -2.03125,-28.3437 -0.94042,-8.0721 -2.32557,-16.3824 -4.25,-22.9376 -0.8002,-2.7256 -1.71605,-5.1085 -2.78125,-7.1562 z m -53.4375,0.8438 c -7.057448,8.2559 -9.809799,21.4105 -11,33.3124 -1.027316,10.2733 -0.800897,19.6585 -0.5625,24.4688 1.339336,0.028 2.676682,0.038 4.03125,0.062 -0.242255,-4.5674 -1.765016,-14.3334 -0.744384,-24.5398 1.304454,-13.0445 6.17795,-26.6338 13.838134,-33.2102 -1.87142,-0.021 -3.72564,-0.058 -5.5625,-0.094 z"
             transform="matrix(0.26458334,0,0,0.26458334,-6.3049604e-6,18.562493)"
             id="path15359"
             inkscape:connector-curvature="0"
             sodipodi:nodetypes="cccssccssccccsscccssccccccsccscccsccscc" />
        </g>
        <g
           transform="matrix(0.89685344,0,0,-1.0693615,382.40908,69.31998)"
           id="g15361">
          <g
             id="g15363">
            <path
               style="color:#000000;fill:#eec85d;fill-opacity:1;fill-rule:nonzero;stroke:none;stroke-width:10;marker:none;visibility:visible;display:inline;overflow:visible;enable-background:accumulate"
               d="m 268.19738,74.786337 39.42255,0 5.04422,1.805939 c 0.31041,-0.59786 10e-6,-1.316781 0.15521,-3.382116 0,-1.63053 -8.59848,-2.455358 -25.82714,-2.455358 -19.86709,0 -25.62854,1.305845 -25.78374,2.827672 0.1552,1.73923 0.0857,3.091329 0.0857,3.091329 l 7.11471,-1.630374 z"
               id="path15365"
               inkscape:connector-curvature="0"
               sodipodi:nodetypes="ccccccccc" />
            <path
               style="color:#000000;fill:#eec85d;fill-opacity:1;fill-rule:nonzero;stroke:#6a5b1d;stroke-width:10.37123299;stroke-linejoin:round;stroke-miterlimit:4;stroke-opacity:1;stroke-dasharray:none;marker:none;visibility:visible;display:inline;overflow:visible;enable-background:accumulate"
               d="m -2082.2188,-958.04768 c 0.03,0.38896 0.097,0.76723 0.25,1.15625 0.034,3.20449 0.079,9e-4 -0.25,4.92908 0,7.77283 13.0052,9.16824 66.375,9.6969 1.7217,0.017 3.4814,0 5.2813,0 49.9474,0 74.875,-0.67271 74.875,-9.54065 -0.3689,-6.55982 0.1649,-2.09778 -0.125,-5.08533 0.019,-0.0592 0.046,-0.12719 0.062,-0.1875 0.018,-0.0722 0.02,-0.14622 0.031,-0.21875 0.026,-0.12903 0.031,-0.24778 0.031,-0.375 -0.01,-0.0942 -0.014,-0.19136 -0.031,-0.28125 -0.021,-0.10738 -146.4993,-0.0937 -146.4993,-0.0937 z"
               transform="matrix(0.34493599,0,0,-0.25812253,980.50353,-171.71439)"
               id="path15367"
               inkscape:connector-curvature="0"
               sodipodi:nodetypes="ccccscccccccc" />
            <path
               sodipodi:nodetypes="ccccccccccscccccscccc"
               inkscape:connector-curvature="0"
               id="path15369"
               transform="matrix(0.29501291,0,0,-0.22076408,-501.07956,70.022737)"
               d="m 2587.2217,-23.970274 c 0,0 0.6759,-4.15143 0.5908,-0.592226 1.132,-0.414691 5.7256,-0.735625 12.6563,-1 z m 171.1221,-0.18452 -9.5313,-1.032706 c 5.5367,0.242507 9.2627,0.509096 9.9063,0.8125 0.08,-2.841794 0.3192,2.007038 -0.375,0.220206 z m -170.5626,-0.0015 c -0.047,1.710664 -0.1193,3.668552 -0.2812,6.09375 0,9.3813497 16.4694,11.9167122 83.8125,11.9167122 58.3997,0 87.5313,-1.3606004 87.5313,-11.7292122 -0.1695,-3.01408 -0.16,-4.830681 -0.125,-6.28125 -0.8534,0.454462 -6.0783,0.999537 -15.125,1.46875 l -2.375,1.125 -39.2188,0 c -9.2136,0.11745 -19.218,0.1875 -30.6875,0.1875 -12.6339,0 -22.9342,-0.07153 -32.1875,-0.1875 l -31.5312,0 0.4374,-0.71875 c -13.5337,-0.564377 -18.9979,-1.303736 -20.25,-1.875 z"
               style="color:#000000;fill:#d1ad43;fill-opacity:1;fill-rule:nonzero;stroke:none;stroke-width:0.05858524;marker:none;visibility:visible;display:inline;overflow:visible;enable-background:accumulate" />
            <path
               sodipodi:nodetypes="cccc"
               inkscape:connector-curvature="0"
               id="path15371"
               d="m 312.81936,75.38374 c 0,-0.258493 -8.59848,-0.64516 -25.82714,-0.64516 -19.86709,0 -24.57021,0.419842 -24.72541,0.661102 0,0.670204 50.30543,0.505461 50.55255,-0.01594 z"
               style="color:#000000;fill:#ffde88;fill-opacity:1;fill-rule:nonzero;stroke:none;stroke-width:10;marker:none;visibility:visible;display:inline;overflow:visible;enable-background:accumulate" />
          </g>
        </g>
      </g>
      <g
         transform="translate(695.08861,-179.57271)"
         id="g13069">
        <path
           sodipodi:nodetypes="cssssscc"
           inkscape:connector-curvature="0"
           id="path13071"
           d="m 409.89027,79.339827 c -2.07332,5.082667 -8.91943,31.098683 -8.59136,32.236623 0.46435,1.61062 9.0389,19.47712 9.0389,20.44869 0,1.47492 8.72,2.67076 19.47487,2.67076 10.7548,0 19.47482,-1.19584 19.47482,-2.67076 0,-0.97157 9.0389,-18.7725 9.0389,-20.44869 0,-1.72115 -8.63196,-30.937391 -8.63196,-32.017127 -0.25604,2.288643 -33.94314,4.674703 -39.80417,-0.219496 z"
           style="color:#000000;fill:#f5cb5d;fill-opacity:1;fill-rule:nonzero;stroke:#6a5b1d;stroke-width:3.08614802;stroke-linecap:round;stroke-linejoin:round;stroke-miterlimit:4;stroke-opacity:1;stroke-dasharray:none;stroke-dashoffset:0;marker:none;visibility:visible;display:inline;overflow:visible;enable-background:accumulate" />
        <path
           style="color:#000000;fill:#fdd979;fill-opacity:1;fill-rule:nonzero;stroke:none;stroke-width:0;marker:none;visibility:visible;display:inline;overflow:visible;enable-background:accumulate"
           d="m 410.02036,79.469801 c -0.68545,-0.790452 -8.72145,30.385499 -8.72145,32.106649 0,1.67619 9.0389,19.47712 9.0389,20.44869 0,1.47492 8.72,2.67076 19.47487,2.67076 10.7548,0 19.47482,-1.19584 19.47482,-2.67076 0,-0.97157 9.0389,-18.7725 9.0389,-20.44869 0,-1.72115 -9.11073,-33.109546 -8.72139,-32.106649 0.35877,0.92426 -37.95195,1.882966 -39.58465,0 z"
           id="path13073"
           inkscape:connector-curvature="0"
           sodipodi:nodetypes="ssssssss" />
        <path
           style="color:#000000;fill:#d5b352;fill-opacity:1;fill-rule:nonzero;stroke:none;stroke-width:0;marker:none;visibility:visible;display:inline;overflow:visible;enable-background:accumulate"
           d="m 401.32918,111.27912 c -0.0208,0.12936 -0.0308,0.23581 -0.0308,0.29733 0,1.67619 9.03899,19.47712 9.03899,20.44869 0,1.47492 8.71991,5.1746 19.4748,5.1746 10.75488,0 19.47481,-3.69968 19.47481,-5.1746 0,-0.97157 9.0389,-18.7725 9.0389,-20.44869 0,-0.0529 -0.007,-0.13267 -0.0214,-0.23573 3.43317,0.97627 -40.32344,-0.32376 -56.97567,-0.0615 z"
           id="path13075"
           inkscape:connector-curvature="0"
           sodipodi:nodetypes="csssssccc" />
        <path
           sodipodi:nodetypes="cccccscccccscc"
           inkscape:connector-curvature="0"
           id="path13077"
           d="m 449.59511,79.446523 c -0.003,0 0.003,0.02649 0.007,0.05394 0.005,-0.01041 0.004,-0.02366 0,-0.03407 -0.006,-0.01609 -0.005,-0.01987 -0.007,-0.01987 z m 0.007,0.05394 c -0.48234,0.914607 -37.96317,1.828553 -39.57822,-0.03407 -0.38193,-0.440412 -3.34746,9.044724 -5.51227,17.827984 2.79572,-8.231941 6.2233,-16.444291 6.57939,-16.033593 1.51067,1.742154 34.27586,1.048983 39.0141,0.203741 -0.2579,-0.973943 -0.47058,-1.800069 -0.503,-1.964254 z m -39.46286,51.907777 c 0.11642,0.29857 0.19709,0.53703 0.19709,0.61851 0,0.20885 0.17925,0.41003 0.50978,0.60488 -0.1932,-0.34342 -0.43281,-0.76424 -0.70687,-1.22339 z"
           style="color:#000000;fill:#feefc4;fill-opacity:1;fill-rule:nonzero;stroke:none;stroke-width:0;marker:none;visibility:visible;display:inline;overflow:visible;enable-background:accumulate" />
        <path
           sodipodi:nodetypes="ccccccsccssc"
           inkscape:connector-curvature="0"
           id="path13079"
           d="m 449.59499,79.446523 c -0.002,0 0,0.02554 0.007,0.05394 0.005,-0.01135 0.004,-0.02366 0,-0.03407 -0.006,-0.01513 -0.006,-0.01987 -0.007,-0.01987 z m 0.007,0.05394 c -0.17354,0.342184 -5.53929,0.679449 -12.26156,0.876754 0.80644,2.079703 9.76965,25.254813 10.45359,30.042173 0.71539,5.00759 0.71369,6.4368 0.71369,6.4368 l -6.98213,18.65411 c 4.30381,-0.4901 7.76376,-2.65658 7.76376,-3.48355 0,-0.97158 9.03986,-18.77543 9.03986,-20.45172 0,-1.65718 -8.44603,-30.801498 -8.72721,-32.074567 z"
           style="opacity:0.58407078;color:#000000;fill:#d3af49;fill-opacity:1;fill-rule:nonzero;stroke:none;stroke-width:12;marker:none;visibility:visible;display:inline;overflow:visible;enable-background:accumulate" />
      </g>
      <g
         transform="matrix(0.99170965,0,0,0.91871272,839.73896,-231.27323)"
         id="g13081">
        <g
           id="g13083">
          <path
             style="color:#000000;fill:#eec85d;fill-opacity:1;fill-rule:nonzero;stroke:none;stroke-width:10;marker:none;visibility:visible;display:inline;overflow:visible;enable-background:accumulate"
             d="m 268.19738,74.786337 39.42255,0 5.04422,1.805939 c 0.31041,-0.59786 10e-6,-1.316781 0.15521,-3.382116 0,-1.63053 -8.59848,-2.455358 -25.82714,-2.455358 -19.86709,0 -25.62854,1.305845 -25.78374,2.827672 0.1552,1.73923 0.0857,3.091329 0.0857,3.091329 l 7.11471,-1.630374 z"
             id="path13085"
             inkscape:connector-curvature="0"
             sodipodi:nodetypes="ccccccccc" />
          <path
             sodipodi:nodetypes="cccccccccccccccssc"
             inkscape:connector-curvature="0"
             id="path13087"
             transform="matrix(0.26458334,0,0,0.26458334,-6.3049604e-6,18.562493)"
             d="m 1077.8125,186.90625 c -69.578,0.51575 -86.5625,8.88572 -86.5625,16.46875 0.43204,4.84162 0.38885,11.3364 0.34375,14.4375 -0.18846,0.3393 -0.30917,0.69215 -0.34375,1.03125 -0.0928,0.24264 0.0203,0.46294 0.3125,0.6875 -1.1e-4,0.004 0,0.0937 0,0.0937 0.0312,-0.011 0.0625,-0.0203 0.0937,-0.0312 2.63531,1.78846 12.341,2.91007 18.5313,2.1875 l 0.375,-2.90625 c 0,-5.7059 56.4089,-13.92924 101.2813,-12.55151 17.9931,2.19128 48.2026,3.51317 55.3694,12.55151 l 0,3.53125 c 0,0 14.8052,-0.0236 15.0993,-3.9375 0,-0.24822 -0.082,-0.50527 -0.1875,-0.75 0.378,-2.9146 -0.2934,-8.10036 0.1875,-14.5 0,-8.6514 -32.5088,-16.3125 -97.625,-16.3125 -2.3465,0 -4.6305,-0.0166 -6.875,0 z"
             style="color:#000000;fill:#eec85d;fill-opacity:1;fill-rule:nonzero;stroke:#6a5b1d;stroke-width:10;stroke-linejoin:round;stroke-miterlimit:4;stroke-opacity:1;stroke-dasharray:none;marker:none;visibility:visible;display:inline;overflow:visible;enable-background:accumulate" />
          <path
             sodipodi:nodetypes="ccccccccc"
             inkscape:connector-curvature="0"
             id="path13089"
             d="m 268.19738,74.786337 39.42255,0 5.04422,1.805939 c 0.31041,-0.59786 10e-6,-2.194763 0.15521,-4.260098 0,-2.289017 -8.59848,-4.321071 -25.82714,-4.321071 -19.86709,0 -24.72541,2.293076 -24.72541,4.364141 0.1552,1.73923 0.0857,4.298555 0.0857,4.298555 l 6.05638,-1.630374 z"
             style="color:#000000;fill:#eec85d;fill-opacity:1;fill-rule:nonzero;stroke:#6a5b1d;stroke-width:0.05858524;stroke-linejoin:round;stroke-miterlimit:4;stroke-opacity:1;stroke-dasharray:none;marker:none;visibility:visible;display:inline;overflow:visible;enable-background:accumulate" />
          <path
             sodipodi:nodetypes="cccccccc"
             inkscape:connector-curvature="0"
             id="path13091"
             d="m 267.37427,76.471217 c 0,-2.507655 41.25274,-1.704392 41.12364,0 l 0,0.932663 c 0,0 4.24364,-0.0058 4.32145,-1.041365 0,-1.630529 -8.59848,-2.998868 -25.82714,-2.998868 -19.86709,0 -24.57021,1.577601 -24.72541,3.099427 -0.22456,0.586956 3.14539,0.998819 5.00787,0.781414 z"
             style="color:#000000;fill:#9c8135;fill-opacity:1;fill-rule:nonzero;stroke:none;stroke-width:10;marker:none;visibility:visible;display:inline;overflow:visible;enable-background:accumulate" />
        </g>
      </g>
    </g>
  </g>
</svg>
