<?xml version="1.0" encoding="UTF-8" standalone="no"?>
<!-- Created with Inkscape (http://www.inkscape.org/) -->

<svg
   xmlns:dc="http://purl.org/dc/elements/1.1/"
   xmlns:cc="http://creativecommons.org/ns#"
   xmlns:rdf="http://www.w3.org/1999/02/22-rdf-syntax-ns#"
   xmlns:svg="http://www.w3.org/2000/svg"
   xmlns="http://www.w3.org/2000/svg"
   xmlns:sodipodi="http://sodipodi.sourceforge.net/DTD/sodipodi-0.dtd"
   xmlns:inkscape="http://www.inkscape.org/namespaces/inkscape"
   width="279.0983"
   height="237.90808"
   viewBox="0 0 73.844755 62.946514"
   version="1.1"
   id="svg23489"
   inkscape:version="0.48.5 r10040"
   sodipodi:docname="New document 11">
  <defs
     id="defs23483" />
  <sodipodi:namedview
     id="base"
     pagecolor="#7d848b"
     bordercolor="#666666"
     borderopacity="1.0"
     inkscape:pageopacity="1"
     inkscape:pageshadow="2"
     inkscape:zoom="0.42617864"
     inkscape:cx="551.40437"
     inkscape:cy="-87.251674"
     inkscape:document-units="px"
     inkscape:current-layer="layer1"
     showgrid="false"
     inkscape:pagecheckerboard="false"
     showborder="true"
     units="px"
     inkscape:window-width="1920"
     inkscape:window-height="1017"
     inkscape:window-x="-8"
     inkscape:window-y="-8"
     inkscape:window-maximized="1"
     inkscape:showpageshadow="false"
     guidetolerance="28"
     fit-margin-top="25"
     fit-margin-left="25"
     fit-margin-right="25"
     fit-margin-bottom="25">
    <inkscape:grid
       type="xygrid"
       id="grid24034"
       spacingx="1px"
       spacingy="1px"
       empspacing="8"
       visible="true"
       enabled="true"
       snapvisiblegridlinesonly="true"
       originx="-80.706871px"
       originy="-370.50383px" />
  </sodipodi:namedview>
  <metadata
     id="metadata23486">
    <rdf:RDF>
      <cc:Work
         rdf:about="">
        <dc:format>image/svg+xml</dc:format>
        <dc:type
           rdf:resource="http://purl.org/dc/dcmitype/StillImage" />
        <dc:title></dc:title>
        <cc:license
           rdf:resource="" />
        <dc:creator>
          <cc:Agent>
            <dc:title>Robert Brooks</dc:title>
          </cc:Agent>
        </dc:creator>
      </cc:Work>
    </rdf:RDF>
  </metadata>
  <g
     inkscape:label="Layer 1"
     inkscape:groupmode="layer"
     id="layer1"
     transform="translate(-21.353694,-136.02434)">
    <g
       transform="translate(-554.37846,956.82812)"
       id="g45232">
      <g
         id="g45234"
         transform="translate(-14.094011,-151.20984)">
        <path
           inkscape:connector-curvature="0"
           style="color:#000000;fill:#fdd979;fill-opacity:1;fill-rule:nonzero;stroke:#6a5b1d;stroke-width:12;stroke-linejoin:round;stroke-opacity:1;marker:none;visibility:visible;display:inline;overflow:visible;enable-background:accumulate"
           d="m 2339.625,-3141.4062 c -57.0912,0.036 -123.7727,0.5698 -130.9375,2.0624 l -0.5313,14.875 c -2.5581,64.0512 -0.1053,83.9863 0,126.5938 l -0.9374,-0.031 c 0.3044,0.5898 0.6229,1.1622 0.9374,1.75 2e-4,0.118 0,0.2253 0,0.3437 0.2309,1.2694 0.8712,2.1833 1.7188,2.8437 8.2648,14.5857 18.5938,27.4688 18.5938,27.4688 l 178.0937,0 17.5313,-28.6875 -1.1563,-0.031 c 0.1297,-31.6903 1.2831,-46.4063 0.1563,-95.6874 l -2.2813,-10.625 2.125,-9.0626 c 2.1921,-12.857 0.3787,-19.6866 0,-28.6874 0,0 -2.07,-2.7153 -5.8125,-2.7813 -12.425,-0.2195 -43.2453,-0.3657 -77.5,-0.3437 z"
           transform="matrix(0.26458334,0,0,0.26458334,14.094005,169.77233)"
           id="path45236" />
        <path
           sodipodi:nodetypes="cscccccccccc"
           inkscape:connector-curvature="0"
           id="path45238"
           d="m 2261.9659,-2567.8466 c 11.4636,-2.3883 175.2847,-2.2844 208.418,-1.6992 3.7425,0.066 5.8176,2.7624 5.8176,2.7624 0.3787,9.0008 2.1921,15.8495 0,28.7065 l -2.1264,9.0372 2.2821,10.6394 c 1.1268,49.2811 -0.026,63.9908 -0.1557,95.6811 0.5316,2.658 -5.8476,2.658 -5.8476,2.658 l -198.2875,0 c 0,0 -9.5689,1.5948 -10.6321,-4.2528 -0.027,-44.0802 -2.6,-63.5477 0,-128.6478 z"
           style="color:#000000;fill:#d1b25a;fill-opacity:1;fill-rule:nonzero;stroke:none;stroke-width:12;marker:none;visibility:visible;display:inline;overflow:visible;enable-background:accumulate"
           transform="matrix(0.26458334,0,0,0.26458334,-6.3049604e-6,18.562493)" />
        <path
           style="color:#000000;fill:#f8d67a;fill-opacity:1;fill-rule:nonzero;stroke:none;stroke-width:12;marker:none;visibility:visible;display:inline;overflow:visible;enable-background:accumulate"
           d="m 2392.9062,-2594.875 c -57.0911,0.037 -123.7727,0.5386 -130.9374,2.0312 l -0.5313,14.9063 c -1.5845,39.6728 -1.2296,62.3545 -0.7187,84.0313 0.3877,-2.6267 0.8014,-6.3347 1.25,-11.2188 4.7844,-52.097 4.2478,-78.1239 7.4374,-79.7188 3.1897,-1.5948 200.4052,-1.5948 202,0 0.7844,0.7843 3.5106,6.4374 5.8126,12.1876 0.2654,-7.2758 -0.7591,-12.6557 -1.0313,-19.125 0,0 -2.07,-2.684 -5.8125,-2.75 -12.425,-0.2195 -43.214,-0.3658 -77.4688,-0.3438 z m 81.1563,40.8438 c -3.7213,2.1264 -5.3129,5.8423 -4.7813,7.9687 0.5317,2.1265 2.6558,13.3072 3.1876,21.2813 0.3928,5.8932 3.1052,22.7795 4.2812,35.7187 0.1622,-13.7719 0.1555,-29.7428 -0.4062,-54.3125 l -2.2813,-10.6562 z"
           transform="matrix(0.26458334,0,0,0.26458334,-6.3049604e-6,25.173184)"
           id="path45240"
           inkscape:connector-curvature="0" />
      </g>
      <path
         style="color:#000000;fill:#947c35;fill-opacity:1;fill-rule:nonzero;stroke:none;stroke-width:12;marker:none;visibility:visible;display:inline;overflow:visible;enable-background:accumulate"
         d="m 2207.211,-2997.9126 c 8.5056,16.4797 21.2641,32.4278 21.2641,32.4278 l 178.0866,0 17.5429,-28.7065 -58.9583,-4.9382 -31.5513,3.8862 -34.6503,-2.7173 z"
         id="path45242"
         inkscape:connector-curvature="0"
         transform="matrix(0.26458334,0,0,0.26458334,-6.3049604e-6,18.562493)"
         sodipodi:nodetypes="cccccccc" />
    </g>
  </g>
</svg>
