<?xml version="1.0" encoding="UTF-8" standalone="no"?>
<!-- Created with Inkscape (http://www.inkscape.org/) -->

<svg
   xmlns:dc="http://purl.org/dc/elements/1.1/"
   xmlns:cc="http://creativecommons.org/ns#"
   xmlns:rdf="http://www.w3.org/1999/02/22-rdf-syntax-ns#"
   xmlns:svg="http://www.w3.org/2000/svg"
   xmlns="http://www.w3.org/2000/svg"
   xmlns:sodipodi="http://sodipodi.sourceforge.net/DTD/sodipodi-0.dtd"
   xmlns:inkscape="http://www.inkscape.org/namespaces/inkscape"
   width="396.93042"
   height="201.72224"
   viewBox="0 0 105.02117 53.372345"
   version="1.1"
   id="svg23489"
   inkscape:version="0.48.5 r10040"
   sodipodi:docname="rubble.svg">
  <defs
     id="defs23483" />
  <sodipodi:namedview
     id="base"
     pagecolor="#7d848b"
     bordercolor="#666666"
     borderopacity="1.0"
     inkscape:pageopacity="1"
     inkscape:pageshadow="2"
     inkscape:zoom="0.42617864"
     inkscape:cx="-75.391909"
     inkscape:cy="418.64616"
     inkscape:document-units="px"
     inkscape:current-layer="layer1"
     showgrid="false"
     inkscape:pagecheckerboard="false"
     showborder="true"
     units="px"
     inkscape:window-width="1920"
     inkscape:window-height="1017"
     inkscape:window-x="-8"
     inkscape:window-y="-8"
     inkscape:window-maximized="1"
     inkscape:showpageshadow="false"
     guidetolerance="28"
     fit-margin-left="25"
     fit-margin-top="5"
     fit-margin-bottom="25"
     fit-margin-right="25">
    <inkscape:grid
       type="xygrid"
       id="grid24034"
       spacingx="1px"
       spacingy="1px"
       empspacing="8"
       visible="true"
       enabled="true"
       snapvisiblegridlinesonly="true"
       originx="165.52819px"
       originy="259.49121px" />
  </sodipodi:namedview>
  <metadata
     id="metadata23486">
    <rdf:RDF>
      <cc:Work
         rdf:about="">
        <dc:format>image/svg+xml</dc:format>
        <dc:type
           rdf:resource="http://purl.org/dc/dcmitype/StillImage" />
        <dc:title></dc:title>
        <cc:license
           rdf:resource="" />
        <dc:creator>
          <cc:Agent>
            <dc:title>Robert Brooks</dc:title>
          </cc:Agent>
        </dc:creator>
      </cc:Work>
    </rdf:RDF>
  </metadata>
  <g
     inkscape:label="Layer 1"
     inkscape:groupmode="layer"
     id="layer1"
     transform="translate(43.796001,-312.28472)">
    <g
       id="g21111"
       transform="translate(-918.03075,714.80661)">
      <g
         transform="translate(-0.843918,-0.98457101)"
         id="g21098">
        <path
           transform="matrix(0.26458334,0,0,0.26458334,-6.3049604e-6,18.562493)"
           inkscape:connector-curvature="0"
           id="path21096"
           d="m 3646.2573,-1559.9295 c 36.1489,37.2122 26.0485,83.4615 24.9853,92.4988 -1.0632,9.0372 -12.2268,21.264 -12.2268,21.264 l -40.9334,1.5948 c 0,0 31.3645,-40.4017 27.6433,-55.8182 -3.7212,-15.4164 9.0372,-45.7177 6.3792,-48.3757 -2.658,-2.658 -4.7844,-10.1005 -5.8476,-11.1637 z"
           style="color:#000000;fill:#d7ae3e;fill-opacity:1;fill-rule:nonzero;stroke:#6a5b1d;stroke-width:12;stroke-linejoin:round;stroke-opacity:1;marker:none;visibility:visible;display:inline;overflow:visible;enable-background:accumulate" />
        <path
           style="color:#000000;fill:#8f793a;fill-opacity:1;fill-rule:nonzero;stroke:none;stroke-width:12;marker:none;visibility:visible;display:inline;overflow:visible;enable-background:accumulate"
           d="m 3646.2573,-1559.9295 c 36.1489,37.2122 26.0485,83.4615 24.9853,92.4988 -1.0632,9.0372 -12.2268,21.264 -12.2268,21.264 l -40.9334,1.5948 c 0,0 31.3645,-40.4017 27.6433,-55.8182 -3.7212,-15.4164 9.0372,-45.7177 6.3792,-48.3757 -2.658,-2.658 -4.7844,-10.1005 -5.8476,-11.1637 z"
           id="path21094"
           inkscape:connector-curvature="0"
           transform="matrix(0.26458334,0,0,0.26458334,-6.3049604e-6,18.562493)" />
      </g>
      <g
         transform="matrix(0.89826741,0,0,0.89826741,85.110603,-38.506778)"
         id="g21050">
        <g
           id="g21013"
           transform="translate(0.562612,0)">
          <g
             id="g21010">
            <path
               transform="matrix(0.26458334,0,0,0.26458334,-6.3049604e-6,18.562493)"
               inkscape:connector-curvature="0"
               id="path21008"
               d="m 3366.6347,-1555.6766 c 9.0372,-6.3793 22.8589,-6.9109 23.9221,-9.0373 1.0632,-2.1264 15.9481,-1.5948 19.1377,-2.658 3.1896,-1.0632 55.2866,-11.1636 54.755,-12.2268 -0.5316,-1.0632 33.4909,22.8588 22.8588,34.5541 -10.632,11.6952 -29.2381,45.1861 -68.5766,33.4909 -39.3385,-11.6952 -43.0598,-19.6693 -47.3126,-23.3905 -4.2528,-3.7212 -2.1264,-3.1896 -3.7212,-9.0372 -1.5948,-5.8476 -1.0632,-11.6952 -1.0632,-11.6952 z"
               style="color:#000000;fill:#eec85d;fill-opacity:1;fill-rule:nonzero;stroke:#6a5b1d;stroke-width:12;stroke-linejoin:round;stroke-opacity:1;marker:none;visibility:visible;display:inline;overflow:visible;enable-background:accumulate" />
          </g>
          <path
             transform="matrix(0.26458334,0,0,0.26458334,-6.3049604e-6,18.562493)"
             inkscape:connector-curvature="0"
             id="path21006"
             d="m 3366.6347,-1555.6766 c 9.0372,-6.3793 22.8589,-6.9109 23.9221,-9.0373 1.0632,-2.1264 15.9481,-1.5948 19.1377,-2.658 3.1896,-1.0632 55.2866,-11.1636 54.755,-12.2268 -0.5316,-1.0632 33.4909,22.8588 22.8588,34.5541 -10.632,11.6952 -29.2381,45.1861 -68.5766,33.4909 -39.3385,-11.6952 -43.0598,-19.6693 -47.3126,-23.3905 -4.2528,-3.7212 -2.1264,-3.1896 -3.7212,-9.0372 -1.5948,-5.8476 -1.0632,-11.6952 -1.0632,-11.6952 z"
             style="color:#000000;fill:#eec85d;fill-opacity:1;fill-rule:nonzero;stroke:none;stroke-width:12;marker:none;visibility:visible;display:inline;overflow:visible;enable-background:accumulate" />
        </g>
        <path
           sodipodi:nodetypes="sccccccccsccccccs"
           inkscape:connector-curvature="0"
           id="path20952"
           transform="matrix(0.29454852,0,0,0.29454852,-94.749746,63.532608)"
           d="m 3608.4062,-1581.3125 c -4.2216,0 -8.2803,0.5537 -12.125,1.6563 l -47.5937,7.4062 0,6.4688 c 0,0 12.9698,136.1715 18.1563,134.875 4.5225,-1.1307 45.0833,-9.8497 45.7812,-9.75 11.6297,-1.858 23.9383,-2.6823 24.625,-3.6563 4.5449,-1.1102 8.7546,-2.6901 12.5938,-4.75 -0.039,-0.029 -0.4063,-0.2813 -0.4063,-0.2813 0,0 -6.9112,0.5074 0.5313,-10.6562 7.4424,-11.1636 -7.4176,-29.2205 -7.4176,-29.2205 l 23.3863,-5.842 -1.5937,-8.5313 3.7187,-6.9062 -10.6563,-12.2188 c 0,0 5.8748,-4.1537 11.125,-8.3124 -10.8463,-29.2373 -34.7034,-50.2813 -60.125,-50.2813 z"
           style="color:#000000;fill:#ddb035;fill-opacity:1;fill-rule:nonzero;stroke:#6a5b1d;stroke-width:10.34800053;stroke-linejoin:round;stroke-miterlimit:4;stroke-opacity:1;stroke-dasharray:none;marker:none;visibility:visible;display:inline;overflow:visible;enable-background:accumulate" />
        <path
           id="path20954"
           transform="matrix(0.29454852,0,0,0.29454852,-94.749746,63.532608)"
           d="m 3608.4062,-1581.3125 c -4.2216,0 -8.2803,0.5537 -12.125,1.6563 l -47.5937,7.4062 0,6.4688 c 0,0 12.9698,136.1715 18.1563,134.875 4.5225,-1.1307 45.0833,-9.8497 45.7812,-9.75 11.6297,-1.858 22.6258,-2.0261 23.3125,-3 4.9831,-1.2173 9.6352,-3.0393 13.8437,-5.4376 -0.029,-0.021 -0.3437,-0.25 -0.3437,-0.25 0,0 -6.9112,0.5074 0.5313,-10.6562 7.4424,-11.1636 9.5937,-26.5625 9.5937,-26.5625 l 6.375,-8.5 -1.5937,-8.5313 3.7187,-6.9062 -10.6563,-12.2188 c 0,0 5.8748,-4.1537 11.125,-8.3124 -10.8463,-29.2373 -34.7034,-50.2813 -60.125,-50.2813 z"
           style="color:#000000;fill:#eec85d;fill-opacity:1;fill-rule:nonzero;stroke:none;stroke-width:12;marker:none;visibility:visible;display:inline;overflow:visible;enable-background:accumulate"
           inkscape:connector-curvature="0" />
        <path
           id="path21040"
           transform="matrix(0.29454852,0,0,0.29454852,-94.749746,63.532608)"
           d="m 3608.4062,-1581.3125 c -4.2216,0 -8.2804,0.5537 -12.125,1.6563 l -47.5937,7.375 0,6.5312 c 0,0 1.2456,13.1616 3.0625,30.6562 2.8463,-0.4679 5.5244,-1.223 7.0312,-2.5624 4.2977,-3.8202 11.9688,-5.25 11.9688,-5.25 l -1.4375,-2.9063 c 18.6233,-7.6405 56.8125,-20.0313 56.8125,-20.0313 0,0 21.4601,-5.6128 36.9688,38.9688 1.7105,-1.2744 3.6034,-2.7034 5.4374,-4.1562 -10.85,-29.2352 -34.7034,-50.2813 -60.125,-50.2813 z m 59.4376,70.5625 c 0.036,0.1464 0.089,0.2903 0.125,0.4375 l 0.094,-0.1875 -0.2187,-0.25 z"
           style="opacity:0.46017701;color:#000000;fill:#ffe190;fill-opacity:1;fill-rule:nonzero;stroke:none;stroke-width:12;marker:none;visibility:visible;display:inline;overflow:visible;enable-background:accumulate"
           inkscape:connector-curvature="0" />
        <path
           id="path21045"
           transform="matrix(0.29454852,0,0,0.29454852,-94.749746,63.532608)"
           d="m 3665.7812,-1494.8438 c -15.8651,5.5862 -67.6299,17.1115 -95.5312,21.625 l 2.875,0 c 0,0 -7.8335,0.2639 -14.125,1.6876 2.974,23.0098 5.9411,41.1006 7.8438,40.625 4.5225,-1.1307 45.0833,-9.8497 45.7812,-9.75 11.6297,-1.858 22.6258,-2.0261 23.3125,-3 4.9881,-1.2186 9.6317,-3.0349 13.8437,-5.4376 -0.029,-0.021 -0.3437,-0.25 -0.3437,-0.25 0,0 -6.9112,0.5074 0.5313,-10.6562 7.4424,-11.1636 9.5937,-26.5625 9.5937,-26.5625 l 6.2187,-8.2813 z"
           style="opacity:0.62389377;color:#000000;fill:#b59b4f;fill-opacity:1;fill-rule:nonzero;stroke:none;stroke-width:12;marker:none;visibility:visible;display:inline;overflow:visible;enable-background:accumulate"
           inkscape:connector-curvature="0" />
        <path
           style="color:#000000;fill:#eec85d;fill-opacity:1;fill-rule:nonzero;stroke:#6a5b1d;stroke-width:3.04797387;stroke-miterlimit:4;stroke-opacity:1;stroke-dasharray:none;marker:none;visibility:visible;display:inline;overflow:visible;enable-background:accumulate"
           d="m 968.90099,-378.9474 c 1.56605,14.05818 -2.70604,21.38696 -12.09212,21.38696 -9.38609,0 -15.25141,-8.60054 -16.55115,-20.62315 -1.29974,-12.02263 5.25551,-21.7689 14.6416,-21.7689 9.38608,0 12.67485,9.09449 14.00167,21.00509 z"
           id="path20956"
           inkscape:connector-curvature="0"
           sodipodi:nodetypes="sssss" />
        <path
           sodipodi:nodetypes="sssss"
           inkscape:connector-curvature="0"
           id="path20958"
           d="m 971.95627,-378.9474 c 1.56605,14.05818 -5.76132,21.38696 -15.1474,21.38696 -9.38609,0 -15.25141,-8.60054 -16.55115,-20.62315 -1.29974,-12.02263 5.25551,-21.7689 14.6416,-21.7689 9.38608,0 15.73013,9.09449 17.05695,21.00509 z"
           style="color:#000000;fill:#b59b4f;fill-opacity:1;fill-rule:nonzero;stroke:none;stroke-width:12;marker:none;visibility:visible;display:inline;overflow:visible;enable-background:accumulate" />
        <path
           id="path21102"
           transform="matrix(0.29454852,0,0,0.29454852,-94.749746,63.532608)"
           d="m 3563.5938,-1573.5312 c -29.7991,0 -51.2085,28.9302 -50.25,66.0624 0.7177,-35.0607 21.6012,-61.8124 50.25,-61.8124 31.8659,0 53.4016,30.8756 57.9062,71.3124 0.3948,3.5438 0.6161,6.9278 0.6875,10.2188 0.092,-4.5694 -0.1203,-9.3768 -0.6875,-14.4688 -4.5046,-40.4368 -26.0403,-71.3124 -57.9062,-71.3124 z"
           style="color:#000000;fill:#f6d374;fill-opacity:1;fill-rule:nonzero;stroke:none;stroke-width:12;marker:none;visibility:visible;display:inline;overflow:visible;enable-background:accumulate"
           inkscape:connector-curvature="0" />
        <g
           id="g20970"
           transform="translate(-0.421959,1.40653)">
          <path
             style="color:#000000;fill:#6a5b1d;fill-opacity:1;fill-rule:nonzero;stroke:#6a5b1d;stroke-width:12;stroke-opacity:1;marker:none;visibility:visible;display:inline;overflow:visible;enable-background:accumulate"
             d="m 3493.6876,-1577.4723 c 17.0112,-5.8476 79.7402,-3.1896 79.7402,-3.1896 0,0 14.3533,-4.2529 34.0226,19.1376 19.6692,23.3905 19.6692,51.0338 19.6692,51.0338 0,0 -74.9558,12.7585 -82.3983,11.6953 -7.4424,-1.0633 -45.1861,-10.6321 -51.0337,-21.2641 -5.8477,-10.6321 3.7212,-23.9221 2.658,-29.2381 -1.0632,-5.316 -2.658,-28.1749 -2.658,-28.1749 z"
             id="path20968"
             inkscape:connector-curvature="0"
             transform="matrix(0.26458334,0,0,0.26458334,-6.3049604e-6,18.562493)" />
          <path
             transform="matrix(0.26458334,0,0,0.26458334,-6.3049604e-6,18.562493)"
             inkscape:connector-curvature="0"
             id="path20966"
             d="m 3493.6876,-1577.4723 c 17.0112,-5.8476 79.7402,-3.1896 79.7402,-3.1896 0,0 14.3533,-4.2529 34.0226,19.1376 19.6692,23.3905 19.6692,51.0338 19.6692,51.0338 0,0 -74.9558,12.7585 -82.3983,11.6953 -7.4424,-1.0633 -45.1861,-10.6321 -51.0337,-21.2641 -5.8477,-10.6321 3.7212,-23.9221 2.658,-29.2381 -1.0632,-5.316 -2.658,-28.1749 -2.658,-28.1749 z"
             style="color:#000000;fill:#aa8c3a;fill-opacity:1;fill-rule:nonzero;stroke:none;stroke-width:12;marker:none;visibility:visible;display:inline;overflow:visible;enable-background:accumulate" />
          <path
             inkscape:connector-curvature="0"
             style="opacity:0.38938054;color:#000000;fill:#eec85d;fill-opacity:1;fill-rule:nonzero;stroke:none;stroke-width:12;marker:none;visibility:visible;display:inline;overflow:visible;enable-background:accumulate"
             d="m 3538.3438,-1575.9375 c -17.8087,0.066 -37.7444,0.8574 -46.25,3.7813 0,0 1.593,22.8714 2.6562,28.1874 0.3987,1.9936 -0.6883,5.1058 -1.9062,8.7813 7.9799,5.1981 14.5931,7.9382 15.7187,6.625 3.1896,-3.7212 20.2187,-31.375 20.2187,-31.375 10.6321,-6.3792 55.2774,-4.7827 61.125,-2.6563 5.6066,2.0388 22.4362,16.7944 30.375,31.5938 -2.9033,-7.9798 -7.4194,-16.8729 -14.4374,-25.2188 -19.6694,-23.3905 -34,-19.125 -34,-19.125 0,0 -15.6914,-0.6602 -33.5,-0.5937 z"
             transform="matrix(0.26458334,0,0,0.26458334,0.4219527,17.155963)"
             id="path20976" />
        </g>
        <path
           style="color:#000000;fill:#ddb035;fill-opacity:1;fill-rule:nonzero;stroke:#6a5b1d;stroke-width:12;stroke-linejoin:round;stroke-opacity:1;marker:none;visibility:visible;display:inline;overflow:visible;enable-background:accumulate"
           d="m 3507.25,-1580.7812 -79.6875,5.125 c -1.7003,1.1287 -3.1714,1.9062 -4.0313,1.9062 -3.1896,0 -2.6874,11.1562 -2.6874,11.1562 l -11.1542,19.1306 c 0,0 -14.9737,0.7457 -18.4115,-1.56 3.2999,33.4582 41.0318,135.2458 46.1735,133.9604 5.2446,-1.3114 122.6452,-10.8653 123.4546,-10.7497 13.4864,-2.1546 27.7659,-3.0892 28.5626,-4.2187 29.5948,-7.2297 47.1851,-31.905 42.7187,-73.2188 -1.2064,-11.1594 -3.8825,-21.7516 -7.7187,-31.4375 l -20.75,0 c 0,0 -2.6563,-8.4986 -2.6563,-10.625 0,-2.1264 -30.8125,-11.7187 -30.8125,-11.7187 l -22.875,-1.0626 -2.125,-20.7187 -26.5625,-3.1875 c 0,0 -4.9413,-1.4759 -11.4375,-2.7812 z"
           transform="matrix(0.26458334,0,0,0.26458334,-6.3049604e-6,18.562493)"
           id="path20948"
           inkscape:connector-curvature="0"
           sodipodi:nodetypes="ccsccccccsccsccccc" />
        <path
           style="color:#000000;fill:#eec85d;fill-opacity:1;fill-rule:nonzero;stroke:none;stroke-width:12;marker:none;visibility:visible;display:inline;overflow:visible;enable-background:accumulate"
           d="m 3506.4375,-1580.9375 -77.8125,4.5313 c -2.1412,1.5171 -4.0567,2.6562 -5.0938,2.6562 -3.1896,0 -2.6874,11.1562 -2.6874,11.1562 l -14.3438,10.625 c 0,0 -6.9997,-2.9755 -10.4375,-5.2812 3.2999,33.4582 36.2474,147.4726 41.3891,146.1872 5.2446,-1.3114 96.0515,-10.8653 96.8609,-10.7497 13.4862,-2.1546 52.8596,-2.3392 53.6563,-3.4687 29.5948,-7.2297 48.6851,-32.655 44.2187,-73.9688 -1.205,-11.1467 -3.9068,-21.738 -7.7813,-31.4375 l -20.6874,0 c 0,0 -2.6563,-8.4986 -2.6563,-10.625 0,-2.1264 -26.0313,-16.5 -26.0313,-16.5 L 3556.9375,-1561 3545.25,-1574.8125 3518.6875,-1578 c 0,0 -5.3616,-1.5954 -12.25,-2.9375 z"
           transform="matrix(0.26458334,0,0,0.26458334,-6.3049604e-6,18.562493)"
           id="path20943"
           inkscape:connector-curvature="0"
           sodipodi:nodetypes="ccsccccccsccsccccc" />
        <path
           inkscape:connector-curvature="0"
           style="opacity:0.3982301;color:#000000;fill:#fff7e1;fill-opacity:1;fill-rule:nonzero;stroke:none;stroke-width:12;marker:none;visibility:visible;display:inline;overflow:visible;enable-background:accumulate"
           d="m 3506.4375,-1580.9375 -77.8125,4.5625 c -2.1353,1.5118 -4.059,2.625 -5.0938,2.625 -3.1896,0 -2.6874,11.1562 -2.6874,11.1562 L 3416,-1559 c 5.3552,-0.7961 14.9688,-4.125 14.9688,-4.125 16.4797,-3.7212 74.935,-10.0946 78.6562,-9.0312 3.7212,1.0632 18.092,3.7187 20.75,3.7187 2.658,0 12.2172,-0.5323 14.3438,1.0625 2.1265,1.5948 9.0312,10.0938 9.0312,10.0938 0,0 20.7474,6.9058 24.4688,7.4374 3.7212,0.5318 20.1878,5.8726 19.6562,9.5938 -0.5316,3.7212 0.5312,13.8125 0.5312,13.8125 0,0 2.6527,2.1245 7.9688,2.6563 5.316,0.5316 14.9062,2.6562 14.9062,2.6562 0,0 7.3497,14.7935 11.5313,34.1562 0.027,-3.9276 -0.1634,-8.0116 -0.625,-12.2812 -1.205,-11.1467 -3.9067,-21.738 -7.7813,-31.4375 l -20.6874,0 c 0,0 -2.6563,-8.4986 -2.6563,-10.625 0,-2.1264 -26.0313,-16.5 -26.0313,-16.5 L 3556.9375,-1561 3545.25,-1574.8125 3518.6875,-1578 c 0,0 -5.3616,-1.5954 -12.25,-2.9375 z"
           transform="matrix(0.26458334,0,0,0.26458334,-6.3049604e-6,18.562493)"
           id="path20984" />
        <path
           inkscape:connector-curvature="0"
           style="color:#000000;fill:#eec85d;fill-opacity:1;fill-rule:nonzero;stroke:#6a5b1d;stroke-width:12;stroke-linejoin:round;stroke-miterlimit:4;stroke-opacity:1;stroke-dasharray:none;marker:none;visibility:visible;display:inline;overflow:visible;enable-background:accumulate"
           d="m 3425.1875,-1574.2812 c -0.6764,0.3252 -1.2325,0.5312 -1.6563,0.5312 -3.1896,0 -2.6874,11.1562 -2.6874,11.1562 l -11.1563,20.1876 c 0,0 -14.3429,-4.2486 -15.4063,-6.375 -1.0632,-2.1265 -19.6874,0.5624 -19.6874,0.5624 0,0 -2.4655,-1.3461 -5.875,-3.875 -1.83,2.5892 -3.5159,5.3288 -5.0313,8.25 -0.2578,4.3838 -0.25,11.5626 -0.25,11.5626 0,0 -3.3241,1.9462 -6.375,6.0312 -2.7848,10.9552 -3.6728,23.159 -2.2813,36.0312 3.5974,33.2752 16.0673,59.8765 36,72.75 10.5253,2.9763 19.0282,6.1776 21.0313,5.8438 3.1896,-0.5316 15.4375,-3.1875 15.4375,-3.1875 l 12.7188,2.1875 c 22.8089,-9.2723 32.4734,-36.5093 27.5624,-80.5938 -4.5707,-41.0309 -15.0381,-73.568 -42.3437,-81.0624 z"
           transform="matrix(0.26458334,0,0,0.26458334,-6.3049604e-6,18.562493)"
           id="path20950" />
        <path
           style="opacity:0.71238942;color:#000000;fill:#b59b4f;fill-opacity:1;fill-rule:nonzero;stroke:none;stroke-width:12;marker:none;visibility:visible;display:inline;overflow:visible;enable-background:accumulate"
           d="m 3632.75,-1491.5312 c -2.9959,9.5764 -9.3352,21.4046 -16.25,24.0937 -9.5688,3.7212 -156.8315,4.2479 -175.4375,7.4375 0,0 -15.6216,5.2169 -32.75,11.5 3.0235,22.1561 27.1921,37.9239 29.1391,37.4372 5.2446,-1.3114 96.0515,-10.8653 96.8609,-10.7497 13.4862,-2.1546 52.8596,-2.3392 53.6563,-3.4687 27.7052,-6.7681 46.1963,-29.4821 44.7812,-66.25 z"
           transform="matrix(0.26458334,0,0,0.26458334,-6.3049604e-6,18.562493)"
           id="path20979"
           inkscape:connector-curvature="0"
           sodipodi:nodetypes="cscccccc" />
        <path
           inkscape:connector-curvature="0"
           style="color:#000000;fill:#d5b352;fill-opacity:1;fill-rule:nonzero;stroke:none;stroke-width:12;marker:none;visibility:visible;display:inline;overflow:visible;enable-background:accumulate"
           d="m 3425.3438,-1574.375 c -0.7448,0.3725 -1.3564,0.625 -1.8126,0.625 -3.1896,0 -2.6874,11.1562 -2.6874,11.1562 l -14.3438,10.625 c 0,0 -11.1554,-4.7798 -12.2188,-6.9062 -1.0632,-2.1264 -19.6874,10.6562 -19.6874,10.6562 0,0 -2.4655,-1.3461 -5.875,-3.875 -1.83,2.5892 -3.5159,5.3288 -5.0313,8.25 -0.2578,4.3838 -0.25,11.5626 -0.25,11.5626 0,0 -3.3241,1.9462 -6.375,6.0312 -2.7848,10.9552 -3.6728,23.159 -2.2813,36.0312 3.5974,33.2752 16.0673,59.8765 36,72.75 10.5253,2.9763 19.0282,6.1776 21.0313,5.8438 3.1896,-0.5316 15.4375,-3.1875 15.4375,-3.1875 l 13.5938,2.3437 c 26.1443,-9.1295 43.6556,-36.4318 38.7187,-80.75 -4.5884,-41.1896 -24.4193,-73.8275 -54.2187,-81.1562 z"
           transform="matrix(0.26458334,0,0,0.26458334,-6.3049604e-6,18.562493)"
           id="path20940" />
        <path
           style="opacity:0.51327431;color:#000000;fill:#a08943;fill-opacity:1;fill-rule:nonzero;stroke:none;stroke-width:12;marker:none;visibility:visible;display:inline;overflow:visible;enable-background:accumulate"
           d="m 3476.4375,-1511.3125 c -0.098,5.3783 -0.1835,11.5184 -0.2813,19.4375 -0.5316,43.0597 -27.6562,64.8438 -27.6562,64.8438 0,0 -18.0604,-4.7824 -21.25,-3.1876 -3.1896,1.5949 -21.2851,5.8466 -21.2851,5.8466 0,0 -5.2974,-1.0544 -22.3087,-17.534 -14.432,-13.9811 -26.9589,-45.9518 -29.125,-69.2813 -0.5916,6.7144 -0.5327,13.7281 0.25,20.9687 3.5975,33.2753 16.0673,59.8765 36,72.75 10.5254,2.9764 19.0282,6.1776 21.0313,5.8438 3.1896,-0.5316 15.4375,-3.1875 15.4375,-3.1875 l 13.5938,2.3437 c 26.1443,-9.1295 43.6556,-36.4317 38.7187,-80.75 -0.6959,-6.2467 -1.7464,-12.2988 -3.125,-18.0937 z"
           transform="matrix(0.26458334,0,0,0.26458334,-6.3049604e-6,18.562493)"
           id="path21027"
           inkscape:connector-curvature="0"
           sodipodi:nodetypes="cscccsccccccsc" />
        <path
           id="path21077"
           transform="matrix(0.29454852,0,0,0.29454852,-94.749746,63.532608)"
           d="m 3370,-1553.1562 c -1.5265,0.1609 -5.3254,2.2439 -8.9375,4.4687 9.4875,13.5033 33.6397,39.8785 33.3125,41.1875 -0.3759,1.5036 -3.375,7.5 -3.375,7.5 0,0 -12.7822,6.0276 -12.4062,7.5312 0.3759,1.5037 5.625,12.7813 5.625,12.7813 l 0,12.0313 c 0,0 -4.5028,13.5357 -3.375,11.6562 1.1277,-1.8795 9.0312,-19.5625 9.0312,-19.5625 l 0,-16.5313 12.75,-11.6562 c 0,0 -1.1223,-7.5213 -2.25,-11.6562 -0.9246,-3.3902 -13.1785,-21.9136 -18.4062,-31.5938 l -0.3438,0.25 c 0,0 -10.0135,-4.3087 -10.9688,-6.2188 -0.09,-0.179 -0.3162,-0.2233 -0.6562,-0.1874 z"
           style="opacity:0.33628319;color:#000000;fill:#6a5b1d;fill-opacity:1;fill-rule:nonzero;stroke:none;stroke-width:12;marker:none;visibility:visible;display:inline;overflow:visible;enable-background:accumulate"
           inkscape:connector-curvature="0" />
      </g>
      <path
         transform="matrix(0.26458334,0,0,0.26458334,-6.3049604e-6,18.562493)"
         inkscape:connector-curvature="0"
         id="path21073"
         d="m 3390.9875,-1560.1379 c -10.1492,10.1493 -15.0359,13.5324 -12.4046,14.2842 2.6313,0.7518 22.178,39.0935 22.178,39.0935 l -4.8867,9.0216 -9.0215,4.1349 0.3759,6.3902 2.6312,11.277 c 0,0 -4.8866,11.277 -3.383,8.6457 1.5035,-2.6313 6.0143,-7.8939 6.0143,-7.8939 l -2.6313,-16.1636 c 0,0 8.2698,-1.5036 9.7734,-4.1349 1.5036,-2.6313 8.2698,-12.0288 6.7662,-12.7806 -1.5036,-0.7518 -21.8021,-39.4694 -21.8021,-39.4694 l 10.5251,-10.1493 z"
         style="color:#000000;fill:#6a5b1d;fill-opacity:1;fill-rule:nonzero;stroke:none;stroke-width:12;marker:none;visibility:visible;display:inline;overflow:visible;enable-background:accumulate" />
      <path
         transform="matrix(0.26458334,0,0,0.26458334,-6.3049604e-6,18.562493)"
         inkscape:connector-curvature="0"
         id="path21107"
         d="m 3563.3274,-1532.2862 c -14.3532,1.0632 -32.9593,7.4425 -39.8701,7.4425 -6.9109,0 -20.2009,1.5948 -25.5169,2.1264 -5.316,0.5316 -5.316,4.2528 -7.974,5.8476 -2.6581,1.5948 -21.7957,5.316 -17.0113,5.316 4.7844,0 16.4796,0 18.0745,-2.1264 1.5948,-2.1264 7.974,-7.4424 7.974,-7.4424 0,0 26.5801,1.0632 33.4909,-1.0632 6.9108,-2.1264 32.4277,-6.3793 32.4277,-6.3793 0,0 14.3533,-1.5948 12.2269,-1.0632 -2.1264,0.5316 -13.8217,-2.658 -13.8217,-2.658 z"
         style="color:#000000;fill:#6a5b1d;fill-opacity:1;fill-rule:nonzero;stroke:none;stroke-width:10.34799957;marker:none;visibility:visible;display:inline;overflow:visible;enable-background:accumulate" />
      <path
         transform="matrix(0.26458334,0,0,0.26458334,-6.3049604e-6,18.562493)"
         inkscape:connector-curvature="0"
         id="path21109"
         d="m 3486.2451,-1572.1563 c -9.0372,2.1264 -11.6952,5.8476 -15.948,5.8476 -4.2528,0 -22.8589,5.316 -29.2381,6.3792 -6.3792,1.0632 -3.1896,0.5316 -0.5316,0.5316 2.658,0 23.3905,-3.7212 28.1749,-4.7844 4.7844,-1.0632 11.1636,0 14.8848,-2.1264 3.7212,-2.1264 10.6321,-4.2528 10.6321,-4.2528 z"
         style="color:#000000;fill:#6a5b1d;fill-opacity:1;fill-rule:nonzero;stroke:none;stroke-width:10.34799957;marker:none;visibility:visible;display:inline;overflow:visible;enable-background:accumulate" />
    </g>
  </g>
</svg>
