<?xml version="1.0" encoding="UTF-8" standalone="no"?>
<!-- Created with Inkscape (http://www.inkscape.org/) -->

<svg
   xmlns:dc="http://purl.org/dc/elements/1.1/"
   xmlns:cc="http://creativecommons.org/ns#"
   xmlns:rdf="http://www.w3.org/1999/02/22-rdf-syntax-ns#"
   xmlns:svg="http://www.w3.org/2000/svg"
   xmlns="http://www.w3.org/2000/svg"
   xmlns:sodipodi="http://sodipodi.sourceforge.net/DTD/sodipodi-0.dtd"
   xmlns:inkscape="http://www.inkscape.org/namespaces/inkscape"
   width="672.5752"
   height="243.96922"
   viewBox="0 0 177.95218 64.550191"
   version="1.1"
   id="svg23489"
   inkscape:version="0.48.5 r10040"
   sodipodi:docname="background_element_pyramid.svg">
  <defs
     id="defs23483" />
  <sodipodi:namedview
     id="base"
     pagecolor="#7d848b"
     bordercolor="#666666"
     borderopacity="1.0"
     inkscape:pageopacity="0"
     inkscape:pageshadow="2"
     inkscape:zoom="0.30135381"
     inkscape:cx="462.3432"
     inkscape:cy="796.57567"
     inkscape:document-units="px"
     inkscape:current-layer="layer1"
     showgrid="false"
     inkscape:pagecheckerboard="false"
     showborder="true"
     units="px"
     inkscape:window-width="1920"
     inkscape:window-height="1017"
     inkscape:window-x="-8"
     inkscape:window-y="-8"
     inkscape:window-maximized="1"
     inkscape:showpageshadow="false"
     guidetolerance="28"
     fit-margin-top="0"
     fit-margin-left="0"
     fit-margin-right="0"
     fit-margin-bottom="0">
    <inkscape:grid
       type="xygrid"
       id="grid24034"
       spacingx="1px"
       spacingy="1px"
       empspacing="8"
       visible="true"
       enabled="true"
       snapvisiblegridlinesonly="true"
       originx="278.09064px"
       originy="-229.92289px" />
  </sodipodi:namedview>
  <metadata
     id="metadata23486">
    <rdf:RDF>
      <cc:Work
         rdf:about="">
        <dc:format>image/svg+xml</dc:format>
        <dc:type
           rdf:resource="http://purl.org/dc/dcmitype/StillImage" />
        <dc:title></dc:title>
        <cc:license
           rdf:resource="" />
        <dc:creator>
          <cc:Agent>
            <dc:title>Robert Brooks</dc:title>
          </cc:Agent>
        </dc:creator>
      </cc:Work>
    </rdf:RDF>
  </metadata>
  <g
     inkscape:label="Layer 1"
     inkscape:groupmode="layer"
     id="layer1"
     transform="translate(73.578153,-171.61604)">
    <path
       style="color:#000000;fill:#a9c3e0;fill-opacity:1;fill-rule:nonzero;stroke:none;stroke-width:5;marker:none;visibility:visible;display:inline;overflow:visible;enable-background:accumulate"
       d="m -19.365017,171.61604 0,3.41341 -1.5366,0 0,-0.46732 c 0,-0.0119 -0.005,-0.0238 -0.0151,-0.0238 l -8.38405,0 c -0.0107,0 -0.0224,0.0119 -0.0224,0.0238 l 0,0.46732 -5.97474,0 0,1.29876 -0.68623,0 c -0.0417,0 -0.0747,0.0356 -0.0747,0.0796 l 0,2.43922 c 0,0.0439 0.033,0.0796 0.0747,0.0796 l 2.67783,0 0,0.32469 c 0,0.18028 0.1361,0.32481 0.30582,0.32481 l 0.15663,0 0,0.51483 c 0,0.16697 0.12611,0.30094 0.28346,0.30094 l 0.47738,0 -0.38786,17.2333 -1.59628,0 c -0.59432,0 -1.07412,0.50937 -1.07412,1.14046 l 0,0.97407 -0.72352,0 -1.53658,0 c -0.0217,0 -0.0372,0.0119 -0.0372,0.0119 l 0,2.5898 c 0,0 0.0157,0.0154 0.0372,0.0154 l 1.49183,0 0,2.92233 -0.455,0 0,0.98203 -0.7683,0 0,-2.11452 -1.68577,0 0,2.11452 -1.06667,0 0,-2.93029 -1.53654,0 0,2.93029 -1.22329,0 0,0.32469 -0.91748,0 0,-0.81576 -1.84243,0 0,0.81576 -0.0223,0 -0.29837,-3.74605 -5.78081,0 -0.38787,4.87867 -1.45454,0 -0.0374,3.41341 -2.73749,0 0,7.15139 -2.4466,0 0,-5.85263 -5.81811,0 0,2.92234 -2.75987,0 0,3.90448 -0.30583,0 0,-3.24703 c 0,-5.3e-4 5.3e-4,-0.0119 0,-0.0119 l -5.81812,0 c -2.7e-4,0 0,0.0119 0,0.0119 l 0,7.80101 -0.30582,0 0,11.38057 146.71339,0.63359 0,0.3406 31.238797,0 0,-9.75712 -4.594837,0 0,-2.59764 -1.2233,0 0,2.59764 -2.75984,0 0,-1.29888 -3.6699,0 0,1.29888 -3.98317,0 0,-16.58404 0.30583,0 0,-4.22905 -3.37154,0 0,-1.62358 -16.84266,0 0,1.62358 -3.06572,0 0,4.22905 2.14078,0 0,6.51804 -0.30582,0 0,-3.90448 -4.43817,0 0,-3.58763 0.15662,0 0,-5.52806 -4.90808,0 0,-0.96611 c 0,-0.0119 -10e-4,-0.0119 -0.008,-0.0119 l -0.58928,0 c -0.007,0 -0.0151,0.001 -0.0151,0.0119 l 0,-2.93825 c 0,-1.08095 -0.81684,-1.94826 -1.83492,-1.94826 l -0.61166,0 0,-1.90076 c 0,-0.0273 -0.0196,-0.0475 -0.0448,-0.0475 l -0.21633,0 c -0.0252,0 -0.0448,0.0214 -0.0448,0.0475 l 0,1.90076 -1.22331,0 0,-0.6495 -0.30579,0 0,-5.99514 c 0,-0.10095 -0.084,-0.1823 -0.17905,-0.1823 l -1.18599,0 c -0.0951,0 -0.17157,0.082 -0.17157,0.1823 l 0,3.38954 -1.83493,0 0,-4.18951 c 0,-0.38169 -0.28946,-0.68905 -0.64896,-0.68905 l -1.15618,0 c -0.35949,0 -0.64893,0.30736 -0.64893,0.68905 l 0,1.27513 -1.22328,0 0,-0.46732 c 0,-1.36693 -1.03977,-2.47093 -2.32725,-2.47093 l -1.65592,0 0,-0.32481 c 0,-1.44258 -1.09529,-2.59764 -2.45404,-2.59764 l -4.58738,0 c -1.35875,0 -2.45404,1.15506 -2.45404,2.59764 l 0,3.34215 c -0.93084,0.0416 -2.08128,0.082 -2.89414,0.0487 l -0.78321,-7.12004 -4.13979,0 0,-0.97395 1.84238,0 0,-2.6056 -4.57245,0 c 0.4117,-0.17482 0.79526,-0.46673 1.2084,-0.80793 1.37827,-1.13808 1.07413,-1.78984 1.07413,-1.78984 l -6.28061,0.80781 c 0.98521,0.98785 1.74867,1.54068 2.39438,1.78996 l -3.62513,0 0,1.29876 0,1.30684 0,2.59764 -6.12393,0 0,-2.59764 0,-1.30684 0,-1.29876 -3.4237402,0 c 0.70018,-0.71126 0.97716,-1.62369 0.97716,-1.62369 0,0 -3.67495,0.48893 -5.20648,-0.64939 0,0 -0.0715,1.35553 0.61167,2.27308 l -2.75992004,0 0,2.6056 1.84243004,0 0,0.97395 -4.13982,0 -1.31281,11.87187 -1.11885,0 c -0.0828,-2.47651 -0.17157,-5.04493 -0.17157,-5.04493 l -0.91748,0 c 0,0 -0.0914,3.09382 -0.0672,6.50212 l -0.76082,0 -0.38042,-17.23342 0.1641,0 c 0.15733,0 0.28346,-0.13396 0.28346,-0.30094 l 0,-0.51483 0.76081,0 c 0.16978,0 0.30584,-0.14441 0.30584,-0.32469 l 0,-0.64938 1.22328,0 0,-4.06279 -6.4297598,0 0,0.49096 -3.05823,0 0,-3.41329 c 0,0 -0.007,-0.0119 -0.008,-0.0119 l -6.27311,0 z m -8.57799,7.95932 6.42976,0 0,0.51482 c 0,0.16698 0.12615,0.30094 0.28343,0.30094 l 0.47739,0 -0.38787,17.23331 -1.59624,0 c -0.59435,0 -1.07412,0.50948 -1.07412,1.14057 l 0,0.97396 -1.52911,0 0,-0.97396 c 0,-0.63109 -0.47977,-1.14057 -1.07412,-1.14057 l -1.59627,0 -0.38041,-17.23331 0.1641,0 c 0.15726,0 0.28346,-0.13396 0.28346,-0.30094 l 0,-0.51482 z m 11.33039,0 5.82558,0 0,0.51482 c 0,0.16698 0.12617,0.30094 0.28345,0.30094 l 0.47738,0 -0.38789,17.23331 -1.59624,0 c -0.59435,0 -1.07412,0.50948 -1.07412,1.14057 l 0,0.97396 -0.92493,0 0,-0.97396 c 0,-0.63109 -0.47978,-1.14057 -1.07411,-1.14057 l -1.59626,0 -0.38041,-17.23331 0.16411,0 c 0.15723,0 0.28344,-0.13396 0.28344,-0.30094 l 0,-0.51482 z m 27.10645,10.08192 6.12392,0 0,11.30942 c -0.82009,0 -1.66026,-0.0119 -2.28996,-0.0154 l 0,-1.1642 c 0,-0.0226 -0.0231,-0.0475 -0.0448,-0.0475 l -1.52914,0 -2.26011,0 0,-10.08181 z m 46.70897,13.33678 0,0.32469 -0.0298,0 c 0.0166,-0.1057 0.0298,-0.21377 0.0298,-0.32469 z m 13.17283,6.82681 2.45403,0 0,6.51804 -2.45403,0 0,-6.51804 z m 5.5123,0 2.75984,0 0,16.58405 -0.46246,0 0,-0.47516 0,-3.57979 -2.29738,0 0,-12.5291 z m 6.43718,0 3.36407,0 0,16.58405 -3.36407,0 0,-16.58405 z"
       id="rect60148"
       inkscape:connector-curvature="0" />
  </g>
</svg>
