<?xml version="1.0" encoding="UTF-8" standalone="no"?>
<!-- Created with Inkscape (http://www.inkscape.org/) -->

<svg
   xmlns:dc="http://purl.org/dc/elements/1.1/"
   xmlns:cc="http://creativecommons.org/ns#"
   xmlns:rdf="http://www.w3.org/1999/02/22-rdf-syntax-ns#"
   xmlns:svg="http://www.w3.org/2000/svg"
   xmlns="http://www.w3.org/2000/svg"
   xmlns:sodipodi="http://sodipodi.sourceforge.net/DTD/sodipodi-0.dtd"
   xmlns:inkscape="http://www.inkscape.org/namespaces/inkscape"
   width="642.27051"
   height="213.5273"
   viewBox="0 0 169.93407 56.495765"
   version="1.1"
   id="svg23489"
   inkscape:version="0.48.5 r10040"
   sodipodi:docname="background_element_city_01.svg">
  <defs
     id="defs23483" />
  <sodipodi:namedview
     id="base"
     pagecolor="#7d848b"
     bordercolor="#666666"
     borderopacity="1.0"
     inkscape:pageopacity="0"
     inkscape:pageshadow="2"
     inkscape:zoom="0.30135381"
     inkscape:cx="-269.37324"
     inkscape:cy="796.74096"
     inkscape:document-units="px"
     inkscape:current-layer="layer1"
     showgrid="false"
     inkscape:pagecheckerboard="false"
     showborder="true"
     units="px"
     inkscape:window-width="1920"
     inkscape:window-height="1017"
     inkscape:window-x="-8"
     inkscape:window-y="-8"
     inkscape:window-maximized="1"
     inkscape:showpageshadow="false"
     guidetolerance="28"
     fit-margin-top="0"
     fit-margin-left="0"
     fit-margin-right="0"
     fit-margin-bottom="0">
    <inkscape:grid
       type="xygrid"
       id="grid24034"
       spacingx="1px"
       spacingy="1px"
       empspacing="8"
       visible="true"
       enabled="true"
       snapvisiblegridlinesonly="true"
       originx="-453.6258px"
       originy="-229.7576px" />
  </sodipodi:namedview>
  <metadata
     id="metadata23486">
    <rdf:RDF>
      <cc:Work
         rdf:about="">
        <dc:format>image/svg+xml</dc:format>
        <dc:type
           rdf:resource="http://purl.org/dc/dcmitype/StillImage" />
        <dc:title></dc:title>
        <cc:license
           rdf:resource="" />
        <dc:creator>
          <cc:Agent>
            <dc:title>Robert Brooks</dc:title>
          </cc:Agent>
        </dc:creator>
      </cc:Work>
    </rdf:RDF>
  </metadata>
  <g
     inkscape:label="Layer 1"
     inkscape:groupmode="layer"
     id="layer1"
     transform="translate(-120.02182,-179.7142)">
    <path
       style="color:#000000;fill:#a9c3e0;fill-opacity:1;fill-rule:nonzero;stroke:none;stroke-width:5;marker:none;visibility:visible;display:inline;overflow:visible;enable-background:accumulate"
       d="m 214.68094,179.71455 0,0.0119 0,2.27806 -3.98669,0 0,-1.70848 -1.99332,0 0,1.70848 -3.71173,0 0,2.85749 1.49254,0 c 0.2512,1.25162 0.5008,2.27806 0.5008,2.27806 l 0.94266,0 c -0.25289,1.07372 -1.26338,5.36726 -2.50394,10.54604 l -14.50321,0 -0.51059,-4.3205 0.33382,0 c 0.1647,0 0.3044,-0.12993 0.3044,-0.29453 l 0,-0.19643 c 0,-0.1646 -0.1397,-0.30438 -0.3044,-0.30438 l -0.46149,0 0,-0.34369 0.95248,0 c 0.11401,0 0.20621,-0.10926 0.20621,-0.24548 l 0,-2.02284 0.20619,0 c 0.58608,0 1.06048,-0.0546 1.06048,-0.12767 l 0,-1.41396 c 0,-0.0736 -0.4744,-0.13741 -1.06048,-0.13741 l -34.17144,0 c -0.58608,0 -1.0605,0.0641 -1.0605,0.13741 l 0,1.41396 c 0,0.0677 0.40553,0.11888 0.92305,0.12767 l 0,2.1112 c 0,0.1361 0.0923,0.24547 0.20622,0.24547 l 3.26983,0 0,0.25534 -0.46149,0 c -0.16468,0 -0.29459,0.13978 -0.29459,0.30438 l 0,0.19643 c 0,0.1646 0.12991,0.29453 0.29459,0.29453 l 0.16692,0 c -0.014,0.0855 -0.0493,0.32552 -0.0688,0.45164 l -3.18148,0 c -0.4735,0 -0.85429,0.0487 -0.85429,0.10807 l 0,1.13903 c 0,0.0594 0.38079,0.10808 0.85429,0.10808 l 2.9949,0 c -0.29049,2.16191 -0.69779,5.60441 -0.75607,8.18946 0.68865,0.68858 0.90815,1.81763 0.9721,2.56286 l -3.41712,0 0,0.43205 -2.42543,0 0,0.66767 -1.68889,0 0,2.34682 1.68889,0 0,0.17671 2.42543,0 0,2.00312 -2.81816,0 0,-0.1767 -0.28477,0 0,0.1767 -1.74786,0 0,2.84765 -2.53339,0 0,-1.31575 -0.85431,0 0,1.31575 -2.03261,0 0,0.39284 -2.6021,0 c -0.11604,0 -0.20619,0.0998 -0.20619,0.21604 l 0,3.21092 -2.57272,0 0,-4.28131 -1.42378,0 0,4.28131 -1.20782,0 c -0.43836,0 -0.78558,0.34702 -0.78558,0.78548 l 0,2.1308 c 0,0.43835 0.34722,0.7856 0.78558,0.7856 l 1.20782,0 0,0.56956 -0.2259,0 c -0.0305,0 -0.0589,0.0285 -0.0589,0.0594 l 0,0.51055 -4.26164,0 c -0.008,0 -0.0196,0.0119 -0.0196,0.0202 l 0,1.41397 -2.55304,0 -0.0101,0 0,1.70849 -1.70855,0 -2.84765,0 0,-0.28468 0,-1.99338 -1.71837,0 0,1.99338 -1.13903,0 0,0.28468 -4.62494,0 c -0.43842,0 -0.79536,0.30758 -0.79536,0.69724 l 0,9.13694 c 0,0.38964 0.35694,0 0.79536,0 l 169.13871,0 0,-6.41697 0,-5.1257 -7.98317,0 0,-1.70861 c 0,0 -0.008,-0.0119 -0.0101,-0.0119 l -2.56286,0 0,-0.28478 c 0,-1.10566 -0.88765,-1.99328 -1.99332,-1.99328 l -1.13906,0 0,-2.61201 c 0,-0.29251 -0.2377,-0.52041 -0.53025,-0.52041 l -1.46309,0 0,-2.00313 3.97682,0 c 0.006,0 0.01,0 0.01,-0.0119 l 0,-3.96706 c 0,0 -0.005,-0.019 -0.01,-0.019 l -7.97333,0 0,-2.27806 -4.55618,0 0,2.27806 -7.41362,0 0,-1.99328 c 0,-0.42231 -0.13142,-0.8173 -0.35348,-1.13914 l 1.24703,0 c 0.29258,0 0.53028,-0.23776 0.53028,-0.53027 l 0,-2.6512 c 0,-0.29251 -0.2377,-0.53027 -0.53028,-0.53027 l -11.20389,0 c -0.29255,0 -0.53025,0.23776 -0.53025,0.53027 l 0,2.31737 -4.55618,0 0,-3.98667 -3.25019,0 -0.57936,-1.70848 1.55146,0 0,-2.28792 -2.31738,0 -0.7757,-2.27818 2.52354,0 0,-1.70849 -3.10293,0 -0.76589,-2.27817 1.58094,0 0,-2.85738 -2.54325,0 -1.0605,-3.13242 1.89513,0 0.28479,-3.99652 -0.28479,0 0,-1.13903 -0.85426,0 0,-0.85424 -1.13906,0 0,0.85424 -2.28793,0 0,-1.7086 -1.99332,0 0,1.7086 -4.55618,0 0,-1.7086 -2.00313,0 0,1.7086 -7.6984,0 0,-2.27806 z m 1.14885,7.42346 11.10572,0 c -0.0271,2.20728 -0.14732,12.3063 -0.11781,18.78444 l -0.72666,0 0,-17.93019 -1.4238,0 0,17.93019 -4.52673,0 -0.37314,-3.15202 0.34369,0 c 0.16471,0 0.29456,-0.1298 0.29456,-0.29464 l 0,-0.19631 c 0,-0.1646 -0.12985,-0.30439 -0.29456,-0.30439 l -0.46154,0 0,-0.34369 0.9525,0 c 0.11401,0 0.20622,-0.10926 0.20622,-0.24548 l 0,-2.02284 0.20619,0 c 0.58608,0 1.05071,-0.0546 1.05071,-0.12755 l 0,-1.41408 c 0,-0.0736 -0.46463,-0.13752 -1.05071,-0.13752 l -2.90653,0 0,-8.55264 -1.4238,0 0,8.55264 -0.73647,0 c -0.0458,-5.27866 -0.10496,-9.56401 -0.11779,-10.54592 z m -31.27471,5.07665 c 0.0135,0 0.0251,0.0119 0.0393,0.0119 l 3.43675,0 0,0.34369 -0.47132,0 c -0.16471,0 -0.29457,0.13978 -0.29457,0.30438 l 0,0.19643 c 0,0.1646 0.12986,0.29453 0.29457,0.29453 l 0.16695,0 c -0.10107,0.60354 -0.33547,2.32093 -0.55973,4.3205 l -0.32401,0 c -0.5861,0 -1.0605,0.0641 -1.0605,0.13752 l 0,1.41396 c 0,0.0677 0.40545,0.11888 0.92302,0.12767 l 0,2.1112 c 0,0.0867 0.0419,0.15249 0.0982,0.19631 -0.0338,0.53858 -0.0556,1.05899 -0.0688,1.55149 l -0.0981,0 c -0.4735,0 -0.85431,0.0487 -0.85431,0.10807 l 0,1.13915 c 0,0.0594 0.38081,0.11757 0.85431,0.11757 l 0.79534,0 c 0.15565,0.47326 0.22251,0.95317 0.25532,1.33546 l -3.67244,0 c -0.0768,-0.75282 -0.0251,-1.90919 0.76589,-2.70037 l -0.96229,-8.05195 1.0605,0 c 0.47347,0 0.85429,-0.0487 0.85429,-0.10807 l 0,-1.13903 c 0,-0.0594 -0.38082,-0.10808 -0.85429,-0.10808 l -1.2274,0 -0.0492,-0.45164 0.33385,0 c 0.16476,0 0.30443,-0.12992 0.30443,-0.29453 l 0,-0.19643 c 0,-0.1646 -0.13967,-0.30438 -0.30443,-0.30438 l -0.46151,0 0,-0.34369 1.04089,0 c 0.014,0 0.0259,-0.0119 0.0393,-0.0119 z m -6.54952,0.0119 3.22075,0 0,0.34369 -0.47133,0 c -0.16468,0 -0.29456,0.13978 -0.29456,0.30438 l 0,0.19643 c 0,0.1646 0.12988,0.29453 0.29456,0.29453 l 0.17674,0 c -0.014,0.0843 -0.0493,0.32564 -0.0688,0.45164 l -4.01614,0 -0.049,-0.45164 0.33388,0 c 0.16473,0 0.30438,-0.12993 0.30438,-0.29453 l 0,-0.19643 c 0,-0.1646 -0.13965,-0.30438 -0.30438,-0.30438 l -0.46151,0 0,-0.0879 1.12924,0 c 0.11401,0 0.20619,-0.10926 0.20619,-0.2456 z m -13.77659,0.0784 0,0.0119 c 0,0.1361 0.0922,0.24548 0.20622,0.24548 l 2.84763,0 0,0.019 -0.47133,0 c -0.1647,0 -0.29459,0.13989 -0.29459,0.30451 l 0,0.19629 c 0,0.16472 0.12989,0.29465 0.29459,0.29465 l 0.17674,0 c -0.014,0.0843 -0.0493,0.32564 -0.0688,0.45166 l -3.68228,0 -0.049,-0.45166 0.34367,0 c 0.1647,0 0.29459,-0.12993 0.29459,-0.29465 l 0,-0.19629 c 0,-0.16462 -0.12989,-0.30451 -0.29459,-0.30451 l -0.46151,0 0,-0.25521 1.1194,0 c 0.014,0 0.0257,-0.0202 0.0393,-0.0202 z m 7.00122,0.17683 3.1913,0 0,0.0879 -0.46151,0 c -0.16468,0 -0.30441,0.13978 -0.30441,0.30438 l 0,0.19642 c 0,0.16461 0.13973,0.29454 0.30441,0.29454 l 0.16692,0 c -0.014,0.0843 -0.0493,0.32562 -0.0688,0.45164 l -4.34996,0 -0.049,-0.45164 0.33385,0 c 0.16473,0 0.30443,-0.12993 0.30443,-0.29454 l 0,-0.19642 c 0,-0.1646 -0.1397,-0.30438 -0.30443,-0.30438 l -0.46154,0 0,-0.0119 1.54167,0 c 0.0612,0 0.11949,-0.0285 0.15711,-0.0784 z m -7.82606,2.6904 3.31899,0 c -0.29046,2.16191 -0.68797,5.60453 -0.74628,8.18947 0.68863,0.68857 0.89834,1.81763 0.96226,2.56285 l -3.32875,0 c -0.0768,-0.75282 -0.035,-1.90919 0.7561,-2.70037 z m 6.471,0 3.98666,0 c -0.18902,1.40707 -0.42159,3.34013 -0.57933,5.25336 l -0.39278,-3.94735 0.23567,0 c 0.11485,0 0.20622,-0.10926 0.20622,-0.24548 l 0,-0.15712 c 0,-0.13551 -0.0913,-0.25522 -0.20622,-0.25522 l -0.32406,0 0,-0.42231 c 0,-0.0356 -0.0188,-0.0594 -0.0492,-0.0594 l -1.46307,0 c -0.0305,0 -0.0589,0.0226 -0.0589,0.0594 l 0,0.42231 -0.32406,0 c -0.11483,0 -0.20619,0.11924 -0.20619,0.25522 l 0,0.15712 c 0,0.13562 0.0913,0.24548 0.20619,0.24548 l 0.11782,0 c -0.0818,0.57658 -0.29962,2.38838 -0.47133,4.36966 z m 7.13869,0 3.65282,0 c -0.20482,1.52452 -0.453,3.66577 -0.60884,5.72472 l -0.45167,-4.41871 0.24548,0 c 0.11483,0 0.20619,-0.10926 0.20619,-0.24548 l 0,-0.15712 c 0,-0.13551 -0.0915,-0.25522 -0.20619,-0.25522 l -0.32403,0 0,-0.42231 c 0,-0.0356 -0.0286,-0.0594 -0.0589,-0.0594 l -1.46307,0 c -0.0305,0 -0.049,0.0226 -0.049,0.0594 l 0,0.42231 -0.32403,0 c -0.11483,0 -0.20622,0.11924 -0.20622,0.25522 l 0,0.15712 c 0,0.13562 0.0913,0.24548 0.20622,0.24548 l 0.11782,0 c -0.053,0.37326 -0.16648,1.3389 -0.28477,2.45489 z m 38.96329,6.46115 0.70699,0 0,0.49096 c -0.0283,0.0463 -0.0492,0.0998 -0.0492,0.15712 l 0,0.19643 c 0,0.0594 0.0196,0.11044 0.0492,0.15712 l 0,3.16187 c -0.006,0.0439 -0.014,0.0831 -0.0198,0.12767 l -0.66771,0 c -0.004,-1.361 -0.0108,-2.82424 -0.0196,-4.29117 z m -22.37838,0.0784 0,0.0119 c 0,0.13597 0.0824,0.24548 0.19637,0.24548 l 2.84763,0 0,0.0202 -0.46148,0 c -0.16473,0 -0.29462,0.13978 -0.29462,0.30438 l 0,0.19631 c 0,0.16483 0.12989,0.29464 0.29462,0.29464 l 0.1669,0 c -0.014,0.0843 -0.0493,0.32553 -0.0688,0.45165 l -3.67239,0 -0.049,-0.45165 0.33388,0 c 0.16468,0 0.30438,-0.12981 0.30438,-0.29464 l 0,-0.19631 c 0,-0.1646 -0.1397,-0.30438 -0.30438,-0.30438 l -0.46154,0 0,-0.25534 1.12924,0 c 0.014,0 0.0259,-0.019 0.0393,-0.019 z m 6.9914,0.17672 3.20109,0 0,0.0879 -0.4713,0 c -0.16468,0 -0.29459,0.13979 -0.29459,0.30439 l 0,0.19642 c 0,0.16485 0.12991,0.29466 0.29459,0.29466 l 0.16692,0 c -0.014,0.0843 -0.0493,0.32551 -0.0688,0.45163 l -4.34999,0 -0.049,-0.45163 0.34367,0 c 0.16473,0 0.3044,-0.12981 0.3044,-0.29466 l 0,-0.19642 c 0,-0.1646 -0.13967,-0.30439 -0.3044,-0.30439 l -0.46151,0 0,-0.0119 1.54164,0 c 0.0599,0 0.10973,-0.0297 0.1473,-0.0784 z m -30.23386,2.02284 c -0.0106,0.27186 -0.0246,0.54143 -0.0296,0.79534 0.27831,0.32861 0.44026,0.77729 0.54004,1.21765 l -0.79537,0 c -0.0566,-0.55485 -0.0405,-1.32679 0.28477,-2.01299 z m 10.01575,0.0784 c 0.33864,0.63572 0.46355,1.38628 0.51059,1.93448 l -0.9721,0 c 0.0534,-0.46423 0.19561,-0.95198 0.52046,-1.33546 z m -6.70663,0.19642 c 0.26696,0.59012 0.37015,1.24556 0.41243,1.73806 l -0.89357,0 c 0.0524,-0.46435 0.19558,-0.95198 0.52043,-1.33546 z m 19.1085,0.4026 3.31896,0 c -0.0525,0.39072 -0.10996,0.87218 -0.16693,1.33546 l -2.99492,0 z m 6.46115,0 3.99648,0 c -0.0525,0.39072 -0.10999,0.87218 -0.16693,1.33546 l -0.81502,0 0,-0.0297 0.24551,0 c 0.11485,0 0.20621,-0.11935 0.20621,-0.25533 l 0,-0.15712 c 0,-0.13551 -0.0913,-0.25534 -0.20621,-0.25534 l -0.32406,0 0,-0.42219 c 0,-0.0356 -0.0286,-0.0594 -0.0589,-0.0594 l -1.45328,0 c -0.0305,0 -0.0589,0.0226 -0.0589,0.0594 l 0,0.42219 -0.32401,0 c -0.11486,0 -0.20619,0.11936 -0.20619,0.25534 l 0,0.15712 c 0,0.1355 0.0914,0.25533 0.20619,0.25533 l 0.11779,0 c 0,0 0,0.0238 0,0.0297 l -1.00158,0 z m -22.02482,0.37315 c 0.17656,0.2906 0.29562,0.62373 0.37309,0.96231 l -0.37309,0 c -0.0286,-0.27932 -0.0366,-0.6109 0,-0.96231 z m 70.54237,3.21092 c 0.0734,0.0392 0.15645,0.0689 0.24548,0.0689 l 2.39591,0 c -0.22403,0.32267 -0.35349,0.71482 -0.35349,1.13903 l 0,3.1323 -2.2879,0 z m -11.68509,3.54476 0,0.79533 -1.08011,0 z m -6.45131,0.68738 0.17675,0.10807 -0.17675,0 z m 34.68201,2.95559 2.84763,0 0,2.28792 -2.42535,0 c -0.14386,0 -0.28395,0.0119 -0.42228,0.0297 z m 5.69526,0 2.28788,0 0,2.52365 0,4.08476 0,1.65956 -0.28474,0 0,-3.32885 c 0,-1.16397 -0.83582,-2.1422 -2.00314,-2.50394 z m -128.58472,6.55937 1.39438,0 0,0.56957 -1.39438,0 z m 137.7069,6.84415 0.28477,0 0,0.56946 -0.28477,0 z"
       id="rect60297"
       inkscape:connector-curvature="0"
       sodipodi:nodetypes="cccccccccccccccssssccsscssssssscssccssssccsssscccccccccccccccccccccccccsscccccssssccsscssccccccccccccsssscccccscsscssccsscscccccscsssssscccccccccccccccccccccccccccccccccccccccccccccssssccsscssssccccccssccssssccssscsccsssscccccssssccssssccsscccssssccccssssccssccssccssssccccssssccsccccssssccccssssccsccccccccccccsssscsssscsssscccccccsssscsssscssssccccccssccccccssccssssccccssssccsccccssssccccssssccsccccccccccccccccccccccccccsssscsssscsssscccccccccscsccccccccccccccsccccccccscccccccccccc" />
  </g>
</svg>
