<?xml version="1.0" encoding="UTF-8" standalone="no"?>
<!-- Created with Inkscape (http://www.inkscape.org/) -->

<svg
   xmlns:dc="http://purl.org/dc/elements/1.1/"
   xmlns:cc="http://creativecommons.org/ns#"
   xmlns:rdf="http://www.w3.org/1999/02/22-rdf-syntax-ns#"
   xmlns:svg="http://www.w3.org/2000/svg"
   xmlns="http://www.w3.org/2000/svg"
   xmlns:xlink="http://www.w3.org/1999/xlink"
   xmlns:sodipodi="http://sodipodi.sourceforge.net/DTD/sodipodi-0.dtd"
   xmlns:inkscape="http://www.inkscape.org/namespaces/inkscape"
   width="2048"
   height="198.50943"
   viewBox="0 0 541.86664 52.522288"
   version="1.1"
   id="svg23489"
   inkscape:version="0.48.5 r10040"
   sodipodi:docname="background_dunes.svg">
  <defs
     id="defs23483">
    <linearGradient
       inkscape:collect="always"
       id="linearGradient8891">
      <stop
         style="stop-color:#00c0ff;stop-opacity:1"
         offset="0"
         id="stop8893" />
      <stop
         style="stop-color:#d9ffff;stop-opacity:1"
         offset="1"
         id="stop8895" />
    </linearGradient>
    <linearGradient
       y2="-61.67168"
       x2="2495.4058"
       y1="-2129.1384"
       x1="2495.4058"
       gradientTransform="matrix(0.07988922,0,0,0.09573136,119.3831,150.91362)"
       gradientUnits="userSpaceOnUse"
       id="linearGradient12941"
       xlink:href="#linearGradient8891"
       inkscape:collect="always" />
    <linearGradient
       inkscape:collect="always"
       xlink:href="#linearGradient13344"
       id="linearGradient13374"
       gradientUnits="userSpaceOnUse"
       gradientTransform="matrix(-0.13497783,0,0,0.13497783,-1383.2217,1016.4121)"
       x1="-4640.625"
       y1="8767.9873"
       x2="-4640.625"
       y2="8893.3379" />
    <linearGradient
       inkscape:collect="always"
       id="linearGradient13344">
      <stop
         style="stop-color:#c6d7ea;stop-opacity:1;"
         offset="0"
         id="stop13346" />
      <stop
         style="stop-color:#dde7f3;stop-opacity:1"
         offset="1"
         id="stop13348" />
    </linearGradient>
    <linearGradient
       inkscape:collect="always"
       xlink:href="#linearGradient13344"
       id="linearGradient13376"
       gradientUnits="userSpaceOnUse"
       gradientTransform="matrix(-0.13497783,0,0,0.13497783,-1118.3743,1016.4121)"
       x1="-4640.625"
       y1="8767.9873"
       x2="-4640.625"
       y2="8893.3379" />
    <linearGradient
       y2="8893.3379"
       x2="-4640.625"
       y1="8767.9873"
       x1="-4640.625"
       gradientTransform="matrix(0.26458334,0,0,0.26458334,585.22883,-161.20056)"
       gradientUnits="userSpaceOnUse"
       id="linearGradient13413"
       xlink:href="#linearGradient13344"
       inkscape:collect="always" />
  </defs>
  <sodipodi:namedview
     id="base"
     pagecolor="#7d848b"
     bordercolor="#666666"
     borderopacity="1.0"
     inkscape:pageopacity="0"
     inkscape:pageshadow="2"
     inkscape:zoom="0.42617864"
     inkscape:cx="1124.2236"
     inkscape:cy="674.24924"
     inkscape:document-units="px"
     inkscape:current-layer="layer1"
     showgrid="false"
     inkscape:pagecheckerboard="false"
     showborder="true"
     units="px"
     inkscape:window-width="1920"
     inkscape:window-height="1017"
     inkscape:window-x="-8"
     inkscape:window-y="-8"
     inkscape:window-maximized="1"
     inkscape:showpageshadow="false"
     guidetolerance="28"
     fit-margin-top="0"
     fit-margin-left="0"
     fit-margin-right="0"
     fit-margin-bottom="0">
    <inkscape:grid
       type="xygrid"
       id="grid24034"
       spacingx="1px"
       spacingy="1px"
       empspacing="8"
       visible="true"
       enabled="true"
       snapvisiblegridlinesonly="true"
       originx="655.51912px"
       originy="132.80691px" />
  </sodipodi:namedview>
  <metadata
     id="metadata23486">
    <rdf:RDF>
      <cc:Work
         rdf:about="">
        <dc:format>image/svg+xml</dc:format>
        <dc:type
           rdf:resource="http://purl.org/dc/dcmitype/StillImage" />
        <dc:title></dc:title>
        <cc:license
           rdf:resource="" />
        <dc:creator>
          <cc:Agent>
            <dc:title>Robert Brooks</dc:title>
          </cc:Agent>
        </dc:creator>
      </cc:Work>
    </rdf:RDF>
  </metadata>
  <g
     inkscape:label="Layer 1"
     inkscape:groupmode="layer"
     id="layer1"
     transform="translate(173.43944,-279.61621)">
    <g
       id="g13368"
       transform="translate(730.18344,-1862.1885)">
      <g
         transform="matrix(1.0010802,0,0,1,-2.535583,-50.280081)"
         id="g13360">
        <path
           inkscape:connector-curvature="0"
           id="path13352"
           d="m -817.17954,2192.086 c 3.13361,0.098 8.73234,6.1347 14.56074,6.9176 6.66105,0.8948 26.64255,-2.9841 28.45925,-4.4754 0.35558,-0.2919 0.8592,-0.2964 1.45944,-0.1265 2.46623,0.6981 6.52485,4.3677 8.22943,3.4082 2.11947,-1.1931 10.9017,-4.7719 13.02113,-5.0701 2.11942,-0.2983 14.53179,8.6482 23.0095,8.9465 8.47772,0.2983 17.5596,-5.9668 20.28463,-6.5633 2.72493,-0.5966 10.5974,5.9655 16.65291,6.2638 6.05551,0.2982 10.596,-3.58 14.83486,-5.3696 1.41904,-0.5991 13.32135,3.8806 19.07409,3.8806 5.75273,0 16.95879,-4.1765 19.07827,-5.3696 1.83537,-1.0331 10.25136,4.9634 14.83487,6.2638 l 0,17.2983 -276.43457,0 0,-17.2983 c 1.3651,0.3355 3.02789,0.5608 4.82968,0.7129 3.3395,-1.7289 10.24637,-4.6351 12.32516,-4.9815 1.63844,-0.2731 5.93047,1.9246 11.38455,3.9692 5.40829,-2.2084 11.97883,-6.0593 13.84787,-6.2638 2.72498,-0.2983 9.38403,6.8621 14.53122,5.669 5.14717,-1.193 22.10672,-5.3697 24.8317,-7.4575 0.34068,-0.261 0.73761,-0.3683 1.18527,-0.3543 z"
           style="opacity:0.68584074;color:#000000;fill:url(#linearGradient13374);fill-opacity:1;fill-rule:nonzero;stroke:none;stroke-width:20;marker:none;visibility:visible;display:inline;overflow:visible;enable-background:accumulate" />
        <path
           style="opacity:0.68584074;color:#000000;fill:url(#linearGradient13376);fill-opacity:1;fill-rule:nonzero;stroke:none;stroke-width:20;marker:none;visibility:visible;display:inline;overflow:visible;enable-background:accumulate"
           d="m -552.33214,2192.086 c 3.13361,0.098 8.73234,6.1347 14.56074,6.9176 6.66105,0.8948 26.64255,-2.9841 28.45925,-4.4754 0.35558,-0.2919 0.8592,-0.2964 1.45944,-0.1265 2.46623,0.6981 6.52485,4.3677 8.22943,3.4082 2.11947,-1.1931 10.9017,-4.7719 13.02113,-5.0701 2.11942,-0.2983 14.53179,8.6482 23.0095,8.9465 8.47772,0.2983 17.5596,-5.9668 20.28463,-6.5633 2.72493,-0.5966 10.5974,5.9655 16.65291,6.2638 6.05551,0.2982 10.596,-3.58 14.83486,-5.3696 1.41904,-0.5991 13.32135,3.8806 19.07409,3.8806 5.75273,0 16.95879,-4.1765 19.07827,-5.3696 1.83537,-1.0331 10.25136,4.9634 14.83487,6.2638 l 0,17.2983 -276.43457,0 0,-17.2983 c 1.3651,0.3355 3.02789,0.5608 4.82968,0.7129 3.3395,-1.7289 10.24637,-4.6351 12.32516,-4.9815 1.63844,-0.2731 5.93047,1.9246 11.38455,3.9692 5.40829,-2.2084 11.97883,-6.0593 13.84787,-6.2638 2.72498,-0.2983 9.38403,6.8621 14.53122,5.669 5.14717,-1.193 22.10672,-5.3697 24.8317,-7.4575 0.34068,-0.261 0.73761,-0.3683 1.18527,-0.3543 z"
           id="path13356"
           inkscape:connector-curvature="0" />
      </g>
      <path
         inkscape:connector-curvature="0"
         id="path13329"
         d="m -524.32622,2143.3534 c -6.14249,0.1918 -17.11712,12.0252 -28.54193,13.5599 -13.05698,1.754 -52.22468,-5.8494 -55.78578,-8.7726 -0.697,-0.5722 -1.6842,-0.581 -2.8608,-0.2481 -4.8343,1.3685 -12.79,8.5616 -16.1313,6.6808 -4.1546,-2.3387 -21.3695,-9.3538 -25.524,-9.9384 -4.1545,-0.5847 -28.4852,16.9522 -45.1032,17.5369 -16.618,0.5847 -34.4203,-11.696 -39.7619,-12.8654 -5.3414,-1.1693 -20.773,11.6937 -32.643,12.2783 -11.87,0.5847 -20.77027,-7.0175 -29.07927,-10.5254 -2.7816,-1.1744 -26.1125,7.6068 -37.389,7.6068 -11.2765,0 -33.2426,-8.1869 -37.3972,-10.5255 -3.5977,-2.0252 -20.0947,9.7293 -29.0793,12.2783 l 0,33.908 541.86663,0 0,-33.908 c -2.67586,0.6575 -5.93527,1.0993 -9.46714,1.3973 -6.54608,-3.389 -20.08491,-9.0856 -24.15976,-9.7647 -3.21165,-0.5353 -11.62489,3.7726 -22.31597,7.7804 -10.60132,-4.3289 -23.48089,-11.8773 -27.14458,-12.2783 -5.34149,-0.5846 -18.39455,13.4512 -28.48406,11.1125 -10.08949,-2.3386 -43.33357,-10.5257 -48.67506,-14.6183 -0.66781,-0.5116 -1.44587,-0.7219 -2.32338,-0.6945 z"
         style="color:#000000;fill:url(#linearGradient13413);fill-opacity:1;fill-rule:nonzero;stroke:none;stroke-width:20;marker:none;visibility:visible;display:inline;overflow:visible;enable-background:accumulate" />
    </g>
  </g>
</svg>
