<?xml version="1.0" encoding="UTF-8" standalone="no"?>
<!-- Created with Inkscape (http://www.inkscape.org/) -->

<svg
   xmlns:dc="http://purl.org/dc/elements/1.1/"
   xmlns:cc="http://creativecommons.org/ns#"
   xmlns:rdf="http://www.w3.org/1999/02/22-rdf-syntax-ns#"
   xmlns:svg="http://www.w3.org/2000/svg"
   xmlns="http://www.w3.org/2000/svg"
   xmlns:sodipodi="http://sodipodi.sourceforge.net/DTD/sodipodi-0.dtd"
   xmlns:inkscape="http://www.inkscape.org/namespaces/inkscape"
   width="864.50031"
   height="64.483932"
   viewBox="0 0 228.73235 17.061374"
   version="1.1"
   id="svg23489"
   inkscape:version="0.48.5 r10040"
   sodipodi:docname="cloud_01.svg"
   tags="cloud, thin cloud, steaky cloud, desert cloud">
  <defs
     id="defs23483">
    <filter
       color-interpolation-filters="sRGB"
       inkscape:collect="always"
       id="filter20312"
       x="-0.16695651"
       width="1.333913"
       y="-0.16695651"
       height="1.333913">
      <feGaussianBlur
         inkscape:collect="always"
         stdDeviation="15.149028"
         id="feGaussianBlur20314" />
    </filter>
  </defs>
  <sodipodi:namedview
     id="base"
     pagecolor="#7d848b"
     bordercolor="#666666"
     borderopacity="1.0"
     inkscape:pageopacity="1"
     inkscape:pageshadow="2"
     inkscape:zoom="0.85235729"
     inkscape:cx="290.86082"
     inkscape:cy="4.4973364"
     inkscape:document-units="px"
     inkscape:current-layer="layer1"
     showgrid="false"
     inkscape:pagecheckerboard="false"
     showborder="true"
     units="px"
     inkscape:window-width="1920"
     inkscape:window-height="1017"
     inkscape:window-x="-8"
     inkscape:window-y="-8"
     inkscape:window-maximized="1"
     inkscape:showpageshadow="false"
     guidetolerance="28"
     fit-margin-top="15"
     fit-margin-left="15"
     fit-margin-right="15"
     fit-margin-bottom="15">
    <inkscape:grid
       type="xygrid"
       id="grid24034"
       spacingx="1px"
       spacingy="1px"
       empspacing="8"
       visible="true"
       enabled="true"
       snapvisiblegridlinesonly="true"
       originx="168.45087px"
       originy="-427.08629px" />
  </sodipodi:namedview>
  <metadata
     id="metadata23486">
    <rdf:RDF>
      <cc:Work
         rdf:about="">
        <dc:format>image/svg+xml</dc:format>
        <dc:type
           rdf:resource="http://purl.org/dc/dcmitype/StillImage" />
        <dc:title></dc:title>
        <cc:license
           rdf:resource="" />
        <dc:creator>
          <cc:Agent>
            <dc:title>Robert Brooks</dc:title>
          </cc:Agent>
        </dc:creator>
      </cc:Work>
    </rdf:RDF>
  </metadata>
  <g
     inkscape:label="Layer 1"
     inkscape:groupmode="layer"
     id="layer1"
     transform="translate(44.569292,-166.9387)">
    <path
       style="color:#000000;fill:#e7ffff;fill-opacity:1;fill-rule:nonzero;stroke:#00beff;stroke-width:2.64583349;stroke-linejoin:round;stroke-opacity:1;marker:none;visibility:visible;display:inline;overflow:visible;enable-background:accumulate"
       d="m 89.210642,172.23037 c -0.84228,0 -1.601716,0.007 -2.323373,0.0165 -0.03678,4.9e-4 -0.07103,-5.1e-4 -0.107487,0 -0.549465,0.008 -1.057039,0.0191 -1.529622,0.0331 -0.191582,0.006 -0.400378,0.01 -0.578776,0.0165 -0.232431,0.009 -0.443828,0.0223 -0.65319,0.0331 -0.24856,0.0128 -0.51263,0.0256 -0.727604,0.0413 -2.399642,0.17534 -6.839345,0.49424 -12.435418,0.8847 -2.797998,0.19503 -5.887558,0.40583 -9.15293,0.62838 -6.530744,0.44511 -13.77084,0.93025 -20.844206,1.3808 -5.305092,0.33826 -10.515351,0.66178 -15.254883,0.93431 -3.159659,0.18152 -6.107639,0.34072 -8.739518,0.47129 -1.315945,0.0653 -2.55337,0.12436 -3.695899,0.17363 -2.444266,-0.14781 -4.8898248,-0.25957 -7.3173828,-0.33073 -0.809202,-0.0237 -1.618496,-0.0417 -2.422591,-0.0579 -2.41222,-0.0485 -4.798576,-0.0604 -7.135482,-0.0496 -9.8769402,0.0451 -18.8617802,0.56025 -25.3421202,1.05834 -3.01044,0.23138 -5.45694,0.45401 -7.2099,0.62838 -0.0753,0.007 -0.19192,0.0175 -0.26458,0.0248 -0.61695,0.062 -1.15492,0.12064 -1.57097,0.16536 -0.13112,0.0141 -0.36343,0.0378 -0.47129,0.0496 -0.28704,0.0323 -0.71106,0.0827 -0.71106,0.0827 0,0 7.5554,0.0187 9.60768,0.0248 8.634,0.0257 27.5803952,0.0831 58.018165,0.14883 0.003,0 0.0052,-1e-5 0.0083,0 25.112825,0.0542 53.651663,0.10283 79.027735,0.11575 0.003,0 0.006,0 0.008,0 12.6893,0.006 24.58369,0.007 34.86713,-0.008 10.28854,-0.0155 18.95466,-0.0457 25.18502,-0.091 3.11484,-0.0226 5.61593,-0.0512 7.40835,-0.0827 1.34429,-0.0236 2.28732,-0.0453 2.78638,-0.0744 0.0851,-0.005 0.12287,-0.0114 0.1819,-0.0165 0.0544,-0.005 0.13393,-0.0116 0.16536,-0.0165 0.0505,-0.01 0.0863,-0.0148 0.1323,-0.0248 0.0624,-0.0135 0.11922,-0.0277 0.17364,-0.0413 0.0189,-0.005 0.0316,-0.0118 0.0496,-0.0165 0.0123,-0.003 0.0295,-0.005 0.0414,-0.008 0.0158,-0.004 0.0263,-0.004 0.0413,-0.008 0.0161,-0.005 0.0261,-0.0119 0.0413,-0.0165 0.0687,-0.0209 0.12261,-0.0447 0.17362,-0.0661 0.008,-0.003 0.0174,-0.005 0.0248,-0.008 0.0129,-0.006 0.0297,-0.0108 0.0413,-0.0165 0.004,-0.002 0.005,-0.006 0.008,-0.008 0.008,-0.004 0.0173,-0.004 0.0248,-0.008 0.006,-0.003 0.0113,-0.005 0.0166,-0.008 0.0156,-0.009 0.0289,-0.0153 0.0413,-0.0248 0.0104,-0.008 0.0165,-0.017 0.0248,-0.0248 0.0125,-0.0119 0.0254,-0.021 0.0331,-0.0331 0.004,-0.006 0.005,-0.0104 0.008,-0.0165 0.004,-0.009 0.007,-0.0161 0.008,-0.0248 0.002,-0.009 0.001,-0.0154 0,-0.0248 -1.6e-4,-0.002 3.5e-4,-0.006 0,-0.008 -0.002,-0.01 -0.004,-0.0234 -0.008,-0.0331 -0.002,-0.004 -0.005,-0.0121 -0.008,-0.0165 -0.009,-0.0155 -0.0246,-0.0256 -0.0414,-0.0413 -0.009,-0.009 -0.0213,-0.0159 -0.0331,-0.0248 -0.012,-0.009 -0.0268,-0.0238 -0.0413,-0.0331 -0.0238,-0.0148 -0.0527,-0.0346 -0.0827,-0.0496 -0.002,-0.001 -0.006,0.001 -0.008,0 -0.003,-0.001 -0.005,-0.007 -0.008,-0.008 -0.0264,-0.0128 -0.0684,-0.0202 -0.0992,-0.0331 -0.0262,-0.0109 -0.0451,-0.0221 -0.0744,-0.0331 -0.0171,-0.006 -0.0315,-0.01 -0.0496,-0.0165 -0.0158,-0.006 -0.033,-0.0191 -0.0496,-0.0248 -0.0747,-0.0252 -0.16573,-0.0488 -0.25633,-0.0744 -0.12255,-0.0344 -0.27127,-0.0725 -0.42166,-0.10749 -0.0277,-0.006 -0.054,-0.01 -0.0827,-0.0165 -0.0149,-0.003 -0.0345,-0.005 -0.0496,-0.008 -0.16611,-0.037 -0.34179,-0.0782 -0.53745,-0.11576 -0.009,-0.002 -0.0156,-0.007 -0.0248,-0.008 -0.0128,-0.002 -0.0284,-0.006 -0.0413,-0.008 -0.19908,-0.0377 -0.45868,-0.0775 -0.68625,-0.11576 -0.40934,-0.0688 -0.85873,-0.13621 -1.35599,-0.20671 -0.27308,-0.0386 -0.5783,-0.0849 -0.87643,-0.12402 -0.0786,-0.0103 -0.16775,-0.0227 -0.24805,-0.0331 -0.14282,-0.0183 -0.31494,-0.0395 -0.46302,-0.0579 -0.47877,-0.0596 -0.96446,-0.11323 -1.49657,-0.17363 -0.037,-0.004 -0.0785,-0.0123 -0.11572,-0.0165 -0.60775,-0.0684 -1.2715,-0.13747 -1.94305,-0.2067 -1.78933,-0.18448 -3.77696,-0.37486 -5.96139,-0.56224 -0.032,-0.003 -0.0672,-0.006 -0.0992,-0.008 -0.96482,-0.0826 -1.98017,-0.16545 -3.00964,-0.24805 -0.14426,-0.0116 -0.30103,-0.0215 -0.44648,-0.0331 -1.18893,-0.0945 -2.42542,-0.18729 -3.68763,-0.28112 -1.25965,-0.0936 -2.57246,-0.18863 -3.89434,-0.28112 -1.93188,-0.13522 -3.9417,-0.27382 -5.97793,-0.40514 -0.0605,-0.004 -0.12136,-0.004 -0.1819,-0.008 -0.6901,-0.0444 -1.41731,-0.0885 -2.11667,-0.13229 -1.86599,-0.11686 -3.76547,-0.23539 -5.68027,-0.34727 -0.32508,-0.019 -0.65785,-0.0391 -0.98392,-0.0579 -1.78274,-0.10294 -3.57366,-0.20021 -5.37435,-0.29765 -0.36187,-0.0196 -0.72102,-0.0386 -1.08314,-0.0579 -2.96212,-0.15801 -5.91742,-0.30737 -8.847,-0.44649 -0.40801,-0.0194 -0.80903,-0.0389 -1.21543,-0.0579 -6.11343,-0.28555 -12.0162,-0.52443 -17.33848,-0.69454 -1.15226,-0.0368 -2.27295,-0.069 -3.36517,-0.0992 -0.758026,-0.021 -1.481773,-0.0402 -2.207617,-0.0579 -0.335404,-0.008 -0.639265,-0.0173 -0.967383,-0.0248 -1.010936,-0.023 -1.98193,-0.042 -2.918685,-0.0579 -0.01135,-2e-4 -0.02173,1.9e-4 -0.03307,0 -1.892943,-0.0319 -3.627049,-0.0494 -5.167643,-0.0496 z"
       id="path20943"
       inkscape:connector-curvature="0" />
    <g
       transform="matrix(0.7999025,0,0,0.70136307,598.14183,-1297.7185)"
       id="g20941">
      <path
         style="color:#000000;fill:#e7ffff;fill-opacity:1;fill-rule:nonzero;stroke:none;stroke-width:10;marker:none;visibility:visible;display:inline;overflow:visible;enable-background:accumulate"
         d="m -2763.9998,7875.9869 c 86.375,-4.248 285.9871,-20.2924 331.3401,-24.0718 67.9672,-5.6639 498.4262,21.2398 447.4508,32.5677 -19.9581,3.564 -1026.5881,0 -1026.5881,0 0,0 124.6066,-16.9918 247.7972,-8.4959 z"
         id="path20943-4"
         inkscape:connector-curvature="0"
         transform="matrix(0.26458334,0,0,0.26458334,-6.3049604e-6,18.562493)"
         sodipodi:nodetypes="csccc" />
      <path
         inkscape:connector-curvature="0"
         style="opacity:0.5;color:#000000;fill:#b1d6ff;fill-opacity:1;fill-rule:nonzero;stroke:none;stroke-width:10;marker:none;visibility:visible;display:inline;overflow:visible;enable-background:accumulate"
         d="m -1996.3125,7877.6875 c -0.5142,0.5222 -1.7839,0.9971 -3.9063,1.4687 -17.9525,3.2059 -799.3793,0.7347 -963.25,0.1876 -29.7464,2.6129 -48.3437,5.125 -48.3437,5.125 0,0 1006.6356,3.564 1026.5937,0 8.5605,-1.9024 3.5035,-4.2284 -11.0937,-6.7813 z"
         transform="matrix(0.26458334,0,0,0.26458334,-6.3049604e-6,18.562493)"
         id="path20945" />
      <path
         style="color:#000000;fill:#ffffff;fill-opacity:1;fill-rule:nonzero;stroke:none;stroke-width:10;marker:none;visibility:visible;display:inline;overflow:visible;enable-background:accumulate"
         d="m -2404.6875,7851.1562 c -12.0485,0 -21.5968,0.2191 -27.9687,0.75 -45.3531,3.7795 -244.9688,19.8458 -331.3438,24.0938 -123.1906,-8.4959 -247.8125,8.4688 -247.8125,8.4688 0,0 35.7093,0.1232 45.4063,0.1562 47.279,-4.2448 125.1027,-8.9563 202.4062,-3.625 86.375,-4.248 285.8456,-10.1257 331.3438,-9.075 88.5934,2.0457 397.4341,0.073 445.8437,12.7312 0.74,-0.05 1.2935,-0.1338 1.5937,-0.1874 46.1965,-10.266 -303.0001,-33.295 -419.4687,-33.3126 z"
         transform="matrix(0.26458334,0,0,0.26458334,-6.3049604e-6,18.562493)"
         id="path20947"
         inkscape:connector-curvature="0"
         sodipodi:nodetypes="scccccsccs" />
    </g>
  </g>
</svg>
