<?xml version="1.0" encoding="UTF-8" standalone="no"?>
<!-- Created with Inkscape (http://www.inkscape.org/) -->

<svg
   xmlns:dc="http://purl.org/dc/elements/1.1/"
   xmlns:cc="http://creativecommons.org/ns#"
   xmlns:rdf="http://www.w3.org/1999/02/22-rdf-syntax-ns#"
   xmlns:svg="http://www.w3.org/2000/svg"
   xmlns="http://www.w3.org/2000/svg"
   xmlns:sodipodi="http://sodipodi.sourceforge.net/DTD/sodipodi-0.dtd"
   xmlns:inkscape="http://www.inkscape.org/namespaces/inkscape"
   width="1223.4446"
   height="70.806129"
   viewBox="0 0 323.70302 18.734122"
   version="1.1"
   id="svg23489"
   inkscape:version="0.48.5 r10040"
   sodipodi:docname="sun.svg"
   tags="cloud, thin cloud, steaky cloud, desert cloud">
  <defs
     id="defs23483">
    <filter
       color-interpolation-filters="sRGB"
       inkscape:collect="always"
       id="filter20312"
       x="-0.16695651"
       width="1.333913"
       y="-0.16695651"
       height="1.333913">
      <feGaussianBlur
         inkscape:collect="always"
         stdDeviation="15.149028"
         id="feGaussianBlur20314" />
    </filter>
  </defs>
  <sodipodi:namedview
     id="base"
     pagecolor="#7d848b"
     bordercolor="#666666"
     borderopacity="1.0"
     inkscape:pageopacity="1"
     inkscape:pageshadow="2"
     inkscape:zoom="0.85235729"
     inkscape:cx="368.21958"
     inkscape:cy="12.144585"
     inkscape:document-units="px"
     inkscape:current-layer="layer1"
     showgrid="false"
     inkscape:pagecheckerboard="false"
     showborder="true"
     units="px"
     inkscape:window-width="1920"
     inkscape:window-height="1017"
     inkscape:window-x="-8"
     inkscape:window-y="-8"
     inkscape:window-maximized="1"
     inkscape:showpageshadow="false"
     guidetolerance="28"
     fit-margin-top="15"
     fit-margin-left="15"
     fit-margin-right="15"
     fit-margin-bottom="15">
    <inkscape:grid
       type="xygrid"
       id="grid24034"
       spacingx="1px"
       spacingy="1px"
       empspacing="8"
       visible="true"
       enabled="true"
       snapvisiblegridlinesonly="true"
       originx="334.53946px"
       originy="-419.43904px" />
  </sodipodi:namedview>
  <metadata
     id="metadata23486">
    <rdf:RDF>
      <cc:Work
         rdf:about="">
        <dc:format>image/svg+xml</dc:format>
        <dc:type
           rdf:resource="http://purl.org/dc/dcmitype/StillImage" />
        <dc:title></dc:title>
        <cc:license
           rdf:resource="" />
        <dc:creator>
          <cc:Agent>
            <dc:title>Robert Brooks</dc:title>
          </cc:Agent>
        </dc:creator>
      </cc:Work>
    </rdf:RDF>
  </metadata>
  <g
     inkscape:label="Layer 1"
     inkscape:groupmode="layer"
     id="layer1"
     transform="translate(88.513566,-167.28929)">
    <path
       style="color:#000000;fill:#e7ffff;fill-opacity:1;fill-rule:nonzero;stroke:#03a6ff;stroke-width:0;stroke-linejoin:round;stroke-opacity:1;marker:none;visibility:visible;display:inline;overflow:visible;enable-background:accumulate;stroke-miterlimit:4;stroke-dasharray:none"
       d="M 540,0 C 524.92751,0.00774803 509.65481,0.11464758 494.21875,0.28125 492.00255,0.3051627 489.78414,0.3480634 487.5625,0.375 480.49111,0.460733 473.39688,0.54120925 466.28125,0.65625 441.36612,1.0590611 416.24906,1.6375689 391.25,2.34375 386.56729,2.4760285 381.88955,2.6088902 377.21875,2.75 373.58371,2.8598118 369.9378,2.9788984 366.3125,3.09375 349.73544,3.6190232 333.27584,4.1975543 317.03125,4.8125 301.36294,5.4056307 285.91597,6.0345052 270.75,6.6875 269.90752,6.723765 269.05937,6.744838 268.21875,6.78125 260.57921,7.1122449 253.22248,7.4710113 245.75,7.8125 231.74539,8.4525037 218.1072,9.088162 204.8125,9.75 c -3.8103,0.1895676 -7.41261,0.372165 -11.15625,0.5625 -9.23487,0.469649 -18.21087,0.936808 -27,1.40625 -4.131,0.220568 -8.25781,0.436844 -12.28125,0.65625 -11.77505,0.642381 -22.99665,1.285994 -33.75,1.90625 C 96.335062,15.6823 74.849724,16.986614 57,18.125 c -8.932718,0.569694 -16.999821,1.097598 -24,1.5625 -1.172046,0.07784 -2.698118,0.175525 -3.8125,0.25 -18.661946,1.2472 -29.15625,2 -29.15625,2 0.09353703,0.0036 0.18771148,-0.0036 0.28125,0 C 0.30793387,21.937833 0,21.96875 0,21.96875 c 11.297651,0.434292 22.616559,0.820568 33.9375,1.21875 0.813181,0.0286 1.624202,0.06533 2.4375,0.09375 8.033592,0.281963 16.080556,0.547877 24.125,0.8125 4.81339,0.157348 9.620193,0.317644 14.4375,0.46875 11.472478,0.362325 22.94317,0.704013 34.4375,1.03125 11.20415,0.318975 22.43148,0.620522 33.65625,0.90625 4.3202,0.109703 8.64578,0.207441 12.96875,0.3125 281.5188,6.841632 568.80491,3.895239 854.0938,-1.40625 3.9992,-0.07432 8.0015,-0.143528 12,-0.21875 4.3863,-0.08275 8.7709,-0.166182 13.1562,-0.25 49.4898,-0.942963 98.938,-1.936056 148.25,-2.96875 0,0 -0.4283,-0.03074 -0.4375,-0.03125 0.1352,-0.0028 0.2711,0.0028 0.4063,0 0,0 -32.0318,-1.761772 -84.2813,-4.3125 -52.2455,-2.553507 -124.69876,-5.879443 -205.46875,-8.96875 -0.0102,-3.901e-4 -0.021,3.901e-4 -0.0312,0 -16.14635,-0.6175398 -32.62617,-1.2219215 -49.34375,-1.8125 -0.0103,-3.626e-4 -0.021,3.626e-4 -0.0312,0 C 827.59432,6.2531831 810.63113,5.67248 793.53125,5.125 c -0.0104,-3.317e-4 -0.0209,3.317e-4 -0.0312,0 -8.54491,-0.2735605 -17.11402,-0.5527181 -25.71875,-0.8125 -0.0104,-3.132e-4 -0.0209,3.131e-4 -0.0312,0 -8.60485,-0.2597658 -17.234,-0.5060261 -25.875,-0.75 -0.0104,-2.931e-4 -0.0209,2.931e-4 -0.0312,0 -17.29252,-0.4882026 -34.64236,-0.9308854 -51.9375,-1.34375 -0.0104,-2.488e-4 -0.0208,2.488e-4 -0.0312,0 C 681.2327,2.0124677 672.60746,1.8094509 664,1.625 c -0.0104,-2.236e-4 -0.0208,2.235e-4 -0.0312,0 C 638.11536,1.0710623 612.48691,0.63314448 587.375,0.3125 571.91617,0.11520866 556.07727,-0.00831496 540,0 z"
       transform="matrix(0.26458334,0,0,0.26458334,-83.231182,172.58106)"
       id="path35574"
       inkscape:connector-curvature="0" />
    <g
       transform="matrix(1.2363996,0,0,1.6103472,713.02981,-3230.1558)"
       id="g20320">
      <path
         style="color:#000000;fill:#e7ffff;fill-opacity:1;fill-rule:nonzero;stroke:none;stroke-width:10;marker:none;visibility:visible;display:inline;overflow:visible;enable-background:accumulate"
         d="m -1959.0133,7916.3424 c 216.6455,2.1239 482.1425,13.4518 482.1425,13.4518 -319.0683,5.1303 -643.8005,9.2499 -957.2049,0 0,0 275.0121,-15.413 475.0624,-13.4518 z"
         id="path20322"
         inkscape:connector-curvature="0"
         transform="matrix(0.26458334,0,0,0.26458334,-6.3049604e-6,18.562493)"
         sodipodi:nodetypes="sccs" />
      <path
         inkscape:connector-curvature="0"
         style="color:#000000;fill:#ffffff;fill-opacity:1;fill-rule:nonzero;stroke:none;stroke-width:10;marker:none;visibility:visible;display:inline;overflow:visible;enable-background:accumulate"
         d="m -1997.3125,7916.1562 c -195.0501,0.077 -436.75,13.625 -436.75,13.625 41.8176,1.2343 83.8194,2.2438 126,3.0313 97.8559,-4.0868 235.4889,-8.5822 349.0625,-7.4687 102.9765,1.0095 216.7073,4.0989 308,7.0624 58.1574,-0.7904 116.239,-1.6942 174.125,-2.625 0,0 -265.4795,-11.3135 -482.125,-13.4374 -12.5031,-0.1226 -25.3092,-0.1927 -38.3125,-0.1876 z"
         transform="matrix(0.26458334,0,0,0.26458334,-6.3049604e-6,18.562493)"
         id="path20324" />
    </g>
  </g>
</svg>
