<?xml version="1.0" encoding="UTF-8" standalone="no"?>
<!-- Created with Inkscape (http://www.inkscape.org/) -->

<svg
   xmlns:dc="http://purl.org/dc/elements/1.1/"
   xmlns:cc="http://creativecommons.org/ns#"
   xmlns:rdf="http://www.w3.org/1999/02/22-rdf-syntax-ns#"
   xmlns:svg="http://www.w3.org/2000/svg"
   xmlns="http://www.w3.org/2000/svg"
   xmlns:xlink="http://www.w3.org/1999/xlink"
   xmlns:sodipodi="http://sodipodi.sourceforge.net/DTD/sodipodi-0.dtd"
   xmlns:inkscape="http://www.inkscape.org/namespaces/inkscape"
   width="2048.0002"
   height="350.1673"
   viewBox="0 0 541.86671 92.64843"
   version="1.1"
   id="svg23489"
   inkscape:version="0.48.5 r10040"
   sodipodi:docname="foreground.svg">
  <defs
     id="defs23483">
    <linearGradient
       inkscape:collect="always"
       xlink:href="#linearGradient38526"
       id="linearGradient38571"
       gradientUnits="userSpaceOnUse"
       gradientTransform="translate(0,48.015164)"
       x1="16.230473"
       y1="8552.9033"
       x2="16.230473"
       y2="8662.582" />
    <linearGradient
       inkscape:collect="always"
       id="linearGradient38526">
      <stop
         style="stop-color:#f9c976;stop-opacity:1"
         offset="0"
         id="stop38528" />
      <stop
         style="stop-color:#fbdc86;stop-opacity:1"
         offset="1"
         id="stop38530" />
    </linearGradient>
  </defs>
  <sodipodi:namedview
     id="base"
     pagecolor="#7d848b"
     bordercolor="#666666"
     borderopacity="1.0"
     inkscape:pageopacity="0"
     inkscape:pageshadow="2"
     inkscape:zoom="0.42617864"
     inkscape:cx="1450.6936"
     inkscape:cy="521.58976"
     inkscape:document-units="px"
     inkscape:current-layer="layer1"
     showgrid="false"
     inkscape:pagecheckerboard="false"
     showborder="true"
     units="px"
     inkscape:window-width="1920"
     inkscape:window-height="1017"
     inkscape:window-x="-8"
     inkscape:window-y="-8"
     inkscape:window-maximized="1"
     inkscape:showpageshadow="false"
     guidetolerance="28"
     fit-margin-top="0"
     fit-margin-left="0"
     fit-margin-right="0"
     fit-margin-bottom="0">
    <inkscape:grid
       type="xygrid"
       id="grid24034"
       spacingx="1px"
       spacingy="1px"
       empspacing="8"
       visible="true"
       enabled="true"
       snapvisiblegridlinesonly="true"
       originx="1067.0734px"
       originy="-136.12191px" />
  </sodipodi:namedview>
  <metadata
     id="metadata23486">
    <rdf:RDF>
      <cc:Work
         rdf:about="">
        <dc:format>image/svg+xml</dc:format>
        <dc:type
           rdf:resource="http://purl.org/dc/dcmitype/StillImage" />
        <dc:title></dc:title>
        <cc:license
           rdf:resource="" />
        <dc:creator>
          <cc:Agent>
            <dc:title>Robert Brooks</dc:title>
          </cc:Agent>
        </dc:creator>
      </cc:Work>
    </rdf:RDF>
  </metadata>
  <g
     inkscape:label="Layer 1"
     inkscape:groupmode="layer"
     id="layer1"
     transform="translate(282.32985,-168.33597)">
    <g
       id="g39370"
       transform="translate(37.286826,-8430.7158)">
      <g
         transform="translate(-0.18237969,62.836401)"
         id="g38564">
        <path
           style="color:#000000;fill:#a4934d;fill-opacity:1;fill-rule:nonzero;stroke:none;stroke-width:15;marker:none;visibility:visible;display:inline;overflow:visible;enable-background:accumulate"
           d="m 222.43238,8550.5471 c -33.19927,0 -43.16797,-4.3909 -64.81155,-4.0576 -21.76824,0.3353 -38.53394,6.0864 -65.02825,6.0864 -21.461321,0 -42.951592,-0.4129 -64.351991,-2.0288 -39.689502,-2.9969 -78.787619,-15.7514 -118.559928,-14.2017 -24.154631,0.9412 -47.132871,11.1679 -71.114691,14.2017 -28.70392,3.6312 -57.73669,4.9032 -86.66889,4.7339 -23.82902,-0.1394 -48.41971,-4.6196 -71.33138,-4.7339 l 0,46.0375 541.86668,0.2646 z"
           id="path38545"
           inkscape:connector-curvature="0"
           sodipodi:nodetypes="casaaaacccc" />
        <path
           sodipodi:nodetypes="casaaaacccc"
           inkscape:connector-curvature="0"
           id="path38541"
           d="m 222.43238,8552.1346 c -33.19927,0 -43.61939,-4.4014 -65.48782,-4.0575 -21.76813,0.3423 -38.53394,6.0864 -65.02825,6.0864 -21.461321,0 -42.951592,-0.4129 -64.351991,-2.0288 -39.689502,-2.9969 -78.787619,-15.7514 -118.559928,-14.2017 -24.154631,0.9412 -47.132871,11.1679 -71.114691,14.2017 -28.70392,3.6312 -57.73675,4.9123 -86.66889,4.7339 -23.60406,-0.1456 -47.74344,-4.6197 -70.65511,-4.734 l 0,76.7292 541.86668,0 z"
           style="color:#000000;fill:#fddd82;fill-opacity:1;fill-rule:nonzero;stroke:none;stroke-width:15;marker:none;visibility:visible;display:inline;overflow:visible;enable-background:accumulate" />
        <path
           style="color:#000000;fill:#ffe59a;fill-opacity:1;fill-rule:nonzero;stroke:none;stroke-width:15;marker:none;visibility:visible;display:inline;overflow:visible;enable-background:accumulate"
           d="m -322.8125,32198.719 c -7.03557,0.05 -14.04747,0.194 -21.09375,0.469 -91.29309,3.557 -178.1413,42.221 -268.78125,53.687 -108.48725,13.724 -218.24371,18.515 -327.59375,17.875 -90.06245,-0.527 -180.43415,-17.448 -267.02945,-17.88 l 0,11 c 86.5511,0.451 177.0209,17.197 267.02945,17.724 109.35004,0.639 219.1065,-4.151 327.59375,-17.875 90.63995,-11.467 181.10283,-48.324 272.39596,-51.881 190.02199,-7.404 193.42651,32.924 444.47904,51.881 80.88336,6.107 162.1051,7.656 243.21875,7.656 100.13597,0 163.50759,-21.733 245.78125,-23 81.80254,-1.26 115.02426,15.495 240.50181,15.495 l 6.99819,0 0.002,-11 c -125.47755,0 -165.69927,-16.598 -247.50181,-15.339 -82.27366,1.268 -145.64528,23 -245.78125,23 -81.11365,0 -162.33535,-1.549 -243.21875,-7.656 -142.975959,-10.796 -283.94341,-55.098 -427,-54.156 z"
           transform="matrix(0.26458334,0,0,0.26458334,-6.3049604e-6,18.562493)"
           id="path38547"
           inkscape:connector-curvature="0"
           sodipodi:nodetypes="ccsscccsssssccccsscc" />
      </g>
    </g>
  </g>
</svg>
