<?xml version="1.0" encoding="UTF-8" standalone="no"?><!-- Created with Inkscape (http://www.inkscape.org/) --><svg xmlns:dc="http://purl.org/dc/elements/1.1/" xmlns:cc="http://creativecommons.org/ns#" xmlns:rdf="http://www.w3.org/1999/02/22-rdf-syntax-ns#" xmlns:svg="http://www.w3.org/2000/svg" xmlns="http://www.w3.org/2000/svg" xmlns:xlink="http://www.w3.org/1999/xlink" xmlns:sodipodi="http://sodipodi.sourceforge.net/DTD/sodipodi-0.dtd" xmlns:inkscape="http://www.inkscape.org/namespaces/inkscape" width="2047.9999" height="366.43079" viewBox="0 0 541.86661 96.951478" version="1.1" id="svg23489" inkscape:version="0.48.5 r10040" sodipodi:docname="far_ground_01.svg">
  <defs id="defs23483">
    <linearGradient inkscape:collect="always" xlink:href="#linearGradient38526" id="linearGradient38571" gradientUnits="userSpaceOnUse" gradientTransform="translate(0,48.015164)" x1="16.230473" y1="8552.9033" x2="16.230473" y2="8662.582"/>
    <linearGradient inkscape:collect="always" id="linearGradient38526">
      <stop style="stop-color:#f9c976;stop-opacity:1" offset="0" id="stop38528"/>
      <stop style="stop-color:#fbdc86;stop-opacity:1" offset="1" id="stop38530"/>
    </linearGradient>
    <clipPath clipPathUnits="userSpaceOnUse" id="clipPath39661">
      <rect style="opacity:0.80973451;color:#000000;fill:#fff2be;fill-opacity:1;fill-rule:nonzero;stroke:none;stroke-width:10;marker:none;visibility:visible;display:inline;overflow:visible;enable-background:accumulate" id="rect39663" width="541.86664" height="124.88334" x="-319.61667" y="-8549.8838" transform="scale(1,-1)"/>
    </clipPath>
  </defs>
  <sodipodi:namedview id="base" pagecolor="#7d848b" bordercolor="#666666" borderopacity="1.0" inkscape:pageopacity="0" inkscape:pageshadow="2" inkscape:zoom="0.42617864" inkscape:cx="1329.6338" inkscape:cy="603.84362" inkscape:document-units="px" inkscape:current-layer="layer1" showgrid="false" inkscape:pagecheckerboard="false" showborder="true" units="px" inkscape:window-width="1920" inkscape:window-height="1017" inkscape:window-x="-8" inkscape:window-y="-8" inkscape:window-maximized="1" inkscape:showpageshadow="false" guidetolerance="28" fit-margin-top="0" fit-margin-left="0" fit-margin-right="0" fit-margin-bottom="0">
    <inkscape:grid type="xygrid" id="grid24034" spacingx="1px" spacingy="1px" empspacing="8" visible="true" enabled="true" snapvisiblegridlinesonly="true" originx="946.01363px" originy="-53.868052px"/>
  </sodipodi:namedview>
  <metadata id="metadata23486">
    <rdf:RDF>
      <cc:Work rdf:about="">
        <dc:format>image/svg+xml</dc:format>
        <dc:type rdf:resource="http://purl.org/dc/dcmitype/StillImage"/>
        <dc:title/>
        <cc:license rdf:resource=""/>
        <dc:creator>
          <cc:Agent>
            <dc:title>Robert Brooks</dc:title>
          </cc:Agent>
        </dc:creator>
      </cc:Work>
    </rdf:RDF>
  </metadata>
  <g inkscape:label="Layer 1" inkscape:groupmode="layer" id="layer1" transform="translate(250.29945,-185.79592)">
    <g id="g39591" clip-path="url(#clipPath39661)" transform="translate(69.317207,-8267.1361)">
      <path style="color: rgb(0, 0, 0); fill: rgb(255, 229, 129); fill-opacity: 1; fill-rule: nonzero; stroke: rgb(234, 205, 108); stroke-width: 2.6256; stroke-miterlimit: 4; stroke-opacity: 1; stroke-dasharray: none; marker: none; visibility: visible; display: inline; overflow: visible;" d="m -319.61668,8516.2682 151.69721,0 6.08542,-13.1051 c 0,0 -17.78487,-1.8714 -70.21381,-14.5106 -52.42895,-12.6394 -73.16418,-36.8181 -81.21882,-34.1728 -1.24489,0.4091 -3.47265,1.5148 -6.35,3.0346 l 0,58.7539 z" id="path39547" inkscape:connector-curvature="0"/>
      <path style="color:#000000;fill:#ffea98;fill-opacity:1;fill-rule:nonzero;stroke:none;stroke-width:5;marker:none;visibility:visible;display:inline;overflow:visible;enable-background:accumulate" d="m -319.61668,8518.3105 163.40502,0.7691 -1.4056,-20.1332 c 0,0 -22.00166,2.3453 -74.4306,-10.2939 -52.42895,-12.6394 -72.08992,-35.5803 -80.51603,-34.644 -1.3194,0.1466 -3.9053,1.4645 -7.05279,3.2163 l 0,61.0857 z" id="path39555" inkscape:connector-curvature="0"/>
      <path style="color:#000000;fill:#fff6d1;fill-opacity:1;fill-rule:nonzero;stroke:none;stroke-width:12;marker:none;visibility:visible;display:inline;overflow:visible;enable-background:accumulate" d="m -319.61668,8459.4738 c 6.26756,-3.1496 8.45638,-2.7096 9.86399,-2.8856 1.87248,-0.2341 12.94611,6.8532 15.26318,18.1076 2.31703,11.254 -1.3312,13.5763 -1.3312,13.5763 0,0 15.23203,-4.9673 12.91497,-17.2144 -0.0869,-0.4595 -0.10043,-0.9908 -0.0579,-1.5793 -15.8011,-8.4693 -24.31023,-15.6053 -29.20338,-15.4947 l 0,0.01 c -0.13722,0 -0.26522,0 -0.39688,0.016 -1.31831,0.1465 -3.90922,1.4753 -7.05279,3.2247 l 0,2.2405 z" id="path39552" inkscape:connector-curvature="0"/>
      <path style="color: rgb(0, 0, 0); fill: rgb(255, 229, 129); fill-opacity: 1; fill-rule: nonzero; stroke: rgb(234, 205, 108); stroke-width: 2.6256; stroke-linecap: round; stroke-linejoin: round; stroke-miterlimit: 4; stroke-opacity: 1; stroke-dasharray: none; stroke-dashoffset: 0; marker: none; visibility: visible; display: inline; overflow: visible;" d="m -319.61668,8514.6891 c 51.00122,-0.4924 102.00234,-0.984 153.00359,-1.4719 -1.33583,-12.3838 -18.61981,-5.4824 -27.51667,-9.9798 -33.90865,-6.2545 -68.59187,-14.3282 -97.01939,-34.9083 0.0944,0.6861 -7.29205,-7.5414 -5.25034,-4.8453 9.22941,12.3682 7.52462,28.3051 -9.25216,36.2233 -4.57565,2.1683 -9.24531,3.4941 -13.96503,4.3489 l 0,10.6331 z" id="path39563" inkscape:connector-curvature="0"/>
      <path style="color:#000000;fill:#ffe581;fill-opacity:1;fill-rule:nonzero;stroke:none;stroke-width:12;marker:none;visibility:visible;display:inline;overflow:visible;enable-background:accumulate" d="m -319.61668,8519.0712 163.39675,0 -1.39733,-20.1166 c 0,0 -22.00993,2.3371 -74.43887,-10.3021 -45.73812,-11.0262 -66.52956,-29.8865 -76.68781,-33.9 18.64299,9.3933 27.53577,33.926 1.33117,44.6651 -4.16896,1.7087 -8.22394,2.8435 -12.20391,3.6299 l 0,16.0237 z" id="path39560" inkscape:connector-curvature="0"/>
      <path style="color:#000000;fill:#ffea98;fill-opacity:1;fill-rule:nonzero;stroke:none;stroke-width:12;marker:none;visibility:visible;display:inline;overflow:visible;enable-background:accumulate" d="m -308.74394,8454.7525 c 5.03949,2.5392 9.36318,6.1966 12.47674,10.3767 12.55512,7.5965 31.9497,18.4515 62.55743,25.83 52.42894,12.6396 74.43887,10.3023 74.43887,10.3023 l 1.23196,17.8097 1.81901,0 -1.39733,-20.1166 c 0,0 -22.00993,2.3371 -74.43887,-10.3021 -45.73812,-11.0262 -66.52956,-29.8865 -76.68781,-33.9 z" id="path39568" inkscape:connector-curvature="0"/>
      <path style="color:#000000;fill:#ffea98;fill-opacity:1;fill-rule:nonzero;stroke:none;stroke-width:12;marker:none;visibility:visible;display:inline;overflow:visible;enable-background:accumulate" d="m -319.61668,8505.0482 c 3.44623,-0.7733 6.95251,-1.8444 10.54201,-3.3155 6.78942,-2.7826 11.215,-6.4936 13.73352,-10.6246 -2.64232,3.197 -6.57837,6.0582 -12.07162,8.3095 -4.16896,1.7087 -8.22394,2.8435 -12.20391,3.6299 l 0,2.0007 z" id="path39566" inkscape:connector-curvature="0"/>
      <g transform="translate(-437.33972,0)" id="g39583">
        <path inkscape:connector-curvature="0" id="path38843" d="m 659.58972,8516.2682 0,-58.7539 c -19.02571,10.0491 -70.31413,40.4786 -109.9757,40.4976 l 0.9343,18.2563 109.0414,0 z" style="color: rgb(0, 0, 0); fill: rgb(255, 229, 129); fill-opacity: 1; fill-rule: nonzero; stroke: rgb(234, 205, 108); stroke-width: 2.6256; stroke-miterlimit: 4; stroke-opacity: 1; stroke-dasharray: none; marker: none; visibility: visible; display: inline; overflow: visible;"/>
        <path inkscape:connector-curvature="0" id="path38841" d="m 659.58972,8518.3105 0,-61.0857 c -16.95299,9.4356 -58.98666,37.5811 -114.65555,37.9762 -18.39338,1.2541 -74.52153,7.3668 -74.52153,7.3668 1.25409,9.6147 75.86101,15.2053 75.86101,15.2053 l 113.31607,0.5374 z" style="color:#000000;fill:#ffea98;fill-opacity:1;fill-rule:nonzero;stroke:none;stroke-width:5;marker:none;visibility:visible;display:inline;overflow:visible;enable-background:accumulate"/>
        <path inkscape:connector-curvature="0" id="path38869" d="m 659.58972,8459.4738 0,-2.2405 c -16.6216,9.2487 -57.36053,36.4897 -111.45573,37.9179 27.56035,5.1443 92.5054,-23.9921 103.79935,-31.2372 3.07949,-1.9757 5.58671,-3.4002 7.65638,-4.4402 z" style="color:#000000;fill:#fff6d1;fill-opacity:1;fill-rule:nonzero;stroke:none;stroke-width:12;marker:none;visibility:visible;display:inline;overflow:visible;enable-background:accumulate"/>
        <path inkscape:connector-curvature="0" id="path38850" d="m 659.58972,8514.6891 0,-10.6331 c -24.74656,4.4824 -51.13806,-5.8271 -75.71216,2.4805 -7.00879,1.048 -24.67049,11.7062 -8.03672,8.9546 27.9164,-0.2561 55.83259,-0.5326 83.74888,-0.802 z" style="color: rgb(0, 0, 0); fill: rgb(255, 229, 129); fill-opacity: 1; fill-rule: nonzero; stroke: rgb(234, 205, 108); stroke-width: 2.6256; stroke-linecap: round; stroke-linejoin: round; stroke-miterlimit: 4; stroke-opacity: 1; stroke-dasharray: none; stroke-dashoffset: 0; marker: none; visibility: visible; display: inline; overflow: visible;"/>
        <path inkscape:connector-curvature="0" id="path38845" d="m 659.58972,8519.0712 0,-16.0237 c -23.2806,4.5997 -43.86275,-4.2104 -67.84909,0.5868 -22.06291,4.4127 -36.28705,12.2605 -41.39075,15.4369 l 109.23984,0 z" style="color:#000000;fill:#ffe581;fill-opacity:1;fill-rule:nonzero;stroke:none;stroke-width:12;marker:none;visibility:visible;display:inline;overflow:visible;enable-background:accumulate"/>
        <path inkscape:connector-curvature="0" id="path38874" d="m 659.58972,8505.0482 0,-2.0007 c -23.2806,4.5997 -43.86275,-4.2104 -67.84909,0.5868 -22.06291,4.4127 -36.28705,12.2605 -41.39075,15.4369 l 2.34817,0 c 6.92619,-3.7762 19.60328,-9.5729 37.38894,-13.13 24.5563,-4.9112 45.53355,4.4868 69.50273,-0.893 z" style="color:#000000;fill:#ffea98;fill-opacity:1;fill-rule:nonzero;stroke:none;stroke-width:12;marker:none;visibility:visible;display:inline;overflow:visible;enable-background:accumulate"/>
      </g>
      <g transform="translate(-9.6858902e-6,-2.9638915e-7)" id="g39379">
        <g id="g38975" transform="matrix(1.1626323,0,0,1.1626323,-394.39265,-1349.2357)">
          <g id="g38961">
            <g id="g38911" transform="translate(383.44504,-23.669447)">
              <path sodipodi:nodetypes="ccscccccc" style="color: rgb(0, 0, 0); fill: rgb(255, 102, 0); fill-opacity: 1; fill-rule: nonzero; stroke: rgb(234, 205, 108); stroke-width: 12; stroke-linejoin: round; stroke-opacity: 1; marker: none; visibility: visible; display: inline; overflow: visible;" d="m -489.79221,32068.318 c 215.07481,-48.798 301.82767,-166.276 328.93794,-168.083 27.11027,-1.808 101.211676,95.789 247.607133,130.129 146.395457,34.339 199.712327,42.925 199.712327,42.925 l -29.8213,44.731 -920.79363,2.254 -91.51416,4.182 148.91241,-33.354 z" id="path38909" inkscape:connector-curvature="0" transform="matrix(0.26458334,0,0,0.26458334,-6.3049604e-6,18.562493)"/>
              <path transform="matrix(0.26458334,0,0,0.26458334,-6.3049604e-6,18.562493)" inkscape:connector-curvature="0" id="path38907" d="m -489.79221,32068.318 c 215.07481,-48.798 301.82767,-166.276 328.93794,-168.083 27.11027,-1.808 101.211676,95.789 247.607133,130.129 146.395457,34.339 211.460107,36.147 211.460107,36.147 l 0,72.294 -1084.41079,0 18.07351,-16.266 z" style="color:#000000;fill:#ffea98;fill-opacity:1;fill-rule:nonzero;stroke:none;stroke-width:12;marker:none;visibility:visible;display:inline;overflow:visible;enable-background:accumulate"/>
              <path style="color:#000000;fill:#fff6d5;fill-opacity:1;fill-rule:nonzero;stroke:none;stroke-width:12;marker:none;visibility:visible;display:inline;overflow:visible;enable-background:accumulate" d="m 1270.875,31828.125 c 0.6428,-1.078 1.197,-2.137 1.9688,-3.25 1.4325,-2.065 3.0854,-4.179 5,-6.375 1.883,-2.16 4.0413,-4.387 6.4374,-6.688 -31.1665,11.348 -119.4895,120.439 -324.8437,167.032 l -278.3125,54.25 -2.1875,1.968 c 33.50214,-5.929 272.89482,-48.31 293.15625,-51.687 180.14815,-40.874 261.21505,-127.165 298.78125,-155.25 z" id="path38959" transform="matrix(0.26458334,0,0,0.26458334,-383.44505,42.23194)" inkscape:connector-curvature="0"/>
              <path style="color: rgb(0, 0, 0); fill: rgb(255, 230, 132); fill-opacity: 1; fill-rule: nonzero; stroke: rgb(234, 205, 108); stroke-width: 3.175; stroke-opacity: 1; marker: none; visibility: visible; display: inline; overflow: visible;" d="m -42.75,8459.6562 c -4.17076,2.9848 -7.297389,9.5889 -3.19922,13.9961 4.34481,5.2848 13.563951,8.2976 14.221717,15.9763 1.39239,7.4317 -5.869453,10.071 -8.928747,18.5276 -1.407631,6.4187 -0.137067,7.5807 1.193754,9.4448 39.19583333,0 67.034535,-2.8691 106.230368,-2.8691 0,-5.8646 8.727059,-3.5998 8.727059,-9.4644 -20.908521,-1.8378 -38.928494,-7.7241 -59.235309,-12.9349 -17.1288871,-5.0425 -32.715212,-14.2396 -46.68676,-25.2206 -3.674046,-2.5482 -7.047477,-5.7275 -11.249116,-7.3665 l -1.073742,-0.089 -4e-6,0 z" id="path38920" inkscape:connector-curvature="0" sodipodi:nodetypes="ccccccccccccc"/>
              <path style="color:#000000;fill:#ffe684;fill-opacity:1;fill-rule:nonzero;stroke:none;stroke-width:12;marker:none;visibility:visible;display:inline;overflow:visible;enable-background:accumulate" d="m -159.5625,31900.219 c -0.44664,-0.02 -0.85765,0 -1.28125,0.03 -1.21753,0.08 -2.56691,0.375 -4.03125,0.906 -19.56263,18.735 -21.36067,32.564 -17.875,45.344 6.36248,23.745 48.98725,35.528 54.9375,66.469 6.38996,33.228 -19.14781,44.722 -28.09375,70.281 -5.3036,15.153 -2.96597,38.786 -0.1875,55.562 l 454.3125,0 0,-72.312 c 0,0 -65.07329,-1.786 -211.46875,-36.125 -144.108029,-33.803 -218.17422,-128.917 -246.3125,-130.156 z" transform="matrix(0.26458334,0,0,0.26458334,-6.3049604e-6,18.562493)" id="path38917" inkscape:connector-curvature="0"/>
              <path style="color:#000000;fill:#fff6d5;fill-opacity:1;fill-rule:nonzero;stroke:none;stroke-width:12;marker:none;visibility:visible;display:inline;overflow:visible;enable-background:accumulate" d="m 1485.1875,31925.656 c 7.9359,2.919 16.1283,5.696 24.5937,8.25 8.4655,2.554 17.212,4.888 26.2188,7 -18.0135,-4.225 -34.9407,-9.412 -50.8125,-15.25 z" id="path38957" transform="matrix(0.26458334,0,0,0.26458334,-383.44505,42.23194)" inkscape:connector-curvature="0"/>
              <path style="color:#000000;fill:#fff6d5;fill-opacity:1;fill-rule:nonzero;stroke:none;stroke-width:12;marker:none;visibility:visible;display:inline;overflow:visible;enable-background:accumulate" d="m 1420.6875,31896 c 6.4179,3.56 13.0566,7.078 19.9687,10.5 6.9122,3.422 14.0819,6.76 21.5,9.969 7.4182,3.208 15.0954,6.268 23.0313,9.187 -23.8077,-8.757 -45.2462,-18.975 -64.5,-29.656 z" id="path38955" transform="matrix(0.26458334,0,0,0.26458334,-383.44505,42.23194)" inkscape:connector-curvature="0"/>
              <path style="color:#000000;fill:#fff6d5;fill-opacity:1;fill-rule:nonzero;stroke:none;stroke-width:12;marker:none;visibility:visible;display:inline;overflow:visible;enable-background:accumulate" d="m 1385.0625,31874.344 c 5.4648,3.609 11.1583,7.252 17.0937,10.875 5.9355,3.622 12.1134,7.221 18.5313,10.781 -12.8358,-7.121 -24.6954,-14.438 -35.625,-21.656 z" id="path38953" transform="matrix(0.26458334,0,0,0.26458334,-383.44505,42.23194)" inkscape:connector-curvature="0"/>
              <path style="color:#000000;fill:#fff6d5;fill-opacity:1;fill-rule:nonzero;stroke:none;stroke-width:12;marker:none;visibility:visible;display:inline;overflow:visible;enable-background:accumulate" d="m 1302.4375,31815.312 c 2.4998,1.393 5.1744,3.095 8.0625,5.032 2.8881,1.936 5.9932,4.126 9.2812,6.531 6.5762,4.81 13.9406,10.46 22.1876,16.687 -16.4834,-12.447 -29.5365,-22.681 -39.5313,-28.25 z" id="path38951" transform="matrix(0.26458334,0,0,0.26458334,-383.44505,42.23194)" inkscape:connector-curvature="0"/>
              <path style="color:#000000;fill:#fff6d5;fill-opacity:1;fill-rule:nonzero;stroke:none;stroke-width:12;marker:none;visibility:visible;display:inline;overflow:visible;enable-background:accumulate" d="m 1289.6875,31810.75 c -0.4466,-0.02 -0.8889,0 -1.3125,0.03 -1.0584,0.07 -2.2542,0.371 -3.5,0.781 -0.1942,0.06 -0.3949,0.178 -0.5938,0.25 -2.3961,2.301 -4.5544,4.528 -6.4374,6.688 -1.9146,2.196 -3.5675,4.31 -5,6.375 -0.7718,1.113 -1.326,2.172 -1.9688,3.25 7.2832,-5.445 13.0975,-8.925 17.5,-9.219 27.1103,-1.808 101.2295,95.785 247.625,130.125 146.3955,34.339 211.4688,36.157 211.4688,36.157 l 0,-8.126 c 0,0 -25.4133,-0.709 -80.2188,-9.624 -32.8833,-5.35 -76.3517,-13.655 -131.25,-26.532 -9.0068,-2.112 -17.7533,-4.446 -26.2188,-7 -8.4654,-2.554 -16.6578,-5.331 -24.5937,-8.25 -7.9359,-2.919 -15.6131,-5.979 -23.0313,-9.187 -7.4181,-3.209 -14.5878,-6.547 -21.5,-9.969 -6.9121,-3.422 -13.5508,-6.94 -19.9687,-10.5 -6.4179,-3.56 -12.5958,-7.159 -18.5313,-10.781 -5.9354,-3.623 -11.6289,-7.266 -17.0937,-10.875 -16.4042,-10.834 -30.7183,-21.436 -43.0937,-30.782 -8.247,-6.227 -15.6114,-11.877 -22.1876,-16.687 -3.288,-2.405 -6.3931,-4.595 -9.2812,-6.531 -2.8881,-1.937 -5.5627,-3.639 -8.0625,-5.032 -2.4998,-1.392 -4.8142,-2.477 -6.9375,-3.25 -2.1233,-0.772 -4.0539,-1.235 -5.8125,-1.312 z" id="path38949" transform="matrix(0.26458334,0,0,0.26458334,-383.44505,42.23194)" inkscape:connector-curvature="0"/>
              <path style="color:#000000;fill:#fff6d5;fill-opacity:1;fill-rule:nonzero;stroke:none;stroke-width:12;marker:none;visibility:visible;display:inline;overflow:visible;enable-background:accumulate" d="m 1289.6875,31810.75 c 1.7586,0.08 3.6892,0.54 5.8125,1.312 2.1233,0.773 4.4377,1.858 6.9375,3.25 -4.9996,-2.785 -9.2327,-4.407 -12.75,-4.562 z" id="path38941" transform="matrix(0.26458334,0,0,0.26458334,-383.44505,42.23194)" inkscape:connector-curvature="0"/>
            </g>
          </g>
        </g>
        <path style="color:#000000;fill:#ffe581;fill-opacity:1;fill-rule:nonzero;stroke:none;stroke-width:12;marker:none;visibility:visible;display:inline;overflow:visible;enable-background:accumulate" d="m -319.61667,8504.5684 541.8667,0 -3e-5,45.3151 -541.86667,0 z" id="rect38363" inkscape:connector-curvature="0" sodipodi:nodetypes="ccccc"/>
        <g id="g38345" transform="matrix(0.19650608,0,0,0.21293302,-238.49966,8515.4238)">
          <path style="color: rgb(0, 0, 0); fill: rgb(255, 234, 152); fill-opacity: 1; fill-rule: nonzero; stroke: rgb(234, 205, 108); stroke-width: 53.7753; stroke-linejoin: round; stroke-miterlimit: 4; stroke-opacity: 1; stroke-dasharray: none; marker: none; visibility: visible; display: inline; overflow: visible;" d="m -1357.778,-297.3516 c 675.09295,-95.10479 1904.73945,-811.3239 2117.26265,-778.2885 132.11765,20.5368 404.99975,402.45582 1141.67535,588.2839 736.6756,185.82808 795.6338,247.97404 795.6338,247.97404 l -1200.3494,-41.45434 -1933.47704,150.17177 -915.10916,-0.30982 z" id="path38347" inkscape:connector-curvature="0" transform="matrix(0.26458334,0,0,0.26458334,-6.3049604e-6,18.562493)" sodipodi:nodetypes="cssccccc"/>
          <path transform="matrix(0.26458334,0,0,0.26458334,-6.3049604e-6,18.562493)" sodipodi:nodetypes="cssccccc" inkscape:connector-curvature="0" id="path38349" d="m -1367.1637,-314.80155 c 696.85527,-59.73046 1964.46824,-822.95295 2143.65961,-756.58575 179.19136,66.3672 387.98849,398.20302 1124.66409,584.0311 736.6756,185.82808 989.0661,205.73823 989.0661,205.73823 l 0,451.29677 -4350.3039,0 0,-476.70343 c 27.0647,-3.00719 92.9141,-7.77692 92.9141,-7.77692 z" style="color:#000000;fill:#ffea98;fill-opacity:1;fill-rule:nonzero;stroke:none;stroke-width:20;marker:none;visibility:visible;display:inline;overflow:visible;enable-background:accumulate"/>
          <path sodipodi:nodetypes="cssssssc" transform="matrix(0.26458334,0,0,0.26458334,-6.3049604e-6,18.562493)" inkscape:connector-curvature="0" id="path38351" d="m 654.93352,-1010.2531 c -238.56998,208.63532 -550.91361,401.99544 -323.21395,578.38283 231.37226,179.23237 1667.10353,157.35416 1845.72173,182.87105 178.6182,25.51689 408.2702,246.6632714 518.8434,284.938607 110.5732,38.275335 195.6295,-55.286596 131.8373,-97.814746 C 2764.3298,-104.40351 1237.5692,-542.44346 999.41154,-640.25821 761.25389,-738.07295 633.66944,-891.17429 629.41663,-916.69118 c -4.25282,-25.51689 25.51689,-93.56192 25.51689,-93.56192 z" style="color:#000000;fill:#fff4c9;fill-opacity:1;fill-rule:nonzero;stroke:none;stroke-width:25;marker:none;visibility:visible;display:inline;overflow:visible;enable-background:accumulate"/>
          <path id="path38353" transform="matrix(0.26458334,0,0,0.26458334,-6.3049604e-6,18.562493)" d="m 747.5,-1075.4688 c -258.0771,2.0051 -1447.74398,703.49238 -2114.6562,760.6563 0,0 -65.8416,4.77406 -92.9063,7.78125 l 0,42.09375 c 27.0647,-3.00719 92.9063,-7.75 92.9063,-7.75 696.85522,-59.73046 1964.46483,-822.961 2143.6562,-756.5937 179.19136,66.36717 387.9806,398.20312 1124.6562,584.0312 736.6757,185.82808 989.0626,205.71875 989.0626,205.71875 l 0,-42.09375 c 0,0 -252.3869,-19.89067 -989.0626,-205.71875 C 1164.4806,-673.17183 955.69136,-1005.0078 776.5,-1071.375 c -7.69963,-2.8517 -17.41286,-4.1838 -29,-4.0938 z" style="color:#000000;fill:#fff4c9;fill-opacity:1;fill-rule:nonzero;stroke:none;stroke-width:20;marker:none;visibility:visible;display:inline;overflow:visible;enable-background:accumulate" inkscape:connector-curvature="0"/>
          <path sodipodi:nodetypes="scsssss" inkscape:connector-curvature="0" id="path38355" transform="matrix(0.26458334,0,0,0.26458334,-6.3049604e-6,18.562493)" d="m 747.5,-1075.4688 c -11.77416,0.091 -96.7205,67.5742 -137.75154,140.62143 -93.63767,121.24131 -244.29542,168.12033 -312.06378,366.87862 -92.56672,271.48959 1314.11962,229.67146 1845.72152,272.19961 353.233,28.25864 494.4257,-5.74653 -242.25,-191.57461 C 1164.4806,-673.17183 955.69136,-1005.0078 776.5,-1071.375 c -7.69963,-2.8517 -17.41286,-4.1838 -29,-4.0938 z" style="color: rgb(0, 0, 0); fill: rgb(255, 204, 0); fill-opacity: 1; fill-rule: nonzero; stroke: rgb(234, 205, 108); stroke-width: 25; stroke-linecap: round; stroke-linejoin: round; stroke-miterlimit: 4; stroke-opacity: 1; stroke-dasharray: none; stroke-dashoffset: 0; marker: none; visibility: visible; display: inline; overflow: visible;"/>
          <path sodipodi:nodetypes="cccccccccccc" inkscape:connector-curvature="0" id="path38357" d="m 166.44106,-242.3434 c -31.94943,33.87441 -70.942173,65.24628 -86.553421,110.63074 -4.043042,27.5119 30.636821,36.288462 51.009981,43.060176 90.52659,23.139337 184.71352,25.101696 277.5079,30.818252 56.54104,3.560003 113.50115,3.242239 169.74061,10.072505 57.53404,15.549537 102.71459,61.481353 161.91966,72.059784 20.24314,5.542159 28.47811,-7.629426 24.63797,-24.88289887 0,-18.45534213 0,-36.91068613 0,-55.36602813 -96.0003,-12.693581 -190.18994,-36.436639 -283.89726,-60.36418 -83.68737,-22.6849 -162.31201,-63.01153 -229.09394,-118.38591 -16.49541,-10.99206 -34.08266,-28.93014 -54.56571,-32.10678 -7.72911,2.73568 -20.76656,15.26901 -30.70579,24.46434 z" style="color:#000000;fill:#ffe581;fill-opacity:1;fill-rule:nonzero;stroke:none;stroke-width:25;marker:none;visibility:visible;display:inline;overflow:visible;enable-background:accumulate"/>
          <path sodipodi:nodetypes="cccsscccc" inkscape:connector-curvature="0" id="path38359" transform="matrix(0.26458334,0,0,0.26458334,-6.3049604e-6,18.562493)" d="m 745.125,-1078.5625 c -29.21238,10.3396 -78.49691,57.7147 -116.0625,92.46875 -43.29191,45.90028 -89.97631,90.59232 -134.8125,136.9375 105.36765,-92.40572 237.31859,-188.52915 267,-195.12495 38.27534,-8.5058 233.91758,246.67733 718.7385,450.81245 394.9456,166.29291 937.8854,256.37447 1226.324,284.0625 -299.5368,-50.6217 -594.9479,-125.26681 -889.0937,-200.375 -316.2988,-85.7382 -613.4709,-238.14851 -865.87505,-447.4375 -62.34486,-41.54479 -128.8025,-109.33755 -206.21875,-121.34375 z" style="color:#000000;fill:#ffea98;fill-opacity:1;fill-rule:nonzero;stroke:none;stroke-width:25;marker:none;visibility:visible;display:inline;overflow:visible;enable-background:accumulate"/>
          <path id="path38361" transform="matrix(0.26458334,0,0,0.26458334,-6.3049604e-6,18.562493)" d="m -1441.0312,-308.875 c -7.1929,0.65124 -13.9082,1.27451 -19.0313,1.84375 l 0,13.3125 c 5.8079,-5.00215 12.1625,-10.049 19.0313,-15.15625 z m -19.0313,192 0,286.5625 4350.2813,0 0,-62.5 c -223.9043,7.078 -569.1624,0.45013 -908.4063,-75.5 -569.8772,-127.584452 -1182.29257,-144.59571 -2109.40625,0 C -913.54338,154.2668 -1326.5821,20.094147 -1460.0625,-116.875 z" style="opacity:0.40265485;color:#000000;fill:#ffde5f;fill-opacity:1;fill-rule:nonzero;stroke:none;stroke-width:25;marker:none;visibility:visible;display:inline;overflow:visible;enable-background:accumulate" inkscape:connector-curvature="0"/>
        </g>
        <path inkscape:connector-curvature="0" id="path39165" d="m 134.66465,8458.1676 c -10.23223,0.5873 -34.153,25.2907 -89.379562,38.6043 -58.908323,14.2012 -78.895445,16.3049 -78.895445,16.3049 l 6.837826,14.7341 247.006551,0 0,-29.1126 c -39.97119,-13.3321 -75.97987,-37.7828 -83.69248,-40.3159 -0.56563,-0.1857 -1.19474,-0.254 -1.87689,-0.2148 z" style="color: rgb(0, 0, 0); fill: rgb(255, 229, 129); fill-opacity: 1; fill-rule: nonzero; stroke: rgb(234, 205, 108); stroke-width: 2.95008; stroke-miterlimit: 4; stroke-opacity: 1; stroke-dasharray: none; marker: none; visibility: visible; display: inline; overflow: visible;" sodipodi:nodetypes="cscccccc"/>
        <path inkscape:connector-curvature="0" id="path39167" d="m 134.82174,8457.8286 c -9.95874,0.5686 -32.46921,25.1857 -89.536652,38.9433 -58.908323,14.2012 -83.63314,11.5755 -83.63314,11.5755 l -1.579232,22.6137 262.177284,-2.2443 0,-31.75 c -47.35287,-12.7325 -79.33872,-38.3174 -86.50221,-39.1136 -0.29586,-0.033 -0.6048,-0.043 -0.92605,-0.024 z" style="color:#000000;fill:#ffe581;fill-opacity:1;fill-rule:nonzero;stroke:none;stroke-width:5;marker:none;visibility:visible;display:inline;overflow:visible;enable-background:accumulate" sodipodi:nodetypes="csccccccc"/>
        <path inkscape:connector-curvature="0" id="path39169" d="m 135.3013,8457.8286 c -5.49785,-0.1243 -15.05445,7.8886 -32.80833,17.4046 0.0478,0.6612 0.0315,1.2533 -0.0661,1.7693 -2.603404,13.7609 14.51074,19.3476 14.51074,19.3476 0,0 -4.09995,-2.6096 -1.49655,-15.2548 2.60341,-12.6452 15.04444,-20.611 17.14831,-20.3481 2.10387,0.263 5.74852,-0.7064 19.68666,8.2352 7.99253,5.1274 39.71106,19.9064 69.97397,28.7782 l 0,-0.7938 c -47.34572,-12.7331 -79.3394,-38.3177 -86.50216,-39.1136 -0.14793,-0.016 -0.2923,-0.024 -0.44649,-0.024 z" style="color:#000000;fill:#fff6d1;fill-opacity:1;fill-rule:nonzero;stroke:none;stroke-width:12;marker:none;visibility:visible;display:inline;overflow:visible;enable-background:accumulate" sodipodi:nodetypes="ccccscsccccc"/>
        <path inkscape:connector-curvature="0" id="path39171" d="m 117.98763,8467.8992 c -0.0507,-0.2707 -6.39324,6.7186 -6.30039,6.0441 -31.94073,23.1236 -70.917386,32.1969 -109.0166063,39.2245 -9.9963732,5.053 -29.4057287,-2.7109 -30.9066417,11.2035 83.555287,0.7991 162.885728,1.6389 246.441218,2.4141 l -0.5072,-11.6829 c -31.10734,-7.1052 -59.65762,8.3391 -89.71409,-5.9034 -18.85011,-8.8966 -20.76318,-26.7999 -10.39317,-40.6964 0.28676,-0.3786 0.40412,-0.5649 0.39688,-0.6035 z" style="color: rgb(0, 0, 0); fill: rgb(255, 229, 129); fill-opacity: 1; fill-rule: nonzero; stroke: rgb(234, 205, 108); stroke-width: 2.95008; stroke-linecap: round; stroke-linejoin: round; stroke-miterlimit: 4; stroke-opacity: 1; stroke-dasharray: none; stroke-dashoffset: 0; marker: none; visibility: visible; display: inline; overflow: visible;" sodipodi:nodetypes="ccccccccc"/>
        <path inkscape:connector-curvature="0" id="path39173" d="m 131.45657,8458.6885 c -11.41366,4.5091 -34.780857,25.6945 -86.171482,38.0834 -58.908322,14.2012 -83.63314,11.5755 -83.63314,11.5755 l -196.196348,22.6137 456.7944,-0.1276 0,-16.6688 c -0.86057,-0.186 -1.46518,-0.3823 -2.34818,-0.5587 -31.55803,-6.3117 -57.84952,8.4198 -89.93353,-4.7295 -29.44307,-12.0665 -19.45869,-39.6343 1.48828,-50.188 z" style="color:#000000;fill:#ffea98;fill-opacity:1;fill-rule:nonzero;stroke:none;stroke-width:12;marker:none;visibility:visible;display:inline;overflow:visible;enable-background:accumulate" sodipodi:nodetypes="csccccccc"/>
        <path inkscape:connector-curvature="0" id="path39189" d="m 222.25,8514.1849 c -0.86057,-0.186 -1.46518,-0.4025 -2.34818,-0.5789 -31.55803,-6.3117 -57.84952,8.4198 -89.93353,-4.7295 -6.17214,-2.5294 -10.60756,-5.7427 -13.57643,-9.3347 2.82975,4.6416 7.80828,8.8043 15.43678,11.9311 32.08401,13.1493 58.20187,-1.574 89.7599,4.7376 0.22905,0.046 0.43393,0.1024 0.66146,0.1487 z" style="color:#000000;fill:#fff2be;fill-opacity:1;fill-rule:nonzero;stroke:none;stroke-width:12;marker:none;visibility:visible;display:inline;overflow:visible;enable-background:accumulate" sodipodi:nodetypes="cccccccc"/>
        <path style="color:#000000;fill:#fff2be;fill-opacity:1;fill-rule:nonzero;stroke:none;stroke-width:12;marker:none;visibility:visible;display:inline;overflow:visible;enable-background:accumulate" d="m 496.84375,31899.688 c -43.13824,17.043 -131.45522,97.113 -325.6875,143.937 -125.238162,30.192 -209.594507,40.25 -259.4375,43.281 -5.53811,0.337 -472.8125,48.438 -472.8125,48.438 0,0 339.1753,-20.264 423.1875,-28.571 0,0 93.479374,0.339 316.125,-53.335 129.95045,-31.327 212.27597,-77.399 265.59375,-109.657 0.009,-0.01 0.0225,-0.02 0.0312,-0.03 0.82868,-1.113 1.66256,-2.218 2.53125,-3.312 0.69013,-0.87 1.41021,-1.737 2.125,-2.594 0.2419,-0.29 0.47407,-0.587 0.71875,-0.875 0.0619,-0.07 0.12544,-0.146 0.1875,-0.219 3.36487,-3.955 6.98445,-7.759 10.84375,-11.406 0.11198,-0.106 0.23138,-0.207 0.34375,-0.313 0.26295,-0.247 0.51616,-0.504 0.78125,-0.75 0.82116,-0.76 1.6586,-1.505 2.5,-2.25 0.11048,-0.1 0.23292,-0.183 0.34375,-0.281 1.01383,-0.892 2.02034,-1.787 3.0625,-2.656 0.93282,-0.778 1.88888,-1.554 2.84375,-2.313 0.63851,-0.507 1.28937,-1.001 1.9375,-1.5 0.40675,-0.312 0.80826,-0.628 1.21875,-0.937 0.37442,-0.282 0.74751,-0.565 1.125,-0.844 1.09085,-0.806 2.19654,-1.595 3.3125,-2.375 1.14397,-0.799 2.29927,-1.573 3.46875,-2.344 0.12528,-0.08 0.24943,-0.167 0.375,-0.25 0.798,-0.523 1.59682,-1.053 2.40625,-1.562 0.60249,-0.38 1.20382,-0.753 1.8125,-1.125 0.2595,-0.159 0.52064,-0.312 0.78125,-0.469 0.9776,-0.589 1.97582,-1.181 2.96875,-1.75 1.1024,-0.631 2.22305,-1.269 3.34375,-1.875 0.0124,0 0.0189,-0.03 0.0312,-0.03 1.2966,-0.701 2.61736,-1.366 3.9375,-2.031 z" transform="matrix(0.26458334,0,0,0.26458334,-6.3049604e-6,18.562493)" id="path39175" inkscape:connector-curvature="0" sodipodi:nodetypes="cscccscccccccccccccccccccccccccc"/>
        <g id="g39249" transform="translate(-542.04858,-0.02015105)">
          <path style="color:#000000;fill:#ffe581;fill-opacity:1;fill-rule:nonzero;stroke:none;stroke-width:5;marker:none;visibility:visible;display:inline;overflow:visible;enable-background:accumulate" d="m 222.4319,8497.1605 0,32.5602 48.55933,-0.2315 c 0,0 118.67864,-6.2791 120.08776,-17.0821 0,0 -97.91642,-6.859 -118.58297,-8.2682 -18.04729,-0.128 -34.83458,-2.8834 -50.06412,-6.9784 z" id="path39182" inkscape:connector-curvature="0"/>
          <path style="color:#000000;fill:#fff6d1;fill-opacity:1;fill-rule:nonzero;stroke:none;stroke-width:12;marker:none;visibility:visible;display:inline;overflow:visible;enable-background:accumulate" d="m 222.4319,8497.1521 0,0.6948 c 17.78538,5.2136 35.01332,8.3735 46.47573,6.2341 -16.68976,-0.4408 -32.26011,-3.1057 -46.47573,-6.9289 z" id="path39207" inkscape:connector-curvature="0"/>
          <path style="color: rgb(0, 0, 0); fill: rgb(255, 229, 129); fill-opacity: 1; fill-rule: nonzero; stroke: rgb(234, 205, 108); stroke-width: 2.95008; stroke-linecap: round; stroke-linejoin: round; stroke-miterlimit: 4; stroke-opacity: 1; stroke-dasharray: none; stroke-dashoffset: 0; marker: none; visibility: visible; display: inline; overflow: visible;" d="m 237.77774,8526.9344 c 18.68942,3.0916 -1.16224,-8.885 -9.03718,-10.0624 -2.09042,-0.7067 3.92192,10.0155 9.03718,10.0624 z" id="path39234" inkscape:connector-curvature="0" sodipodi:nodetypes="ccc"/>
          <path style="color:#000000;fill:#ffea98;fill-opacity:1;fill-rule:nonzero;stroke:none;stroke-width:12;marker:none;visibility:visible;display:inline;overflow:visible;enable-background:accumulate" d="m 222.4319,8514.1849 0,16.7762 43.9787,0 c -5.53018,-3.442 -20.67899,-11.7407 -43.9787,-16.7762 z" id="path39194" inkscape:connector-curvature="0"/>
          <path style="color:#000000;fill:#fff2be;fill-opacity:1;fill-rule:nonzero;stroke:none;stroke-width:12;marker:none;visibility:visible;display:inline;overflow:visible;enable-background:accumulate" d="m 222.4319,8514.1849 0,2.1743 c 19.62436,4.0074 33.6482,10.4077 41.34115,14.6019 l 2.63755,0 c -5.53018,-3.442 -20.67899,-11.7407 -43.9787,-16.7762 z" id="path39187" inkscape:connector-curvature="0"/>
        </g>
        <g transform="matrix(1.1626323,0,0,1.1626323,-504.62465,-1349.2357)" id="g39260">
          <g id="g39262">
            <g transform="translate(383.44504,-23.669447)" id="g39264">
              <path transform="matrix(0.26458334,0,0,0.26458334,-6.3049604e-6,18.562493)" inkscape:connector-curvature="0" id="path39266" d="m -489.79221,32068.318 c 215.07481,-48.798 301.82767,-166.276 328.93794,-168.083 27.11027,-1.808 101.211676,95.789 247.607133,130.129 146.395457,34.339 199.712327,42.925 199.712327,42.925 l -29.8213,44.731 -920.79363,2.254 -91.51416,4.182 148.91241,-33.354 z" style="color: rgb(0, 0, 0); fill: rgb(255, 102, 0); fill-opacity: 1; fill-rule: nonzero; stroke: rgb(234, 205, 108); stroke-width: 12; stroke-linejoin: round; stroke-opacity: 1; marker: none; visibility: visible; display: inline; overflow: visible;" sodipodi:nodetypes="ccscccccc"/>
              <path style="color:#000000;fill:#ffea98;fill-opacity:1;fill-rule:nonzero;stroke:none;stroke-width:12;marker:none;visibility:visible;display:inline;overflow:visible;enable-background:accumulate" d="m -489.79221,32068.318 c 215.07481,-48.798 301.82767,-166.276 328.93794,-168.083 27.11027,-1.808 101.211676,95.789 247.607133,130.129 146.395457,34.339 211.460107,36.147 211.460107,36.147 l 0,72.294 -1084.41079,0 18.07351,-16.266 z" id="path39268" inkscape:connector-curvature="0" transform="matrix(0.26458334,0,0,0.26458334,-6.3049604e-6,18.562493)"/>
              <path inkscape:connector-curvature="0" transform="matrix(0.26458334,0,0,0.26458334,-383.44505,42.23194)" id="path39270" d="m 1270.875,31828.125 c 0.6428,-1.078 1.197,-2.137 1.9688,-3.25 1.4325,-2.065 3.0854,-4.179 5,-6.375 1.883,-2.16 4.0413,-4.387 6.4374,-6.688 -31.1665,11.348 -119.4895,120.439 -324.8437,167.032 l -278.3125,54.25 -2.1875,1.968 c 33.50214,-5.929 272.89482,-48.31 293.15625,-51.687 180.14815,-40.874 261.21505,-127.165 298.78125,-155.25 z" style="color:#000000;fill:#fff6d5;fill-opacity:1;fill-rule:nonzero;stroke:none;stroke-width:12;marker:none;visibility:visible;display:inline;overflow:visible;enable-background:accumulate"/>
              <path sodipodi:nodetypes="ccccccccccccc" inkscape:connector-curvature="0" id="path39272" d="m -42.75,8459.6562 c -4.17076,2.9848 -7.297389,9.5889 -3.19922,13.9961 4.34481,5.2848 13.563951,8.2976 14.221717,15.9763 1.39239,7.4317 -5.869453,10.071 -8.928747,18.5276 -1.407631,6.4187 -0.137067,7.5807 1.193754,9.4448 39.19583333,0 67.034535,-2.8691 106.230368,-2.8691 0,-5.8646 8.727059,-3.5998 8.727059,-9.4644 -20.908521,-1.8378 -38.928494,-7.7241 -59.235309,-12.9349 -17.1288871,-5.0425 -32.715212,-14.2396 -46.68676,-25.2206 -3.674046,-2.5482 -7.047477,-5.7275 -11.249116,-7.3665 l -1.073742,-0.089 -4e-6,0 z" style="color: rgb(0, 0, 0); fill: rgb(255, 230, 132); fill-opacity: 1; fill-rule: nonzero; stroke: rgb(234, 205, 108); stroke-width: 3.175; stroke-opacity: 1; marker: none; visibility: visible; display: inline; overflow: visible;"/>
              <path inkscape:connector-curvature="0" id="path39274" transform="matrix(0.26458334,0,0,0.26458334,-6.3049604e-6,18.562493)" d="m -159.5625,31900.219 c -0.44664,-0.02 -0.85765,0 -1.28125,0.03 -1.21753,0.08 -2.56691,0.375 -4.03125,0.906 -19.56263,18.735 -21.36067,32.564 -17.875,45.344 6.36248,23.745 48.98725,35.528 54.9375,66.469 6.38996,33.228 -19.14781,44.722 -28.09375,70.281 -5.3036,15.153 -679.9799,38.786 -677.20143,55.562 l 1726.17847,0 -594.85204,-72.312 c 0,0 -65.07329,-1.786 -211.46875,-36.125 -144.108029,-33.803 -218.17422,-128.917 -246.3125,-130.156 z" style="color:#000000;fill:#ffe684;fill-opacity:1;fill-rule:nonzero;stroke:none;stroke-width:12;marker:none;visibility:visible;display:inline;overflow:visible;enable-background:accumulate" sodipodi:nodetypes="ccccsscccscc"/>
              <path inkscape:connector-curvature="0" transform="matrix(0.26458334,0,0,0.26458334,-383.44505,42.23194)" id="path39276" d="m 1485.1875,31925.656 c 7.9359,2.919 16.1283,5.696 24.5937,8.25 8.4655,2.554 17.212,4.888 26.2188,7 -18.0135,-4.225 -34.9407,-9.412 -50.8125,-15.25 z" style="color:#000000;fill:#fff6d5;fill-opacity:1;fill-rule:nonzero;stroke:none;stroke-width:12;marker:none;visibility:visible;display:inline;overflow:visible;enable-background:accumulate"/>
              <path inkscape:connector-curvature="0" transform="matrix(0.26458334,0,0,0.26458334,-383.44505,42.23194)" id="path39278" d="m 1420.6875,31896 c 6.4179,3.56 13.0566,7.078 19.9687,10.5 6.9122,3.422 14.0819,6.76 21.5,9.969 7.4182,3.208 15.0954,6.268 23.0313,9.187 -23.8077,-8.757 -45.2462,-18.975 -64.5,-29.656 z" style="color:#000000;fill:#fff6d5;fill-opacity:1;fill-rule:nonzero;stroke:none;stroke-width:12;marker:none;visibility:visible;display:inline;overflow:visible;enable-background:accumulate"/>
              <path inkscape:connector-curvature="0" transform="matrix(0.26458334,0,0,0.26458334,-383.44505,42.23194)" id="path39280" d="m 1385.0625,31874.344 c 5.4648,3.609 11.1583,7.252 17.0937,10.875 5.9355,3.622 12.1134,7.221 18.5313,10.781 -12.8358,-7.121 -24.6954,-14.438 -35.625,-21.656 z" style="color:#000000;fill:#fff6d5;fill-opacity:1;fill-rule:nonzero;stroke:none;stroke-width:12;marker:none;visibility:visible;display:inline;overflow:visible;enable-background:accumulate"/>
              <path inkscape:connector-curvature="0" transform="matrix(0.26458334,0,0,0.26458334,-383.44505,42.23194)" id="path39282" d="m 1302.4375,31815.312 c 2.4998,1.393 5.1744,3.095 8.0625,5.032 2.8881,1.936 5.9932,4.126 9.2812,6.531 6.5762,4.81 13.9406,10.46 22.1876,16.687 -16.4834,-12.447 -29.5365,-22.681 -39.5313,-28.25 z" style="color:#000000;fill:#fff6d5;fill-opacity:1;fill-rule:nonzero;stroke:none;stroke-width:12;marker:none;visibility:visible;display:inline;overflow:visible;enable-background:accumulate"/>
              <path inkscape:connector-curvature="0" transform="matrix(0.26458334,0,0,0.26458334,-383.44505,42.23194)" id="path39284" d="m 1289.6875,31810.75 c -0.4466,-0.02 -0.8889,0 -1.3125,0.03 -1.0584,0.07 -2.2542,0.371 -3.5,0.781 -0.1942,0.06 -0.3949,0.178 -0.5938,0.25 -2.3961,2.301 -4.5544,4.528 -6.4374,6.688 -1.9146,2.196 -3.5675,4.31 -5,6.375 -0.7718,1.113 -1.326,2.172 -1.9688,3.25 7.2832,-5.445 13.0975,-8.925 17.5,-9.219 27.1103,-1.808 101.2295,95.785 247.625,130.125 146.3955,34.339 308.4198,42.73 308.4198,42.73 l -96.951,-14.699 c 0,0 -25.4133,-0.709 -80.2188,-9.624 -32.8833,-5.35 -76.3517,-13.655 -131.25,-26.532 -9.0068,-2.112 -17.7533,-4.446 -26.2188,-7 -8.4654,-2.554 -16.6578,-5.331 -24.5937,-8.25 -7.9359,-2.919 -15.6131,-5.979 -23.0313,-9.187 -7.4181,-3.209 -14.5878,-6.547 -21.5,-9.969 -6.9121,-3.422 -13.5508,-6.94 -19.9687,-10.5 -6.4179,-3.56 -12.5958,-7.159 -18.5313,-10.781 -5.9354,-3.623 -11.6289,-7.266 -17.0937,-10.875 -16.4042,-10.834 -30.7183,-21.436 -43.0937,-30.782 -8.247,-6.227 -15.6114,-11.877 -22.1876,-16.687 -3.288,-2.405 -6.3931,-4.595 -9.2812,-6.531 -2.8881,-1.937 -5.5627,-3.639 -8.0625,-5.032 -2.4998,-1.392 -4.8142,-2.477 -6.9375,-3.25 -2.1233,-0.772 -4.0539,-1.235 -5.8125,-1.312 z" style="color:#000000;fill:#fff6d5;fill-opacity:1;fill-rule:nonzero;stroke:none;stroke-width:12;marker:none;visibility:visible;display:inline;overflow:visible;enable-background:accumulate" sodipodi:nodetypes="ccccccccsccccsscssccccccccc"/>
              <path inkscape:connector-curvature="0" transform="matrix(0.26458334,0,0,0.26458334,-383.44505,42.23194)" id="path39286" d="m 1289.6875,31810.75 c 1.7586,0.08 3.6892,0.54 5.8125,1.312 2.1233,0.773 4.4377,1.858 6.9375,3.25 -4.9996,-2.785 -9.2327,-4.407 -12.75,-4.562 z" style="color:#000000;fill:#fff6d5;fill-opacity:1;fill-rule:nonzero;stroke:none;stroke-width:12;marker:none;visibility:visible;display:inline;overflow:visible;enable-background:accumulate"/>
            </g>
          </g>
        </g>
      </g>
    </g>
  </g>
</svg>