<?xml version="1.0" encoding="UTF-8" standalone="no"?>
<!-- Created with Inkscape (http://www.inkscape.org/) -->

<svg
   xmlns:dc="http://purl.org/dc/elements/1.1/"
   xmlns:cc="http://creativecommons.org/ns#"
   xmlns:rdf="http://www.w3.org/1999/02/22-rdf-syntax-ns#"
   xmlns:svg="http://www.w3.org/2000/svg"
   xmlns="http://www.w3.org/2000/svg"
   xmlns:xlink="http://www.w3.org/1999/xlink"
   xmlns:sodipodi="http://sodipodi.sourceforge.net/DTD/sodipodi-0.dtd"
   xmlns:inkscape="http://www.inkscape.org/namespaces/inkscape"
   width="2048"
   height="398.52222"
   viewBox="0 0 541.86665 105.44234"
   version="1.1"
   id="svg23489"
   inkscape:version="0.48.5 r10040"
   sodipodi:docname="far_ground_03.svg">
  <defs
     id="defs23483">
    <linearGradient
       inkscape:collect="always"
       id="linearGradient12916">
      <stop
         style="stop-color:#ffea98;stop-opacity:1;"
         offset="0"
         id="stop12918" />
      <stop
         style="stop-color:#ffea98;stop-opacity:0;"
         offset="1"
         id="stop12920" />
    </linearGradient>
    <clipPath
       clipPathUnits="userSpaceOnUse"
       id="clipPath39661">
      <rect
         style="opacity:0.80973451;color:#000000;fill:#fff2be;fill-opacity:1;fill-rule:nonzero;stroke:none;stroke-width:10;marker:none;visibility:visible;display:inline;overflow:visible;enable-background:accumulate"
         id="rect39663"
         width="541.86664"
         height="124.88334"
         x="-319.61667"
         y="-8549.8838"
         transform="scale(1,-1)" />
    </clipPath>
    <clipPath
       clipPathUnits="userSpaceOnUse"
       id="clipPath11676">
      <rect
         style="opacity:0.6017699;color:#000000;fill:#000000;fill-opacity:1;fill-rule:nonzero;stroke:none;stroke-width:20;marker:none;visibility:visible;display:inline;overflow:visible;enable-background:accumulate"
         id="rect11678"
         width="541.8667"
         height="120.65"
         x="-321.73334"
         y="8719.2168"
         rx="0.0059533748"
         ry="0.0052857352" />
    </clipPath>
    <clipPath
       clipPathUnits="userSpaceOnUse"
       id="clipPath11676-9">
      <rect
         style="opacity:0.6017699;color:#000000;fill:#000000;fill-opacity:1;fill-rule:nonzero;stroke:none;stroke-width:20;marker:none;visibility:visible;display:inline;overflow:visible;enable-background:accumulate"
         id="rect11678-0"
         width="541.8667"
         height="120.65"
         x="-321.73334"
         y="8719.2168"
         rx="0.0059533748"
         ry="0.0052857352" />
    </clipPath>
    <linearGradient
       inkscape:collect="always"
       xlink:href="#linearGradient12916"
       id="linearGradient12922"
       x1="-38.32996"
       y1="164.99683"
       x2="-38.32996"
       y2="67.338585"
       gradientUnits="userSpaceOnUse" />
  </defs>
  <sodipodi:namedview
     id="base"
     pagecolor="#7d848b"
     bordercolor="#666666"
     borderopacity="1.0"
     inkscape:pageopacity="0"
     inkscape:pageshadow="2"
     inkscape:zoom="0.42617864"
     inkscape:cx="1121.5112"
     inkscape:cy="142.54746"
     inkscape:document-units="px"
     inkscape:current-layer="layer1"
     showgrid="false"
     inkscape:pagecheckerboard="false"
     showborder="true"
     units="px"
     inkscape:window-width="1920"
     inkscape:window-height="1017"
     inkscape:window-x="-8"
     inkscape:window-y="-8"
     inkscape:window-maximized="1"
     inkscape:showpageshadow="false"
     guidetolerance="28"
     fit-margin-top="20"
     fit-margin-left="0"
     fit-margin-right="0"
     fit-margin-bottom="0"
     showguides="true"
     inkscape:guide-bbox="true">
    <inkscape:grid
       type="xygrid"
       id="grid24034"
       spacingx="1px"
       spacingy="1px"
       empspacing="8"
       visible="true"
       enabled="true"
       snapvisiblegridlinesonly="true"
       originx="1040.8259px"
       originy="-479.37256px" />
  </sodipodi:namedview>
  <metadata
     id="metadata23486">
    <rdf:RDF>
      <cc:Work
         rdf:about="">
        <dc:format>image/svg+xml</dc:format>
        <dc:type
           rdf:resource="http://purl.org/dc/dcmitype/StillImage" />
        <dc:title></dc:title>
        <cc:license
           rdf:resource="" />
        <dc:creator>
          <cc:Agent>
            <dc:title>Robert Brooks</dc:title>
          </cc:Agent>
        </dc:creator>
      </cc:Work>
    </rdf:RDF>
  </metadata>
  <g
     inkscape:label="Layer 1"
     inkscape:groupmode="layer"
     id="layer1"
     transform="translate(275.38519,-64.723666)">
    <g
       id="g11592"
       clip-path="url(#clipPath11676)"
       transform="translate(46.348133,-8668.8702)">
      <path
         transform="scale(1,-1)"
         style="color:#000000;fill:#ffea98;fill-opacity:1;fill-rule:nonzero;stroke:none;stroke-width:20;marker:none;visibility:visible;display:inline;overflow:visible;enable-background:accumulate"
         d="m -321.73334,-8839.0362 541.8667,0 0,61.6423 -541.8667,0 z"
         id="rect11556"
         inkscape:connector-curvature="0"
         sodipodi:nodetypes="ccccc" />
      <g
         id="g39056"
         transform="matrix(0.89460744,0,0,1.2201577,-253.58881,-1513.7102)">
        <path
           sodipodi:nodetypes="csscccc"
           style="color:#000000;fill:#ffe581;fill-opacity:1;fill-rule:nonzero;stroke:#d7c074;stroke-width:2.02594779;stroke-miterlimit:4;stroke-opacity:1;stroke-dasharray:none;marker:none;visibility:visible;display:inline;overflow:visible;enable-background:accumulate"
           d="m -27.050803,8438.6136 c 32.9815226,-0.016 77.181387,-29.1983 84.026537,-31.4465 5.818126,-1.9108 20.795302,15.5541 58.666416,24.6838 37.87111,9.1297 50.72024,10.4822 50.72024,10.4822 l -4.39575,9.4676 -188.341173,0 z"
           id="path39058"
           inkscape:connector-curvature="0" />
        <path
           sodipodi:nodetypes="cssccccc"
           inkscape:connector-curvature="0"
           id="path39060"
           d="m -30.432152,8436.5848 c 47.677029,-0.3381 81.828661,-29.0795 87.915088,-29.7558 6.086431,-0.6763 20.2881,15.8922 58.159214,25.0219 37.87111,9.1297 53.76346,7.439 53.76346,7.439 l 1.0144,14.5396 -199.883664,-0.9447 c 0,0 9.874898,-4.0376 8.969018,-10.9826 0,0 -23.223658,-4.4115 -9.937516,-5.3174 z"
           style="color:#000000;fill:#ffea98;fill-opacity:1;fill-rule:nonzero;stroke:none;stroke-width:5;marker:none;visibility:visible;display:inline;overflow:visible;enable-background:accumulate" />
        <path
           sodipodi:nodetypes="cccssscccc"
           inkscape:connector-curvature="0"
           id="path39062"
           transform="matrix(0.26458334,0,0,0.26458334,-6.3049604e-6,18.562493)"
           d="m 218.34375,31703.625 c -0.37464,0 -0.73432,0.02 -1.09375,0.06 -22.62959,2.514 -147.916524,107.675 -323.53125,112.312 75.241812,14.044 252.5468,-65.491 283.38015,-85.271 33.86675,-21.726 42.72663,-19.371 47.8386,-20.01 5.11196,-0.639 35.33052,18.712 41.65625,49.437 6.32573,30.725 -3.625,37.063 -3.625,37.063 0,0 41.57573,-13.564 35.25,-47 -0.23721,-1.254 -0.27244,-2.706 -0.15625,-4.313 -43.13822,-23.122 -66.36013,-42.583 -79.71875,-42.281 z"
           style="color:#000000;fill:#fff6d1;fill-opacity:1;fill-rule:nonzero;stroke:none;stroke-width:12;marker:none;visibility:visible;display:inline;overflow:visible;enable-background:accumulate" />
        <path
           sodipodi:nodetypes="cccccccc"
           inkscape:connector-curvature="0"
           id="path39064"
           d="m 69.435913,8412.7821 c 7.35833,8.8473 5.30415,21.3153 -6.961424,27.0532 -20.634787,9.7781 -43.636481,-2.208 -64.7725998,4.9375 -5.062657,0.7569 -17.8247542,8.4533 -5.809653,6.4657 57.0048868,-0.5232 114.0093138,-1.0995 171.0140138,-1.6447 -0.96491,-8.9452 -13.44475,-3.9573 -19.87124,-7.2059 -24.49331,-4.5179 -49.549944,-10.3476 -70.084068,-25.2133 0.06822,0.4956 -4.989827,-6.3401 -3.515029,-4.3925 z"
           style="color:#000000;fill:#ffe581;fill-opacity:1;fill-rule:nonzero;stroke:#d7c074;stroke-width:3.17500019;stroke-linecap:round;stroke-linejoin:round;stroke-miterlimit:4;stroke-opacity:1;stroke-dasharray:none;stroke-dashoffset:0;marker:none;visibility:visible;display:inline;overflow:visible;enable-background:accumulate" />
        <path
           id="path39066"
           transform="matrix(0.26458334,0,0,0.26458334,-6.3049604e-6,18.562493)"
           d="m 227.6875,31705.719 c 50.89677,25.644 75.16551,92.618 3.625,121.937 -77.95742,31.95 -141.851828,-3.836 -218.53125,11.5 -60.233397,12.047 -99.066486,33.484 -113,42.156 l 744.3125,0 -3.8125,-54.937 c 0,0 -60.08385,6.381 -203.21875,-28.125 -124.86847,-30.102 -181.64218,-81.574 -209.375,-92.531 z"
           style="color:#000000;fill:#ffe581;fill-opacity:1;fill-rule:nonzero;stroke:none;stroke-width:7.65712532;marker:none;visibility:visible;display:inline;overflow:visible;enable-background:accumulate;stroke-miterlimit:4;stroke-dasharray:none"
           inkscape:connector-curvature="0" />
        <path
           id="path39068"
           transform="matrix(0.26458334,0,0,0.26458334,-6.3049604e-6,18.562493)"
           d="m 227.6875,31705.719 c 13.75824,6.932 25.56223,16.9 34.0625,28.312 34.27637,20.739 87.21987,50.387 170.78125,70.531 143.1349,34.507 203.21875,28.126 203.21875,28.126 l 3.375,48.624 4.96875,0 -3.8125,-54.937 c 0,0 -60.08385,6.381 -203.21875,-28.125 -124.86847,-30.102 -181.64218,-81.574 -209.375,-92.531 z m 36.59375,99.25 c -7.21372,8.728 -17.97174,16.541 -32.96875,22.687 -77.95742,31.95 -141.851828,-3.836 -218.53125,11.5 -60.233397,12.047 -99.066486,33.484 -113,42.156 l 6.40625,0 c 18.908981,-10.309 53.506353,-26.132 102.0625,-35.843 76.679423,-15.336 140.57383,20.45 218.53125,-11.5 18.53567,-7.597 30.6243,-17.722 37.5,-29 z"
           style="color:#000000;fill:#ffea98;fill-opacity:1;fill-rule:nonzero;stroke:none;stroke-width:12;marker:none;visibility:visible;display:inline;overflow:visible;enable-background:accumulate"
           inkscape:connector-curvature="0" />
      </g>
      <g
         transform="matrix(0.1249716,0,0,0.14866744,-131.33848,8784.873)"
         id="g38183">
        <path
           sodipodi:nodetypes="cssccccc"
           transform="matrix(0.26458334,0,0,0.26458334,-6.3049604e-6,18.562493)"
           inkscape:connector-curvature="0"
           id="path38185"
           d="m -1357.778,-297.3516 c 675.09295,-95.10479 1904.73945,-811.3239 2117.26265,-778.2885 132.11765,20.5368 404.99975,402.45582 1141.67535,588.2839 736.6756,185.82808 795.6338,247.97404 795.6338,247.97404 l -1200.3494,-41.45434 -1933.47704,150.17177 -915.10916,-0.30982 z"
           style="color:#000000;fill:#ffea98;fill-opacity:1;fill-rule:nonzero;stroke:#d7c074;stroke-width:58.69166010000000000;stroke-linejoin:round;stroke-miterlimit:4;stroke-opacity:1;stroke-dasharray:none;marker:none;visibility:visible;display:inline;overflow:visible;enable-background:accumulate" />
        <path
           style="color:#000000;fill:#ffea98;fill-opacity:1;fill-rule:nonzero;stroke:none;stroke-width:20;marker:none;visibility:visible;display:inline;overflow:visible;enable-background:accumulate"
           d="m -1367.1637,-314.80155 c 696.85527,-59.73046 1964.46824,-822.95295 2143.65961,-756.58575 179.19136,66.3672 387.98849,398.20302 1124.66409,584.0311 736.6756,185.82808 989.0661,205.73823 989.0661,205.73823 l 0,451.29677 -4350.3039,0 0,-476.70343 c 27.0647,-3.00719 92.9141,-7.77692 92.9141,-7.77692 z"
           id="path38187"
           inkscape:connector-curvature="0"
           sodipodi:nodetypes="cssccccc"
           transform="matrix(0.26458334,0,0,0.26458334,-6.3049604e-6,18.562493)" />
        <path
           style="color:#000000;fill:#fff4c9;fill-opacity:1;fill-rule:nonzero;stroke:none;stroke-width:25;marker:none;visibility:visible;display:inline;overflow:visible;enable-background:accumulate"
           d="m 654.93352,-1010.2531 c -238.56998,208.63532 -550.91361,401.99544 -323.21395,578.38283 231.37226,179.23237 1667.10353,157.35416 1845.72173,182.87105 178.6182,25.51689 408.2702,246.6632714 518.8434,284.938607 110.5732,38.275335 195.6295,-55.286596 131.8373,-97.814746 C 2764.3298,-104.40351 1237.5692,-542.44346 999.41154,-640.25821 761.25389,-738.07295 633.66944,-891.17429 629.41663,-916.69118 c -4.25282,-25.51689 25.51689,-93.56192 25.51689,-93.56192 z"
           id="path38189"
           inkscape:connector-curvature="0"
           transform="matrix(0.26458334,0,0,0.26458334,-6.3049604e-6,18.562493)"
           sodipodi:nodetypes="cssssssc" />
        <path
           inkscape:connector-curvature="0"
           style="color:#000000;fill:#fff4c9;fill-opacity:1;fill-rule:nonzero;stroke:none;stroke-width:20;marker:none;visibility:visible;display:inline;overflow:visible;enable-background:accumulate"
           d="m 747.5,-1075.4688 c -258.0771,2.0051 -1447.74398,703.49238 -2114.6562,760.6563 0,0 -65.8416,4.77406 -92.9063,7.78125 l 0,42.09375 c 27.0647,-3.00719 92.9063,-7.75 92.9063,-7.75 696.85522,-59.73046 1964.46483,-822.961 2143.6562,-756.5937 179.19136,66.36717 387.9806,398.20312 1124.6562,584.0312 736.6757,185.82808 989.0626,205.71875 989.0626,205.71875 l 0,-42.09375 c 0,0 -252.3869,-19.89067 -989.0626,-205.71875 C 1164.4806,-673.17183 955.69136,-1005.0078 776.5,-1071.375 c -7.69963,-2.8517 -17.41286,-4.1838 -29,-4.0938 z"
           transform="matrix(0.26458334,0,0,0.26458334,-6.3049604e-6,18.562493)"
           id="path38191" />
        <path
           style="color:#000000;fill:#ffcc00;fill-opacity:1;fill-rule:nonzero;stroke:#d7c074;stroke-width:25;stroke-linecap:round;stroke-linejoin:round;stroke-miterlimit:4;stroke-opacity:1;stroke-dasharray:none;stroke-dashoffset:0;marker:none;visibility:visible;display:inline;overflow:visible;enable-background:accumulate"
           d="m 747.5,-1075.4688 c -11.77416,0.091 -96.7205,67.5742 -137.75154,140.62143 -93.63767,121.24131 -244.29542,168.12033 -312.06378,366.87862 -92.56672,271.48959 1314.11962,229.67146 1845.72152,272.19961 353.233,28.25864 494.4257,-5.74653 -242.25,-191.57461 C 1164.4806,-673.17183 955.69136,-1005.0078 776.5,-1071.375 c -7.69963,-2.8517 -17.41286,-4.1838 -29,-4.0938 z"
           transform="matrix(0.26458334,0,0,0.26458334,-6.3049604e-6,18.562493)"
           id="path38193"
           inkscape:connector-curvature="0"
           sodipodi:nodetypes="scsssss" />
        <path
           style="color:#000000;fill:#ffe581;fill-opacity:1;fill-rule:nonzero;stroke:none;stroke-width:15.52883546;marker:none;visibility:visible;display:inline;overflow:visible;enable-background:accumulate;stroke-miterlimit:4;stroke-dasharray:none"
           d="m 166.44106,-242.3434 c -31.94943,33.87441 -70.942173,65.24628 -86.553421,110.63074 -4.043042,27.5119 30.636821,36.288462 51.009981,43.060176 90.52659,23.139337 184.71352,25.101696 277.5079,30.818252 56.54104,3.560003 113.50115,3.242239 169.74061,10.072505 57.53404,15.549537 102.71459,61.481353 161.91966,72.059784 20.24314,5.542159 28.47811,-7.629426 24.63797,-24.88289887 0,-18.45534213 0,-36.91068613 0,-55.36602813 -96.0003,-12.693581 -190.18994,-36.436639 -283.89726,-60.36418 -83.68737,-22.6849 -162.31201,-63.01153 -229.09394,-118.38591 -16.49541,-10.99206 -34.08266,-28.93014 -54.56571,-32.10678 -7.72911,2.73568 -20.76656,15.26901 -30.70579,24.46434 z"
           id="path38195"
           inkscape:connector-curvature="0"
           sodipodi:nodetypes="cccccccccccc" />
        <path
           style="color:#000000;fill:#ffea98;fill-opacity:1;fill-rule:nonzero;stroke:none;stroke-width:25;marker:none;visibility:visible;display:inline;overflow:visible;enable-background:accumulate"
           d="m 745.125,-1078.5625 c -29.21238,10.3396 -78.49691,57.7147 -116.0625,92.46875 -43.29191,45.90028 -89.97631,90.59232 -134.8125,136.9375 105.36765,-92.40572 237.31859,-188.52915 267,-195.12495 38.27534,-8.5058 233.91758,246.67733 718.7385,450.81245 394.9456,166.29291 937.8854,256.37447 1226.324,284.0625 -299.5368,-50.6217 -594.9479,-125.26681 -889.0937,-200.375 -316.2988,-85.7382 -613.4709,-238.14851 -865.87505,-447.4375 -62.34486,-41.54479 -128.8025,-109.33755 -206.21875,-121.34375 z"
           transform="matrix(0.26458334,0,0,0.26458334,-6.3049604e-6,18.562493)"
           id="path38197"
           inkscape:connector-curvature="0"
           sodipodi:nodetypes="cccsscccc" />
        <path
           inkscape:connector-curvature="0"
           style="opacity:0.40265485;color:#000000;fill:#ffde5f;fill-opacity:1;fill-rule:nonzero;stroke:none;stroke-width:25;marker:none;visibility:visible;display:inline;overflow:visible;enable-background:accumulate"
           d="m -1441.0312,-308.875 c -7.1929,0.65124 -13.9082,1.27451 -19.0313,1.84375 l 0,13.3125 c 5.8079,-5.00215 12.1625,-10.049 19.0313,-15.15625 z m -19.0313,192 0,286.5625 4350.2813,0 0,-62.5 c -223.9043,7.078 -569.1624,0.45013 -908.4063,-75.5 -569.8772,-127.584452 -1182.29257,-144.59571 -2109.40625,0 C -913.54338,154.2668 -1326.5821,20.094147 -1460.0625,-116.875 z"
           transform="matrix(0.26458334,0,0,0.26458334,-6.3049604e-6,18.562493)"
           id="path38199" />
      </g>
      <g
         id="g38327"
         transform="matrix(0.13508448,0,0,0.14637688,-4.0057102,8779.2897)">
        <path
           style="color:#000000;fill:#ffea98;fill-opacity:1;fill-rule:nonzero;stroke:#d7c074;stroke-width:56.89197620000000200;stroke-linejoin:round;stroke-miterlimit:4;stroke-opacity:1;stroke-dasharray:none;marker:none;visibility:visible;display:inline;overflow:visible;enable-background:accumulate"
           d="m -1357.778,-297.3516 c 675.09295,-95.10479 1904.73945,-811.3239 2117.26265,-778.2885 132.11765,20.5368 404.99975,402.45582 1141.67535,588.2839 736.6756,185.82808 795.6338,247.97404 795.6338,247.97404 l -1200.3494,-41.45434 -1933.47704,150.17177 -915.10916,-0.30982 z"
           id="path38329"
           inkscape:connector-curvature="0"
           transform="matrix(0.26458334,0,0,0.26458334,-6.3049604e-6,18.562493)"
           sodipodi:nodetypes="cssccccc" />
        <path
           transform="matrix(0.26458334,0,0,0.26458334,-6.3049604e-6,18.562493)"
           sodipodi:nodetypes="cssccccc"
           inkscape:connector-curvature="0"
           id="path38331"
           d="m -1367.1637,-314.80155 c 696.85527,-59.73046 1964.46824,-822.95295 2143.65961,-756.58575 179.19136,66.3672 387.98849,398.20302 1124.66409,584.0311 736.6756,185.82808 989.0661,205.73823 989.0661,205.73823 l 0,451.29677 -4350.3039,0 0,-476.70343 c 27.0647,-3.00719 92.9141,-7.77692 92.9141,-7.77692 z"
           style="color:#000000;fill:#ffea98;fill-opacity:1;fill-rule:nonzero;stroke:none;stroke-width:20;marker:none;visibility:visible;display:inline;overflow:visible;enable-background:accumulate" />
        <path
           sodipodi:nodetypes="cssssssc"
           transform="matrix(0.26458334,0,0,0.26458334,-6.3049604e-6,18.562493)"
           inkscape:connector-curvature="0"
           id="path38333"
           d="m 654.93352,-1010.2531 c -238.56998,208.63532 -550.91361,401.99544 -323.21395,578.38283 231.37226,179.23237 1667.10353,157.35416 1845.72173,182.87105 178.6182,25.51689 408.2702,246.6632714 518.8434,284.938607 110.5732,38.275335 195.6295,-55.286596 131.8373,-97.814746 C 2764.3298,-104.40351 1237.5692,-542.44346 999.41154,-640.25821 761.25389,-738.07295 633.66944,-891.17429 629.41663,-916.69118 c -4.25282,-25.51689 25.51689,-93.56192 25.51689,-93.56192 z"
           style="color:#000000;fill:#fff4c9;fill-opacity:1;fill-rule:nonzero;stroke:none;stroke-width:25;marker:none;visibility:visible;display:inline;overflow:visible;enable-background:accumulate" />
        <path
           id="path38335"
           transform="matrix(0.26458334,0,0,0.26458334,-6.3049604e-6,18.562493)"
           d="m 747.5,-1075.4688 c -258.0771,2.0051 -1447.74398,703.49238 -2114.6562,760.6563 0,0 -65.8416,4.77406 -92.9063,7.78125 l 0,42.09375 c 27.0647,-3.00719 92.9063,-7.75 92.9063,-7.75 696.85522,-59.73046 1964.46483,-822.961 2143.6562,-756.5937 179.19136,66.36717 387.9806,398.20312 1124.6562,584.0312 736.6757,185.82808 989.0626,205.71875 989.0626,205.71875 l 0,-42.09375 c 0,0 -252.3869,-19.89067 -989.0626,-205.71875 C 1164.4806,-673.17183 955.69136,-1005.0078 776.5,-1071.375 c -7.69963,-2.8517 -17.41286,-4.1838 -29,-4.0938 z"
           style="color:#000000;fill:#fff4c9;fill-opacity:1;fill-rule:nonzero;stroke:none;stroke-width:20;marker:none;visibility:visible;display:inline;overflow:visible;enable-background:accumulate"
           inkscape:connector-curvature="0" />
        <path
           sodipodi:nodetypes="scsssss"
           inkscape:connector-curvature="0"
           id="path38337"
           transform="matrix(0.26458334,0,0,0.26458334,-6.3049604e-6,18.562493)"
           d="m 747.5,-1075.4688 c -11.77416,0.091 -96.7205,67.5742 -137.75154,140.62143 -93.63767,121.24131 -244.29542,168.12033 -312.06378,366.87862 -92.56672,271.48959 1314.11962,229.67146 1845.72152,272.19961 353.233,28.25864 494.4257,-5.74653 -242.25,-191.57461 C 1164.4806,-673.17183 955.69136,-1005.0078 776.5,-1071.375 c -7.69963,-2.8517 -17.41286,-4.1838 -29,-4.0938 z"
           style="color:#000000;fill:#ffcc00;fill-opacity:1;fill-rule:nonzero;stroke:#d7c074;stroke-width:56.89197620000000200;stroke-linecap:round;stroke-linejoin:round;stroke-miterlimit:4;stroke-opacity:1;stroke-dasharray:none;stroke-dashoffset:0;marker:none;visibility:visible;display:inline;overflow:visible;enable-background:accumulate" />
        <path
           sodipodi:nodetypes="cccccccccccc"
           inkscape:connector-curvature="0"
           id="path38339"
           d="m 166.44106,-242.3434 c -31.94943,33.87441 -70.942173,65.24628 -86.553421,110.63074 -4.043042,27.5119 30.636821,36.288462 51.009981,43.060176 90.52659,23.139337 184.71352,25.101696 277.5079,30.818252 56.54104,3.560003 113.50115,3.242239 169.74061,10.072505 57.53404,15.549537 102.71459,61.481353 161.91966,72.059784 20.24314,5.542159 28.47811,-7.629426 24.63797,-24.88289887 0,-18.45534213 0,-36.91068613 0,-55.36602813 -96.0003,-12.693581 -190.18994,-36.436639 -283.89726,-60.36418 -83.68737,-22.6849 -162.31201,-63.01153 -229.09394,-118.38591 -16.49541,-10.99206 -34.08266,-28.93014 -54.56571,-32.10678 -7.72911,2.73568 -20.76656,15.26901 -30.70579,24.46434 z"
           style="color:#000000;fill:#ffe581;fill-opacity:1;fill-rule:nonzero;stroke:none;stroke-width:25;marker:none;visibility:visible;display:inline;overflow:visible;enable-background:accumulate" />
        <path
           sodipodi:nodetypes="cccsscccc"
           inkscape:connector-curvature="0"
           id="path38341"
           transform="matrix(0.26458334,0,0,0.26458334,-6.3049604e-6,18.562493)"
           d="m 745.125,-1078.5625 c -29.21238,10.3396 -78.49691,57.7147 -116.0625,92.46875 -43.29191,45.90028 -89.97631,90.59232 -134.8125,136.9375 105.36765,-92.40572 237.31859,-188.52915 267,-195.12495 38.27534,-8.5058 233.91758,246.67733 718.7385,450.81245 394.9456,166.29291 937.8854,256.37447 1226.324,284.0625 -299.5368,-50.6217 -594.9479,-125.26681 -889.0937,-200.375 -316.2988,-85.7382 -613.4709,-238.14851 -865.87505,-447.4375 -62.34486,-41.54479 -128.8025,-109.33755 -206.21875,-121.34375 z"
           style="color:#000000;fill:#ffea98;fill-opacity:1;fill-rule:nonzero;stroke:none;stroke-width:25;marker:none;visibility:visible;display:inline;overflow:visible;enable-background:accumulate" />
        <path
           id="path38343"
           transform="matrix(0.26458334,0,0,0.26458334,-6.3049604e-6,18.562493)"
           d="m -1441.0312,-308.875 c -7.1929,0.65124 -13.9082,1.27451 -19.0313,1.84375 l 0,13.3125 c 5.8079,-5.00215 12.1625,-10.049 19.0313,-15.15625 z m -19.0313,192 0,286.5625 4350.2813,0 0,-62.5 c -223.9043,7.078 -569.1624,0.45013 -908.4063,-75.5 -569.8772,-127.584452 -1182.29257,-144.59571 -2109.40625,0 C -913.54338,154.2668 -1326.5821,20.094147 -1460.0625,-116.875 z"
           style="opacity:0.40265485;color:#000000;fill:#ffde5f;fill-opacity:1;fill-rule:nonzero;stroke:none;stroke-width:25;marker:none;visibility:visible;display:inline;overflow:visible;enable-background:accumulate"
           inkscape:connector-curvature="0" />
      </g>
      <g
         id="g39727"
         transform="matrix(0.16186127,0,0,0.17539207,-278.84678,8790.2919)">
        <path
           style="color:#000000;fill:#ffea98;fill-opacity:1;fill-rule:nonzero;stroke:#d7c074;stroke-width:47.48030955000000100;stroke-linejoin:round;stroke-miterlimit:4;stroke-opacity:1;stroke-dasharray:none;marker:none;visibility:visible;display:inline;overflow:visible;enable-background:accumulate"
           d="m -871.09139,-297.3516 c 675.09295,-95.10479 1418.05284,-811.3239 1630.57604,-778.2885 132.11765,20.5368 404.99975,402.45582 1141.67535,588.2839 736.6756,185.82808 795.6338,247.97404 795.6338,247.97404 l -1200.3494,-41.45434 -1933.47704,150.17177 -428.42255,-0.30982 z"
           id="path39729"
           inkscape:connector-curvature="0"
           transform="matrix(0.26458334,0,0,0.26458334,-6.3049604e-6,18.562493)"
           sodipodi:nodetypes="cssccccc" />
        <path
           transform="matrix(0.26458334,0,0,0.26458334,-6.3049604e-6,18.562493)"
           sodipodi:nodetypes="cssccccc"
           inkscape:connector-curvature="0"
           id="path39731"
           d="m -859.08427,-314.80155 c 696.85527,-59.73046 1456.38881,-822.95295 1635.58018,-756.58575 179.19136,66.3672 387.98849,398.20302 1124.66409,584.0311 736.6756,185.82808 989.0661,205.73823 989.0661,205.73823 l 0,451.29677 -3842.22447,0 0,-476.70343 c 27.0647,-3.00719 92.9141,-7.77692 92.9141,-7.77692 z"
           style="color:#000000;fill:#ffea98;fill-opacity:1;fill-rule:nonzero;stroke:none;stroke-width:20;marker:none;visibility:visible;display:inline;overflow:visible;enable-background:accumulate" />
        <path
           sodipodi:nodetypes="cssssssc"
           transform="matrix(0.26458334,0,0,0.26458334,-6.3049604e-6,18.562493)"
           inkscape:connector-curvature="0"
           id="path39733"
           d="m 654.93352,-1010.2531 c -238.56998,208.63532 -550.91361,401.99544 -323.21395,578.38283 231.37226,179.23237 1667.10353,157.35416 1845.72173,182.87105 178.6182,25.51689 408.2702,246.6632714 518.8434,284.938607 110.5732,38.275335 195.6295,-55.286596 131.8373,-97.814746 C 2764.3298,-104.40351 1237.5692,-542.44346 999.41154,-640.25821 761.25389,-738.07295 633.66944,-891.17429 629.41663,-916.69118 c -4.25282,-25.51689 25.51689,-93.56192 25.51689,-93.56192 z"
           style="color:#000000;fill:#fff4c9;fill-opacity:1;fill-rule:nonzero;stroke:none;stroke-width:25;marker:none;visibility:visible;display:inline;overflow:visible;enable-background:accumulate" />
        <path
           sodipodi:nodetypes="sccccssccsss"
           id="path39735"
           transform="matrix(0.26458334,0,0,0.26458334,-6.3049604e-6,18.562493)"
           d="m 747.5,-1075.4688 c -258.0771,2.0051 -939.66455,703.49238 -1606.57677,760.6563 0,0 -65.8416,4.77406 -92.9063,7.78125 l 0,42.09375 c 27.0647,-3.00719 92.9063,-7.75 92.9063,-7.75 696.85522,-59.73046 1456.3854,-822.961 1635.57677,-756.5937 179.19136,66.36717 387.9806,398.20312 1124.6562,584.0312 736.6757,185.82808 989.0626,205.71875 989.0626,205.71875 l 0,-42.09375 c 0,0 -252.3869,-19.89067 -989.0626,-205.71875 C 1164.4806,-673.17183 955.69136,-1005.0078 776.5,-1071.375 c -7.69963,-2.8517 -17.41286,-4.1838 -29,-4.0938 z"
           style="color:#000000;fill:#fff4c9;fill-opacity:1;fill-rule:nonzero;stroke:none;stroke-width:20;marker:none;visibility:visible;display:inline;overflow:visible;enable-background:accumulate"
           inkscape:connector-curvature="0" />
        <path
           sodipodi:nodetypes="scsssss"
           inkscape:connector-curvature="0"
           id="path39737"
           transform="matrix(0.26458334,0,0,0.26458334,-6.3049604e-6,18.562493)"
           d="m 747.5,-1075.4688 c -11.77416,0.091 -96.7205,67.5742 -137.75154,140.62143 -93.63767,121.24131 -244.29542,168.12033 -312.06378,366.87862 -92.56672,271.48959 1314.11962,229.67146 1845.72152,272.19961 353.233,28.25864 494.4257,-5.74653 -242.25,-191.57461 C 1164.4806,-673.17183 955.69136,-1005.0078 776.5,-1071.375 c -7.69963,-2.8517 -17.41286,-4.1838 -29,-4.0938 z"
           style="color:#000000;fill:#d7c074;fill-opacity:1;fill-rule:nonzero;stroke:#d7c074;stroke-width:25;stroke-linecap:round;stroke-linejoin:round;stroke-miterlimit:4;stroke-opacity:1;stroke-dasharray:none;stroke-dashoffset:0;marker:none;visibility:visible;display:inline;overflow:visible;enable-background:accumulate" />
        <path
           sodipodi:nodetypes="cccccccccccc"
           inkscape:connector-curvature="0"
           id="path39739"
           d="m 166.44106,-242.3434 c -31.94943,33.87441 -70.942173,65.24628 -86.553421,110.63074 -4.043042,27.5119 30.636821,36.288462 51.009981,43.060176 90.52659,23.139337 184.71352,25.101696 277.5079,30.818252 56.54104,3.560003 113.50115,3.242239 169.74061,10.072505 57.53404,15.549537 102.71459,61.481353 161.91966,72.059784 20.24314,5.542159 28.47811,-7.629426 24.63797,-24.88289887 0,-18.45534213 0,-36.91068613 0,-55.36602813 -96.0003,-12.693581 -190.18994,-36.436639 -283.89726,-60.36418 -83.68737,-22.6849 -162.31201,-63.01153 -229.09394,-118.38591 -16.49541,-10.99206 -34.08266,-28.93014 -54.56571,-32.10678 -7.72911,2.73568 -20.76656,15.26901 -30.70579,24.46434 z"
           style="color:#000000;fill:#ffe581;fill-opacity:1;fill-rule:nonzero;stroke:none;stroke-width:12.56249888;marker:none;visibility:visible;display:inline;overflow:visible;enable-background:accumulate;stroke-miterlimit:4;stroke-dasharray:none" />
        <path
           sodipodi:nodetypes="cccsscccc"
           inkscape:connector-curvature="0"
           id="path39741"
           transform="matrix(0.26458334,0,0,0.26458334,-6.3049604e-6,18.562493)"
           d="m 745.125,-1078.5625 c -29.21238,10.3396 -78.49691,57.7147 -116.0625,92.46875 -43.29191,45.90028 -89.97631,90.59232 -134.8125,136.9375 105.36765,-92.40572 237.31859,-188.52915 267,-195.12495 38.27534,-8.5058 233.91758,246.67733 718.7385,450.81245 394.9456,166.29291 937.8854,256.37447 1226.324,284.0625 -299.5368,-50.6217 -594.9479,-125.26681 -889.0937,-200.375 -316.2988,-85.7382 -613.4709,-238.14851 -865.87505,-447.4375 -62.34486,-41.54479 -128.8025,-109.33755 -206.21875,-121.34375 z"
           style="color:#000000;fill:#ffea98;fill-opacity:1;fill-rule:nonzero;stroke:none;stroke-width:25;marker:none;visibility:visible;display:inline;overflow:visible;enable-background:accumulate" />
        <path
           sodipodi:nodetypes="ccccccccssc"
           id="path39743"
           transform="matrix(0.26458334,0,0,0.26458334,-6.3049604e-6,18.562493)"
           d="m -932.95177,-308.875 c -7.1929,0.65124 -13.9082,1.27451 -19.0313,1.84375 l 0,13.3125 c 5.8079,-5.00215 12.1625,-10.049 19.0313,-15.15625 z m -19.0313,192 0,286.5625 3842.20187,0 0,-62.5 c -223.9043,7.078 -569.1624,0.45013 -908.4063,-75.5 -569.8772,-127.584452 -1182.29257,-144.59571 -2109.40625,0 -785.94963,122.5793 -690.90892,-11.593353 -824.38932,-148.5625 z"
           style="opacity:0.40265485;color:#000000;fill:#ffde5f;fill-opacity:1;fill-rule:nonzero;stroke:none;stroke-width:25;marker:none;visibility:visible;display:inline;overflow:visible;enable-background:accumulate"
           inkscape:connector-curvature="0" />
      </g>
      <g
         transform="matrix(0.97517767,0,0,0.97517767,-404.88214,522.35909)"
         id="g39771">
        <g
           id="g39773">
          <g
             transform="translate(383.44504,-23.669447)"
             id="g39775">
            <path
               transform="matrix(0.26458334,0,0,0.26458334,-6.3049604e-6,18.562493)"
               inkscape:connector-curvature="0"
               id="path39777"
               d="m -489.79221,32068.318 c 215.07481,-48.798 301.82767,-166.276 328.93794,-168.083 27.11027,-1.808 101.211676,95.789 247.607133,130.129 146.395457,34.339 199.712327,42.925 199.712327,42.925 l -29.8213,44.731 -920.79363,2.254 -91.51416,4.182 148.91241,-33.354 z"
               style="color:#000000;fill:#ff6600;fill-opacity:1;fill-rule:nonzero;stroke:#d7c074;stroke-width:8.20363335999999950;stroke-linejoin:round;stroke-opacity:1;marker:none;visibility:visible;display:inline;overflow:visible;enable-background:accumulate;stroke-miterlimit:4;stroke-dasharray:none"
               sodipodi:nodetypes="ccscccccc" />
            <path
               style="color:#000000;fill:#ffea98;fill-opacity:1;fill-rule:nonzero;stroke:none;stroke-width:12;marker:none;visibility:visible;display:inline;overflow:visible;enable-background:accumulate"
               d="m -489.79221,32068.318 c 215.07481,-48.798 301.82767,-166.276 328.93794,-168.083 27.11027,-1.808 101.211676,95.789 247.607133,130.129 146.395457,34.339 211.460107,36.147 211.460107,36.147 l 0,72.294 -1084.41079,0 18.07351,-16.266 z"
               id="path39779"
               inkscape:connector-curvature="0"
               transform="matrix(0.26458334,0,0,0.26458334,-6.3049604e-6,18.562493)" />
            <path
               inkscape:connector-curvature="0"
               transform="matrix(0.26458334,0,0,0.26458334,-383.44505,42.23194)"
               id="path39781"
               d="m 1270.875,31828.125 c 0.6428,-1.078 1.197,-2.137 1.9688,-3.25 1.4325,-2.065 3.0854,-4.179 5,-6.375 1.883,-2.16 4.0413,-4.387 6.4374,-6.688 -31.1665,11.348 -119.4895,120.439 -324.8437,167.032 l -278.3125,54.25 -2.1875,1.968 c 33.50214,-5.929 272.89482,-48.31 293.15625,-51.687 180.14815,-40.874 261.21505,-127.165 298.78125,-155.25 z"
               style="color:#000000;fill:#fff6d5;fill-opacity:1;fill-rule:nonzero;stroke:none;stroke-width:12;marker:none;visibility:visible;display:inline;overflow:visible;enable-background:accumulate" />
            <path
               sodipodi:nodetypes="ccccccccccccc"
               inkscape:connector-curvature="0"
               id="path39783"
               d="m -42.75,8459.6562 c -4.17076,2.9848 -7.297389,9.5889 -3.19922,13.9961 4.34481,5.2848 13.563951,8.2976 14.221717,15.9763 1.39239,7.4317 -5.869453,10.071 -8.928747,18.5276 -1.407631,6.4187 -0.137067,7.5807 1.193754,9.4448 39.19583333,0 67.034535,-2.8691 106.230368,-2.8691 0,-5.8646 8.727059,-3.5998 8.727059,-9.4644 -20.908521,-1.8378 -38.928494,-7.7241 -59.235309,-12.9349 -17.1288871,-5.0425 -32.715212,-14.2396 -46.68676,-25.2206 -3.674046,-2.5482 -7.047477,-5.7275 -11.249116,-7.3665 l -1.073742,-0.089 -4e-6,0 z"
               style="color:#000000;fill:#ffe684;fill-opacity:1;fill-rule:nonzero;stroke:#d7c074;stroke-width:3.17500019000000000;stroke-opacity:1;marker:none;visibility:visible;display:inline;overflow:visible;enable-background:accumulate" />
            <path
               inkscape:connector-curvature="0"
               id="path39785"
               transform="matrix(0.26458334,0,0,0.26458334,-6.3049604e-6,18.562493)"
               d="m -159.5625,31900.219 c -0.44664,-0.02 -0.85765,0 -1.28125,0.03 -1.21753,0.08 -2.56691,0.375 -4.03125,0.906 -19.56263,18.735 -21.36067,32.564 -17.875,45.344 6.36248,23.745 48.98725,35.528 54.9375,66.469 6.38996,33.228 -19.14781,44.722 -28.09375,70.281 -5.3036,15.153 -679.9799,38.786 -677.20143,55.562 l 1726.17847,0 -594.85204,-72.312 c 0,0 -65.07329,-1.786 -211.46875,-36.125 -144.108029,-33.803 -218.17422,-128.917 -246.3125,-130.156 z"
               style="color:#000000;fill:#ffe684;fill-opacity:1;fill-rule:nonzero;stroke:none;stroke-width:12;marker:none;visibility:visible;display:inline;overflow:visible;enable-background:accumulate"
               sodipodi:nodetypes="ccccsscccscc" />
            <path
               inkscape:connector-curvature="0"
               transform="matrix(0.26458334,0,0,0.26458334,-383.44505,42.23194)"
               id="path39787"
               d="m 1485.1875,31925.656 c 7.9359,2.919 16.1283,5.696 24.5937,8.25 8.4655,2.554 17.212,4.888 26.2188,7 -18.0135,-4.225 -34.9407,-9.412 -50.8125,-15.25 z"
               style="color:#000000;fill:#fff6d5;fill-opacity:1;fill-rule:nonzero;stroke:none;stroke-width:12;marker:none;visibility:visible;display:inline;overflow:visible;enable-background:accumulate" />
            <path
               inkscape:connector-curvature="0"
               transform="matrix(0.26458334,0,0,0.26458334,-383.44505,42.23194)"
               id="path39789"
               d="m 1420.6875,31896 c 6.4179,3.56 13.0566,7.078 19.9687,10.5 6.9122,3.422 14.0819,6.76 21.5,9.969 7.4182,3.208 15.0954,6.268 23.0313,9.187 -23.8077,-8.757 -45.2462,-18.975 -64.5,-29.656 z"
               style="color:#000000;fill:#fff6d5;fill-opacity:1;fill-rule:nonzero;stroke:none;stroke-width:12;marker:none;visibility:visible;display:inline;overflow:visible;enable-background:accumulate" />
            <path
               inkscape:connector-curvature="0"
               transform="matrix(0.26458334,0,0,0.26458334,-383.44505,42.23194)"
               id="path39791"
               d="m 1385.0625,31874.344 c 5.4648,3.609 11.1583,7.252 17.0937,10.875 5.9355,3.622 12.1134,7.221 18.5313,10.781 -12.8358,-7.121 -24.6954,-14.438 -35.625,-21.656 z"
               style="color:#000000;fill:#fff6d5;fill-opacity:1;fill-rule:nonzero;stroke:none;stroke-width:12;marker:none;visibility:visible;display:inline;overflow:visible;enable-background:accumulate" />
            <path
               inkscape:connector-curvature="0"
               transform="matrix(0.26458334,0,0,0.26458334,-383.44505,42.23194)"
               id="path39793"
               d="m 1302.4375,31815.312 c 2.4998,1.393 5.1744,3.095 8.0625,5.032 2.8881,1.936 5.9932,4.126 9.2812,6.531 6.5762,4.81 13.9406,10.46 22.1876,16.687 -16.4834,-12.447 -29.5365,-22.681 -39.5313,-28.25 z"
               style="color:#000000;fill:#fff6d5;fill-opacity:1;fill-rule:nonzero;stroke:none;stroke-width:12;marker:none;visibility:visible;display:inline;overflow:visible;enable-background:accumulate" />
            <path
               inkscape:connector-curvature="0"
               transform="matrix(0.26458334,0,0,0.26458334,-383.44505,42.23194)"
               id="path39795"
               d="m 1289.6875,31810.75 c -0.4466,-0.02 -0.8889,0 -1.3125,0.03 -1.0584,0.07 -2.2542,0.371 -3.5,0.781 -0.1942,0.06 -0.3949,0.178 -0.5938,0.25 -2.3961,2.301 -4.5544,4.528 -6.4374,6.688 -1.9146,2.196 -3.5675,4.31 -5,6.375 -0.7718,1.113 -1.326,2.172 -1.9688,3.25 7.2832,-5.445 13.0975,-8.925 17.5,-9.219 27.1103,-1.808 101.2295,95.785 247.625,130.125 146.3955,34.339 308.4198,42.73 308.4198,42.73 l -96.951,-14.699 c 0,0 -25.4133,-0.709 -80.2188,-9.624 -32.8833,-5.35 -76.3517,-13.655 -131.25,-26.532 -9.0068,-2.112 -17.7533,-4.446 -26.2188,-7 -8.4654,-2.554 -16.6578,-5.331 -24.5937,-8.25 -7.9359,-2.919 -15.6131,-5.979 -23.0313,-9.187 -7.4181,-3.209 -14.5878,-6.547 -21.5,-9.969 -6.9121,-3.422 -13.5508,-6.94 -19.9687,-10.5 -6.4179,-3.56 -12.5958,-7.159 -18.5313,-10.781 -5.9354,-3.623 -11.6289,-7.266 -17.0937,-10.875 -16.4042,-10.834 -30.7183,-21.436 -43.0937,-30.782 -8.247,-6.227 -15.6114,-11.877 -22.1876,-16.687 -3.288,-2.405 -6.3931,-4.595 -9.2812,-6.531 -2.8881,-1.937 -5.5627,-3.639 -8.0625,-5.032 -2.4998,-1.392 -4.8142,-2.477 -6.9375,-3.25 -2.1233,-0.772 -4.0539,-1.235 -5.8125,-1.312 z"
               style="color:#000000;fill:#fff6d5;fill-opacity:1;fill-rule:nonzero;stroke:none;stroke-width:12;marker:none;visibility:visible;display:inline;overflow:visible;enable-background:accumulate"
               sodipodi:nodetypes="ccccccccsccccsscssccccccccc" />
            <path
               inkscape:connector-curvature="0"
               transform="matrix(0.26458334,0,0,0.26458334,-383.44505,42.23194)"
               id="path39797"
               d="m 1289.6875,31810.75 c 1.7586,0.08 3.6892,0.54 5.8125,1.312 2.1233,0.773 4.4377,1.858 6.9375,3.25 -4.9996,-2.785 -9.2327,-4.407 -12.75,-4.562 z"
               style="color:#000000;fill:#fff6d5;fill-opacity:1;fill-rule:nonzero;stroke:none;stroke-width:12;marker:none;visibility:visible;display:inline;overflow:visible;enable-background:accumulate" />
          </g>
        </g>
      </g>
      <g
         id="g39095"
         transform="matrix(-0.91503655,0,0,0.91503655,398.72188,1021.861)">
        <g
           id="g39097">
          <g
             id="g39099"
             transform="translate(383.44504,-23.669447)">
            <path
               sodipodi:nodetypes="ccscccccc"
               style="color:#000000;fill:#ff6600;fill-opacity:1;fill-rule:nonzero;stroke:#d7c074;stroke-width:8.74282022999999950;stroke-linejoin:round;stroke-opacity:1;marker:none;visibility:visible;display:inline;overflow:visible;enable-background:accumulate;stroke-miterlimit:4;stroke-dasharray:none"
               d="m -489.79221,32068.318 c 215.07481,-48.798 301.82767,-166.276 328.93794,-168.083 27.11027,-1.808 101.211676,95.789 247.607133,130.129 146.395457,34.339 199.712327,42.925 199.712327,42.925 l -29.8213,44.731 -686.65905,2.254 -91.51416,4.182 148.91241,-33.354 z"
               id="path39101"
               inkscape:connector-curvature="0"
               transform="matrix(0.26458334,0,0,0.26458334,-6.3049604e-6,18.562493)" />
            <path
               sodipodi:nodetypes="ccsccccc"
               transform="matrix(0.26458334,0,0,0.26458334,-6.3049604e-6,18.562493)"
               inkscape:connector-curvature="0"
               id="path39103"
               d="m -489.79221,32068.318 c 215.07481,-48.798 301.82767,-166.276 328.93794,-168.083 27.11027,-1.808 101.211676,95.789 247.607133,130.129 146.395457,34.339 211.460107,36.147 211.460107,36.147 l 0,72.294 -923.86137,0 -42.13252,-16.266 z"
               style="color:#000000;fill:#ffea98;fill-opacity:1;fill-rule:nonzero;stroke:none;stroke-width:12;marker:none;visibility:visible;display:inline;overflow:visible;enable-background:accumulate" />
            <path
               sodipodi:nodetypes="ccccccccc"
               style="color:#000000;fill:#fff6d5;fill-opacity:1;fill-rule:nonzero;stroke:none;stroke-width:12;marker:none;visibility:visible;display:inline;overflow:visible;enable-background:accumulate"
               d="m 1270.875,31828.125 c 0.6428,-1.078 1.197,-2.137 1.9688,-3.25 1.4325,-2.065 3.0854,-4.179 5,-6.375 1.883,-2.16 4.0413,-4.387 6.4374,-6.688 -31.1665,11.348 -119.4895,120.439 -324.8437,167.032 l -177.96911,54.25 -2.1875,1.968 c 33.50214,-5.929 172.55143,-48.31 192.81286,-51.687 180.14815,-40.874 261.21505,-127.165 298.78125,-155.25 z"
               id="path39105"
               transform="matrix(0.26458334,0,0,0.26458334,-383.44505,42.23194)"
               inkscape:connector-curvature="0" />
            <path
               style="color:#000000;fill:#ffe684;fill-opacity:1;fill-rule:nonzero;stroke:#d7c074;stroke-width:3.17500019000000000;stroke-opacity:1;marker:none;visibility:visible;display:inline;overflow:visible;enable-background:accumulate"
               d="m -42.75,8459.6562 c -4.17076,2.9848 -7.297389,9.5889 -3.19922,13.9961 4.34481,5.2848 13.563951,8.2976 14.221717,15.9763 1.39239,7.4317 -5.869453,10.071 -8.928747,18.5276 -1.407631,6.4187 -0.137067,7.5807 1.193754,9.4448 39.19583333,0 67.034535,-2.8691 106.230368,-2.8691 0,-5.8646 8.727059,-3.5998 8.727059,-9.4644 -20.908521,-1.8378 -38.928494,-7.7241 -59.235309,-12.9349 -17.1288871,-5.0425 -32.715212,-14.2396 -46.68676,-25.2206 -3.674046,-2.5482 -7.047477,-5.7275 -11.249116,-7.3665 l -1.073742,-0.089 -4e-6,0 z"
               id="path39107"
               inkscape:connector-curvature="0"
               sodipodi:nodetypes="ccccccccccccc" />
            <path
               style="color:#000000;fill:#ffe684;fill-opacity:1;fill-rule:nonzero;stroke:none;stroke-width:8.74282023;marker:none;visibility:visible;display:inline;overflow:visible;enable-background:accumulate;stroke-miterlimit:4;stroke-dasharray:none"
               d="m -159.5625,31900.219 c -0.44664,-0.02 -0.85765,0 -1.28125,0.03 -1.21753,0.08 -2.56691,0.375 -4.03125,0.906 -19.56263,18.735 -21.36067,32.564 -17.875,45.344 6.36248,23.745 48.98725,35.528 54.9375,66.469 6.38996,33.228 -19.14781,44.722 -28.09375,70.281 -5.3036,15.153 -2.96597,38.786 -0.1875,55.562 l 454.3125,0 0,-72.312 c 0,0 -65.07329,-1.786 -211.46875,-36.125 -144.108029,-33.803 -218.17422,-128.917 -246.3125,-130.156 z"
               transform="matrix(0.26458334,0,0,0.26458334,-6.3049604e-6,18.562493)"
               id="path39109"
               inkscape:connector-curvature="0" />
            <path
               style="color:#000000;fill:#fff6d5;fill-opacity:1;fill-rule:nonzero;stroke:none;stroke-width:12;marker:none;visibility:visible;display:inline;overflow:visible;enable-background:accumulate"
               d="m 1485.1875,31925.656 c 7.9359,2.919 16.1283,5.696 24.5937,8.25 8.4655,2.554 17.212,4.888 26.2188,7 -18.0135,-4.225 -34.9407,-9.412 -50.8125,-15.25 z"
               id="path39111"
               transform="matrix(0.26458334,0,0,0.26458334,-383.44505,42.23194)"
               inkscape:connector-curvature="0" />
            <path
               style="color:#000000;fill:#fff6d5;fill-opacity:1;fill-rule:nonzero;stroke:none;stroke-width:12;marker:none;visibility:visible;display:inline;overflow:visible;enable-background:accumulate"
               d="m 1420.6875,31896 c 6.4179,3.56 13.0566,7.078 19.9687,10.5 6.9122,3.422 14.0819,6.76 21.5,9.969 7.4182,3.208 15.0954,6.268 23.0313,9.187 -23.8077,-8.757 -45.2462,-18.975 -64.5,-29.656 z"
               id="path39113"
               transform="matrix(0.26458334,0,0,0.26458334,-383.44505,42.23194)"
               inkscape:connector-curvature="0" />
            <path
               style="color:#000000;fill:#fff6d5;fill-opacity:1;fill-rule:nonzero;stroke:none;stroke-width:12;marker:none;visibility:visible;display:inline;overflow:visible;enable-background:accumulate"
               d="m 1385.0625,31874.344 c 5.4648,3.609 11.1583,7.252 17.0937,10.875 5.9355,3.622 12.1134,7.221 18.5313,10.781 -12.8358,-7.121 -24.6954,-14.438 -35.625,-21.656 z"
               id="path39115"
               transform="matrix(0.26458334,0,0,0.26458334,-383.44505,42.23194)"
               inkscape:connector-curvature="0" />
            <path
               style="color:#000000;fill:#fff6d5;fill-opacity:1;fill-rule:nonzero;stroke:none;stroke-width:12;marker:none;visibility:visible;display:inline;overflow:visible;enable-background:accumulate"
               d="m 1302.4375,31815.312 c 2.4998,1.393 5.1744,3.095 8.0625,5.032 2.8881,1.936 5.9932,4.126 9.2812,6.531 6.5762,4.81 13.9406,10.46 22.1876,16.687 -16.4834,-12.447 -29.5365,-22.681 -39.5313,-28.25 z"
               id="path39117"
               transform="matrix(0.26458334,0,0,0.26458334,-383.44505,42.23194)"
               inkscape:connector-curvature="0" />
            <path
               style="color:#000000;fill:#fff6d5;fill-opacity:1;fill-rule:nonzero;stroke:none;stroke-width:12;marker:none;visibility:visible;display:inline;overflow:visible;enable-background:accumulate"
               d="m 1289.6875,31810.75 c -0.4466,-0.02 -0.8889,0 -1.3125,0.03 -1.0584,0.07 -2.2542,0.371 -3.5,0.781 -0.1942,0.06 -0.3949,0.178 -0.5938,0.25 -2.3961,2.301 -4.5544,4.528 -6.4374,6.688 -1.9146,2.196 -3.5675,4.31 -5,6.375 -0.7718,1.113 -1.326,2.172 -1.9688,3.25 7.2832,-5.445 13.0975,-8.925 17.5,-9.219 27.1103,-1.808 101.2295,95.785 247.625,130.125 146.3955,34.339 211.4688,36.157 211.4688,36.157 l 0,-8.126 c 0,0 -25.4133,-0.709 -80.2188,-9.624 -32.8833,-5.35 -76.3517,-13.655 -131.25,-26.532 -9.0068,-2.112 -17.7533,-4.446 -26.2188,-7 -8.4654,-2.554 -16.6578,-5.331 -24.5937,-8.25 -7.9359,-2.919 -15.6131,-5.979 -23.0313,-9.187 -7.4181,-3.209 -14.5878,-6.547 -21.5,-9.969 -6.9121,-3.422 -13.5508,-6.94 -19.9687,-10.5 -6.4179,-3.56 -12.5958,-7.159 -18.5313,-10.781 -5.9354,-3.623 -11.6289,-7.266 -17.0937,-10.875 -16.4042,-10.834 -30.7183,-21.436 -43.0937,-30.782 -8.247,-6.227 -15.6114,-11.877 -22.1876,-16.687 -3.288,-2.405 -6.3931,-4.595 -9.2812,-6.531 -2.8881,-1.937 -5.5627,-3.639 -8.0625,-5.032 -2.4998,-1.392 -4.8142,-2.477 -6.9375,-3.25 -2.1233,-0.772 -4.0539,-1.235 -5.8125,-1.312 z"
               id="path39119"
               transform="matrix(0.26458334,0,0,0.26458334,-383.44505,42.23194)"
               inkscape:connector-curvature="0" />
            <path
               style="color:#000000;fill:#fff6d5;fill-opacity:1;fill-rule:nonzero;stroke:none;stroke-width:12;marker:none;visibility:visible;display:inline;overflow:visible;enable-background:accumulate"
               d="m 1289.6875,31810.75 c 1.7586,0.08 3.6892,0.54 5.8125,1.312 2.1233,0.773 4.4377,1.858 6.9375,3.25 -4.9996,-2.785 -9.2327,-4.407 -12.75,-4.562 z"
               id="path39121"
               transform="matrix(0.26458334,0,0,0.26458334,-383.44505,42.23194)"
               inkscape:connector-curvature="0" />
          </g>
        </g>
      </g>
      <g
         transform="matrix(-1.0161969,0,0,1.0161969,-314.85449,236.96195)"
         id="g39086">
        <path
           style="color:#000000;fill:#ffea98;fill-opacity:1;fill-rule:nonzero;stroke:#d7c074;stroke-width:2.08292973000000000;stroke-linejoin:round;stroke-miterlimit:4;stroke-opacity:1;stroke-dasharray:none;marker:none;visibility:visible;display:inline;overflow:visible;enable-background:accumulate"
           d="m -216.22503,8408.9763 c 24.14651,-3.4017 68.1281,-29.0191 75.72956,-27.8375 4.72554,0.7345 14.4859,14.3949 40.835068,21.0414 26.349171,6.6467 28.457968,8.8695 28.457968,8.8695 l -42.933706,-1.4827 -69.15596,5.3714 -32.73133,-0.011 z"
           id="path38253"
           inkscape:connector-curvature="0"
           sodipodi:nodetypes="cssccccc" />
        <path
           sodipodi:nodetypes="cssccccc"
           inkscape:connector-curvature="0"
           id="path38255"
           d="m -216.56073,8408.3521 c 24.92489,-2.1364 70.26445,-29.435 76.67372,-27.0612 6.40925,2.3737 13.87744,14.2428 40.226608,20.8893 26.349171,6.6467 83.945691,20.7994 83.945691,20.7994 l -48.5691,2.7013 c 52.758363,15.4255 -95.694619,1.1852 -155.600239,0 l 0,-17.0506 c 0.96804,-0.1075 3.32332,-0.2782 3.32332,-0.2782 z"
           style="color:#000000;fill:#ffea98;fill-opacity:1;fill-rule:nonzero;stroke:none;stroke-width:20;marker:none;visibility:visible;display:inline;overflow:visible;enable-background:accumulate" />
        <path
           sodipodi:nodetypes="cssssssc"
           inkscape:connector-curvature="0"
           id="path38257"
           d="m -144.23502,8383.4775 c -8.53309,7.4624 -19.7049,14.3784 -11.56061,20.6874 8.27564,6.4107 59.62841,5.6282 66.017167,6.5409 6.388757,0.9127 14.602874,8.8225 18.55782,10.1916 3.954945,1.369 6.997211,-1.9775 4.715513,-3.4986 -2.281699,-1.5212 -56.89037,-17.1888 -65.40871,-20.6875 -8.51835,-3.4986 -13.08175,-8.9746 -13.23386,-9.8873 -0.15211,-0.9127 0.91268,-3.3465 0.91268,-3.3465 z"
           style="color:#000000;fill:#fff4c9;fill-opacity:1;fill-rule:nonzero;stroke:none;stroke-width:25;marker:none;visibility:visible;display:inline;overflow:visible;enable-background:accumulate" />
        <path
           id="path38259"
           d="m -140.92414,8381.1449 c -9.23081,0.072 -51.78242,25.1622 -75.63632,27.2069 0,0 -2.355,0.1708 -3.32304,0.2783 l 0,1.5056 c 0.96804,-0.1076 3.32304,-0.2772 3.32304,-0.2772 24.92488,-2.1364 70.26433,-29.4354 76.67359,-27.0616 6.40926,2.3738 13.87716,14.2428 40.226332,20.8894 26.349174,6.6467 35.376466,7.3581 35.376466,7.3581 l 0,-1.5056 c 0,0 -9.027292,-0.7114 -35.376466,-7.358 -26.349172,-6.6467 -33.817072,-18.5158 -40.226332,-20.8895 -0.2754,-0.102 -0.62282,-0.1496 -1.03727,-0.1464 z"
           style="color:#000000;fill:#fff4c9;fill-opacity:1;fill-rule:nonzero;stroke:none;stroke-width:20;marker:none;visibility:visible;display:inline;overflow:visible;enable-background:accumulate"
           inkscape:connector-curvature="0" />
        <path
           sodipodi:nodetypes="scsssss"
           inkscape:connector-curvature="0"
           id="path38261"
           d="m -140.92414,8381.1449 c -0.42112,0 -3.45946,2.4169 -4.92705,5.0297 -3.3492,4.3365 -8.73788,6.0132 -11.16179,13.1224 -3.3109,9.7105 47.003,8.2148 66.01716,9.7359 12.634322,1.0108 17.684456,-0.2055 -8.664718,-6.8521 -26.349172,-6.6467 -33.817072,-18.5158 -40.226332,-20.8895 -0.2754,-0.102 -0.62282,-0.1496 -1.03727,-0.1464 z"
           style="color:#000000;fill:#ffcc00;fill-opacity:1;fill-rule:nonzero;stroke:#d7c074;stroke-width:0.89419174000000001;stroke-linecap:round;stroke-linejoin:round;stroke-miterlimit:4;stroke-opacity:1;stroke-dasharray:none;stroke-dashoffset:0;marker:none;visibility:visible;display:inline;overflow:visible;enable-background:accumulate" />
        <path
           sodipodi:nodetypes="ccccccccccc"
           inkscape:connector-curvature="0"
           id="path38263"
           d="m -145.16015,8384.3413 c -4.31908,4.5793 -9.59031,8.8203 -11.70072,14.9556 -0.54656,3.7192 4.14164,4.9057 6.89578,5.8211 12.23783,3.1281 24.97048,3.3934 37.51488,4.1661 7.64349,0.4813 15.343637,0.4383 22.946363,1.3617 7.777732,2.1021 13.885461,8.3114 21.889091,9.7414 2.736567,0.7492 53.885312,-0.8697 53.885312,-3.3645 -12.97779,-1.7161 -76.265437,-12.4096 -88.933246,-15.6443 -11.31327,-3.0666 -21.94213,-8.5182 -30.97004,-16.004 -2.22993,-1.486 -4.60746,-3.9108 -7.37647,-4.3403 -1.04485,0.3698 -2.80732,2.0641 -4.15095,3.3072 z"
           style="color:#000000;fill:#ffe581;fill-opacity:1;fill-rule:nonzero;stroke:none;stroke-width:2.08292973;marker:none;visibility:visible;display:inline;overflow:visible;enable-background:accumulate;stroke-miterlimit:4;stroke-dasharray:none" />
        <path
           sodipodi:nodetypes="cccsscccc"
           inkscape:connector-curvature="0"
           id="path38265"
           d="m -141.00908,8381.0342 c -1.04486,0.3699 -2.80765,2.0643 -4.15129,3.3074 -1.54845,1.6418 -3.21824,3.2402 -4.82192,4.898 3.76874,-3.3052 8.48833,-6.7433 9.54996,-6.9792 1.36902,-0.3042 8.36669,8.823 25.7076,16.1245 14.12629,5.9479 33.545981,9.1699 43.862758,10.1602 -10.713734,-1.8105 -21.279901,-4.4805 -31.800808,-7.1669 -11.31327,-3.0666 -21.94243,-8.5181 -30.97034,-16.0038 -2.22993,-1.486 -4.60696,-3.9107 -7.37596,-4.3402 z"
           style="color:#000000;fill:#ffea98;fill-opacity:1;fill-rule:nonzero;stroke:none;stroke-width:25;marker:none;visibility:visible;display:inline;overflow:visible;enable-background:accumulate" />
      </g>
      <path
         style="color:#000000;fill:#ffea98;fill-opacity:1;fill-rule:nonzero;stroke:#d7c074;stroke-width:2.11666673999999990;stroke-linejoin:round;stroke-miterlimit:4;stroke-opacity:1;stroke-dasharray:none;marker:none;visibility:visible;display:inline;overflow:visible;enable-background:accumulate"
         d="m 220.13333,8761.3385 c -19.21296,-8.3468 -37.10054,-17.263 -41.82897,-16.528 -5.07348,0.7885 -15.55715,15.4527 -43.84642,22.5888 -28.28928,7.1361 -30.55111,9.525 -30.55111,9.525 l 46.09538,-1.5875 70.13112,5.4404 0,-19.4387 z"
         id="path11573"
         inkscape:connector-curvature="0" />
      <path
         style="color:#000000;fill:#ffea98;fill-opacity:1;fill-rule:nonzero;stroke:none;stroke-width:20;marker:none;visibility:visible;display:inline;overflow:visible;enable-background:accumulate"
         d="m 220.13333,8761.4875 c -19.95293,-8.5495 -38.44343,-18.0076 -42.48216,-16.5116 -6.88117,2.5484 -14.90396,15.2873 -43.19323,22.4234 -28.28928,7.1361 -37.975978,7.9044 -37.975978,7.9044 l 0,17.3302 123.651368,0 0,-31.1464 z"
         id="path11563"
         inkscape:connector-curvature="0" />
      <path
         sodipodi:nodetypes="cssssssc"
         inkscape:connector-curvature="0"
         id="path11544"
         d="m 182.31769,8747.3233 c 9.16139,8.0118 21.15579,15.4371 12.41183,22.2106 -8.88498,6.8827 -64.01888,6.0426 -70.87805,7.0225 -6.85916,0.9799 -15.67809,9.4721 -19.92424,10.942 -4.246147,1.4698 -7.512417,-2.1231 -5.062716,-3.7562 2.449706,-1.6332 61.079236,-18.4544 70.224786,-22.2107 9.14556,-3.7562 14.04497,-9.6354 14.20828,-10.6153 0.16331,-0.9799 -0.97989,-3.5929 -0.97989,-3.5929 z"
         style="color:#000000;fill:#fff4c9;fill-opacity:1;fill-rule:nonzero;stroke:none;stroke-width:25;marker:none;visibility:visible;display:inline;overflow:visible;enable-background:accumulate" />
      <path
         style="color:#000000;fill:#fff4c9;fill-opacity:1;fill-rule:nonzero;stroke:none;stroke-width:20;marker:none;visibility:visible;display:inline;overflow:visible;enable-background:accumulate"
         d="m 220.13333,8761.4875 c -18.49542,-7.9246 -35.74044,-16.6249 -41.37422,-16.6688 -0.44496,0 -0.81226,0.048 -1.10794,0.1572 -6.88118,2.5484 -14.90396,15.2955 -43.19323,22.4316 -28.28928,7.1361 -37.975978,7.8962 -37.975978,7.8962 l 0,1.6124 c 0,0 9.686698,-0.7601 37.975978,-7.8962 28.28927,-7.1361 36.31205,-19.875 43.19323,-22.4235 4.03886,-1.4959 22.52845,7.9619 42.48216,16.5116 l 0,-1.6205 z"
         id="path11568"
         inkscape:connector-curvature="0" />
      <g
         transform="translate(-541.86668,0)"
         id="g11587">
        <path
           inkscape:connector-curvature="0"
           id="path11540"
           d="m 220.13333,8761.3385 0,19.4387 4.11758,0.3225 35.13998,-0.01 0.21497,-6.3916 c -10.90429,-1.5359 -25.52434,-7.3017 -39.47253,-13.3614 z"
           style="color:#000000;fill:#ffea98;fill-opacity:1;fill-rule:nonzero;stroke:#d7c074;stroke-width:2.11666673999999990;stroke-linejoin:round;stroke-miterlimit:4;stroke-opacity:1;stroke-dasharray:none;marker:none;visibility:visible;display:inline;overflow:visible;enable-background:accumulate" />
        <path
           inkscape:connector-curvature="0"
           id="path11542"
           d="m 220.13333,8761.4875 0,31.1464 43.39994,0 c 379.57056,23.0025 0,-12.204 0,-18.306 -1.03932,-0.1153 -3.56361,-0.2976 -3.56361,-0.2976 -11.05399,-0.9475 -25.79343,-6.5257 -39.83633,-12.5428 z"
           style="color:#000000;fill:#ffea98;fill-opacity:1;fill-rule:nonzero;stroke:none;stroke-width:20;marker:none;visibility:visible;display:inline;overflow:visible;enable-background:accumulate"
           sodipodi:nodetypes="cccccc" />
        <path
           inkscape:connector-curvature="0"
           id="path11546"
           d="m 220.13333,8761.4875 0,1.6205 c 14.04224,6.0169 28.7829,11.5872 39.83633,12.5347 0,0 2.52429,0.182 3.56361,0.2976 l 0,-1.6124 c -1.03932,-0.1153 -3.56361,-0.2976 -3.56361,-0.2976 -11.05169,-0.9472 -25.7961,-6.5273 -39.83633,-12.5428 z"
           style="color:#000000;fill:#fff4c9;fill-opacity:1;fill-rule:nonzero;stroke:none;stroke-width:20;marker:none;visibility:visible;display:inline;overflow:visible;enable-background:accumulate" />
      </g>
      <path
         sodipodi:nodetypes="scsssss"
         inkscape:connector-curvature="0"
         id="path11548"
         d="m 178.76303,8744.8189 c 0.45213,0 3.71418,2.5949 5.28983,5.4001 3.59581,4.6558 9.38126,6.4559 11.98364,14.0886 3.55469,10.4255 -50.46385,8.8196 -70.87803,10.4527 -13.5646,1.0853 -18.98658,-0.2206 9.3027,-7.3566 28.28928,-7.1361 36.30704,-19.8791 43.18822,-22.4276 0.29568,-0.1095 0.66868,-0.1606 1.11364,-0.1572 z"
         style="color:#000000;fill:#ffcc00;fill-opacity:1;fill-rule:nonzero;stroke:#d7c074;stroke-width:0.96003150999999998;stroke-linecap:round;stroke-linejoin:round;stroke-miterlimit:4;stroke-opacity:1;stroke-dasharray:none;stroke-dashoffset:0;marker:none;visibility:visible;display:inline;overflow:visible;enable-background:accumulate" />
      <path
         sodipodi:nodetypes="cccccccccccc"
         inkscape:connector-curvature="0"
         id="path11550"
         d="m 183.31094,8748.2507 c 4.6371,4.9164 10.29645,9.4697 12.56225,16.0568 0.58681,3.993 -4.44659,5.2669 -7.40352,6.2497 -13.1389,3.3584 -26.80907,3.6432 -40.27712,4.4728 -8.20628,0.5168 -16.47339,0.4706 -24.63591,1.462 -8.35041,2.2569 -14.90786,8.9234 -23.5008,10.4586 -2.93806,0.8044 -4.133272,-1.1073 -3.575919,-3.6114 0,-2.6786 11.485309,-9.703 17.693579,-12.0711 13.93335,-1.8425 9.91033,-1.253 23.51087,-4.7259 12.14627,-3.2924 23.55774,-9.1454 33.25038,-17.1824 2.39412,-1.5954 4.94671,-4.1987 7.91961,-4.6598 1.12178,0.397 3.01402,2.216 4.45658,3.5507 z"
         style="color:#000000;fill:#ffe581;fill-opacity:1;fill-rule:nonzero;stroke:none;stroke-width:25;marker:none;visibility:visible;display:inline;overflow:visible;enable-background:accumulate" />
      <path
         sodipodi:nodetypes="cccsscccc"
         inkscape:connector-curvature="0"
         id="path11552"
         d="m 178.85423,8744.7001 c 1.12179,0.3971 3.01438,2.2163 4.45695,3.5509 1.66246,1.7627 3.4552,3.4788 5.17696,5.2586 -4.04624,-3.5485 -9.11333,-7.2398 -10.25313,-7.493 -1.46982,-0.3266 -8.98273,9.4726 -27.60046,17.3117 -15.16642,6.3859 -36.01599,9.8451 -47.0924,10.9083 11.50259,-1.9438 22.84675,-4.8104 34.14232,-7.6946 12.14627,-3.2924 23.55806,-9.1453 33.2507,-17.1822 2.39412,-1.5954 4.94617,-4.1986 7.91906,-4.6597 z"
         style="color:#000000;fill:#ffea98;fill-opacity:1;fill-rule:nonzero;stroke:none;stroke-width:25;marker:none;visibility:visible;display:inline;overflow:visible;enable-background:accumulate" />
    </g>
    <rect
       style="color:#000000;fill:url(#linearGradient12922);fill-opacity:1;fill-rule:nonzero;stroke:none;stroke-width:8;marker:none;visibility:visible;display:inline;overflow:visible;enable-background:accumulate"
       id="rect12914"
       width="541.8667"
       height="104.91981"
       x="-275.38519"
       y="65.246193"
       rx="0.00012885188"
       ry="0.00035530757" />
  </g>
</svg>
