<?xml version="1.0" encoding="UTF-8" standalone="no"?>
<!-- Created with Inkscape (http://www.inkscape.org/) -->

<svg
   xmlns:dc="http://purl.org/dc/elements/1.1/"
   xmlns:cc="http://creativecommons.org/ns#"
   xmlns:rdf="http://www.w3.org/1999/02/22-rdf-syntax-ns#"
   xmlns:svg="http://www.w3.org/2000/svg"
   xmlns="http://www.w3.org/2000/svg"
   xmlns:xlink="http://www.w3.org/1999/xlink"
   xmlns:sodipodi="http://sodipodi.sourceforge.net/DTD/sodipodi-0.dtd"
   xmlns:inkscape="http://www.inkscape.org/namespaces/inkscape"
   width="2048.0093"
   height="512"
   viewBox="0 0 541.8691 135.46667"
   version="1.1"
   id="svg23489"
   inkscape:version="0.48.5 r10040"
   sodipodi:docname="foreground.svg">
  <defs
     id="defs23483">
    <linearGradient
       inkscape:collect="always"
       xlink:href="#linearGradient38526"
       id="linearGradient38571"
       gradientUnits="userSpaceOnUse"
       gradientTransform="translate(0,48.015164)"
       x1="16.230473"
       y1="8552.9033"
       x2="16.230473"
       y2="8662.582" />
    <linearGradient
       inkscape:collect="always"
       id="linearGradient38526">
      <stop
         style="stop-color:#f9c976;stop-opacity:1"
         offset="0"
         id="stop38528" />
      <stop
         style="stop-color:#fbdc86;stop-opacity:1"
         offset="1"
         id="stop38530" />
    </linearGradient>
  </defs>
  <sodipodi:namedview
     id="base"
     pagecolor="#7d848b"
     bordercolor="#666666"
     borderopacity="1.0"
     inkscape:pageopacity="0"
     inkscape:pageshadow="2"
     inkscape:zoom="2.0757513"
     inkscape:cx="117.8172"
     inkscape:cy="421.92012"
     inkscape:document-units="px"
     inkscape:current-layer="layer1"
     showgrid="false"
     inkscape:pagecheckerboard="false"
     showborder="true"
     units="px"
     inkscape:window-width="1920"
     inkscape:window-height="1017"
     inkscape:window-x="-8"
     inkscape:window-y="-8"
     inkscape:window-maximized="1"
     inkscape:showpageshadow="false"
     guidetolerance="28"
     fit-margin-top="0"
     fit-margin-left="0"
     fit-margin-right="0"
     fit-margin-bottom="0"
     showguides="true"
     inkscape:guide-bbox="true">
    <inkscape:grid
       type="xygrid"
       id="grid24034"
       spacingx="1px"
       spacingy="1px"
       empspacing="8"
       visible="true"
       enabled="true"
       snapvisiblegridlinesonly="true"
       originx="614.3983px"
       originy="-345.83758px" />
    <sodipodi:guide
       orientation="0,1"
       position="2152.4737,468.2642"
       id="guide35510" />
  </sodipodi:namedview>
  <metadata
     id="metadata23486">
    <rdf:RDF>
      <cc:Work
         rdf:about="">
        <dc:format>image/svg+xml</dc:format>
        <dc:type
           rdf:resource="http://purl.org/dc/dcmitype/StillImage" />
        <dc:title />
        <cc:license
           rdf:resource="" />
        <dc:creator>
          <cc:Agent>
            <dc:title>Robert Brooks</dc:title>
          </cc:Agent>
        </dc:creator>
      </cc:Work>
    </rdf:RDF>
  </metadata>
  <g
     inkscape:label="Layer 1"
     inkscape:groupmode="layer"
     id="layer1"
     transform="translate(162.55955,-70.030466)">
    <g
       id="g35395"
       transform="matrix(0.99999998,0,0,0.95058145,527.1289,-4017.3397)">
      <g
         id="g35368">
        <rect
           style="color:#000000;fill:#f4d16e;fill-opacity:1;fill-rule:nonzero;stroke:none;stroke-width:5;marker:none;visibility:visible;display:inline;overflow:visible;enable-background:accumulate"
           id="rect28977"
           width="541.8667"
           height="135.46667"
           x="-689.68848"
           y="4306.9058"
           rx="0.0070142327"
           ry="0.028682498" />
        <path
           style="opacity:0.27876108;color:#000000;fill:#f7ba31;fill-opacity:1;fill-rule:nonzero;stroke:none;stroke-width:19.38441849;marker:none;visibility:visible;display:inline;overflow:visible;enable-background:accumulate"
           d="m -2606.6562,16207.906 c -0.015,0 -0.031,0.06 -0.031,0.125 l 0,19.272 c 14.8414,0.928 23.282,0.979 35.078,0 16.5688,11.138 60.9805,16.928 96.3283,12.509 43.5535,-5.444 59.8861,1.817 76.2187,-1.812 12.1473,-2.7 244.0515,18.7 374.0937,22.375 55.2491,4.617 104.9634,7.473 133.5313,5.687 82.1252,-5.132 313.0937,-12.847 374.6875,-10.281 61.594,2.567 128.3397,10.27 192.5,-2.562 31.4713,-6.294 45.5862,-10.743 56.4062,-13.938 25.2202,2.507 48.0006,5.153 61.0626,5.969 29.0357,1.815 107.0714,-1.797 150.625,-14.5 9.924,-2.895 23.1548,-4.731 37.6562,-5.875 -9.9052,-0.07 -20.5814,-0.168 -31.3125,-0.25 40.547,-11.316 100.25,-7.344 100.25,-7.344 0,0 10.41562,2.902 26.8125,7.094 -22.33235,-1.01 -62.3835,-2.132 -95.75,0.5 41.30973,0.3 76.33675,0.493 99.90625,0.563 48.76811,12.352 142.66785,5.575 187.1875,1.865 26.5158,-2.21 98.70056,0.597 172.71875,0 l 0,-19.272 c 0,-0.06 -0.0161,-0.125 -0.0312,-0.125 l -2047.9374,0 z"
           transform="matrix(0.26458334,0,0,0.26458334,-6.3049604e-6,18.562493)"
           id="path35339"
           inkscape:connector-curvature="0"
           sodipodi:nodetypes="sscccccccscccccccccccsscs" />
        <path
           style="color:#000000;fill:#fddd82;fill-opacity:1;fill-rule:nonzero;stroke:none;stroke-width:10.92599964;marker:none;visibility:visible;display:inline;overflow:visible;enable-background:accumulate"
           d="m -616.3469,4299.865 c -1.83644,-0.01 -3.55081,0.021 -5.1263,0.092 -26.92678,0 -47.03739,2.2866 -68.21289,2.2866 l 0,6.087 7.64812,0 c 27.82949,2.0299 122.01851,7.5794 159.29568,7.8493 40.24226,0.2917 58.95335,-4.1968 83.28589,-4.3506 24.33254,-0.1536 39.82306,-0.9616 53.48782,-1.4008 16.94331,-0.5444 26.06382,-0.7419 39.16596,0.2674 13.10214,1.0093 44.92223,4.0869 54.28091,2.9354 9.35869,-1.1514 11.2308,-3.3474 19.6536,-3.4006 8.4228,-0.052 44.04845,-0.229 49.66365,0.2818 5.61521,0.5107 -13.34017,0.6117 -29.07576,3.4071 -6.22916,1.988 33.94694,-1.1004 72.31752,-5.1669 13.80063,0 27.12228,0.3443 28.64583,-0.4221 l 3.49746,0 0,-6.087 c -39.37495,0 -50.34169,-2.2866 -67.73334,-2.2866 -17.76542,0 -32.20248,1.9044 -67.73333,3.8067 -20.64631,0.3805 -52.36864,-3.0467 -67.73334,-3.0467 -12.96394,-0.7609 -43.24585,3.4291 -67.73333,1.5266 -23.9849,-2.8156 -49.61843,-0.4258 -64.35162,1.4547 -8.01367,-0.015 -15.96816,-0.015 -23.84557,-0.019 -15.75602,-0.9953 -35.0075,-2.6806 -47.26948,-1.4349 -15.66479,1.0345 -44.37507,-2.3093 -62.12748,-2.3783 z"
           id="path21972"
           inkscape:connector-curvature="0"
           sodipodi:nodetypes="cccccssssccscccccsccccccsc" />
        <path
           style="opacity:0.27876108;color:#000000;fill:#f7ba31;fill-opacity:1;fill-rule:nonzero;stroke:none;stroke-width:19.38441849;marker:none;visibility:visible;display:inline;overflow:visible;enable-background:accumulate"
           d="m -689.68777,4411.9245 0,30.4218 c 0,0.016 0.004,0.024 0.008,0.024 l 541.85014,0 c 0.004,0 0.008,-0.01 0.008,-0.024 l 0,-30.4218 c -93.31002,1.5401 -104.76647,-2.5873 -156.2359,-2.3189 -48.15498,0.2512 -68.04896,4.9326 -157.68088,6.2907 -32.94869,0 -115.01293,-3.7539 -146.59254,-2.2259 -31.57961,1.5277 -60.20911,-1.7459 -81.35736,-1.7459 l 5e-5,0 z"
           id="rect35344"
           inkscape:connector-curvature="0"
           sodipodi:nodetypes="csssscscsccc" />
        <path
           style="color:#000000;fill:#fddd82;fill-opacity:1;fill-rule:nonzero;stroke:none;stroke-width:19.38441849;marker:none;visibility:visible;display:inline;overflow:visible;enable-background:accumulate"
           d="m -666.44352,4306.4643 c -7.2022,-0.7202 -14.16431,3.6012 -6.72206,4.8014 7.44228,1.2004 36.01101,-0.24 38.8919,-2.4006 2.88086,-2.1606 -32.16984,-2.4008 -32.16984,-2.4008 z"
           id="path35355"
           inkscape:connector-curvature="0" />
        <path
           style="opacity:0.42920353;color:#000000;fill:#feeab2;fill-opacity:1;fill-rule:nonzero;stroke:none;stroke-width:10.92599964;marker:none;visibility:visible;display:inline;overflow:visible;enable-background:accumulate"
           d="m -2334.625,16181.312 c -5.0297,0.03 -9.784,0.143 -14.25,0.344 -101.7705,0 -177.7791,8.625 -257.8125,8.625 l 0,12.719 c 80.0334,0 156.042,-8.656 257.8125,-8.656 5.9546,-0.269 12.4341,-0.382 19.375,-0.344 0,0.579 175.6085,12.909 234.8125,9 46.3445,-4.708 119.1059,1.644 178.6563,5.406 29.7728,0.01 59.8371,0.04 90.125,0.09 55.6844,-7.107 152.5671,-16.142 243.2187,-5.5 92.5511,7.191 207.0024,-8.657 256,-5.781 58.0713,0 177.9667,12.969 256,11.531 134.28982,-7.19 188.85511,-14.406 256,-14.406 65.73222,0 107.18129,8.656 256,8.656 l 0,-12.719 c -148.81871,0 -190.26778,-8.625 -256,-8.625 -67.14489,0 -121.71018,7.185 -256,14.375 -78.0333,1.438 -197.9287,-11.5 -256,-11.5 -48.9976,-2.876 -163.4489,12.941 -256,5.75 -90.6516,-10.641 -187.5343,-1.607 -243.2187,5.5 -30.2879,-0.06 -60.3522,-0.05 -90.125,-0.06 -59.5504,-3.762 -132.3118,-10.146 -178.6563,-5.438 -59.2055,3.91 -167.7168,-8.708 -234.8125,-8.969 -1.7352,0 -3.4484,0 -5.125,0 z m 1390.1875,51.594 c -3.04077,0.482 -6.06997,0.969 -9.0625,1.5 -11.79809,3.766 20.45173,2.735 73.8125,-1.187 -18.69186,-0.223 -41.82114,-0.31 -64.75,-0.313 z"
           transform="matrix(0.26458334,0,0,0.26458334,-6.3049604e-6,18.562493)"
           id="path35363"
           inkscape:connector-curvature="0" />
        <path
           style="color:#000000;fill:#fddd82;fill-opacity:1;fill-rule:nonzero;stroke:none;stroke-width:19.38441849;marker:none;visibility:visible;display:inline;overflow:visible;enable-background:accumulate"
           d="m -217.89012,4425.9379 c -27.57231,0.1858 -48.45727,2.3938 -82.91803,5.9586 -39.38374,4.074 -83.78601,1.2493 -123.84879,3.2865 -26.80378,1.363 -71.07078,-8.3206 -96.46444,-5.6834 -20.54548,2.1336 -35.3201,5.7339 -50.77274,6.6784 -41.56569,2.5406 -63.77742,3.4994 -117.79365,-3.8161 l 0,9.9844 c 0,0.016 0.004,0.025 0.008,0.025 l 541.85015,0 c 0.004,0 0.008,-0.01 0.008,-0.025 l 0,-9.9767 c -21.01033,0.9341 -51.34278,-6.9118 -70.0685,-6.4317 z"
           id="path35334"
           inkscape:connector-curvature="0"
           sodipodi:nodetypes="csssscsssscc" />
        <path
           sodipodi:nodetypes="ccssssccscssccccc"
           inkscape:connector-curvature="0"
           id="path35388"
           transform="matrix(0.26458334,0,0,0.26458334,-6.3049604e-6,18.562493)"
           d="m -816.75,16657.719 c -2.29496,0 -4.56955,0 -6.78125,0.06 -104.2103,0.702 -183.12965,9.058 -313.37495,22.531 -148.852,15.398 -316.6754,4.738 -468.0938,12.438 -101.3056,5.151 -268.6177,-31.467 -364.5938,-21.5 -77.6522,8.064 -133.5025,21.68 -191.9062,25.25 -157.0987,9.602 -374.4249,-14.439 -445.1875,-14.439 l 0,12.719 c 73.3829,0 288.0888,24.01 445.1875,14.408 58.4037,-3.57 128.7718,-26.229 206.424,-34.293 95.9761,-9.968 248.7704,35.694 350.076,30.543 151.4184,-7.7 319.2418,2.991 468.0938,-12.407 130.2453,-13.473 214.60883,-32.717 318.81913,-33.419 70.77437,-1.815 179.99045,38.731 259.39957,35.2 l 0,-12.718 c -76.92758,3.42 -186.91859,-24.289 -258.0625,-24.375 z"
           style="color:#000000;fill:#fde294;fill-opacity:1;fill-rule:nonzero;stroke:none;stroke-width:19.38441849;marker:none;visibility:visible;display:inline;overflow:visible;enable-background:accumulate" />
      </g>
      <path
         inkscape:connector-curvature="0"
         id="path35377"
         d="m -574.49212,4311.9894 c -4.11028,0 -7.44969,0.9647 -7.44969,2.158 0,1.1932 3.33941,2.1582 7.44969,2.1582 2.20151,0 4.16885,-0.2784 5.53143,-0.7194 1.0646,0.1516 2.2865,0.2397 3.58841,0.2397 4.11025,0 7.44141,-0.8575 7.44141,-1.9182 0,-1.0608 -3.33116,-1.9183 -7.44141,-1.9183 -1.77284,0 -3.40146,0.163 -4.67982,0.43 -1.24116,-0.2691 -2.77164,-0.43 -4.44002,-0.43 z"
         style="color:#000000;fill:#fddd82;fill-opacity:1;fill-rule:nonzero;stroke:none;stroke-width:19.38441849;marker:none;visibility:visible;display:inline;overflow:visible;enable-background:accumulate" />
      <path
         transform="matrix(0.26458334,0,0,0.26458334,-6.3049604e-6,18.562493)"
         d="m -1263.0502,16220.761 c 0,3.508 -11.3748,6.351 -25.4062,6.351 -14.0315,0 -25.4062,-2.843 -25.4062,-6.351 0,-3.508 11.3747,-6.352 25.4062,-6.352 14.0314,0 25.4062,2.844 25.4062,6.352 z"
         sodipodi:ry="6.3515458"
         sodipodi:rx="25.406183"
         sodipodi:cy="16220.761"
         sodipodi:cx="-1288.4564"
         id="path35381"
         style="color:#000000;fill:#fddd82;fill-opacity:1;fill-rule:nonzero;stroke:none;stroke-width:19.38441849;marker:none;visibility:visible;display:inline;overflow:visible;enable-background:accumulate"
         sodipodi:type="arc" />
      <path
         transform="matrix(0.26458334,0,0,0.26458334,-6.3049604e-6,18.562493)"
         d="m -687.78168,16221.668 c 0,1.002 -4.87489,1.815 -10.88836,1.815 -6.01348,0 -10.88837,-0.813 -10.88837,-1.815 0,-1.002 4.87489,-1.815 10.88837,-1.815 6.01347,0 10.88836,0.813 10.88836,1.815 z"
         sodipodi:ry="1.8147273"
         sodipodi:rx="10.888364"
         sodipodi:cy="16221.668"
         sodipodi:cx="-698.67004"
         id="path35383"
         style="color:#000000;fill:#fddd82;fill-opacity:1;fill-rule:nonzero;stroke:none;stroke-width:19.38441849;marker:none;visibility:visible;display:inline;overflow:visible;enable-background:accumulate"
         sodipodi:type="arc" />
      <path
         style="color:#000000;fill:#fddd82;fill-opacity:1;fill-rule:nonzero;stroke:none;stroke-width:19.38441849;marker:none;visibility:visible;display:inline;overflow:visible;enable-background:accumulate"
         d="m -350.7438,4308.1482 c -4.11028,0 -7.44969,0.9647 -7.44969,2.158 0,1.1932 3.33941,2.1582 7.44969,2.1582 2.20151,0 4.16885,-0.2784 5.53143,-0.7194 1.0646,0.1516 2.2865,0.2397 3.58841,0.2397 4.11025,0 7.44141,-0.8575 7.44141,-1.9182 0,-1.0608 -3.33116,-1.9183 -7.44141,-1.9183 -1.77284,0 -3.40146,0.163 -4.67982,0.43 -1.24116,-0.2691 -2.77164,-0.43 -4.44002,-0.43 z"
         id="path35393"
         inkscape:connector-curvature="0" />
    </g>
  </g>
</svg>
