<?xml version="1.0" encoding="UTF-8" standalone="no"?>
<!-- Created with Inkscape (http://www.inkscape.org/) -->

<svg
   xmlns:dc="http://purl.org/dc/elements/1.1/"
   xmlns:cc="http://creativecommons.org/ns#"
   xmlns:rdf="http://www.w3.org/1999/02/22-rdf-syntax-ns#"
   xmlns:svg="http://www.w3.org/2000/svg"
   xmlns="http://www.w3.org/2000/svg"
   xmlns:sodipodi="http://sodipodi.sourceforge.net/DTD/sodipodi-0.dtd"
   xmlns:inkscape="http://www.inkscape.org/namespaces/inkscape"
   width="2160.6438"
   height="285.19504"
   viewBox="0 0 571.67031 75.457851"
   version="1.1"
   id="svg23489"
   inkscape:version="0.48.5 r10040"
   sodipodi:docname="sand_hill_02.svg">
  <defs
     id="defs23483" />
  <sodipodi:namedview
     id="base"
     pagecolor="#7d848b"
     bordercolor="#666666"
     borderopacity="1.0"
     inkscape:pageopacity="0"
     inkscape:pageshadow="2"
     inkscape:zoom="0.33253588"
     inkscape:cx="624.43288"
     inkscape:cy="762.24179"
     inkscape:document-units="px"
     inkscape:current-layer="layer1"
     showgrid="false"
     inkscape:pagecheckerboard="false"
     showborder="true"
     units="px"
     inkscape:window-width="1920"
     inkscape:window-height="1017"
     inkscape:window-x="-8"
     inkscape:window-y="-8"
     inkscape:window-maximized="1"
     inkscape:showpageshadow="false"
     guidetolerance="28"
     fit-margin-top="15"
     fit-margin-left="15"
     fit-margin-right="15"
     fit-margin-bottom="15">
    <inkscape:grid
       type="xygrid"
       id="grid24034"
       spacingx="1px"
       spacingy="1px"
       empspacing="8"
       visible="true"
       enabled="true"
       snapvisiblegridlinesonly="true"
       originx="844.40377px"
       originy="460.45039px" />
  </sodipodi:namedview>
  <metadata
     id="metadata23486">
    <rdf:RDF>
      <cc:Work
         rdf:about="">
        <dc:format>image/svg+xml</dc:format>
        <dc:type
           rdf:resource="http://purl.org/dc/dcmitype/StillImage" />
        <dc:title></dc:title>
        <cc:license
           rdf:resource="" />
        <dc:creator>
          <cc:Agent>
            <dc:title>Robert Brooks</dc:title>
          </cc:Agent>
        </dc:creator>
      </cc:Work>
    </rdf:RDF>
  </metadata>
  <g
     inkscape:label="Layer 1"
     inkscape:groupmode="layer"
     id="layer1"
     transform="translate(223.41515,-343.36963)">
    <g
       transform="translate(667.36659,-3006.946)"
       id="g61695">
      <g
         id="g61663"
         transform="matrix(0.99996037,0.00890245,-0.00890245,0.99996037,-26.295807,-14.351992)">
        <path
           style="color:#000000;fill:#fddd82;fill-opacity:1;fill-rule:nonzero;stroke:#eacd6c;stroke-width:12;stroke-miterlimit:4;stroke-opacity:1;stroke-dasharray:none;marker:none;visibility:visible;display:inline;overflow:visible;enable-background:accumulate"
           d="m -2943.6746,12875.822 c 169.3832,5.133 423.458,-177.082 695.4977,-187.348 272.0397,-10.265 505.5831,156.551 621.0717,169.383 115.4885,12.832 -153.9847,17.965 -241.2427,15.399 -87.2581,-2.567 -1075.3267,2.566 -1075.3267,2.566 z"
           id="path61665"
           inkscape:connector-curvature="0"
           transform="matrix(0.26458334,0,0,0.26458334,-6.3049604e-6,18.562493)" />
        <path
           sodipodi:nodetypes="csscc"
           transform="matrix(0.26458334,0,0,0.26458334,-6.3049604e-6,18.562493)"
           inkscape:connector-curvature="0"
           id="path61667"
           d="m -2943.6746,12875.822 c 169.3832,5.133 423.458,-177.082 695.4977,-187.348 272.0397,-10.265 505.5831,156.551 621.0717,169.383 115.4885,12.832 -115.8755,19.78 -292.0551,40.805 -303.2252,25.934 -1055.9348,-10.188 -1024.5143,-22.84 z"
           style="color:#000000;fill:#ffea98;fill-opacity:1;fill-rule:nonzero;stroke:none;stroke-width:5;marker:none;visibility:visible;display:inline;overflow:visible;enable-background:accumulate" />
        <path
           id="path61669"
           transform="matrix(0.26458334,0,0,0.26458334,-6.3049604e-6,18.562493)"
           d="m -2229.125,12688.031 c -6.3326,0.05 -12.6866,0.197 -19.0625,0.438 -181.846,6.862 -355.6389,90.571 -501.5,143.781 142.4191,-42.266 331.937,-109.499 443.1563,-125.719 174.2138,-25.406 228.6829,43.577 232.3124,58.094 3.6295,14.518 29.0067,-12.707 -27.25,-47.187 -12.0446,-7.383 -25.6935,-15.794 -39.9374,-24.407 -28.6721,-3.429 -57.9614,-5.236 -87.7188,-5 z"
           style="opacity:0.69911505;color:#000000;fill:#fff4c6;fill-opacity:1;fill-rule:nonzero;stroke:none;stroke-width:12;marker:none;visibility:visible;display:inline;overflow:visible;enable-background:accumulate"
           inkscape:connector-curvature="0" />
        <path
           id="path61671"
           transform="matrix(0.26458334,0,0,0.26458334,-6.3049604e-6,18.562493)"
           d="m -2183.625,12689.25 c 159.3521,44.139 123.1513,108.111 31.3438,140.688 -103.8639,36.854 -93.1237,59.811 91.8437,75.968 53.0473,-1.456 101.1313,-3.816 141.2813,-7.25 176.1796,-21.025 407.551,-27.98 292.0624,-40.812 -106.2438,-11.805 -312.4067,-153.908 -556.5312,-168.594 z"
           style="opacity:0.53982299;color:#000000;fill:#f4d16e;fill-opacity:1;fill-rule:nonzero;stroke:none;stroke-width:12;marker:none;visibility:visible;display:inline;overflow:visible;enable-background:accumulate"
           inkscape:connector-curvature="0" />
      </g>
      <g
         transform="translate(-146.67045,-194.88157)"
         id="g61689">
        <path
           sodipodi:nodetypes="csssccc"
           inkscape:connector-curvature="0"
           id="path61675"
           d="m -708.86012,3601.0257 c 38.23162,-5.2744 103.84452,-13.4468 147.30242,-18.8792 26.57562,-3.322 76.48221,4.9933 108.20966,11.4972 6.95243,1.4252 25.54097,5.6167 28.60504,8.4346 2.3401,2.1521 -38.94334,-0.2103 -42.32255,-0.72 -21.04991,-1.5383 -168.26268,-1.0961 -201.53514,-2.3256 0,0 -78.91123,6.5544 -40.25943,1.993 z"
           style="color:#000000;fill:#f9dc81;fill-opacity:1;fill-rule:nonzero;stroke:#eed070;stroke-width:3.17500019;stroke-linejoin:round;stroke-opacity:1;marker:none;visibility:visible;display:inline;overflow:visible;enable-background:accumulate" />
        <path
           style="color:#000000;fill:#ffea98;fill-opacity:1;fill-rule:nonzero;stroke:none;stroke-width:12;marker:none;visibility:visible;display:inline;overflow:visible;enable-background:accumulate"
           d="m -689.89433,3597.4246 c 34.63052,-4.074 84.87871,-9.8459 128.33663,-15.2781 43.45791,-5.4324 120.97554,14.7327 152.10974,22.3327 -25.47795,1.9982 -297.71975,5.2144 -330.69458,0.075 z"
           id="path61673"
           inkscape:connector-curvature="0"
           sodipodi:nodetypes="csccc" />
        <path
           inkscape:connector-curvature="0"
           style="opacity:0.3495575;color:#000000;fill:#f5cb5d;fill-opacity:1;fill-rule:nonzero;stroke:none;stroke-width:12;marker:none;visibility:visible;display:inline;overflow:visible;enable-background:accumulate"
           d="m -2056.9062,13503.031 c -3.4059,0 -6.8551,0.101 -10.3438,0.281 -57.8211,2.992 -361.1271,58.625 -594.6875,57.438 315.8894,7.965 1034.6931,-1.436 1114.4063,-7.688 -13.9623,-3.408 -30.7345,-7.558 -49.125,-12.062 -45.9226,0.891 -155.6535,2.509 -237.0313,-0.469 -100.2906,-3.669 -153.9656,-37.656 -223.2187,-37.5 z m -733.9376,49.375 -6.5312,0.938 c 12.4109,1.934 33.905,3.562 62.4375,4.906 -19.5773,-1.347 -38.2945,-3.272 -55.9063,-5.844 z"
           transform="matrix(0.26458334,0,0,0.26458334,-6.3049604e-6,18.562493)"
           id="path61679" />
        <path
           style="color:#000000;fill:#fff1b8;fill-opacity:1;fill-rule:nonzero;stroke:none;stroke-width:12;marker:none;visibility:visible;display:inline;overflow:visible;enable-background:accumulate"
           d="m -2064.3125,13465.219 c -20.647,0.119 -40.1601,1.192 -58.125,3.437 -164.2504,20.531 -354.1442,42.352 -485.0313,57.75 l -136.7812,19.406 165.8236,-18.503 c 130.887,-15.398 297.2117,-29.941 461.4621,-50.472 120.8672,-15.109 344.0641,27.594 502.4018,59.788 -121.1885,-29.408 -311.0553,-72.21 -449.75,-71.406 z"
           transform="matrix(0.26458334,0,0,0.26458334,-6.3049604e-6,18.562493)"
           id="path61684"
           inkscape:connector-curvature="0"
           sodipodi:nodetypes="cccccscc" />
      </g>
      <g
         transform="matrix(0.99996037,0.00890245,-0.00890245,0.99996037,128.79155,-6.6696464)"
         id="g61657">
        <path
           transform="matrix(0.26458334,0,0,0.26458334,-6.3049604e-6,18.562493)"
           inkscape:connector-curvature="0"
           id="path61645"
           d="m -2943.6746,12875.822 c 169.3832,5.133 423.458,-177.082 695.4977,-187.348 272.0397,-10.265 505.5831,156.551 621.0717,169.383 115.4885,12.832 -153.9847,17.965 -241.2427,15.399 -87.2581,-2.567 -1075.3267,2.566 -1075.3267,2.566 z"
           style="color:#000000;fill:#fddd82;fill-opacity:1;fill-rule:nonzero;stroke:#eacd6c;stroke-width:12;stroke-miterlimit:4;stroke-opacity:1;stroke-dasharray:none;marker:none;visibility:visible;display:inline;overflow:visible;enable-background:accumulate" />
        <path
           style="color:#000000;fill:#ffea98;fill-opacity:1;fill-rule:nonzero;stroke:none;stroke-width:5;marker:none;visibility:visible;display:inline;overflow:visible;enable-background:accumulate"
           d="m -2943.6746,12875.822 c 169.3832,5.133 423.458,-177.082 695.4977,-187.348 272.0397,-10.265 505.5831,156.551 621.0717,169.383 115.4885,12.832 -115.8755,19.78 -292.0551,40.805 -303.2252,25.934 -1055.9348,-10.188 -1024.5143,-22.84 z"
           id="path61643"
           inkscape:connector-curvature="0"
           transform="matrix(0.26458334,0,0,0.26458334,-6.3049604e-6,18.562493)"
           sodipodi:nodetypes="csscc" />
        <path
           inkscape:connector-curvature="0"
           style="opacity:0.69911505;color:#000000;fill:#fff4c6;fill-opacity:1;fill-rule:nonzero;stroke:none;stroke-width:12;marker:none;visibility:visible;display:inline;overflow:visible;enable-background:accumulate"
           d="m -2229.125,12688.031 c -6.3326,0.05 -12.6866,0.197 -19.0625,0.438 -181.846,6.862 -355.6389,90.571 -501.5,143.781 142.4191,-42.266 331.937,-109.499 443.1563,-125.719 174.2138,-25.406 228.6829,43.577 232.3124,58.094 3.6295,14.518 29.0067,-12.707 -27.25,-47.187 -12.0446,-7.383 -25.6935,-15.794 -39.9374,-24.407 -28.6721,-3.429 -57.9614,-5.236 -87.7188,-5 z"
           transform="matrix(0.26458334,0,0,0.26458334,-6.3049604e-6,18.562493)"
           id="path61652" />
        <path
           inkscape:connector-curvature="0"
           style="opacity:0.53982299;color:#000000;fill:#f4d16e;fill-opacity:1;fill-rule:nonzero;stroke:none;stroke-width:12;marker:none;visibility:visible;display:inline;overflow:visible;enable-background:accumulate"
           d="m -2183.625,12689.25 c 159.3521,44.139 123.1513,108.111 31.3438,140.688 -103.8639,36.854 -93.1237,59.811 91.8437,75.968 53.0473,-1.456 101.1313,-3.816 141.2813,-7.25 176.1796,-21.025 407.551,-27.98 292.0624,-40.812 -106.2438,-11.805 -312.4067,-153.908 -556.5312,-168.594 z"
           transform="matrix(0.26458334,0,0,0.26458334,-6.3049604e-6,18.562493)"
           id="path61647" />
      </g>
    </g>
  </g>
</svg>
