<?xml version="1.0" encoding="UTF-8" standalone="no"?>
<!-- Created with Inkscape (http://www.inkscape.org/) -->

<svg
   xmlns:dc="http://purl.org/dc/elements/1.1/"
   xmlns:cc="http://creativecommons.org/ns#"
   xmlns:rdf="http://www.w3.org/1999/02/22-rdf-syntax-ns#"
   xmlns:svg="http://www.w3.org/2000/svg"
   xmlns="http://www.w3.org/2000/svg"
   xmlns:sodipodi="http://sodipodi.sourceforge.net/DTD/sodipodi-0.dtd"
   xmlns:inkscape="http://www.inkscape.org/namespaces/inkscape"
   width="1381.9089"
   height="256.15939"
   viewBox="0 0 365.63006 67.775504"
   version="1.1"
   id="svg23489"
   inkscape:version="0.48.5 r10040"
   sodipodi:docname="sand_color_blur_semi.svg">
  <defs
     id="defs23483" />
  <sodipodi:namedview
     id="base"
     pagecolor="#7d848b"
     bordercolor="#666666"
     borderopacity="1.0"
     inkscape:pageopacity="0"
     inkscape:pageshadow="2"
     inkscape:zoom="0.33253588"
     inkscape:cx="867.88021"
     inkscape:cy="513.53972"
     inkscape:document-units="px"
     inkscape:current-layer="layer1"
     showgrid="false"
     inkscape:pagecheckerboard="false"
     showborder="true"
     units="px"
     inkscape:window-width="1920"
     inkscape:window-height="1017"
     inkscape:window-x="-8"
     inkscape:window-y="-8"
     inkscape:window-maximized="1"
     inkscape:showpageshadow="false"
     guidetolerance="28"
     fit-margin-top="15"
     fit-margin-left="15"
     fit-margin-right="15"
     fit-margin-bottom="15">
    <inkscape:grid
       type="xygrid"
       id="grid24034"
       spacingx="1px"
       spacingy="1px"
       empspacing="8"
       visible="true"
       enabled="true"
       snapvisiblegridlinesonly="true"
       originx="1087.8511px"
       originy="211.74831px" />
  </sodipodi:namedview>
  <metadata
     id="metadata23486">
    <rdf:RDF>
      <cc:Work
         rdf:about="">
        <dc:format>image/svg+xml</dc:format>
        <dc:type
           rdf:resource="http://purl.org/dc/dcmitype/StillImage" />
        <dc:title></dc:title>
        <cc:license
           rdf:resource="" />
        <dc:creator>
          <cc:Agent>
            <dc:title>Robert Brooks</dc:title>
          </cc:Agent>
        </dc:creator>
      </cc:Work>
    </rdf:RDF>
  </metadata>
  <g
     inkscape:label="Layer 1"
     inkscape:groupmode="layer"
     id="layer1"
     transform="translate(287.82725,-285.24956)">
    <g
       transform="matrix(0.99996029,0.00890245,-0.00890245,0.99996029,525.70572,-3079.4178)"
       id="g62071">
      <path
         transform="matrix(0.26458334,0,0,0.26458334,-6.3049604e-6,18.562493)"
         inkscape:connector-curvature="0"
         id="path62073"
         d="m -2943.6746,12875.822 c 169.3832,5.133 423.458,-177.082 695.4977,-187.348 272.0397,-10.265 505.5831,156.551 621.0717,169.383 115.4885,12.832 -153.9847,17.965 -241.2427,15.399 -87.2581,-2.567 -1075.3267,2.566 -1075.3267,2.566 z"
         style="color:#000000;fill:#fddd82;fill-opacity:1;fill-rule:nonzero;stroke:#eacd6c;stroke-width:12;stroke-miterlimit:4;stroke-opacity:1;stroke-dasharray:none;marker:none;visibility:visible;display:inline;overflow:visible;enable-background:accumulate" />
      <path
         style="color:#000000;fill:#ffea98;fill-opacity:1;fill-rule:nonzero;stroke:none;stroke-width:5;marker:none;visibility:visible;display:inline;overflow:visible;enable-background:accumulate"
         d="m -2943.6746,12875.822 c 169.3832,5.133 423.458,-177.082 695.4977,-187.348 272.0397,-10.265 505.5831,156.551 621.0717,169.383 115.4885,12.832 -115.8755,19.78 -292.0551,40.805 -303.2252,25.934 -1055.9348,-10.188 -1024.5143,-22.84 z"
         id="path62075"
         inkscape:connector-curvature="0"
         transform="matrix(0.26458334,0,0,0.26458334,-6.3049604e-6,18.562493)"
         sodipodi:nodetypes="csscc" />
      <path
         inkscape:connector-curvature="0"
         style="opacity:0.69911505;color:#000000;fill:#fff4c6;fill-opacity:1;fill-rule:nonzero;stroke:none;stroke-width:12;marker:none;visibility:visible;display:inline;overflow:visible;enable-background:accumulate"
         d="m -2229.125,12688.031 c -6.3326,0.05 -12.6866,0.197 -19.0625,0.438 -181.846,6.862 -355.6389,90.571 -501.5,143.781 142.4191,-42.266 331.937,-109.499 443.1563,-125.719 174.2138,-25.406 228.6829,43.577 232.3124,58.094 3.6295,14.518 29.0067,-12.707 -27.25,-47.187 -12.0446,-7.383 -25.6935,-15.794 -39.9374,-24.407 -28.6721,-3.429 -57.9614,-5.236 -87.7188,-5 z"
         transform="matrix(0.26458334,0,0,0.26458334,-6.3049604e-6,18.562493)"
         id="path62077" />
      <path
         inkscape:connector-curvature="0"
         style="opacity:0.53982299;color:#000000;fill:#f4d16e;fill-opacity:1;fill-rule:nonzero;stroke:none;stroke-width:12;marker:none;visibility:visible;display:inline;overflow:visible;enable-background:accumulate"
         d="m -2183.625,12689.25 c 159.3521,44.139 123.1513,108.111 31.3438,140.688 -103.8639,36.854 -93.1237,59.811 91.8437,75.968 53.0473,-1.456 101.1313,-3.816 141.2813,-7.25 176.1796,-21.025 407.551,-27.98 292.0624,-40.812 -106.2438,-11.805 -312.4067,-153.908 -556.5312,-168.594 z"
         transform="matrix(0.26458334,0,0,0.26458334,-6.3049604e-6,18.562493)"
         id="path62079" />
    </g>
  </g>
</svg>
