<?xml version="1.0" encoding="UTF-8" standalone="no"?>
<!-- Created with Inkscape (http://www.inkscape.org/) -->

<svg
   xmlns:dc="http://purl.org/dc/elements/1.1/"
   xmlns:cc="http://creativecommons.org/ns#"
   xmlns:rdf="http://www.w3.org/1999/02/22-rdf-syntax-ns#"
   xmlns:svg="http://www.w3.org/2000/svg"
   xmlns="http://www.w3.org/2000/svg"
   xmlns:sodipodi="http://sodipodi.sourceforge.net/DTD/sodipodi-0.dtd"
   xmlns:inkscape="http://www.inkscape.org/namespaces/inkscape"
   width="1279.8693"
   height="134.10268"
   viewBox="0 0 338.63206 35.481332"
   version="1.1"
   id="svg23489"
   inkscape:version="0.48.5 r10040"
   sodipodi:docname="sand_hill_01.svg">
  <defs
     id="defs23483" />
  <sodipodi:namedview
     id="base"
     pagecolor="#7d848b"
     bordercolor="#666666"
     borderopacity="1.0"
     inkscape:pageopacity="0"
     inkscape:pageshadow="2"
     inkscape:zoom="0.33253588"
     inkscape:cx="753.0091"
     inkscape:cy="833.15176"
     inkscape:document-units="px"
     inkscape:current-layer="layer1"
     showgrid="false"
     inkscape:pagecheckerboard="false"
     showborder="true"
     units="px"
     inkscape:window-width="1920"
     inkscape:window-height="1017"
     inkscape:window-x="-8"
     inkscape:window-y="-8"
     inkscape:window-maximized="1"
     inkscape:showpageshadow="false"
     guidetolerance="28"
     fit-margin-top="15"
     fit-margin-left="15"
     fit-margin-right="15"
     fit-margin-bottom="15">
    <inkscape:grid
       type="xygrid"
       id="grid24034"
       spacingx="1px"
       spacingy="1px"
       empspacing="8"
       visible="true"
       enabled="true"
       snapvisiblegridlinesonly="true"
       originx="972.97999px"
       originy="531.36036px" />
  </sodipodi:namedview>
  <metadata
     id="metadata23486">
    <rdf:RDF>
      <cc:Work
         rdf:about="">
        <dc:format>image/svg+xml</dc:format>
        <dc:type
           rdf:resource="http://purl.org/dc/dcmitype/StillImage" />
        <dc:title></dc:title>
        <cc:license
           rdf:resource="" />
        <dc:creator>
          <cc:Agent>
            <dc:title>Robert Brooks</dc:title>
          </cc:Agent>
        </dc:creator>
      </cc:Work>
    </rdf:RDF>
  </metadata>
  <g
     inkscape:label="Layer 1"
     inkscape:groupmode="layer"
     id="layer1"
     transform="translate(257.43427,-402.10775)">
    <g
       transform="translate(486.67702,-3173.7032)"
       id="g62061">
      <path
         sodipodi:nodetypes="csssccc"
         inkscape:connector-curvature="0"
         id="path62063"
         d="m -708.86012,3601.0257 c 38.23162,-5.2744 103.84452,-13.4468 147.30242,-18.8792 26.57562,-3.322 76.48221,4.9933 108.20966,11.4972 6.95243,1.4252 25.54097,5.6167 28.60504,8.4346 2.3401,2.1521 -38.94334,-0.2103 -42.32255,-0.72 -21.04991,-1.5383 -168.26268,-1.0961 -201.53514,-2.3256 0,0 -78.91123,6.5544 -40.25943,1.993 z"
         style="color:#000000;fill:#f9dc81;fill-opacity:1;fill-rule:nonzero;stroke:#eed070;stroke-width:3.17500019;stroke-linejoin:round;stroke-opacity:1;marker:none;visibility:visible;display:inline;overflow:visible;enable-background:accumulate" />
      <path
         style="color:#000000;fill:#ffea98;fill-opacity:1;fill-rule:nonzero;stroke:none;stroke-width:12;marker:none;visibility:visible;display:inline;overflow:visible;enable-background:accumulate"
         d="m -689.89433,3597.4246 c 34.63052,-4.074 84.87871,-9.8459 128.33663,-15.2781 43.45791,-5.4324 120.97554,14.7327 152.10974,22.3327 -25.47795,1.9982 -297.71975,5.2144 -330.69458,0.075 z"
         id="path62065"
         inkscape:connector-curvature="0"
         sodipodi:nodetypes="csccc" />
      <path
         inkscape:connector-curvature="0"
         style="opacity:0.3495575;color:#000000;fill:#f5cb5d;fill-opacity:1;fill-rule:nonzero;stroke:none;stroke-width:12;marker:none;visibility:visible;display:inline;overflow:visible;enable-background:accumulate"
         d="m -2056.9062,13503.031 c -3.4059,0 -6.8551,0.101 -10.3438,0.281 -57.8211,2.992 -361.1271,58.625 -594.6875,57.438 315.8894,7.965 1034.6931,-1.436 1114.4063,-7.688 -13.9623,-3.408 -30.7345,-7.558 -49.125,-12.062 -45.9226,0.891 -155.6535,2.509 -237.0313,-0.469 -100.2906,-3.669 -153.9656,-37.656 -223.2187,-37.5 z m -733.9376,49.375 -6.5312,0.938 c 12.4109,1.934 33.905,3.562 62.4375,4.906 -19.5773,-1.347 -38.2945,-3.272 -55.9063,-5.844 z"
         transform="matrix(0.26458334,0,0,0.26458334,-6.3049604e-6,18.562493)"
         id="path62067" />
      <path
         style="color:#000000;fill:#fff1b8;fill-opacity:1;fill-rule:nonzero;stroke:none;stroke-width:12;marker:none;visibility:visible;display:inline;overflow:visible;enable-background:accumulate"
         d="m -2064.3125,13465.219 c -20.647,0.119 -40.1601,1.192 -58.125,3.437 -164.2504,20.531 -354.1442,42.352 -485.0313,57.75 l -136.7812,19.406 165.8236,-18.503 c 130.887,-15.398 297.2117,-29.941 461.4621,-50.472 120.8672,-15.109 344.0641,27.594 502.4018,59.788 -121.1885,-29.408 -311.0553,-72.21 -449.75,-71.406 z"
         transform="matrix(0.26458334,0,0,0.26458334,-6.3049604e-6,18.562493)"
         id="path62069"
         inkscape:connector-curvature="0"
         sodipodi:nodetypes="cccccscc" />
    </g>
  </g>
</svg>
