<?xml version="1.0" encoding="UTF-8" standalone="no"?>
<!-- Created with Inkscape (http://www.inkscape.org/) -->

<svg
   xmlns:dc="http://purl.org/dc/elements/1.1/"
   xmlns:cc="http://creativecommons.org/ns#"
   xmlns:rdf="http://www.w3.org/1999/02/22-rdf-syntax-ns#"
   xmlns:svg="http://www.w3.org/2000/svg"
   xmlns="http://www.w3.org/2000/svg"
   xmlns:sodipodi="http://sodipodi.sourceforge.net/DTD/sodipodi-0.dtd"
   xmlns:inkscape="http://www.inkscape.org/namespaces/inkscape"
   width="278.30746"
   height="409.09677"
   viewBox="0 0 73.635515 108.24019"
   version="1.1"
   id="svg23489"
   inkscape:version="0.48.5 r10040"
   sodipodi:docname="clay_pot_01_side_view.svg"
   tags="pot, ancient pot, ancient urn, egypt pot, egyptian pottery, pottery, ceramics, ceraminv, urn,vase">
  <defs
     id="defs23483" />
  <sodipodi:namedview
     id="base"
     pagecolor="#7d848b"
     bordercolor="#666666"
     borderopacity="1.0"
     inkscape:pageopacity="0"
     inkscape:pageshadow="2"
     inkscape:zoom="0.47027675"
     inkscape:cx="192.91038"
     inkscape:cy="523.01637"
     inkscape:document-units="px"
     inkscape:current-layer="layer1"
     showgrid="false"
     inkscape:pagecheckerboard="false"
     showborder="true"
     units="px"
     inkscape:window-width="1920"
     inkscape:window-height="1017"
     inkscape:window-x="-8"
     inkscape:window-y="-8"
     inkscape:window-maximized="1"
     inkscape:showpageshadow="false"
     guidetolerance="28"
     fit-margin-top="20"
     fit-margin-left="20"
     fit-margin-right="20"
     fit-margin-bottom="20">
    <inkscape:grid
       type="xygrid"
       id="grid24034"
       spacingx="1px"
       spacingy="1px"
       empspacing="8"
       visible="true"
       enabled="true"
       snapvisiblegridlinesonly="true"
       originx="-271.17828px"
       originy="308.30013px" />
  </sodipodi:namedview>
  <metadata
     id="metadata23486">
    <rdf:RDF>
      <cc:Work
         rdf:about="">
        <dc:format>image/svg+xml</dc:format>
        <dc:type
           rdf:resource="http://purl.org/dc/dcmitype/StillImage" />
        <dc:title></dc:title>
        <cc:license
           rdf:resource="" />
        <dc:creator>
          <cc:Agent>
            <dc:title>Robert Brooks</dc:title>
          </cc:Agent>
        </dc:creator>
      </cc:Work>
    </rdf:RDF>
  </metadata>
  <g
     inkscape:label="Layer 1"
     inkscape:groupmode="layer"
     id="layer1"
     transform="translate(-71.749247,-270.33088)">
    <g
       id="g15359"
       transform="translate(981.00194,-327.05034)">
      <g
         id="g15053"
         transform="matrix(0.62258062,0,0,-0.72289953,-868.26561,673.53728)">
        <path
           sodipodi:nodetypes="sssssss"
           inkscape:connector-curvature="0"
           id="path15055"
           d="m -6.0544848,-34.421253 c -11.9943862,0 -20.2983402,2.725491 -21.7180232,5.820256 -0.513753,1.119929 -0.627921,4.646869 0,6.280553 1.221563,3.178182 9.723637,4.454547 21.7180232,4.454547 11.994386,0 20.4252398,-1.304664 21.7180238,-4.454547 0.342502,-0.834512 0.862091,-4.641034 0,-6.223469 -1.628888,-2.989948 -9.7236378,-5.87734 -21.7180238,-5.87734 z"
           style="color:#000000;fill:#b7855a;fill-opacity:1;fill-rule:nonzero;stroke:#38290e;stroke-width:5.2839036;stroke-linejoin:round;stroke-miterlimit:4;stroke-opacity:1;stroke-dasharray:none;marker:none;visibility:visible;display:inline;overflow:visible;enable-background:accumulate" />
        <path
           style="color:#000000;fill:#aa7e36;fill-opacity:1;fill-rule:nonzero;stroke:none;stroke-width:2;marker:none;visibility:visible;display:inline;overflow:visible;enable-background:accumulate"
           d="m -6.0544848,-34.421253 c -11.9943862,0 -20.2983402,2.725491 -21.7180232,5.820256 -0.513753,1.119929 -0.627921,4.646869 0,6.280553 1.221563,3.178182 9.723637,5.710389 21.7180232,5.710389 11.994386,0 20.4252398,-2.560506 21.7180238,-5.710389 0.342502,-0.834512 0.862091,-4.641034 0,-6.223469 -1.628888,-2.989948 -9.7236378,-5.87734 -21.7180238,-5.87734 z"
           id="path15057"
           inkscape:connector-curvature="0"
           sodipodi:nodetypes="sssssss" />
      </g>
      <g
         transform="matrix(0.93801484,0,0,0.93801484,-806.55405,672.68652)"
         id="g15059">
        <path
           style="color:#000000;fill:#c29752;fill-opacity:1;fill-rule:nonzero;stroke:#38290e;stroke-width:4.23333359;stroke-miterlimit:4;stroke-opacity:1;stroke-dasharray:none;marker:none;visibility:visible;display:inline;overflow:visible;enable-background:accumulate"
           d="m -38.73603,-15.649196 c 0,11.5464147 -6.762609,26.133883 -16.43306,34.25455 -4.519255,3.795 -9.673565,3.073555 -15.069508,3.073555 -5.109175,0 -10.001718,0.967972 -14.343659,-2.480611 -10.056217,-7.987145 -17.158913,-23.0143118 -17.158913,-34.847494 0,-16.942358 14.560215,-25.77062 31.502572,-25.77062 16.942359,0 31.502568,8.828262 31.502568,25.77062 z"
           id="path15061"
           inkscape:connector-curvature="0"
           sodipodi:nodetypes="sssssss" />
        <path
           sodipodi:nodetypes="sssss"
           inkscape:connector-curvature="0"
           id="path15063"
           d="m -38.73603,-15.649196 c 0,16.942357 -14.560209,40.432242 -31.502568,40.432242 -16.942357,0 -31.502572,-23.489885 -31.502572,-40.432242 0,-16.942358 14.560215,-25.77062 31.502572,-25.77062 16.942359,0 31.502568,8.828262 31.502568,25.77062 z"
           style="color:#000000;fill:#c29752;fill-opacity:1;fill-rule:nonzero;stroke:none;stroke-width:2;marker:none;visibility:visible;display:inline;overflow:visible;enable-background:accumulate" />
        <path
           inkscape:connector-curvature="0"
           style="opacity:0.72566373;color:#000000;fill:#a1742b;fill-opacity:1;fill-rule:nonzero;stroke:none;stroke-width:2;marker:none;visibility:visible;display:inline;overflow:visible;enable-background:accumulate"
           d="m -144.34375,-230.15625 c -10.11613,42.60508 -50.73573,145.521994 -125.28125,134.375 -77.46082,-11.58292 -99.92995,-67.38873 -110.46875,-101.8125 8.05348,61.7841 59.19368,136.5 117.9375,136.5 64.03411,0 119.0625,-88.80965 119.0625,-152.84375 0,-5.65062 -0.42458,-11.0476 -1.25,-16.21875 z"
           transform="matrix(0.26458334,0,0,0.26458334,-0.87798869,40.951044)"
           id="path15065" />
        <path
           inkscape:connector-curvature="0"
           style="color:#000000;fill:#d9ab63;fill-opacity:1;fill-rule:nonzero;stroke:none;stroke-width:2;marker:none;visibility:visible;display:inline;overflow:visible;enable-background:accumulate"
           d="m -334.8125,-293.78125 c -23.50933,13.44485 -40.28376,34.52837 -45.03125,62.9375 -0.58919,30.44604 17.33147,49.74239 46.34375,35.5 45.62743,-22.39892 29.88476,-84.62158 6.65625,-95.40625 -2.8671,-1.33115 -5.52201,-2.31863 -7.96875,-3.03125 z"
           transform="matrix(0.26458334,0,0,0.26458334,-0.87798869,40.951044)"
           id="path15067" />
        <path
           style="color:#000000;fill:#d9ab63;fill-opacity:1;fill-rule:nonzero;stroke:none;stroke-width:2;marker:none;visibility:visible;display:inline;overflow:visible;enable-background:accumulate"
           d="m -262.15625,-311.3125 c -31.2259,0 -60.29967,7.91274 -81.90625,23.46875 1.23671,1.40263 2.5595,2.67822 3.9375,3.75 3.7588,2.92351 5.78054,10.12238 16.99614,16.90054 55.77612,33.70834 150.90843,-3.47149 136.75386,-24.71304 -20.8293,-12.85494 -47.42165,-19.40625 -75.78125,-19.40625 z"
           transform="matrix(0.26458334,0,0,0.26458334,-0.87798869,40.951044)"
           id="path15069"
           inkscape:connector-curvature="0"
           sodipodi:nodetypes="scsscs" />
        <path
           sodipodi:nodetypes="scscccccccccccscscc"
           inkscape:connector-curvature="0"
           id="path15071"
           transform="matrix(0.26458334,0,0,0.26458334,-369.07141,184.33317)"
           d="m 1129.4375,-853.25 c -55.744,0 -104.6423,25.3018 -116.375,74.09375 7.817,-10.46305 22.3822,-24.76041 42.1875,-32.5625 1.0227,-0.40289 2.0995,-0.80117 3.2188,-1.1875 -22.7428,28.57683 -27.2813,63.40625 -27.2813,63.40625 0,0 22.4682,-43.36273 58.75,-60.5 -13.4646,30.05272 -7.9807,67.91835 -4.8437,72.9375 6.3536,-30.23521 22.9263,-51.04452 35,-66.4375 7.0735,25.69927 17.8091,60.3431 19.3124,65.0625 -0.3569,-5.12642 8.3948,-39.69164 12.9688,-62.40625 11.9086,17.42331 26.1042,39.06679 32.4688,58.65625 2.6024,-4.69364 1.8108,-43.10674 -12.4688,-65.1875 38.8547,17.71016 60.3125,57.875 60.3125,57.875 0,0 -4.5294,-34.72749 -27.1875,-63.28125 21.6282,10.20487 32.3158,26.94743 38.0625,44.1875 1.8054,5.41626 3.4589,9.56098 4.9375,12.75 0,-64.03411 -55.0284,-97.40625 -119.0625,-97.40625 z m 9.9687,114.84375 c 0.018,0.22634 0.1591,0.50112 0,0 z"
           style="color:#000000;fill:#835e23;fill-opacity:1;fill-rule:nonzero;stroke:none;stroke-width:2;marker:none;visibility:visible;display:inline;overflow:visible;enable-background:accumulate" />
        <path
           inkscape:connector-curvature="0"
           id="path15073"
           transform="matrix(0.26458334,0,0,0.26458334,-369.07141,184.33317)"
           d="m 1010.4375,-753.1875 c 0.1817,7.8439 1.1445,16.02028 2.8437,24.34375 0.2292,0.1779 0.4536,0.35703 0.6876,0.53125 7.5687,5.63739 17.7549,9.86768 29.75,13.1875 23.99,6.63968 55.2987,9.45898 86.6562,9.03125 31.3575,-0.42773 62.6807,-4.1017 86.5938,-10.9375 11.5193,-3.29294 21.3223,-7.30355 28.75,-12.3125 1.0955,-5.45552 1.859,-10.84933 2.3124,-16.125 -1.3021,2.4079 -3.6181,4.84758 -7.2187,7.375 -6.0444,4.24286 -15.2959,8.20786 -26.5937,11.4375 -22.5958,6.45921 -53.3144,10.14437 -83.9688,10.5625 -30.6544,0.41813 -61.3563,-2.42381 -83.875,-8.65625 -11.2594,-3.11622 -20.4413,-7.12767 -26.4375,-11.59375 -5.9962,-4.46604 -8.6563,-8.89023 -8.6563,-14 a 5.0005001,5.0005001 0 0 0 -0.8437,-2.84375 z"
           style="color:#000000;fill:#64491b;fill-opacity:1;fill-rule:nonzero;stroke:none;stroke-width:2;marker:none;visibility:visible;display:inline;overflow:visible;enable-background:accumulate" />
        <path
           inkscape:connector-curvature="0"
           id="path15075"
           transform="matrix(0.26458334,0,0,0.26458334,-369.07141,184.33317)"
           d="m 1241,-711.125 c -10.1278,5.16234 -24.9366,10.69349 -46.6562,15.40625 -51.1313,11.09451 -134.3741,10.65555 -176.375,-15.28125 4.135,13.01113 9.7977,26.00921 16.7812,38.25 78.705,30.8585 154.8403,12.10765 189.125,0.40625 7.1154,-12.40343 12.94,-25.57854 17.125,-38.78125 z"
           style="opacity:0.59734509;color:#000000;fill:#835e23;fill-opacity:1;fill-rule:nonzero;stroke:none;stroke-width:2;marker:none;visibility:visible;display:inline;overflow:visible;enable-background:accumulate" />
        <path
           inkscape:connector-curvature="0"
           id="path15077"
           transform="matrix(0.26458334,0,0,0.26458334,-369.07141,184.33317)"
           d="m 1241.75,-713.59375 c -6.4627,4.34915 -15.6852,8.27451 -26.75,11.4375 -22.991,6.57222 -53.8222,10.204 -84.6875,10.625 -30.8653,0.421 -61.7274,-2.39537 -84.6875,-8.75 -11.4801,-3.1773 -21.032,-7.21379 -27.5,-12.03125 -0.2537,-0.18896 -0.506,-0.3718 -0.75,-0.5625 0.6303,2.05859 1.2599,4.13065 1.9688,6.1875 6.7081,4.1321 15.3199,7.44785 25.2187,10.1875 23.5487,6.51749 54.6035,9.39361 85.75,8.96875 31.1465,-0.42486 62.3571,-4.12092 85.875,-10.84375 9.2018,-2.63043 17.2022,-5.72288 23.6563,-9.3125 0.6649,-1.96486 1.3131,-3.94054 1.9062,-5.90625 z M 1028.2188,-685.25 c 2.4001,4.98286 5.0054,9.90786 7.8124,14.6875 7.3391,4.61659 16.3102,8.21333 26.2813,10.9375 21.1518,5.77878 47.0844,7.75411 72.5937,6.75 25.5095,-1.00407 50.576,-4.97425 70,-11.25 7.0819,-2.28804 13.3965,-4.89407 18.75,-7.8125 2.1371,-3.70538 4.1361,-7.48513 6.0313,-11.3125 -1.1208,1.00859 -2.4027,2.00983 -3.8437,3 -5.59,3.84068 -13.4385,7.38769 -22.7813,10.40625 -18.6856,6.03711 -43.3656,9.98312 -68.4063,10.96875 -25.0403,0.98566 -50.4751,-0.99205 -70.75,-6.53125 -16.1504,-4.4124 -28.7839,-11.05762 -35.6874,-19.84375 z"
           style="color:#000000;fill:#64491b;fill-opacity:1;fill-rule:nonzero;stroke:none;stroke-width:2;marker:none;visibility:visible;display:inline;overflow:visible;enable-background:accumulate" />
      </g>
      <path
         inkscape:connector-curvature="0"
         id="path15097"
         d="m -846.6069,669.93443 c -0.35016,-10e-4 -0.84536,0.15099 -0.87639,0.32574 -0.83407,4.37881 -3.92695,7.69314 -5.25061,8.81825 -0.24781,0.21115 -0.28102,0.62865 -0.0698,0.8764 0.21118,0.24774 0.55888,0.10266 0.80659,-0.10858 1.58805,-1.34985 4.8185,-4.92479 5.73147,-9.71792 0.0278,-0.13621 -0.13114,-0.19321 -0.34125,-0.19389 z m -52.00985,0.32574 c -0.21004,0.005 -0.36436,0.0661 -0.33351,0.20164 1.01907,4.77171 4.33105,8.27179 5.94865,9.58608 0.25233,0.20569 0.60095,0.34544 0.8066,0.0931 0.20564,-0.25237 0.16708,-0.6708 -0.0853,-0.8764 -1.3483,-1.09547 -4.52127,-4.34269 -5.45228,-8.70192 -0.0349,-0.17401 -0.53409,-0.31138 -0.88413,-0.30247 z m 47.17028,1.17887 c -0.22148,0.0153 -0.40231,0.0795 -0.41104,0.18613 -0.05,0.47514 -0.57872,2.21404 -1.49685,3.97093 -0.91822,1.7569 -2.23059,3.61411 -3.7693,4.68446 -0.29504,0.1718 -0.38866,0.61151 -0.19388,0.89191 0.1948,0.28039 0.63569,0.34061 0.89966,0.12409 1.80985,-1.25903 3.19037,-3.26197 4.16481,-5.12653 0.97449,-1.86457 1.53313,-3.51284 1.62873,-4.42077 0.0274,-0.23059 -0.45299,-0.33564 -0.82213,-0.31022 z m -42.29194,0.21716 c -0.36962,-0.0172 -0.8469,0.0958 -0.81434,0.32574 0.11568,0.90557 0.70618,2.53948 1.72174,4.38198 1.01559,1.84249 2.44384,3.81489 4.28116,5.03346 0.26871,0.21063 0.71115,0.14506 0.89967,-0.1396 0.18852,-0.28464 0.5935,-0.0675 0.29474,-0.23267 -1.56204,-1.03596 -3.42505,-3.52228 -4.382,-5.25838 -0.95687,-1.73609 -1.52942,-3.45824 -1.58993,-3.93215 -0.0112,-0.10644 -0.18927,-0.16805 -0.41104,-0.17838 z m 36.59926,1.24867 c -0.31201,0.003 -0.62333,0.0877 -0.62046,0.24042 0,0.44843 -0.23376,1.91109 -0.82987,3.49783 -0.59611,1.58675 -1.54271,3.34788 -2.90064,4.63793 -0.25215,0.21896 -0.27633,0.64957 -0.0465,0.8919 0.22982,0.24234 0.66764,0.24794 0.89967,0.008 1.5538,-1.4761 2.56951,-3.38836 3.21087,-5.09551 0.64135,-1.70714 0.90743,-3.15084 0.90743,-3.93991 0.004,-0.1663 -0.30847,-0.24382 -0.62046,-0.24043 z m -30.87554,0.0931 c -0.31202,0.004 -0.62837,0.082 -0.62046,0.24818 0.0176,0.78887 0.32142,2.2319 1.0005,3.92439 0.67906,1.69251 1.73326,3.57669 3.31945,5.01796 0.23729,0.23538 0.67526,0.2241 0.89967,-0.0233 0.2243,-0.24737 0.19489,-0.67859 -0.062,-0.89191 -1.38623,-1.25961 -2.37807,-3.00275 -3.00922,-4.57587 -0.63118,-1.57314 -0.89748,-3.02625 -0.90743,-3.47457 0,-0.15276 -0.30844,-0.22843 -0.62046,-0.22491 z m 6.096,0.74454 c -0.37143,-0.0193 -0.71638,0.0371 -0.65148,0.4033 0,0 0.2588,1.58234 0.74455,3.45905 0.48574,1.87673 1.15385,3.70989 2.18711,5.02571 0.19879,0.26064 0.61078,0.24125 0.86864,0.0388 0.25784,-0.20246 0.31467,-0.22591 0.10858,-0.48085 -0.76497,-0.97424 -1.4923,-3.07066 -1.96218,-4.88611 -0.46991,-1.81544 -0.71353,-3.35047 -0.71353,-3.35047 -0.0414,-0.28247 -0.2965,-0.19646 -0.58169,-0.20941 z m 18.49738,0.0465 c -0.19323,-0.003 -0.34597,0.005 -0.37227,0.21716 0,0 -0.21421,1.54056 -0.64372,3.36598 -0.4295,1.82543 -1.11042,3.94168 -1.8536,4.93264 -0.20041,0.25946 -0.14593,0.2764 0.11632,0.4731 0.26228,0.1967 0.68343,0.21073 0.87641,-0.0543 1.0038,-1.33842 1.62677,-3.18521 2.07077,-5.07224 0.444,-1.88702 0.66699,-3.47456 0.66699,-3.47456 0.0568,-0.36758 -0.28831,-0.41535 -0.65922,-0.38779 -0.0712,0.005 -0.13725,9.9e-4 -0.20168,0 z m -11.03638,0.0155 c -0.0805,0.004 -0.28779,0.45191 -0.53515,0.44208 -0.35126,-0.0149 -0.69737,-0.62173 -0.66697,-0.27145 0,0 0.42372,5.68589 0.48083,8.25984 0.003,0.32783 0.30047,0.62021 0.62822,0.6127 0.32775,-0.007 0.62461,-0.31611 0.61269,-0.64372 -0.0591,-2.66586 -0.48083,-8.32189 -0.48083,-8.32189 -0.003,-0.057 -0.0204,-0.0786 -0.0388,-0.0776 z m 4.72325,0.17838 c -0.0186,-4.9e-4 -0.029,0.0205 -0.031,0.0776 0,0 -0.29475,5.66313 -0.29475,8.32964 -0.005,0.3278 0.29264,0.62822 0.62046,0.62822 0.32785,0 0.62513,-0.30042 0.62046,-0.62822 0,-2.57458 0.29474,-8.26759 0.29474,-8.26759 0.0226,-0.35087 -0.30839,0.26428 -0.65925,0.28696 -0.24709,0.0153 -0.47011,-0.42395 -0.55064,-0.42657 z"
         style="font-size:medium;font-style:normal;font-variant:normal;font-weight:normal;font-stretch:normal;text-indent:0;text-align:start;text-decoration:none;line-height:normal;letter-spacing:normal;word-spacing:normal;text-transform:none;direction:ltr;block-progression:tb;writing-mode:lr-tb;text-anchor:start;baseline-shift:baseline;color:#000000;fill:#64491b;fill-opacity:1;stroke:none;stroke-width:5;marker:none;visibility:visible;display:inline;overflow:visible;enable-background:accumulate;font-family:Sans;-inkscape-font-specification:Sans" />
      <g
         transform="translate(-297.7116,737.45441)"
         id="g14818">
        <g
           id="g14820"
           transform="translate(0,13.828222)">
          <g
             id="g14822"
             transform="matrix(0.78360117,0,0,0.90986599,-569.98639,-102.16933)">
            <path
               style="color:#000000;fill:#b7855a;fill-opacity:1;fill-rule:nonzero;stroke:#38290e;stroke-width:18.49751282;stroke-linejoin:round;stroke-miterlimit:4;stroke-opacity:1;stroke-dasharray:none;marker:none;visibility:visible;display:inline;overflow:visible;enable-background:accumulate"
               d="m 1037.375,-962.84375 c -0.037,0.10384 -0.091,0.20793 -0.125,0.3125 -0.1877,0.37674 -0.3795,0.74098 -0.5312,1.125 0.048,0.14215 0.1066,0.33835 0.1562,0.5 -0.099,0.60215 -0.1562,1.21878 -0.1562,1.84375 0.6684,1.53845 14.6533,96.59745 15.8437,120.8125 -0.2424,2.37008 0.6155,4.3238 2.4063,5.90625 8.5817,10.843 39.0957,1.52874 76.0937,1.52874 43.3539,0 74.3897,7.56612 79.0625,-5.65374 -0.08,-6.5179 0.2169,-13.7728 0.75,-21.40625 0.014,-0.19958 0.017,-0.39365 0.031,-0.59375 4.518,-51.8732 15.7271,-91.98082 14.3438,-102.65625 0.051,-0.38485 0.1308,-0.88957 0.1562,-1.15625 1.4614,-13.65741 -187.3468,-15.80052 -188.031,-0.5625 z"
               transform="matrix(0.27666235,0,0,0.23826909,-318.97371,183.1014)"
               id="path14824"
               inkscape:connector-curvature="0"
               sodipodi:nodetypes="cccccccscccccc" />
            <path
               style="color:#000000;fill:#c29752;fill-opacity:1;fill-rule:nonzero;stroke:none;stroke-width:2;marker:none;visibility:visible;display:inline;overflow:visible;enable-background:accumulate"
               d="m -32.155006,-45.41409 c 0.184923,0.366566 4.053169,23.02018 4.382498,28.789877 0.190858,3.343743 9.723637,5.710389 21.7180232,5.710389 11.994386,0 20.5875318,-2.141194 21.8803158,-5.291077 -0.144375,-10.199147 3.739242,-27.919779 4.220206,-29.97921 0.605752,-2.59376 -52.201043,-4.693515 -52.201043,0.770024 z"
               id="path14826"
               inkscape:connector-curvature="0"
               sodipodi:nodetypes="csscssc" />
            <path
               style="opacity:0.60619465;color:#000000;fill:#d9ab63;fill-opacity:1;fill-rule:nonzero;stroke:none;stroke-width:2;marker:none;visibility:visible;display:inline;overflow:visible;enable-background:accumulate"
               d="m -2307.5938,-511.4375 c -17.2236,1.7337 -29.1562,4.93745 -29.1562,10.125 0.5477,1.26057 11.9934,79.1588 12.9688,99 0.3266,6.64546 9.9058,12.17778 24.7812,15.65625 0.036,0.003 0.095,-0.007 0.125,0 1.6551,-0.36407 3.0625,-2.90625 3.0625,-2.90625 0,0 -8.3544,-83.98277 -11.7813,-121.875 z"
               transform="matrix(0.33765052,0,0,0.29079375,756.85182,100.36578)"
               id="path14828"
               inkscape:connector-curvature="0" />
            <path
               style="color:#000000;fill:#a7782d;fill-opacity:1;fill-rule:nonzero;stroke:none;stroke-width:2;marker:none;visibility:visible;display:inline;overflow:visible;enable-background:accumulate"
               d="m -2223.4375,-511.5625 c -0.412,48.16817 -2.1061,94.26402 -3.375,101.03125 -5.1342,27.38228 -59.7684,25.80032 -91.375,16.3125 0.3055,0.21477 0.6091,0.44628 0.9375,0.65625 0.2717,0.17398 0.5566,0.36062 0.8438,0.53125 0.1097,0.0652 0.2317,0.12278 0.3437,0.1875 0.5931,0.34267 1.1895,0.67158 1.8437,1 0.1671,0.084 0.3291,0.16697 0.5,0.25 0.7551,0.36672 1.5459,0.71485 2.375,1.0625 0.8032,0.33708 1.6303,0.65025 2.5,0.96875 0.2861,0.10476 0.582,0.20981 0.875,0.3125 0.6591,0.231 1.3377,0.46713 2.0313,0.6875 0.3386,0.10758 0.6846,0.2075 1.0313,0.3125 0.784,0.23736 1.5824,0.46361 2.4062,0.6875 0.2587,0.0703 0.5188,0.14978 0.7812,0.21875 0.9877,0.25948 1.9912,0.51007 3.0313,0.75 1.9137,0.44145 3.9214,0.84647 6,1.21875 0.4085,0.0731 0.8355,0.14838 1.25,0.21875 0.1674,0.0284 0.3316,0.0658 0.5,0.0937 1.2001,0.19922 2.4403,0.38672 3.6875,0.5625 0.084,0.0119 0.1656,0.0195 0.25,0.0312 1.13,0.15741 2.3028,0.29982 3.4688,0.4375 0.9257,0.10913 1.8653,0.21608 2.8124,0.3125 0.7336,0.0748 1.4417,0.15168 2.1876,0.21875 0.052,0.005 0.1038,-0.005 0.1562,0 0.9321,0.0831 1.8935,0.14803 2.8438,0.21875 0.6954,0.0517 1.3889,0.11127 2.0937,0.15625 0.9722,0.0621 1.9485,0.10717 2.9375,0.15625 0.8085,0.0401 1.6184,0.0624 2.4375,0.0937 1.0934,0.0418 2.2015,0.0992 3.3125,0.125 0.1344,0.003 0.2716,-0.003 0.4062,0 1.6169,0.0346 3.2559,0.0625 4.9063,0.0625 0.021,0 0.041,1e-5 0.062,0 6.4875,-0.002 12.6319,-0.25038 18.375,-0.71875 2.0876,-0.17083 4.1483,-0.36542 6.125,-0.59375 1.8493,-0.21332 3.6599,-0.45706 5.4062,-0.71875 0.2571,-0.0386 0.4953,-0.0854 0.75,-0.125 2.2191,-0.34448 4.3682,-0.70493 6.4063,-1.125 0.2748,-0.0568 0.5411,-0.1294 0.8125,-0.1875 1.4401,-0.30761 2.8147,-0.62444 4.1562,-0.96875 5.1477,-1.32118 9.5801,-2.90813 13.125,-4.71875 1.0134,-0.51773 1.9427,-1.07161 2.8126,-1.625 1.7387,-1.10606 3.1813,-2.26242 4.3124,-3.5 0.5656,-0.61879 1.0636,-1.25741 1.4688,-1.90625 0.4052,-0.64884 0.7295,-1.323 0.9688,-2 -0.04,-3.28814 0.024,-6.79339 0.1874,-10.46875 1.4631,-35.51607 11.0091,-86.10792 12.3126,-92.59375 9e-4,-0.0102 0,-0.021 0,-0.0312 0.014,-0.0697 0.01,-0.14928 0,-0.21875 -0.2208,-2.98023 -17.9156,-5.73453 -41.2813,-7.375 z"
               transform="matrix(0.33765052,0,0,0.29079375,756.85182,100.36578)"
               id="path14830"
               inkscape:connector-curvature="0" />
            <path
               style="color:#000000;fill:#835e23;fill-opacity:1;fill-rule:nonzero;stroke:none;stroke-width:2;marker:none;visibility:visible;display:inline;overflow:visible;enable-background:accumulate"
               d="m -2057.1562,-1636.4375 c -0.4211,0.3132 -1.0403,0.6491 -1.8126,1 -6.963,7.7152 -74.9801,6.0235 -76.0624,0.031 -0.2381,-0.1227 -0.4393,-0.2541 -0.625,-0.375 0.2057,1.393 0.457,3.183 0.6874,4.7812 1.458,4.9201 72.108,7.0417 77,-0.5 0.2926,-1.7982 0.5487,-3.3746 0.8126,-4.9375 z m -1.8126,11.2187 c -0.014,0.01 -0.017,0.025 -0.031,0.031 -4.9905,7.4243 -74.8511,6.3942 -75.0938,0.4375 0.216,1.5455 0.408,2.8783 0.625,4.4688 -1.6154,7.0701 67.1905,8.5901 73.8438,-0.375 0.2184,-1.537 0.4318,-3.0842 0.6562,-4.5626 z m -1.5624,11.25 c -4.832,11.0701 -71.4755,6.2779 -72.0313,0.375 0.1953,1.4914 0.3496,2.8734 0.5313,4.3126 -0.1407,5.9472 63.8346,11.918 71,-0.3126 0.1588,-1.4574 0.3186,-2.9117 0.5,-4.375 z m -1.0938,10.25 c -1.7426,9.9194 -67.1942,9.9406 -69.6562,0.4688 0.1748,1.5019 0.3636,2.9758 0.5,4.2812 0,8.864 68.875,9.7452 68.875,-0.4062 0.081,-1.4185 0.1579,-2.8618 0.2812,-4.3438 z"
               transform="matrix(0.6396957,0,0,0.55092322,1334.9531,860.90152)"
               id="path14832"
               inkscape:connector-curvature="0"
               sodipodi:nodetypes="cccccccccccccccccccccccc" />
            <path
               style="opacity:0.13274339;color:#000000;fill:#000000;fill-opacity:1;fill-rule:nonzero;stroke:none;stroke-width:2;marker:none;visibility:visible;display:inline;overflow:visible;enable-background:accumulate"
               d="m -1163.9375,-1436.4375 c -0.4881,0.363 -1.2299,0.7496 -2.125,1.1563 -2.2602,2.5043 -10.0538,4.1697 -20.1563,5.0937 -0.093,1.5143 -0.1826,2.9862 -0.2812,4.5313 11.2642,-0.818 19.8858,-2.4295 21.5938,-5.0626 0.3391,-2.084 0.6628,-3.9073 0.9687,-5.7187 z m -2.125,13 c -0.016,0.012 -0.015,0.024 -0.031,0.031 -1.7137,2.5495 -10.0458,4.2208 -20.9062,5.1562 -0.1378,2.0548 -0.2321,4.0628 -0.375,6.125 10.323,-1.1203 18.3677,-3.0739 20.5625,-6.0312 0.2531,-1.7814 0.4899,-3.5678 0.75,-5.2813 z m -1.8125,13.0313 c -1.6667,3.8184 -9.6752,5.9876 -20.125,7 -0.1332,1.8492 -0.2729,3.7182 -0.4062,5.5312 9.8385,-1.1 17.5985,-3.4231 19.9687,-7.4688 0.184,-1.6891 0.3523,-3.3665 0.5625,-5.0624 z m -1.25,11.875 c -0.6457,3.6756 -8.8703,6.1855 -19.8125,7.5312 -0.1433,1.9024 -0.2362,3.2194 -0.375,5.0312 11.3913,-1.2432 19.8437,-3.7055 19.8437,-7.5312 0.094,-1.644 0.2009,-3.3136 0.3438,-5.0312 z"
               transform="matrix(0.55194243,0,0,0.47534773,661.43278,642.16063)"
               id="path14834"
               inkscape:connector-curvature="0" />
            <path
               style="opacity:0.36725661;color:#000000;fill:#977032;fill-opacity:1;fill-rule:nonzero;stroke:none;stroke-width:2;marker:none;visibility:visible;display:inline;overflow:visible;enable-background:accumulate"
               d="m -1254.9375,-1435.6875 c 0.2384,1.6145 0.5455,3.679 0.8125,5.5313 0.4473,1.5093 9.3199,2.8114 18.1038,3.7187 -0.2282,-1.5011 -0.6936,-2.9583 -0.9101,-4.4375 -8.5347,-1.0308 -16.9534,-2.5256 -17.2875,-4.375 -0.2759,-0.1422 -0.5035,-0.2974 -0.7187,-0.4375 z m 1.8125,12.7813 c 0.2503,1.7912 0.4672,3.3441 0.7188,5.1874 -0.5544,2.4263 7.5979,4.2877 17.3662,5.4376 -0.3473,-2.101 -0.6955,-4.1848 -1.0313,-6.2813 -9.1659,-0.9491 -16.9757,-2.429 -17.0537,-4.3437 z m 1.7812,12.9374 c 0.2264,1.7286 0.4145,3.332 0.625,5 -0.049,2.0837 6.7146,4.1512 16.375,5.6563 0.5068,-1.8914 -0.1454,-2.8518 -0.4612,-4.7074 -9.3256,-1.3479 -16.3535,-3.9818 -16.5388,-5.9489 z m 1.4688,12 c 0.2026,1.7407 0.4357,3.4246 0.5938,4.9376 0,3.074 7.1704,5.3024 17.1874,6.625 -0.291,-1.646 -0.5764,-3.177 -0.875,-4.875 -9.3053,-1.3294 -16.0912,-3.552 -16.9062,-6.6876 z"
               transform="matrix(0.55194243,0,0,0.47534773,661.43278,642.16063)"
               id="path14836"
               inkscape:connector-curvature="0"
               sodipodi:nodetypes="ccccccccccccccccccccc" />
          </g>
        </g>
      </g>
    </g>
  </g>
</svg>
