<?xml version="1.0" encoding="UTF-8" standalone="no"?>
<!-- Created with Inkscape (http://www.inkscape.org/) -->

<svg
   xmlns:dc="http://purl.org/dc/elements/1.1/"
   xmlns:cc="http://creativecommons.org/ns#"
   xmlns:rdf="http://www.w3.org/1999/02/22-rdf-syntax-ns#"
   xmlns:svg="http://www.w3.org/2000/svg"
   xmlns="http://www.w3.org/2000/svg"
   xmlns:sodipodi="http://sodipodi.sourceforge.net/DTD/sodipodi-0.dtd"
   xmlns:inkscape="http://www.inkscape.org/namespaces/inkscape"
   width="351.43869"
   height="474.79425"
   viewBox="0 0 92.984818 125.62265"
   version="1.1"
   id="svg23489"
   inkscape:version="0.48.5 r10040"
   sodipodi:docname="egyptian_pot_01_side_view.svg"
   tags="pot, ancient pot, ancient urn, egypt pot, egyptian pottery, pottery, ceramics, ceraminv, urn,vase">
  <defs
     id="defs23483" />
  <sodipodi:namedview
     id="base"
     pagecolor="#7d848b"
     bordercolor="#666666"
     borderopacity="1.0"
     inkscape:pageopacity="0"
     inkscape:pageshadow="2"
     inkscape:zoom="0.47027675"
     inkscape:cx="342.96304"
     inkscape:cy="407.52221"
     inkscape:document-units="px"
     inkscape:current-layer="layer1"
     showgrid="false"
     inkscape:pagecheckerboard="false"
     showborder="true"
     units="px"
     inkscape:window-width="1920"
     inkscape:window-height="1017"
     inkscape:window-x="-8"
     inkscape:window-y="-8"
     inkscape:window-maximized="1"
     inkscape:showpageshadow="false"
     guidetolerance="28"
     fit-margin-top="20"
     fit-margin-left="20"
     fit-margin-right="20"
     fit-margin-bottom="20">
    <inkscape:grid
       type="xygrid"
       id="grid24034"
       spacingx="1px"
       spacingy="1px"
       empspacing="8"
       visible="true"
       enabled="true"
       snapvisiblegridlinesonly="true"
       originx="-121.12562px"
       originy="192.80597px" />
  </sodipodi:namedview>
  <metadata
     id="metadata23486">
    <rdf:RDF>
      <cc:Work
         rdf:about="">
        <dc:format>image/svg+xml</dc:format>
        <dc:type
           rdf:resource="http://purl.org/dc/dcmitype/StillImage" />
        <dc:title></dc:title>
        <cc:license
           rdf:resource="" />
        <dc:creator>
          <cc:Agent>
            <dc:title>Robert Brooks</dc:title>
          </cc:Agent>
        </dc:creator>
      </cc:Work>
    </rdf:RDF>
  </metadata>
  <g
     inkscape:label="Layer 1"
     inkscape:groupmode="layer"
     id="layer1"
     transform="translate(-32.047812,-222.39059)">
    <g
       id="g15385"
       transform="translate(1027.5996,-355.79564)">
      <g
         id="g15151"
         transform="translate(-943.05319,646.52916)">
        <path
           style="color:#000000;fill:#b7855a;fill-opacity:1;fill-rule:nonzero;stroke:#38290e;stroke-width:16;stroke-miterlimit:4;stroke-opacity:1;stroke-dasharray:none;marker:none;visibility:visible;display:inline;overflow:visible;enable-background:accumulate"
           d="m -1346.6875,-403.3125 c -8.0043,0 -15.8671,0.52491 -23.5,1.5625 -1.9082,0.2594 -3.8095,0.55117 -5.6875,0.875 -4.695,0.80958 -9.2746,1.82076 -13.75,3.03125 -0.8951,0.24207 -1.8023,0.49196 -2.6875,0.75 -4.4262,1.29037 -8.7212,2.78057 -12.875,4.46875 -9.9694,4.05117 -19.0915,9.2453 -27.0625,15.5625 -1.3285,1.05295 -2.6119,2.13468 -3.875,3.25 -1.2631,1.11532 -2.4925,2.25998 -3.6875,3.4375 -0.5975,0.58876 -1.2013,1.17697 -1.7813,1.78125 -0.5851,0.6094 -1.1517,1.21858 -1.7187,1.84375 -0.562,0.61978 -1.1125,1.23974 -1.6563,1.875 -0.549,0.64101 -1.0637,1.28075 -1.5937,1.9375 -0.5251,0.65072 -1.0563,1.3026 -1.5625,1.96875 -2.0303,2.67032 -3.8825,5.4573 -5.5938,8.375 -0.4267,0.72769 -0.8439,1.44447 -1.25,2.1875 -1.2231,2.23643 -2.346,4.53119 -3.375,6.90625 -0.5874,1.35584 -1.1345,2.75538 -1.6562,4.15625 -0.082,0.22169 -0.1692,0.43344 -0.25,0.65625 0,0.009 0,0.022 0,0.0312 -0.074,0.20566 -0.1457,0.41838 -0.2188,0.625 -0.5091,1.4383 -0.9986,2.89031 -1.4374,4.375 -1.0046,3.39904 -1.8179,6.92124 -2.4376,10.5625 -0.2909,1.70979 -0.5475,3.45577 -0.75,5.21875 -0.012,0.105 -0.019,0.20732 -0.031,0.3125 0,0.0103 0,0.021 0,0.0312 -0.1033,0.93041 -0.2031,1.86737 -0.2812,2.8125 -0.2388,2.87646 -0.3438,5.80001 -0.3438,8.8125 0,0.6888 0,1.41081 0.031,2.125 1.5519,54.91935 62.1903,163.17065 66.3438,171.1875 5.9823,11.54662 23.5949,15.5 52.6875,15.5 29.0925,0 49.6566,-7.4957 52.6875,-15.5 3.3184,-8.76356 66.375,-119.09541 66.375,-173.3125 0,-27.01439 -9.8049,-48.57332 -25.9375,-64.46875 -1.195,-1.17752 -2.4244,-2.32218 -3.6875,-3.4375 -1.2631,-1.11532 -2.5465,-2.19705 -3.875,-3.25 -7.971,-6.3172 -17.0931,-11.51133 -27.0625,-15.5625 -4.1538,-1.68818 -8.4488,-3.17838 -12.875,-4.46875 -0.8852,-0.25804 -1.7924,-0.50793 -2.6875,-0.75 -4.4754,-1.21049 -9.055,-2.22167 -13.75,-3.03125 -1.878,-0.32383 -3.7793,-0.6156 -5.6875,-0.875 -7.6329,-1.03759 -15.4957,-1.5625 -23.5,-1.5625 z"
           transform="matrix(0.26458334,0,0,0.26458334,349.8816,80.852447)"
           id="path15153"
           inkscape:connector-curvature="0" />
        <path
           style="color:#000000;fill:#af843e;fill-opacity:1;fill-rule:nonzero;stroke:none;stroke-width:2;marker:none;visibility:visible;display:inline;overflow:visible;enable-background:accumulate"
           d="m -1346.6875,-403.3125 c -64.0341,0 -119.0625,33.37214 -119.0625,97.40625 0,54.20383 62.1676,165.19169 66.375,173.3125 5.9823,11.54662 23.5949,15.5 52.6875,15.5 29.0925,0 49.6566,-7.4957 52.6875,-15.5 3.3184,-8.76356 66.375,-119.09541 66.375,-173.3125 0,-64.03411 -55.0284,-97.40625 -119.0625,-97.40625 z"
           transform="matrix(0.26458334,0,0,0.26458334,349.8816,80.852447)"
           id="path15155"
           inkscape:connector-curvature="0"
           sodipodi:nodetypes="sssssss" />
        <path
           style="color:#000000;fill:#a97a2d;fill-opacity:1;fill-rule:nonzero;stroke:none;stroke-width:2;marker:none;visibility:visible;display:inline;overflow:visible;enable-background:accumulate"
           d="m -24.3125,35.0625 c 64.034107,0 -64.034108,0 0,0 z"
           transform="matrix(0.26458334,0,0,0.26458334,-6.3049604e-6,17.465015)"
           id="path15157"
           inkscape:connector-curvature="0"
           sodipodi:nodetypes="ss" />
        <path
           style="opacity:0.57522122;color:#000000;fill:#835e23;fill-opacity:1;fill-rule:nonzero;stroke:none;stroke-width:2;marker:none;visibility:visible;display:inline;overflow:visible;enable-background:accumulate"
           d="m -1286,-391.71875 c 17.7283,17.04606 44.0892,50.19256 35.8101,99.31543 -12.4439,73.83347 -48.9436,146.84082 -121.1226,146.84082 -34.0978,0 -46.5044,-26.69045 -57.8437,-45.625 14.3632,30.61228 27.8946,54.95246 29.7812,58.59375 5.9823,11.54662 23.5949,15.5 52.6875,15.5 29.0925,0 49.6566,-7.4957 52.6875,-15.5 3.3184,-8.76356 66.375,-119.09541 66.375,-173.3125 0,-42.13745 -23.8318,-71.00216 -58.375,-85.8125 z"
           transform="matrix(0.26458334,0,0,0.26458334,349.8816,80.852447)"
           id="path15159"
           inkscape:connector-curvature="0"
           sodipodi:nodetypes="csscssssc" />
        <path
           style="opacity:0.67256637;color:#000000;fill:#d9ab63;fill-opacity:1;fill-rule:nonzero;stroke:none;stroke-width:2;marker:none;visibility:visible;display:inline;overflow:visible;enable-background:accumulate"
           d="m -1346.6875,-403.3125 c -64.0341,0 -119.0625,33.37214 -119.0625,97.40625 0,6.53301 0.9041,13.90924 2.5,21.8125 13.0884,20.74419 38.5572,33.78323 71.1875,29.03125 85.4477,-12.44385 99.4167,-110.21223 70.5313,-139.375 -3.6097,-3.64434 -7.9786,-6.415 -12.8126,-8.46875 -4.0736,-0.28127 -8.1813,-0.40625 -12.3437,-0.40625 z"
           transform="matrix(0.26458334,0,0,0.26458334,349.8816,80.852447)"
           id="path15161"
           inkscape:connector-curvature="0" />
        <path
           inkscape:connector-curvature="0"
           id="path15163"
           transform="matrix(0.26458334,0,0,0.26458334,735.45358,-146.28064)"
           d="m -2855.4688,463.25 c -29.7778,10.25805 -53.1137,30.36027 -62.75,59.09375 0.7827,3.27963 2.6413,4.43533 5.125,3.84375 11.2675,-2.6836 20.8807,-50.26199 62.7188,-58.0625 -2.8086,-1.48412 -4.5966,-3.12612 -5.0938,-4.875 z m 89.5626,4.90625 c -3.6224,1.89541 -8.928,3.51879 -15.375,4.71875 2.0323,9.5023 20.605,18.83051 39.7187,49.1875 13.0076,20.65916 19.9715,26.4206 25.2187,18.1875 5.2261,-8.19976 -6.3754,-51.93742 -49.5624,-72.09375 z m -72.2188,4.0625 c -2.864,0.80146 -5.1562,2.34375 -5.1562,2.34375 -37.543,42.2358 -35.194,76.83127 -22.875,80.9375 12.3186,4.10627 12.8813,-12.90354 21.0937,-35.78125 8.1696,-22.75808 19.9429,-40.47053 15.25,-45.75 -0.092,-0.10312 -0.1867,-0.1864 -0.2813,-0.28125 -2.8635,-0.40716 -5.5485,-0.91775 -8.0312,-1.46875 z m 49.6562,1.75 c -5.2362,0.64653 -10.9863,1.03586 -17.0312,1.125 -6.0053,9.52038 -4.2429,68.28269 -0.2188,76.90625 4.1065,8.79916 13.492,9.94289 20.5313,5.25 7.0393,-4.69285 6.4554,-42.7981 -2.3437,-82.6875 0,0 -0.34,-0.24975 -0.9376,-0.59375 z"
           style="color:#000000;fill:#a9792d;fill-opacity:1;fill-rule:nonzero;stroke:none;stroke-width:5;marker:none;visibility:visible;display:inline;overflow:visible;enable-background:accumulate" />
        <path
           inkscape:connector-curvature="0"
           id="path15165"
           transform="matrix(0.26458334,0,0,0.26458334,735.45358,-146.28064)"
           d="m -2760.8125,460.9375 c 0.1551,0.42435 0.2187,0.84582 0.2187,1.28125 0,2.23943 -2.0867,4.35188 -5.7812,6.1875 39.8055,10.48873 49.5327,56.68097 60.8438,59.375 7.6717,1.82722 9.5098,-17.40055 -6.25,-38.1875 -12.8183,-13.18668 -29.7478,-22.75961 -49.0313,-28.65625 z m -90.75,6.5 c -43.3933,20.10361 -55.0486,64.00311 -49.8125,72.21875 5.2473,8.2331 12.211,2.47166 25.2188,-18.1875 18.9257,-30.05875 37.3232,-39.49851 39.6562,-48.90625 -6.5008,-1.32152 -11.7406,-3.08393 -15.0625,-5.125 z m 73.3437,4.8125 c -4.0352,0.88814 -8.6238,1.60057 -13.5937,2.09375 -1.2534,7.01295 8.9221,23.29842 16.2187,43.625 8.2125,22.87771 8.8064,39.88752 21.125,35.78125 12.319,-4.10623 14.6681,-38.73295 -22.875,-80.96875 0,0 -0.3346,-0.22842 -0.875,-0.53125 z m -54.5,1 c -0.7328,0.41121 -1.1874,0.71875 -1.1874,0.71875 -8.7993,39.8894 -9.3831,78.0259 -2.3438,82.71875 7.0393,4.69289 16.4249,3.51791 20.5312,-5.28125 3.9638,-8.49396 5.7489,-65.62415 0.063,-76.4375 -6.1641,-0.26893 -11.9326,-0.87131 -17.0626,-1.71875 z"
           style="color:#000000;fill:#835e23;fill-opacity:1;fill-rule:nonzero;stroke:none;stroke-width:1.37558508;marker:none;visibility:visible;display:inline;overflow:visible;enable-background:accumulate" />
        <path
           sodipodi:nodetypes="ss"
           inkscape:connector-curvature="0"
           id="path15167"
           transform="matrix(0.26458334,0,0,0.26458334,-6.3049604e-6,17.465015)"
           d="m -24.3125,35.0625 c 64.034107,0 -64.034108,0 0,0 z"
           style="color:#000000;fill:#a97a2d;fill-opacity:1;fill-rule:nonzero;stroke:none;stroke-width:2;marker:none;visibility:visible;display:inline;overflow:visible;enable-background:accumulate" />
        <path
           inkscape:connector-curvature="0"
           id="path15169"
           transform="matrix(0.26458334,0,0,0.26458334,800.64045,-213.95082)"
           d="m -2938.0938,846.96875 c -8.5397,3.4963 -21.7699,8.75666 -34.3124,12.9375 -17.2187,5.73953 -133.0907,9.59651 -188.25,-6.09375 1.9497,6.22741 4.1515,12.5871 6.5312,19 1.1229,0.39827 2.1319,0.75123 3.3438,1.1875 20.7398,7.46631 45.6157,7.45997 59.7187,12.4375 14.103,4.97754 98.7436,-4.98291 111.1875,-5.8125 7.6364,-0.5091 21.4757,-3.19474 32.4062,-5.96875 3.5833,-9.39903 6.7684,-18.7422 9.375,-27.6875 z"
           style="opacity:0.40265485;color:#000000;fill:#a1742b;fill-opacity:1;fill-rule:nonzero;stroke:none;stroke-width:2;marker:none;visibility:visible;display:inline;overflow:visible;enable-background:accumulate" />
        <path
           inkscape:connector-curvature="0"
           id="path15171"
           transform="matrix(0.26458334,0,0,0.26458334,800.64045,-213.95082)"
           d="m -2931.3438,804.9375 c -0.304,0.69896 -0.7837,1.4098 -1.5,2.1875 -1.4581,1.58321 -3.8722,3.25794 -7.0937,4.84375 -6.443,3.17155 -16.0938,6.00306 -27.75,8.3125 -23.3124,4.61885 -54.7071,7.25493 -85.9687,7.875 -31.2619,0.62007 -62.4117,-0.79915 -85.2188,-4.1875 -11.4036,-1.69417 -20.7426,-3.90238 -26.7812,-6.46875 -1.2978,-0.5515 -2.3996,-1.12236 -3.375,-1.6875 0.1722,1.92941 0.3974,3.907 0.6874,5.9375 0.2461,0.10965 0.4649,0.23586 0.7188,0.34375 6.7714,2.87781 16.3695,5.11583 28,6.84375 23.261,3.45577 54.5864,4.84305 86.0625,4.21875 31.4761,-0.62434 63.0511,-3.25473 86.8437,-7.96875 11.8966,-2.35703 21.8553,-5.233 29,-8.75 2.4483,-1.20506 4.5495,-2.49214 6.3126,-3.90625 0.078,-1.43402 0.125,-2.85339 0.125,-4.21875 0,-1.13911 -0.028,-2.25531 -0.063,-3.375 z m -1.625,20.71875 c -0.9986,0.65293 -2.4808,1.45318 -4.4374,2.25 -5.6733,2.31016 -14.8027,4.64555 -26.0313,6.625 -22.4571,3.95887 -53.4221,6.73715 -84.625,7.625 -31.2029,0.88781 -62.747,-0.12586 -86.3437,-3.53125 -11.7985,-1.70275 -21.6216,-4.04509 -28.1563,-6.8125 -1.7298,-0.73254 -3.2081,-1.49932 -4.4375,-2.25 0.7938,4.00067 1.7801,8.15745 2.9062,12.40625 7.5964,2.86609 17.1792,4.96025 28.2813,6.5625 24.5619,3.54471 56.4288,4.49294 88.0313,3.59375 31.6023,-0.89919 62.849,-3.65779 86.0624,-7.75 10.5412,-1.85824 19.3726,-3.95926 26.0938,-6.4375 1.0559,-4.22841 1.9645,-8.3289 2.6562,-12.28125 z m -5.125,21.375 c -2.1247,1.17738 -4.9964,2.41827 -8.5312,3.53125 -7.3029,2.29939 -17.2372,4.35109 -28.8125,6.0625 -23.1506,3.42282 -52.9161,5.48978 -82.0937,5.9375 -29.178,0.44772 -57.8044,-0.72882 -78.6563,-3.8125 -10.426,-1.54186 -18.9428,-3.609 -24.4063,-6 -0.1673,-0.0733 -0.3073,-0.14485 -0.4687,-0.21875 0.6291,2.03957 1.2865,4.08766 1.9687,6.15625 5.8571,2.05918 13.3537,3.6982 22.1563,5 21.3194,3.15284 50.1052,4.32556 79.4687,3.875 29.3638,-0.4506 59.2784,-2.52971 82.75,-6 11.736,-1.73514 21.8694,-3.81791 29.5938,-6.25 1.803,-0.5677 3.4831,-1.1277 5.0312,-1.71875 0.7007,-2.20865 1.3678,-4.39473 2,-6.5625 z m -219.7187,15.40625 c 2.0258,5.92761 4.2184,11.92441 6.5625,17.9375 0.4476,0.19625 0.8844,0.40402 1.3438,0.59375 7.5237,3.10787 16.9228,5.37627 27.6874,7.03125 21.5297,3.30996 48.4754,4.17532 75.1876,3.34375 26.7119,-0.83157 53.1387,-3.38343 73.5937,-7.09375 9.7217,-1.7634 18.0446,-3.78245 24.5937,-6.09375 1.7632,-4.52141 3.4803,-9.02618 5.0626,-13.5 -0.2383,0.20769 -0.541,0.42698 -0.9376,0.6875 -1.3935,0.91548 -3.6439,1.99856 -6.5312,3.0625 -5.7746,2.12787 -14.0916,4.20839 -23.9688,6 -19.7541,3.58322 -45.8469,6.11942 -72.125,6.9375 -26.2778,0.81804 -52.7975,-0.0911 -73.3437,-3.25 -10.2731,-1.57939 -19.0633,-3.72371 -25.4063,-6.34375 -6.3426,-2.62004 -9.8882,-5.7362 -10.9062,-8.0625 a 5.0021762,5.0021762 0 0 0 -0.8125,-1.25 z"
           style="color:#000000;fill:#6f511e;fill-opacity:1;fill-rule:nonzero;stroke:none;stroke-width:2;marker:none;visibility:visible;display:inline;overflow:visible;enable-background:accumulate" />
        <path
           sodipodi:nodetypes="cccccccscccccscc"
           inkscape:connector-curvature="0"
           id="path15173"
           transform="matrix(0.26458334,0,0,0.26458334,800.64045,-213.95082)"
           d="m -2949.2812,879.3125 -53.4292,102.52929 c 0,0 10.787,-81.71093 11.6166,-85.02929 0.01,-0.0311 0,-0.0459 0,-0.0625 -0.9735,1.68072 -27.7998,88.4801 -28.2016,90.48926 -0.4148,2.07397 -8.3069,-88.3584 -7.8921,-91.67676 -0.9861,2.40225 -19.0767,90.42968 -19.0767,90.42968 0,0 -15.7358,-87.11132 -15.7358,-90.42968 0,-3.31836 -10.3777,90.84155 -9.9628,92.91553 0.4148,2.07397 -25.7217,-84.2107 -27.381,-89.60303 -1.6592,-5.39233 3.304,79.23901 4.5484,82.14258 1.0803,2.52058 -37.0307,-65.1221 -49.8921,-84.48633 17.8569,42.10155 39.2485,80.44658 41.6563,85.09375 5.9823,11.54662 23.5948,15.5 52.6874,15.5 29.0926,0 49.6566,-7.4957 52.6876,-15.5 2.1539,-5.68826 29.4646,-54.16182 48.375,-102.3125 z"
           style="color:#000000;fill:#6f511e;fill-opacity:1;fill-rule:nonzero;stroke:none;stroke-width:2;marker:none;visibility:visible;display:inline;overflow:visible;enable-background:accumulate" />
      </g>
      <g
         transform="matrix(1,0,0,0.87275835,-965.78269,676.45054)"
         id="g15175">
        <g
           id="g15177">
          <g
             transform="matrix(0.95851545,0,0,0.95851545,149.59039,-15.270371)"
             id="g15179">
            <path
               sodipodi:nodetypes="sscccccss"
               style="color:#000000;fill:#513a16;fill-opacity:1;fill-rule:nonzero;stroke:#38290e;stroke-width:16;stroke-linecap:round;stroke-linejoin:round;stroke-miterlimit:4;stroke-opacity:1;stroke-dasharray:none;stroke-dashoffset:0;marker:none;visibility:visible;display:inline;overflow:visible;enable-background:accumulate"
               d="m 58.90625,-431.47339 c -28.892994,0 -52.3125,5.99448 -52.3125,13.40625 0,1.29821 1.1366006,7.0837 2.4772948,14.90777 0.6992718,19.33479 -1.7875456,107.60588 -12.4772948,106.31562 5.6406802,25.56007 111.70487,24.64438 123.3125,0.8125 0.62127,-0.6543 1.10438,-1.32966 1.40625,-2 -11.61377,-3.63666 -14.08488,-83.77591 -11.59937,-113.64942 1.77608,-1.34899 1.50562,-4.88372 1.50562,-6.38647 0,-7.41177 -23.419513,-13.40625 -52.3125,-13.40625 z"
               transform="matrix(0.27603451,0,0,0.27603451,-156.06467,34.610164)"
               id="path15181"
               inkscape:connector-curvature="0" />
            <path
               sodipodi:nodetypes="ccccc"
               style="color:#000000;fill:#a1742b;fill-opacity:1;fill-rule:nonzero;stroke:none;stroke-width:4.23333359;marker:none;visibility:visible;display:inline;overflow:visible;enable-background:accumulate"
               d="m 7.4489892,-417.48134 c 2.7197718,16.08971 2.4935021,103.06198 -10.8239892,120.63759 6.5228439,36.73693 115.59077,41.71461 124.6875,-1.15625 -14.19783,-21.94692 -13.64423,-105.11372 -11.345,-119.18447 -32.97408,-0.0527 -75.028362,-0.0547 -102.5185108,-0.29687 z"
               transform="matrix(0.27603451,0,0,0.27603451,-156.06467,34.610164)"
               id="path15183"
               inkscape:connector-curvature="0" />
            <path
               sodipodi:nodetypes="ccccccc"
               inkscape:connector-curvature="0"
               id="path15185"
               transform="matrix(0.27603451,0,0,0.27603451,-156.06467,35.29715)"
               d="m 76,-418.91089 c 0.2217,77.13087 7.555366,116.10853 7.555366,116.10853 2.933042,14.07861 -12.99965,33.05649 -51.805366,29.48986 34.824229,8.42503 83.60852,0.87228 89.5625,-27.1875 -11.77481,-6.19727 -14.48182,-101.57388 -12.59375,-118.31714 -10.418471,-0.0167 -17.415343,-0.0375 -28.612491,-0.0937 z"
               style="opacity:0.49115044;color:#000000;fill:#835e23;fill-opacity:1;fill-rule:nonzero;stroke:none;stroke-width:4.23333359;marker:none;visibility:visible;display:inline;overflow:visible;enable-background:accumulate" />
            <path
               inkscape:connector-curvature="0"
               id="path15187"
               transform="matrix(0.27603451,0,0,0.27603451,702.8066,-246.66119)"
               d="m -3002.7188,627.28125 c -0.3421,0.38555 -0.9396,0.89471 -1.7812,1.40625 -2.2441,1.36407 -6.1627,2.76347 -11.0938,3.90625 -9.862,2.28559 -23.6579,3.58286 -37.4374,3.78125 -13.7797,0.19843 -27.6158,-0.76272 -37.3126,-2.9375 -4.8483,-1.08741 -8.649,-2.48159 -10.75,-3.90625 -0.7318,-0.49628 -1.2324,-0.98829 -1.5624,-1.40625 0.017,2.39481 0.017,4.84694 0,7.40625 2.9708,1.62458 6.6452,2.83582 11,3.8125 10.4937,2.35355 24.6386,3.26565 38.75,3.0625 14.1112,-0.20334 28.1752,-1.58775 38.7187,-4.03125 4.5512,-1.05478 8.41,-2.23981 11.4687,-3.8125 -0.019,-2.51612 -0.016,-4.93909 0,-7.28125 z m 0.2813,22.09375 c -0.2564,0.38253 -0.9067,1.02299 -2,1.6875 -2.2441,1.36411 -6.194,2.76347 -11.125,3.90625 -9.862,2.28559 -23.7204,3.6454 -37.5,3.84375 -13.7796,0.19843 -27.5533,-0.76272 -37.25,-2.9375 -4.8483,-1.08737 -8.6803,-2.51284 -10.7813,-3.9375 -1.0357,-0.70235 -1.6239,-1.36959 -1.875,-1.84375 -0.081,2.49214 -0.1644,5.00364 -0.2812,7.53125 3.0709,1.78219 7.003,3.05714 11.625,4.09375 10.4937,2.35355 24.545,3.29694 38.6562,3.09375 14.1115,-0.20334 28.2065,-1.55646 38.75,-4 4.8702,-1.12869 8.9709,-2.44177 12.125,-4.1875 -0.1204,-2.43158 -0.2593,-4.85856 -0.3437,-7.25 z m -101.9375,25.96875 c -0.197,2.32636 -0.4209,4.61239 -0.6562,6.875 3.2016,1.73123 7.2176,3.06918 11.8437,4.125 11.2637,2.5708 26.3923,3.57406 41.4687,3.40625 15.0766,-0.16781 30.0185,-1.60199 41.2188,-4.25 3.988,-0.94287 7.51,-1.99284 10.4375,-3.3125 -0.2494,-2.15257 -0.4774,-4.35589 -0.6875,-6.5625 -2.4367,1.38987 -6.3771,2.83147 -11.1875,3.96875 -10.4724,2.47593 -25.1749,3.86726 -39.9063,4.03125 -14.7312,0.16403 -29.4779,-0.92527 -39.9374,-3.3125 -5.23,-1.19361 -9.4693,-2.80139 -11.8126,-4.375 -0.2928,-0.19671 -0.551,-0.40179 -0.7812,-0.59375 z m 106.2812,20.59375 c -0.289,0.22517 -0.6004,0.44515 -0.9687,0.6875 -2.5059,1.64901 -6.8047,3.26559 -12.2813,4.59375 -10.9529,2.65637 -26.3659,4.14368 -41.6874,4.25 -15.3217,0.1062 -30.669,-1.18589 -41.4688,-3.78125 -5.3999,-1.29766 -9.6529,-2.92176 -12.0312,-4.59375 -0.1487,-0.1045 -0.2712,-0.2091 -0.4063,-0.3125 -0.3833,2.3538 -0.8058,4.6043 -1.25,6.75 3.2727,1.84791 7.3606,3.2538 12.1563,4.40625 11.6511,2.79995 27.3079,4.01514 43,3.90625 15.6919,-0.10885 31.3876,-1.6222 43.125,-4.46875 5.2284,-1.26805 9.7285,-2.71499 13.1874,-4.6875 -0.4806,-2.15082 -0.9615,-4.41344 -1.375,-6.75 z m 3.625,15.1875 a 3.1638032,3.1638032 0 0 0 0.031,1.5625 c 0.5381,2.03996 0.082,3.39727 -2.375,5.4375 -2.4574,2.04023 -6.8337,4.00327 -12.4063,5.65625 -11.1448,3.30591 -27.0624,5.26149 -43,5.4375 -15.9374,0.17613 -31.999,-1.37599 -43.4374,-4.5 -5.7194,-1.562 -10.3092,-3.56904 -13,-5.65625 -1.5655,-1.21426 -2.4647,-2.26922 -2.875,-3.375 -0.9786,2.58088 -2.0411,4.72339 -3.2188,6.3125 0.6608,0.734 1.3878,1.41097 2.1875,2.03125 3.7914,2.94081 9.0637,5.02919 15.25,6.71875 12.3725,3.37912 28.7191,4.8996 45.0937,4.71875 16.3748,-0.18104 32.7024,-1.97947 44.7813,-5.5625 6.0395,-1.7915 11.0718,-3.99294 14.6563,-6.96875 0.8844,-0.73427 1.6696,-1.54742 2.3437,-2.4375 -1.5146,-2.46483 -2.8436,-5.66245 -4.0313,-9.375 z"
               style="color:#000000;fill:#835e23;fill-opacity:1;fill-rule:nonzero;stroke:none;stroke-width:4.23333359;marker:none;visibility:visible;display:inline;overflow:visible;enable-background:accumulate" />
          </g>
          <path
             sodipodi:nodetypes="sssss"
             style="color:#000000;fill:#cb9e57;fill-opacity:1;fill-rule:nonzero;stroke:none;stroke-width:10;marker:none;visibility:visible;display:inline;overflow:visible;enable-background:accumulate"
             d="m 29.095562,-92.476055 c 0,1.96103 -5.866777,3.321279 -13.51138,3.321279 -7.6446048,0 -13.6133109,-1.438797 -13.6133109,-3.399827 0,-1.961031 5.9687061,-3.701692 13.6133109,-3.701692 7.644603,0 13.51138,1.819209 13.51138,3.78024 z"
             id="path15189"
             inkscape:connector-curvature="0" />
          <path
             sodipodi:nodetypes="sssss"
             inkscape:connector-curvature="0"
             id="path15191"
             d="m 26.673011,-93.034778 c 0,1.415521 -5.013774,2.563029 -11.198577,2.563029 -6.1848041,0 -11.198579,-1.147508 -11.198579,-2.563029 0,-1.415523 5.0137749,-2.56303 11.198579,-2.56303 6.184803,0 11.198577,1.147507 11.198577,2.56303 z"
             style="color:#000000;fill:#38290e;fill-opacity:1;fill-rule:nonzero;stroke:none;stroke-width:10;marker:none;visibility:visible;display:inline;overflow:visible;enable-background:accumulate" />
        </g>
      </g>
      <g
         id="g15193"
         transform="matrix(0.74049478,-0.11440118,0.11440118,0.74049478,-935.88419,641.4912)"
         inkscape:transform-center-x="-23.591756"
         inkscape:transform-center-y="17.944767">
        <path
           style="color:#000000;fill:#b27b4c;fill-opacity:1;fill-rule:nonzero;stroke:#38290e;stroke-width:20.01922417;stroke-linejoin:round;stroke-miterlimit:4;stroke-opacity:1;stroke-dasharray:none;marker:none;visibility:visible;display:inline;overflow:visible;enable-background:accumulate"
           d="m 85.351531,-113.52215 c 9.972626,-2.25266 3.655066,-5.04943 15.201499,-0.10064 10.37604,4.44716 14.12893,27.084638 12.07579,35.003852 -1.64593,6.348591 -19.208569,8.978226 -19.208569,8.978226 0,0 -5.64937,35.971077 2.64219,29.025045 11.475469,-9.613267 34.059929,-16.032252 36.804379,-29.497447 2.54319,-12.477732 -5.27947,-46.048766 -19.35808,-60.713976 -14.078605,-14.66521 -28.693494,2.46791 -42.772097,-1.785 3.603146,4.67903 4.372623,0.95139 9.325498,9.2416 3.404762,5.69896 -1.454603,7.2028 5.28939,9.84834 z"
           id="path15195"
           inkscape:connector-curvature="0"
           transform="matrix(0.26458334,0,0,0.26458334,-6.3049604e-6,18.562493)"
           sodipodi:nodetypes="csscssscsc" />
        <path
           sodipodi:nodetypes="ssscssssss"
           transform="matrix(0.26458334,0,0,0.26458334,-6.3049604e-6,18.562493)"
           inkscape:connector-curvature="0"
           id="path15197"
           d="m 80.072055,-106.77615 c 6.135921,-2.31606 7.919214,-13.78529 19.651384,-8.50582 11.732171,5.27948 14.958521,28.743818 12.905381,36.663032 -1.64593,6.348591 -19.208569,8.978226 -19.208569,8.978226 0,0 -14.181043,-2.358695 -14.749525,13.16218 -0.41924,11.446221 9.100155,22.808897 17.391715,15.862865 11.475469,-9.613267 34.059929,-16.032252 36.804379,-29.497447 2.54319,-12.477732 -5.27947,-46.048766 -19.35808,-60.713976 -14.078605,-14.66521 -33.239134,-0.4868 -47.808592,-2.49309 -10.723078,-1.47663 -2.715376,32.99378 14.371907,26.54403 z"
           style="color:#000000;fill:#af843e;fill-opacity:1;fill-rule:nonzero;stroke:none;stroke-width:14.28299999;marker:none;visibility:visible;display:inline;overflow:visible;enable-background:accumulate" />
        <path
           sodipodi:nodetypes="sscssscsss"
           id="path15199"
           transform="matrix(0.26458334,0,0,0.26458334,-6.3049604e-6,18.562493)"
           d="m 94.71875,-124.46875 c -8.912609,0.43953 -11.55652,10.75009 -17.15625,12.5 -2.338892,0.73091 -6.78175,3.40439 -8.89688,2.77679 2.928423,3.70873 8.325042,3.22385 11.39688,2.41071 6.340118,-1.67826 7.92408,-13.77947 19.65625,-8.5 11.73217,5.27948 14.95939,28.737036 12.90625,36.65625 -0.29765,1.14808 -1.10929,2.182471 -2.25,3.09375 5.77905,-2.778468 8.04844,-6.162504 9.5,-11.96875 2.07398,-8.295897 -5.81177,-31.53101 -19.5,-36.09375 -2.138786,-0.71293 -4.005767,-0.95639 -5.65625,-0.875 z"
           style="color:#000000;fill:#835e23;fill-opacity:1;fill-rule:nonzero;stroke:none;stroke-width:14.28299999;marker:none;visibility:visible;display:inline;overflow:visible;enable-background:accumulate"
           inkscape:connector-curvature="0" />
        <path
           id="path15201"
           transform="matrix(0.26458334,0,0,0.26458334,-6.3049604e-6,18.562493)"
           d="m 128.9375,-101.1875 c 1.96177,9.652545 4.1694,23.821774 -0.34937,30.707519 -8.40368,12.805615 -46.18459,31.119992 -50.758783,18.573974 -0.41924,11.446221 9.941593,18.227039 18.233153,11.281007 11.47547,-9.613267 34.06805,-16.034805 36.8125,-29.5 1.32685,-6.509968 -0.20487,-18.749799 -3.9375,-31.0625 z"
           style="color:#000000;fill:#835e23;fill-opacity:1;fill-rule:nonzero;stroke:none;stroke-width:14.28299999;marker:none;visibility:visible;display:inline;overflow:visible;enable-background:accumulate"
           inkscape:connector-curvature="0"
           sodipodi:nodetypes="cscssc" />
        <path
           sodipodi:nodetypes="sscsscss"
           id="path15203"
           transform="matrix(0.26458334,0,0,0.26458334,-6.3049604e-6,18.562493)"
           d="m 99.03125,-137.0625 c -11.325296,-0.19889 -23.66471,6.67388 -33.34375,3.75 -3.980139,-1.20233 -6.544041,4.93627 -3.726347,11.625 -0.295718,-8.46079 6.945757,-6.72384 13.538847,-5.625 7.466307,1.24439 18.649905,-10.37818 31.09375,-4.15625 7.69803,3.84902 15.24403,14.99183 19.875,22.9375 -3.30046,-8.68282 -7.70249,-16.79557 -12.96875,-22.28125 -4.39956,-4.58288 -9.32089,-6.15959 -14.46875,-6.25 z"
           style="color:#000000;fill:#af843e;fill-opacity:1;fill-rule:nonzero;stroke:none;stroke-width:14.28299999;marker:none;visibility:visible;display:inline;overflow:visible;enable-background:accumulate"
           inkscape:connector-curvature="0" />
      </g>
      <g
         transform="matrix(-0.73075311,-0.16558997,-0.16558997,0.73075311,-962.58189,641.92994)"
         id="g15205">
        <path
           sodipodi:nodetypes="csscssscsc"
           transform="matrix(0.26458334,0,0,0.26458334,-6.3049604e-6,18.562493)"
           inkscape:connector-curvature="0"
           id="path15207"
           d="m 85.351531,-113.52215 c 9.972626,-2.25266 3.655066,-5.04943 15.201499,-0.10064 10.37604,4.44716 14.12893,27.084638 12.07579,35.003852 -1.64593,6.348591 -19.208569,8.978226 -19.208569,8.978226 0,0 -5.64937,35.971077 2.64219,29.025045 11.475469,-9.613267 34.059929,-16.032252 36.804379,-29.497447 2.54319,-12.477732 -5.27947,-46.048766 -19.35808,-60.713976 -14.078605,-14.66521 -28.693494,2.46791 -42.772097,-1.785 3.603146,4.67903 4.372623,0.95139 9.325498,9.2416 3.404762,5.69896 -1.454603,7.2028 5.28939,9.84834 z"
           style="color:#000000;fill:#b27b4c;fill-opacity:1;fill-rule:nonzero;stroke:#38290e;stroke-width:20.01922417;stroke-linejoin:round;stroke-miterlimit:4;stroke-opacity:1;stroke-dasharray:none;marker:none;visibility:visible;display:inline;overflow:visible;enable-background:accumulate" />
        <path
           style="color:#000000;fill:#af843e;fill-opacity:1;fill-rule:nonzero;stroke:none;stroke-width:14.28299999;marker:none;visibility:visible;display:inline;overflow:visible;enable-background:accumulate"
           d="m 80.072055,-106.77615 c 6.135921,-2.31606 7.919214,-13.78529 19.651384,-8.50582 11.732171,5.27948 14.958521,28.743818 12.905381,36.663032 -1.64593,6.348591 -19.208569,8.978226 -19.208569,8.978226 0,0 -14.181043,-2.358695 -14.749525,13.16218 -0.41924,11.446221 9.100155,22.808897 17.391715,15.862865 11.475469,-9.613267 34.059929,-16.032252 36.804379,-29.497447 2.54319,-12.477732 -5.27947,-46.048766 -19.35808,-60.713976 -14.078605,-14.66521 -33.239134,-0.4868 -47.808592,-2.49309 -10.723078,-1.47663 -2.715376,32.99378 14.371907,26.54403 z"
           id="path15209"
           inkscape:connector-curvature="0"
           transform="matrix(0.26458334,0,0,0.26458334,-6.3049604e-6,18.562493)"
           sodipodi:nodetypes="ssscssssss" />
        <path
           inkscape:connector-curvature="0"
           style="color:#000000;fill:#835e23;fill-opacity:1;fill-rule:nonzero;stroke:none;stroke-width:14.28299999;marker:none;visibility:visible;display:inline;overflow:visible;enable-background:accumulate"
           d="m 94.71875,-124.46875 c -8.912609,0.43953 -11.55652,10.75009 -17.15625,12.5 -2.338892,0.73091 -6.78175,3.40439 -8.89688,2.77679 2.928423,3.70873 8.325042,3.22385 11.39688,2.41071 6.340118,-1.67826 7.92408,-13.77947 19.65625,-8.5 11.73217,5.27948 14.95939,28.737036 12.90625,36.65625 -0.29765,1.14808 -1.10929,2.182471 -2.25,3.09375 5.77905,-2.778468 8.04844,-6.162504 9.5,-11.96875 2.07398,-8.295897 -5.81177,-31.53101 -19.5,-36.09375 -2.138786,-0.71293 -4.005767,-0.95639 -5.65625,-0.875 z"
           transform="matrix(0.26458334,0,0,0.26458334,-6.3049604e-6,18.562493)"
           id="path15211"
           sodipodi:nodetypes="sscssscsss" />
        <path
           sodipodi:nodetypes="cscssc"
           inkscape:connector-curvature="0"
           style="color:#000000;fill:#835e23;fill-opacity:1;fill-rule:nonzero;stroke:none;stroke-width:14.28299999;marker:none;visibility:visible;display:inline;overflow:visible;enable-background:accumulate"
           d="m 128.9375,-101.1875 c 1.96177,9.652545 4.1694,23.821774 -0.34937,30.707519 -8.40368,12.805615 -46.18459,31.119992 -50.758783,18.573974 -0.41924,11.446221 9.941593,18.227039 18.233153,11.281007 11.47547,-9.613267 34.06805,-16.034805 36.8125,-29.5 1.32685,-6.509968 -0.20487,-18.749799 -3.9375,-31.0625 z"
           transform="matrix(0.26458334,0,0,0.26458334,-6.3049604e-6,18.562493)"
           id="path15213" />
        <path
           inkscape:connector-curvature="0"
           style="color:#000000;fill:#af843e;fill-opacity:1;fill-rule:nonzero;stroke:none;stroke-width:14.28299999;marker:none;visibility:visible;display:inline;overflow:visible;enable-background:accumulate"
           d="m 99.03125,-137.0625 c -11.325296,-0.19889 -23.66471,6.67388 -33.34375,3.75 -3.980139,-1.20233 -6.544041,4.93627 -3.726347,11.625 -0.295718,-8.46079 6.945757,-6.72384 13.538847,-5.625 7.466307,1.24439 18.649905,-10.37818 31.09375,-4.15625 7.69803,3.84902 15.24403,14.99183 19.875,22.9375 -3.30046,-8.68282 -7.70249,-16.79557 -12.96875,-22.28125 -4.39956,-4.58288 -9.32089,-6.15959 -14.46875,-6.25 z"
           transform="matrix(0.26458334,0,0,0.26458334,-6.3049604e-6,18.562493)"
           id="path15215"
           sodipodi:nodetypes="sscsscss" />
      </g>
      <g
         transform="matrix(0.74839489,0,0,0.89257468,-945.65645,612.67294)"
         id="g14958">
        <path
           sodipodi:nodetypes="ssscsccsccccscs"
           inkscape:connector-curvature="0"
           id="path14960"
           transform="matrix(0.26458334,0,0,0.26458334,-6.3049604e-6,18.562493)"
           d="m -22.875,-185.79447 c -1.41666,0 -2.827535,0.0146 -4.21875,0.0312 -43.127669,0.51649 -73.78803,1.68507 -77.28125,17.56251 -0.96963,4.40717 -2.82558,6.86662 -0.78125,13.07571 0.0532,0.20643 0.11334,0.4008 0.1875,0.59375 0.14428,0.37538 0.30241,0.74176 0.5,1.09375 0.005,0.009 -0.005,0.0227 0,0.0312 6.125169,11.48208 37.677298,10.49641 81.59375,10.49641 43.916452,0 75.177144,0.89471 81.53125,-10.49641 0.210445,-0.35597 0.375319,-0.74507 0.53125,-1.125 0.03877,-0.0945 0.08775,-0.2076 0.125,-0.3125 0.0018,-0.009 -0.0017,-0.022 0,-0.0312 1.198885,-3.41696 1.580391,-3.97639 -0.125,-10.34099 -5.553513,-20.72599 -34.866906,-20.20369 -77.90625,-20.54723 -1.369818,-0.021 -2.73959,-0.0312 -4.15625,-0.0312 z"
           style="color:#000000;fill:#b7855a;fill-opacity:1;fill-rule:nonzero;stroke:#38290e;stroke-width:16;stroke-linejoin:round;stroke-miterlimit:4;stroke-opacity:1;stroke-dasharray:none;marker:none;visibility:visible;display:inline;overflow:visible;enable-background:accumulate" />
        <path
           style="color:#000000;fill:#c29752;fill-opacity:1;fill-rule:nonzero;stroke:none;stroke-width:2;marker:none;visibility:visible;display:inline;overflow:visible;enable-background:accumulate"
           d="m -6.0544848,-30.816677 c -11.9943862,0 -20.6087542,0.536957 -21.5628162,4.873377 -0.264754,1.203365 -0.783128,1.989172 -0.155207,3.622856 1.221563,3.178182 9.723637,5.710389 21.7180232,5.710389 11.994386,0 20.4252398,-2.560506 21.7180238,-5.710389 0.342502,-0.834512 0.466399,-0.956313 0,-2.696937 -1.516766,-5.660648 -9.7236378,-5.799296 -21.7180238,-5.799296 z"
           id="path14962"
           inkscape:connector-curvature="0"
           sodipodi:nodetypes="sssssss" />
        <path
           sodipodi:nodetypes="scscs"
           inkscape:connector-curvature="0"
           id="path14964"
           transform="matrix(0.28175187,0,0,0.29642712,879.13348,-427.52119)"
           d="m -3141.7188,1338.2812 c -33.8876,0 -60.1662,1.1527 -71.1874,9 -11.1792,22.8539 99.3317,20.0084 130.266,12.476 18.4967,-4.5039 12.3275,-9.8868 6.8277,-14.6322 -13.122,-6.6047 -36.2331,-6.8438 -65.9063,-6.8438 z"
           style="color:#000000;fill:#dcae64;fill-opacity:1;fill-rule:nonzero;stroke:none;stroke-width:2;marker:none;visibility:visible;display:inline;overflow:visible;enable-background:accumulate" />
        <path
           sodipodi:nodetypes="sasss"
           inkscape:connector-curvature="0"
           id="path14966"
           d="m 8.5595493,-26.693014 c 0,0.402209 -9.8673732,0.728264 -14.8417654,0.728264 -4.9743929,0 -14.8417669,-0.326055 -14.8417669,-0.728264 0,-0.40221 6.644885,-0.728265 14.8417669,-0.728265 8.1968806,0 14.8417654,0.326055 14.8417654,0.728265 z"
           style="color:#000000;fill:#4a301b;fill-opacity:1;fill-rule:nonzero;stroke:none;stroke-width:10;marker:none;visibility:visible;display:inline;overflow:visible;enable-background:accumulate" />
        <path
           sodipodi:nodetypes="csccccccccccccccccccccccsccsccccccccccccccsccccc"
           inkscape:connector-curvature="0"
           id="path14968"
           transform="matrix(0.28175187,0,0,0.29642712,912.39207,-363.5309)"
           d="m -3184.7812,1137.1562 c -2.257,9.64 -10.2456,23.9774 -66.7813,23.9774 -68.9293,0 -81.5724,-11.1291 -84.5625,-22.8524 -0.055,0.1927 -0.1418,0.3653 -0.1875,0.5626 -0.5617,2.4267 -1.4188,4.3555 -1.5625,6.6874 0.065,1.6018 0.2395,3.1479 0.6562,4.5313 0.01,0.021 0.024,0.041 0.031,0.062 0.098,0.3205 0.2219,0.6362 0.3437,0.9375 0.6775,1.6753 1.9868,3.2988 3.875,4.8437 0.7554,0.618 1.5938,1.2209 2.5313,1.8126 0.9375,0.5916 1.9493,1.1877 3.0625,1.75 2.2264,1.1245 4.798,2.168 7.6875,3.1562 1.4448,0.4941 2.9931,0.9822 4.5937,1.4375 0.8004,0.2277 1.5995,0.4389 2.4376,0.6563 1.6761,0.4347 3.4277,0.8586 5.25,1.25 3.6445,0.7826 7.5918,1.4722 11.7812,2.0624 2.0947,0.2952 4.2477,0.5702 6.4688,0.8126 2.221,0.2423 4.5029,0.4385 6.8437,0.625 1.1703,0.093 2.3322,0.2026 3.5313,0.2812 0.01,7e-4 0.021,-7e-4 0.031,0 1.965,0.1289 3.9608,0.2241 6,0.3125 1.7035,0.074 3.4032,0.1429 5.1562,0.1875 2.5607,0.065 5.1831,0.094 7.8438,0.094 6.6402,-7e-4 12.9925,-0.2293 18.9688,-0.625 1.1972,-0.079 2.3629,-0.156 3.5312,-0.25 1.1682,-0.094 2.3303,-0.2044 3.4688,-0.3126 2.277,-0.2165 4.5027,-0.4476 6.6562,-0.7187 1.2183,-0.1532 2.3853,-0.3302 3.5625,-0.5 2.9945,-0.4319 5.8466,-0.9047 8.5625,-1.4375 0.9439,-0.1852 1.8725,-0.3659 2.7812,-0.5625 1.5851,-0.3429 3.1189,-0.7179 4.5938,-1.0937 1.0508,-0.268 2.1008,-0.5288 3.0938,-0.8126 2.3854,-0.6819 4.6189,-1.422 6.6562,-2.1874 0.6814,-0.2563 1.3592,-0.5165 2,-0.7813 0.632,-0.2612 1.252,-0.5434 1.8438,-0.8125 0.1953,-0.089 0.3716,-0.1915 0.5624,-0.2812 0.7829,-0.3679 1.5429,-0.7125 2.25,-1.0938 0.9224,-0.4978 1.773,-1.0124 2.5626,-1.5312 0.5304,-0.3481 1.0308,-0.7059 1.5,-1.0626 0.3577,-0.2724 0.6786,-0.5665 1,-0.8437 0.1974,-0.1699 0.4101,-0.3284 0.5937,-0.5 0.3352,-0.3134 0.6491,-0.6189 0.9375,-0.9375 0.5767,-0.6372 1.0525,-1.2815 1.4375,-1.9375 0.1925,-0.328 0.3566,-0.6679 0.5,-1 0.4418,-1.0231 0.7952,-2.7534 0.9687,-4.8125 -0.1373,-1.031 -0.4224,-2.3432 -0.9687,-4.2812 -0.498,-1.7665 -1.1976,-3.3505 -2.0937,-4.8126 z"
           style="opacity:0.90265491;color:#000000;fill:#926927;fill-opacity:1;fill-rule:nonzero;stroke:none;stroke-width:2;marker:none;visibility:visible;display:inline;overflow:visible;enable-background:accumulate" />
      </g>
    </g>
  </g>
</svg>
