<?xml version="1.0" encoding="UTF-8" standalone="no"?>
<!-- Created with Inkscape (http://www.inkscape.org/) -->

<svg
   xmlns:dc="http://purl.org/dc/elements/1.1/"
   xmlns:cc="http://creativecommons.org/ns#"
   xmlns:rdf="http://www.w3.org/1999/02/22-rdf-syntax-ns#"
   xmlns:svg="http://www.w3.org/2000/svg"
   xmlns="http://www.w3.org/2000/svg"
   xmlns:sodipodi="http://sodipodi.sourceforge.net/DTD/sodipodi-0.dtd"
   xmlns:inkscape="http://www.inkscape.org/namespaces/inkscape"
   width="278.30746"
   height="423.97293"
   viewBox="0 0 73.635515 112.17617"
   version="1.1"
   id="svg23489"
   inkscape:version="0.48.5 r10040"
   sodipodi:docname="clay_pot_03_top_view.svg"
   tags="pot, ancient pot, ancient urn, egypt pot, egyptian pottery, pottery, ceramics, ceraminv, urn,vase">
  <defs
     id="defs23483" />
  <sodipodi:namedview
     id="base"
     pagecolor="#7d848b"
     bordercolor="#666666"
     borderopacity="1.0"
     inkscape:pageopacity="0"
     inkscape:pageshadow="2"
     inkscape:zoom="0.23513837"
     inkscape:cx="647.7226"
     inkscape:cy="1251.1343"
     inkscape:document-units="px"
     inkscape:current-layer="layer1"
     showgrid="false"
     inkscape:pagecheckerboard="false"
     showborder="true"
     units="px"
     inkscape:window-width="1920"
     inkscape:window-height="1017"
     inkscape:window-x="-8"
     inkscape:window-y="-8"
     inkscape:window-maximized="1"
     inkscape:showpageshadow="false"
     guidetolerance="28"
     fit-margin-top="20"
     fit-margin-left="20"
     fit-margin-right="20"
     fit-margin-bottom="20">
    <inkscape:grid
       type="xygrid"
       id="grid24034"
       spacingx="1px"
       spacingy="1px"
       empspacing="8"
       visible="true"
       enabled="true"
       snapvisiblegridlinesonly="true"
       originx="-467.22638px"
       originy="540.84649px" />
  </sodipodi:namedview>
  <metadata
     id="metadata23486">
    <rdf:RDF>
      <cc:Work
         rdf:about="">
        <dc:format>image/svg+xml</dc:format>
        <dc:type
           rdf:resource="http://purl.org/dc/dcmitype/StillImage" />
        <dc:title></dc:title>
        <cc:license
           rdf:resource="" />
        <dc:creator>
          <cc:Agent>
            <dc:title>Robert Brooks</dc:title>
          </cc:Agent>
        </dc:creator>
      </cc:Work>
    </rdf:RDF>
  </metadata>
  <g
     inkscape:label="Layer 1"
     inkscape:groupmode="layer"
     id="layer1"
     transform="translate(-123.62031,-327.92279)">
    <g
       id="g15454"
       transform="translate(1278.7206,-265.52245)">
      <g
         transform="matrix(0.93801484,0,0,0.93801484,-1398.5961,828.18188)"
         id="g11947">
        <g
           id="g11949"
           transform="matrix(0.6637215,0,0,-0.77066961,303.28187,-164.8637)">
          <path
             sodipodi:nodetypes="sssssss"
             inkscape:connector-curvature="0"
             id="path11951"
             d="m -6.0544848,-34.421253 c -11.9943862,0 -20.2983402,2.725491 -21.7180232,5.820256 -0.513753,1.119929 -0.627921,4.646869 0,6.280553 1.221563,3.178182 9.723637,4.454547 21.7180232,4.454547 11.994386,0 20.4252398,-1.304664 21.7180238,-4.454547 0.342502,-0.834512 0.862091,-4.641034 0,-6.223469 -1.628888,-2.989948 -9.7236378,-5.87734 -21.7180238,-5.87734 z"
             style="color:#000000;fill:#b7855a;fill-opacity:1;fill-rule:nonzero;stroke:#38290e;stroke-width:5.2839036;stroke-linejoin:round;stroke-miterlimit:4;stroke-opacity:1;stroke-dasharray:none;marker:none;visibility:visible;display:inline;overflow:visible;enable-background:accumulate" />
          <path
             style="color:#000000;fill:#a1742b;fill-opacity:1;fill-rule:nonzero;stroke:none;stroke-width:2;marker:none;visibility:visible;display:inline;overflow:visible;enable-background:accumulate"
             d="m -6.0544848,-34.421253 c -11.9943862,0 -20.2983402,2.725491 -21.7180232,5.820256 -0.513753,1.119929 -0.627921,4.646869 0,6.280553 1.221563,3.178182 9.723637,5.710389 21.7180232,5.710389 11.994386,0 20.4252398,-2.560506 21.7180238,-5.710389 0.342502,-0.834512 0.862091,-4.641034 0,-6.223469 -1.628888,-2.989948 -9.7236378,-5.87734 -21.7180238,-5.87734 z"
             id="path11953"
             inkscape:connector-curvature="0"
             sodipodi:nodetypes="sssssss" />
        </g>
        <g
           transform="translate(369.0714,-165.77068)"
           id="g11955">
          <path
             style="color:#000000;fill:#c29752;fill-opacity:1;fill-rule:nonzero;stroke:#38290e;stroke-width:4.23333359;stroke-miterlimit:4;stroke-opacity:1;stroke-dasharray:none;marker:none;visibility:visible;display:inline;overflow:visible;enable-background:accumulate"
             d="m -38.73603,-15.649196 c 0,11.5464147 -6.762609,26.133883 -16.43306,34.25455 -4.519255,3.795 -9.673565,3.073555 -15.069508,3.073555 -5.109175,0 -10.001718,0.967972 -14.343659,-2.480611 -10.056217,-7.987145 -17.158913,-23.0143118 -17.158913,-34.847494 0,-16.942358 14.560215,-25.77062 31.502572,-25.77062 16.942359,0 31.502568,8.828262 31.502568,25.77062 z"
             id="path11957"
             inkscape:connector-curvature="0"
             sodipodi:nodetypes="sssssss" />
          <path
             sodipodi:nodetypes="sssss"
             inkscape:connector-curvature="0"
             id="path11959"
             d="m -38.73603,-15.649196 c 0,16.942357 -14.560209,40.432242 -31.502568,40.432242 -16.942357,0 -31.502572,-23.489885 -31.502572,-40.432242 0,-16.942358 14.560215,-25.77062 31.502572,-25.77062 16.942359,0 31.502568,8.828262 31.502568,25.77062 z"
             style="color:#000000;fill:#c29752;fill-opacity:1;fill-rule:nonzero;stroke:none;stroke-width:2;marker:none;visibility:visible;display:inline;overflow:visible;enable-background:accumulate" />
          <path
             inkscape:connector-curvature="0"
             style="color:#000000;fill:#a1742b;fill-opacity:1;fill-rule:nonzero;stroke:none;stroke-width:2;marker:none;visibility:visible;display:inline;overflow:visible;enable-background:accumulate"
             d="m -144.34375,-230.15625 c -10.11613,42.60508 -50.73573,145.521994 -125.28125,134.375 -77.46082,-11.58292 -99.92995,-67.38873 -110.46875,-101.8125 8.05348,61.7841 59.19368,136.5 117.9375,136.5 64.03411,0 119.0625,-88.80965 119.0625,-152.84375 0,-5.65062 -0.42458,-11.0476 -1.25,-16.21875 z"
             transform="matrix(0.26458334,0,0,0.26458334,-0.87798869,40.951044)"
             id="path11961" />
          <path
             inkscape:connector-curvature="0"
             style="color:#000000;fill:#d9ab63;fill-opacity:1;fill-rule:nonzero;stroke:none;stroke-width:2;marker:none;visibility:visible;display:inline;overflow:visible;enable-background:accumulate"
             d="m -334.8125,-293.78125 c -23.50933,13.44485 -40.28376,34.52837 -45.03125,62.9375 -0.58919,30.44604 17.33147,49.74239 46.34375,35.5 45.62743,-22.39892 29.88476,-84.62158 6.65625,-95.40625 -2.8671,-1.33115 -5.52201,-2.31863 -7.96875,-3.03125 z"
             transform="matrix(0.26458334,0,0,0.26458334,-0.87798869,40.951044)"
             id="path11963" />
          <path
             style="color:#000000;fill:#d9ab63;fill-opacity:1;fill-rule:nonzero;stroke:none;stroke-width:2;marker:none;visibility:visible;display:inline;overflow:visible;enable-background:accumulate"
             d="m -262.15625,-311.3125 c -31.2259,0 -60.29967,7.91274 -81.90625,23.46875 1.23671,1.40263 2.5595,2.67822 3.9375,3.75 3.7588,2.92351 5.78054,10.12238 16.99614,16.90054 55.77612,33.70834 150.90843,-3.47149 136.75386,-24.71304 -20.8293,-12.85494 -47.42165,-19.40625 -75.78125,-19.40625 z"
             transform="matrix(0.26458334,0,0,0.26458334,-0.87798869,40.951044)"
             id="path11965"
             inkscape:connector-curvature="0"
             sodipodi:nodetypes="scsscs" />
          <path
             sodipodi:nodetypes="scscccccccccccscscc"
             inkscape:connector-curvature="0"
             id="path11967"
             transform="matrix(0.26458334,0,0,0.26458334,-369.07141,184.33317)"
             d="m 1129.4375,-853.25 c -55.744,0 -104.6423,25.3018 -116.375,74.09375 7.817,-10.46305 22.3822,-24.76041 42.1875,-32.5625 1.0227,-0.40289 2.0995,-0.80117 3.2188,-1.1875 -22.7428,28.57683 -27.2813,63.40625 -27.2813,63.40625 0,0 22.4682,-43.36273 58.75,-60.5 -13.4646,30.05272 -7.9807,67.91835 -4.8437,72.9375 6.3536,-30.23521 22.9263,-51.04452 35,-66.4375 7.0735,25.69927 17.8091,60.3431 19.3124,65.0625 -0.3569,-5.12642 8.3948,-39.69164 12.9688,-62.40625 11.9086,17.42331 26.1042,39.06679 32.4688,58.65625 2.6024,-4.69364 1.8108,-43.10674 -12.4688,-65.1875 38.8547,17.71016 60.3125,57.875 60.3125,57.875 0,0 -4.5294,-34.72749 -27.1875,-63.28125 21.6282,10.20487 32.3158,26.94743 38.0625,44.1875 1.8054,5.41626 3.4589,9.56098 4.9375,12.75 0,-64.03411 -55.0284,-97.40625 -119.0625,-97.40625 z m 9.9687,114.84375 c 0.018,0.22634 0.1591,0.50112 0,0 z"
             style="color:#000000;fill:#835e23;fill-opacity:1;fill-rule:nonzero;stroke:none;stroke-width:2;marker:none;visibility:visible;display:inline;overflow:visible;enable-background:accumulate" />
          <path
             inkscape:connector-curvature="0"
             id="path11969"
             transform="matrix(0.26458334,0,0,0.26458334,-369.07141,184.33317)"
             d="m 1010.4375,-753.1875 c 0.1817,7.8439 1.1445,16.02028 2.8437,24.34375 0.2292,0.1779 0.4536,0.35703 0.6876,0.53125 7.5687,5.63739 17.7549,9.86768 29.75,13.1875 23.99,6.63968 55.2987,9.45898 86.6562,9.03125 31.3575,-0.42773 62.6807,-4.1017 86.5938,-10.9375 11.5193,-3.29294 21.3223,-7.30355 28.75,-12.3125 1.0955,-5.45552 1.859,-10.84933 2.3124,-16.125 -1.3021,2.4079 -3.6181,4.84758 -7.2187,7.375 -6.0444,4.24286 -15.2959,8.20786 -26.5937,11.4375 -22.5958,6.45921 -53.3144,10.14437 -83.9688,10.5625 -30.6544,0.41813 -61.3563,-2.42381 -83.875,-8.65625 -11.2594,-3.11622 -20.4413,-7.12767 -26.4375,-11.59375 -5.9962,-4.46604 -8.6563,-8.89023 -8.6563,-14 a 5.0005001,5.0005001 0 0 0 -0.8437,-2.84375 z"
             style="color:#000000;fill:#64491b;fill-opacity:1;fill-rule:nonzero;stroke:none;stroke-width:2;marker:none;visibility:visible;display:inline;overflow:visible;enable-background:accumulate" />
          <path
             inkscape:connector-curvature="0"
             id="path11971"
             transform="matrix(0.26458334,0,0,0.26458334,-369.07141,184.33317)"
             d="m 1241,-711.125 c -10.1278,5.16234 -24.9366,10.69349 -46.6562,15.40625 -51.1313,11.09451 -134.3741,10.65555 -176.375,-15.28125 4.135,13.01113 9.7977,26.00921 16.7812,38.25 78.705,30.8585 154.8403,12.10765 189.125,0.40625 7.1154,-12.40343 12.94,-25.57854 17.125,-38.78125 z"
             style="opacity:0.59734509;color:#000000;fill:#835e23;fill-opacity:1;fill-rule:nonzero;stroke:none;stroke-width:2;marker:none;visibility:visible;display:inline;overflow:visible;enable-background:accumulate" />
          <path
             inkscape:connector-curvature="0"
             id="path11973"
             transform="matrix(0.26458334,0,0,0.26458334,-369.07141,184.33317)"
             d="m 1241.75,-713.59375 c -6.4627,4.34915 -15.6852,8.27451 -26.75,11.4375 -22.991,6.57222 -53.8222,10.204 -84.6875,10.625 -30.8653,0.421 -61.7274,-2.39537 -84.6875,-8.75 -11.4801,-3.1773 -21.032,-7.21379 -27.5,-12.03125 -0.2537,-0.18896 -0.506,-0.3718 -0.75,-0.5625 0.6303,2.05859 1.2599,4.13065 1.9688,6.1875 6.7081,4.1321 15.3199,7.44785 25.2187,10.1875 23.5487,6.51749 54.6035,9.39361 85.75,8.96875 31.1465,-0.42486 62.3571,-4.12092 85.875,-10.84375 9.2018,-2.63043 17.2022,-5.72288 23.6563,-9.3125 0.6649,-1.96486 1.3131,-3.94054 1.9062,-5.90625 z M 1028.2188,-685.25 c 2.4001,4.98286 5.0054,9.90786 7.8124,14.6875 7.3391,4.61659 16.3102,8.21333 26.2813,10.9375 21.1518,5.77878 47.0844,7.75411 72.5937,6.75 25.5095,-1.00407 50.576,-4.97425 70,-11.25 7.0819,-2.28804 13.3965,-4.89407 18.75,-7.8125 2.1371,-3.70538 4.1361,-7.48513 6.0313,-11.3125 -1.1208,1.00859 -2.4027,2.00983 -3.8437,3 -5.59,3.84068 -13.4385,7.38769 -22.7813,10.40625 -18.6856,6.03711 -43.3656,9.98312 -68.4063,10.96875 -25.0403,0.98566 -50.4751,-0.99205 -70.75,-6.53125 -16.1504,-4.4124 -28.7839,-11.05762 -35.6874,-19.84375 z"
             style="color:#000000;fill:#64491b;fill-opacity:1;fill-rule:nonzero;stroke:none;stroke-width:2;marker:none;visibility:visible;display:inline;overflow:visible;enable-background:accumulate" />
        </g>
        <g
           transform="matrix(0.95634024,0,0,1.1104392,305.04739,-184.76048)"
           id="g11975">
          <path
             sodipodi:nodetypes="ssccccccccsccccccccs"
             inkscape:connector-curvature="0"
             id="path11977"
             transform="matrix(0.27666235,0,0,0.23826909,-318.97371,183.1014)"
             d="m 1131.0625,-986.65625 c -19.0335,0 -35.9215,1.29337 -50,3.6875 -0.3734,0.0635 -0.7556,0.12245 -1.125,0.1875 -22.2731,3.68498 -39.1021,10.20895 -42.5625,19.9375 -0.037,0.10384 -0.091,0.20793 -0.125,0.3125 -0.1877,0.37674 -0.3795,0.74098 -0.5312,1.125 0.048,0.14215 0.1066,0.33835 0.1562,0.5 -0.099,0.60215 -0.1562,1.21878 -0.1562,1.84375 0.6684,1.53845 14.6533,96.59745 15.8437,120.8125 -0.2424,2.37008 0.6155,4.3238 2.4063,5.90625 8.5817,10.843 39.0957,8.93701 76.0937,8.93701 43.3539,0 74.3897,0.15785 79.0625,-13.06201 -0.08,-6.5179 0.2169,-13.7728 0.75,-21.40625 0.014,-0.19958 0.017,-0.39365 0.031,-0.59375 4.518,-51.8732 15.7271,-91.98082 14.3438,-102.65625 0.051,-0.38485 0.1308,-0.88957 0.1562,-1.15625 0.7957,-8.33187 -13.1062,-14.75047 -33.6562,-18.875 -0.1925,-0.0439 -0.3998,-0.0815 -0.5938,-0.125 -0.2945,-0.0581 -0.5777,-0.13031 -0.875,-0.1875 -15.5035,-3.37633 -35.537,-5.1875 -59.2187,-5.1875 z"
             style="color:#000000;fill:#b7855a;fill-opacity:1;fill-rule:nonzero;stroke:#38290e;stroke-width:15.99999905;stroke-linejoin:round;stroke-miterlimit:4;stroke-opacity:1;stroke-dasharray:none;marker:none;visibility:visible;display:inline;overflow:visible;enable-background:accumulate" />
          <path
             sodipodi:nodetypes="csscssc"
             inkscape:connector-curvature="0"
             id="path11979"
             d="m -32.155006,-45.41409 c 0.184923,0.366566 4.053169,23.02018 4.382498,28.789877 0.190858,3.343743 9.723637,5.710389 21.7180232,5.710389 11.994386,0 20.5875318,-2.141194 21.8803158,-5.291077 -0.144375,-10.199147 3.988331,-27.888049 4.220206,-29.97921 0.80139,-7.227329 -52.201043,-8.400575 -52.201043,0.770024 z"
             style="color:#000000;fill:#a1742b;fill-opacity:1;fill-rule:nonzero;stroke:none;stroke-width:2;marker:none;visibility:visible;display:inline;overflow:visible;enable-background:accumulate" />
          <path
             inkscape:connector-curvature="0"
             id="path11981"
             transform="matrix(0.27666235,0,0,0.23826909,-318.97371,183.1014)"
             d="m 1132.125,-986.5 c -44.5285,-0.19817 -89.3533,7.18614 -94.8438,23.9375 11.8479,8.94372 48.5176,15.46875 91.9376,15.46875 49.4033,0 90.0742,-8.43285 95.375,-19.28125 -6.5022,-12.66932 -49.3518,-19.93311 -92.4688,-20.125 z"
             style="color:#000000;fill:#dcae64;fill-opacity:1;fill-rule:nonzero;stroke:none;stroke-width:2;marker:none;visibility:visible;display:inline;overflow:visible;enable-background:accumulate" />
          <path
             inkscape:connector-curvature="0"
             id="path11983"
             transform="matrix(0.27666235,0,0,0.23826909,-318.97371,183.1014)"
             d="m 1067.1562,-973.625 c -6.585,0.10397 -17.125,4.53125 -17.125,4.53125 5.4061,50.8178 15.7934,131.46341 21.0626,146.5625 3.5313,1.27506 7.5153,2.39901 11.8437,3.40625 2.02,-0.44433 3.4687,-0.96875 3.4687,-0.96875 0,0 -14.0937,-141.94373 -14.0937,-150.15625 0,-2.56641 -2.1631,-3.42226 -5.1563,-3.375 z"
             style="opacity:0.60619465;color:#000000;fill:#dcae64;fill-opacity:1;fill-rule:nonzero;stroke:none;stroke-width:2;marker:none;visibility:visible;display:inline;overflow:visible;enable-background:accumulate" />
          <path
             inkscape:connector-curvature="0"
             id="path11985"
             d="m -8.09375,-51.59375 c -5.018507,0.05047 -10.061963,0.358475 -14.987429,1.361412 -2.623398,0.647211 -5.435411,1.146674 -7.606321,2.857338 -0.238255,0.319314 -1.148545,0.783674 -0.53125,1.1875 0.675239,0.321842 1.477033,0.610563 2.21875,0.875 3.003347,0.911492 6.12725,1.381167 9.25,1.625 7.523552,0.32125 14.9623093,-1.464955 22.4873218,-1.083411 4.5958235,0.119429 9.3284342,0.595863 13.7936942,-0.768064 0.97692,-0.367253 2.044084,-0.79069 2.743238,-1.558039 -0.174196,-0.678536 -1.027008,-0.825191 -1.458486,-1.195566 -3.16028,-1.559164 -6.709734,-1.990342 -10.1509723,-2.525375 -5.2201806,-0.675043 -10.4984483,-0.86911 -15.7585457,-0.775795 z"
             style="color:#000000;fill:#dcae64;fill-opacity:1;fill-rule:nonzero;stroke:#38290e;stroke-width:2.56749082;stroke-linejoin:round;stroke-miterlimit:4;stroke-opacity:1;stroke-dasharray:none;marker:none;visibility:visible;display:inline;overflow:visible;enable-background:accumulate" />
          <path
             inkscape:connector-curvature="0"
             id="path11987"
             transform="matrix(0.27666235,0,0,0.23826909,-318.97371,183.1014)"
             d="m 1175.125,-983.84375 c -0.2859,63.02565 -2.5935,126.75935 -4.25,135.59375 -6.2678,33.42844 -72.9624,31.49478 -111.5312,19.90625 12.179,8.5816 39.4914,14.0625 71.7187,14.0625 43.3539,0 74.3897,-8.96764 79.0625,-22.1875 -0.5218,-42.80516 14.4431,-117.03603 15.2812,-125.8125 0.9958,-10.42684 -20.9981,-17.87172 -50.2812,-21.5625 z"
             style="color:#000000;fill:#835e23;fill-opacity:1;fill-rule:nonzero;stroke:none;stroke-width:2;marker:none;visibility:visible;display:inline;overflow:visible;enable-background:accumulate" />
          <path
             inkscape:connector-curvature="0"
             style="color:#000000;fill:#dcae64;fill-opacity:1;fill-rule:nonzero;stroke:none;stroke-width:2;marker:none;visibility:visible;display:inline;overflow:visible;enable-background:accumulate"
             d="m 1132.125,-986.5 c -44.5285,-0.19817 -89.3533,7.18614 -94.8438,23.9375 11.8479,8.94372 48.5176,15.46875 91.9376,15.46875 49.4033,0 90.0742,-8.43285 95.375,-19.28125 -6.5022,-12.66932 -49.3518,-19.93311 -92.4688,-20.125 z"
             transform="matrix(0.27666235,0,0,0.23826909,-318.97371,183.1014)"
             id="path11989" />
        </g>
        <path
           inkscape:connector-curvature="0"
           id="path11991"
           d="m 320.22005,-237.37711 c 0,1.96103 -9.56737,3.55076 -21.36931,3.55076 -11.80194,0 -21.36931,-1.58973 -21.36931,-3.55076 0,-1.96103 9.56737,-3.55076 21.36931,-3.55076 11.80194,0 21.36931,1.58973 21.36931,3.55076 z"
           style="color:#000000;fill:#38290e;fill-opacity:1;fill-rule:nonzero;stroke:none;stroke-width:10;marker:none;visibility:visible;display:inline;overflow:visible;enable-background:accumulate" />
        <path
           inkscape:connector-curvature="0"
           id="path11993"
           transform="matrix(0.26458334,0,0,0.26458334,-6.3049604e-6,18.562493)"
           d="m 1233.5312,-707.78125 c -1.4109,-0.005 -3.4062,0.60842 -3.5312,1.3125 -3.3607,17.64348 -15.8228,30.99786 -21.1562,35.53125 -0.9985,0.85076 -1.1323,2.53302 -0.2813,3.53125 0.8509,0.99824 2.2519,0.41364 3.25,-0.4375 6.3987,-5.43893 19.4151,-19.84336 23.0937,-39.15625 0.1121,-0.54884 -0.5284,-0.7785 -1.375,-0.78125 z m -209.5624,1.3125 c -0.8463,0.0215 -1.4681,0.26628 -1.3438,0.8125 4.1061,19.22657 17.451,33.32935 23.9688,38.625 1.0167,0.82881 2.4214,1.39188 3.25,0.375 0.8286,-1.01684 0.6732,-2.70282 -0.3438,-3.53125 -5.4327,-4.41396 -18.2175,-17.49794 -21.9688,-35.0625 -0.1405,-0.70115 -2.152,-1.25462 -3.5624,-1.21875 z m 190.0624,4.75 c -0.8924,0.0615 -1.621,0.32025 -1.6562,0.75 -0.2014,1.91448 -2.3318,8.92098 -6.0312,16 -3.6998,7.07902 -8.9877,14.56226 -15.1876,18.875 -1.1888,0.69225 -1.566,2.46394 -0.7812,3.59375 0.7849,1.1298 2.5614,1.37244 3.625,0.5 7.2924,-5.07296 12.8549,-13.14338 16.7812,-20.65625 3.9265,-7.51287 6.1774,-14.15422 6.5626,-17.8125 0.1105,-0.92911 -1.8252,-1.35242 -3.3126,-1.25 z m -170.4062,0.875 c -1.4893,-0.0694 -3.4124,0.38607 -3.2812,1.3125 0.4661,3.64883 2.8454,10.23231 6.9374,17.65625 4.0921,7.4239 9.8469,15.37127 17.25,20.28125 1.0827,0.84866 2.8654,0.58447 3.625,-0.5625 0.7596,-1.1469 2.3914,-0.27177 1.1876,-0.9375 -6.2939,-4.17415 -13.8005,-14.19227 -17.6563,-21.1875 -3.8555,-6.99519 -6.1625,-13.93422 -6.4063,-15.84375 -0.045,-0.42885 -0.7626,-0.67711 -1.6562,-0.71875 z m 147.4688,5.03125 c -1.2572,0.0137 -2.5116,0.35343 -2.5,0.96875 0,1.80684 -0.9419,7.7003 -3.3438,14.09375 -2.4019,6.39345 -6.216,13.48955 -11.6875,18.6875 -1.016,0.88227 -1.1134,2.61732 -0.1875,3.59375 0.926,0.97643 2.6901,0.999 3.625,0.0312 6.2607,-5.94762 10.3533,-13.65266 12.9375,-20.53125 2.5842,-6.87855 3.6563,-12.69562 3.6563,-15.875 0.017,-0.67007 -1.2429,-0.98244 -2.5,-0.96875 z m -124.4063,0.375 c -1.2572,0.0142 -2.5319,0.33048 -2.5,1 0.071,3.17858 1.2951,8.99295 4.0313,15.8125 2.7361,6.81959 6.9838,14.41147 13.375,20.21875 0.9561,0.94843 2.7208,0.90299 3.625,-0.0937 0.9038,-0.99674 0.7853,-2.73425 -0.25,-3.59375 -5.5855,-5.07534 -9.5819,-12.09893 -12.125,-18.4375 -2.5432,-6.33861 -3.6162,-12.19361 -3.6563,-14 0,-0.61551 -1.2428,-0.92043 -2.5,-0.90625 z m 24.5625,3 c -1.4966,-0.0779 -2.8865,0.14936 -2.625,1.625 0,0 1.0428,6.37569 3,13.9375 1.9572,7.56185 4.6492,14.94819 8.8125,20.25 0.801,1.05018 2.461,0.97206 3.5,0.15625 1.0389,-0.81577 1.2679,-0.91026 0.4375,-1.9375 -3.0823,-3.92549 -6.0129,-12.37253 -7.9062,-19.6875 -1.8934,-7.31494 -2.875,-13.5 -2.875,-13.5 -0.1667,-1.13813 -1.1947,-0.79159 -2.3438,-0.84375 z m 74.5312,0.1875 c -0.7786,-0.0126 -1.394,0.0189 -1.5,0.875 0,0 -0.8631,6.20735 -2.5937,13.5625 -1.7306,7.35515 -4.4742,15.88212 -7.4687,19.875 -0.8075,1.04542 -0.588,1.1137 0.4687,1.90625 1.0568,0.79255 2.7537,0.84908 3.5313,-0.21875 4.0446,-5.39286 6.5547,-12.83411 8.3437,-20.4375 1.789,-7.60335 2.6875,-14 2.6875,-14 0.2287,-1.48108 -1.1617,-1.67354 -2.6562,-1.5625 -0.287,0.0194 -0.553,0.004 -0.8126,0 z m -44.4687,0.0625 c -0.3242,0.0177 -1.1596,1.82086 -2.1563,1.78125 -1.4153,-0.06 -2.8099,-2.5051 -2.6874,-1.09375 0,0 1.7073,22.91008 1.9374,33.28125 0.011,1.32091 1.2107,2.49899 2.5313,2.46875 1.3206,-0.0293 2.5167,-1.27371 2.4687,-2.59375 -0.2383,-10.74149 -1.9374,-33.53125 -1.9374,-33.53125 -0.013,-0.2298 -0.082,-0.31659 -0.1563,-0.3125 z m 19.0313,0.71875 c -0.075,-0.002 -0.1168,0.0824 -0.125,0.3125 0,0 -1.1876,22.81836 -1.1876,33.5625 -0.019,1.32078 1.1791,2.53125 2.5,2.53125 1.321,0 2.5188,-1.21047 2.5,-2.53125 0,-10.37374 1.1876,-33.3125 1.1876,-33.3125 0.091,-1.41374 -1.2426,1.06488 -2.6563,1.15625 -0.9956,0.0618 -1.8942,-1.7082 -2.2187,-1.71875 z"
           style="font-size:medium;font-style:normal;font-variant:normal;font-weight:normal;font-stretch:normal;text-indent:0;text-align:start;text-decoration:none;line-height:normal;letter-spacing:normal;word-spacing:normal;text-transform:none;direction:ltr;block-progression:tb;writing-mode:lr-tb;text-anchor:start;baseline-shift:baseline;color:#000000;fill:#64491b;fill-opacity:1;stroke:none;stroke-width:5;marker:none;visibility:visible;display:inline;overflow:visible;enable-background:accumulate;font-family:Sans;-inkscape-font-specification:Sans" />
      </g>
    </g>
  </g>
</svg>
