<?xml version="1.0" encoding="UTF-8" standalone="no"?>
<!-- Created with Inkscape (http://www.inkscape.org/) -->

<svg
   xmlns:dc="http://purl.org/dc/elements/1.1/"
   xmlns:cc="http://creativecommons.org/ns#"
   xmlns:rdf="http://www.w3.org/1999/02/22-rdf-syntax-ns#"
   xmlns:svg="http://www.w3.org/2000/svg"
   xmlns="http://www.w3.org/2000/svg"
   xmlns:sodipodi="http://sodipodi.sourceforge.net/DTD/sodipodi-0.dtd"
   xmlns:inkscape="http://www.inkscape.org/namespaces/inkscape"
   width="294.17322"
   height="296.79114"
   viewBox="0 0 77.833329 78.525992"
   version="1.1"
   id="svg23489"
   inkscape:version="0.48.5 r10040"
   sodipodi:docname="egyptian_pot_02_top_view.svg"
   tags="pot, ancient pot, ancient urn, egypt pot, egyptian pottery, pottery, ceramics, ceraminv, urn,vase">
  <defs
     id="defs23483" />
  <sodipodi:namedview
     id="base"
     pagecolor="#7d848b"
     bordercolor="#666666"
     borderopacity="1.0"
     inkscape:pageopacity="0"
     inkscape:pageshadow="2"
     inkscape:zoom="0.30135381"
     inkscape:cx="504.71291"
     inkscape:cy="84.905638"
     inkscape:document-units="px"
     inkscape:current-layer="layer1"
     showgrid="false"
     inkscape:pagecheckerboard="false"
     showborder="true"
     units="px"
     inkscape:window-width="1920"
     inkscape:window-height="1017"
     inkscape:window-x="-8"
     inkscape:window-y="-8"
     inkscape:window-maximized="1"
     inkscape:showpageshadow="false"
     guidetolerance="28"
     fit-margin-top="20"
     fit-margin-left="20"
     fit-margin-right="20"
     fit-margin-bottom="20">
    <inkscape:grid
       type="xygrid"
       id="grid24034"
       spacingx="1px"
       spacingy="1px"
       empspacing="8"
       visible="true"
       enabled="true"
       snapvisiblegridlinesonly="true"
       originx="110.96291px"
       originy="-168.9824px" />
  </sodipodi:namedview>
  <metadata
     id="metadata23486">
    <rdf:RDF>
      <cc:Work
         rdf:about="">
        <dc:format>image/svg+xml</dc:format>
        <dc:type
           rdf:resource="http://purl.org/dc/dcmitype/StillImage" />
        <dc:title></dc:title>
        <cc:license
           rdf:resource="" />
        <dc:creator>
          <cc:Agent>
            <dc:title>Robert Brooks</dc:title>
          </cc:Agent>
        </dc:creator>
      </cc:Work>
    </rdf:RDF>
  </metadata>
  <g
     inkscape:label="Layer 1"
     inkscape:groupmode="layer"
     id="layer1"
     transform="translate(29.358947,-173.76407)">
    <g
       id="g13714"
       transform="translate(865.02294,-224.52452)">
      <g
         id="g13716"
         transform="translate(-116.99226,118.16891)">
        <g
           id="g13718"
           transform="translate(-71.39514,44.821223)">
          <g
             transform="translate(-22.956652,489.39669)"
             id="g13720">
            <g
               id="g13722">
              <g
                 transform="matrix(0.6637215,0,0,-0.77066961,-640.10908,-209.42685)"
                 id="g13724">
                <path
                   style="color:#000000;fill:#b7855a;fill-opacity:1;fill-rule:nonzero;stroke:#3f2d10;stroke-width:5.2839036;stroke-linejoin:round;stroke-miterlimit:4;stroke-opacity:1;stroke-dasharray:none;marker:none;visibility:visible;display:inline;overflow:visible;enable-background:accumulate"
                   d="m -6.0544848,-34.421253 c -11.9943862,0 -20.2983402,2.725491 -21.7180232,5.820256 -0.513753,1.119929 -0.627921,4.646869 0,6.280553 1.221563,3.178182 9.723637,4.454547 21.7180232,4.454547 11.994386,0 20.4252398,-1.304664 21.7180238,-4.454547 0.342502,-0.834512 0.862091,-4.641034 0,-6.223469 -1.628888,-2.989948 -9.7236378,-5.87734 -21.7180238,-5.87734 z"
                   id="path13726"
                   inkscape:connector-curvature="0"
                   sodipodi:nodetypes="sssssss" />
                <path
                   sodipodi:nodetypes="sssssss"
                   inkscape:connector-curvature="0"
                   id="path13728"
                   d="m -6.0544848,-34.421253 c -11.9943862,0 -20.2983402,2.725491 -21.7180232,5.820256 -0.513753,1.119929 -0.627921,4.646869 0,6.280553 1.221563,3.178182 9.723637,5.710389 21.7180232,5.710389 11.994386,0 20.4252398,-2.560506 21.7180238,-5.710389 0.342502,-0.834512 0.862091,-4.641034 0,-6.223469 -1.628888,-2.989948 -9.7236378,-5.87734 -21.7180238,-5.87734 z"
                   style="color:#000000;fill:#cf963b;fill-opacity:1;fill-rule:nonzero;stroke:none;stroke-width:2;marker:none;visibility:visible;display:inline;overflow:visible;enable-background:accumulate" />
              </g>
              <g
                 transform="translate(-637.68367,-213.13558)"
                 id="g13730">
                <path
                   sodipodi:nodetypes="sssssss"
                   inkscape:connector-curvature="0"
                   id="path13732"
                   d="m 25.072575,-0.0829054 c 0,9.8351258 -4.90659,17.2907254 -12.337471,21.8151504 -5.369834,3.26952 -11.1266241,2.83547 -18.2338558,2.83547 -5.2787212,0 -11.2574362,1.213677 -15.7053262,-0.619468 -9.827867,-4.050441 -16.728483,-12.367516 -16.728483,-24.0311524 0,-16.9423576 14.56021,-25.7706196 31.5025682,-25.7706196 16.9423578,0 31.5025678,8.828262 31.5025678,25.7706196 z"
                   style="color:#000000;fill:#b7855a;fill-opacity:1;fill-rule:nonzero;stroke:#3f2d10;stroke-width:4.23333359;stroke-miterlimit:4;stroke-opacity:1;stroke-dasharray:none;marker:none;visibility:visible;display:inline;overflow:visible;enable-background:accumulate" />
                <path
                   style="color:#000000;fill:#e5c796;fill-opacity:1;fill-rule:nonzero;stroke:none;stroke-width:2;marker:none;visibility:visible;display:inline;overflow:visible;enable-background:accumulate"
                   d="m 25.072575,-0.0829054 c 0,16.9423574 -14.56021,26.8235164 -31.5025678,26.8235164 -16.9423582,0 -31.5025682,-9.881159 -31.5025682,-26.8235164 0,-16.9423576 14.56021,-25.7706196 31.5025682,-25.7706196 16.9423578,0 31.5025678,8.828262 31.5025678,25.7706196 z"
                   id="path13734"
                   inkscape:connector-curvature="0"
                   sodipodi:nodetypes="sssss" />
                <path
                   inkscape:connector-curvature="0"
                   id="path13736"
                   transform="matrix(0.26458334,0,0,0.26458334,637.68366,231.69807)"
                   d="m -2471.8125,-969.34375 c -22.089,5.05354 -41.5763,14.76729 -55.9687,29.03125 -27.0608,35.13262 -11.9158,80.6889 34.0312,69.6875 58.9009,-14.10302 66.3765,-74.65821 39,-91.25 -6.5265,-3.95547 -12.1996,-6.2517 -17.0625,-7.46875 z"
                   style="color:#000000;fill:#f5ddb8;fill-opacity:1;fill-rule:nonzero;stroke:none;stroke-width:2;marker:none;visibility:visible;display:inline;overflow:visible;enable-background:accumulate" />
                <path
                   sodipodi:nodetypes="cssscsc"
                   inkscape:connector-curvature="0"
                   id="path13738"
                   transform="matrix(0.26458334,0,0,0.26458334,-6.3049604e-6,17.465015)"
                   d="m -138.71875,-96.59375 c -3.01763,9.180262 -4.65625,19.275388 -4.65625,30.28125 0,64.0341054 55.028392,101.375 119.0625,101.375 64.034107,0 119.0625,-37.3408946 119.0625,-101.375 0,-10.092208 -1.35253,-19.441911 -3.90625,-28 C 90.93904,-71.537562 74.994135,7.9417196 -19.90625,6.8402023 -133.0452,5.5269882 -140.25219,-66.100201 -138.71875,-96.59375 z"
                   style="color:#000000;fill:#d7a95e;fill-opacity:1;fill-rule:nonzero;stroke:none;stroke-width:2;marker:none;visibility:visible;display:inline;overflow:visible;enable-background:accumulate" />
                <path
                   inkscape:connector-curvature="0"
                   style="color:#000000;fill:#05a6d5;fill-opacity:1;fill-rule:nonzero;stroke:none;stroke-width:2;marker:none;visibility:visible;display:inline;overflow:visible;enable-background:accumulate"
                   d="m 17.219191,-18.068603 c -0.02786,0.0678 -0.09022,0.155805 -0.256302,0.297656 -0.2658,0.22696 -0.757264,0.503169 -1.405625,0.752409 -1.296564,0.49848 -3.257391,0.943256 -5.6223961,1.281576 -4.729824,0.67665 -11.1047744,0.981953 -17.4707554,0.967383 -6.3659815,-0.0146 -12.7274115,-0.338188 -17.4707555,-0.942579 -2.371778,-0.302191 -4.338743,-0.681826 -5.655469,-1.091406 -0.201559,-0.06268 -0.38264,-0.127148 -0.553984,-0.190169 -0.395817,0.396721 -0.775494,0.809069 -1.141016,1.231966 0.364093,0.166738 0.770811,0.319603 1.231979,0.463021 1.480106,0.460391 3.513641,0.840563 5.936563,1.149284 4.845949,0.61745 11.233044,0.960961 17.6526825,0.975651 6.4196385,0.01471 12.8593589,-0.305276 17.7188285,-1.000456 2.429669,-0.347591 4.436296,-0.770922 5.936563,-1.347721 0.750226,-0.288401 1.393454,-0.62062 1.876901,-1.033529 0.142584,-0.12179 0.273526,-0.260128 0.38862,-0.405143 -0.376767,-0.37896 -0.762873,-0.752856 -1.165834,-1.107943 z"
                   id="path13740" />
                <path
                   inkscape:connector-curvature="0"
                   style="color:#000000;fill:#05a6d5;fill-opacity:1;fill-rule:nonzero;stroke:none;stroke-width:2;marker:none;visibility:visible;display:inline;overflow:visible;enable-background:accumulate"
                   d="m -2323.4688,-915.125 c -1.0279,0.94473 -2.9438,2.06375 -5.5624,3.1875 -5.6285,2.41512 -14.4049,4.63919 -25.25,6.5 -1.6194,0.27781 -3.2939,0.55097 -5,0.8125 -0.084,-0.0181 -0.1643,-0.0556 -0.25,-0.0625 -0.105,-0.008 -0.2079,-0.0113 -0.3126,0 -0.263,0.0184 -0.4976,0.12578 -0.7187,0.25 -20.9772,3.12806 -47.9792,5.04144 -74.875,5.5 -29.6565,0.50563 -59.2921,-0.74076 -80.7813,-4 -10.7444,-1.62962 -19.3769,-3.79496 -24.8124,-6.28125 -2.6226,-1.19947 -4.5089,-2.4744 -5.4376,-3.53125 -0.8288,1.97325 -1.5912,3.99529 -2.2812,6.0625 1.4521,1.0837 3.1637,2.00911 5.125,2.90625 0.078,0.0356 0.1714,0.0584 0.25,0.0937 -0.2263,0.48496 -0.4742,1.00014 -0.7188,1.5625 -1.033,2.378 -2.171,5.37637 -3.0624,8.84375 -1.4459,5.62235 -2.4192,12.50925 -2.1563,19.71875 -1.6166,-0.84124 -3.0171,-1.72412 -4.1875,-2.59375 l 0,0.125 c 0,2.40957 0.065,4.79157 0.2188,7.125 0.565,0.31409 1.15,0.60545 1.75,0.90625 7.3029,3.66259 17.2484,6.39378 29.1562,8.5 23.8156,4.21247 55.3446,5.83124 86.8125,4.96875 31.4679,-0.86249 62.9265,-4.18408 86.7187,-9.5625 11.5231,-2.6048 21.1199,-5.62956 28.3126,-9.34375 0.2993,-0.0596 0.5456,-0.13762 0.6874,-0.3125 0.01,-0.0108 0.023,-0.0199 0.031,-0.0312 1.6029,-0.85689 3.0829,-1.75147 4.4375,-2.6875 -0.01,-2.57651 -0.1267,-5.08593 -0.3125,-7.5625 -1.1248,1.19584 -2.7411,2.42175 -4.75,3.65625 -0.285,-2.02443 -0.6383,-4.29856 -1.1563,-6.90625 -1.1993,-6.04025 -3.0814,-13.07528 -6.0624,-18.6875 0.333,-0.13439 0.6799,-0.26896 1,-0.40625 2.1413,-0.9189 4.0063,-1.8791 5.5624,-3 -0.7254,-1.95528 -1.5219,-3.88236 -2.375,-5.75 z m -7.9687,10.53125 c 2.7431,5.00454 4.7071,11.93094 5.9063,17.96875 0.6393,3.22046 1.0604,6.08437 1.3437,8.3125 -2.9851,1.46965 -6.5063,2.88351 -10.5313,4.21875 -0.773,-6.27287 -2.5367,-17.39606 -6.2812,-27.875 3.5203,-0.81218 6.7095,-1.68343 9.5625,-2.625 z m -208.1875,2.40625 c 2.9336,1.05672 6.2513,2.01919 9.9375,2.875 -2.9226,6.39818 -4.1764,14.8226 -4.7187,21.875 -0.2743,3.5601 -0.3545,6.70499 -0.375,9.09375 -3.9373,-1.04007 -7.4708,-2.14344 -10.5,-3.375 -0.5304,-7.43678 0.4953,-14.65113 2,-20.5 0.8413,-3.27224 1.9078,-6.09582 2.8437,-8.25 0.2774,-0.63854 0.5457,-1.20524 0.8125,-1.71875 z m 194.6562,1.09375 c 3.822,10.54364 5.6129,22.18263 6.3438,28.21875 -3.5578,1.05937 -7.3978,2.06558 -11.5312,3 -0.1333,0.0301 -0.2728,0.0639 -0.4063,0.0937 -0.3004,-6.49619 -1.414,-18.56842 -5.4375,-29.3125 0.8901,-0.14418 1.7892,-0.28873 2.6562,-0.4375 2.938,-0.50403 5.725,-1.01481 8.375,-1.5625 z m -180.7187,2.625 c 2.7253,0.54765 5.595,1.07168 8.625,1.53125 0.2547,0.0386 0.5241,0.0557 0.7813,0.0937 -2.9952,11.92538 -3.5054,24.83007 -3.5313,31.6875 -0.4962,-0.0843 -1.0109,-0.16349 -1.5,-0.25 -3.3458,-0.59179 -6.4923,-1.24638 -9.4687,-1.9375 0,-2.39952 0.066,-5.85785 0.375,-9.875 0.5537,-7.19988 1.9447,-15.73382 4.7187,-21.25 z m 165.6563,0 c 4.1036,10.55242 5.2609,23.26875 5.5624,29.53125 -3.6994,0.76541 -7.5981,1.45685 -11.625,2.125 -0.302,-6.21285 -1.4133,-18.25691 -5.5312,-30.125 4.0177,-0.47489 7.8885,-0.97997 11.5938,-1.53125 z m -15.6563,2 c 4.2248,11.80843 5.35,24.27037 5.6563,30.28125 -3.3335,0.51477 -6.7502,1.01961 -10.25,1.46875 -0.1807,-2.31557 -0.5016,-6.04545 -1.125,-11.34375 -0.7534,-6.39883 -1.8453,-13.75399 -3.375,-19.5 3.0741,-0.28142 6.1441,-0.58404 9.0937,-0.90625 z m -136.5937,0.1875 c 3.5236,0.46425 7.2317,0.88272 11.0624,1.25 -3.1693,11.80301 -2.8269,25.08071 -2.3437,32.09375 -4.2533,-0.46737 -8.3451,-0.96713 -12.25,-1.5625 0.016,-6.60446 0.4933,-19.96026 3.5313,-31.78125 z m 123.5,1.0625 c 1.4854,5.4043 2.6361,13.08043 3.4062,19.625 0.6369,5.40849 0.9284,9.18584 1.0938,11.375 -3.6481,0.43493 -7.3788,0.85482 -11.1563,1.21875 -0.1461,-4.55255 -0.8148,-19.05436 -3.625,-31.4375 3.4809,-0.2357 6.9078,-0.49643 10.2813,-0.78125 z m -108.375,0.5625 c 3.7363,0.31803 7.5815,0.57851 11.5312,0.8125 -2.9103,12.9018 -2.6256,25.79562 -2.1875,32.3125 -4.014,-0.27687 -7.9397,-0.59388 -11.75,-0.96875 -0.4491,-6.73742 -0.8338,-20.6579 2.4063,-32.15625 z m 94.0937,0.5 c 2.8302,12.15434 3.4666,27.33019 3.5937,31.5 -3.4431,0.30545 -6.9247,0.59761 -10.4374,0.84375 -0.243,-5.66579 -0.9991,-19.1814 -3.0938,-31.8125 3.3495,-0.15834 6.6494,-0.32863 9.9375,-0.53125 z m -78.5,0.5625 c 2.9363,0.1508 5.9482,0.26745 8.9687,0.375 -0.8587,6.06912 -1.0624,13.79616 -1.0624,20.46875 -6e-4,5.74838 0.1287,9.74503 0.2187,12 -3.4964,-0.13573 -6.9499,-0.32762 -10.3437,-0.53125 -0.4111,-6.24511 -0.7657,-19.50609 2.2187,-32.3125 z m 64.5313,0.125 c 2.1232,12.57945 2.9037,26.32559 3.1562,31.90625 -3.563,0.22548 -7.1509,0.43006 -10.75,0.59375 -0.1218,-3.40094 -0.7226,-19.64629 -1.6875,-32.15625 3.1052,-0.0904 6.2013,-0.21528 9.2813,-0.34375 z m -51.5626,0.40625 c 3.3774,0.0982 6.8034,0.17157 10.25,0.21875 -1.2997,13.53886 -0.093,28.89641 0.2188,32.46875 -3.7926,-0.0405 -7.5619,-0.10305 -11.2812,-0.21875 -0.086,-2.03664 -0.2507,-6.17643 -0.25,-12.15625 0,-6.73357 0.2343,-14.62974 1.0624,-20.3125 z m 38.25,0.0312 c 0.9627,12.35663 1.5931,28.79216 1.7188,32.21875 -2.3831,0.0929 -4.7708,0.18462 -7.1562,0.25 -1.2817,0.0351 -2.5629,0.067 -3.8438,0.0937 -0.2984,-3.85219 -1.2962,-18.24868 -0.75,-32.375 1.6889,-0.0178 3.3716,-0.0337 5.0625,-0.0625 1.6596,-0.0283 3.3106,-0.0857 4.9687,-0.125 z m -24.0312,0.21875 c 3.3182,0.0269 6.6488,0.018 10,0 -0.5306,14.04463 0.4149,28.09869 0.75,32.40625 -3.5077,0.0498 -6.9886,0.0752 -10.4688,0.0625 -0.2437,-2.74832 -1.6043,-19.02657 -0.2812,-32.46875 z"
                   transform="matrix(0.26458334,0,0,0.26458334,637.68366,231.69807)"
                   id="path13742" />
                <path
                   inkscape:connector-curvature="0"
                   style="color:#000000;fill:#05a6d5;fill-opacity:1;fill-rule:nonzero;stroke:none;stroke-width:2;marker:none;visibility:visible;display:inline;overflow:visible;enable-background:accumulate"
                   d="m -36.722737,3.784314 c -0.167693,0.068482 -0.297207,1.6725927 0.214974,3.7703126 -0.166132,-0.1420521 -0.324803,-0.2842286 -0.463021,-0.4299479 0.262043,0.9339951 0.57322,1.8388648 0.934297,2.7119793 0.01058,0.00627 0.02249,0.010292 0.03307,0.016536 2.027951,1.190821 4.766495,2.080581 7.970573,2.753321 6.408288,1.34548 14.727952,1.811554 22.9360944,1.562695 C 3.1112871,13.920351 11.189731,12.980096 17.119969,11.482036 19.659599,10.840492 21.793517,10.10585 23.412105,9.241345 23.714074,8.4520823 23.974848,7.6394966 24.197574,6.8022174 23.996729,6.985735 23.749449,7.171372 23.46997,7.3561887 23.691638,6.6803397 23.88354,5.9898619 24.048746,5.2808632 23.09352,6.6034068 22.233122,7.7183081 21.849397,8.2160846 21.735441,8.2672316 21.62159,8.3225609 21.502131,8.373181 21.455431,7.6106385 21.181086,3.2426904 21.080438,4.048897 c -0.09295,0.7450561 -3.110997,4.5840201 -4.076224,5.7960288 -0.09747,0.025241 -0.190579,0.049456 -0.289401,0.074414 -0.08035,0.020294 -0.166793,0.037769 -0.24802,0.057878 L 15.375389,6.1076865 11.274348,11.035551 c -0.217594,0.03647 -0.432409,0.07215 -0.653204,0.107487 C 10.26401,9.8858228 8.8930975,5.1420023 8.8930975,6.198637 c 0,0.4505193 -2.7480949,4.188553 -3.7868755,5.680274 -0.336894,0.03617 -0.237199,0.07375 -0.5779823,0.107487 L 1.3193994,6.7360719 -2.3036461,12.408077 c -0.3085042,0.01765 0.26162,0.03396 -0.048048,0.04961 l -2.761615,-4.5061853 0,-0.5705079 -3.1915101,5.2503252 c -0.1432719,0.0011 -0.2868084,-7.93e-4 -0.4299479,0 l -3.1750009,-4.919596 -2.662396,4.820378 c -0.249026,-0.0099 -0.496596,-0.01334 -0.744114,-0.02479 -0.992161,-1.300377 -3.95224,-5.2111803 -3.95224,-5.6720051 0,-0.5146331 -1.582526,4.5929791 -1.785938,5.2503261 -0.09909,-0.01029 -0.199019,-0.02249 -0.297656,-0.03307 l -4.390417,-5.2172531 -1.207161,4.2746751 c 0,0 -4.718897,-4.6038538 -4.828646,-5.4818366 -0.09684,-0.7746682 -0.351896,3.2146082 -0.413412,4.2085288 -0.159861,-0.057319 -0.317103,-0.1147048 -0.471302,-0.1736328 -0.985044,-1.2601761 -3.761925,-4.8612771 -3.943932,-5.6802736 -0.03429,-0.1543341 -0.07773,-0.2139659 -0.115755,-0.1984375 z"
                   id="path13744" />
                <path
                   inkscape:connector-curvature="0"
                   style="color:#000000;fill:#05a6d5;fill-opacity:1;fill-rule:nonzero;stroke:none;stroke-width:2;marker:none;visibility:visible;display:inline;overflow:visible;enable-background:accumulate"
                   d="m 18.889374,16.649679 c -1.633512,0.993389 -3.670962,1.87987 -6.019271,2.61276 -5.4116822,1.688942 -12.34326301,2.605826 -19.2484384,2.687175 -6.9051756,0.0813 -13.8142406,-0.703556 -19.1574746,-2.348177 -2.298991,-0.707594 -4.28244,-1.573644 -5.870469,-2.579688 1.313259,1.4141 2.794397,2.684767 4.415261,3.803386 0.321919,0.108865 0.652224,0.212103 0.983906,0.314193 5.575538,1.716119 12.594511,2.488924 19.6287766,2.406054 7.0342656,-0.0829 14.0999108,-1.032494 19.7197134,-2.786393 0.57031,-0.177967 1.120934,-0.367803 1.661928,-0.56224 1.419331,-1.061545 2.724732,-2.245161 3.886068,-3.54707 z"
                   id="path13746" />
                <path
                   inkscape:connector-curvature="0"
                   id="path13748"
                   transform="matrix(0.26458334,0,0,0.26458334,637.68366,231.69807)"
                   d="m -2315.7188,-884 c -1.5105,1.59581 -3.8708,3.28353 -6.9062,4.90625 -0.157,0.084 -0.3393,0.16639 -0.5,0.25 -0.6919,2.51722 -1.51,5.10064 -2.4375,7.75 2.0575,-0.85543 3.9906,-1.74694 5.75,-2.6875 1.5892,-0.84958 3.0611,-1.72891 4.4063,-2.65625 0,-1.112 -0.026,-2.21869 -0.063,-3.3125 -0.042,-1.23823 -0.1041,-2.47276 -0.1874,-3.6875 -0.013,-0.1889 -0.049,-0.37418 -0.063,-0.5625 z m -237.7812,7.84375 0,0.125 c 0,1.20479 0.027,2.40537 0.062,3.59375 0.031,0.95507 0.069,1.90107 0.125,2.84375 0.013,0.22806 0.016,0.46034 0.031,0.6875 0.565,0.31409 1.1501,0.60545 1.75,0.90625 2.4359,1.22168 5.1887,2.31795 8.1874,3.34375 -0.8455,-2.40418 -1.5624,-4.81474 -2.1874,-7.1875 -1.1605,-0.47814 -2.2721,-0.9626 -3.2813,-1.46875 -1.8376,-0.9216 -3.3952,-1.88357 -4.6875,-2.84375 z m 234.7812,26.1875 c -0.8775,0.79804 -1.9462,1.60497 -3.2187,2.40625 -4.7138,2.96835 -11.9951,5.7874 -21,8.28125 -2.2556,2.80144 -4.7301,5.49868 -7.4063,8.125 1.674,-0.38127 3.3118,-0.75346 4.9063,-1.15625 9.5986,-2.42473 17.6639,-5.20133 23.7813,-8.46875 0.2652,-0.69333 0.5014,-1.39083 0.75,-2.09375 0.019,-0.0526 0.044,-0.10358 0.062,-0.15625 0.2768,-0.78736 0.5562,-1.57545 0.8126,-2.375 0.2382,-0.74019 0.4667,-1.49933 0.6874,-2.25 0.034,-0.11412 0.061,-0.22939 0.094,-0.34375 0.1882,-0.64894 0.3563,-1.31205 0.5312,-1.96875 z m -231.1562,1.1875 c 0.021,0.0733 0.042,0.14554 0.062,0.21875 0.053,0.18642 0.1024,0.37671 0.1563,0.5625 0.1791,0.61825 0.3718,1.23242 0.5624,1.84375 0.2709,0.8686 0.5496,1.73938 0.8438,2.59375 0.2682,0.77889 0.5248,1.54568 0.8125,2.3125 0.048,0.12689 0.1081,0.24845 0.1563,0.375 0.2206,0.57893 0.4559,1.14673 0.6874,1.71875 0.084,0.20718 0.1648,0.41875 0.25,0.625 0.04,0.0237 0.085,0.0389 0.125,0.0625 7.1951,4.22506 16.775,7.42391 27.9376,9.90625 -3.2434,-2.67132 -6.1372,-5.47119 -8.75,-8.375 -6.3995,-1.95481 -11.8677,-4.21865 -16.125,-6.71875 -2.7999,-1.64412 -5.0326,-3.34726 -6.7188,-5.125 z m 211.0625,36.03125 c -6.164,3.74005 -13.8402,7.08257 -22.6875,9.84375 -20.4536,6.3834 -46.6517,9.84879 -72.75,10.15625 -26.0983,0.30728 -52.2113,-2.65911 -72.4062,-8.875 -8.689,-2.67437 -16.1857,-5.94763 -22.1876,-9.75 1.2409,1.33616 2.5253,2.63836 3.8438,3.90625 0.6593,0.63394 1.3219,1.25832 2,1.875 1.3561,1.23337 2.7587,2.43018 4.1875,3.59375 0.7144,0.58178 1.4243,1.15461 2.1563,1.71875 0.2416,0.18617 0.4752,0.37826 0.7187,0.5625 0.4945,0.37431 0.9978,0.72743 1.5,1.09375 0.2092,0.15256 0.4145,0.31757 0.625,0.46875 0.5436,0.39043 1.104,0.77514 1.6563,1.15625 1.2167,0.41146 2.4651,0.80165 3.7187,1.1875 21.0729,6.48612 47.6013,9.40696 74.1875,9.09375 26.5862,-0.31332 53.291,-3.90234 74.5312,-10.53125 2.1554,-0.67263 4.2366,-1.39012 6.2813,-2.125 0.1547,-0.11571 0.3148,-0.22727 0.4687,-0.34375 0.5171,-0.39118 1.0228,-0.78765 1.5313,-1.1875 0.1764,-0.13857 0.3558,-0.26664 0.5313,-0.40625 0.4767,-0.37989 0.9372,-0.76869 1.4062,-1.15625 0.1992,-0.16431 0.396,-0.33431 0.5938,-0.5 0.4428,-0.37163 0.8768,-0.74647 1.3124,-1.125 0.2171,-0.18811 0.4411,-0.3727 0.6563,-0.5625 0.4065,-0.35937 0.8187,-0.7283 1.2187,-1.09375 0.241,-0.21958 0.4802,-0.43448 0.7188,-0.65625 0.3671,-0.34201 0.7323,-0.68405 1.0938,-1.03125 0.2614,-0.25065 0.5227,-0.49665 0.7812,-0.75 0.331,-0.32511 0.6427,-0.67045 0.9688,-1 0.3758,-0.37924 0.7559,-0.77114 1.125,-1.15625 0.4971,-0.51964 0.9838,-1.03225 1.4687,-1.5625 0.2551,-0.27893 0.4984,-0.56189 0.75,-0.84375 z"
                   style="opacity:0.25663715;color:#000000;fill:#000000;fill-opacity:1;fill-rule:nonzero;stroke:none;stroke-width:2;marker:none;visibility:visible;display:inline;overflow:visible;enable-background:accumulate" />
                <path
                   inkscape:connector-curvature="0"
                   style="color:#000000;fill:#047c9f;fill-opacity:1;fill-rule:nonzero;stroke:none;stroke-width:2;marker:none;visibility:visible;display:inline;overflow:visible;enable-background:accumulate"
                   d="m -2545.4062,-836.375 c 1.9991,4.49819 4.3466,8.77013 7,12.8125 15.4152,14.60891 26.7187,20.65625 26.7187,20.65625 l 1.5313,0.8125 1,-1.40625 11.4062,-15.4375 26.5625,29.6875 1.75,1.96875 1.4375,-2.21875 20.3438,-31.5 23.1874,33.625 1.8438,2.65625 1.5625,-2.8125 19.75,-35.65625 25.5313,29.375 1.7812,2.0625 1.4062,-2.34375 21.125,-34.53125 10.3126,17.09375 0.5,0.8125 c 2.9214,-3.08731 5.6214,-6.35885 8.0937,-9.8125 l -6.3437,5 -10.8438,-17.96875 -1.7188,-2.8125 -1.7187,2.8125 -21.4063,35 -25.5624,-29.46875 -1.875,-2.15625 -1.375,2.5 -19.5938,35.34375 -23.0625,-33.4375 -1.6875,-2.46875 -1.625,2.53125 -20.5625,31.78125 -26.4687,-29.5625 -1.625,-1.8125 -1.4688,1.96875 -11.8125,15.96875 c -3.2357,-1.86144 -16.8469,-10.26069 -34.0937,-29.0625 z"
                   transform="matrix(0.26458334,0,0,0.26458334,637.68366,231.69807)"
                   id="path13750" />
                <path
                   inkscape:connector-curvature="0"
                   style="color:#000000;fill:#05a6d5;fill-opacity:1;fill-rule:nonzero;stroke:none;stroke-width:2;marker:none;visibility:visible;display:inline;overflow:visible;enable-background:accumulate"
                   d="m -2336.0312,-934.8125 c -0.8487,0.73436 -2.0523,1.55489 -3.625,2.34375 -5.257,2.63679 -14.1275,5.09888 -24.6876,7.0625 -21.1198,3.92723 -49.0102,6.19973 -70.1562,6.625 -41.4558,0.83369 -68.9494,-2.30639 -85.25,-6.125 -8.1503,-1.9093 -13.5794,-3.98407 -16.3125,-5.6875 -0.036,-0.0227 -0.059,-0.0399 -0.094,-0.0625 -0.7922,1.05515 -1.5688,2.09404 -2.3126,3.1875 0.097,0.0623 0.1811,0.12502 0.2813,0.1875 3.414,2.1278 9.0718,4.28291 17.4687,6.25 16.7941,3.93419 44.53,6.99462 86.2188,6.15625 21.3562,-0.42947 49.4085,-2.63333 70.875,-6.625 10.7333,-1.99586 19.7905,-4.44827 25.75,-7.4375 1.6877,-0.84653 3.1644,-1.74149 4.375,-2.75 -0.8241,-1.0643 -1.6585,-2.10071 -2.5312,-3.125 z m 3.2187,4.03125 a 2.0002001,2.0002001 0 0 0 0.5,1.25 c 1.0901,1.37537 1.0512,1.8424 0.4687,2.84375 -0.5823,1.00135 -2.273,2.46099 -4.9687,3.78125 -5.3915,2.64057 -14.4633,5.00461 -25.2813,6.96875 -21.6356,3.92829 -50.2771,6.1684 -71.9374,6.59375 -42.4611,0.83376 -70.6729,-2.17954 -87.375,-6 -8.3512,-1.91021 -13.8517,-4.10567 -16.6563,-5.8125 -1.272,-0.77412 -1.7403,-1.38141 -1.9063,-1.625 a 2.0127597,2.0127597 0 0 0 0.2188,-2.75 c -1.147,1.79047 -2.2345,3.64253 -3.25,5.53125 0.7283,0.83639 1.714,1.55571 2.9062,2.28125 3.491,2.12443 9.2481,4.28381 17.8438,6.25 17.1914,3.93237 45.5275,6.99455 88.2188,6.15625 21.868,-0.42939 50.6772,-2.63435 72.6562,-6.625 10.9895,-1.99533 20.248,-4.45205 26.3438,-7.4375 2.9866,-1.46275 5.1992,-3.04001 6.5,-5.1875 -1.3336,-2.1449 -2.77,-4.21257 -4.2813,-6.21875 z"
                   transform="matrix(0.26458334,0,0,0.26458334,637.68366,231.69807)"
                   id="path13752" />
              </g>
            </g>
            <path
               style="opacity:0.25663715;color:#000000;fill:#f5ddb8;fill-opacity:1;fill-rule:nonzero;stroke:none;stroke-width:6;marker:none;visibility:visible;display:inline;overflow:visible;enable-background:accumulate"
               d="m -2529.4188,-903.8102 c -4.9776,17.42138 -4.148,38.99071 -4.148,38.99071"
               id="path13754"
               inkscape:connector-curvature="0"
               transform="matrix(0.26458334,0,0,0.26458334,-6.3049604e-6,18.562493)" />
          </g>
        </g>
      </g>
      <g
         transform="matrix(0.86225727,0,0,1.0603228,-850.47658,442.32126)"
         id="g13756">
        <path
           sodipodi:nodetypes="ssscsccsccccscs"
           inkscape:connector-curvature="0"
           id="path13758"
           transform="matrix(0.26458334,0,0,0.26458334,-6.3049604e-6,18.562493)"
           d="m -22.875,-200.25 c -1.41666,0 -2.827535,0.0146 -4.21875,0.0312 -43.127669,0.51649 -73.78803,9.02881 -77.28125,24.90625 -0.96963,4.40717 -2.82558,13.97841 -0.78125,20.1875 0.0532,0.20643 0.11334,0.4008 0.1875,0.59375 0.14428,0.37538 0.30241,0.74176 0.5,1.09375 0.005,0.009 -0.005,0.0227 0,0.0312 6.125169,11.48208 37.677298,10.49641 81.59375,10.49641 43.916452,0 75.177144,0.89471 81.53125,-10.49641 0.210445,-0.35597 0.375319,-0.74507 0.53125,-1.125 0.03877,-0.0945 0.08775,-0.2076 0.125,-0.3125 0.0018,-0.009 -0.0017,-0.022 0,-0.0312 1.198885,-3.41696 1.580391,-12.10415 -0.125,-18.46875 -5.553513,-20.72599 -34.866906,-26.53146 -77.90625,-26.875 -1.369818,-0.021 -2.73959,-0.0312 -4.15625,-0.0312 z"
           style="color:#000000;fill:#b7855a;fill-opacity:1;fill-rule:nonzero;stroke:#3f2d10;stroke-width:16;stroke-linejoin:round;stroke-miterlimit:4;stroke-opacity:1;stroke-dasharray:none;marker:none;visibility:visible;display:inline;overflow:visible;enable-background:accumulate" />
        <path
           style="color:#000000;fill:#e5c796;fill-opacity:1;fill-rule:nonzero;stroke:none;stroke-width:2;marker:none;visibility:visible;display:inline;overflow:visible;enable-background:accumulate"
           d="m -6.0544848,-34.421253 c -11.9943862,0 -20.6087542,2.25987 -21.5628162,6.59629 -0.264754,1.203365 -0.783128,3.870835 -0.155207,5.504519 1.221563,3.178182 9.723637,5.710389 21.7180232,5.710389 11.994386,0 20.4252398,-2.560506 21.7180238,-5.710389 0.342502,-0.834512 0.466399,-3.24119 0,-4.981814 -1.516766,-5.660648 -9.7236378,-7.118995 -21.7180238,-7.118995 z"
           id="path13760"
           inkscape:connector-curvature="0"
           sodipodi:nodetypes="sssssss" />
        <path
           sodipodi:nodetypes="sssss"
           inkscape:connector-curvature="0"
           id="path13762"
           transform="matrix(0.28369789,0,0,0.26458334,0.75594964,18.562493)"
           d="m -24,-200.25 c -42.278729,0 -72.637022,8.54789 -76,24.9375 -3.53317,17.21905 29.136319,26.30804 80.349118,25.72143 46.858139,-0.53672 82.455297,-14.91515 65.048677,-35.96952 C 37.776036,-194.77958 8.6956903,-200.25 -24,-200.25 z"
           style="color:#000000;fill:#ffecce;fill-opacity:1;fill-rule:nonzero;stroke:none;stroke-width:2;marker:none;visibility:visible;display:inline;overflow:visible;enable-background:accumulate" />
        <path
           inkscape:connector-curvature="0"
           id="path13764"
           d="m 8.5595493,-27.902655 c 0,1.96103 -6.6448848,3.550759 -14.8417654,3.550759 -8.1968819,0 -14.8417669,-1.589729 -14.8417669,-3.550759 0,-1.961031 6.644885,-3.55076 14.8417669,-3.55076 8.1968806,0 14.8417654,1.589729 14.8417654,3.55076 z"
           style="color:#000000;fill:#3f2d10;fill-opacity:1;fill-rule:nonzero;stroke:none;stroke-width:10;marker:none;visibility:visible;display:inline;overflow:visible;enable-background:accumulate" />
        <path
           sodipodi:nodetypes="cscssssc"
           inkscape:connector-curvature="0"
           id="path13766"
           transform="matrix(0.28369789,0,0,0.26458334,0.75594964,18.562493)"
           d="m 50.4375,-178.9375 c 1.759825,9.38574 1.792393,33.19675 -66.28125,35.21875 -75.512015,2.24294 -83.029955,-15.06716 -84.65625,-29.15625 -0.92539,5.09814 -1.94001,13.10606 -0.0625,18.34375 4.305859,12.01203 34.283771,21.59375 76.5625,21.59375 42.278728,0 72.005596,-9.68868 76.5625,-21.59375 1.207277,-3.15406 1.643999,-12.23376 0,-18.8125 -0.498832,-1.99616 -1.223904,-3.86569 -2.125,-5.59375 z"
           style="opacity:0.38938054;color:#000000;fill:#d7a95e;fill-opacity:1;fill-rule:nonzero;stroke:none;stroke-width:2;marker:none;visibility:visible;display:inline;overflow:visible;enable-background:accumulate" />
      </g>
    </g>
  </g>
</svg>
