<?xml version="1.0" encoding="UTF-8" standalone="no"?>
<!-- Created with Inkscape (http://www.inkscape.org/) -->

<svg
   xmlns:dc="http://purl.org/dc/elements/1.1/"
   xmlns:cc="http://creativecommons.org/ns#"
   xmlns:rdf="http://www.w3.org/1999/02/22-rdf-syntax-ns#"
   xmlns:svg="http://www.w3.org/2000/svg"
   xmlns="http://www.w3.org/2000/svg"
   xmlns:sodipodi="http://sodipodi.sourceforge.net/DTD/sodipodi-0.dtd"
   xmlns:inkscape="http://www.inkscape.org/namespaces/inkscape"
   width="250.29546"
   height="369.8483"
   viewBox="0 0 66.224005 97.855702"
   version="1.1"
   id="svg23489"
   inkscape:version="0.48.5 r10040"
   sodipodi:docname="egyptian_pot_01_side_view.svg"
   tags="pot, ancient pot, ancient urn, egypt pot, egyptian pottery, pottery, ceramics, ceraminv, urn,vase">
  <defs
     id="defs23483" />
  <sodipodi:namedview
     id="base"
     pagecolor="#7d848b"
     bordercolor="#666666"
     borderopacity="1.0"
     inkscape:pageopacity="0"
     inkscape:pageshadow="2"
     inkscape:zoom="0.30135381"
     inkscape:cx="-115.97321"
     inkscape:cy="84.805978"
     inkscape:document-units="px"
     inkscape:current-layer="layer1"
     showgrid="false"
     inkscape:pagecheckerboard="false"
     showborder="true"
     units="px"
     inkscape:window-width="1920"
     inkscape:window-height="1017"
     inkscape:window-x="-8"
     inkscape:window-y="-8"
     inkscape:window-maximized="1"
     inkscape:showpageshadow="false"
     guidetolerance="28"
     fit-margin-top="20"
     fit-margin-left="20"
     fit-margin-right="20"
     fit-margin-bottom="20">
    <inkscape:grid
       type="xygrid"
       id="grid24034"
       spacingx="1px"
       spacingy="1px"
       empspacing="8"
       visible="true"
       enabled="true"
       snapvisiblegridlinesonly="true"
       originx="-509.72321px"
       originy="-169.08206px" />
  </sodipodi:namedview>
  <metadata
     id="metadata23486">
    <rdf:RDF>
      <cc:Work
         rdf:about="">
        <dc:format>image/svg+xml</dc:format>
        <dc:type
           rdf:resource="http://purl.org/dc/dcmitype/StillImage" />
        <dc:title></dc:title>
        <cc:license
           rdf:resource="" />
        <dc:creator>
          <cc:Agent>
            <dc:title>Robert Brooks</dc:title>
          </cc:Agent>
        </dc:creator>
      </cc:Work>
    </rdf:RDF>
  </metadata>
  <g
     inkscape:label="Layer 1"
     inkscape:groupmode="layer"
     id="layer1"
     transform="translate(-134.86427,-154.408)">
    <g
       id="g14356"
       transform="translate(1093.4873,-225.14534)">
      <g
         transform="translate(-185.32089,187.0985)"
         id="g13371">
        <g
           transform="translate(0,-21.728956)"
           id="g13373">
          <g
             id="g13375"
             transform="matrix(0.54383671,0,0,-0.63146732,-736.54815,283.34407)">
            <path
               sodipodi:nodetypes="sssssss"
               inkscape:connector-curvature="0"
               id="path13377"
               d="m -6.0544848,-34.421253 c -11.9943862,0 -20.2983402,2.725491 -21.7180232,5.820256 -0.513753,1.119929 -0.627921,4.646869 0,6.280553 1.221563,3.178182 9.723637,4.454547 21.7180232,4.454547 11.994386,0 20.4252398,-1.304664 21.7180238,-4.454547 0.342502,-0.834512 0.862091,-4.641034 0,-6.223469 -1.628888,-2.989948 -9.7236378,-5.87734 -21.7180238,-5.87734 z"
               style="color:#000000;fill:#efc685;fill-opacity:1;fill-rule:nonzero;stroke:#3f2d10;stroke-width:5.2839036;stroke-linejoin:round;stroke-miterlimit:4;stroke-opacity:1;stroke-dasharray:none;marker:none;visibility:visible;display:inline;overflow:visible;enable-background:accumulate" />
            <path
               style="color:#000000;fill:#cf963b;fill-opacity:1;fill-rule:nonzero;stroke:none;stroke-width:2;marker:none;visibility:visible;display:inline;overflow:visible;enable-background:accumulate"
               d="m -6.0544848,-34.421253 c -11.9943862,0 -20.2983402,2.725491 -21.7180232,5.820256 -0.513753,1.119929 -0.627921,4.646869 0,6.280553 1.221563,3.178182 9.723637,5.710389 21.7180232,5.710389 11.994386,0 20.4252398,-2.560506 21.7180238,-5.710389 0.342502,-0.834512 0.862091,-4.641034 0,-6.223469 -1.628888,-2.989948 -9.7236378,-5.87734 -21.7180238,-5.87734 z"
               id="path13379"
               inkscape:connector-curvature="0"
               sodipodi:nodetypes="sssssss" />
          </g>
          <g
             transform="matrix(0.81937489,0,0,0.81937489,-682.64186,282.60091)"
             id="g13381">
            <path
               style="color:#000000;fill:#c29752;fill-opacity:1;fill-rule:nonzero;stroke:#3f2d10;stroke-width:4.89413404;stroke-miterlimit:4;stroke-opacity:1;stroke-dasharray:none;marker:none;visibility:visible;display:inline;overflow:visible;enable-background:accumulate"
               d="m -38.73603,-15.649196 c 0,11.5464147 -6.762609,26.133883 -16.43306,34.25455 -4.519255,3.795 -9.673565,3.073555 -15.069508,3.073555 -5.109175,0 -10.001718,0.967972 -14.343659,-2.480611 -10.056217,-7.987145 -17.158913,-23.0143118 -17.158913,-34.847494 0,-16.942358 14.560215,-25.77062 31.502572,-25.77062 16.942359,0 31.502568,8.828262 31.502568,25.77062 z"
               id="path13383"
               inkscape:connector-curvature="0"
               sodipodi:nodetypes="sssssss" />
            <path
               sodipodi:nodetypes="sssss"
               inkscape:connector-curvature="0"
               id="path13385"
               d="m -38.73603,-15.649196 c 0,16.942357 -14.560209,40.432242 -31.502568,40.432242 -16.942357,0 -31.502572,-23.489885 -31.502572,-40.432242 0,-16.942358 14.560215,-25.77062 31.502572,-25.77062 16.942359,0 31.502568,8.828262 31.502568,25.77062 z"
               style="color:#000000;fill:#e5c796;fill-opacity:1;fill-rule:nonzero;stroke:none;stroke-width:2;marker:none;visibility:visible;display:inline;overflow:visible;enable-background:accumulate" />
            <path
               inkscape:connector-curvature="0"
               style="color:#000000;fill:#dbb16d;fill-opacity:1;fill-rule:nonzero;stroke:none;stroke-width:2;marker:none;visibility:visible;display:inline;overflow:visible;enable-background:accumulate"
               d="m -144.34375,-230.15625 c -10.11613,42.60508 -50.73573,145.521994 -125.28125,134.375 -77.46082,-11.58292 -99.92995,-67.38873 -110.46875,-101.8125 8.05348,61.7841 59.19368,136.5 117.9375,136.5 64.03411,0 119.0625,-88.80965 119.0625,-152.84375 0,-5.65062 -0.42458,-11.0476 -1.25,-16.21875 z"
               transform="matrix(0.26458334,0,0,0.26458334,-0.87798869,40.951044)"
               id="path13387" />
            <path
               inkscape:connector-curvature="0"
               style="color:#000000;fill:#e5c796;fill-opacity:1;fill-rule:nonzero;stroke:none;stroke-width:2;marker:none;visibility:visible;display:inline;overflow:visible;enable-background:accumulate"
               d="m -334.8125,-293.78125 c -23.50933,13.44485 -40.28376,34.52837 -45.03125,62.9375 -0.58919,30.44604 17.33147,49.74239 46.34375,35.5 45.62743,-22.39892 29.88476,-84.62158 6.65625,-95.40625 -2.8671,-1.33115 -5.52201,-2.31863 -7.96875,-3.03125 z"
               transform="matrix(0.26458334,0,0,0.26458334,-0.87798869,40.951044)"
               id="path13389" />
            <path
               style="color:#000000;fill:#d9ab63;fill-opacity:1;fill-rule:nonzero;stroke:none;stroke-width:2;marker:none;visibility:visible;display:inline;overflow:visible;enable-background:accumulate"
               d="m -262.15625,-311.3125 c -31.2259,0 -60.29967,7.91274 -81.90625,23.46875 1.23671,1.40263 2.5595,2.67822 3.9375,3.75 3.7588,2.92351 5.78054,10.12238 16.99614,16.90054 55.77612,33.70834 150.90843,-3.47149 136.75386,-24.71304 -20.8293,-12.85494 -47.42165,-19.40625 -75.78125,-19.40625 z"
               transform="matrix(0.26458334,0,0,0.26458334,-0.87798869,40.951044)"
               id="path13391"
               inkscape:connector-curvature="0"
               sodipodi:nodetypes="scsscs" />
            <path
               sodipodi:nodetypes="scscccccccccccscscc"
               inkscape:connector-curvature="0"
               id="path13393"
               transform="matrix(0.26458334,0,0,0.26458334,-369.07141,184.33317)"
               d="m 1129.4375,-853.25 c -55.744,0 -104.6423,25.3018 -116.375,74.09375 7.817,-10.46305 22.3822,-24.76041 42.1875,-32.5625 1.0227,-0.40289 2.0995,-0.80117 3.2188,-1.1875 -22.7428,28.57683 -27.2813,63.40625 -27.2813,63.40625 0,0 22.4682,-43.36273 58.75,-60.5 -13.4646,30.05272 -7.9807,67.91835 -4.8437,72.9375 6.3536,-30.23521 22.9263,-51.04452 35,-66.4375 7.0735,25.69927 17.8091,60.3431 19.3124,65.0625 -0.3569,-5.12642 8.3948,-39.69164 12.9688,-62.40625 11.9086,17.42331 26.1042,39.06679 32.4688,58.65625 2.6024,-4.69364 1.8108,-43.10674 -12.4688,-65.1875 38.8547,17.71016 60.3125,57.875 60.3125,57.875 0,0 -4.5294,-34.72749 -27.1875,-63.28125 21.6282,10.20487 32.3158,26.94743 38.0625,44.1875 1.8054,5.41626 3.4589,9.56098 4.9375,12.75 0,-64.03411 -55.0284,-97.40625 -119.0625,-97.40625 z m 9.9687,114.84375 c 0.018,0.22634 0.1591,0.50112 0,0 z"
               style="opacity:0.45247791;color:#000000;fill:#aa0000;fill-opacity:1;fill-rule:nonzero;stroke:none;stroke-width:2;marker:none;visibility:visible;display:inline;overflow:visible;enable-background:accumulate" />
            <path
               style="color:#000000;fill:#05a6d5;fill-opacity:1;fill-rule:nonzero;stroke:none;stroke-width:2;marker:none;visibility:visible;display:inline;overflow:visible;enable-background:accumulate"
               d="m -2604.2188,-337.59375 c 0.037,1.60677 0.1038,3.23741 0.2188,4.875 0.011,0.14602 0.02,0.29125 0.031,0.4375 0.05,0.67495 0.1242,1.35164 0.1876,2.03125 0.077,0.82572 0.1536,1.63663 0.25,2.46875 0.025,0.20926 0.036,0.41536 0.062,0.625 0.076,0.62587 0.1631,1.24586 0.25,1.875 0.1039,0.74051 0.2251,1.47418 0.3438,2.21875 0.024,0.15557 0.037,0.313 0.062,0.46875 0.034,0.20955 0.058,0.41516 0.094,0.625 0.098,0.58469 0.2055,1.16303 0.3126,1.75 0.053,0.29162 0.1006,0.5829 0.1562,0.875 0.1064,0.56047 0.229,1.12519 0.3438,1.6875 0.1878,0.14577 0.3707,0.29475 0.5624,0.4375 6.2018,4.61914 14.5466,8.09232 24.375,10.8125 19.657,5.44039 45.3065,7.72547 71,7.375 25.6937,-0.35047 51.375,-3.33642 70.9688,-8.9375 9.4386,-2.69815 17.4764,-5.98954 23.5625,-10.09375 0.086,-0.42885 0.1692,-0.85327 0.25,-1.28125 0.1312,-0.68891 0.256,-1.37637 0.375,-2.0625 0.032,-0.18911 0.063,-0.37361 0.094,-0.5625 0.3348,-2.0307 0.6186,-4.06316 0.8438,-6.0625 0.1231,-1.09266 0.2196,-2.16931 0.3125,-3.25 -1.0669,1.97297 -2.9559,3.96035 -5.9063,6.03125 -4.9526,3.47649 -12.5241,6.72871 -21.7812,9.375 -18.5144,5.29251 -43.6951,8.31364 -68.8125,8.65625 -25.1174,0.34261 -50.2675,-1.98705 -68.7187,-7.09375 -9.2258,-2.55335 -16.7432,-5.84061 -21.6563,-9.5 -4.9131,-3.65936 -7.0937,-7.28193 -7.0937,-11.46875 a 4.0972843,4.0972843 0 0 0 -0.6876,-2.3125 z m 24.9376,73.9375 -0.063,0.0312 c 0.066,0.10206 0.1209,0.21062 0.1876,0.3125 -0.043,-0.11573 -0.091,-0.22876 -0.125,-0.34375 z m 145.0624,0.0625 c -0.7391,1.60706 -3.3262,3.81736 -7.625,5.75 -4.2985,1.93264 -10.1321,3.66269 -16.9687,5.09375 -13.6731,2.86211 -31.2935,4.54972 -48.8125,4.78125 -17.519,0.23153 -34.9828,-0.99488 -48.3438,-3.78125 -6.6802,-1.39318 -12.3324,-3.18013 -16.375,-5.28125 -2.1181,-1.10099 -3.7454,-2.26284 -4.9062,-3.4375 2.3743,3.46367 4.8527,6.82723 7.4688,10.03125 3.7421,1.42249 8.0356,2.60405 12.7812,3.59375 13.9251,2.9041 31.6471,4.11012 49.4375,3.875 17.7904,-0.23512 35.6189,-1.91702 49.75,-4.875 5.9307,-1.24144 11.2008,-2.71914 15.5937,-4.4375 2.8462,-3.60414 5.5508,-7.37702 8.0938,-11.28125 l -0.094,-0.0312 z m -14.875,19.40625 c -0.9653,0.70585 -2.1236,1.38509 -3.4687,2.0625 -3.6717,1.84908 -8.6417,3.51596 -14.4063,4.84375 -11.5286,2.65558 -26.3189,4.04803 -40.9687,4.125 -14.6498,0.077 -29.154,-1.24915 -40.2813,-3.90625 -5.5635,-1.32855 -10.3658,-2.89664 -13.7187,-4.8125 -0.199,-0.11373 -0.3739,-0.22839 -0.5625,-0.34375 3.1606,3.28404 6.469,6.34879 9.875,9.15625 0.011,0.009 0.02,0.022 0.031,0.0312 1.0403,0.28514 2.0947,0.55155 3.1876,0.8125 11.7256,2.80005 26.6063,4.10983 41.5624,4.03125 14.9564,-0.0786 29.8875,-1.47436 41.9376,-4.25 2.191,-0.50469 4.2901,-1.03624 6.2812,-1.625 3.6544,-3.10071 7.1702,-6.48262 10.5312,-10.125 z"
               transform="matrix(0.32290878,0,0,0.32290878,739.2028,94.067592)"
               id="path13395"
               inkscape:connector-curvature="0" />
            <path
               inkscape:connector-curvature="0"
               id="path13397"
               transform="matrix(0.26458334,0,0,0.26458334,-369.07141,184.33317)"
               d="m 1241,-711.125 c -10.1278,5.16234 -24.9366,10.69349 -46.6562,15.40625 -51.1313,11.09451 -134.3741,10.65555 -176.375,-15.28125 4.135,13.01113 9.7977,26.00921 16.7812,38.25 78.705,30.8585 154.8403,12.10765 189.125,0.40625 7.1154,-12.40343 12.94,-25.57854 17.125,-38.78125 z"
               style="opacity:0.29203539;color:#000000;fill:#00ffff;fill-opacity:1;fill-rule:nonzero;stroke:none;stroke-width:2;marker:none;visibility:visible;display:inline;overflow:visible;enable-background:accumulate" />
            <path
               inkscape:connector-curvature="0"
               id="path13399"
               transform="matrix(0.26458334,0,0,0.26458334,-369.07141,184.33317)"
               d="m 1241.75,-713.59375 c -6.4627,4.34915 -15.6852,8.27451 -26.75,11.4375 -22.991,6.57222 -53.8222,10.204 -84.6875,10.625 -30.8653,0.421 -61.7274,-2.39537 -84.6875,-8.75 -11.4801,-3.1773 -21.032,-7.21379 -27.5,-12.03125 -0.2537,-0.18896 -0.506,-0.3718 -0.75,-0.5625 0.6303,2.05859 1.2599,4.13065 1.9688,6.1875 6.7081,4.1321 15.3199,7.44785 25.2187,10.1875 23.5487,6.51749 54.6035,9.39361 85.75,8.96875 31.1465,-0.42486 62.3571,-4.12092 85.875,-10.84375 9.2018,-2.63043 17.2022,-5.72288 23.6563,-9.3125 0.6649,-1.96486 1.3131,-3.94054 1.9062,-5.90625 z M 1028.2188,-685.25 c 2.4001,4.98286 5.0054,9.90786 7.8124,14.6875 7.3391,4.61659 16.3102,8.21333 26.2813,10.9375 21.1518,5.77878 47.0844,7.75411 72.5937,6.75 25.5095,-1.00407 50.576,-4.97425 70,-11.25 7.0819,-2.28804 13.3965,-4.89407 18.75,-7.8125 2.1371,-3.70538 4.1361,-7.48513 6.0313,-11.3125 -1.1208,1.00859 -2.4027,2.00983 -3.8437,3 -5.59,3.84068 -13.4385,7.38769 -22.7813,10.40625 -18.6856,6.03711 -43.3656,9.98312 -68.4063,10.96875 -25.0403,0.98566 -50.4751,-0.99205 -70.75,-6.53125 -16.1504,-4.4124 -28.7839,-11.05762 -35.6874,-19.84375 z"
               style="color:#000000;fill:#ff2a2a;fill-opacity:1;fill-rule:nonzero;stroke:none;stroke-width:2;marker:none;visibility:visible;display:inline;overflow:visible;enable-background:accumulate" />
            <path
               style="opacity:0.18141593;color:#000000;fill:#000000;fill-opacity:1;fill-rule:nonzero;stroke:none;stroke-width:2;marker:none;visibility:visible;display:inline;overflow:visible;enable-background:accumulate"
               d="m -2579.2812,-263.65625 -0.063,0.0312 c 0.067,0.10206 0.1208,0.21062 0.1876,0.3125 -0.043,-0.11573 -0.091,-0.22876 -0.125,-0.34375 z m 145.0624,0.0625 c -0.7391,1.60706 -3.3261,3.81736 -7.625,5.75 -4.2985,1.93264 -10.1321,3.66269 -16.9687,5.09375 -13.6731,2.86211 -31.2935,4.54972 -48.8125,4.78125 -17.519,0.23153 -34.9827,-0.99488 -48.3438,-3.78125 -6.6802,-1.39318 -12.3323,-3.18013 -16.375,-5.28125 -2.1181,-1.10099 -3.7454,-2.26284 -4.9062,-3.4375 2.3743,3.46367 4.8526,6.82723 7.4688,10.03125 3.7421,1.42249 8.0356,2.60405 12.7812,3.59375 13.9251,2.9041 31.6471,4.11012 49.4375,3.875 17.7904,-0.23512 35.6189,-1.91702 49.75,-4.875 5.9307,-1.24144 11.2008,-2.71914 15.5937,-4.4375 2.8463,-3.60414 5.5508,-7.37702 8.0938,-11.28125 l -0.094,-0.0312 z m -14.875,19.40625 c -0.9653,0.70585 -2.1236,1.38509 -3.4687,2.0625 -3.6717,1.84908 -8.6416,3.51596 -14.4063,4.84375 -11.5286,2.65558 -26.3189,4.04803 -40.9687,4.125 -14.6498,0.077 -29.1539,-1.24915 -40.2813,-3.90625 -5.5635,-1.32855 -10.3658,-2.89664 -13.7187,-4.8125 -0.199,-0.11373 -0.3739,-0.22839 -0.5625,-0.34375 3.1606,3.28404 6.469,6.34879 9.875,9.15625 0.011,0.009 0.02,0.022 0.031,0.0312 1.0404,0.28514 2.0946,0.55155 3.1876,0.8125 11.7256,2.80005 26.6063,4.10983 41.5624,4.03125 14.9565,-0.0786 29.8874,-1.47436 41.9376,-4.25 2.191,-0.50469 4.2901,-1.03624 6.2812,-1.625 3.6544,-3.10071 7.1702,-6.48262 10.5312,-10.125 z"
               transform="matrix(0.32290878,0,0,0.32290878,739.2028,94.067592)"
               id="path13401"
               inkscape:connector-curvature="0" />
          </g>
          <path
             inkscape:connector-curvature="0"
             id="path13403"
             d="m -717.62885,280.19691 c -0.30588,-10e-4 -0.73844,0.1319 -0.76554,0.28454 -0.72858,3.82498 -3.43028,6.72011 -4.58652,7.70292 -0.21647,0.18444 -0.24547,0.54914 -0.061,0.76555 0.18447,0.21641 0.48819,0.0897 0.70457,-0.0949 1.3872,-1.17912 4.20906,-4.3019 5.00656,-8.4888 0.0243,-0.11898 -0.11456,-0.16877 -0.29809,-0.16937 z m -45.43165,0.28454 c -0.18348,0.005 -0.31828,0.0577 -0.29133,0.17614 0.89017,4.16819 3.78325,7.22557 5.19627,8.37363 0.22041,0.17968 0.52494,0.30175 0.70457,0.0813 0.17964,-0.22045 0.14595,-0.58595 -0.0745,-0.76555 -1.17777,-0.95692 -3.94942,-3.79343 -4.76268,-7.6013 -0.0305,-0.15201 -0.46654,-0.272 -0.7723,-0.26422 z m 41.20418,1.02976 c -0.19346,0.0133 -0.35142,0.0694 -0.35905,0.1626 -0.0437,0.41504 -0.50552,1.934 -1.30752,3.46869 -0.80209,1.53468 -1.94847,3.15699 -3.29257,4.09196 -0.25772,0.15008 -0.33949,0.53417 -0.16935,0.7791 0.17016,0.24493 0.55529,0.29754 0.78587,0.1084 1.58094,-1.09978 2.78685,-2.84939 3.63805,-4.47813 0.85123,-1.62874 1.33921,-3.06854 1.42272,-3.86163 0.024,-0.20142 -0.39569,-0.29319 -0.71815,-0.27099 z m -36.94286,0.1897 c -0.32287,-0.015 -0.73978,0.0837 -0.71134,0.28454 0.10105,0.79104 0.61686,2.21829 1.50398,3.82775 0.88714,1.60945 2.13474,3.33238 3.73968,4.39683 0.23472,0.18398 0.6212,0.12671 0.78587,-0.12195 0.16468,-0.24864 0.51844,-0.0589 0.25747,-0.20324 -1.36448,-0.90493 -2.99185,-3.07678 -3.82776,-4.5933 -0.83585,-1.51651 -1.33599,-3.02084 -1.38885,-3.43481 -0.01,-0.093 -0.16532,-0.1468 -0.35905,-0.15582 z m 31.9702,1.09074 c -0.27256,0.003 -0.5445,0.0766 -0.54199,0.21002 0,0.39171 -0.20419,1.66937 -0.72491,3.05542 -0.52071,1.38606 -1.34758,2.92444 -2.53377,4.05132 -0.22026,0.19127 -0.24137,0.56742 -0.0406,0.7791 0.20075,0.21168 0.58318,0.21657 0.78586,0.007 1.35728,-1.2894 2.24452,-2.9598 2.80476,-4.45103 0.56024,-1.49122 0.79266,-2.75232 0.79266,-3.44159 0.004,-0.14527 -0.26945,-0.21299 -0.54198,-0.21002 z m -26.97041,0.0813 c -0.27255,0.003 -0.5489,0.0716 -0.54198,0.21679 0.0154,0.68909 0.28077,1.94961 0.87395,3.42804 0.59317,1.47844 1.51404,3.1243 2.89961,4.38328 0.20728,0.20561 0.58985,0.19576 0.78587,-0.0203 0.19594,-0.21609 0.17025,-0.59277 -0.0542,-0.7791 -1.2109,-1.1003 -2.07729,-2.62296 -2.62862,-3.99712 -0.55135,-1.37417 -0.78397,-2.64349 -0.79266,-3.0351 0,-0.13344 -0.26943,-0.19954 -0.54198,-0.19647 z m 5.32498,0.65038 c -0.32446,-0.0169 -0.62578,0.0324 -0.56909,0.35228 0,0 0.22608,1.38221 0.65038,3.02156 0.42431,1.63935 1.00792,3.24066 1.91049,4.39005 0.17365,0.22767 0.53353,0.21074 0.75878,0.0339 0.22522,-0.17685 0.27487,-0.19734 0.0948,-0.42003 -0.66822,-0.85102 -1.30355,-2.68228 -1.71401,-4.26812 -0.41047,-1.58582 -0.62327,-2.9267 -0.62327,-2.9267 -0.0361,-0.24674 -0.25901,-0.17161 -0.50812,-0.18292 z m 16.15783,0.0406 c -0.16879,-0.003 -0.30221,0.004 -0.32519,0.18969 0,0 -0.18711,1.34571 -0.56229,2.94025 -0.37518,1.59455 -0.96998,3.44314 -1.61916,4.30876 -0.17506,0.22664 -0.12748,0.24145 0.10161,0.41327 0.2291,0.17181 0.59698,0.18407 0.76556,-0.0474 0.87684,-1.16914 1.42101,-2.78235 1.80885,-4.43071 0.38785,-1.64835 0.58264,-3.0351 0.58264,-3.0351 0.0496,-0.32109 -0.25185,-0.36281 -0.57585,-0.33874 -0.0622,0.004 -0.11989,7.9e-4 -0.17617,0 z m -9.6405,0.0135 c -0.0703,0.004 -0.25139,0.39474 -0.46747,0.38616 -0.30682,-0.013 -0.60916,-0.54309 -0.58261,-0.23712 0,0 0.37013,4.96674 0.42002,7.21514 0.002,0.28636 0.26247,0.54176 0.54877,0.53521 0.28629,-0.006 0.5456,-0.27613 0.53519,-0.56231 -0.0517,-2.32868 -0.42001,-7.26934 -0.42001,-7.26934 -0.003,-0.0498 -0.0178,-0.0686 -0.0339,-0.0678 z m 4.12586,0.15582 c -0.0163,-5.3e-4 -0.0253,0.0179 -0.0271,0.0678 0,0 -0.25747,4.94685 -0.25747,7.27611 -0.004,0.28633 0.25562,0.54875 0.54198,0.54875 0.28639,0 0.54606,-0.26242 0.54199,-0.54875 0,-2.24896 0.25745,-7.22192 0.25745,-7.22192 0.0197,-0.30649 -0.26938,0.23086 -0.57586,0.25067 -0.21585,0.0134 -0.41066,-0.37033 -0.48099,-0.37261 z"
             style="font-size:medium;font-style:normal;font-variant:normal;font-weight:normal;font-stretch:normal;text-indent:0;text-align:start;text-decoration:none;line-height:normal;letter-spacing:normal;word-spacing:normal;text-transform:none;direction:ltr;block-progression:tb;writing-mode:lr-tb;text-anchor:start;baseline-shift:baseline;color:#000000;fill:#ff2a2a;fill-opacity:1;stroke:none;stroke-width:5;marker:none;visibility:visible;display:inline;overflow:visible;enable-background:accumulate;font-family:Sans;-inkscape-font-specification:Sans" />
        </g>
      </g>
      <g
         id="g12143"
         transform="translate(-350.78719,519.62653)">
        <g
           transform="translate(0,13.828222)"
           id="g12145">
          <g
             transform="matrix(0.78360117,0,0,0.90986599,-569.98639,-102.16933)"
             id="g12147">
            <path
               sodipodi:nodetypes="cccccccscccccc"
               inkscape:connector-curvature="0"
               id="path12149"
               transform="matrix(0.27666235,0,0,0.23826909,-318.97371,183.1014)"
               d="m 1037.375,-962.84375 c -0.037,0.10384 -0.091,0.20793 -0.125,0.3125 -0.1877,0.37674 -0.3795,0.74098 -0.5312,1.125 0.048,0.14215 0.1066,0.33835 0.1562,0.5 -0.099,0.60215 -0.1562,1.21878 -0.1562,1.84375 0.6684,1.53845 14.6533,96.59745 15.8437,120.8125 -0.2424,2.37008 0.6155,4.3238 2.4063,5.90625 8.5817,10.843 39.0957,1.52874 76.0937,1.52874 43.3539,0 74.3897,7.56612 79.0625,-5.65374 -0.08,-6.5179 0.2169,-13.7728 0.75,-21.40625 0.014,-0.19958 0.017,-0.39365 0.031,-0.59375 4.518,-51.8732 15.7271,-91.98082 14.3438,-102.65625 0.051,-0.38485 0.1308,-0.88957 0.1562,-1.15625 1.4614,-13.65741 -187.3468,-15.80052 -188.031,-0.5625 z"
               style="color:#000000;fill:#b7855a;fill-opacity:1;fill-rule:nonzero;stroke:#3f2d10;stroke-width:18.49751282;stroke-linejoin:round;stroke-miterlimit:4;stroke-opacity:1;stroke-dasharray:none;marker:none;visibility:visible;display:inline;overflow:visible;enable-background:accumulate" />
            <path
               sodipodi:nodetypes="csscssc"
               inkscape:connector-curvature="0"
               id="path12151"
               d="m -32.155006,-45.41409 c 0.184923,0.366566 4.053169,23.02018 4.382498,28.789877 0.190858,3.343743 9.723637,5.710389 21.7180232,5.710389 11.994386,0 20.5875318,-2.141194 21.8803158,-5.291077 -0.144375,-10.199147 3.739242,-27.919779 4.220206,-29.97921 0.605752,-2.59376 -52.201043,-4.693515 -52.201043,0.770024 z"
               style="color:#000000;fill:#e5c796;fill-opacity:1;fill-rule:nonzero;stroke:none;stroke-width:2;marker:none;visibility:visible;display:inline;overflow:visible;enable-background:accumulate" />
            <path
               inkscape:connector-curvature="0"
               id="path12155"
               transform="matrix(0.33765052,0,0,0.29079375,756.85182,100.36578)"
               d="m -2307.5938,-511.4375 c -17.2236,1.7337 -29.1562,4.93745 -29.1562,10.125 0.5477,1.26057 11.9934,79.1588 12.9688,99 0.3266,6.64546 9.9058,12.17778 24.7812,15.65625 0.036,0.003 0.095,-0.007 0.125,0 1.6551,-0.36407 3.0625,-2.90625 3.0625,-2.90625 0,0 -8.3544,-83.98277 -11.7813,-121.875 z"
               style="opacity:0.60619465;color:#000000;fill:#ffecce;fill-opacity:1;fill-rule:nonzero;stroke:none;stroke-width:2;marker:none;visibility:visible;display:inline;overflow:visible;enable-background:accumulate" />
            <path
               inkscape:connector-curvature="0"
               id="path12159"
               transform="matrix(0.33765052,0,0,0.29079375,756.85182,100.36578)"
               d="m -2223.4375,-511.5625 c -0.412,48.16817 -2.1061,94.26402 -3.375,101.03125 -5.1342,27.38228 -59.7684,25.80032 -91.375,16.3125 0.3055,0.21477 0.6091,0.44628 0.9375,0.65625 0.2717,0.17398 0.5566,0.36062 0.8438,0.53125 0.1097,0.0652 0.2317,0.12278 0.3437,0.1875 0.5931,0.34267 1.1895,0.67158 1.8437,1 0.1671,0.084 0.3291,0.16697 0.5,0.25 0.7551,0.36672 1.5459,0.71485 2.375,1.0625 0.8032,0.33708 1.6303,0.65025 2.5,0.96875 0.2861,0.10476 0.582,0.20981 0.875,0.3125 0.6591,0.231 1.3377,0.46713 2.0313,0.6875 0.3386,0.10758 0.6846,0.2075 1.0313,0.3125 0.784,0.23736 1.5824,0.46361 2.4062,0.6875 0.2587,0.0703 0.5188,0.14978 0.7812,0.21875 0.9877,0.25948 1.9912,0.51007 3.0313,0.75 1.9137,0.44145 3.9214,0.84647 6,1.21875 0.4085,0.0731 0.8355,0.14838 1.25,0.21875 0.1674,0.0284 0.3316,0.0658 0.5,0.0937 1.2001,0.19922 2.4403,0.38672 3.6875,0.5625 0.084,0.0119 0.1656,0.0195 0.25,0.0312 1.13,0.15741 2.3028,0.29982 3.4688,0.4375 0.9257,0.10913 1.8653,0.21608 2.8124,0.3125 0.7336,0.0748 1.4417,0.15168 2.1876,0.21875 0.052,0.005 0.1038,-0.005 0.1562,0 0.9321,0.0831 1.8935,0.14803 2.8438,0.21875 0.6954,0.0517 1.3889,0.11127 2.0937,0.15625 0.9722,0.0621 1.9485,0.10717 2.9375,0.15625 0.8085,0.0401 1.6184,0.0624 2.4375,0.0937 1.0934,0.0418 2.2015,0.0992 3.3125,0.125 0.1344,0.003 0.2716,-0.003 0.4062,0 1.6169,0.0346 3.2559,0.0625 4.9063,0.0625 0.021,0 0.041,1e-5 0.062,0 6.4875,-0.002 12.6319,-0.25038 18.375,-0.71875 2.0876,-0.17083 4.1483,-0.36542 6.125,-0.59375 1.8493,-0.21332 3.6599,-0.45706 5.4062,-0.71875 0.2571,-0.0386 0.4953,-0.0854 0.75,-0.125 2.2191,-0.34448 4.3682,-0.70493 6.4063,-1.125 0.2748,-0.0568 0.5411,-0.1294 0.8125,-0.1875 1.4401,-0.30761 2.8147,-0.62444 4.1562,-0.96875 5.1477,-1.32118 9.5801,-2.90813 13.125,-4.71875 1.0134,-0.51773 1.9427,-1.07161 2.8126,-1.625 1.7387,-1.10606 3.1813,-2.26242 4.3124,-3.5 0.5656,-0.61879 1.0636,-1.25741 1.4688,-1.90625 0.4052,-0.64884 0.7295,-1.323 0.9688,-2 -0.04,-3.28814 0.024,-6.79339 0.1874,-10.46875 1.4631,-35.51607 11.0091,-86.10792 12.3126,-92.59375 9e-4,-0.0102 0,-0.021 0,-0.0312 0.014,-0.0697 0.01,-0.14928 0,-0.21875 -0.2208,-2.98023 -17.9156,-5.73453 -41.2813,-7.375 z"
               style="color:#000000;fill:#dbb16d;fill-opacity:1;fill-rule:nonzero;stroke:none;stroke-width:2;marker:none;visibility:visible;display:inline;overflow:visible;enable-background:accumulate" />
            <path
               sodipodi:nodetypes="cccccccccccccccccccccccc"
               inkscape:connector-curvature="0"
               id="path12163"
               transform="matrix(0.6396957,0,0,0.55092322,1334.9531,860.90152)"
               d="m -2057.1562,-1636.4375 c -0.4211,0.3132 -1.0403,0.6491 -1.8126,1 -6.963,7.7152 -74.9801,6.0235 -76.0624,0.031 -0.2381,-0.1227 -0.4393,-0.2541 -0.625,-0.375 0.2057,1.393 0.457,3.183 0.6874,4.7812 1.458,4.9201 72.108,7.0417 77,-0.5 0.2926,-1.7982 0.5487,-3.3746 0.8126,-4.9375 z m -1.8126,11.2187 c -0.014,0.01 -0.017,0.025 -0.031,0.031 -4.9905,7.4243 -74.8511,6.3942 -75.0938,0.4375 0.216,1.5455 0.408,2.8783 0.625,4.4688 -1.6154,7.0701 67.1905,8.5901 73.8438,-0.375 0.2184,-1.537 0.4318,-3.0842 0.6562,-4.5626 z m -1.5624,11.25 c -4.832,11.0701 -71.4755,6.2779 -72.0313,0.375 0.1953,1.4914 0.3496,2.8734 0.5313,4.3126 -0.1407,5.9472 63.8346,11.918 71,-0.3126 0.1588,-1.4574 0.3186,-2.9117 0.5,-4.375 z m -1.0938,10.25 c -1.7426,9.9194 -67.1942,9.9406 -69.6562,0.4688 0.1748,1.5019 0.3636,2.9758 0.5,4.2812 0,8.864 68.875,9.7452 68.875,-0.4062 0.081,-1.4185 0.1579,-2.8618 0.2812,-4.3438 z"
               style="color:#000000;fill:#05a6d5;fill-opacity:1;fill-rule:nonzero;stroke:none;stroke-width:2;marker:none;visibility:visible;display:inline;overflow:visible;enable-background:accumulate" />
            <path
               inkscape:connector-curvature="0"
               id="path12165"
               transform="matrix(0.55194243,0,0,0.47534773,661.43278,642.16063)"
               d="m -1163.9375,-1436.4375 c -0.4881,0.363 -1.2299,0.7496 -2.125,1.1563 -2.2602,2.5043 -10.0538,4.1697 -20.1563,5.0937 -0.093,1.5143 -0.1826,2.9862 -0.2812,4.5313 11.2642,-0.818 19.8858,-2.4295 21.5938,-5.0626 0.3391,-2.084 0.6628,-3.9073 0.9687,-5.7187 z m -2.125,13 c -0.016,0.012 -0.015,0.024 -0.031,0.031 -1.7137,2.5495 -10.0458,4.2208 -20.9062,5.1562 -0.1378,2.0548 -0.2321,4.0628 -0.375,6.125 10.323,-1.1203 18.3677,-3.0739 20.5625,-6.0312 0.2531,-1.7814 0.4899,-3.5678 0.75,-5.2813 z m -1.8125,13.0313 c -1.6667,3.8184 -9.6752,5.9876 -20.125,7 -0.1332,1.8492 -0.2729,3.7182 -0.4062,5.5312 9.8385,-1.1 17.5985,-3.4231 19.9687,-7.4688 0.184,-1.6891 0.3523,-3.3665 0.5625,-5.0624 z m -1.25,11.875 c -0.6457,3.6756 -8.8703,6.1855 -19.8125,7.5312 -0.1433,1.9024 -0.2362,3.2194 -0.375,5.0312 11.3913,-1.2432 19.8437,-3.7055 19.8437,-7.5312 0.094,-1.644 0.2009,-3.3136 0.3438,-5.0312 z"
               style="opacity:0.13274339;color:#000000;fill:#000000;fill-opacity:1;fill-rule:nonzero;stroke:none;stroke-width:2;marker:none;visibility:visible;display:inline;overflow:visible;enable-background:accumulate" />
            <path
               sodipodi:nodetypes="ccccccccccccccccccccc"
               inkscape:connector-curvature="0"
               id="path12167"
               transform="matrix(0.55194243,0,0,0.47534773,661.43278,642.16063)"
               d="m -1254.9375,-1435.6875 c 0.2384,1.6145 0.5455,3.679 0.8125,5.5313 0.4473,1.5093 9.3199,2.8114 18.1038,3.7187 -0.2282,-1.5011 -0.6936,-2.9583 -0.9101,-4.4375 -8.5347,-1.0308 -16.9534,-2.5256 -17.2875,-4.375 -0.2759,-0.1422 -0.5035,-0.2974 -0.7187,-0.4375 z m 1.8125,12.7813 c 0.2503,1.7912 0.4672,3.3441 0.7188,5.1874 -0.5544,2.4263 7.5979,4.2877 17.3662,5.4376 -0.3473,-2.101 -0.6955,-4.1848 -1.0313,-6.2813 -9.1659,-0.9491 -16.9757,-2.429 -17.0537,-4.3437 z m 1.7812,12.9374 c 0.2264,1.7286 0.4145,3.332 0.625,5 -0.049,2.0837 6.7146,4.1512 16.375,5.6563 0.5068,-1.8914 -0.1454,-2.8518 -0.4612,-4.7074 -9.3256,-1.3479 -16.3535,-3.9818 -16.5388,-5.9489 z m 1.4688,12 c 0.2026,1.7407 0.4357,3.4246 0.5938,4.9376 0,3.074 7.1704,5.3024 17.1874,6.625 -0.291,-1.646 -0.5764,-3.177 -0.875,-4.875 -9.3053,-1.3294 -16.0912,-3.552 -16.9062,-6.6876 z"
               style="opacity:0.36725661;color:#000000;fill:#00ffff;fill-opacity:1;fill-rule:nonzero;stroke:none;stroke-width:2;marker:none;visibility:visible;display:inline;overflow:visible;enable-background:accumulate" />
          </g>
        </g>
      </g>
    </g>
  </g>
</svg>
