<?xml version="1.0" encoding="UTF-8" standalone="no"?>
<!-- Created with Inkscape (http://www.inkscape.org/) -->

<svg
   xmlns:dc="http://purl.org/dc/elements/1.1/"
   xmlns:cc="http://creativecommons.org/ns#"
   xmlns:rdf="http://www.w3.org/1999/02/22-rdf-syntax-ns#"
   xmlns:svg="http://www.w3.org/2000/svg"
   xmlns="http://www.w3.org/2000/svg"
   xmlns:sodipodi="http://sodipodi.sourceforge.net/DTD/sodipodi-0.dtd"
   xmlns:inkscape="http://www.inkscape.org/namespaces/inkscape"
   width="278.30743"
   height="405.94012"
   viewBox="0 0 73.635508 107.405"
   version="1.1"
   id="svg23489"
   inkscape:version="0.48.5 r10040"
   sodipodi:docname="terracotta_pot_01_side_view.svg"
   tags="pot, terracotta pot, terracotta, urn,vase">
  <defs
     id="defs23483" />
  <sodipodi:namedview
     id="base"
     pagecolor="#7d848b"
     bordercolor="#666666"
     borderopacity="1.0"
     inkscape:pageopacity="0"
     inkscape:pageshadow="2"
     inkscape:zoom="0.85235729"
     inkscape:cx="366.90233"
     inkscape:cy="348.29344"
     inkscape:document-units="px"
     inkscape:current-layer="layer1"
     showgrid="false"
     inkscape:pagecheckerboard="false"
     showborder="true"
     units="px"
     inkscape:window-width="1920"
     inkscape:window-height="1017"
     inkscape:window-x="-8"
     inkscape:window-y="-8"
     inkscape:window-maximized="1"
     inkscape:showpageshadow="false"
     guidetolerance="28"
     fit-margin-top="20"
     fit-margin-left="20"
     fit-margin-right="20"
     fit-margin-bottom="20">
    <inkscape:grid
       type="xygrid"
       id="grid24034"
       spacingx="1px"
       spacingy="1px"
       empspacing="8"
       visible="true"
       enabled="true"
       snapvisiblegridlinesonly="true"
       originx="59.984042px"
       originy="-157.18723px" />
  </sodipodi:namedview>
  <metadata
     id="metadata23486">
    <rdf:RDF>
      <cc:Work
         rdf:about="">
        <dc:format>image/svg+xml</dc:format>
        <dc:type
           rdf:resource="http://purl.org/dc/dcmitype/StillImage" />
        <dc:title></dc:title>
        <cc:license
           rdf:resource="" />
        <dc:creator>
          <cc:Agent>
            <dc:title>Robert Brooks</dc:title>
          </cc:Agent>
        </dc:creator>
      </cc:Work>
    </rdf:RDF>
  </metadata>
  <g
     inkscape:label="Layer 1"
     inkscape:groupmode="layer"
     id="layer1"
     transform="translate(15.870781,-148.00588)">
    <g
       id="g16362"
       transform="translate(884.69031,-594.24246)">
      <g
         transform="matrix(0.62258062,0,0,-0.72289953,-859.57401,817.56921)"
         id="g15882">
        <path
           style="color:#000000;fill:#b7855a;fill-opacity:1;fill-rule:nonzero;stroke:#351907;stroke-width:5.2839036;stroke-linejoin:round;stroke-miterlimit:4;stroke-opacity:1;stroke-dasharray:none;marker:none;visibility:visible;display:inline;overflow:visible;enable-background:accumulate"
           d="m -6.0544848,-34.421253 c -11.9943862,0 -20.2983402,2.725491 -21.7180232,5.820256 -0.513753,1.119929 -0.627921,4.646869 0,6.280553 1.221563,3.178182 9.723637,4.454547 21.7180232,4.454547 11.994386,0 20.4252398,-1.304664 21.7180238,-4.454547 0.342502,-0.834512 0.862091,-4.641034 0,-6.223469 -1.628888,-2.989948 -9.7236378,-5.87734 -21.7180238,-5.87734 z"
           id="path15884"
           inkscape:connector-curvature="0"
           sodipodi:nodetypes="sssssss" />
        <path
           sodipodi:nodetypes="sssssss"
           inkscape:connector-curvature="0"
           id="path15886"
           d="m -6.0544848,-34.421253 c -11.9943862,0 -20.2983402,2.725491 -21.7180232,5.820256 -0.513753,1.119929 -0.627921,4.646869 0,6.280553 1.221563,3.178182 9.723637,5.710389 21.7180232,5.710389 11.994386,0 20.4252398,-2.560506 21.7180238,-5.710389 0.342502,-0.834512 0.862091,-4.641034 0,-6.223469 -1.628888,-2.989948 -9.7236378,-5.87734 -21.7180238,-5.87734 z"
           style="color:#000000;fill:#d36925;fill-opacity:1;fill-rule:nonzero;stroke:none;stroke-width:2;marker:none;visibility:visible;display:inline;overflow:visible;enable-background:accumulate" />
      </g>
      <g
         id="g15888"
         transform="matrix(0.93801484,0,0,0.93801484,-797.86245,816.71845)">
        <path
           sodipodi:nodetypes="sssssss"
           inkscape:connector-curvature="0"
           id="path15890"
           d="m -38.73603,-15.649196 c 0,11.5464147 -6.762609,26.133883 -16.43306,34.25455 -4.519255,3.795 -9.673565,3.073555 -15.069508,3.073555 -5.109175,0 -10.001718,0.967972 -14.343659,-2.480611 -10.056217,-7.987145 -17.158913,-23.0143118 -17.158913,-34.847494 0,-16.942358 14.560215,-25.77062 31.502572,-25.77062 16.942359,0 31.502568,8.828262 31.502568,25.77062 z"
           style="color:#000000;fill:#c29752;fill-opacity:1;fill-rule:nonzero;stroke:#351907;stroke-width:4.23333359;stroke-miterlimit:4;stroke-opacity:1;stroke-dasharray:none;marker:none;visibility:visible;display:inline;overflow:visible;enable-background:accumulate" />
        <path
           style="color:#000000;fill:#e4803f;fill-opacity:1;fill-rule:nonzero;stroke:none;stroke-width:2;marker:none;visibility:visible;display:inline;overflow:visible;enable-background:accumulate"
           d="m -38.73603,-15.649196 c 0,16.942357 -14.560209,40.432242 -31.502568,40.432242 -16.942357,0 -31.502572,-23.489885 -31.502572,-40.432242 0,-16.942358 14.560215,-25.77062 31.502572,-25.77062 16.942359,0 31.502568,8.828262 31.502568,25.77062 z"
           id="path15892"
           inkscape:connector-curvature="0"
           sodipodi:nodetypes="sssss" />
        <path
           id="path15894"
           transform="matrix(0.26458334,0,0,0.26458334,-0.87798869,40.951044)"
           d="m -144.34375,-230.15625 c -10.11613,42.60508 -50.73573,145.521994 -125.28125,134.375 -77.46082,-11.58292 -99.92995,-67.38873 -110.46875,-101.8125 8.05348,61.7841 59.19368,136.5 117.9375,136.5 64.03411,0 119.0625,-88.80965 119.0625,-152.84375 0,-5.65062 -0.42458,-11.0476 -1.25,-16.21875 z"
           style="color:#000000;fill:#d36925;fill-opacity:1;fill-rule:nonzero;stroke:none;stroke-width:2;marker:none;visibility:visible;display:inline;overflow:visible;enable-background:accumulate"
           inkscape:connector-curvature="0" />
        <path
           id="path15896"
           transform="matrix(0.26458334,0,0,0.26458334,-0.87798869,40.951044)"
           d="m -334.8125,-293.78125 c -23.50933,13.44485 -40.28376,34.52837 -45.03125,62.9375 -0.58919,30.44604 17.33147,49.74239 46.34375,35.5 45.62743,-22.39892 29.88476,-84.62158 6.65625,-95.40625 -2.8671,-1.33115 -5.52201,-2.31863 -7.96875,-3.03125 z"
           style="opacity:0.53539824;color:#000000;fill:#ec9a3a;fill-opacity:1;fill-rule:nonzero;stroke:none;stroke-width:2;marker:none;visibility:visible;display:inline;overflow:visible;enable-background:accumulate"
           inkscape:connector-curvature="0" />
        <path
           sodipodi:nodetypes="scsscs"
           inkscape:connector-curvature="0"
           id="path15898"
           transform="matrix(0.26458334,0,0,0.26458334,-0.87798869,40.951044)"
           d="m -262.15625,-311.3125 c -31.2259,0 -60.29967,7.91274 -81.90625,23.46875 1.23671,1.40263 2.5595,2.67822 3.9375,3.75 3.7588,2.92351 5.78054,10.12238 16.99614,16.90054 55.77612,33.70834 150.90843,-3.47149 136.75386,-24.71304 -20.8293,-12.85494 -47.42165,-19.40625 -75.78125,-19.40625 z"
           style="opacity:0.53539824;color:#000000;fill:#ec9a3a;fill-opacity:1;fill-rule:nonzero;stroke:none;stroke-width:2;marker:none;visibility:visible;display:inline;overflow:visible;enable-background:accumulate" />
      </g>
      <g
         id="g16044"
         transform="translate(-289.02,882.32153)">
        <g
           transform="translate(0,13.828222)"
           id="g16046">
          <g
             transform="matrix(0.78360117,0,0,0.90986599,-569.98639,-102.16933)"
             id="g16048">
            <path
               sodipodi:nodetypes="cccccccscccccc"
               inkscape:connector-curvature="0"
               id="path16050"
               transform="matrix(0.27666235,0,0,0.23826909,-318.97371,183.1014)"
               d="m 1037.375,-962.84375 c -0.037,0.10384 -0.091,0.20793 -0.125,0.3125 -0.1877,0.37674 -0.3795,0.74098 -0.5312,1.125 0.048,0.14215 0.1066,0.33835 0.1562,0.5 -0.099,0.60215 -0.1562,1.21878 -0.1562,1.84375 0.6684,1.53845 14.6533,96.59745 15.8437,120.8125 -0.2424,2.37008 0.6155,4.3238 2.4063,5.90625 8.5817,10.843 39.0957,1.52874 76.0937,1.52874 43.3539,0 74.3897,7.56612 79.0625,-5.65374 -0.08,-6.5179 0.2169,-13.7728 0.75,-21.40625 0.014,-0.19958 0.017,-0.39365 0.031,-0.59375 4.518,-51.8732 15.7271,-91.98082 14.3438,-102.65625 0.051,-0.38485 0.1308,-0.88957 0.1562,-1.15625 1.4614,-13.65741 -187.3468,-15.80052 -188.031,-0.5625 z"
               style="color:#000000;fill:#b7855a;fill-opacity:1;fill-rule:nonzero;stroke:#351907;stroke-width:18.49751282;stroke-linejoin:round;stroke-miterlimit:4;stroke-opacity:1;stroke-dasharray:none;marker:none;visibility:visible;display:inline;overflow:visible;enable-background:accumulate" />
            <path
               sodipodi:nodetypes="csscssc"
               inkscape:connector-curvature="0"
               id="path16052"
               d="m -32.155006,-45.41409 c 0.184923,0.366566 4.053169,23.02018 4.382498,28.789877 0.190858,3.343743 9.723637,5.710389 21.7180232,5.710389 11.994386,0 20.5875318,-2.141194 21.8803158,-5.291077 -0.144375,-10.199147 3.739242,-27.919779 4.220206,-29.97921 0.605752,-2.59376 -52.201043,-4.693515 -52.201043,0.770024 z"
               style="color:#000000;fill:#e4803f;fill-opacity:1;fill-rule:nonzero;stroke:none;stroke-width:2;marker:none;visibility:visible;display:inline;overflow:visible;enable-background:accumulate" />
            <path
               inkscape:connector-curvature="0"
               id="path16054"
               transform="matrix(0.33765052,0,0,0.29079375,756.85182,100.36578)"
               d="m -2307.5938,-511.4375 c -17.2236,1.7337 -29.1562,4.93745 -29.1562,10.125 0.5477,1.26057 11.9934,79.1588 12.9688,99 0.3266,6.64546 9.9058,12.17778 24.7812,15.65625 0.036,0.003 0.095,-0.007 0.125,0 1.6551,-0.36407 3.0625,-2.90625 3.0625,-2.90625 0,0 -8.3544,-83.98277 -11.7813,-121.875 z"
               style="opacity:0.60619465;color:#000000;fill:#ea943b;fill-opacity:1;fill-rule:nonzero;stroke:none;stroke-width:2;marker:none;visibility:visible;display:inline;overflow:visible;enable-background:accumulate" />
            <path
               inkscape:connector-curvature="0"
               id="path16056"
               transform="matrix(0.33765052,0,0,0.29079375,756.85182,100.36578)"
               d="m -2223.4375,-511.5625 c -0.412,48.16817 -2.1061,94.26402 -3.375,101.03125 -5.1342,27.38228 -59.7684,25.80032 -91.375,16.3125 0.3055,0.21477 0.6091,0.44628 0.9375,0.65625 0.2717,0.17398 0.5566,0.36062 0.8438,0.53125 0.1097,0.0652 0.2317,0.12278 0.3437,0.1875 0.5931,0.34267 1.1895,0.67158 1.8437,1 0.1671,0.084 0.3291,0.16697 0.5,0.25 0.7551,0.36672 1.5459,0.71485 2.375,1.0625 0.8032,0.33708 1.6303,0.65025 2.5,0.96875 0.2861,0.10476 0.582,0.20981 0.875,0.3125 0.6591,0.231 1.3377,0.46713 2.0313,0.6875 0.3386,0.10758 0.6846,0.2075 1.0313,0.3125 0.784,0.23736 1.5824,0.46361 2.4062,0.6875 0.2587,0.0703 0.5188,0.14978 0.7812,0.21875 0.9877,0.25948 1.9912,0.51007 3.0313,0.75 1.9137,0.44145 3.9214,0.84647 6,1.21875 0.4085,0.0731 0.8355,0.14838 1.25,0.21875 0.1674,0.0284 0.3316,0.0658 0.5,0.0937 1.2001,0.19922 2.4403,0.38672 3.6875,0.5625 0.084,0.0119 0.1656,0.0195 0.25,0.0312 1.13,0.15741 2.3028,0.29982 3.4688,0.4375 0.9257,0.10913 1.8653,0.21608 2.8124,0.3125 0.7336,0.0748 1.4417,0.15168 2.1876,0.21875 0.052,0.005 0.1038,-0.005 0.1562,0 0.9321,0.0831 1.8935,0.14803 2.8438,0.21875 0.6954,0.0517 1.3889,0.11127 2.0937,0.15625 0.9722,0.0621 1.9485,0.10717 2.9375,0.15625 0.8085,0.0401 1.6184,0.0624 2.4375,0.0937 1.0934,0.0418 2.2015,0.0992 3.3125,0.125 0.1344,0.003 0.2716,-0.003 0.4062,0 1.6169,0.0346 3.2559,0.0625 4.9063,0.0625 0.021,0 0.041,1e-5 0.062,0 6.4875,-0.002 12.6319,-0.25038 18.375,-0.71875 2.0876,-0.17083 4.1483,-0.36542 6.125,-0.59375 1.8493,-0.21332 3.6599,-0.45706 5.4062,-0.71875 0.2571,-0.0386 0.4953,-0.0854 0.75,-0.125 2.2191,-0.34448 4.3682,-0.70493 6.4063,-1.125 0.2748,-0.0568 0.5411,-0.1294 0.8125,-0.1875 1.4401,-0.30761 2.8147,-0.62444 4.1562,-0.96875 5.1477,-1.32118 9.5801,-2.90813 13.125,-4.71875 1.0134,-0.51773 1.9427,-1.07161 2.8126,-1.625 1.7387,-1.10606 3.1813,-2.26242 4.3124,-3.5 0.5656,-0.61879 1.0636,-1.25741 1.4688,-1.90625 0.4052,-0.64884 0.7295,-1.323 0.9688,-2 -0.04,-3.28814 0.024,-6.79339 0.1874,-10.46875 1.4631,-35.51607 11.0091,-86.10792 12.3126,-92.59375 9e-4,-0.0102 0,-0.021 0,-0.0312 0.014,-0.0697 0.01,-0.14928 0,-0.21875 -0.2208,-2.98023 -17.9156,-5.73453 -41.2813,-7.375 z"
               style="color:#000000;fill:#d36925;fill-opacity:1;fill-rule:nonzero;stroke:none;stroke-width:2;marker:none;visibility:visible;display:inline;overflow:visible;enable-background:accumulate" />
          </g>
        </g>
      </g>
    </g>
  </g>
</svg>
