<?xml version="1.0" encoding="UTF-8" standalone="no"?>
<!-- Created with Inkscape (http://www.inkscape.org/) -->

<svg
   xmlns:dc="http://purl.org/dc/elements/1.1/"
   xmlns:cc="http://creativecommons.org/ns#"
   xmlns:rdf="http://www.w3.org/1999/02/22-rdf-syntax-ns#"
   xmlns:svg="http://www.w3.org/2000/svg"
   xmlns="http://www.w3.org/2000/svg"
   xmlns:sodipodi="http://sodipodi.sourceforge.net/DTD/sodipodi-0.dtd"
   xmlns:inkscape="http://www.inkscape.org/namespaces/inkscape"
   width="294.17319"
   height="299.36234"
   viewBox="0 0 77.833322 79.206293"
   version="1.1"
   id="svg23489"
   inkscape:version="0.48.5 r10040"
   sodipodi:docname="pot_02.svg"
   tags="pot, terracotta pot, terracotta, urn,vase">
  <defs
     id="defs23483" />
  <sodipodi:namedview
     id="base"
     pagecolor="#7d848b"
     bordercolor="#666666"
     borderopacity="1.0"
     inkscape:pageopacity="0"
     inkscape:pageshadow="2"
     inkscape:zoom="0.85235729"
     inkscape:cx="204.56621"
     inkscape:cy="326.17912"
     inkscape:document-units="px"
     inkscape:current-layer="layer1"
     showgrid="false"
     inkscape:pagecheckerboard="false"
     showborder="true"
     units="px"
     inkscape:window-width="1920"
     inkscape:window-height="1017"
     inkscape:window-x="-8"
     inkscape:window-y="-8"
     inkscape:window-maximized="1"
     inkscape:showpageshadow="false"
     guidetolerance="28"
     fit-margin-top="20"
     fit-margin-left="20"
     fit-margin-right="20"
     fit-margin-bottom="20">
    <inkscape:grid
       type="xygrid"
       id="grid24034"
       spacingx="1px"
       spacingy="1px"
       empspacing="8"
       visible="true"
       enabled="true"
       snapvisiblegridlinesonly="true"
       originx="-102.35207px"
       originy="-179.30156px" />
  </sodipodi:namedview>
  <metadata
     id="metadata23486">
    <rdf:RDF>
      <cc:Work
         rdf:about="">
        <dc:format>image/svg+xml</dc:format>
        <dc:type
           rdf:resource="http://purl.org/dc/dcmitype/StillImage" />
        <dc:title></dc:title>
        <cc:license
           rdf:resource="" />
        <dc:creator>
          <cc:Agent>
            <dc:title>Robert Brooks</dc:title>
          </cc:Agent>
        </dc:creator>
      </cc:Work>
    </rdf:RDF>
  </metadata>
  <g
     inkscape:label="Layer 1"
     inkscape:groupmode="layer"
     id="layer1"
     transform="translate(-27.080655,-170.3535)">
    <g
       id="g16417"
       transform="translate(1109.5398,-598.427)">
      <g
         transform="translate(0,144.03193)"
         id="g15565">
        <g
           transform="translate(-305.06952,345.30919)"
           id="g15567">
          <g
             transform="translate(-71.39514,44.821223)"
             id="g15569">
            <g
               id="g15571"
               transform="translate(-22.956652,489.39669)">
              <g
                 id="g15573">
                <g
                   id="g15575"
                   transform="matrix(0.6637215,0,0,-0.77066961,-640.10908,-209.42685)">
                  <path
                     sodipodi:nodetypes="sssssss"
                     inkscape:connector-curvature="0"
                     id="path15577"
                     d="m -6.0544848,-34.421253 c -11.9943862,0 -20.2983402,2.725491 -21.7180232,5.820256 -0.513753,1.119929 -0.627921,4.646869 0,6.280553 1.221563,3.178182 9.723637,4.454547 21.7180232,4.454547 11.994386,0 20.4252398,-1.304664 21.7180238,-4.454547 0.342502,-0.834512 0.862091,-4.641034 0,-6.223469 -1.628888,-2.989948 -9.7236378,-5.87734 -21.7180238,-5.87734 z"
                     style="color:#000000;fill:#b7855a;fill-opacity:1;fill-rule:nonzero;stroke:#38290e;stroke-width:5.2839036;stroke-linejoin:round;stroke-miterlimit:4;stroke-opacity:1;stroke-dasharray:none;marker:none;visibility:visible;display:inline;overflow:visible;enable-background:accumulate" />
                  <path
                     style="color:#000000;fill:#d36925;fill-opacity:1;fill-rule:nonzero;stroke:none;stroke-width:2;marker:none;visibility:visible;display:inline;overflow:visible;enable-background:accumulate"
                     d="m -6.0544848,-34.421253 c -11.9943862,0 -20.2983402,2.725491 -21.7180232,5.820256 -0.513753,1.119929 -0.627921,4.646869 0,6.280553 1.221563,3.178182 9.723637,5.710389 21.7180232,5.710389 11.994386,0 20.4252398,-2.560506 21.7180238,-5.710389 0.342502,-0.834512 0.862091,-4.641034 0,-6.223469 -1.628888,-2.989948 -9.7236378,-5.87734 -21.7180238,-5.87734 z"
                     id="path15579"
                     inkscape:connector-curvature="0"
                     sodipodi:nodetypes="sssssss" />
                </g>
                <g
                   id="g15581"
                   transform="translate(-637.68367,-213.13558)">
                  <path
                     style="color:#000000;fill:#b7855a;fill-opacity:1;fill-rule:nonzero;stroke:#38290e;stroke-width:4.23333359;stroke-miterlimit:4;stroke-opacity:1;stroke-dasharray:none;marker:none;visibility:visible;display:inline;overflow:visible;enable-background:accumulate"
                     d="m 25.072575,-0.0829054 c 0,9.8351258 -4.90659,17.2907254 -12.337471,21.8151504 -5.369834,3.26952 -11.1266241,2.83547 -18.2338558,2.83547 -5.2787212,0 -11.2574362,1.213677 -15.7053262,-0.619468 -9.827867,-4.050441 -16.728483,-12.367516 -16.728483,-24.0311524 0,-16.9423576 14.56021,-25.7706196 31.5025682,-25.7706196 16.9423578,0 31.5025678,8.828262 31.5025678,25.7706196 z"
                     id="path15583"
                     inkscape:connector-curvature="0"
                     sodipodi:nodetypes="sssssss" />
                  <path
                     sodipodi:nodetypes="sssss"
                     inkscape:connector-curvature="0"
                     id="path15585"
                     d="m 25.072575,-0.0829054 c 0,16.9423574 -14.56021,26.8235164 -31.5025678,26.8235164 -16.9423582,0 -31.5025682,-9.881159 -31.5025682,-26.8235164 0,-16.9423576 14.56021,-25.7706196 31.5025682,-25.7706196 16.9423578,0 31.5025678,8.828262 31.5025678,25.7706196 z"
                     style="color:#000000;fill:#e4803f;fill-opacity:1;fill-rule:nonzero;stroke:none;stroke-width:2;marker:none;visibility:visible;display:inline;overflow:visible;enable-background:accumulate" />
                  <path
                     style="color:#000000;fill:#e88e3c;fill-opacity:1;fill-rule:nonzero;stroke:none;stroke-width:2;marker:none;visibility:visible;display:inline;overflow:visible;enable-background:accumulate"
                     d="m -2471.8125,-969.34375 c -22.089,5.05354 -41.5763,14.76729 -55.9687,29.03125 -27.0608,35.13262 -11.9158,80.6889 34.0312,69.6875 58.9009,-14.10302 66.3765,-74.65821 39,-91.25 -6.5265,-3.95547 -12.1996,-6.2517 -17.0625,-7.46875 z"
                     transform="matrix(0.26458334,0,0,0.26458334,637.68366,231.69807)"
                     id="path15587"
                     inkscape:connector-curvature="0" />
                  <path
                     style="opacity:0.76106196;color:#000000;fill:#d36925;fill-opacity:1;fill-rule:nonzero;stroke:none;stroke-width:2;marker:none;visibility:visible;display:inline;overflow:visible;enable-background:accumulate"
                     d="m -138.71875,-96.59375 c -3.01763,9.180262 -4.65625,19.275388 -4.65625,30.28125 0,64.0341054 55.028392,101.375 119.0625,101.375 64.034107,0 119.0625,-37.3408946 119.0625,-101.375 0,-10.092208 -1.35253,-19.441911 -3.90625,-28 C 90.93904,-71.537562 74.994135,7.9417196 -19.90625,6.8402023 -133.0452,5.5269882 -140.25219,-66.100201 -138.71875,-96.59375 z"
                     transform="matrix(0.26458334,0,0,0.26458334,-6.3049604e-6,17.465015)"
                     id="path15589"
                     inkscape:connector-curvature="0"
                     sodipodi:nodetypes="cssscsc" />
                </g>
              </g>
            </g>
          </g>
        </g>
        <g
           id="g15607"
           transform="matrix(0.86225727,0,0,0.86314743,-1038.5538,661.57704)">
          <path
             style="color:#000000;fill:#b7855a;fill-opacity:1;fill-rule:nonzero;stroke:#38290e;stroke-width:16;stroke-linejoin:round;stroke-miterlimit:4;stroke-opacity:1;stroke-dasharray:none;marker:none;visibility:visible;display:inline;overflow:visible;enable-background:accumulate"
             d="m -22.875,-200.25 c -1.41666,0 -2.827535,0.0146 -4.21875,0.0312 -43.127669,0.51649 -73.78803,9.02881 -77.28125,24.90625 -0.96963,4.40717 -2.82558,13.97841 -0.78125,20.1875 0.0532,0.20643 0.11334,0.4008 0.1875,0.59375 0.14428,0.37538 0.30241,0.74176 0.5,1.09375 0.005,0.009 -0.005,0.0227 0,0.0312 6.125169,11.48208 37.677298,10.49641 81.59375,10.49641 43.916452,0 75.177144,0.89471 81.53125,-10.49641 0.210445,-0.35597 0.375319,-0.74507 0.53125,-1.125 0.03877,-0.0945 0.08775,-0.2076 0.125,-0.3125 0.0018,-0.009 -0.0017,-0.022 0,-0.0312 1.198885,-3.41696 1.580391,-12.10415 -0.125,-18.46875 -5.553513,-20.72599 -34.866906,-26.53146 -77.90625,-26.875 -1.369818,-0.021 -2.73959,-0.0312 -4.15625,-0.0312 z"
             transform="matrix(0.26458334,0,0,0.26458334,-6.3049604e-6,18.562493)"
             id="path15609"
             inkscape:connector-curvature="0"
             sodipodi:nodetypes="ssscsccsccccscs" />
          <path
             sodipodi:nodetypes="sssssss"
             inkscape:connector-curvature="0"
             id="path15611"
             d="m -6.0544848,-34.421253 c -11.9943862,0 -20.6087542,2.25987 -21.5628162,6.59629 -0.264754,1.203365 -0.783128,3.870835 -0.155207,5.504519 1.221563,3.178182 9.723637,5.710389 21.7180232,5.710389 11.994386,0 20.4252398,-2.560506 21.7180238,-5.710389 0.342502,-0.834512 0.466399,-3.24119 0,-4.981814 -1.516766,-5.660648 -9.7236378,-7.118995 -21.7180238,-7.118995 z"
             style="color:#000000;fill:#e4803f;fill-opacity:1;fill-rule:nonzero;stroke:none;stroke-width:2;marker:none;visibility:visible;display:inline;overflow:visible;enable-background:accumulate" />
          <path
             style="color:#000000;fill:#ff8e47;fill-opacity:1;fill-rule:nonzero;stroke:none;stroke-width:2;marker:none;visibility:visible;display:inline;overflow:visible;enable-background:accumulate"
             d="m -24,-200.25 c -42.278729,0 -72.637022,8.54789 -76,24.9375 -3.53317,17.21905 29.136319,26.30804 80.349118,25.72143 46.858139,-0.53672 82.455297,-14.91515 65.048677,-35.96952 C 37.776036,-194.77958 8.6956903,-200.25 -24,-200.25 z"
             transform="matrix(0.28369789,0,0,0.26458334,0.75594964,18.562493)"
             id="path15613"
             inkscape:connector-curvature="0"
             sodipodi:nodetypes="sssss" />
          <path
             style="color:#000000;fill:#5c2f11;fill-opacity:1;fill-rule:nonzero;stroke:none;stroke-width:10;marker:none;visibility:visible;display:inline;overflow:visible;enable-background:accumulate"
             d="m 8.5595493,-27.902655 c 0,1.96103 -6.6448848,3.550759 -14.8417654,3.550759 -8.1968819,0 -14.8417669,-1.589729 -14.8417669,-3.550759 0,-1.961031 6.644885,-3.55076 14.8417669,-3.55076 8.1968806,0 14.8417654,1.589729 14.8417654,3.55076 z"
             id="path15615"
             inkscape:connector-curvature="0" />
          <path
             style="color:#000000;fill:#d76f2b;fill-opacity:1;fill-rule:nonzero;stroke:none;stroke-width:2;marker:none;visibility:visible;display:inline;overflow:visible;enable-background:accumulate"
             d="m 50.4375,-178.9375 c 1.759825,9.38574 1.792393,33.19675 -66.28125,35.21875 -75.512015,2.24294 -83.029955,-15.06716 -84.65625,-29.15625 -0.92539,5.09814 -1.94001,13.10606 -0.0625,18.34375 4.305859,12.01203 34.283771,21.59375 76.5625,21.59375 42.278728,0 72.005596,-9.68868 76.5625,-21.59375 1.207277,-3.15406 1.643999,-12.23376 0,-18.8125 -0.498832,-1.99616 -1.223904,-3.86569 -2.125,-5.59375 z"
             transform="matrix(0.28369789,0,0,0.26458334,0.75594964,18.562493)"
             id="path15617"
             inkscape:connector-curvature="0"
             sodipodi:nodetypes="cscssssc" />
        </g>
      </g>
    </g>
  </g>
</svg>
