<?xml version="1.0" encoding="UTF-8" standalone="no"?>
<!-- Created with Inkscape (http://www.inkscape.org/) -->

<svg
   xmlns:dc="http://purl.org/dc/elements/1.1/"
   xmlns:cc="http://creativecommons.org/ns#"
   xmlns:rdf="http://www.w3.org/1999/02/22-rdf-syntax-ns#"
   xmlns:svg="http://www.w3.org/2000/svg"
   xmlns="http://www.w3.org/2000/svg"
   xmlns:sodipodi="http://sodipodi.sourceforge.net/DTD/sodipodi-0.dtd"
   xmlns:inkscape="http://www.inkscape.org/namespaces/inkscape"
   width="351.43866"
   height="466.66019"
   viewBox="0 0 92.984811 123.47052"
   version="1.1"
   id="svg23489"
   inkscape:version="0.48.5 r10040"
   sodipodi:docname="pot_03.svg"
   tags="pot, terracotta pot, terracotta, urn,vase">
  <defs
     id="defs23483" />
  <sodipodi:namedview
     id="base"
     pagecolor="#7d848b"
     bordercolor="#666666"
     borderopacity="1.0"
     inkscape:pageopacity="0"
     inkscape:pageshadow="2"
     inkscape:zoom="0.85235729"
     inkscape:cx="448.32837"
     inkscape:cy="437.19952"
     inkscape:document-units="px"
     inkscape:current-layer="layer1"
     showgrid="false"
     inkscape:pagecheckerboard="false"
     showborder="true"
     units="px"
     inkscape:window-width="1920"
     inkscape:window-height="1017"
     inkscape:window-x="-8"
     inkscape:window-y="-8"
     inkscape:window-maximized="1"
     inkscape:showpageshadow="false"
     guidetolerance="28"
     fit-margin-top="20"
     fit-margin-left="20"
     fit-margin-right="20"
     fit-margin-bottom="20">
    <inkscape:grid
       type="xygrid"
       id="grid24034"
       spacingx="1px"
       spacingy="1px"
       empspacing="8"
       visible="true"
       enabled="true"
       snapvisiblegridlinesonly="true"
       originx="141.41009px"
       originy="-68.281153px" />
  </sodipodi:namedview>
  <metadata
     id="metadata23486">
    <rdf:RDF>
      <cc:Work
         rdf:about="">
        <dc:format>image/svg+xml</dc:format>
        <dc:type
           rdf:resource="http://purl.org/dc/dcmitype/StillImage" />
        <dc:title></dc:title>
        <cc:license
           rdf:resource="" />
        <dc:creator>
          <cc:Agent>
            <dc:title>Robert Brooks</dc:title>
          </cc:Agent>
        </dc:creator>
      </cc:Work>
    </rdf:RDF>
  </metadata>
  <g
     inkscape:label="Layer 1"
     inkscape:groupmode="layer"
     id="layer1"
     transform="translate(37.414758,-155.46343)">
    <g
       id="g16380"
       transform="translate(949.44545,-568.90687)">
      <g
         id="g15956"
         transform="translate(254.53919,144.03193)">
        <g
           id="g15958"
           transform="translate(-1188.9008,646.52916)">
          <path
             style="color:#000000;fill:#b7855a;fill-opacity:1;fill-rule:nonzero;stroke:#351907;stroke-width:16;stroke-miterlimit:4;stroke-opacity:1;stroke-dasharray:none;marker:none;visibility:visible;display:inline;overflow:visible;enable-background:accumulate"
             d="m -1346.6875,-403.3125 c -8.0043,0 -15.8671,0.52491 -23.5,1.5625 -1.9082,0.2594 -3.8095,0.55117 -5.6875,0.875 -4.695,0.80958 -9.2746,1.82076 -13.75,3.03125 -0.8951,0.24207 -1.8023,0.49196 -2.6875,0.75 -4.4262,1.29037 -8.7212,2.78057 -12.875,4.46875 -9.9694,4.05117 -19.0915,9.2453 -27.0625,15.5625 -1.3285,1.05295 -2.6119,2.13468 -3.875,3.25 -1.2631,1.11532 -2.4925,2.25998 -3.6875,3.4375 -0.5975,0.58876 -1.2013,1.17697 -1.7813,1.78125 -0.5851,0.6094 -1.1517,1.21858 -1.7187,1.84375 -0.562,0.61978 -1.1125,1.23974 -1.6563,1.875 -0.549,0.64101 -1.0637,1.28075 -1.5937,1.9375 -0.5251,0.65072 -1.0563,1.3026 -1.5625,1.96875 -2.0303,2.67032 -3.8825,5.4573 -5.5938,8.375 -0.4267,0.72769 -0.8439,1.44447 -1.25,2.1875 -1.2231,2.23643 -2.346,4.53119 -3.375,6.90625 -0.5874,1.35584 -1.1345,2.75538 -1.6562,4.15625 -0.082,0.22169 -0.1692,0.43344 -0.25,0.65625 0,0.009 0,0.022 0,0.0312 -0.074,0.20566 -0.1457,0.41838 -0.2188,0.625 -0.5091,1.4383 -0.9986,2.89031 -1.4374,4.375 -1.0046,3.39904 -1.8179,6.92124 -2.4376,10.5625 -0.2909,1.70979 -0.5475,3.45577 -0.75,5.21875 -0.012,0.105 -0.019,0.20732 -0.031,0.3125 0,0.0103 0,0.021 0,0.0312 -0.1033,0.93041 -0.2031,1.86737 -0.2812,2.8125 -0.2388,2.87646 -0.3438,5.80001 -0.3438,8.8125 0,0.6888 0,1.41081 0.031,2.125 1.5519,54.91935 62.1903,163.17065 66.3438,171.1875 5.9823,11.54662 23.5949,15.5 52.6875,15.5 29.0925,0 49.6566,-7.4957 52.6875,-15.5 3.3184,-8.76356 66.375,-119.09541 66.375,-173.3125 0,-27.01439 -9.8049,-48.57332 -25.9375,-64.46875 -1.195,-1.17752 -2.4244,-2.32218 -3.6875,-3.4375 -1.2631,-1.11532 -2.5465,-2.19705 -3.875,-3.25 -7.971,-6.3172 -17.0931,-11.51133 -27.0625,-15.5625 -4.1538,-1.68818 -8.4488,-3.17838 -12.875,-4.46875 -0.8852,-0.25804 -1.7924,-0.50793 -2.6875,-0.75 -4.4754,-1.21049 -9.055,-2.22167 -13.75,-3.03125 -1.878,-0.32383 -3.7793,-0.6156 -5.6875,-0.875 -7.6329,-1.03759 -15.4957,-1.5625 -23.5,-1.5625 z"
             transform="matrix(0.26458334,0,0,0.26458334,349.8816,80.852447)"
             id="path15960"
             inkscape:connector-curvature="0" />
          <path
             style="color:#000000;fill:#e4803f;fill-opacity:1;fill-rule:nonzero;stroke:none;stroke-width:2;marker:none;visibility:visible;display:inline;overflow:visible;enable-background:accumulate"
             d="m -1346.6875,-403.3125 c -64.0341,0 -119.0625,33.37214 -119.0625,97.40625 0,54.20383 62.1676,165.19169 66.375,173.3125 5.9823,11.54662 23.5949,15.5 52.6875,15.5 29.0925,0 49.6566,-7.4957 52.6875,-15.5 3.3184,-8.76356 66.375,-119.09541 66.375,-173.3125 0,-64.03411 -55.0284,-97.40625 -119.0625,-97.40625 z"
             transform="matrix(0.26458334,0,0,0.26458334,349.8816,80.852447)"
             id="path15962"
             inkscape:connector-curvature="0"
             sodipodi:nodetypes="sssssss" />
          <path
             style="color:#000000;fill:#a97a2d;fill-opacity:1;fill-rule:nonzero;stroke:none;stroke-width:2;marker:none;visibility:visible;display:inline;overflow:visible;enable-background:accumulate"
             d="m -24.3125,35.0625 c 64.034107,0 -64.034108,0 0,0 z"
             transform="matrix(0.26458334,0,0,0.26458334,-6.3049604e-6,17.465015)"
             id="path15964"
             inkscape:connector-curvature="0"
             sodipodi:nodetypes="ss" />
          <path
             style="opacity:0.76106196;color:#000000;fill:#cd621d;fill-opacity:1;fill-rule:nonzero;stroke:none;stroke-width:2;marker:none;visibility:visible;display:inline;overflow:visible;enable-background:accumulate"
             d="m -1286,-391.71875 c 17.7283,17.04606 44.0892,50.19256 35.8101,99.31543 -12.4439,73.83347 -48.9436,146.84082 -121.1226,146.84082 -34.0978,0 -46.5044,-26.69045 -57.8437,-45.625 14.3632,30.61228 27.8946,54.95246 29.7812,58.59375 5.9823,11.54662 23.5949,15.5 52.6875,15.5 29.0925,0 49.6566,-7.4957 52.6875,-15.5 3.3184,-8.76356 66.375,-119.09541 66.375,-173.3125 0,-42.13745 -23.8318,-71.00216 -58.375,-85.8125 z"
             transform="matrix(0.26458334,0,0,0.26458334,349.8816,80.852447)"
             id="path15966"
             inkscape:connector-curvature="0"
             sodipodi:nodetypes="csscssssc" />
          <path
             style="opacity:0.59734509;color:#000000;fill:#e88e3c;fill-opacity:1;fill-rule:nonzero;stroke:none;stroke-width:2;marker:none;visibility:visible;display:inline;overflow:visible;enable-background:accumulate"
             d="m -1346.6875,-403.3125 c -64.0341,0 -119.0625,33.37214 -119.0625,97.40625 0,6.53301 0.9041,13.90924 2.5,21.8125 13.0884,20.74419 38.5572,33.78323 71.1875,29.03125 85.4477,-12.44385 74.529,-113.53059 45.6436,-142.69336 -3.6097,-3.64434 16.9091,-3.09664 12.0751,-5.15039 -4.0736,-0.28127 -8.1813,-0.40625 -12.3437,-0.40625 z"
             transform="matrix(0.26458334,0,0,0.26458334,349.8816,80.852447)"
             id="path15968"
             inkscape:connector-curvature="0"
             sodipodi:nodetypes="sscsscs" />
          <path
             sodipodi:nodetypes="ss"
             inkscape:connector-curvature="0"
             id="path15970"
             transform="matrix(0.26458334,0,0,0.26458334,-6.3049604e-6,17.465015)"
             d="m -24.3125,35.0625 c 64.034107,0 -64.034108,0 0,0 z"
             style="color:#000000;fill:#a97a2d;fill-opacity:1;fill-rule:nonzero;stroke:none;stroke-width:2;marker:none;visibility:visible;display:inline;overflow:visible;enable-background:accumulate" />
          <path
             inkscape:connector-curvature="0"
             style="opacity:0.61946902;color:#000000;fill:#d76f2b;fill-opacity:1;fill-rule:nonzero;stroke:none;stroke-width:2;marker:none;visibility:visible;display:inline;overflow:visible;enable-background:accumulate"
             d="m -4634.0312,2940.75 c 12.1613,57.6608 59.8936,142.9499 63.5624,150.0312 5.9824,11.5467 23.5949,15.5 52.6876,15.5 29.0925,0 49.6565,-7.4956 52.6874,-15.5 2.8348,-7.4863 49.2461,-89.1042 62.7188,-146.5312 -41.6183,33.4475 -188.34,52.2591 -231.6562,-3.5 z"
             transform="matrix(0.26458334,0,0,0.26458334,1188.9008,-771.9986)"
             id="path15972" />
        </g>
        <g
           transform="matrix(1,0,0,0.87275835,-1211.6303,676.45054)"
           id="g15974">
          <g
             id="g15976">
            <g
               transform="matrix(0.95851545,0,0,0.95851545,149.59039,-15.270371)"
               id="g15978">
              <path
                 sodipodi:nodetypes="ssccccss"
                 style="color:#000000;fill:#513a16;fill-opacity:1;fill-rule:nonzero;stroke:#351907;stroke-width:16;stroke-linecap:round;stroke-linejoin:round;stroke-miterlimit:4;stroke-opacity:1;stroke-dasharray:none;stroke-dashoffset:0;marker:none;visibility:visible;display:inline;overflow:visible;enable-background:accumulate"
                 d="m 58.90625,-431.47339 c -28.892994,0 -50.2385259,5.99448 -50.2385259,13.40625 0,1.29821 -0.9373735,7.0837 0.4033207,14.90777 0.6992718,19.33479 -0.957956,93.34782 -12.4772948,106.31562 5.6406802,25.56007 111.70487,24.64438 123.3125,0.8125 0.62127,-0.6543 -16.41178,-37.29849 -10.19312,-115.64942 1.77608,-1.34899 -0.56835,-4.88372 -0.56835,-6.38647 0,-7.41177 -21.345543,-13.40625 -50.23853,-13.40625 z"
                 transform="matrix(0.27603451,0,0,0.27603451,-156.06467,34.610164)"
                 id="path15980"
                 inkscape:connector-curvature="0" />
              <path
                 sodipodi:nodetypes="ccccc"
                 style="color:#000000;fill:#e4803f;fill-opacity:1;fill-rule:nonzero;stroke:none;stroke-width:4.23333359;marker:none;visibility:visible;display:inline;overflow:visible;enable-background:accumulate"
                 d="m 7.4489892,-417.48134 c 2.7197718,16.08971 2.4935021,103.06198 -10.8239892,120.63759 6.5228439,36.73693 115.59077,41.71461 124.6875,-1.15625 -14.19783,-21.94692 -13.64423,-105.11372 -11.345,-119.18447 -32.97408,-0.0527 -75.028362,-0.0547 -102.5185108,-0.29687 z"
                 transform="matrix(0.27603451,0,0,0.27603451,-156.06467,34.610164)"
                 id="path15982"
                 inkscape:connector-curvature="0" />
              <path
                 sodipodi:nodetypes="ccccccc"
                 inkscape:connector-curvature="0"
                 id="path15984"
                 transform="matrix(0.27603451,0,0,0.27603451,-156.06467,35.29715)"
                 d="m 76,-418.91089 c 0.2217,77.13087 7.555366,116.10853 7.555366,116.10853 2.933042,14.07861 -12.99965,33.05649 -51.805366,29.48986 34.824229,8.42503 83.60852,0.87228 89.5625,-27.1875 -11.77481,-6.19727 -14.48182,-101.57388 -12.59375,-118.31714 -10.418471,-0.0167 -17.415343,-0.0375 -28.612491,-0.0937 z"
                 style="opacity:0.8495575;color:#000000;fill:#d76f2b;fill-opacity:1;fill-rule:nonzero;stroke:none;stroke-width:4.23333359;marker:none;visibility:visible;display:inline;overflow:visible;enable-background:accumulate" />
            </g>
            <path
               sodipodi:nodetypes="sssss"
               style="color:#000000;fill:#ff8e47;fill-opacity:1;fill-rule:nonzero;stroke:none;stroke-width:10;marker:none;visibility:visible;display:inline;overflow:visible;enable-background:accumulate"
               d="m 29.095562,-92.476055 c 0,1.96103 -5.866777,3.321279 -13.51138,3.321279 -7.6446048,0 -13.6133109,-1.438797 -13.6133109,-3.399827 0,-1.961031 5.9687061,-3.701692 13.6133109,-3.701692 7.644603,0 13.51138,1.819209 13.51138,3.78024 z"
               id="path15986"
               inkscape:connector-curvature="0" />
            <path
               sodipodi:nodetypes="sssss"
               inkscape:connector-curvature="0"
               id="path15988"
               d="m 26.673011,-93.034778 c 0,1.415521 -5.013774,2.563029 -11.198577,2.563029 -6.1848041,0 -11.198579,-1.147508 -11.198579,-2.563029 0,-1.415523 5.0137749,-2.56303 11.198579,-2.56303 6.184803,0 11.198577,1.147507 11.198577,2.56303 z"
               style="color:#000000;fill:#5c2f11;fill-opacity:1;fill-rule:nonzero;stroke:none;stroke-width:10;marker:none;visibility:visible;display:inline;overflow:visible;enable-background:accumulate" />
          </g>
        </g>
        <g
           id="g15990"
           transform="matrix(0.74049478,-0.11440118,0.11440118,0.74049478,-1181.7318,641.4912)"
           inkscape:transform-center-x="-23.591756"
           inkscape:transform-center-y="17.944767">
          <path
             style="color:#000000;fill:#b27b4c;fill-opacity:1;fill-rule:nonzero;stroke:#351907;stroke-width:20.01922417;stroke-linejoin:round;stroke-miterlimit:4;stroke-opacity:1;stroke-dasharray:none;marker:none;visibility:visible;display:inline;overflow:visible;enable-background:accumulate"
             d="m 85.351531,-113.52215 c 9.972626,-2.25266 3.655066,-5.04943 15.201499,-0.10064 10.37604,4.44716 14.12893,27.084638 12.07579,35.003852 -1.64593,6.348591 -19.208569,8.978226 -19.208569,8.978226 0,0 -5.64937,35.971077 2.64219,29.025045 11.475469,-9.613267 34.059929,-16.032252 36.804379,-29.497447 2.54319,-12.477732 -5.27947,-46.048766 -19.35808,-60.713976 -14.078605,-14.66521 -28.693494,2.46791 -42.772097,-1.785 3.603146,4.67903 4.372623,0.95139 9.325498,9.2416 3.404762,5.69896 -1.454603,7.2028 5.28939,9.84834 z"
             id="path15992"
             inkscape:connector-curvature="0"
             transform="matrix(0.26458334,0,0,0.26458334,-6.3049604e-6,18.562493)"
             sodipodi:nodetypes="csscssscsc" />
          <path
             sodipodi:nodetypes="ssscssssss"
             transform="matrix(0.26458334,0,0,0.26458334,-6.3049604e-6,18.562493)"
             inkscape:connector-curvature="0"
             id="path15994"
             d="m 80.072055,-106.77615 c 6.135921,-2.31606 7.919214,-13.78529 19.651384,-8.50582 11.732171,5.27948 14.958521,28.743818 12.905381,36.663032 -1.64593,6.348591 -19.208569,8.978226 -19.208569,8.978226 0,0 -14.181043,-2.358695 -14.749525,13.16218 -0.41924,11.446221 9.100155,22.808897 17.391715,15.862865 11.475469,-9.613267 34.059929,-16.032252 36.804379,-29.497447 2.54319,-12.477732 -5.27947,-46.048766 -19.35808,-60.713976 -14.078605,-14.66521 -33.239134,-0.4868 -47.808592,-2.49309 -10.723078,-1.47663 -2.715376,32.99378 14.371907,26.54403 z"
             style="color:#000000;fill:#e4803f;fill-opacity:1;fill-rule:nonzero;stroke:none;stroke-width:14.28299999;marker:none;visibility:visible;display:inline;overflow:visible;enable-background:accumulate" />
          <path
             sodipodi:nodetypes="sscssscsss"
             id="path15996"
             transform="matrix(0.26458334,0,0,0.26458334,-6.3049604e-6,18.562493)"
             d="m 94.71875,-124.46875 c -8.912609,0.43953 -11.55652,10.75009 -17.15625,12.5 -2.338892,0.73091 -6.78175,3.40439 -8.89688,2.77679 2.928423,3.70873 8.325042,3.22385 11.39688,2.41071 6.340118,-1.67826 7.92408,-13.77947 19.65625,-8.5 11.73217,5.27948 14.95939,28.737036 12.90625,36.65625 -0.29765,1.14808 -1.10929,2.182471 -2.25,3.09375 5.77905,-2.778468 8.04844,-6.162504 9.5,-11.96875 2.07398,-8.295897 -5.81177,-31.53101 -19.5,-36.09375 -2.138786,-0.71293 -4.005767,-0.95639 -5.65625,-0.875 z"
             style="color:#000000;fill:#d56d29;fill-opacity:1;fill-rule:nonzero;stroke:none;stroke-width:14.28299999;marker:none;visibility:visible;display:inline;overflow:visible;enable-background:accumulate"
             inkscape:connector-curvature="0" />
          <path
             id="path15998"
             transform="matrix(0.26458334,0,0,0.26458334,-6.3049604e-6,18.562493)"
             d="m 128.9375,-101.1875 c 1.96177,9.652545 4.1694,23.821774 -0.34937,30.707519 -8.40368,12.805615 -46.18459,31.119992 -50.758783,18.573974 -0.41924,11.446221 9.941593,18.227039 18.233153,11.281007 11.47547,-9.613267 34.06805,-16.034805 36.8125,-29.5 1.32685,-6.509968 -0.20487,-18.749799 -3.9375,-31.0625 z"
             style="color:#000000;fill:#d56d29;fill-opacity:1;fill-rule:nonzero;stroke:none;stroke-width:14.28299999;marker:none;visibility:visible;display:inline;overflow:visible;enable-background:accumulate"
             inkscape:connector-curvature="0"
             sodipodi:nodetypes="cscssc" />
          <path
             sodipodi:nodetypes="sscsscss"
             id="path16000"
             transform="matrix(0.26458334,0,0,0.26458334,-6.3049604e-6,18.562493)"
             d="m 99.03125,-137.0625 c -11.325296,-0.19889 -23.66471,6.67388 -33.34375,3.75 -3.980139,-1.20233 -6.544041,4.93627 -3.726347,11.625 -0.295718,-8.46079 6.945757,-6.72384 13.538847,-5.625 7.466307,1.24439 18.649905,-10.37818 31.09375,-4.15625 7.69803,3.84902 15.24403,14.99183 19.875,22.9375 -3.30046,-8.68282 -7.70249,-16.79557 -12.96875,-22.28125 -4.39956,-4.58288 -9.32089,-6.15959 -14.46875,-6.25 z"
             style="color:#000000;fill:#ff8e47;fill-opacity:1;fill-rule:nonzero;stroke:none;stroke-width:14.28299999;marker:none;visibility:visible;display:inline;overflow:visible;enable-background:accumulate"
             inkscape:connector-curvature="0" />
        </g>
        <g
           transform="matrix(-0.73075311,-0.16558997,-0.16558997,0.73075311,-1208.4295,641.92994)"
           id="g16002">
          <path
             sodipodi:nodetypes="csscssscsc"
             transform="matrix(0.26458334,0,0,0.26458334,-6.3049604e-6,18.562493)"
             inkscape:connector-curvature="0"
             id="path16004"
             d="m 85.351531,-113.52215 c 9.972626,-2.25266 3.655066,-5.04943 15.201499,-0.10064 10.37604,4.44716 14.12893,27.084638 12.07579,35.003852 -1.64593,6.348591 -19.208569,8.978226 -19.208569,8.978226 0,0 -5.64937,35.971077 2.64219,29.025045 11.475469,-9.613267 34.059929,-16.032252 36.804379,-29.497447 2.54319,-12.477732 -5.27947,-46.048766 -19.35808,-60.713976 -14.078605,-14.66521 -28.693494,2.46791 -42.772097,-1.785 3.603146,4.67903 4.372623,0.95139 9.325498,9.2416 3.404762,5.69896 -1.454603,7.2028 5.28939,9.84834 z"
             style="color:#000000;fill:#b27b4c;fill-opacity:1;fill-rule:nonzero;stroke:#351907;stroke-width:20.01922417;stroke-linejoin:round;stroke-miterlimit:4;stroke-opacity:1;stroke-dasharray:none;marker:none;visibility:visible;display:inline;overflow:visible;enable-background:accumulate" />
          <path
             style="color:#000000;fill:#e89058;fill-opacity:1;fill-rule:nonzero;stroke:none;stroke-width:14.28299999;marker:none;visibility:visible;display:inline;overflow:visible;enable-background:accumulate"
             d="m 80.072055,-106.77615 c 6.135921,-2.31606 7.919214,-13.78529 19.651384,-8.50582 11.732171,5.27948 14.958521,28.743818 12.905381,36.663032 -1.64593,6.348591 -19.208569,8.978226 -19.208569,8.978226 0,0 -14.181043,-2.358695 -14.749525,13.16218 -0.41924,11.446221 9.100155,22.808897 17.391715,15.862865 11.475469,-9.613267 34.059929,-16.032252 36.804379,-29.497447 2.54319,-12.477732 -5.27947,-46.048766 -19.35808,-60.713976 -14.078605,-14.66521 -33.239134,-0.4868 -47.808592,-2.49309 -10.723078,-1.47663 -2.715376,32.99378 14.371907,26.54403 z"
             id="path16006"
             inkscape:connector-curvature="0"
             transform="matrix(0.26458334,0,0,0.26458334,-6.3049604e-6,18.562493)"
             sodipodi:nodetypes="ssscssssss" />
          <path
             inkscape:connector-curvature="0"
             style="color:#000000;fill:#d56d29;fill-opacity:1;fill-rule:nonzero;stroke:none;stroke-width:14.28299999;marker:none;visibility:visible;display:inline;overflow:visible;enable-background:accumulate"
             d="m 94.71875,-124.46875 c -8.912609,0.43953 -11.55652,10.75009 -17.15625,12.5 -2.338892,0.73091 -6.78175,3.40439 -8.89688,2.77679 2.928423,3.70873 8.325042,3.22385 11.39688,2.41071 6.340118,-1.67826 7.92408,-13.77947 19.65625,-8.5 11.73217,5.27948 14.95939,28.737036 12.90625,36.65625 -0.29765,1.14808 -1.10929,2.182471 -2.25,3.09375 5.77905,-2.778468 8.04844,-6.162504 9.5,-11.96875 2.07398,-8.295897 -5.81177,-31.53101 -19.5,-36.09375 -2.138786,-0.71293 -4.005767,-0.95639 -5.65625,-0.875 z"
             transform="matrix(0.26458334,0,0,0.26458334,-6.3049604e-6,18.562493)"
             id="path16008"
             sodipodi:nodetypes="sscssscsss" />
          <path
             sodipodi:nodetypes="cscssc"
             inkscape:connector-curvature="0"
             style="color:#000000;fill:#d56d29;fill-opacity:1;fill-rule:nonzero;stroke:none;stroke-width:14.28299999;marker:none;visibility:visible;display:inline;overflow:visible;enable-background:accumulate"
             d="m 128.9375,-101.1875 c 1.96177,9.652545 4.1694,23.821774 -0.34937,30.707519 -8.40368,12.805615 -46.18459,31.119992 -50.758783,18.573974 -0.41924,11.446221 9.941593,18.227039 18.233153,11.281007 11.47547,-9.613267 34.06805,-16.034805 36.8125,-29.5 1.32685,-6.509968 -0.20487,-18.749799 -3.9375,-31.0625 z"
             transform="matrix(0.26458334,0,0,0.26458334,-6.3049604e-6,18.562493)"
             id="path16010" />
          <path
             inkscape:connector-curvature="0"
             style="color:#000000;fill:#ffa56d;fill-opacity:1;fill-rule:nonzero;stroke:none;stroke-width:14.28299999;marker:none;visibility:visible;display:inline;overflow:visible;enable-background:accumulate"
             d="m 99.03125,-137.0625 c -11.325296,-0.19889 -23.66471,6.67388 -33.34375,3.75 -3.980139,-1.20233 -6.544041,4.93627 -3.726347,11.625 -0.295718,-8.46079 6.945757,-6.72384 13.538847,-5.625 7.466307,1.24439 18.649905,-10.37818 31.09375,-4.15625 7.69803,3.84902 15.24403,14.99183 19.875,22.9375 -3.30046,-8.68282 -7.70249,-16.79557 -12.96875,-22.28125 -4.39956,-4.58288 -9.32089,-6.15959 -14.46875,-6.25 z"
             transform="matrix(0.26458334,0,0,0.26458334,-6.3049604e-6,18.562493)"
             id="path16012"
             sodipodi:nodetypes="sscsscss" />
        </g>
      </g>
      <g
         id="g16186"
         transform="matrix(0.74839489,0,0,0.89257468,-937.31562,758.85701)">
        <path
           style="color:#000000;fill:#b7855a;fill-opacity:1;fill-rule:nonzero;stroke:#351907;stroke-width:16;stroke-linejoin:round;stroke-miterlimit:4;stroke-opacity:1;stroke-dasharray:none;marker:none;visibility:visible;display:inline;overflow:visible;enable-background:accumulate"
           d="m -22.875,-185.79447 c -1.41666,0 -2.827535,0.0146 -4.21875,0.0312 -43.127669,0.51649 -73.78803,1.68507 -77.28125,17.56251 -0.96963,4.40717 -2.82558,6.86662 -0.78125,13.07571 0.0532,0.20643 0.11334,0.4008 0.1875,0.59375 0.14428,0.37538 0.30241,0.74176 0.5,1.09375 0.005,0.009 -0.005,0.0227 0,0.0312 6.125169,11.48208 37.677298,10.49641 81.59375,10.49641 43.916452,0 75.177144,0.89471 81.53125,-10.49641 0.210445,-0.35597 0.375319,-0.74507 0.53125,-1.125 0.03877,-0.0945 0.08775,-0.2076 0.125,-0.3125 0.0018,-0.009 -0.0017,-0.022 0,-0.0312 1.198885,-3.41696 1.580391,-3.97639 -0.125,-10.34099 -5.553513,-20.72599 -34.866906,-20.20369 -77.90625,-20.54723 -1.369818,-0.021 -2.73959,-0.0312 -4.15625,-0.0312 z"
           transform="matrix(0.26458334,0,0,0.26458334,-6.3049604e-6,18.562493)"
           id="path16188"
           inkscape:connector-curvature="0"
           sodipodi:nodetypes="ssscsccsccccscs" />
        <path
           sodipodi:nodetypes="sssssss"
           inkscape:connector-curvature="0"
           id="path16190"
           d="m -6.0544848,-30.816677 c -11.9943862,0 -20.6087542,0.536957 -21.5628162,4.873377 -0.264754,1.203365 -0.783128,1.989172 -0.155207,3.622856 1.221563,3.178182 9.723637,5.710389 21.7180232,5.710389 11.994386,0 20.4252398,-2.560506 21.7180238,-5.710389 0.342502,-0.834512 0.466399,-0.956313 0,-2.696937 -1.516766,-5.660648 -9.7236378,-5.799296 -21.7180238,-5.799296 z"
           style="color:#000000;fill:#e4803f;fill-opacity:1;fill-rule:nonzero;stroke:none;stroke-width:2;marker:none;visibility:visible;display:inline;overflow:visible;enable-background:accumulate" />
        <path
           style="color:#000000;fill:#fea45e;fill-opacity:1;fill-rule:nonzero;stroke:none;stroke-width:2;marker:none;visibility:visible;display:inline;overflow:visible;enable-background:accumulate"
           d="m -3141.7188,1338.2812 c -33.8876,0 -60.1662,1.1527 -71.1874,9 -11.1792,22.8539 99.3317,20.0084 130.266,12.476 18.4967,-4.5039 12.3275,-9.8868 6.8277,-14.6322 -13.122,-6.6047 -36.2331,-6.8438 -65.9063,-6.8438 z"
           transform="matrix(0.28175187,0,0,0.29642712,879.13348,-427.52119)"
           id="path16192"
           inkscape:connector-curvature="0"
           sodipodi:nodetypes="scscs" />
        <path
           style="color:#000000;fill:#4a301b;fill-opacity:1;fill-rule:nonzero;stroke:none;stroke-width:10;marker:none;visibility:visible;display:inline;overflow:visible;enable-background:accumulate"
           d="m 8.5595493,-26.693014 c 0,0.402209 -9.8673732,0.728264 -14.8417654,0.728264 -4.9743929,0 -14.8417669,-0.326055 -14.8417669,-0.728264 0,-0.40221 6.644885,-0.728265 14.8417669,-0.728265 8.1968806,0 14.8417654,0.326055 14.8417654,0.728265 z"
           id="path16194"
           inkscape:connector-curvature="0"
           sodipodi:nodetypes="sasss" />
        <path
           style="opacity:0.90265491;color:#000000;fill:#d9722e;fill-opacity:1;fill-rule:nonzero;stroke:none;stroke-width:2;marker:none;visibility:visible;display:inline;overflow:visible;enable-background:accumulate"
           d="m -3184.7812,1137.1562 c -2.257,9.64 -10.2456,23.9774 -66.7813,23.9774 -68.9293,0 -81.5724,-11.1291 -84.5625,-22.8524 -0.055,0.1927 -0.1418,0.3653 -0.1875,0.5626 -0.5617,2.4267 -1.4188,4.3555 -1.5625,6.6874 0.065,1.6018 0.2395,3.1479 0.6562,4.5313 0.01,0.021 0.024,0.041 0.031,0.062 0.098,0.3205 0.2219,0.6362 0.3437,0.9375 0.6775,1.6753 1.9868,3.2988 3.875,4.8437 0.7554,0.618 1.5938,1.2209 2.5313,1.8126 0.9375,0.5916 1.9493,1.1877 3.0625,1.75 2.2264,1.1245 4.798,2.168 7.6875,3.1562 1.4448,0.4941 2.9931,0.9822 4.5937,1.4375 0.8004,0.2277 1.5995,0.4389 2.4376,0.6563 1.6761,0.4347 3.4277,0.8586 5.25,1.25 3.6445,0.7826 7.5918,1.4722 11.7812,2.0624 2.0947,0.2952 4.2477,0.5702 6.4688,0.8126 2.221,0.2423 4.5029,0.4385 6.8437,0.625 1.1703,0.093 2.3322,0.2026 3.5313,0.2812 0.01,7e-4 0.021,-7e-4 0.031,0 1.965,0.1289 3.9608,0.2241 6,0.3125 1.7035,0.074 3.4032,0.1429 5.1562,0.1875 2.5607,0.065 5.1831,0.094 7.8438,0.094 6.6402,-7e-4 12.9925,-0.2293 18.9688,-0.625 1.1972,-0.079 2.3629,-0.156 3.5312,-0.25 1.1682,-0.094 2.3303,-0.2044 3.4688,-0.3126 2.277,-0.2165 4.5027,-0.4476 6.6562,-0.7187 1.2183,-0.1532 2.3853,-0.3302 3.5625,-0.5 2.9945,-0.4319 5.8466,-0.9047 8.5625,-1.4375 0.9439,-0.1852 1.8725,-0.3659 2.7812,-0.5625 1.5851,-0.3429 3.1189,-0.7179 4.5938,-1.0937 1.0508,-0.268 2.1008,-0.5288 3.0938,-0.8126 2.3854,-0.6819 4.6189,-1.422 6.6562,-2.1874 0.6814,-0.2563 1.3592,-0.5165 2,-0.7813 0.632,-0.2612 1.252,-0.5434 1.8438,-0.8125 0.1953,-0.089 0.3716,-0.1915 0.5624,-0.2812 0.7829,-0.3679 1.5429,-0.7125 2.25,-1.0938 0.9224,-0.4978 1.773,-1.0124 2.5626,-1.5312 0.5304,-0.3481 1.0308,-0.7059 1.5,-1.0626 0.3577,-0.2724 0.6786,-0.5665 1,-0.8437 0.1974,-0.1699 0.4101,-0.3284 0.5937,-0.5 0.3352,-0.3134 0.6491,-0.6189 0.9375,-0.9375 0.5767,-0.6372 1.0525,-1.2815 1.4375,-1.9375 0.1925,-0.328 0.3566,-0.6679 0.5,-1 0.4418,-1.0231 0.7952,-2.7534 0.9687,-4.8125 -0.1373,-1.031 -0.4224,-2.3432 -0.9687,-4.2812 -0.498,-1.7665 -1.1976,-3.3505 -2.0937,-4.8126 z"
           transform="matrix(0.28175187,0,0,0.29642712,912.39207,-363.5309)"
           id="path16196"
           inkscape:connector-curvature="0"
           sodipodi:nodetypes="csccccccccccccccccccccccsccsccccccccccccccsccccc" />
      </g>
    </g>
  </g>
</svg>
