<?xml version="1.0" encoding="UTF-8" standalone="no"?>
<!-- Created with Inkscape (http://www.inkscape.org/) -->

<svg
   xmlns:dc="http://purl.org/dc/elements/1.1/"
   xmlns:cc="http://creativecommons.org/ns#"
   xmlns:rdf="http://www.w3.org/1999/02/22-rdf-syntax-ns#"
   xmlns:svg="http://www.w3.org/2000/svg"
   xmlns="http://www.w3.org/2000/svg"
   xmlns:sodipodi="http://sodipodi.sourceforge.net/DTD/sodipodi-0.dtd"
   xmlns:inkscape="http://www.inkscape.org/namespaces/inkscape"
   width="294.17322"
   height="287.7847"
   viewBox="0 0 77.83333 76.143041"
   version="1.1"
   id="svg23489"
   inkscape:version="0.48.5 r10040"
   sodipodi:docname="terracotta_pot_02_side_view.svg"
   tags="pot, terracotta pot, terracotta, urn,vase">
  <defs
     id="defs23483" />
  <sodipodi:namedview
     id="base"
     pagecolor="#7d848b"
     bordercolor="#666666"
     borderopacity="1.0"
     inkscape:pageopacity="0"
     inkscape:pageshadow="2"
     inkscape:zoom="0.85235729"
     inkscape:cx="340.38121"
     inkscape:cy="271.99463"
     inkscape:document-units="px"
     inkscape:current-layer="layer1"
     showgrid="false"
     inkscape:pagecheckerboard="false"
     showborder="true"
     units="px"
     inkscape:window-width="1920"
     inkscape:window-height="1017"
     inkscape:window-x="-8"
     inkscape:window-y="-8"
     inkscape:window-maximized="1"
     inkscape:showpageshadow="false"
     guidetolerance="28"
     fit-margin-top="20"
     fit-margin-left="20"
     fit-margin-right="20"
     fit-margin-bottom="20">
    <inkscape:grid
       type="xygrid"
       id="grid24034"
       spacingx="1px"
       spacingy="1px"
       empspacing="8"
       visible="true"
       enabled="true"
       snapvisiblegridlinesonly="true"
       originx="33.462928px"
       originy="-233.48605px" />
  </sodipodi:namedview>
  <metadata
     id="metadata23486">
    <rdf:RDF>
      <cc:Work
         rdf:about="">
        <dc:format>image/svg+xml</dc:format>
        <dc:type
           rdf:resource="http://purl.org/dc/dcmitype/StillImage" />
        <dc:title></dc:title>
        <cc:license
           rdf:resource="" />
        <dc:creator>
          <cc:Agent>
            <dc:title>Robert Brooks</dc:title>
          </cc:Agent>
        </dc:creator>
      </cc:Work>
    </rdf:RDF>
  </metadata>
  <g
     inkscape:label="Layer 1"
     inkscape:groupmode="layer"
     id="layer1"
     transform="translate(8.8537358,-159.08044)">
    <g
       id="g16342"
       transform="translate(819.06622,-612.76331)">
      <g
         transform="translate(-50.53033,489.34112)"
         id="g15920">
        <g
           transform="translate(-71.39514,44.821223)"
           id="g15922">
          <g
             id="g15924"
             transform="translate(-22.956652,489.39669)">
            <g
               id="g15926">
              <g
                 id="g15928"
                 transform="matrix(0.6637215,0,0,-0.77066961,-640.10908,-209.42685)">
                <path
                   sodipodi:nodetypes="sssssss"
                   inkscape:connector-curvature="0"
                   id="path15930"
                   d="m -6.0544848,-34.421253 c -11.9943862,0 -20.2983402,2.725491 -21.7180232,5.820256 -0.513753,1.119929 -0.627921,4.646869 0,6.280553 1.221563,3.178182 9.723637,4.454547 21.7180232,4.454547 11.994386,0 20.4252398,-1.304664 21.7180238,-4.454547 0.342502,-0.834512 0.862091,-4.641034 0,-6.223469 -1.628888,-2.989948 -9.7236378,-5.87734 -21.7180238,-5.87734 z"
                   style="color:#000000;fill:#b7855a;fill-opacity:1;fill-rule:nonzero;stroke:#351907;stroke-width:5.2839036;stroke-linejoin:round;stroke-miterlimit:4;stroke-opacity:1;stroke-dasharray:none;marker:none;visibility:visible;display:inline;overflow:visible;enable-background:accumulate" />
                <path
                   style="color:#000000;fill:#d36925;fill-opacity:1;fill-rule:nonzero;stroke:none;stroke-width:2;marker:none;visibility:visible;display:inline;overflow:visible;enable-background:accumulate"
                   d="m -6.0544848,-34.421253 c -11.9943862,0 -20.2983402,2.725491 -21.7180232,5.820256 -0.513753,1.119929 -0.627921,4.646869 0,6.280553 1.221563,3.178182 9.723637,5.710389 21.7180232,5.710389 11.994386,0 20.4252398,-2.560506 21.7180238,-5.710389 0.342502,-0.834512 0.862091,-4.641034 0,-6.223469 -1.628888,-2.989948 -9.7236378,-5.87734 -21.7180238,-5.87734 z"
                   id="path15932"
                   inkscape:connector-curvature="0"
                   sodipodi:nodetypes="sssssss" />
              </g>
              <g
                 id="g15934"
                 transform="translate(-637.68367,-213.13558)">
                <path
                   style="color:#000000;fill:#b7855a;fill-opacity:1;fill-rule:nonzero;stroke:#351907;stroke-width:4.23333359;stroke-miterlimit:4;stroke-opacity:1;stroke-dasharray:none;marker:none;visibility:visible;display:inline;overflow:visible;enable-background:accumulate"
                   d="m 25.072575,-0.0829054 c 0,9.8351258 -4.90659,17.2907254 -12.337471,21.8151504 -5.369834,3.26952 -11.1266241,2.83547 -18.2338558,2.83547 -5.2787212,0 -11.2574362,1.213677 -15.7053262,-0.619468 -9.827867,-4.050441 -16.728483,-12.367516 -16.728483,-24.0311524 0,-16.9423576 14.56021,-25.7706196 31.5025682,-25.7706196 16.9423578,0 31.5025678,8.828262 31.5025678,25.7706196 z"
                   id="path15936"
                   inkscape:connector-curvature="0"
                   sodipodi:nodetypes="sssssss" />
                <path
                   sodipodi:nodetypes="sssss"
                   inkscape:connector-curvature="0"
                   id="path15938"
                   d="m 25.072575,-0.0829054 c 0,16.9423574 -14.56021,26.8235164 -31.5025678,26.8235164 -16.9423582,0 -31.5025682,-9.881159 -31.5025682,-26.8235164 0,-16.9423576 14.56021,-25.7706196 31.5025682,-25.7706196 16.9423578,0 31.5025678,8.828262 31.5025678,25.7706196 z"
                   style="color:#000000;fill:#e4803f;fill-opacity:1;fill-rule:nonzero;stroke:none;stroke-width:2;marker:none;visibility:visible;display:inline;overflow:visible;enable-background:accumulate" />
                <path
                   style="color:#000000;fill:#e88e3c;fill-opacity:1;fill-rule:nonzero;stroke:none;stroke-width:2;marker:none;visibility:visible;display:inline;overflow:visible;enable-background:accumulate"
                   d="m -2471.8125,-969.34375 c -22.089,5.05354 -41.5763,14.76729 -55.9687,29.03125 -27.0608,35.13262 -11.9158,80.6889 34.0312,69.6875 58.9009,-14.10302 66.3765,-74.65821 39,-91.25 -6.5265,-3.95547 -12.1996,-6.2517 -17.0625,-7.46875 z"
                   transform="matrix(0.26458334,0,0,0.26458334,637.68366,231.69807)"
                   id="path15940"
                   inkscape:connector-curvature="0" />
                <path
                   style="opacity:0.76106196;color:#000000;fill:#d36925;fill-opacity:1;fill-rule:nonzero;stroke:none;stroke-width:2;marker:none;visibility:visible;display:inline;overflow:visible;enable-background:accumulate"
                   d="m -138.71875,-96.59375 c -3.01763,9.180262 -4.65625,19.275388 -4.65625,30.28125 0,64.0341054 55.028392,101.375 119.0625,101.375 64.034107,0 119.0625,-37.3408946 119.0625,-101.375 0,-10.092208 -1.35253,-19.441911 -3.90625,-28 C 90.93904,-71.537562 74.994135,7.9417196 -19.90625,6.8402023 -133.0452,5.5269882 -140.25219,-66.100201 -138.71875,-96.59375 z"
                   transform="matrix(0.26458334,0,0,0.26458334,-6.3049604e-6,17.465015)"
                   id="path15942"
                   inkscape:connector-curvature="0"
                   sodipodi:nodetypes="cssscsc" />
              </g>
            </g>
          </g>
        </g>
      </g>
      <g
         transform="matrix(0.93906507,0,0,0.89257468,-783.31388,806.33046)"
         id="g16106">
        <path
           sodipodi:nodetypes="ssscsccsccccscs"
           inkscape:connector-curvature="0"
           id="path16108"
           transform="matrix(0.26458334,0,0,0.26458334,-6.3049604e-6,18.562493)"
           d="m -22.875,-185.79447 c -1.41666,0 -2.827535,0.0146 -4.21875,0.0312 -43.127669,0.51649 -73.78803,1.68507 -77.28125,17.56251 -0.96963,4.40717 -2.82558,6.86662 -0.78125,13.07571 0.0532,0.20643 0.11334,0.4008 0.1875,0.59375 0.14428,0.37538 0.30241,0.74176 0.5,1.09375 0.005,0.009 -0.005,0.0227 0,0.0312 6.125169,11.48208 37.677298,10.49641 81.59375,10.49641 43.916452,0 75.177144,0.89471 81.53125,-10.49641 0.210445,-0.35597 0.375319,-0.74507 0.53125,-1.125 0.03877,-0.0945 0.08775,-0.2076 0.125,-0.3125 0.0018,-0.009 -0.0017,-0.022 0,-0.0312 1.198885,-3.41696 1.580391,-3.97639 -0.125,-10.34099 -5.553513,-20.72599 -34.866906,-20.20369 -77.90625,-20.54723 -1.369818,-0.021 -2.73959,-0.0312 -4.15625,-0.0312 z"
           style="color:#000000;fill:#b7855a;fill-opacity:1;fill-rule:nonzero;stroke:#351907;stroke-width:16;stroke-linejoin:round;stroke-miterlimit:4;stroke-opacity:1;stroke-dasharray:none;marker:none;visibility:visible;display:inline;overflow:visible;enable-background:accumulate" />
        <path
           style="color:#000000;fill:#e4803f;fill-opacity:1;fill-rule:nonzero;stroke:none;stroke-width:2;marker:none;visibility:visible;display:inline;overflow:visible;enable-background:accumulate"
           d="m -6.0544848,-30.816677 c -11.9943862,0 -20.6087542,0.536957 -21.5628162,4.873377 -0.264754,1.203365 -0.783128,1.989172 -0.155207,3.622856 1.221563,3.178182 9.723637,5.710389 21.7180232,5.710389 11.994386,0 20.4252398,-2.560506 21.7180238,-5.710389 0.342502,-0.834512 0.466399,-0.956313 0,-2.696937 -1.516766,-5.660648 -9.7236378,-5.799296 -21.7180238,-5.799296 z"
           id="path16110"
           inkscape:connector-curvature="0"
           sodipodi:nodetypes="sssssss" />
        <path
           sodipodi:nodetypes="scscs"
           inkscape:connector-curvature="0"
           id="path16112"
           transform="matrix(0.28175187,0,0,0.29642712,879.13348,-427.52119)"
           d="m -3141.7188,1338.2812 c -33.8876,0 -60.1662,1.1527 -71.1874,9 -11.1792,22.8539 99.3317,20.0084 130.266,12.476 18.4967,-4.5039 12.3275,-9.8868 6.8277,-14.6322 -13.122,-6.6047 -36.2331,-6.8438 -65.9063,-6.8438 z"
           style="color:#000000;fill:#ee9e55;fill-opacity:1;fill-rule:nonzero;stroke:none;stroke-width:2;marker:none;visibility:visible;display:inline;overflow:visible;enable-background:accumulate" />
        <path
           sodipodi:nodetypes="sasss"
           inkscape:connector-curvature="0"
           id="path16114"
           d="m 8.5595493,-26.693014 c 0,0.402209 -9.8673732,0.728264 -14.8417654,0.728264 -4.9743929,0 -14.8417669,-0.326055 -14.8417669,-0.728264 0,-0.40221 6.644885,-0.728265 14.8417669,-0.728265 8.1968806,0 14.8417654,0.326055 14.8417654,0.728265 z"
           style="color:#000000;fill:#4a301b;fill-opacity:1;fill-rule:nonzero;stroke:none;stroke-width:10;marker:none;visibility:visible;display:inline;overflow:visible;enable-background:accumulate" />
        <path
           sodipodi:nodetypes="csccccccccccccccccccccccsccsccccccccccccccsccccc"
           inkscape:connector-curvature="0"
           id="path16116"
           transform="matrix(0.28175187,0,0,0.29642712,912.39207,-363.5309)"
           d="m -3184.7812,1137.1562 c -2.257,9.64 -10.2456,18.9999 -66.7813,18.9999 -68.9293,0 -81.5724,-6.1516 -84.5625,-17.8749 -0.055,0.1927 -0.1418,0.3653 -0.1875,0.5626 -0.5617,2.4267 -1.4188,4.3555 -1.5625,6.6874 0.065,1.6018 0.2395,3.1479 0.6562,4.5313 0.01,0.021 0.024,0.041 0.031,0.062 0.098,0.3205 0.2219,0.6362 0.3437,0.9375 0.6775,1.6753 1.9868,3.2988 3.875,4.8437 0.7554,0.618 1.5938,1.2209 2.5313,1.8126 0.9375,0.5916 1.9493,1.1877 3.0625,1.75 2.2264,1.1245 4.798,2.168 7.6875,3.1562 1.4448,0.4941 2.9931,0.9822 4.5937,1.4375 0.8004,0.2277 1.5995,0.4389 2.4376,0.6563 1.6761,0.4347 3.4277,0.8586 5.25,1.25 3.6445,0.7826 7.5918,1.4722 11.7812,2.0624 2.0947,0.2952 4.2477,0.5702 6.4688,0.8126 2.221,0.2423 4.5029,0.4385 6.8437,0.625 1.1703,0.093 2.3322,0.2026 3.5313,0.2812 0.01,7e-4 0.021,-7e-4 0.031,0 1.965,0.1289 3.9608,0.2241 6,0.3125 1.7035,0.074 3.4032,0.1429 5.1562,0.1875 2.5607,0.065 5.1831,0.094 7.8438,0.094 6.6402,-7e-4 12.9925,-0.2293 18.9688,-0.625 1.1972,-0.079 2.3629,-0.156 3.5312,-0.25 1.1682,-0.094 2.3303,-0.2044 3.4688,-0.3126 2.277,-0.2165 4.5027,-0.4476 6.6562,-0.7187 1.2183,-0.1532 2.3853,-0.3302 3.5625,-0.5 2.9945,-0.4319 5.8466,-0.9047 8.5625,-1.4375 0.9439,-0.1852 1.8725,-0.3659 2.7812,-0.5625 1.5851,-0.3429 3.1189,-0.7179 4.5938,-1.0937 1.0508,-0.268 2.1008,-0.5288 3.0938,-0.8126 2.3854,-0.6819 4.6189,-1.422 6.6562,-2.1874 0.6814,-0.2563 1.3592,-0.5165 2,-0.7813 0.632,-0.2612 1.252,-0.5434 1.8438,-0.8125 0.1953,-0.089 0.3716,-0.1915 0.5624,-0.2812 0.7829,-0.3679 1.5429,-0.7125 2.25,-1.0938 0.9224,-0.4978 1.773,-1.0124 2.5626,-1.5312 0.5304,-0.3481 1.0308,-0.7059 1.5,-1.0626 0.3577,-0.2724 0.6786,-0.5665 1,-0.8437 0.1974,-0.1699 0.4101,-0.3284 0.5937,-0.5 0.3352,-0.3134 0.6491,-0.6189 0.9375,-0.9375 0.5767,-0.6372 1.0525,-1.2815 1.4375,-1.9375 0.1925,-0.328 0.3566,-0.6679 0.5,-1 0.4418,-1.0231 0.7952,-2.7534 0.9687,-4.8125 -0.1373,-1.031 -0.4224,-2.3432 -0.9687,-4.2812 -0.498,-1.7665 -1.1976,-3.3505 -2.0937,-4.8126 z"
           style="opacity:0.90265491;color:#000000;fill:#d76f2b;fill-opacity:1;fill-rule:nonzero;stroke:none;stroke-width:2;marker:none;visibility:visible;display:inline;overflow:visible;enable-background:accumulate" />
      </g>
    </g>
  </g>
</svg>
