<?xml version="1.0" encoding="UTF-8" standalone="no"?>
<!-- Created with Inkscape (http://www.inkscape.org/) -->

<svg
   xmlns:dc="http://purl.org/dc/elements/1.1/"
   xmlns:cc="http://creativecommons.org/ns#"
   xmlns:rdf="http://www.w3.org/1999/02/22-rdf-syntax-ns#"
   xmlns:svg="http://www.w3.org/2000/svg"
   xmlns="http://www.w3.org/2000/svg"
   xmlns:sodipodi="http://sodipodi.sourceforge.net/DTD/sodipodi-0.dtd"
   xmlns:inkscape="http://www.inkscape.org/namespaces/inkscape"
   width="278.30746"
   height="423.97314"
   viewBox="0 0 73.635516 112.17624"
   version="1.1"
   id="svg23489"
   inkscape:version="0.48.5 r10040"
   sodipodi:docname="pot_01.svg"
   tags="pot, terracotta pot, terracotta, urn,vase">
  <defs
     id="defs23483" />
  <sodipodi:namedview
     id="base"
     pagecolor="#7d848b"
     bordercolor="#666666"
     borderopacity="1.0"
     inkscape:pageopacity="0"
     inkscape:pageshadow="2"
     inkscape:zoom="0.85235729"
     inkscape:cx="197.06402"
     inkscape:cy="295.89194"
     inkscape:document-units="px"
     inkscape:current-layer="layer1"
     showgrid="false"
     inkscape:pagecheckerboard="false"
     showborder="true"
     units="px"
     inkscape:window-width="1920"
     inkscape:window-height="1017"
     inkscape:window-x="-8"
     inkscape:window-y="-8"
     inkscape:window-maximized="1"
     inkscape:showpageshadow="false"
     guidetolerance="28"
     fit-margin-top="20"
     fit-margin-left="20"
     fit-margin-right="20"
     fit-margin-bottom="20">
    <inkscape:grid
       type="xygrid"
       id="grid24034"
       spacingx="1px"
       spacingy="1px"
       empspacing="8"
       visible="true"
       enabled="true"
       snapvisiblegridlinesonly="true"
       originx="-109.85426px"
       originy="-209.58874px" />
  </sodipodi:namedview>
  <metadata
     id="metadata23486">
    <rdf:RDF>
      <cc:Work
         rdf:about="">
        <dc:format>image/svg+xml</dc:format>
        <dc:type
           rdf:resource="http://purl.org/dc/dcmitype/StillImage" />
        <dc:title></dc:title>
        <cc:license
           rdf:resource="" />
        <dc:creator>
          <cc:Agent>
            <dc:title>Robert Brooks</dc:title>
          </cc:Agent>
        </dc:creator>
      </cc:Work>
    </rdf:RDF>
  </metadata>
  <g
     inkscape:label="Layer 1"
     inkscape:groupmode="layer"
     id="layer1"
     transform="translate(-29.065609,-129.37007)">
    <g
       id="g16438"
       transform="translate(1184.1659,-608.10704)">
      <g
         transform="translate(0,144.03193)"
         id="g15515">
        <g
           transform="matrix(0.93801484,0,0,0.93801484,-1398.5961,828.18188)"
           id="g15517">
          <g
             id="g15519"
             transform="matrix(0.6637215,0,0,-0.77066961,303.28187,-164.8637)">
            <path
               sodipodi:nodetypes="sssssss"
               inkscape:connector-curvature="0"
               id="path15521"
               d="m -6.0544848,-34.421253 c -11.9943862,0 -20.2983402,2.725491 -21.7180232,5.820256 -0.513753,1.119929 -0.627921,4.646869 0,6.280553 1.221563,3.178182 9.723637,4.454547 21.7180232,4.454547 11.994386,0 20.4252398,-1.304664 21.7180238,-4.454547 0.342502,-0.834512 0.862091,-4.641034 0,-6.223469 -1.628888,-2.989948 -9.7236378,-5.87734 -21.7180238,-5.87734 z"
               style="color:#000000;fill:#b7855a;fill-opacity:1;fill-rule:nonzero;stroke:#38290e;stroke-width:5.2839036;stroke-linejoin:round;stroke-miterlimit:4;stroke-opacity:1;stroke-dasharray:none;marker:none;visibility:visible;display:inline;overflow:visible;enable-background:accumulate" />
            <path
               style="color:#000000;fill:#d36925;fill-opacity:1;fill-rule:nonzero;stroke:none;stroke-width:2;marker:none;visibility:visible;display:inline;overflow:visible;enable-background:accumulate"
               d="m -6.0544848,-34.421253 c -11.9943862,0 -20.2983402,2.725491 -21.7180232,5.820256 -0.513753,1.119929 -0.627921,4.646869 0,6.280553 1.221563,3.178182 9.723637,5.710389 21.7180232,5.710389 11.994386,0 20.4252398,-2.560506 21.7180238,-5.710389 0.342502,-0.834512 0.862091,-4.641034 0,-6.223469 -1.628888,-2.989948 -9.7236378,-5.87734 -21.7180238,-5.87734 z"
               id="path15523"
               inkscape:connector-curvature="0"
               sodipodi:nodetypes="sssssss" />
          </g>
          <g
             transform="translate(369.0714,-165.77068)"
             id="g15525">
            <path
               style="color:#000000;fill:#c29752;fill-opacity:1;fill-rule:nonzero;stroke:#38290e;stroke-width:4.23333359;stroke-miterlimit:4;stroke-opacity:1;stroke-dasharray:none;marker:none;visibility:visible;display:inline;overflow:visible;enable-background:accumulate"
               d="m -38.73603,-15.649196 c 0,11.5464147 -6.762609,26.133883 -16.43306,34.25455 -4.519255,3.795 -9.673565,3.073555 -15.069508,3.073555 -5.109175,0 -10.001718,0.967972 -14.343659,-2.480611 -10.056217,-7.987145 -17.158913,-23.0143118 -17.158913,-34.847494 0,-16.942358 14.560215,-25.77062 31.502572,-25.77062 16.942359,0 31.502568,8.828262 31.502568,25.77062 z"
               id="path15527"
               inkscape:connector-curvature="0"
               sodipodi:nodetypes="sssssss" />
            <path
               sodipodi:nodetypes="sssss"
               inkscape:connector-curvature="0"
               id="path15529"
               d="m -38.73603,-15.649196 c 0,16.942357 -14.560209,40.432242 -31.502568,40.432242 -16.942357,0 -31.502572,-23.489885 -31.502572,-40.432242 0,-16.942358 14.560215,-25.77062 31.502572,-25.77062 16.942359,0 31.502568,8.828262 31.502568,25.77062 z"
               style="color:#000000;fill:#e4803f;fill-opacity:1;fill-rule:nonzero;stroke:none;stroke-width:2;marker:none;visibility:visible;display:inline;overflow:visible;enable-background:accumulate" />
            <path
               inkscape:connector-curvature="0"
               style="color:#000000;fill:#d36925;fill-opacity:1;fill-rule:nonzero;stroke:none;stroke-width:2;marker:none;visibility:visible;display:inline;overflow:visible;enable-background:accumulate"
               d="m -144.34375,-230.15625 c -10.11613,42.60508 -50.73573,145.521994 -125.28125,134.375 -77.46082,-11.58292 -99.92995,-67.38873 -110.46875,-101.8125 8.05348,61.7841 59.19368,136.5 117.9375,136.5 64.03411,0 119.0625,-88.80965 119.0625,-152.84375 0,-5.65062 -0.42458,-11.0476 -1.25,-16.21875 z"
               transform="matrix(0.26458334,0,0,0.26458334,-0.87798869,40.951044)"
               id="path15531" />
            <path
               inkscape:connector-curvature="0"
               style="opacity:0.53539824;color:#000000;fill:#ec9a3a;fill-opacity:1;fill-rule:nonzero;stroke:none;stroke-width:2;marker:none;visibility:visible;display:inline;overflow:visible;enable-background:accumulate"
               d="m -334.8125,-293.78125 c -23.50933,13.44485 -40.28376,34.52837 -45.03125,62.9375 -0.58919,30.44604 17.33147,49.74239 46.34375,35.5 45.62743,-22.39892 29.88476,-84.62158 6.65625,-95.40625 -2.8671,-1.33115 -5.52201,-2.31863 -7.96875,-3.03125 z"
               transform="matrix(0.26458334,0,0,0.26458334,-0.87798869,40.951044)"
               id="path15533" />
            <path
               style="opacity:0.53539824;color:#000000;fill:#ec9a3a;fill-opacity:1;fill-rule:nonzero;stroke:none;stroke-width:2;marker:none;visibility:visible;display:inline;overflow:visible;enable-background:accumulate"
               d="m -262.15625,-311.3125 c -31.2259,0 -60.29967,7.91274 -81.90625,23.46875 1.23671,1.40263 2.5595,2.67822 3.9375,3.75 3.7588,2.92351 5.78054,10.12238 16.99614,16.90054 55.77612,33.70834 150.90843,-3.47149 136.75386,-24.71304 -20.8293,-12.85494 -47.42165,-19.40625 -75.78125,-19.40625 z"
               transform="matrix(0.26458334,0,0,0.26458334,-0.87798869,40.951044)"
               id="path15535"
               inkscape:connector-curvature="0"
               sodipodi:nodetypes="scsscs" />
          </g>
          <g
             transform="matrix(0.95634024,0,0,1.1104392,305.04739,-184.76048)"
             id="g15545">
            <path
               sodipodi:nodetypes="ssccccccccsccccccccs"
               inkscape:connector-curvature="0"
               id="path15547"
               transform="matrix(0.27666235,0,0,0.23826909,-318.97371,183.1014)"
               d="m 1131.0625,-986.65625 c -19.0335,0 -35.9215,1.29337 -50,3.6875 -0.3734,0.0635 -0.7556,0.12245 -1.125,0.1875 -22.2731,3.68498 -39.1021,10.20895 -42.5625,19.9375 -0.037,0.10384 -0.091,0.20793 -0.125,0.3125 -0.1877,0.37674 -0.3795,0.74098 -0.5312,1.125 0.048,0.14215 0.1066,0.33835 0.1562,0.5 -0.099,0.60215 -0.1562,1.21878 -0.1562,1.84375 0.6684,1.53845 14.6533,96.59745 15.8437,120.8125 -0.2424,2.37008 0.6155,4.3238 2.4063,5.90625 8.5817,10.843 39.0957,8.93701 76.0937,8.93701 43.3539,0 74.3897,0.15785 79.0625,-13.06201 -0.08,-6.5179 0.2169,-13.7728 0.75,-21.40625 0.014,-0.19958 0.017,-0.39365 0.031,-0.59375 4.518,-51.8732 15.7271,-91.98082 14.3438,-102.65625 0.051,-0.38485 0.1308,-0.88957 0.1562,-1.15625 0.7957,-8.33187 -13.1062,-14.75047 -33.6562,-18.875 -0.1925,-0.0439 -0.3998,-0.0815 -0.5938,-0.125 -0.2945,-0.0581 -0.5777,-0.13031 -0.875,-0.1875 -15.5035,-3.37633 -35.537,-5.1875 -59.2187,-5.1875 z"
               style="color:#000000;fill:#b7855a;fill-opacity:1;fill-rule:nonzero;stroke:#38290e;stroke-width:15.99999905;stroke-linejoin:round;stroke-miterlimit:4;stroke-opacity:1;stroke-dasharray:none;marker:none;visibility:visible;display:inline;overflow:visible;enable-background:accumulate" />
            <path
               sodipodi:nodetypes="csscssc"
               inkscape:connector-curvature="0"
               id="path15549"
               d="m -32.155006,-45.41409 c 0.184923,0.366566 4.053169,23.02018 4.382498,28.789877 0.190858,3.343743 9.723637,5.710389 21.7180232,5.710389 11.994386,0 20.5875318,-2.141194 21.8803158,-5.291077 -0.144375,-10.199147 3.988331,-27.888049 4.220206,-29.97921 0.80139,-7.227329 -52.201043,-8.400575 -52.201043,0.770024 z"
               style="color:#000000;fill:#e4803f;fill-opacity:1;fill-rule:nonzero;stroke:none;stroke-width:2;marker:none;visibility:visible;display:inline;overflow:visible;enable-background:accumulate" />
            <path
               inkscape:connector-curvature="0"
               id="path15551"
               transform="matrix(0.27666235,0,0,0.23826909,-318.97371,183.1014)"
               d="m 1132.125,-986.5 c -44.5285,-0.19817 -89.3533,7.18614 -94.8438,23.9375 11.8479,8.94372 48.5176,15.46875 91.9376,15.46875 49.4033,0 90.0742,-8.43285 95.375,-19.28125 -6.5022,-12.66932 -49.3518,-19.93311 -92.4688,-20.125 z"
               style="color:#000000;fill:#dcae64;fill-opacity:1;fill-rule:nonzero;stroke:none;stroke-width:2;marker:none;visibility:visible;display:inline;overflow:visible;enable-background:accumulate" />
            <path
               inkscape:connector-curvature="0"
               id="path15553"
               transform="matrix(0.27666235,0,0,0.23826909,-318.97371,183.1014)"
               d="m 1067.1562,-973.625 c -6.585,0.10397 -17.125,4.53125 -17.125,4.53125 5.4061,50.8178 15.7934,131.46341 21.0626,146.5625 3.5313,1.27506 7.5153,2.39901 11.8437,3.40625 2.02,-0.44433 3.4687,-0.96875 3.4687,-0.96875 0,0 -14.0937,-141.94373 -14.0937,-150.15625 0,-2.56641 -2.1631,-3.42226 -5.1563,-3.375 z"
               style="opacity:0.30088495;color:#000000;fill:#ffd62e;fill-opacity:1;fill-rule:nonzero;stroke:none;stroke-width:2;marker:none;visibility:visible;display:inline;overflow:visible;enable-background:accumulate" />
            <path
               inkscape:connector-curvature="0"
               id="path15555"
               d="m -8.09375,-51.59375 c -5.018507,0.05047 -10.061963,0.358475 -14.987429,1.361412 -2.623398,0.647211 -5.435411,1.146674 -7.606321,2.857338 -0.238255,0.319314 -1.148545,0.783674 -0.53125,1.1875 0.675239,0.321842 1.477033,0.610563 2.21875,0.875 3.003347,0.911492 6.12725,1.381167 9.25,1.625 7.523552,0.32125 14.9623093,-1.464955 22.4873218,-1.083411 4.5958235,0.119429 9.3284342,0.595863 13.7936942,-0.768064 0.97692,-0.367253 2.044084,-0.79069 2.743238,-1.558039 -0.174196,-0.678536 -1.027008,-0.825191 -1.458486,-1.195566 -3.16028,-1.559164 -6.709734,-1.990342 -10.1509723,-2.525375 -5.2201806,-0.675043 -10.4984483,-0.86911 -15.7585457,-0.775795 z"
               style="color:#000000;fill:#dcae64;fill-opacity:1;fill-rule:nonzero;stroke:#38290e;stroke-width:2.56749082;stroke-linejoin:round;stroke-miterlimit:4;stroke-opacity:1;stroke-dasharray:none;marker:none;visibility:visible;display:inline;overflow:visible;enable-background:accumulate" />
            <path
               inkscape:connector-curvature="0"
               id="path15557"
               transform="matrix(0.27666235,0,0,0.23826909,-318.97371,183.1014)"
               d="m 1175.125,-983.84375 c -0.2859,63.02565 -2.5935,126.75935 -4.25,135.59375 -6.2678,33.42844 -72.9624,31.49478 -111.5312,19.90625 12.179,8.5816 39.4914,14.0625 71.7187,14.0625 43.3539,0 74.3897,-8.96764 79.0625,-22.1875 -0.5218,-42.80516 14.4431,-117.03603 15.2812,-125.8125 0.9958,-10.42684 -20.9981,-17.87172 -50.2812,-21.5625 z"
               style="color:#000000;fill:#d36925;fill-opacity:1;fill-rule:nonzero;stroke:none;stroke-width:2;marker:none;visibility:visible;display:inline;overflow:visible;enable-background:accumulate" />
            <path
               inkscape:connector-curvature="0"
               style="color:#000000;fill:#ff8e47;fill-opacity:1;fill-rule:nonzero;stroke:none;stroke-width:2;marker:none;visibility:visible;display:inline;overflow:visible;enable-background:accumulate"
               d="m 1132.125,-986.5 c -44.5285,-0.19817 -89.3533,7.18614 -94.8438,23.9375 11.8479,8.94372 48.5176,15.46875 91.9376,15.46875 49.4033,0 90.0742,-8.43285 95.375,-19.28125 -6.5022,-12.66932 -49.3518,-19.93311 -92.4688,-20.125 z"
               transform="matrix(0.27666235,0,0,0.23826909,-318.97371,183.1014)"
               id="path15559" />
          </g>
          <path
             inkscape:connector-curvature="0"
             id="path15561"
             d="m 320.22005,-237.37711 c 0,1.96103 -9.56737,3.55076 -21.36931,3.55076 -11.80194,0 -21.36931,-1.58973 -21.36931,-3.55076 0,-1.96103 9.56737,-3.55076 21.36931,-3.55076 11.80194,0 21.36931,1.58973 21.36931,3.55076 z"
             style="color:#000000;fill:#5c2f11;fill-opacity:1;fill-rule:nonzero;stroke:none;stroke-width:10;marker:none;visibility:visible;display:inline;overflow:visible;enable-background:accumulate" />
        </g>
      </g>
    </g>
  </g>
</svg>
