<?xml version="1.0" encoding="UTF-8" standalone="no"?>
<!-- Created with Inkscape (http://www.inkscape.org/) -->

<svg
   xmlns:dc="http://purl.org/dc/elements/1.1/"
   xmlns:cc="http://creativecommons.org/ns#"
   xmlns:rdf="http://www.w3.org/1999/02/22-rdf-syntax-ns#"
   xmlns:svg="http://www.w3.org/2000/svg"
   xmlns="http://www.w3.org/2000/svg"
   xmlns:xlink="http://www.w3.org/1999/xlink"
   xmlns:sodipodi="http://sodipodi.sourceforge.net/DTD/sodipodi-0.dtd"
   xmlns:inkscape="http://www.inkscape.org/namespaces/inkscape"
   width="206.75407"
   height="403.7066"
   viewBox="0 0 54.70368 106.81404"
   version="1.1"
   id="svg23489"
   inkscape:version="0.48.5 r10040"
   sodipodi:docname="cat_statue_black.svg">
  <defs
     id="defs23483">
    <linearGradient
       inkscape:collect="always"
       xlink:href="#linearGradient21300"
       id="linearGradient21306"
       x1="-534.71698"
       y1="1604.373"
       x2="-552.83124"
       y2="1596.9998"
       gradientUnits="userSpaceOnUse" />
    <linearGradient
       inkscape:collect="always"
       id="linearGradient21300">
      <stop
         style="stop-color:#ffcc00;stop-opacity:1"
         offset="0"
         id="stop21302" />
      <stop
         style="stop-color:#ffff00;stop-opacity:1"
         offset="1"
         id="stop21304" />
    </linearGradient>
    <linearGradient
       inkscape:collect="always"
       xlink:href="#linearGradient21308"
       id="linearGradient21314"
       x1="-473.47784"
       y1="1595.5928"
       x2="-474.78818"
       y2="1587.8151"
       gradientUnits="userSpaceOnUse" />
    <linearGradient
       inkscape:collect="always"
       id="linearGradient21308">
      <stop
         style="stop-color:#ffd600;stop-opacity:1;"
         offset="0"
         id="stop21310" />
      <stop
         style="stop-color:#ffff00;stop-opacity:1"
         offset="1"
         id="stop21312" />
    </linearGradient>
  </defs>
  <sodipodi:namedview
     id="base"
     pagecolor="#7d848b"
     bordercolor="#666666"
     borderopacity="1.0"
     inkscape:pageopacity="0"
     inkscape:pageshadow="2"
     inkscape:zoom="0.85235729"
     inkscape:cx="-34.079904"
     inkscape:cy="201.74885"
     inkscape:document-units="px"
     inkscape:current-layer="layer1"
     showgrid="false"
     inkscape:pagecheckerboard="false"
     showborder="true"
     units="px"
     inkscape:window-width="1920"
     inkscape:window-height="1017"
     inkscape:window-x="-8"
     inkscape:window-y="-8"
     inkscape:window-maximized="1"
     inkscape:showpageshadow="false"
     guidetolerance="28"
     fit-margin-top="25"
     fit-margin-left="25"
     fit-margin-right="25"
     fit-margin-bottom="25">
    <inkscape:grid
       type="xygrid"
       id="grid24034"
       spacingx="1px"
       spacingy="1px"
       empspacing="8"
       visible="true"
       enabled="true"
       snapvisiblegridlinesonly="true"
       originx="-455.77664px"
       originy="-260.09075px" />
  </sodipodi:namedview>
  <metadata
     id="metadata23486">
    <rdf:RDF>
      <cc:Work
         rdf:about="">
        <dc:format>image/svg+xml</dc:format>
        <dc:type
           rdf:resource="http://purl.org/dc/dcmitype/StillImage" />
        <dc:title></dc:title>
        <cc:license
           rdf:resource="" />
        <dc:creator>
          <cc:Agent>
            <dc:title>Robert Brooks</dc:title>
          </cc:Agent>
        </dc:creator>
      </cc:Work>
    </rdf:RDF>
  </metadata>
  <g
     inkscape:label="Layer 1"
     inkscape:groupmode="layer"
     id="layer1"
     transform="translate(-120.5909,-121.37028)">
    <g
       id="g20922"
       transform="matrix(0.86862273,0.00152256,-0.00152256,0.86862273,471.13362,-1300.0333)">
      <g
         transform="translate(172.47859,98.545778)"
         id="g20419">
        <path
           style="color:#000000;fill:#c4a244;fill-opacity:1;fill-rule:nonzero;stroke:#6a5b1d;stroke-width:3.17500019;stroke-linecap:round;stroke-linejoin:round;stroke-miterlimit:4;stroke-opacity:1;stroke-dasharray:none;stroke-dashoffset:0;marker:none;visibility:visible;display:inline;overflow:visible;enable-background:accumulate"
           d="m -544.27591,1582.3907 c -2.02145,8.3385 -1.51609,9.9809 -4.67461,13.1394 -3.15852,3.1585 -5.17999,9.9809 -5.17999,13.5185 0,3.5375 0.50539,7.2014 0.50539,7.2014 0,0 -1.89514,0.8844 -2.65317,4.801 -0.75805,3.9165 1.89511,13.1394 1.89511,16.2979 0,3.1585 -0.50536,5.8117 -0.12634,6.8224 0.37901,1.0107 10.23361,4.9273 16.92966,3.6639 6.69607,-1.2634 7.32776,-2.4005 7.32776,-3.4112 0,-1.0107 2.27415,-14.7819 2.14778,-21.4779 -0.12633,-6.6961 -0.50535,-8.3385 -0.50535,-8.3385 0,0 2.90584,-4.0429 2.90584,-13.3921 0,-9.3493 -3.15852,-11.118 -3.28485,-13.5185 -0.12634,-2.4005 -0.8844,-6.4434 -0.75806,-8.8438 0.12634,-2.4005 -6.82239,-4.2956 -9.22288,-4.801 -2.40045,-0.5054 -6.06435,1.5161 -6.06435,2.5268 0,1.0107 0.75806,5.8117 0.75806,5.8117 z"
           id="path20297"
           inkscape:connector-curvature="0" />
        <path
           inkscape:connector-curvature="0"
           style="color:#000000;fill:#d8b555;fill-opacity:1;fill-rule:nonzero;stroke:none;stroke-width:12;marker:none;visibility:visible;display:inline;overflow:visible;enable-background:accumulate"
           d="m -2011.5312,5967.0938 c -20.5846,-0.3573 -37.8342,40.9173 -31.25,118.2812 3.3512,39.3765 12.6205,60.6031 23.9062,69.5938 13.2284,-3.6284 14.7812,-6.9407 14.7812,-9.9688 0,-3.82 8.5714,-55.8798 8.0938,-81.1875 -0.4775,-25.3081 -1.9062,-31.5313 -1.9062,-31.5313 0,0 9.8655,-13.7119 10.9062,-45.1874 -7.8716,-13.2911 -16.4526,-19.8598 -24.5312,-20 z"
           transform="matrix(0.26458334,0,0,0.26458334,-6.3049604e-6,18.562493)"
           id="path20414" />
        <path
           inkscape:connector-curvature="0"
           id="path20299"
           d="m -544.27591,1582.3907 c -2.02145,8.3385 -1.51609,9.9809 -4.67461,13.1394 -3.15852,3.1585 -5.17999,9.9809 -5.17999,13.5185 0,3.5375 0.50539,7.2014 0.50539,7.2014 0,0 -1.89514,0.8844 -2.65317,4.801 -0.75805,3.9165 1.89511,13.1394 1.89511,16.2979 0,3.1585 -0.50536,5.8117 -0.12634,6.8224 0.37901,1.0107 10.23361,4.9273 16.92966,3.6639 6.69607,-1.2634 7.32776,-2.4005 7.32776,-3.4112 0,-1.0107 2.27415,-14.7819 2.14778,-21.4779 -0.12633,-6.6961 -0.50535,-8.3385 -0.50535,-8.3385 0,0 2.90584,-4.0429 2.90584,-13.3921 0,-9.3493 -3.15852,-11.118 -3.28485,-13.5185 -0.12634,-2.4005 -0.8844,-6.4434 -0.75806,-8.8438 0.12634,-2.4005 -6.82239,-4.2956 -9.22288,-4.801 -2.40045,-0.5054 -6.06435,1.5161 -6.06435,2.5268 0,1.0107 0.75806,5.8117 0.75806,5.8117 z"
           style="color:#000000;fill:#d8b555;fill-opacity:1;fill-rule:nonzero;stroke:none;stroke-width:12;marker:none;visibility:visible;display:inline;overflow:visible;enable-background:accumulate" />
        <path
           id="path20536"
           transform="matrix(0.26458334,0,0,0.26458334,-97.684879,-1.652026)"
           d="m -1646.8438,5961.8125 c -2.9194,0.3362 -5.3759,1.1304 -7.625,2.6875 -8.7789,6.0777 -4.7553,9.4306 -6.7812,10.7812 -2.0259,1.3507 -15.5312,9.4688 -15.5312,9.4688 22.2849,15.5319 25.0008,20.9139 37.1562,31.7188 12.1554,10.8048 12.1661,65.5138 4.0625,90.5 -8.1036,24.986 -11.5053,64.1624 -13.5313,78.3437 -2.0259,14.1813 -6.0541,-14.173 -10.7812,-4.7187 -4.7271,9.4542 -4.0625,24.9773 -4.0625,47.9374 0,1.976 0.1012,3.967 0.2813,5.9376 0.354,-0.059 0.7128,-0.1216 1.0624,-0.1876 25.308,-4.775 27.6876,-9.0862 27.6876,-12.9062 0,-3.82 8.6026,-55.8485 8.125,-81.1562 -0.4775,-25.3081 -1.9063,-31.5313 -1.9063,-31.5313 0,0 10.9687,-15.2582 10.9687,-50.5937 0,-35.336 -11.9287,-42.021 -12.4062,-51.0938 -0.4775,-9.0728 -3.3525,-24.3651 -2.875,-33.4375 0.2385,-4.5311 -6.1841,-8.5881 -13.8125,-11.75 -0.01,0 -0.021,0 -0.031,0 z"
           style="opacity:0.45132745;color:#000000;fill:#a88829;fill-opacity:1;fill-rule:nonzero;stroke:none;stroke-width:12;marker:none;visibility:visible;display:inline;overflow:visible;enable-background:accumulate"
           inkscape:connector-curvature="0" />
        <g
           id="g20305"
           transform="translate(-35.754429,3.9165629)">
          <path
             style="color:#000000;fill:#c4a244;fill-opacity:1;fill-rule:nonzero;stroke:#6a5b1d;stroke-width:12;stroke-linejoin:round;stroke-opacity:1;marker:none;visibility:visible;display:inline;overflow:visible;enable-background:accumulate"
             d="m -1922.9259,5999.8257 c -5.7301,23.3979 6.6851,69.7162 9.5501,90.249 2.8651,20.5329 2.3876,47.7509 2.8651,51.5709 0.4775,3.8201 8.1176,6.2076 15.2803,3.3426 7.1626,-2.8651 7.1626,-5.2526 5.7301,-9.5502 -1.4326,-4.2975 -5.7301,-62.5536 -6.6852,-69.2387 -0.955,-6.6851 3.3426,-31.038 4.7751,-37.2456 1.4326,-6.2076 9.0727,-15.2803 -5.2526,-30.5606 -14.3252,-15.2802 -26.2629,1.4326 -26.2629,1.4326 z"
             id="path20303"
             inkscape:connector-curvature="0"
             transform="matrix(0.26458334,0,0,0.26458334,-6.3049604e-6,18.562493)" />
          <path
             sodipodi:nodetypes="cssccccsc"
             transform="matrix(0.26458334,0,0,0.26458334,-6.3049604e-6,18.562493)"
             inkscape:connector-curvature="0"
             id="path20301"
             d="m -1922.9259,5999.8257 c -5.7301,23.3979 6.6851,69.7162 9.5501,90.249 2.8651,20.5329 2.3876,47.7509 2.8651,51.5709 0.4775,3.8201 8.1176,6.2076 15.2803,3.3426 7.1626,-2.8651 7.1626,-5.2526 5.7301,-9.5502 -1.4326,-4.2975 -5.7301,-62.5536 -6.6852,-69.2387 -0.955,-6.6851 3.3426,-31.038 4.7751,-37.2456 1.4326,-6.2076 10.0277,-25.7855 -4.2976,-41.0658 -14.3252,-15.2802 -25.7854,2.8651 -27.2179,11.9378 z"
             style="color:#000000;fill:#d8b555;fill-opacity:1;fill-rule:nonzero;stroke:none;stroke-width:12;marker:none;visibility:visible;display:inline;overflow:visible;enable-background:accumulate" />
          <path
             style="opacity:0.50442475;color:#000000;fill:#a88831;fill-opacity:1;fill-rule:nonzero;stroke:none;stroke-width:12;marker:none;visibility:visible;display:inline;overflow:visible;enable-background:accumulate"
             d="m -2058.4062,6016.2188 c -4.8298,23.8494 7.1047,68.5786 9.9062,88.6562 2.8651,20.5329 2.3662,47.7425 2.8438,51.5625 0.3229,2.5836 -0.1262,4.5336 4.3856,4.625 0.1909,-19.9775 -1.355,-47.5113 -4.2065,-66.25 -4.1974,-27.5832 -11.6698,-45.5936 -12.9291,-78.5937 z"
             transform="matrix(0.26458334,0,0,0.26458334,35.754423,14.64593)"
             id="path20398"
             inkscape:connector-curvature="0"
             sodipodi:nodetypes="csccsc" />
          <path
             inkscape:connector-curvature="0"
             style="color:#000000;fill:#d0ae4e;fill-opacity:1;fill-rule:nonzero;stroke:none;stroke-width:12;marker:none;visibility:visible;display:inline;overflow:visible;enable-background:accumulate"
             d="m -2027.6562,6006.7188 c 3.2044,21.0255 -5.1486,45.4693 -8.375,58.375 -4.0519,16.2072 -3.3819,20.2728 -2.0313,25 1.3506,4.7271 8.125,37.1243 8.125,52.6562 0,5.1933 0.1415,11.1143 0.4687,16.6562 6.2517,-2.7025 6.213,-5.0485 4.8438,-9.1562 -1.4326,-4.2975 -5.7324,-62.5649 -6.6875,-69.25 -0.955,-6.6851 3.3487,-31.0424 4.7813,-37.25 1.3094,-5.6741 8.5713,-22.5082 -1.125,-37.0312 z"
             transform="matrix(0.26458334,0,0,0.26458334,35.754423,14.64593)"
             id="path20406" />
        </g>
        <g
           transform="matrix(-0.88978169,0.0520635,0.05841276,0.99829252,-1071.5926,32.050994)"
           id="g20309">
          <path
             transform="matrix(0.26458334,0,0,0.26458334,-6.3049604e-6,18.562493)"
             inkscape:connector-curvature="0"
             id="path20311"
             d="m -1924.6474,5973.6018 c -5.7301,23.3979 8.4066,95.9401 11.2716,116.4729 2.8651,20.5329 -0.036,51.7039 0.4413,55.5239 0.4775,3.8201 8.1176,6.2076 15.2803,3.3426 7.1626,-2.8651 7.1626,-5.2526 5.7301,-9.5502 -1.4326,-4.2975 -3.3063,-66.5066 -4.2614,-73.1917 -0.955,-6.6851 -4.4865,-34.6884 -3.054,-40.896 1.4326,-6.2076 -2.4095,-5.2111 -6.013,-19.0212 -5.0607,-19.395 -17.2586,-34.8211 -19.3949,-32.6803 z"
             style="color:#000000;fill:#c4a244;fill-opacity:1;fill-rule:nonzero;stroke:#6a5b1d;stroke-width:12;stroke-linejoin:round;stroke-opacity:1;marker:none;visibility:visible;display:inline;overflow:visible;enable-background:accumulate"
             sodipodi:nodetypes="cssccccsc" />
          <path
             style="color:#000000;fill:#d8b555;fill-opacity:1;fill-rule:nonzero;stroke:none;stroke-width:12;marker:none;visibility:visible;display:inline;overflow:visible;enable-background:accumulate"
             d="m -1924.0726,5970.798 c -5.7301,23.3979 7.8318,98.7439 10.6968,119.2767 2.8651,20.5329 -0.036,51.7039 0.4413,55.5239 0.4775,3.8201 8.1176,6.2076 15.2803,3.3426 7.1626,-2.8651 7.1626,-5.2526 5.7301,-9.5502 -1.4326,-4.2975 -3.3063,-66.5066 -4.2614,-73.1917 -0.955,-6.6851 3.3426,-31.038 4.7751,-37.2456 1.4326,-6.2076 10.0277,-25.7855 -4.2976,-41.0658 -14.3252,-15.2802 -26.9321,-26.1626 -28.3646,-17.0899 z"
             id="path20313"
             inkscape:connector-curvature="0"
             transform="matrix(0.26458334,0,0,0.26458334,-6.3049604e-6,18.562493)"
             sodipodi:nodetypes="cssccccsc" />
          <path
             sodipodi:nodetypes="ccsssccscc"
             inkscape:connector-curvature="0"
             id="path20541"
             transform="matrix(-0.29634299,0.01545504,0.01733982,0.26413157,-1093.0209,23.243163)"
             d="m -1618.9062,6054.7188 c -2.0427,-5.7903 -6.6069,-2.2138 -13,10.9374 -0.4517,10.1607 0.3476,15.6554 2.4062,25.125 3.3765,15.532 7.4184,34.4163 8.0938,54 0.6753,19.5837 0.01,42.5398 -1.3438,65.5 -0.5981,10.1671 -1.7305,20.4532 -1.6875,27.7188 4.697,0.1299 8.5349,-2.1585 8.6875,-5.0625 0.2016,-3.8383 -4.1937,-34.8217 -2.8438,-55.4687 1.3499,-20.647 9.0278,-96.5654 2.5626,-119.625 -0.4512,-2.2457 -1.444,-3.1919 -2.875,-3.125 z"
             style="color:#000000;fill:#c2a141;fill-opacity:1;fill-rule:nonzero;stroke:none;stroke-width:12;marker:none;visibility:visible;display:inline;overflow:visible;enable-background:accumulate" />
        </g>
        <g
           id="g20333"
           transform="matrix(0.7804827,-0.0426962,0,0.7804827,-142.06103,340.76391)">
          <path
             sodipodi:nodetypes="cssccccc"
             transform="matrix(0.26458334,0,0,0.26458334,-6.3049604e-6,18.562493)"
             inkscape:connector-curvature="0"
             id="path20315"
             d="m -1882.3377,6134.0055 c -1.4325,13.3702 -0.955,20.5329 1.91,23.3979 2.8651,2.8651 10.0277,5.2526 13.8478,5.2526 3.82,0 18.1453,-2.3875 19.5778,-3.3426 1.4325,-0.955 1.91,-17.6678 0,-20.5328 -1.91,-2.8651 -9.192,-5.4913 -15.3997,-1.1938 -4.7751,-1.4325 -2.3875,7.1626 -5.2526,8.5952 -2.865,1.4325 -14.6833,-12.1765 -14.6833,-12.1765 z"
             style="color:#000000;fill:#c4a244;fill-opacity:1;fill-rule:nonzero;stroke:#6a5b1d;stroke-width:12;stroke-linecap:round;stroke-linejoin:round;stroke-miterlimit:4;stroke-opacity:1;stroke-dasharray:none;stroke-dashoffset:0;marker:none;visibility:visible;display:inline;overflow:visible;enable-background:accumulate" />
          <path
             style="color:#000000;fill:#fad674;fill-opacity:1;fill-rule:nonzero;stroke:none;stroke-width:12;marker:none;visibility:visible;display:inline;overflow:visible;enable-background:accumulate"
             d="m -1882.3377,6134.0055 c -1.4325,13.3702 -0.955,20.5329 1.91,23.3979 2.8651,2.8651 10.0277,5.2526 13.8478,5.2526 3.82,0 18.1453,-2.3875 19.5778,-3.3426 1.4325,-0.955 1.91,-17.6678 0,-20.5328 -1.91,-2.8651 -10.9827,-7.1626 -15.7578,-8.5952 -4.7751,-1.4325 -14.3252,0 -17.1903,1.4326 -2.865,1.4325 -2.3875,2.3875 -2.3875,2.3875 z"
             id="path20317"
             inkscape:connector-curvature="0"
             transform="matrix(0.26458334,0,0,0.26458334,-6.3049604e-6,18.562493)" />
          <path
             id="path20319"
             transform="matrix(0.26458334,0,0,0.26458334,-6.3049604e-6,18.562493)"
             d="m -1882.5625,6136.5 c -1.0996,11.7256 -0.5504,18.2309 2.125,20.9062 2.8651,2.8652 10.0236,5.25 13.8437,5.25 3.8201,0 18.1613,-2.3886 19.5938,-3.3437 1.3341,-0.8894 1.8548,-15.4407 0.375,-19.75 -2.3908,0.907 -16.2961,5.0496 -18.875,4.9375 -2.3305,-0.1014 -14.4687,-1.2348 -17.0625,-8 z"
             style="opacity:0.27433627;color:#000000;fill:#6a5b1d;fill-opacity:1;fill-rule:nonzero;stroke:none;stroke-width:12;marker:none;visibility:visible;display:inline;overflow:visible;enable-background:accumulate"
             inkscape:connector-curvature="0" />
          <path
             inkscape:connector-curvature="0"
             id="path20325"
             d="m -493.14107,1645.2658 a 0.49567986,0.6615245 0 0 0 -0.48945,0.678 c 0,1.461 -0.13629,3.2081 -0.13629,3.2081 a 0.49567986,0.6615245 0 1 0 0.98505,0.1406 c 0,0 0.1425,-1.7775 0.1425,-3.3487 a 0.49567986,0.6615245 0 0 0 -0.50181,-0.678 z"
             style="font-size:medium;font-style:normal;font-variant:normal;font-weight:normal;font-stretch:normal;text-indent:0;text-align:start;text-decoration:none;line-height:normal;letter-spacing:normal;word-spacing:normal;text-transform:none;direction:ltr;block-progression:tb;writing-mode:lr-tb;text-anchor:start;baseline-shift:baseline;color:#000000;fill:#6a5b1d;fill-opacity:1;fill-rule:nonzero;stroke:none;stroke-width:5;marker:none;visibility:visible;display:inline;overflow:visible;enable-background:accumulate;font-family:Sans;-inkscape-font-specification:Sans" />
          <path
             style="font-size:medium;font-style:normal;font-variant:normal;font-weight:normal;font-stretch:normal;text-indent:0;text-align:start;text-decoration:none;line-height:normal;letter-spacing:normal;word-spacing:normal;text-transform:none;direction:ltr;block-progression:tb;writing-mode:lr-tb;text-anchor:start;baseline-shift:baseline;color:#000000;fill:#6a5b1d;fill-opacity:1;fill-rule:nonzero;stroke:none;stroke-width:5;marker:none;visibility:visible;display:inline;overflow:visible;enable-background:accumulate;font-family:Sans;-inkscape-font-specification:Sans"
             d="m -491.24596,1644.8236 a 0.49567986,0.6615245 0 0 0 -0.48945,0.678 c 0,1.461 -0.13629,3.2081 -0.13629,3.2081 a 0.49567986,0.6615245 0 1 0 0.98505,0.1406 c 0,0 0.1425,-1.7775 0.1425,-3.3487 a 0.49567986,0.6615245 0 0 0 -0.50181,-0.678 z"
             id="path20329"
             inkscape:connector-curvature="0" />
          <path
             inkscape:connector-curvature="0"
             id="path20331"
             d="m -489.6667,1644.1287 a 0.49567986,0.6615245 0 0 0 -0.48945,0.678 c 0,1.461 -0.13629,3.2081 -0.13629,3.2081 a 0.49567986,0.6615245 0 1 0 0.98505,0.1406 c 0,0 0.1425,-1.7775 0.1425,-3.3487 a 0.49567986,0.6615245 0 0 0 -0.50181,-0.678 z"
             style="font-size:medium;font-style:normal;font-variant:normal;font-weight:normal;font-stretch:normal;text-indent:0;text-align:start;text-decoration:none;line-height:normal;letter-spacing:normal;word-spacing:normal;text-transform:none;direction:ltr;block-progression:tb;writing-mode:lr-tb;text-anchor:start;baseline-shift:baseline;color:#000000;fill:#6a5b1d;fill-opacity:1;fill-rule:nonzero;stroke:none;stroke-width:5;marker:none;visibility:visible;display:inline;overflow:visible;enable-background:accumulate;font-family:Sans;-inkscape-font-specification:Sans" />
        </g>
        <path
           id="path20516"
           transform="matrix(0.26458334,0,0,0.26458334,-97.684879,-1.652026)"
           d="m -1688.0312,5987.5 c -7.4751,31.0067 -5.668,37.2305 -17.5313,49.0938 -11.9377,11.9376 -19.5937,37.7232 -19.5937,51.0937 0,13.3701 1.9062,27.2187 1.9062,27.2187 0,0 -3.8736,1.8173 -7.0625,8.6563 6.6208,6.8736 27.7941,38.2893 26.5313,31.3437 -1.3507,-7.4283 6.7621,35.7903 7.4374,15.5313 0.6754,-20.2589 -9.455,-41.1756 -12.1562,-68.1875 -2.7012,-27.012 5.3895,-54.0282 14.8438,-60.7812 7.3648,-5.2606 8.1814,-36.3393 5.625,-53.9688 z"
           style="color:#000000;fill:#fad674;fill-opacity:1;fill-rule:nonzero;stroke:none;stroke-width:12;marker:none;visibility:visible;display:inline;overflow:visible;enable-background:accumulate"
           inkscape:connector-curvature="0" />
        <g
           id="g20373"
           transform="matrix(1,0,0,0.88589908,0,188.41047)">
          <path
             sodipodi:nodetypes="cssssc"
             transform="matrix(0.26458334,0,0,0.26458334,-6.3049604e-6,18.562493)"
             inkscape:connector-curvature="0"
             id="path20369"
             d="m -2088.6989,6160.3216 c -12.1554,-10.8047 -18.2331,-15.5318 -21.6096,-22.9601 -3.3765,-7.4283 -6.753,-82.9444 3.3765,-101.1775 10.1295,-18.2331 19.5836,6.753 24.3107,29.7132 4.7271,22.9601 10.1295,71.4643 0.6753,80.9185 -9.4541,9.4541 -6.7529,13.5059 -6.7529,13.5059 z"
             style="color:#000000;fill:#6a5b1d;fill-opacity:1;fill-rule:nonzero;stroke:#6a5b1d;stroke-width:12;stroke-linecap:round;stroke-linejoin:round;stroke-miterlimit:4;stroke-opacity:1;stroke-dasharray:none;stroke-dashoffset:0;marker:none;visibility:visible;display:inline;overflow:visible;enable-background:accumulate" />
          <path
             transform="matrix(0.26458334,0,0,0.26458334,-6.3049604e-6,18.562493)"
             style="color:#000000;fill:#d8b555;fill-opacity:1;fill-rule:nonzero;stroke:none;stroke-width:5;marker:none;visibility:visible;display:inline;overflow:visible;enable-background:accumulate"
             d="m -2088.6989,6160.3216 c -12.1554,-10.8047 -18.2331,-15.5318 -21.6096,-22.9601 -3.3765,-7.4283 -6.753,-82.9444 3.3765,-101.1775 10.1295,-18.2331 34.4402,6.753 39.1673,29.7132 4.7271,22.9601 6.753,77.542 -2.7012,86.9962 -9.4541,9.4541 -18.233,7.4282 -18.233,7.4282 z"
             id="path20371"
             inkscape:connector-curvature="0"
             sodipodi:nodetypes="cssssc" />
          <path
             id="path20531"
             transform="matrix(0.26458334,0,0,0.29866081,-97.684879,-214.54193)"
             d="m -1735.5938,6125.25 c -0.7722,0.7391 -1.464,1.6336 -2.125,2.6875 -10.1295,16.1527 -6.7515,83.0755 -3.375,89.6563 3.3766,6.5807 9.4384,10.7718 21.5938,20.3437 0,0 8.7959,1.7816 18.25,-6.5937 0.7731,-0.6849 1.4381,-1.6615 2.0625,-2.8438 -9.1405,-5.027 -24.8288,-9.4343 -30.9375,-18.875 -7.4283,-11.4801 -7.42,-59.4475 -4.7188,-79.0312 0.3236,-2.346 0.022,-4.157 -0.75,-5.3438 z"
             style="opacity:0.64159324;color:#000000;fill:#c2a141;fill-opacity:1;fill-rule:nonzero;stroke:none;stroke-width:5;marker:none;visibility:visible;display:inline;overflow:visible;enable-background:accumulate"
             inkscape:connector-curvature="0" />
          <g
             transform="matrix(0.84886379,-0.04643698,0,0.84886379,-130.21623,227.11694)"
             id="g20355">
            <path
               style="color:#000000;fill:#c4a244;fill-opacity:1;fill-rule:nonzero;stroke:#6a5b1d;stroke-width:12;stroke-linecap:round;stroke-linejoin:round;stroke-miterlimit:4;stroke-opacity:1;stroke-dasharray:none;stroke-dashoffset:0;marker:none;visibility:visible;display:inline;overflow:visible;enable-background:accumulate"
               d="m -1882.3377,6134.0055 c -1.4325,13.3702 -0.955,20.5329 1.91,23.3979 2.8651,2.8651 10.0277,5.2526 13.8478,5.2526 3.82,0 18.1453,-2.3875 19.5778,-3.3426 1.4325,-0.955 1.91,-17.6678 0,-20.5328 -1.91,-2.8651 -9.192,-5.4913 -15.3997,-1.1938 -4.7751,-1.4325 -2.3875,7.1626 -5.2526,8.5952 -2.865,1.4325 -14.6833,-12.1765 -14.6833,-12.1765 z"
               id="path20357"
               inkscape:connector-curvature="0"
               transform="matrix(0.26458334,0,0,0.26458334,-6.3049604e-6,18.562493)"
               sodipodi:nodetypes="cssccccc" />
            <path
               transform="matrix(0.26458334,0,0,0.26458334,-6.3049604e-6,18.562493)"
               inkscape:connector-curvature="0"
               id="path20359"
               d="m -1882.3377,6134.0055 c -1.4325,13.3702 -0.955,20.5329 1.91,23.3979 2.8651,2.8651 10.0277,5.2526 13.8478,5.2526 3.82,0 18.1453,-2.3875 19.5778,-3.3426 1.4325,-0.955 1.91,-17.6678 0,-20.5328 -1.91,-2.8651 -10.9827,-7.1626 -15.7578,-8.5952 -4.7751,-1.4325 -14.3252,0 -17.1903,1.4326 -2.865,1.4325 -2.3875,2.3875 -2.3875,2.3875 z"
               style="color:#000000;fill:#fad674;fill-opacity:1;fill-rule:nonzero;stroke:none;stroke-width:12;marker:none;visibility:visible;display:inline;overflow:visible;enable-background:accumulate" />
            <path
               inkscape:connector-curvature="0"
               style="opacity:0.27433627;color:#000000;fill:#6a5b1d;fill-opacity:1;fill-rule:nonzero;stroke:none;stroke-width:12;marker:none;visibility:visible;display:inline;overflow:visible;enable-background:accumulate"
               d="m -1882.5625,6136.5 c -1.0996,11.7256 -0.5504,18.2309 2.125,20.9062 2.8651,2.8652 10.0236,5.25 13.8437,5.25 3.8201,0 18.1613,-2.3886 19.5938,-3.3437 1.3341,-0.8894 1.8548,-15.4407 0.375,-19.75 -2.3908,0.907 -16.2961,5.0496 -18.875,4.9375 -2.3305,-0.1014 -14.4687,-1.2348 -17.0625,-8 z"
               transform="matrix(0.26458334,0,0,0.26458334,-6.3049604e-6,18.562493)"
               id="path20361" />
            <path
               style="font-size:medium;font-style:normal;font-variant:normal;font-weight:normal;font-stretch:normal;text-indent:0;text-align:start;text-decoration:none;line-height:normal;letter-spacing:normal;word-spacing:normal;text-transform:none;direction:ltr;block-progression:tb;writing-mode:lr-tb;text-anchor:start;baseline-shift:baseline;color:#000000;fill:#6a5b1d;fill-opacity:1;fill-rule:nonzero;stroke:none;stroke-width:5;marker:none;visibility:visible;display:inline;overflow:visible;enable-background:accumulate;font-family:Sans;-inkscape-font-specification:Sans"
               d="m -493.14107,1645.2658 a 0.49567986,0.6615245 0 0 0 -0.48945,0.678 c 0,1.461 -0.13629,3.2081 -0.13629,3.2081 a 0.49567986,0.6615245 0 1 0 0.98505,0.1406 c 0,0 0.1425,-1.7775 0.1425,-3.3487 a 0.49567986,0.6615245 0 0 0 -0.50181,-0.678 z"
               id="path20363"
               inkscape:connector-curvature="0" />
            <path
               inkscape:connector-curvature="0"
               id="path20365"
               d="m -491.24596,1644.8236 a 0.49567986,0.6615245 0 0 0 -0.48945,0.678 c 0,1.461 -0.13629,3.2081 -0.13629,3.2081 a 0.49567986,0.6615245 0 1 0 0.98505,0.1406 c 0,0 0.1425,-1.7775 0.1425,-3.3487 a 0.49567986,0.6615245 0 0 0 -0.50181,-0.678 z"
               style="font-size:medium;font-style:normal;font-variant:normal;font-weight:normal;font-stretch:normal;text-indent:0;text-align:start;text-decoration:none;line-height:normal;letter-spacing:normal;word-spacing:normal;text-transform:none;direction:ltr;block-progression:tb;writing-mode:lr-tb;text-anchor:start;baseline-shift:baseline;color:#000000;fill:#6a5b1d;fill-opacity:1;fill-rule:nonzero;stroke:none;stroke-width:5;marker:none;visibility:visible;display:inline;overflow:visible;enable-background:accumulate;font-family:Sans;-inkscape-font-specification:Sans" />
            <path
               style="font-size:medium;font-style:normal;font-variant:normal;font-weight:normal;font-stretch:normal;text-indent:0;text-align:start;text-decoration:none;line-height:normal;letter-spacing:normal;word-spacing:normal;text-transform:none;direction:ltr;block-progression:tb;writing-mode:lr-tb;text-anchor:start;baseline-shift:baseline;color:#000000;fill:#6a5b1d;fill-opacity:1;fill-rule:nonzero;stroke:none;stroke-width:5;marker:none;visibility:visible;display:inline;overflow:visible;enable-background:accumulate;font-family:Sans;-inkscape-font-specification:Sans"
               d="m -489.6667,1644.1287 a 0.49567986,0.6615245 0 0 0 -0.48945,0.678 c 0,1.461 -0.13629,3.2081 -0.13629,3.2081 a 0.49567986,0.6615245 0 1 0 0.98505,0.1406 c 0,0 0.1425,-1.7775 0.1425,-3.3487 a 0.49567986,0.6615245 0 0 0 -0.50181,-0.678 z"
               id="path20367"
               inkscape:connector-curvature="0" />
          </g>
          <path
             style="color:#000000;fill:#fad674;fill-opacity:1;fill-rule:nonzero;stroke:none;stroke-width:5;marker:none;visibility:visible;display:inline;overflow:visible;enable-background:accumulate"
             d="m -2097.2188,6046 c -3.7774,-0.1215 -7.1863,1.5243 -9.7187,5.5625 -0.2148,0.3425 -0.4222,0.7066 -0.625,1.0937 16.6772,1.1581 26.4945,20.7362 31.0328,32.7006 7.4283,19.5836 9.4413,41.2064 11.4672,25.6744 0.2874,-2.203 0.4966,-5.0677 0.625,-8.3124 -0.6861,-9.6203 -1.853,-18.5635 -3.3125,-24.8438 -3.5453,-15.2553 -18.1364,-31.5104 -29.4688,-31.875 z"
             transform="matrix(0.26458334,0,0,0.29866081,-6.3049604e-6,-191.72384)"
             id="path20386"
             inkscape:connector-curvature="0"
             sodipodi:nodetypes="sccsccss" />
        </g>
        <g
           transform="matrix(0.84886379,-0.04643698,0,0.84886379,-118.06648,227.83163)"
           id="g20341">
          <path
             style="color:#000000;fill:#c4a244;fill-opacity:1;fill-rule:nonzero;stroke:#6a5b1d;stroke-width:12;stroke-linecap:round;stroke-linejoin:round;stroke-miterlimit:4;stroke-opacity:1;stroke-dasharray:none;stroke-dashoffset:0;marker:none;visibility:visible;display:inline;overflow:visible;enable-background:accumulate"
             d="m -1882.3377,6134.0055 c -1.4325,13.3702 -0.955,20.5329 1.91,23.3979 2.8651,2.8651 10.0277,5.2526 13.8478,5.2526 3.82,0 18.1453,-2.3875 19.5778,-3.3426 1.4325,-0.955 1.91,-17.6678 0,-20.5328 -1.91,-2.8651 -9.192,-5.4913 -15.3997,-1.1938 -4.7751,-1.4325 -2.3875,7.1626 -5.2526,8.5952 -2.865,1.4325 -14.6833,-12.1765 -14.6833,-12.1765 z"
             id="path20343"
             inkscape:connector-curvature="0"
             transform="matrix(0.26458334,0,0,0.26458334,-6.3049604e-6,18.562493)"
             sodipodi:nodetypes="cssccccc" />
          <path
             transform="matrix(0.26458334,0,0,0.26458334,-6.3049604e-6,18.562493)"
             inkscape:connector-curvature="0"
             id="path20345"
             d="m -1882.3377,6134.0055 c -1.4325,13.3702 -0.955,20.5329 1.91,23.3979 2.8651,2.8651 10.0277,5.2526 13.8478,5.2526 3.82,0 18.1453,-2.3875 19.5778,-3.3426 1.4325,-0.955 1.91,-17.6678 0,-20.5328 -1.91,-2.8651 -10.9827,-7.1626 -15.7578,-8.5952 -4.7751,-1.4325 -14.3252,0 -17.1903,1.4326 -2.865,1.4325 -2.3875,2.3875 -2.3875,2.3875 z"
             style="color:#000000;fill:#fad674;fill-opacity:1;fill-rule:nonzero;stroke:none;stroke-width:12;marker:none;visibility:visible;display:inline;overflow:visible;enable-background:accumulate" />
          <path
             inkscape:connector-curvature="0"
             style="opacity:0.27433627;color:#000000;fill:#6a5b1d;fill-opacity:1;fill-rule:nonzero;stroke:none;stroke-width:12;marker:none;visibility:visible;display:inline;overflow:visible;enable-background:accumulate"
             d="m -1882.5625,6136.5 c -1.0996,11.7256 -0.5504,18.2309 2.125,20.9062 2.8651,2.8652 10.0236,5.25 13.8437,5.25 3.8201,0 18.1613,-2.3886 19.5938,-3.3437 1.3341,-0.8894 1.8548,-15.4407 0.375,-19.75 -2.3908,0.907 -16.2961,5.0496 -18.875,4.9375 -2.3305,-0.1014 -14.4687,-1.2348 -17.0625,-8 z"
             transform="matrix(0.26458334,0,0,0.26458334,-6.3049604e-6,18.562493)"
             id="path20347" />
          <path
             style="font-size:medium;font-style:normal;font-variant:normal;font-weight:normal;font-stretch:normal;text-indent:0;text-align:start;text-decoration:none;line-height:normal;letter-spacing:normal;word-spacing:normal;text-transform:none;direction:ltr;block-progression:tb;writing-mode:lr-tb;text-anchor:start;baseline-shift:baseline;color:#000000;fill:#6a5b1d;fill-opacity:1;fill-rule:nonzero;stroke:none;stroke-width:5;marker:none;visibility:visible;display:inline;overflow:visible;enable-background:accumulate;font-family:Sans;-inkscape-font-specification:Sans"
             d="m -493.14107,1645.2658 a 0.49567986,0.6615245 0 0 0 -0.48945,0.678 c 0,1.461 -0.13629,3.2081 -0.13629,3.2081 a 0.49567986,0.6615245 0 1 0 0.98505,0.1406 c 0,0 0.1425,-1.7775 0.1425,-3.3487 a 0.49567986,0.6615245 0 0 0 -0.50181,-0.678 z"
             id="path20349"
             inkscape:connector-curvature="0" />
          <path
             inkscape:connector-curvature="0"
             id="path20351"
             d="m -491.24596,1644.8236 a 0.49567986,0.6615245 0 0 0 -0.48945,0.678 c 0,1.461 -0.13629,3.2081 -0.13629,3.2081 a 0.49567986,0.6615245 0 1 0 0.98505,0.1406 c 0,0 0.1425,-1.7775 0.1425,-3.3487 a 0.49567986,0.6615245 0 0 0 -0.50181,-0.678 z"
             style="font-size:medium;font-style:normal;font-variant:normal;font-weight:normal;font-stretch:normal;text-indent:0;text-align:start;text-decoration:none;line-height:normal;letter-spacing:normal;word-spacing:normal;text-transform:none;direction:ltr;block-progression:tb;writing-mode:lr-tb;text-anchor:start;baseline-shift:baseline;color:#000000;fill:#6a5b1d;fill-opacity:1;fill-rule:nonzero;stroke:none;stroke-width:5;marker:none;visibility:visible;display:inline;overflow:visible;enable-background:accumulate;font-family:Sans;-inkscape-font-specification:Sans" />
          <path
             style="font-size:medium;font-style:normal;font-variant:normal;font-weight:normal;font-stretch:normal;text-indent:0;text-align:start;text-decoration:none;line-height:normal;letter-spacing:normal;word-spacing:normal;text-transform:none;direction:ltr;block-progression:tb;writing-mode:lr-tb;text-anchor:start;baseline-shift:baseline;color:#000000;fill:#6a5b1d;fill-opacity:1;fill-rule:nonzero;stroke:none;stroke-width:5;marker:none;visibility:visible;display:inline;overflow:visible;enable-background:accumulate;font-family:Sans;-inkscape-font-specification:Sans"
             d="m -489.6667,1644.1287 a 0.49567986,0.6615245 0 0 0 -0.48945,0.678 c 0,1.461 -0.13629,3.2081 -0.13629,3.2081 a 0.49567986,0.6615245 0 1 0 0.98505,0.1406 c 0,0 0.1425,-1.7775 0.1425,-3.3487 a 0.49567986,0.6615245 0 0 0 -0.50181,-0.678 z"
             id="path20353"
             inkscape:connector-curvature="0" />
        </g>
        <path
           style="color:#000000;fill:#f9d573;fill-opacity:1;fill-rule:nonzero;stroke:none;stroke-width:12;marker:none;visibility:visible;display:inline;overflow:visible;enable-background:accumulate"
           d="m -2053.7812,5882.5938 c -3.6349,1.991 -6.1876,4.3277 -6.1876,5.9687 0,3.82 2.875,21.9687 2.875,21.9687 -7.6401,31.5156 -5.7497,37.7187 -17.6874,49.6563 -11.9378,11.9376 -19.5626,37.7233 -19.5626,51.0937 0,13.3701 -0.7949,30.5953 -0.7949,30.5953 l 10.4985,11.7583 c 0,0 -5.7226,-42.6871 5.4009,-69.5693 8.1035,-19.5837 27.0205,-30.3872 27.0205,-30.3872 0,0 1.3385,-37.1342 -0.6874,-51.9908 -0.85,-6.2328 -0.7301,-13.0686 -0.875,-19.0937 z"
           transform="matrix(0.26458334,0,0,0.26458334,-6.3049604e-6,18.562493)"
           id="path20389"
           inkscape:connector-curvature="0"
           sodipodi:nodetypes="cscssccsccc" />
      </g>
      <g
         transform="translate(74.793714,69.218947)"
         id="g20620">
        <g
           id="g20501"
           transform="matrix(1.2690619,0,0,1.2690619,164.1914,-425.76387)">
          <g
             transform="translate(23.499378,21.225244)"
             id="g20472">
            <path
               style="color:#000000;fill:#d8b555;fill-opacity:1;fill-rule:nonzero;stroke:#6a5b1d;stroke-width:12;stroke-linecap:round;stroke-linejoin:round;stroke-miterlimit:4;stroke-opacity:1;stroke-dasharray:none;stroke-dashoffset:0;marker:none;visibility:visible;display:inline;overflow:visible;enable-background:accumulate"
               d="m -1916.4796,5867.3171 c -22.6816,-31.993 -5.0138,-55.3909 -5.0138,-51.0934 0,4.2976 12.1765,20.2941 21.7267,29.128 9.5501,8.8339 -2.8651,22.6817 -10.2665,24.5917 -7.4014,1.9101 -6.4464,-2.6263 -6.4464,-2.6263 z"
               id="path20466"
               inkscape:connector-curvature="0"
               transform="matrix(0.26458334,0,0,0.26458334,-6.3049604e-6,18.562493)"
               sodipodi:nodetypes="csscc" />
            <path
               style="color:#000000;fill:#f9d573;fill-opacity:1;fill-rule:nonzero;stroke:none;stroke-width:12;marker:none;visibility:visible;display:inline;overflow:visible;enable-background:accumulate"
               d="m -1921.4934,5815.03 c 2.1488,11.6989 16.474,20.2941 22.2041,29.128 5.7301,8.8339 -4.2975,20.7716 -9.3114,21.2491 -5.0138,0.4775 -13.3702,-25.5467 -14.3252,-34.6194 -0.955,-9.0726 1.4325,-15.7577 1.4325,-15.7577 z"
               id="path20470"
               inkscape:connector-curvature="0"
               transform="matrix(0.26458334,0,0,0.26458334,-6.3049604e-6,18.562493)" />
            <path
               transform="matrix(0.26458334,0,0,0.26458334,-6.3049604e-6,18.562493)"
               inkscape:connector-curvature="0"
               id="path20468"
               d="m -1916.4796,5867.3171 c -22.6816,-31.993 -5.0138,-55.3909 -5.0138,-51.0934 0,4.2976 5.7301,20.2941 15.2803,29.128 9.5501,8.8339 3.5813,22.6817 -3.8201,24.5917 -7.4014,1.9101 -6.4464,-2.6263 -6.4464,-2.6263 z"
               style="color:#000000;fill:#d8b555;fill-opacity:1;fill-rule:nonzero;stroke:none;stroke-width:12;marker:none;visibility:visible;display:inline;overflow:visible;enable-background:accumulate" />
            <path
               inkscape:connector-curvature="0"
               style="color:#000000;fill:#c5a345;fill-opacity:1;fill-rule:nonzero;stroke:none;stroke-width:12;marker:none;visibility:visible;display:inline;overflow:visible;enable-background:accumulate"
               d="m -1712.4375,5905.8125 c -2.5317,11.785 -1.6317,30.2116 13.5937,51.6875 0,0 -1.2053,5.7365 8.1876,3.3125 4.4352,-1.1446 8.4451,-5.677 10.1874,-11.3125 -7.6367,-0.1265 -13.4513,-1.2865 -15.2187,-3.9375 -6.3741,-9.5611 -12.1471,-17.3301 -16.75,-39.75 z"
               transform="matrix(0.20848734,0,0,0.20848734,-152.87952,328.89666)"
               id="path20548" />
          </g>
          <g
             transform="matrix(-1,0,0,1,-975.53503,21.225244)"
             id="g20477">
            <path
               sodipodi:nodetypes="csscc"
               transform="matrix(0.26458334,0,0,0.26458334,-6.3049604e-6,18.562493)"
               inkscape:connector-curvature="0"
               id="path20479"
               d="m -1916.4796,5867.3171 c -22.6816,-31.993 -5.0138,-55.3909 -5.0138,-51.0934 0,4.2976 12.1765,20.2941 21.7267,29.128 9.5501,8.8339 -2.8651,22.6817 -10.2665,24.5917 -7.4014,1.9101 -6.4464,-2.6263 -6.4464,-2.6263 z"
               style="color:#000000;fill:#d8b555;fill-opacity:1;fill-rule:nonzero;stroke:#6a5b1d;stroke-width:12;stroke-linecap:round;stroke-linejoin:round;stroke-miterlimit:4;stroke-opacity:1;stroke-dasharray:none;stroke-dashoffset:0;marker:none;visibility:visible;display:inline;overflow:visible;enable-background:accumulate" />
            <path
               transform="matrix(0.26458334,0,0,0.26458334,-6.3049604e-6,18.562493)"
               inkscape:connector-curvature="0"
               id="path20481"
               d="m -1921.4934,5815.03 c 2.1488,11.6989 16.474,20.2941 22.2041,29.128 5.7301,8.8339 -4.2975,20.7716 -9.3114,21.2491 -5.0138,0.4775 -13.3702,-25.5467 -14.3252,-34.6194 -0.955,-9.0726 1.4325,-15.7577 1.4325,-15.7577 z"
               style="color:#000000;fill:#f9d573;fill-opacity:1;fill-rule:nonzero;stroke:none;stroke-width:12;marker:none;visibility:visible;display:inline;overflow:visible;enable-background:accumulate" />
            <path
               style="color:#000000;fill:#d8b555;fill-opacity:1;fill-rule:nonzero;stroke:none;stroke-width:12;marker:none;visibility:visible;display:inline;overflow:visible;enable-background:accumulate"
               d="m -1916.4796,5867.3171 c -22.6816,-31.993 -5.0138,-55.3909 -5.0138,-51.0934 0,4.2976 5.7301,20.2941 15.2803,29.128 9.5501,8.8339 3.5813,22.6817 -3.8201,24.5917 -7.4014,1.9101 -6.4464,-2.6263 -6.4464,-2.6263 z"
               id="path20483"
               inkscape:connector-curvature="0"
               transform="matrix(0.26458334,0,0,0.26458334,-6.3049604e-6,18.562493)" />
            <path
               inkscape:connector-curvature="0"
               style="color:#000000;fill:#c5a345;fill-opacity:1;fill-rule:nonzero;stroke:none;stroke-width:12;marker:none;visibility:visible;display:inline;overflow:visible;enable-background:accumulate"
               d="m -1614.625,5899.6875 c 2.6867,14.1692 -3.3945,26.9774 -6.0938,35.75 -1.0602,3.4459 -11.8137,7.317 -24.875,10.125 0.7558,7.3778 5.5661,13.8477 11,15.25 9.3929,2.424 8.1876,-3.3125 8.1876,-3.3125 18.2073,-25.6819 15.9157,-46.9938 11.7812,-57.8125 z"
               transform="matrix(-0.20848734,0,0,0.20848734,-846.15489,328.89666)"
               id="path20551" />
          </g>
          <path
             sodipodi:nodetypes="csscscccsccsscc"
             style="color:#000000;fill:#d8b555;fill-opacity:1;fill-rule:nonzero;stroke:#6a5b1d;stroke-width:2.50184798;stroke-linejoin:round;stroke-miterlimit:4;stroke-opacity:1;stroke-dasharray:none;marker:none;visibility:visible;display:inline;overflow:visible;enable-background:accumulate"
             d="m -483.94821,1597.1093 c -0.1895,-2.3373 -0.18952,-4.4851 0.25267,-5.6221 0.20754,-0.5337 2.17938,-0.715 2.96426,-1.3131 0.88749,-0.6764 0.79883,-3.261 1.26818,-3.3615 0.2768,-0.059 1.37924,-0.1942 2.64983,-0.257 2.78884,-0.1377 6.99645,-0.2325 8.34181,-0.059 4.42213,-0.099 4.80094,3.4744 4.80094,3.4744 0,0 1.95829,2.1478 2.02144,2.7795 0.0632,0.6317 -0.88437,1.6424 -0.75803,2.0846 0.12634,0.4422 0.31584,2.4637 0,2.969 -0.31586,0.5054 -4.23241,4.0429 -4.86412,4.1061 -0.6317,0.063 -3.09534,-0.379 -4.54827,-1.0107 -1.45291,-0.6317 -4.04291,-2.59 -5.43264,-2.3373 -1.38975,0.2526 -6.50655,0.8844 -6.69607,-1.453 z"
             id="path20464"
             inkscape:connector-curvature="0" />
          <path
             sodipodi:nodetypes="csccccsccssc"
             inkscape:connector-curvature="0"
             id="path20462"
             d="m -483.94821,1597.1093 c -0.1895,-2.3373 0,-6.0011 0.44219,-7.1382 0.4422,-1.1371 3.28486,-3.0322 4.16926,-3.2217 0.88437,-0.1895 8.90701,-0.5054 10.8653,-0.2527 4.56292,0.1119 4.80094,3.4744 4.80094,3.4744 0,0 1.95829,2.1478 2.02144,2.7795 0.0632,0.6317 -0.88437,1.6424 -0.75803,2.0846 0.12634,0.4422 0.31584,2.4637 0,2.969 -0.31586,0.5054 -4.23241,4.0429 -4.86412,4.1061 -0.6317,0.063 -3.09534,-0.379 -4.54827,-1.0107 -1.45291,-0.6317 -4.04291,0 -5.43264,0.2526 -1.38975,0.2527 -6.50655,-1.7055 -6.69607,-4.0429 z"
             style="color:#000000;fill:#d8b555;fill-opacity:1;fill-rule:nonzero;stroke:none;stroke-width:12;marker:none;visibility:visible;display:inline;overflow:visible;enable-background:accumulate" />
          <path
             inkscape:connector-curvature="0"
             style="opacity:0.37168142;color:#000000;fill:#a6852b;fill-opacity:1;fill-rule:nonzero;stroke:none;stroke-width:12;marker:none;visibility:visible;display:inline;overflow:visible;enable-background:accumulate"
             d="m -1694.9062,5942.0938 c -1.7412,1.7022 -3.1047,3.3629 -3.6563,4.7812 -2.1209,5.454 -3.0027,23.0392 -2.0937,34.25 0.909,11.2112 25.4278,20.5871 32.0937,19.375 6.6658,-1.2116 19.0937,-4.2174 26.0625,-1.1875 6.9689,3.0299 18.7826,5.1459 21.8125,4.8437 3.03,-0.3031 21.8287,-17.2946 23.3437,-19.7187 0.056,-0.09 0.1065,-0.203 0.1563,-0.3125 -0.2793,0.1903 -14.8176,10.0933 -22.8437,13.4375 -8.1037,3.3765 -22.9604,-6.7553 -27.6876,-8.7813 -4.7271,-2.0259 -24.9832,3.3971 -34.4374,-4.0312 -9.4543,-7.4283 -15.545,-21.6176 -12.8438,-38.5 0.2862,-1.7886 0.2994,-3.1624 0.094,-4.1562 z"
             transform="matrix(0.20848734,0,0,0.20848734,-129.38014,350.1219)"
             id="path20521" />
          <path
             sodipodi:nodetypes="ccccsccccc"
             inkscape:connector-curvature="0"
             style="color:#000000;fill:#f9d573;fill-opacity:1;fill-rule:nonzero;stroke:none;stroke-width:12;marker:none;visibility:visible;display:inline;overflow:visible;enable-background:accumulate"
             d="m -1637.9375,5929.75 c -14.984,-0.043 -37.4436,1.0058 -40.625,1.6875 -4.242,0.9089 -17.879,9.9835 -20,15.4375 -0.8236,2.1179 -1.4524,6.0905 -1.875,10.7812 10.4515,-12.3891 33.7021,-20.1618 61.5,-19.5 28.3626,0.6754 24.3041,8.7744 29.0313,10.125 3.1939,0.9126 9.8644,5.0856 14,7.7813 -2.8603,-4.0833 -7.5,-9.1875 -7.5,-9.1875 0,0 -2.4961,-16.1195 -23.0313,-16.6562 -2.3482,-0.3031 -6.5053,-0.4546 -11.5,-0.4688 z"
             transform="matrix(0.20848734,0,0,0.20848734,-129.38014,350.1219)"
             id="path20526" />
        </g>
        <path
           style="opacity:0.96460176;color:#000000;fill:#6e5e1f;fill-opacity:1;fill-rule:nonzero;stroke:none;stroke-width:12;marker:none;visibility:visible;display:inline;overflow:visible;enable-background:accumulate"
           d="m -427.97926,1598.4101 c 2.08463,-0.1515 2.90584,-0.2497 3.66387,-0.093 0.75806,0.1574 -0.94755,2.9461 -1.83195,3.2364 -0.88437,0.2902 -4.48508,-2.5259 -3.85339,-2.7422 0.63172,-0.2163 2.02147,-0.4017 2.02147,-0.4017 z"
           id="path20564"
           inkscape:connector-curvature="0" />
      </g>
      <g
         transform="matrix(0.96210436,0,0,0.96210436,-15.092296,66.074971)"
         id="g20839">
        <path
           sodipodi:nodetypes="cssssscc"
           transform="matrix(0.26458334,0,0,0.26458334,-6.3049604e-6,18.562493)"
           inkscape:connector-curvature="0"
           id="path20837"
           d="m -1465.6709,6491.266 c -26.6684,31.121 -10.0063,61.1045 43.7376,56.7181 30.2622,-2.4699 47.6175,-18.4394 53.406,-31.4628 5.0634,-11.3918 3.6514,-18.9016 -2.2881,-19.6551 -10.5926,-1.3439 -15.0275,8.4313 -27.6463,20.5726 -20.6457,19.8647 -55.2624,12.3197 -64.2353,0.7912 -3.3285,-4.2765 -1.3096,-11.4661 -1.3096,-11.4661 z"
           style="color:#000000;fill:#d8b555;fill-opacity:1;fill-rule:nonzero;stroke:#6a5b1d;stroke-width:12;stroke-linejoin:round;stroke-opacity:1;marker:none;visibility:visible;display:inline;overflow:visible;enable-background:accumulate" />
        <path
           style="color:#000000;fill:#d8b555;fill-opacity:1;fill-rule:nonzero;stroke:none;stroke-width:12;marker:none;visibility:visible;display:inline;overflow:visible;enable-background:accumulate"
           d="m -1465.6709,6491.266 c -26.6684,31.121 -10.0063,61.1045 43.7376,56.7181 30.2622,-2.4699 47.6175,-18.4394 53.406,-31.4628 5.0634,-11.3918 3.6514,-18.9016 -2.2881,-19.6551 -10.5926,-1.3439 -15.0275,8.4313 -27.6463,20.5726 -20.6457,19.8647 -55.2624,12.3197 -64.2353,0.7912 -3.3285,-4.2765 -1.3096,-11.4661 -1.3096,-11.4661 z"
           id="path20835"
           inkscape:connector-curvature="0"
           transform="matrix(0.26458334,0,0,0.26458334,-6.3049604e-6,18.562493)"
           sodipodi:nodetypes="cssssscc" />
        <path
           inkscape:connector-curvature="0"
           id="path20845"
           transform="matrix(0.26458334,0,0,0.26458334,0.56852703,18.562493)"
           d="m -1370.1562,6497.9375 c 0.1697,0.5884 0.3223,1.2103 0.4374,1.8437 0.9552,5.2527 -17.4316,46.5438 -63.75,44.1563 -40.9498,-2.1109 -47.0093,-24.1684 -44.5624,-36.1875 -9.2513,24.3048 9.8619,43.8161 53.9374,40.2188 30.2623,-2.47 47.6178,-18.4141 53.4063,-31.4376 4.1283,-9.2879 3.9562,-16.0246 0.5313,-18.5937 z"
           style="color:#000000;fill:#c2a141;fill-opacity:1;fill-rule:nonzero;stroke:none;stroke-width:12;marker:none;visibility:visible;display:inline;overflow:visible;enable-background:accumulate" />
        <path
           inkscape:connector-curvature="0"
           id="path20850"
           transform="matrix(0.26458334,0,0,0.26458334,0.56852703,18.562493)"
           d="m -1467.8125,6491.2812 c -5.785,6.7509 -9.5104,13.4454 -11.2813,19.75 6.3478,-7.1679 10.7703,-8.3952 9.8126,-7.4374 -1.1939,1.1938 -1.9246,39.8739 40.8124,30.5624 42.7371,-9.3114 43.4524,-36.3 53.7188,-32.7187 4.0216,1.4029 6.1089,3.0798 7.0938,4.5937 0.469,-5.3544 -1.4742,-8.6693 -5.3126,-9.1562 -10.5926,-1.3439 -15.0374,8.4212 -27.6562,20.5625 -20.6457,19.8647 -55.2458,12.3098 -64.2188,0.7813 -3.3285,-4.2766 -1.3124,-11.4688 -1.3124,-11.4688 l -1.6563,-15.4688 z"
           style="color:#000000;fill:#e1be5d;fill-opacity:1;fill-rule:nonzero;stroke:none;stroke-width:12;marker:none;visibility:visible;display:inline;overflow:visible;enable-background:accumulate" />
      </g>
      <path
         transform="matrix(0.26458334,0,0,0.26458334,-6.3049604e-6,18.562493)"
         inkscape:connector-curvature="0"
         id="path20916"
         d="m -1331.0138,6238.6563 c 4.0518,17.5578 2.0259,21.6096 4.0518,16.8825 2.0259,-4.7271 0.6753,-17.5578 0.6753,-17.5578 z"
         style="color:#000000;fill:#726121;fill-opacity:1;fill-rule:nonzero;stroke:none;stroke-width:12;marker:none;visibility:visible;display:inline;overflow:visible;enable-background:accumulate" />
      <path
         sodipodi:nodetypes="cc"
         transform="matrix(0.26458334,0,0,0.26458334,-6.3049604e-6,18.562493)"
         inkscape:connector-curvature="0"
         id="path20918"
         d="m -1372.7594,6214.2707 c 5.4439,3.3769 14.9886,6.9499 22.2878,7.1585"
         style="color:#000000;fill:none;stroke:#6a5b1d;stroke-width:3;stroke-linecap:round;stroke-miterlimit:4;stroke-opacity:1;stroke-dasharray:none;marker:none;visibility:visible;display:inline;overflow:visible;enable-background:accumulate" />
      <path
         sodipodi:nodetypes="cc"
         transform="matrix(0.26458334,0,0,0.26458334,-6.3049604e-6,18.562493)"
         inkscape:connector-curvature="0"
         id="path20920"
         d="m -1327.8761,6219.7818 c 9.0926,-5.4023 8.4992,-13.8125 8.4992,-13.8125"
         style="color:#000000;fill:none;stroke:#6a5b1d;stroke-width:3;stroke-linecap:round;stroke-miterlimit:4;stroke-opacity:1;stroke-dasharray:none;marker:none;visibility:visible;display:inline;overflow:visible;enable-background:accumulate" />
    </g>
  </g>
</svg>
