<?xml version="1.0" encoding="UTF-8" standalone="no"?>
<!-- Created with Inkscape (http://www.inkscape.org/) -->

<svg
   xmlns:dc="http://purl.org/dc/elements/1.1/"
   xmlns:cc="http://creativecommons.org/ns#"
   xmlns:rdf="http://www.w3.org/1999/02/22-rdf-syntax-ns#"
   xmlns:svg="http://www.w3.org/2000/svg"
   xmlns="http://www.w3.org/2000/svg"
   xmlns:xlink="http://www.w3.org/1999/xlink"
   xmlns:sodipodi="http://sodipodi.sourceforge.net/DTD/sodipodi-0.dtd"
   xmlns:inkscape="http://www.inkscape.org/namespaces/inkscape"
   width="561.45801"
   height="1148.9293"
   viewBox="0 0 148.55242 303.98755"
   version="1.1"
   id="svg23489"
   inkscape:version="0.48.5 r10040"
   sodipodi:docname="obelisk_01.svg"
   tags="obelisk, egypt,ancient egypt">
  <defs
     id="defs23483">
    <linearGradient
       inkscape:collect="always"
       id="linearGradient58172-6">
      <stop
         style="stop-color:#ffcc00;stop-opacity:1;"
         offset="0"
         id="stop58174-1" />
      <stop
         style="stop-color:#ffff00;stop-opacity:1"
         offset="1"
         id="stop58176-1" />
    </linearGradient>
    <linearGradient
       inkscape:collect="always"
       xlink:href="#linearGradient58172-6"
       id="linearGradient3148"
       gradientUnits="userSpaceOnUse"
       x1="-5553.0703"
       y1="12036.137"
       x2="-5586.4458"
       y2="11862.003" />
  </defs>
  <sodipodi:namedview
     id="base"
     pagecolor="#7d848b"
     bordercolor="#666666"
     borderopacity="1.0"
     inkscape:pageopacity="1"
     inkscape:pageshadow="2"
     inkscape:zoom="0.51893781"
     inkscape:cx="211.15149"
     inkscape:cy="359.14208"
     inkscape:document-units="px"
     inkscape:current-layer="layer1"
     showgrid="false"
     inkscape:pagecheckerboard="false"
     showborder="true"
     units="px"
     inkscape:window-width="1920"
     inkscape:window-height="1017"
     inkscape:window-x="-8"
     inkscape:window-y="-8"
     inkscape:window-maximized="1"
     inkscape:showpageshadow="false"
     guidetolerance="28"
     fit-margin-top="25"
     fit-margin-left="25"
     fit-margin-right="5"
     fit-margin-bottom="25">
    <inkscape:grid
       type="xygrid"
       id="grid24034"
       spacingx="1px"
       spacingy="1px"
       empspacing="8"
       visible="true"
       enabled="true"
       snapvisiblegridlinesonly="true"
       originx="-281.4605px"
       originy="183.1014px" />
  </sodipodi:namedview>
  <metadata
     id="metadata23486">
    <rdf:RDF>
      <cc:Work
         rdf:about="">
        <dc:format>image/svg+xml</dc:format>
        <dc:type
           rdf:resource="http://purl.org/dc/dcmitype/StillImage" />
        <dc:title></dc:title>
        <cc:license
           rdf:resource="" />
        <dc:creator>
          <cc:Agent>
            <dc:title>Robert Brooks</dc:title>
          </cc:Agent>
        </dc:creator>
      </cc:Work>
    </rdf:RDF>
  </metadata>
  <g
     inkscape:label="Layer 1"
     inkscape:groupmode="layer"
     id="layer1"
     transform="translate(-74.469759,-41.458019)">
    <g
       transform="matrix(0.96183654,0.01996387,-0.01805245,0.86974627,778.38753,-2646.2279)"
       id="g21045">
      <path
         sodipodi:nodetypes="ccccc"
         transform="matrix(0.26458334,0,0,0.26458334,-6.3049604e-6,18.562493)"
         inkscape:connector-curvature="0"
         id="path21047"
         d="m -2434.2418,12851.494 0.8969,52.668 177.7946,20.38 -0.9873,-57.879 z"
         style="color:#000000;fill:#eec85d;fill-opacity:1;fill-rule:nonzero;stroke:#8a7626;stroke-width:11.99982643;stroke-linejoin:round;stroke-miterlimit:4;stroke-opacity:1;stroke-dasharray:none;marker:none;visibility:visible;display:inline;overflow:visible;enable-background:accumulate" />
      <path
         transform="matrix(0.26458334,0,0,0.26458334,-6.3049604e-6,18.562493)"
         inkscape:connector-curvature="0"
         id="path21049"
         d="m -2258.5128,12863.213 c -0.3754,2.105 -7.1176,37.242 0.9567,57.876 46.8403,-3.205 99.4465,-19.095 149.183,-28.093 0,0 2.3111,-56.311 -0.8969,-56.311 -3.208,0 -84.2455,16.423 -85.5287,17.065 -1.2832,0.641 -63.7142,9.463 -63.7142,9.463 z"
         style="color:#000000;fill:#d3aa37;fill-opacity:1;fill-rule:nonzero;stroke:#8a7626;stroke-width:11.99982643;stroke-linejoin:round;stroke-miterlimit:4;stroke-opacity:1;stroke-dasharray:none;marker:none;visibility:visible;display:inline;overflow:visible;enable-background:accumulate"
         sodipodi:nodetypes="cccsccc" />
      <g
         id="g21051">
        <path
           sodipodi:nodetypes="ccccsc"
           transform="matrix(0.26458334,0,0,0.26458334,-6.3049604e-6,18.562493)"
           inkscape:connector-curvature="0"
           id="path21053"
           d="m -2316.1868,12828.015 c -19.2481,7.057 -120.6214,21.447 -118.055,22.731 2.5664,1.283 173.8744,21.146 179.0072,18.579 5.1329,-2.566 142.4359,-33.282 142.4359,-33.282 0,0 -153.9847,-12.519 -156.5511,-12.519 -2.5664,0 -46.837,4.491 -46.837,4.491 z"
           style="color:#000000;fill:#ffe581;fill-opacity:1;fill-rule:nonzero;stroke:#8a7626;stroke-width:12;stroke-linecap:round;stroke-linejoin:round;stroke-miterlimit:4;stroke-opacity:1;stroke-dasharray:none;stroke-dashoffset:0;marker:none;visibility:visible;display:inline;overflow:visible;enable-background:accumulate" />
        <path
           style="color:#000000;fill:#ffe581;fill-opacity:1;fill-rule:nonzero;stroke:none;stroke-width:12;marker:none;visibility:visible;display:inline;overflow:visible;enable-background:accumulate"
           d="m -2311.868,12828.734 c -19.2481,7.057 -124.9402,20.728 -122.3738,22.012 2.5664,1.283 173.8744,21.433 179.0072,18.866 5.1329,-2.566 142.4359,-33.569 142.4359,-33.569 0,0 -153.9847,-12.519 -156.5511,-12.519 -2.5664,0 -42.5182,5.21 -42.5182,5.21 z"
           id="path21055"
           inkscape:connector-curvature="0"
           transform="matrix(0.26458334,0,0,0.26458334,-6.3049604e-6,18.562493)"
           sodipodi:nodetypes="ccccsc" />
      </g>
      <path
         style="color:#000000;fill:#eec85d;fill-opacity:1;fill-rule:nonzero;stroke:none;stroke-width:12;marker:none;visibility:visible;display:inline;overflow:visible;enable-background:accumulate"
         d="m -2434.2418,12850.104 c 0,1.283 0.8969,54.827 0.8969,54.827 0,0 157.2926,24.569 179.0045,24.166 1.4203,-17.876 3.3447,-35.372 -1.3754,-57.889 l -97.8229,-11.051 z"
         id="path21057"
         inkscape:connector-curvature="0"
         transform="matrix(0.26458334,0,0,0.26458334,-6.3049604e-6,18.562493)"
         sodipodi:nodetypes="cccccc" />
      <path
         style="color:#000000;fill:#dcad49;fill-opacity:1;fill-rule:nonzero;stroke:none;stroke-width:12;marker:none;visibility:visible;display:inline;overflow:visible;enable-background:accumulate"
         d="m -2255.7158,12871.208 0,0 1.3754,57.889 71.4861,-18.54 74.4813,-18.083 c 0,0 2.3111,-55.789 -0.8969,-55.789 -3.208,0 -81.0064,13.544 -82.2896,14.186 -1.2832,0.641 -64.1563,20.337 -64.1563,20.337 z"
         id="path21059"
         inkscape:connector-curvature="0"
         transform="matrix(0.26458334,0,0,0.26458334,-6.3049604e-6,18.562493)"
         sodipodi:nodetypes="cccccscc" />
      <path
         inkscape:connector-curvature="0"
         style="color:#000000;fill:#d09c2f;fill-opacity:1;fill-rule:nonzero;stroke:none;stroke-width:12;marker:none;visibility:visible;display:inline;overflow:visible;enable-background:accumulate"
         d="m -1835.5312,13738.906 c -3.0711,-0.06 -77.7914,10.095 -79.0313,10.625 -1.2399,0.53 -61.7813,16.344 -61.7813,16.344 l 0.125,20.469 c 23.8551,-7.419 126.0938,-26.344 126.0938,-26.344 0,0 -0.1113,13.201 -0.3438,30.125 l 14.7813,-2.906 c 0,0 3.2273,-48.249 0.1563,-48.313 z"
         transform="matrix(0.27626659,-0.00634133,0.00573419,0.30551819,-129.76323,-794.18716)"
         id="path21063" />
    </g>
    <g
       id="g21029"
       transform="matrix(1.0440681,0.02167066,-0.01959583,0.94410462,833.06456,-2900.5887)">
      <path
         style="color:#000000;fill:#eec85d;fill-opacity:1;fill-rule:nonzero;stroke:#8a7626;stroke-width:12;stroke-linejoin:round;stroke-opacity:1;marker:none;visibility:visible;display:inline;overflow:visible;enable-background:accumulate"
         d="m -2434.2418,12851.494 0,4.882 177.7042,15.564 0,-5.277 z"
         id="path21031"
         inkscape:connector-curvature="0"
         transform="matrix(0.26458334,0,0,0.26458334,-6.3049604e-6,18.562493)"
         sodipodi:nodetypes="ccccc" />
      <path
         sodipodi:nodetypes="cccscc"
         style="color:#000000;fill:#d3aa37;fill-opacity:1;fill-rule:nonzero;stroke:#8a7626;stroke-width:12.14136314;stroke-linejoin:round;stroke-miterlimit:4;stroke-opacity:1;stroke-dasharray:none;marker:none;visibility:visible;display:inline;overflow:visible;enable-background:accumulate"
         d="m -2258.5128,12863.213 c -0.3754,2.105 -8.0353,-11.655 0.039,8.979 46.8403,-3.205 99.4673,-17.984 149.2038,-26.982 0,0 3.208,-8.525 0,-8.525 -3.208,0 -84.2455,16.423 -85.5287,17.065 -1.2832,0.641 -63.7142,9.463 -63.7142,9.463 z"
         id="path21033"
         inkscape:connector-curvature="0"
         transform="matrix(0.26458334,0,0,0.26458334,-6.3049604e-6,18.562493)" />
      <g
         id="g21035">
        <path
           style="color:#000000;fill:#ffe581;fill-opacity:1;fill-rule:nonzero;stroke:#8a7626;stroke-width:12;stroke-linecap:round;stroke-linejoin:round;stroke-miterlimit:4;stroke-opacity:1;stroke-dasharray:none;stroke-dashoffset:0;marker:none;visibility:visible;display:inline;overflow:visible;enable-background:accumulate"
           d="m -2316.1868,12828.015 c -19.2481,7.057 -120.6214,21.447 -118.055,22.731 2.5664,1.283 173.8744,21.146 179.0072,18.579 5.1329,-2.566 142.4359,-33.282 142.4359,-33.282 0,0 -153.9847,-12.519 -156.5511,-12.519 -2.5664,0 -46.837,4.491 -46.837,4.491 z"
           id="path21037"
           inkscape:connector-curvature="0"
           transform="matrix(0.26458334,0,0,0.26458334,-6.3049604e-6,18.562493)"
           sodipodi:nodetypes="ccccsc" />
        <path
           sodipodi:nodetypes="ccccsc"
           transform="matrix(0.26458334,0,0,0.26458334,-6.3049604e-6,18.562493)"
           inkscape:connector-curvature="0"
           id="path21039"
           d="m -2311.868,12828.734 c -19.2481,7.057 -124.9402,20.728 -122.3738,22.012 2.5664,1.283 173.8744,21.433 179.0072,18.866 5.1329,-2.566 142.4359,-33.569 142.4359,-33.569 0,0 -153.9847,-12.519 -156.5511,-12.519 -2.5664,0 -42.5182,5.21 -42.5182,5.21 z"
           style="color:#000000;fill:#ffe581;fill-opacity:1;fill-rule:nonzero;stroke:none;stroke-width:12;marker:none;visibility:visible;display:inline;overflow:visible;enable-background:accumulate" />
      </g>
      <path
         sodipodi:nodetypes="cccccc"
         transform="matrix(0.26458334,0,0,0.26458334,-6.3049604e-6,18.562493)"
         inkscape:connector-curvature="0"
         id="path21041"
         d="m -2434.2418,12850.104 c 0,1.283 0,7.041 0,7.041 0,0 157.2926,24.569 179.0045,24.166 l -0.4785,-10.103 -97.8229,-11.051 z"
         style="color:#000000;fill:#eec85d;fill-opacity:1;fill-rule:nonzero;stroke:none;stroke-width:12;marker:none;visibility:visible;display:inline;overflow:visible;enable-background:accumulate" />
      <path
         sodipodi:nodetypes="cccccscc"
         transform="matrix(0.26458334,0,0,0.26458334,-6.3049604e-6,18.562493)"
         inkscape:connector-curvature="0"
         id="path21043"
         d="m -2255.7158,12871.208 0,0 0.4785,10.103 68.7786,-19.96 77.1888,-16.663 c 0,0 3.208,-8.003 0,-8.003 -3.208,0 -81.0064,13.544 -82.2896,14.186 -1.2832,0.641 -64.1563,20.337 -64.1563,20.337 z"
         style="color:#000000;fill:#eebc50;fill-opacity:1;fill-rule:nonzero;stroke:none;stroke-width:12;marker:none;visibility:visible;display:inline;overflow:visible;enable-background:accumulate" />
    </g>
    <g
       transform="matrix(0.89539613,0.01858483,-0.01680544,0.80966714,734.20277,-2446.0892)"
       id="g20350">
      <path
         sodipodi:nodetypes="ccccc"
         transform="matrix(0.26458334,0,0,0.26458334,-6.3049604e-6,18.562493)"
         inkscape:connector-curvature="0"
         id="path20352"
         d="m -2434.2418,12851.494 0,4.882 177.7042,15.564 0,-5.277 z"
         style="color:#000000;fill:#eec85d;fill-opacity:1;fill-rule:nonzero;stroke:#8a7626;stroke-width:12;stroke-linejoin:round;stroke-opacity:1;marker:none;visibility:visible;display:inline;overflow:visible;enable-background:accumulate" />
      <path
         transform="matrix(0.26458334,0,0,0.26458334,-6.3049604e-6,18.562493)"
         inkscape:connector-curvature="0"
         id="path20354"
         d="m -2258.5128,12863.213 c -0.3754,2.105 -8.0353,-11.655 0.039,8.979 46.8403,-3.205 99.4673,-17.984 149.2038,-26.982 0,0 3.208,-8.525 0,-8.525 -3.208,0 -84.2455,16.423 -85.5287,17.065 -1.2832,0.641 -63.7142,9.463 -63.7142,9.463 z"
         style="color:#000000;fill:#d3aa37;fill-opacity:1;fill-rule:nonzero;stroke:#8a7626;stroke-width:12;stroke-linejoin:round;stroke-opacity:1;marker:none;visibility:visible;display:inline;overflow:visible;enable-background:accumulate"
         sodipodi:nodetypes="cccscc" />
      <g
         id="g20356">
        <path
           sodipodi:nodetypes="ccccsc"
           transform="matrix(0.26458334,0,0,0.26458334,-6.3049604e-6,18.562493)"
           inkscape:connector-curvature="0"
           id="path20358"
           d="m -2316.1868,12828.015 c -19.2481,7.057 -120.6214,21.447 -118.055,22.731 2.5664,1.283 173.8744,21.146 179.0072,18.579 5.1329,-2.566 142.4359,-33.282 142.4359,-33.282 0,0 -153.9847,-12.519 -156.5511,-12.519 -2.5664,0 -46.837,4.491 -46.837,4.491 z"
           style="color:#000000;fill:#ffe581;fill-opacity:1;fill-rule:nonzero;stroke:#8a7626;stroke-width:12;stroke-linecap:round;stroke-linejoin:round;stroke-miterlimit:4;stroke-opacity:1;stroke-dasharray:none;stroke-dashoffset:0;marker:none;visibility:visible;display:inline;overflow:visible;enable-background:accumulate" />
        <path
           style="color:#000000;fill:#ffe581;fill-opacity:1;fill-rule:nonzero;stroke:none;stroke-width:12;marker:none;visibility:visible;display:inline;overflow:visible;enable-background:accumulate"
           d="m -2311.868,12828.734 c -19.2481,7.057 -124.9402,20.728 -122.3738,22.012 2.5664,1.283 173.8744,21.433 179.0072,18.866 5.1329,-2.566 142.4359,-33.569 142.4359,-33.569 0,0 -153.9847,-12.519 -156.5511,-12.519 -2.5664,0 -42.5182,5.21 -42.5182,5.21 z"
           id="path20360"
           inkscape:connector-curvature="0"
           transform="matrix(0.26458334,0,0,0.26458334,-6.3049604e-6,18.562493)"
           sodipodi:nodetypes="ccccsc" />
      </g>
      <path
         style="color:#000000;fill:#eec85d;fill-opacity:1;fill-rule:nonzero;stroke:none;stroke-width:12;marker:none;visibility:visible;display:inline;overflow:visible;enable-background:accumulate"
         d="m -2434.2418,12850.104 c 0,1.283 0,7.041 0,7.041 0,0 157.2926,24.569 179.0045,24.166 l -0.4785,-10.103 -97.8229,-11.051 z"
         id="path20364"
         inkscape:connector-curvature="0"
         transform="matrix(0.26458334,0,0,0.26458334,-6.3049604e-6,18.562493)"
         sodipodi:nodetypes="cccccc" />
      <path
         style="color:#000000;fill:#eebc50;fill-opacity:1;fill-rule:nonzero;stroke:none;stroke-width:12;marker:none;visibility:visible;display:inline;overflow:visible;enable-background:accumulate"
         d="m -2255.7158,12871.208 0,0 0.4785,10.103 68.7786,-19.96 77.1888,-16.663 c 0,0 3.208,-8.003 0,-8.003 -3.208,0 -81.0064,13.544 -82.2896,14.186 -1.2832,0.641 -64.1563,20.337 -64.1563,20.337 z"
         id="path20366"
         inkscape:connector-curvature="0"
         transform="matrix(0.26458334,0,0,0.26458334,-6.3049604e-6,18.562493)"
         sodipodi:nodetypes="cccccscc" />
    </g>
    <g
       id="g20864"
       transform="matrix(1.0047412,0,0,1.0047412,1084.7362,-3174.4051)">
      <g
         id="g20866"
         transform="matrix(1.025627,0,0,1.025627,-321.42458,-20.500055)">
        <g
           transform="matrix(0.91703699,0,0,0.91703699,-919.37112,328.19452)"
           id="g20868">
          <g
             id="g20870"
             transform="matrix(0.21478225,0,0,0.27683052,659.17379,2206.1892)">
            <path
               style="color:#000000;fill:#ffcc00;fill-opacity:1;fill-rule:nonzero;stroke:#8a7626;stroke-width:49.01723862;stroke-linejoin:round;stroke-miterlimit:4;stroke-opacity:1;stroke-dasharray:none;marker:none;visibility:visible;display:inline;overflow:visible;enable-background:accumulate"
               d="m -5554.9034,11803.217 c -16.2838,12.744 -252.7531,240.009 -253.4611,243.549 -0.708,3.54 -1.416,23.364 -1.416,23.364 l 12.7439,9.912 c 0,0 288.8606,-49.559 292.4006,-49.559 3.5399,0 176.9979,41.063 176.9979,41.063 l 24.0717,-16.992 c 0,0 -2.1239,-21.239 -2.8319,-17.699 -0.708,3.539 -232.2213,-234.346 -232.2213,-234.346 -3.54,-3.54 -13.4518,-6.372 -16.2838,0.708 z"
               id="path20872"
               inkscape:connector-curvature="0"
               transform="matrix(0.26458334,0,0,0.26458334,-6.3049604e-6,18.562493)"
               sodipodi:nodetypes="csccsccccc" />
            <path
               sodipodi:nodetypes="csccsccccc"
               transform="matrix(0.26458334,0,0,0.26458334,-6.3049604e-6,18.562493)"
               inkscape:connector-curvature="0"
               id="path20874"
               d="m -5554.9034,11803.217 c -16.2838,12.744 -252.7531,240.009 -253.4611,243.549 -0.708,3.54 -1.416,23.364 -1.416,23.364 l 12.7439,9.912 c 0,0 263.2069,-48.453 266.7469,-48.453 3.5399,0 202.6516,39.957 202.6516,39.957 l 24.0717,-16.992 c 0,0 -2.1239,-21.239 -2.8319,-17.699 -0.708,3.539 -232.2213,-234.346 -232.2213,-234.346 -3.54,-3.54 -13.4518,-6.372 -16.2838,0.708 z"
               style="color:#000000;fill:url(#linearGradient3148);fill-opacity:1;fill-rule:nonzero;stroke:none;stroke-width:12;marker:none;visibility:visible;display:inline;overflow:visible;enable-background:accumulate" />
            <path
               sodipodi:nodetypes="cscccccc"
               inkscape:connector-curvature="0"
               id="path20876"
               transform="matrix(0.2711471,0,0,0.2711471,-1424.7129,-764.97205)"
               d="m -154.6875,14403.812 c -2.64708,25.558 -9.08012,179.894 -15.78414,227.517 -0.99119,7.041 26.40133,-6.627 27.74138,0.188 32.57093,7.14 198.44898,37.514 198.44898,37.514 l 23.5,-16.593 c 0,0 -2.090389,-20.705 -2.78125,-17.25 -0.690861,3.453 -226.59375,-228.688 -226.59375,-228.688 -1.05395,-1.054 -2.69251,-2.017 -4.53122,-2.688 z"
               style="opacity:0.23893804;color:#000000;fill:#d40000;fill-opacity:1;fill-rule:nonzero;stroke:none;stroke-width:12;marker:none;visibility:visible;display:inline;overflow:visible;enable-background:accumulate" />
            <path
               inkscape:connector-curvature="0"
               id="path20878"
               transform="matrix(0.2711471,0,0,0.2711471,-1424.7129,-764.97205)"
               d="m -29.34375,14649 c 1.428663,0.335 2.754466,0.664 4.1875,1 -0.0056,0 -0.02563,-0.02 -0.03125,-0.03 -1.41044,-0.331 -2.747094,-0.639 -4.15625,-0.969 z"
               style="opacity:0.3982301;color:#000000;fill:#ffffff;fill-opacity:1;fill-rule:nonzero;stroke:none;stroke-width:12;marker:none;visibility:visible;display:inline;overflow:visible;enable-background:accumulate"
               sodipodi:nodetypes="ccccc" />
          </g>
          <path
             style="color:#000000;fill:#aa8f47;fill-opacity:1;fill-rule:nonzero;stroke:#8a7626;stroke-width:3.17499995;stroke-linejoin:round;stroke-miterlimit:4;stroke-opacity:1;stroke-dasharray:none;marker:none;visibility:visible;display:inline;overflow:visible;enable-background:accumulate"
             d="m 357.42267,3096.0071 12.22254,252.7437 -26.48215,2.9364 0,-259.33 z"
             id="path20880"
             inkscape:connector-curvature="0"
             sodipodi:nodetypes="ccccc" />
          <path
             inkscape:connector-curvature="0"
             id="path20882"
             d="m 357.42267,3095.3281 12.22254,253.4227 -26.48215,5.4234 0,-263.5995 z"
             style="color:#000000;fill:#eec85d;fill-opacity:1;fill-rule:nonzero;stroke:none;stroke-width:12;marker:none;visibility:visible;display:inline;overflow:visible;enable-background:accumulate"
             sodipodi:nodetypes="ccccc" />
          <path
             style="opacity:0.17699112;color:#000000;fill:#f08312;fill-opacity:1;fill-rule:nonzero;stroke:none;stroke-width:12;marker:none;visibility:visible;display:inline;overflow:visible;enable-background:accumulate"
             d="m 358.93805,3126.9011 3.09231,213.7506 c 0,0 -11.52297,2.8786 -13.92369,1.9182 -2.40073,-0.9604 -3.36519,-24.9671 -3.36519,-27.368 0,-1.8552 -0.56618,24.925 -0.82682,38.9688 l 25.73073,-5.4234 z"
             id="path20884"
             inkscape:connector-curvature="0"
             sodipodi:nodetypes="ccssccc" />
          <path
             inkscape:connector-curvature="0"
             id="path20886"
             d="m 328.90345,3096.0071 -12.22254,254.1124 24.7805,1.3058 1.76119,-19.4454 -1.75711,-238.2647 z"
             style="color:#000000;fill:#aa8f47;fill-opacity:1;fill-rule:nonzero;stroke:#8a7626;stroke-width:3.17500019;stroke-linejoin:round;stroke-opacity:1;marker:none;visibility:visible;display:inline;overflow:visible;enable-background:accumulate"
             sodipodi:nodetypes="cccccc" />
          <path
             style="color:#000000;fill:#ffe581;fill-opacity:1;fill-rule:nonzero;stroke:none;stroke-width:12;marker:none;visibility:visible;display:inline;overflow:visible;enable-background:accumulate"
             d="m 328.90345,3094.9886 -12.22254,255.1309 26.48215,4.0546 1.76713,-76.5305 1.09181,-20.0283 -0.84765,-11.8764 0.0258,-39.3896 1.06545,-60.5311 -1.59035,-32.331 -1.08304,-16.6301 -0.42915,-6.2825 z"
             id="path20888"
             inkscape:connector-curvature="0"
             sodipodi:nodetypes="cccccccccccc" />
          <path
             style="opacity:0.23893804;color:#000000;fill:#ffffff;fill-opacity:1;fill-rule:nonzero;stroke:none;stroke-width:12;marker:none;visibility:visible;display:inline;overflow:visible;enable-background:accumulate"
             d="m 343.16226,3090.5707 -14.2627,4.4153 -2.57141,53.7517 c 0.008,-0.04 0.0169,-0.064 0.0249,-0.1074 1.18835,-6.4511 3.7401,-52.4536 3.7401,-52.4536 l 12.21861,-3.5613 c 0,0 1.02317,23.7593 1.70223,27.324 0.67905,3.565 0.67802,16.8056 0.67802,19.1823 0,2.3765 0.84775,6.2857 0.67797,7.8134 -0.16976,1.528 -0.50821,15.6152 -0.67797,17.9917 -0.16978,2.3767 0.33898,12.9013 0.33898,13.7501 0,0.1402 0.24945,0.2212 0.65321,0.2233 l 0.57875,-33.0814 -1.5875,-32.3286 -1.08313,-16.6357 z"
             id="path20890"
             inkscape:connector-curvature="0"
             sodipodi:nodetypes="cccccccscssccccc" />
          <path
             id="path20892"
             transform="matrix(0.27256431,0,0,0.27256431,-50.200569,-158.97927)"
             d="m 1441.3438,11922.719 -50.4688,15.625 -44.8438,936.047 13.3438,0 c 2.4759,-83.892 37.9688,-933.672 37.9688,-933.672 0,0 27.9429,-9.886 44,-18 z m -80.3126,948.86 c 0,0 -0.8051,2.26 -1,2.812 l 0.4376,0 z"
             style="color:#000000;fill:#ffeda8;fill-opacity:1;fill-rule:nonzero;stroke:none;stroke-width:12;marker:none;visibility:visible;display:inline;overflow:visible;enable-background:accumulate"
             inkscape:connector-curvature="0"
             sodipodi:nodetypes="cccccccccc" />
        </g>
        <g
           id="g20894"
           style="opacity:0.45132745"
           transform="matrix(0.41136386,0,0,0.52228782,-640.09703,1493.2232)">
          <path
             style="font-size:medium;font-style:normal;font-variant:normal;font-weight:normal;font-stretch:normal;text-indent:0;text-align:start;text-decoration:none;line-height:normal;letter-spacing:normal;word-spacing:normal;text-transform:none;direction:ltr;block-progression:tb;writing-mode:lr-tb;text-anchor:start;baseline-shift:baseline;color:#000000;fill:#ffdb95;fill-opacity:1;fill-rule:nonzero;stroke:none;stroke-width:10;marker:none;visibility:visible;display:inline;overflow:visible;enable-background:accumulate;font-family:Sans;-inkscape-font-specification:Sans"
             d="m 70.802556,3212.6099 c -0.750871,0 -1.523314,0.069 -2.305526,0.2248 -2.057395,0.4117 -3.480136,1.0397 -4.672301,1.4785 -1.192166,0.4389 -2.108272,0.6893 -3.395072,0.4954 -0.337817,-0.052 -0.695299,0.1892 -0.749808,0.5048 -0.05481,0.3155 0.203652,0.649 0.54173,0.6994 1.575516,0.2373 2.829782,-0.102 4.084637,-0.564 1.25492,-0.462 2.552208,-1.0426 4.464215,-1.4252 3.11718,-0.6237 6.310179,0.4237 7.883781,1.1584 1.834993,0.8569 3.513391,0.6632 3.513391,0.6632 0.340458,-0.039 0.611822,-0.3646 0.569061,-0.6824 -0.04287,-0.3178 -0.392063,-0.5704 -0.732325,-0.5295 0,0 -1.277622,0.1542 -2.766618,-0.541 -1.312865,-0.6131 -3.56236,-1.4169 -6.112794,-1.4785 -0.106243,0 -0.215072,-0.01 -0.322371,-0.01 z m -0.191781,1.9434 c -2.296552,0.098 -3.79413,0.8069 -4.961999,1.3985 -1.231098,0.6237 -2.093366,1.1313 -3.819473,1.2042 -0.367914,0 -0.635318,0.1793 -0.795677,0.4344 l -0.01252,-0.012 c -0.0082,0.023 -0.01317,0.046 -0.02045,0.069 -0.104533,0.192 -0.152644,0.4176 -0.138721,0.6364 -0.105327,0.867 0.06536,1.6691 0.06536,1.6691 0.388038,-0.2671 0.665014,-0.5686 1.399646,-0.7278 0.625943,0.098 1.187675,0.3845 1.864829,0.7659 2.023936,2.2681 0.378532,5.443 -3.317535,2.8504 1.266144,1.5983 3.683927,5.1971 4.570279,5.4872 l 0.844704,-7.0763 c 0.515274,0.6681 0.892554,1.4503 1.150722,2.2216 0.939536,2.6237 1.715415,5.5805 4.219382,7.3279 3.099231,2.4564 7.833756,1.7277 9.37317,-0.8536 1.386778,-2.0142 0.108493,-5.2876 -2.562631,-5.5674 -1.157455,-0.078 -2.454678,0.3884 -3.093088,1.2957 -1.856451,3.8728 4.47346,5.1945 4.219783,1.5639 0.860943,2.5139 -1.882515,3.7883 -3.656668,3.5232 -5.241748,-0.15 -6.402368,-5.3481 -7.732781,-9.0807 0.709485,0.1448 1.504303,0.2277 2.403458,0.2135 0.02904,0 0.05612,0 0.08573,0 2.539275,0.04 4.253635,-0.6969 5.529212,-1.4024 1.33352,-0.7376 2.1389,-1.3155 3.256359,-1.307 1.350479,0 1.225551,-2.0312 -0.0065,-2.0312 -1.726107,-0.073 -2.588376,-0.5805 -3.819473,-1.204 -1.167869,-0.5916 -2.559269,-1.3771 -4.961999,-1.3986 -0.03035,0 -0.06405,0 -0.08573,0 z m 1.775077,1.8176 c 1.719121,0.3859 2.955561,1.4016 4.443764,1.9169 -1.778571,0.963 -3.764696,1.9442 -6.133115,1.8862 -0.02904,0 -0.05612,0 -0.08573,0 -1.798835,0.044 -3.376658,-0.5125 -4.811015,-1.2042 -0.2672,-0.1646 -0.548331,-0.3073 -0.840613,-0.4267 -0.161554,-0.085 -0.323361,-0.1698 -0.481487,-0.2553 0.989037,-0.3425 1.930364,-0.8637 2.946194,-1.2956 -0.05277,0.171 -0.08164,0.3491 -0.08164,0.5334 0,1.2143 1.221526,2.1987 2.725837,2.1987 1.504376,0 2.721812,-0.9844 2.721812,-2.1987 l -0.0082,-0.1639 c -0.03362,-0.3631 -0.172769,-0.6995 -0.395826,-0.9908 z"
             id="path20896"
             inkscape:connector-curvature="0"
             sodipodi:nodetypes="csscscssscscsccccscccccccccccccccccccccsccscccccccccccssccc" />
          <path
             sodipodi:nodetypes="csscscssscscsccccscccccccccccccccccccccsccscccccccccccssccc"
             inkscape:connector-curvature="0"
             id="path20898"
             d="m 70.802556,3212.0544 c -0.750871,0 -1.523314,0.069 -2.305526,0.2249 -2.057395,0.4116 -3.480136,1.0396 -4.672301,1.4785 -1.192166,0.4389 -2.108272,0.6892 -3.395072,0.4953 -0.337817,-0.052 -0.695299,0.1892 -0.749808,0.5048 -0.05481,0.3156 0.203652,0.649 0.54173,0.6994 1.575516,0.2373 2.829782,-0.102 4.084637,-0.564 1.25492,-0.4619 2.552208,-1.0425 4.464215,-1.4251 3.11718,-0.6237 6.310179,0.4236 7.883781,1.1584 1.834993,0.8568 3.513391,0.6631 3.513391,0.6631 0.340458,-0.039 0.611822,-0.3645 0.569061,-0.6824 -0.04287,-0.3178 -0.392063,-0.5703 -0.732325,-0.5294 0,0 -1.277622,0.1541 -2.766618,-0.5411 -1.312865,-0.6131 -3.56236,-1.4169 -6.112794,-1.4785 -0.106243,0 -0.215072,-0.01 -0.322371,-0.01 z m -0.191781,1.9435 c -2.296552,0.098 -3.79413,0.8068 -4.961999,1.3985 -1.231098,0.6236 -2.093366,1.1312 -3.819473,1.2041 -0.367914,0 -0.635318,0.1793 -0.795677,0.4344 l -0.01252,-0.012 c -0.0082,0.023 -0.01317,0.046 -0.02045,0.069 -0.104533,0.1919 -0.152644,0.4175 -0.138721,0.6363 -0.105327,0.867 0.06536,1.6692 0.06536,1.6692 0.388038,-0.2671 0.665014,-0.5687 1.399646,-0.7279 0.625943,0.098 1.187675,0.3845 1.864829,0.7659 2.023936,2.2681 0.378532,5.4431 -3.317535,2.8504 1.266144,1.5983 3.683927,5.1972 4.570279,5.4873 l 0.844704,-7.0764 c 0.515274,0.6681 0.892554,1.4504 1.150722,2.2217 0.939536,2.6236 1.715415,5.5804 4.219382,7.3278 3.099231,2.4564 7.833756,1.7278 9.37317,-0.8536 1.386778,-2.0142 0.108493,-5.2875 -2.562631,-5.5673 -1.157455,-0.078 -2.454678,0.3883 -3.093088,1.2956 -1.856451,3.8728 4.47346,5.1945 4.219783,1.5639 0.860943,2.5139 -1.882515,3.7883 -3.656668,3.5233 -5.241748,-0.1501 -6.402368,-5.3482 -7.732781,-9.0808 0.709485,0.1448 1.504303,0.2277 2.403458,0.2135 0.02904,0 0.05612,0 0.08573,0 2.539275,0.04 4.253635,-0.6969 5.529212,-1.4024 1.33352,-0.7375 2.1389,-1.3154 3.256359,-1.307 1.350479,0 1.225551,-2.0311 -0.0065,-2.0311 -1.726107,-0.073 -2.588376,-0.5805 -3.819473,-1.2041 -1.167869,-0.5916 -2.559269,-1.377 -4.961999,-1.3986 -0.03035,0 -0.06405,0 -0.08573,0 z m 1.775077,1.8176 c 1.719121,0.3859 2.955561,1.4015 4.443764,1.9168 -1.778571,0.963 -3.764696,1.9442 -6.133115,1.8862 -0.02904,0 -0.05612,0 -0.08573,0 -1.798835,0.044 -3.376658,-0.5125 -4.811015,-1.2042 -0.2672,-0.1646 -0.548331,-0.3073 -0.840613,-0.4267 -0.161554,-0.085 -0.323361,-0.1697 -0.481487,-0.2553 0.989037,-0.3424 1.930364,-0.8636 2.946194,-1.2956 -0.05277,0.1711 -0.08164,0.3491 -0.08164,0.5334 0,1.2144 1.221526,2.1987 2.725837,2.1987 1.504376,0 2.721812,-0.9843 2.721812,-2.1987 l -0.0082,-0.1639 c -0.03362,-0.3631 -0.172769,-0.6995 -0.395826,-0.9907 z"
             style="font-size:medium;font-style:normal;font-variant:normal;font-weight:normal;font-stretch:normal;text-indent:0;text-align:start;text-decoration:none;line-height:normal;letter-spacing:normal;word-spacing:normal;text-transform:none;direction:ltr;block-progression:tb;writing-mode:lr-tb;text-anchor:start;baseline-shift:baseline;color:#000000;fill:#4f4227;fill-opacity:1;fill-rule:nonzero;stroke:none;stroke-width:10;marker:none;visibility:visible;display:inline;overflow:visible;enable-background:accumulate;font-family:Sans;-inkscape-font-specification:Sans" />
          <path
             id="path20900"
             d="m 70.80425,3212.0504 0,0.01 c -0.750904,0 -1.524346,0.067 -2.306549,0.2232 -2.057395,0.4116 -3.48178,1.0357 -4.673937,1.4744 -1.192207,0.439 -2.108738,0.6944 -3.395572,0.5007 -0.337808,-0.052 -0.696297,0.1849 -0.750797,0.5004 -0.01366,0.079 -0.0082,0.1604 0.01342,0.2368 0.08647,-0.2852 0.421383,-0.4948 0.737267,-0.4463 1.286841,0.1937 2.203373,-0.055 3.395571,-0.494 1.192157,-0.4387 2.61655,-1.0694 4.673946,-1.4813 0.782203,-0.1561 1.555636,-0.2232 2.30654,-0.2232 l 0,-0.01 c 0.107299,0 0.211669,0.013 0.317904,0.013 2.550442,0.062 4.801819,0.8617 6.114692,1.4747 1.488996,0.6952 2.766504,0.5411 2.766504,0.5411 0.314476,-0.038 0.636144,0.1766 0.716961,0.4599 0.02143,-0.072 0.02356,-0.1487 0.01366,-0.2231 -0.04287,-0.318 -0.390255,-0.5686 -0.730517,-0.5277 0,0 -1.277499,0.154 -2.766504,-0.5412 -1.312872,-0.6129 -3.564242,-1.4196 -6.114683,-1.4811 -0.106235,0 -0.210606,-0.01 -0.317904,-0.01 z m -0.196167,1.948 c -2.296552,0.098 -3.790154,0.8087 -4.958055,1.4003 -1.231073,0.6236 -2.095551,1.1309 -3.821666,1.2041 -0.367922,0 -0.631039,0.1775 -0.791382,0.4329 l -0.01366,-0.013 c -0.0082,0.023 -0.01301,0.045 -0.02037,0.068 -0.104526,0.1918 -0.155974,0.4169 -0.142059,0.6357 -0.03289,0.2711 -0.04115,0.5351 -0.03379,0.7712 0.0033,-0.1534 0.01407,-0.311 0.03379,-0.4735 -0.01382,-0.2189 0.03755,-0.4438 0.142059,-0.6359 0.0074,-0.023 0.01211,-0.044 0.02037,-0.068 l 0.01366,0.01 c 0.160343,-0.255 0.42346,-0.433 0.791382,-0.433 1.726115,-0.073 2.590593,-0.5802 3.821666,-1.2039 1.167901,-0.5917 2.661503,-1.3023 4.958055,-1.4002 l 0.08794,0 c 2.402714,0.021 3.790154,0.8085 4.958031,1.4002 1.231098,0.6237 2.095575,1.1312 3.821666,1.2039 0.574895,0 0.905046,0.4416 0.960519,0.9132 0.07314,-0.5623 -0.267421,-1.2038 -0.960519,-1.2038 -1.726091,-0.073 -2.590568,-0.5805 -3.821666,-1.2042 -1.167877,-0.5915 -2.555317,-1.3785 -4.958031,-1.4002 l -0.08794,0 z m 1.778931,2.1104 c 0.223097,0.2914 0.358677,0.6313 0.392333,0.9944 0.0033,-0.044 0.01342,-0.091 0.01342,-0.1352 l -0.01342,-0.1624 c -0.02102,-0.227 -0.08446,-0.4409 -0.182636,-0.6426 -0.06929,-0.017 -0.138746,-0.039 -0.209697,-0.054 z m -4.96478,0.6223 c -0.0225,0.01 -0.04524,0.017 -0.06766,0.027 -0.0084,0.07 -0.01342,0.1383 -0.01342,0.2098 0,0.056 0.0025,0.1144 0.0065,0.169 0.01014,-0.1383 0.03411,-0.2754 0.07444,-0.4058 z m -2.617696,1.1704 c -0.109131,0.042 -0.214524,0.09 -0.324678,0.1283 0.158118,0.086 0.318682,0.165 0.48026,0.2504 0.292274,0.1193 0.571516,0.2615 0.83874,0.426 1.434349,0.6918 3.010381,1.2483 4.809223,1.2041 l 0.08794,0 c 2.368412,0.058 4.35641,-0.9173 6.134972,-1.8805 -0.109458,-0.038 -0.217657,-0.085 -0.32467,-0.1283 -1.69619,0.9039 -3.58345,1.7725 -5.810302,1.7179 l -0.08794,0 c -1.798842,0.044 -3.374874,-0.5121 -4.809223,-1.2041 -0.267224,-0.1645 -0.546466,-0.3067 -0.83874,-0.426 -0.05301,-0.028 -0.102685,-0.06 -0.155582,-0.088 z m 3.402321,3.524 c 1.330404,3.7325 2.489535,8.9273 7.731283,9.0772 1.577438,0.2358 3.919704,-0.745 3.814925,-2.7326 -0.129747,1.7881 -2.317977,2.6586 -3.814925,2.435 -5.098674,-0.1459 -6.334901,-5.0554 -7.62306,-8.7595 -0.03559,-0.01 -0.07314,-0.013 -0.108223,-0.02 z m -3.152063,0.2299 c -0.09861,1.4809 -1.658567,2.3978 -4.180155,0.6292 0.135089,0.1704 0.288355,0.372 0.446408,0.5816 2.415704,1.4584 3.82983,0.3422 3.733747,-1.2108 z m 12.973448,2.1644 c -1.032461,0.05 -2.092916,0.5048 -2.651507,1.2987 -0.265792,0.5546 -0.357891,1.059 -0.331443,1.5018 0.02266,-0.3677 0.122548,-0.7684 0.331443,-1.2041 0.638402,-0.9074 1.933695,-1.3765 3.091157,-1.2987 1.864191,0.1952 3.050098,1.8515 3.124985,3.5173 0.06291,-1.7615 -1.149429,-3.6011 -3.124985,-3.8082 -0.144676,-0.01 -0.292159,-0.013 -0.43965,-0.01 z m -13.081671,1.5423 c -0.302075,0 -0.608747,0.1961 -0.608747,0.1961 0.687405,1.4733 1.278399,2.6514 1.278399,2.6514 l 0.196142,1.3732 -0.980775,1.2784 c 0,0 0.19615,2.2536 0.19615,1.4679 0,-0.7855 0.196167,-1.5693 0.196167,-1.5693 l 0.980799,-1.3731 c 0,0 -0.490019,-3.1445 -0.784633,-3.7337 -0.110473,-0.2211 -0.292249,-0.2909 -0.473502,-0.2909 z m 14.650929,1.6166 c 0.0025,0.029 -0.0025,0.053 0,0.081 0,-0.017 0.0057,-0.031 0.0065,-0.047 1.97e-4,-0.01 -1.71e-4,-0.01 0,-0.013 -0.0025,-0.01 -0.0041,-0.013 -0.0065,-0.02 z"
             style="font-size:medium;font-style:normal;font-variant:normal;font-weight:normal;font-stretch:normal;text-indent:0;text-align:start;text-decoration:none;line-height:normal;letter-spacing:normal;word-spacing:normal;text-transform:none;direction:ltr;block-progression:tb;writing-mode:lr-tb;text-anchor:start;baseline-shift:baseline;color:#000000;fill:#4f4227;fill-opacity:1;fill-rule:nonzero;stroke:none;stroke-width:10;marker:none;visibility:visible;display:inline;overflow:visible;enable-background:accumulate;font-family:Sans;-inkscape-font-specification:Sans"
             inkscape:connector-curvature="0" />
        </g>
        <g
           id="g20902"
           style="opacity:0.45132745"
           transform="matrix(0.41136386,0,0,0.52228782,-640.09703,1493.2232)">
          <g
             transform="matrix(0.81807588,0,0,0.81807588,549.97176,198.95565)"
             id="g20904">
            <path
               style="color:#000000;fill:#ffdb95;fill-opacity:1;fill-rule:nonzero;stroke:none;stroke-width:10;marker:none;visibility:visible;display:inline;overflow:visible;enable-background:accumulate"
               d="m -589.77447,3718.4615 c -1.3442,0.01 -2.9104,0.4699 -3.4794,1.9955 -1.577,-0.265 -2.189,0.6269 -2.226,0.886 -0.2862,0.4667 -0.1231,1.9473 0.6556,2.1251 0.2241,-0.041 0.2184,-0.9007 0.7278,-0.8803 0.1,0 0.5055,0 0.6265,0.066 0.017,0.093 0.045,0.1873 0.072,0.281 0.326,1.141 0.1585,2.197 0.1585,3.501 -0.7276,3.2835 0.2394,6.0857 2.3196,8.2195 l 0,0.01 c 1.6767,3.1723 1.6944,5.4428 1.9234,6.0537 0.081,0.2156 0.1571,0.4347 0.2522,0.6268 -0.4721,1.1845 -1.2947,2.37 -1.6713,2.8815 l -0.01,0 c -2.1598,0.3667 -4.0372,0 -4.4447,0.2449 -0.4075,0.2445 -0.1657,1.2967 -0.1657,1.2967 0,0 0.248,-0.3629 0.6555,-0.5259 0.1582,-0.063 1.2704,-0.1011 2.579,-0.1153 -0.019,0.4417 -0.027,0.5802 0.072,0.6412 0.1615,0.099 0.2409,-0.3629 0.6484,-0.5259 0.1365,-0.055 1.0038,-0.09 2.0747,-0.1081 1.0464,0.018 1.8614,0.053 1.9162,0.1081 0.163,0.163 0.4083,0.6936 0.4898,0.4899 0.043,-0.1083 0.1548,-0.2288 0.2017,-0.6052 1.3763,0.012 2.5485,0.049 2.615,0.1153 0.163,0.163 0.4012,0.6936 0.4827,0.4899 0.082,-0.2038 0.4124,-1.1817 0.086,-1.3039 -0.1458,-0.055 -1.6261,-0.1022 -2.4637,-0.1369 -0.08,-0.3317 0.1407,-1.7174 0.1801,-2.4925 0.6761,0.1564 1.7008,0.438 1.9594,0.2233 1.1449,-1.1413 1.2048,-2.7698 0.9797,-4.1205 1.5654,0.5017 2.8694,2.0111 4.1134,3.6235 1.6019,2.8232 2.5934,3.5068 3.0872,3.845 0.679,0.465 2.0469,-0.045 3.353,-0.9059 0.326,-0.2445 -0.8933,-2.0387 -0.8933,-2.0387 0,0 1.2949,0.855 1.6209,0.9365 0.326,0.082 1.3075,-1.3025 0.6555,-1.873 -0.652,-0.5705 -3.8251,-3.4648 -5.1291,-4.7689 -1.304,-1.304 -3.1425,-4.9779 -4.1205,-6.3635 -0.9781,-1.3854 -3.5895,-5.4657 -6.1161,-7.0957 0,0 -0.045,-3.8352 -2.1611,-4.56 -0.4063,-0.1392 -0.9918,-0.2407 -1.6281,-0.2377 z m 3.321,23.17 c -0.089,1.284 -0.3493,2.2403 -0.4539,2.5933 l -0.014,0 c -0.2306,0.039 -0.6634,0.062 -0.886,0.086 -0.4744,-0.024 -0.7604,-0.035 -1.2247,-0.05 0.4096,-0.6974 1.023,-1.884 1.3039,-2.3412 0.053,0 -0.066,-0.01 -0.01,-0.022 0.4673,-0.093 0.9633,-0.2355 1.2823,-0.2665 z"
               id="path20906"
               inkscape:connector-curvature="0"
               sodipodi:nodetypes="ccccccccccscccccscsccsscssscccccsccccccccccccccccccc" />
            <path
               style="color:#000000;fill:#feb151;fill-opacity:1;fill-rule:nonzero;stroke:none;stroke-width:10;marker:none;visibility:visible;display:inline;overflow:visible;enable-background:accumulate"
               d="m -589.77447,3716.7718 c -1.3442,0.01 -2.9104,0.4699 -3.4794,1.9955 -1.577,-0.265 -2.189,0.6269 -2.226,0.886 -0.2862,0.4667 -0.1231,1.9473 0.6556,2.1251 0.2241,-0.041 0.2184,-0.9007 0.7278,-0.8803 0.1,0 0.5055,0 0.6265,0.066 0.017,0.093 0.045,0.1873 0.072,0.281 0.326,1.141 0.1585,2.197 0.1585,3.501 -0.7276,3.2835 0.2394,6.0857 2.3196,8.2195 0,0 0,0.01 0,0.01 1.6767,3.1723 1.6944,6.2831 1.9234,6.894 0.081,0.2156 0.1571,0.4347 0.2522,0.6268 -0.4721,1.1845 -1.2947,2.37 -1.6713,2.8815 0,0 -0.01,0 -0.01,0 -2.1598,0.3667 -4.0372,0 -4.4447,0.2449 -0.4075,0.2445 -0.1657,1.2967 -0.1657,1.2967 0,0 0.248,-0.3629 0.6555,-0.5259 0.1582,-0.063 1.2704,-0.1011 2.579,-0.1153 -0.019,0.4417 -0.027,0.5802 0.072,0.6412 0.1615,0.099 0.2409,-0.3629 0.6484,-0.5259 0.1365,-0.055 1.0038,-0.09 2.0747,-0.1081 1.0464,0.018 1.8614,0.053 1.9162,0.1081 0.163,0.163 0.4083,0.6936 0.4898,0.4899 0.043,-0.1083 0.1548,-0.2288 0.2017,-0.6052 1.3763,0.012 2.5485,0.049 2.615,0.1153 0.163,0.163 0.4012,0.6936 0.4827,0.4899 0.082,-0.2038 0.4124,-1.1817 0.086,-1.3039 -0.1458,-0.055 -1.6261,-0.1022 -2.4637,-0.1369 -0.08,-0.3317 0.1407,-1.7174 0.1801,-2.4925 0.6761,0.1564 1.7008,0.438 1.9594,0.2233 1.1449,-1.1413 1.2048,-2.7698 0.9797,-4.1205 1.5654,0.5017 2.8694,2.0111 4.1134,3.6235 1.6019,2.8232 2.5934,3.5068 3.0872,3.845 0.679,0.465 2.0469,-0.045 3.353,-0.9059 0.326,-0.2445 -0.8933,-2.0387 -0.8933,-2.0387 0,0 1.2949,0.855 1.6209,0.9365 0.326,0.082 1.3075,-1.3025 0.6555,-1.873 -0.652,-0.5705 -3.8251,-3.4648 -5.1291,-4.7689 -1.304,-1.304 -3.1425,-5.8182 -4.1205,-7.2038 -0.9781,-1.3854 -3.5895,-5.4657 -6.1161,-7.0957 0,0 -0.045,-3.8352 -2.1611,-4.56 -0.4063,-0.1392 -0.9918,-0.2407 -1.6281,-0.2377 z m 3.321,24.0103 c -0.089,1.284 -0.3493,2.2403 -0.4539,2.5933 0,0 -0.014,0 -0.014,0 -0.2306,0.039 -0.6634,0.062 -0.886,0.086 -0.4744,-0.024 -0.7604,-0.035 -1.2247,-0.05 0.4096,-0.6974 1.023,-1.884 1.3039,-2.3412 0.053,0 -0.066,-0.01 -0.01,-0.022 0.4673,-0.093 0.9633,-0.2355 1.2823,-0.2665 z"
               id="path20908"
               inkscape:connector-curvature="0"
               sodipodi:nodetypes="ccccccccccscccccscsccsscssscccccsccccccccccccccccccc" />
            <path
               sodipodi:nodetypes="ccccccccccscccccscsccsscssscccccsccccccccccccccccccc"
               inkscape:connector-curvature="0"
               id="path20910"
               d="m -589.77447,3717.2611 c -1.3442,0.01 -2.9104,0.4699 -3.4794,1.9955 -1.577,-0.265 -2.189,0.6269 -2.226,0.886 -0.2862,0.4667 -0.1231,1.9473 0.6556,2.1251 0.2241,-0.041 0.2184,-0.9007 0.7278,-0.8803 0.1,0 0.5055,0 0.6265,0.066 0.017,0.093 0.045,0.1873 0.072,0.281 0.326,1.141 0.1585,2.197 0.1585,3.501 -0.7276,3.2835 0.2394,6.0857 2.3196,8.2195 0,0 0,0.01 0,0.01 1.6767,3.1723 1.6944,6.2831 1.9234,6.894 0.081,0.2156 0.1571,0.4347 0.2522,0.6268 -0.4721,1.1845 -1.2947,2.37 -1.6713,2.8815 0,0 -0.01,0 -0.01,0 -2.1598,0.3667 -4.0372,0 -4.4447,0.2449 -0.4075,0.2445 -0.1657,1.2967 -0.1657,1.2967 0,0 0.248,-0.3629 0.6555,-0.5259 0.1582,-0.063 1.2704,-0.1011 2.579,-0.1153 -0.019,0.4417 -0.027,0.5802 0.072,0.6412 0.1615,0.099 0.2409,-0.3629 0.6484,-0.5259 0.1365,-0.055 1.0038,-0.09 2.0747,-0.1081 1.0464,0.018 1.8614,0.053 1.9162,0.1081 0.163,0.163 0.4083,0.6936 0.4898,0.4899 0.043,-0.1083 0.1548,-0.2288 0.2017,-0.6052 1.3763,0.012 2.5485,0.049 2.615,0.1153 0.163,0.163 0.4012,0.6936 0.4827,0.4899 0.082,-0.2038 0.4124,-1.1817 0.086,-1.3039 -0.1458,-0.055 -1.6261,-0.1022 -2.4637,-0.1369 -0.08,-0.3317 0.1407,-1.7174 0.1801,-2.4925 0.6761,0.1564 1.7008,0.438 1.9594,0.2233 1.1449,-1.1413 1.2048,-2.7698 0.9797,-4.1205 1.5654,0.5017 2.8694,2.0111 4.1134,3.6235 1.6019,2.8232 2.5934,3.5068 3.0872,3.845 0.679,0.465 2.0469,-0.045 3.353,-0.9059 0.326,-0.2445 -0.8933,-2.0387 -0.8933,-2.0387 0,0 1.2949,0.855 1.6209,0.9365 0.326,0.082 1.3075,-1.3025 0.6555,-1.873 -0.652,-0.5705 -3.8251,-3.4648 -5.1291,-4.7689 -1.304,-1.304 -3.1425,-5.8182 -4.1205,-7.2038 -0.9781,-1.3854 -3.5895,-5.4657 -6.1161,-7.0957 0,0 -0.045,-3.8352 -2.1611,-4.56 -0.4063,-0.1392 -0.9918,-0.2407 -1.6281,-0.2377 z m 3.321,24.0103 c -0.089,1.284 -0.3493,2.2403 -0.4539,2.5933 0,0 -0.014,0 -0.014,0 -0.2306,0.039 -0.6634,0.062 -0.886,0.086 -0.4744,-0.024 -0.7604,-0.035 -1.2247,-0.05 0.4096,-0.6974 1.023,-1.884 1.3039,-2.3412 0.053,0 -0.066,-0.01 -0.01,-0.022 0.4673,-0.093 0.9633,-0.2355 1.2823,-0.2665 z"
               style="color:#000000;fill:#4f4227;fill-opacity:1;fill-rule:nonzero;stroke:none;stroke-width:10;marker:none;visibility:visible;display:inline;overflow:visible;enable-background:accumulate" />
            <path
               inkscape:connector-curvature="0"
               style="color:#000000;fill:#2c2416;fill-opacity:1;fill-rule:nonzero;stroke:none;stroke-width:10;marker:none;visibility:visible;display:inline;overflow:visible;enable-background:accumulate"
               d="m -2229.0938,13979.344 c -5.0735,0.04 -10.9787,1.777 -13.125,7.531 -5.9603,-1.002 -8.2664,2.364 -8.4062,3.344 -0.4486,0.731 -0.5865,2.137 -0.4062,3.562 0.081,-0.509 0.2131,-0.966 0.4062,-1.281 0.1398,-0.979 2.4459,-4.345 8.4062,-3.344 2.1506,-5.766 8.0759,-7.524 13.1563,-7.562 l -0.031,0.03 c 2.405,-0.01 4.6207,0.349 6.1563,0.875 7.9979,2.739 8.1875,17.25 8.1875,17.25 9.5494,6.161 19.397,21.576 23.0938,26.812 3.6963,5.237 10.6652,22.291 15.5937,27.219 4.9285,4.929 16.9107,15.875 19.375,18.031 0.3003,0.263 0.5237,0.568 0.6563,0.907 0.3247,-1.188 0.2431,-2.401 -0.6563,-3.188 -2.4643,-2.156 -14.4465,-13.071 -19.375,-18 -4.9285,-4.928 -11.8974,-22.013 -15.5937,-27.25 -3.6968,-5.236 -13.5444,-20.652 -23.0938,-26.812 0,0 -0.1896,-14.48 -8.1875,-17.219 -1.5289,-0.524 -3.7323,-0.914 -6.125,-0.906 l -0.031,0 z m -12.9374,24.218 c -0.036,1.87 -0.125,3.791 -0.125,5.907 -0.6875,3.102 -0.9851,6.104 -0.9063,8.969 0.084,-2.166 0.3979,-4.394 0.9063,-6.688 0,-2.974 0.2128,-5.62 0.125,-8.188 z m 40.2187,54.688 c 0.1735,1.041 0.3167,2.146 0.375,3.25 0.046,-1.047 0.024,-2.103 -0.062,-3.125 -0.1034,-0.04 -0.2085,-0.09 -0.3125,-0.125 z m -23.8437,11.875 c -1.8189,4.089 -4.5386,8.009 -5.8438,9.781 l -0.031,0 c -8.1631,1.386 -15.2724,-0.02 -16.8126,0.906 -1.0153,0.61 -0.934,2.533 -0.7812,3.782 0.1088,-0.65 0.3118,-1.219 0.7812,-1.5 1.5402,-0.926 8.6495,0.448 16.8126,-0.938 l 0.031,0 c 1.4234,-1.933 4.5282,-6.398 6.3125,-10.875 -0.1797,-0.363 -0.3136,-0.756 -0.4687,-1.156 z m 9.125,2.219 c -0.057,0 -0.1281,0.02 -0.1876,0.03 -0.4313,3.682 -1.1701,6.387 -1.5,7.5 l -0.062,0 c -0.8716,0.147 -2.5025,0.253 -3.3438,0.344 -1.3203,-0.07 -2.3048,-0.09 -3.4062,-0.125 -0.4385,0.793 -0.8423,1.546 -1.2188,2.187 1.7548,0.06 2.832,0.1 4.625,0.188 0.8413,-0.09 2.4722,-0.165 3.3438,-0.313 l 0.062,0 c 0.3954,-1.334 1.3512,-4.959 1.6876,-9.812 z m 51.25,3 c 0,0 2.217,3.284 3.1562,5.594 0.075,-0.05 0.1436,-0.107 0.2188,-0.157 0.5946,-0.446 -0.1735,-2.246 -1.125,-4 -1.1436,-0.714 -2.25,-1.437 -2.25,-1.437 z m -48.2813,4.781 c -0.076,1.005 -0.1276,1.882 -0.031,2.281 3.1658,0.131 8.7615,0.324 9.3126,0.532 0.1542,0.06 0.2604,0.165 0.3437,0.312 0.2416,-1.163 0.321,-2.345 -0.3437,-2.594 -0.5496,-0.207 -6.111,-0.4 -9.2813,-0.531 z"
               transform="matrix(0.26458334,0,0,0.26458334,-6.3049604e-6,18.562493)"
               id="path20912" />
          </g>
        </g>
        <g
           id="g20915"
           style="opacity:0.45132745"
           transform="matrix(0.41136386,0,0,0.52228782,-640.09703,1493.2232)">
          <path
             inkscape:connector-curvature="0"
             id="path20917"
             d="m 70.970826,3270.0045 c -1.583222,0.086 -2.952517,1.377 -3.15401,3.127 -0.153798,1.3366 0.225708,2.8914 1.213125,4.6635 l -2.817044,0.027 a 1.0783857,1.0783857 0 1 0 0.01309,2.1566 l 1.186128,-0.013 c -1.478672,1.5378 -2.313191,3.5651 -2.763051,5.634 -0.650616,2.9916 -0.587624,6.1837 -0.579607,8.6397 a 1.0783857,1.0783857 0 1 0 2.15653,-0.013 c -0.0082,-2.4827 -0.04908,-5.5255 0.525696,-8.168 0.495999,-2.2808 1.391547,-4.1781 3.100016,-5.3644 l -0.215644,13.5189 a 1.0784685,1.0784685 0 0 0 2.156529,0.041 l 0.215645,-13.6401 c 1.57815,1.1931 2.42175,3.0268 2.897952,5.2161 0.574617,2.6425 0.533713,5.6853 0.525614,8.1679 a 1.0783857,1.0783857 0 1 0 2.156612,0.013 c 0.0082,-2.456 0.07117,-5.6482 -0.579607,-8.6396 -0.432353,-1.988 -1.219015,-3.9317 -2.58782,-5.4453 l 1.105139,-0.013 a 1.0783857,1.0783857 0 1 0 -0.01309,-2.1565 l -2.170028,0.013 c 0.714425,-1.1862 1.139661,-2.508 1.213043,-3.7606 0.0589,-1.0048 -0.107086,-2.0077 -0.714344,-2.8169 -0.602349,-0.8028 -1.679919,-1.2556 -2.843959,-1.1862 l -0.027,0 z m 0.121321,2.1565 a 1.0783857,1.0783857 0 0 0 0.027,0 c 0.635073,-0.043 0.818649,0.085 0.997398,0.3236 0.17875,0.2381 0.322077,0.7364 0.282973,1.4017 -0.05727,0.9772 -0.528068,2.2215 -1.239958,3.2348 -0.983081,-1.6641 -1.288633,-2.96 -1.199544,-3.7335 0.109049,-0.9474 0.469821,-1.1965 1.132135,-1.2266 z"
             style="font-size:medium;font-style:normal;font-variant:normal;font-weight:normal;font-stretch:normal;text-indent:0;text-align:start;text-decoration:none;line-height:normal;letter-spacing:normal;word-spacing:normal;text-transform:none;direction:ltr;block-progression:tb;writing-mode:lr-tb;text-anchor:start;baseline-shift:baseline;color:#000000;fill:#ffdb95;fill-opacity:1;stroke:none;stroke-width:5;marker:none;visibility:visible;display:inline;overflow:visible;enable-background:accumulate;font-family:Sans;-inkscape-font-specification:Sans" />
          <path
             style="font-size:medium;font-style:normal;font-variant:normal;font-weight:normal;font-stretch:normal;text-indent:0;text-align:start;text-decoration:none;line-height:normal;letter-spacing:normal;word-spacing:normal;text-transform:none;direction:ltr;block-progression:tb;writing-mode:lr-tb;text-anchor:start;baseline-shift:baseline;color:#000000;fill:#4f4227;fill-opacity:1;stroke:none;stroke-width:5;marker:none;visibility:visible;display:inline;overflow:visible;enable-background:accumulate;font-family:Sans;-inkscape-font-specification:Sans"
             d="m 70.970826,3269.0225 c -1.583222,0.086 -2.952517,1.377 -3.15401,3.127 -0.153798,1.3366 0.225708,2.8914 1.213125,4.6635 l -2.817044,0.027 a 1.0783857,1.0783857 0 1 0 0.01309,2.1566 l 1.186128,-0.013 c -1.478672,1.5378 -2.313191,3.5651 -2.763051,5.6339 -0.650616,2.9917 -0.587624,6.1838 -0.579607,8.6398 a 1.0783857,1.0783857 0 1 0 2.15653,-0.013 c -0.0082,-2.4826 -0.04908,-5.5254 0.525696,-8.1679 0.495999,-2.2808 1.391547,-4.1781 3.100016,-5.3644 l -0.215644,13.5189 a 1.0784685,1.0784685 0 0 0 2.156529,0.041 l 0.215645,-13.6402 c 1.57815,1.1932 2.42175,3.0268 2.897952,5.2162 0.574617,2.6424 0.533713,5.6853 0.525614,8.1679 a 1.0783857,1.0783857 0 1 0 2.156612,0.013 c 0.0082,-2.456 0.07117,-5.6482 -0.579607,-8.6396 -0.432353,-1.988 -1.219015,-3.9317 -2.58782,-5.4453 l 1.105139,-0.013 a 1.0783857,1.0783857 0 1 0 -0.01309,-2.1565 l -2.170028,0.013 c 0.714425,-1.1862 1.139661,-2.508 1.213043,-3.7606 0.0589,-1.0048 -0.107086,-2.0077 -0.714344,-2.8169 -0.602349,-0.8028 -1.679919,-1.2556 -2.843959,-1.1862 l -0.027,0 z m 0.121321,2.1565 a 1.0783857,1.0783857 0 0 0 0.027,0 c 0.635073,-0.043 0.818649,0.085 0.997398,0.3235 0.17875,0.2382 0.322077,0.7365 0.282973,1.4018 -0.05727,0.9772 -0.528068,2.2215 -1.239958,3.2348 -0.983081,-1.6642 -1.288633,-2.96 -1.199544,-3.7335 0.109049,-0.9474 0.469821,-1.1965 1.132135,-1.2266 z"
             id="path20919"
             inkscape:connector-curvature="0" />
          <path
             id="path20921"
             d="m 71.213704,3269.018 c -0.07199,0 -0.1437,0 -0.216449,0.01 l -0.02706,0 c -1.58324,0.086 -2.950571,1.3749 -3.152064,3.1249 -0.03154,0.2742 -0.04102,0.5597 -0.02706,0.8524 0.0056,-0.099 0.01602,-0.2009 0.02706,-0.2977 0.201493,-1.7499 1.568824,-3.0393 3.152064,-3.1248 l 0.02706,0 c 1.164021,-0.07 2.245293,0.3807 2.84765,1.1835 0.474781,0.6327 0.678287,1.3868 0.716988,2.1645 0.04212,-0.9708 -0.130086,-1.937 -0.716988,-2.719 -0.564695,-0.7526 -1.551487,-1.195 -2.631201,-1.1905 z m 1.176922,3.9299 c -0.06762,0.971 -0.528916,2.1932 -1.231034,3.1926 -0.778286,-1.3175 -1.127874,-2.3998 -1.197246,-3.1792 -0.08909,0.7736 0.214155,2.0697 1.197246,3.7337 0.71188,-1.0132 1.180536,-2.2558 1.237808,-3.2331 0.01082,-0.1852 0.0074,-0.3567 -0.0067,-0.514 z m 3.125007,3.8285 -1.866875,0.013 c -0.09552,0.187 -0.195129,0.3732 -0.304392,0.5546 l 2.171267,-0.013 a 1.0783857,1.0783857 0 0 1 1.061944,0.8049 1.0783857,1.0783857 0 0 0 -1.061944,-1.3595 z m -6.777589,0.034 -2.522975,0.027 a 1.0783857,1.0783857 0 0 0 -1.048437,1.3596 1.0783857,1.0783857 0 0 1 1.048437,-0.7983 l 2.81384,-0.027 c -0.105735,-0.1899 -0.198982,-0.3769 -0.290865,-0.5615 z m 6.141748,2.6853 -0.459955,0.01 c 1.368825,1.5136 2.158281,3.4571 2.590638,5.4452 0.479219,2.2028 0.569673,4.5077 0.581707,6.5543 0,-2.1812 -0.05727,-4.7052 -0.581707,-7.1158 -0.381384,-1.7537 -1.04151,-3.4706 -2.130683,-4.8905 z m -7.467499,0.041 -0.493764,0.01 c -1.176402,1.4537 -1.87536,3.2457 -2.272717,5.073 -0.524284,2.4108 -0.582032,4.9348 -0.581708,7.1157 0.01212,-2.0463 0.102597,-4.358 0.581708,-6.561 0.449868,-2.0688 1.287829,-4.0967 2.766481,-5.6344 z m 2.441829,0.7303 c -0.0026,0 -0.0041,0 -0.0067,0.01 l -0.209675,12.9599 a 1.0784685,1.0784685 0 0 0 0.0067,0.1557 l 0.209675,-13.1225 z"
             style="font-size:medium;font-style:normal;font-variant:normal;font-weight:normal;font-stretch:normal;text-indent:0;text-align:start;text-decoration:none;line-height:normal;letter-spacing:normal;word-spacing:normal;text-transform:none;direction:ltr;block-progression:tb;writing-mode:lr-tb;text-anchor:start;baseline-shift:baseline;color:#000000;fill:#2c2416;fill-opacity:1;stroke:none;stroke-width:5;marker:none;visibility:visible;display:inline;overflow:visible;enable-background:accumulate;font-family:Sans;-inkscape-font-specification:Sans"
             inkscape:connector-curvature="0" />
        </g>
        <g
           id="g20923"
           style="opacity:0.45132745"
           transform="matrix(0.41136386,0,0,0.52228782,-640.09703,1493.2232)">
          <g
             style="fill:#ffdb95;fill-opacity:1"
             transform="matrix(0.24159007,0,0,0.24159007,-194.45209,3576.1492)"
             id="g20925">
            <path
               inkscape:connector-curvature="0"
               id="path20927"
               d="m 1055.9375,-1138.9059 a 6.0006,6.0006 0 0 0 -4.5313,2.2813 l -12.375,15.1875 a 6.0081261,6.0081261 0 0 0 9.3126,7.5938 l 8.0937,-9.9376 8.0625,9.9376 a 6.0080874,6.0080874 0 0 0 5.875,2.0624 6.0081261,6.0081261 0 0 0 5.9062,-2.0624 l 8.0938,-9.9376 8.0625,9.9376 a 6.0080874,6.0080874 0 0 0 5.3437,2.1874 6.0081261,6.0081261 0 0 0 0.031,0 6.0081261,6.0081261 0 0 0 4.9687,-2.1874 l 8.0938,-9.9376 8.0625,9.9376 a 6.0080874,6.0080874 0 0 0 5.5937,2.125 6.0081261,6.0081261 0 0 0 5.4688,-2.125 l 8.0625,-9.9376 8.0937,9.9376 a 6.0081261,6.0081261 0 0 0 9.3126,-7.5938 l -12.375,-15.1875 a 6.0006,6.0006 0 0 0 -4.7188,-2.2813 6.0006,6.0006 0 0 0 -0.125,0 6.0006,6.0006 0 0 0 -0.6562,0 6.0006,6.0006 0 0 0 -4.5313,2.2813 l -8.5937,10.5625 -8.5938,-10.5625 a 6.0006,6.0006 0 0 0 -4.7188,-2.2813 6.0006,6.0006 0 0 0 -0.1562,0 6.0006,6.0006 0 0 0 -0.031,0 6.0006,6.0006 0 0 0 -0.5938,0 6.0006,6.0006 0 0 0 -4.5312,2.2813 l -8.2188,10.0937 -8.25,-10.0937 a 6.0006,6.0006 0 0 0 -4.7188,-2.2813 6.0006,6.0006 0 0 0 -0.1562,0 6.0006,6.0006 0 0 0 -0.625,0 6.0006,6.0006 0 0 0 -4.5312,2.2813 l -8.9688,11 -8.9375,-11 a 6.0006,6.0006 0 0 0 -4.7187,-2.2813 6.0006,6.0006 0 0 0 -0.1563,0 6.0006,6.0006 0 0 0 -0.625,0 z"
               style="font-size:medium;font-style:normal;font-variant:normal;font-weight:normal;font-stretch:normal;text-indent:0;text-align:start;text-decoration:none;line-height:normal;letter-spacing:normal;word-spacing:normal;text-transform:none;direction:ltr;block-progression:tb;writing-mode:lr-tb;text-anchor:start;baseline-shift:baseline;color:#000000;fill:#ffdb95;fill-opacity:1;stroke:none;stroke-width:12;marker:none;visibility:visible;display:inline;overflow:visible;enable-background:accumulate;font-family:Sans;-inkscape-font-specification:Sans" />
          </g>
          <path
             style="font-size:medium;font-style:normal;font-variant:normal;font-weight:normal;font-stretch:normal;text-indent:0;text-align:start;text-decoration:none;line-height:normal;letter-spacing:normal;word-spacing:normal;text-transform:none;direction:ltr;block-progression:tb;writing-mode:lr-tb;text-anchor:start;baseline-shift:baseline;color:#000000;fill:#4f4227;fill-opacity:1;stroke:none;stroke-width:12;marker:none;visibility:visible;display:inline;overflow:visible;enable-background:accumulate;font-family:Sans;-inkscape-font-specification:Sans"
             d="m 60.651789,3300.0188 a 1.4496854,1.4496854 0 0 0 -1.094717,0.5511 l -2.989674,3.6692 a 1.4515036,1.4515036 0 0 0 2.249831,1.8345 l 1.955357,-2.4008 1.947822,2.4008 a 1.4514942,1.4514942 0 0 0 1.419337,0.4983 1.4515036,1.4515036 0 0 0 1.42688,-0.4983 l 1.955381,-2.4008 1.947823,2.4008 a 1.4514942,1.4514942 0 0 0 1.290981,0.5285 1.4515036,1.4515036 0 0 0 0.0074,0 1.4515036,1.4515036 0 0 0 1.200396,-0.5285 l 1.955381,-2.4008 1.947814,2.4008 a 1.4514942,1.4514942 0 0 0 1.351388,0.5134 1.4515036,1.4515036 0 0 0 1.321201,-0.5134 l 1.947822,-2.4008 1.955357,2.4008 a 1.4515039,1.4515039 0 1 0 2.249831,-1.8345 l -2.989674,-3.6692 a 1.4496854,1.4496854 0 0 0 -1.140014,-0.5511 1.4496854,1.4496854 0 0 0 -0.03019,0 1.4496854,1.4496854 0 0 0 -0.158535,0 1.4496854,1.4496854 0 0 0 -1.094716,0.5511 l -2.076154,2.5518 -2.07617,-2.5518 a 1.4496854,1.4496854 0 0 0 -1.140022,-0.5511 1.4496854,1.4496854 0 0 0 -0.03771,0 1.4496854,1.4496854 0 0 0 -0.0074,0 1.4496854,1.4496854 0 0 0 -0.143449,0 1.4496854,1.4496854 0 0 0 -1.094692,0.5511 l -1.985585,2.4385 -1.993119,-2.4385 a 1.4496854,1.4496854 0 0 0 -1.140013,-0.5511 1.4496854,1.4496854 0 0 0 -0.03771,0 1.4496854,1.4496854 0 0 0 -0.150993,0 1.4496854,1.4496854 0 0 0 -1.094692,0.5511 l -2.166772,2.6575 -2.159205,-2.6575 a 1.4496854,1.4496854 0 0 0 -1.139997,-0.5511 1.4496854,1.4496854 0 0 0 -0.0378,0 1.4496854,1.4496854 0 0 0 -0.151,0 z"
             id="path20929"
             inkscape:connector-curvature="0" />
          <path
             id="path20931"
             d="m 60.655029,3300.0174 a 1.4496854,1.4496854 0 0 0 -1.095775,0.5548 l -2.989705,3.666 a 1.4515036,1.4515036 0 0 0 -0.297618,1.1838 1.4515036,1.4515036 0 0 1 0.297618,-0.629 l 2.989705,-3.666 a 1.4496854,1.4496854 0 0 1 1.095775,-0.5548 1.4496854,1.4496854 0 0 1 0.148808,0 1.4496854,1.4496854 0 0 1 0.03381,0 1.4496854,1.4496854 0 0 1 1.143133,0.5548 l 2.157718,2.6582 2.171267,-2.6582 a 1.4496854,1.4496854 0 0 1 1.089021,-0.5548 1.4496854,1.4496854 0 0 1 0.155562,0 1.4496854,1.4496854 0 0 1 0.03383,0 1.4496854,1.4496854 0 0 1 1.143112,0.5548 l 1.988628,2.435 1.988627,-2.435 a 1.4496854,1.4496854 0 0 1 1.095775,-0.5548 1.4496854,1.4496854 0 0 1 0.142055,0 1.4496854,1.4496854 0 0 1 0.0067,0 1.4496854,1.4496854 0 0 1 0.04058,0 1.4496854,1.4496854 0 0 1 1.136359,0.5548 l 2.076549,2.55 2.076571,-2.55 a 1.4496854,1.4496854 0 0 1 1.095774,-0.5548 1.4496854,1.4496854 0 0 1 0.155562,0 1.4496854,1.4496854 0 0 1 0.03383,0 1.4496854,1.4496854 0 0 1 1.136359,0.5548 l 2.989705,3.666 a 1.4515039,1.4515039 0 0 1 0.304371,0.656 1.4515039,1.4515039 0 0 0 -0.304371,-1.2108 l -2.989705,-3.666 a 1.4496854,1.4496854 0 0 0 -1.136359,-0.5548 1.4496854,1.4496854 0 0 0 -0.03383,0 1.4496854,1.4496854 0 0 0 -0.155562,0 1.4496854,1.4496854 0 0 0 -1.095774,0.5548 l -2.076571,2.55 -2.076549,-2.55 a 1.4496854,1.4496854 0 0 0 -1.136359,-0.5548 1.4496854,1.4496854 0 0 0 -0.04058,0 1.4496854,1.4496854 0 0 0 -0.0067,0 1.4496854,1.4496854 0 0 0 -0.142055,0 1.4496854,1.4496854 0 0 0 -1.095775,0.5548 l -1.988627,2.4351 -1.988628,-2.4351 a 1.4496854,1.4496854 0 0 0 -1.143112,-0.5548 1.4496854,1.4496854 0 0 0 -0.03383,0 1.4496854,1.4496854 0 0 0 -0.155562,0 1.4496854,1.4496854 0 0 0 -1.089021,0.5548 l -2.171267,2.6582 -2.157718,-2.6582 a 1.4496854,1.4496854 0 0 0 -1.143133,-0.5548 1.4496854,1.4496854 0 0 0 -0.03381,0 1.4496854,1.4496854 0 0 0 -0.148808,0 z"
             style="font-size:medium;font-style:normal;font-variant:normal;font-weight:normal;font-stretch:normal;text-indent:0;text-align:start;text-decoration:none;line-height:normal;letter-spacing:normal;word-spacing:normal;text-transform:none;direction:ltr;block-progression:tb;writing-mode:lr-tb;text-anchor:start;baseline-shift:baseline;color:#000000;fill:#2c2416;fill-opacity:1;stroke:none;stroke-width:12;marker:none;visibility:visible;display:inline;overflow:visible;enable-background:accumulate;font-family:Sans;-inkscape-font-specification:Sans"
             inkscape:connector-curvature="0" />
        </g>
        <g
           id="g20933"
           style="opacity:0.45132745"
           transform="matrix(0.41136386,0,0,0.52228782,-640.09703,1493.2232)">
          <g
             style="fill:#ffdb95;fill-opacity:1"
             id="g20935"
             transform="matrix(0.81807588,0,0,0.81807588,549.09812,199.93764)">
            <path
               style="color:#000000;fill:#ffdb95;fill-opacity:1;fill-rule:nonzero;stroke:none;stroke-width:8;marker:none;visibility:visible;display:inline;overflow:visible;enable-background:accumulate"
               d="m -597.70124,3806.9936 c -1.50873,0.031 -2.96494,0.9676 -2.77219,2.7953 l 0.33206,-0.023 c -0.34925,0.8698 -1.11972,3.5134 -1.11972,3.5134 l 0.23172,0.031 c -0.16784,0.208 -0.35472,0.464 -0.42476,0.6564 -0.12351,0.3397 -0.9266,2.2238 -0.9266,2.2238 l 0.47102,0.1312 c -0.22145,0.7743 -0.59448,2.4213 -0.52506,2.8726 0.0822,0.5339 1.44132,4.5052 1.54074,4.9954 0.20382,0.6616 0.47326,1.4404 0.71225,1.9537 0.34036,0.8142 0.96763,0.8651 1.20912,0.4347 0.20233,-0.3604 -0.58439,-1.6183 -0.74003,-2.2957 0.007,-0.018 0.0199,-0.035 0.023,-0.054 0.0873,-0.4805 -1.30648,-4.7307 -1.26278,-4.9492 0.038,-0.1885 0.47606,-1.964 0.61003,-2.5095 l 0.2471,0.069 0.37066,-0.9265 0,3.776 c -0.92081,1.0033 -1.26925,3.4897 -0.18533,4.6253 l 0.49417,12.3551 0.29348,-0.031 c -0.0891,0.5689 0.0772,2.0076 0.0772,2.0076 0,0 -0.30885,0.8032 0.0616,0.8032 0.23164,0 1.5825,0.032 2.61773,0.011 0.89897,0.017 3.24372,0.061 3.43621,-0.1313 0.55601,-0.556 -2.77985,-1.112 -2.77985,-1.3591 0,-0.1742 0.028,-1.0496 0.0461,-1.6988 l 0.26253,-0.031 -0.71811,-14.2468 0.008,0.011 0.18533,-5.3435 0.18533,0.9266 0.2471,-0.085 c 0.11872,0.9438 0.237,1.8396 0.695,2.7723 0.29061,0.4718 2.80545,3.3377 3.10415,3.3976 0.53906,0.6036 0.8956,0.8863 1.57031,0.9808 l 0,14.2932 c 0,0.1959 0.17474,0.3763 0.37066,0.3763 0.19592,0 0.37353,-0.1804 0.37066,-0.3763 l 0,-14.3704 c 0.23707,-0.2855 0.36215,-1.0999 0.28569,-1.444 -0.0293,-0.1304 -0.1443,-0.1901 -0.28569,-0.2162 l 0,-12.1697 c 0.22991,0 0.41693,-0.1872 0.41693,-0.417 0,-0.061 -0.015,-0.1176 -0.0386,-0.1698 l 0.0616,0 c 0.22991,0 0.41698,-0.1871 0.41698,-0.417 0,-0.2299 -0.18707,-0.417 -0.41698,-0.417 l -1.66027,0 c -0.22984,0 -0.41692,0.1871 -0.41692,0.417 0,0.2299 0.18708,0.417 0.41692,0.417 l 0.0616,0 c -0.0237,0.052 -0.0386,0.1083 -0.0386,0.1698 0,0.2298 0.18708,0.417 0.41698,0.417 l 0.0386,0 0,11.9612 -0.0155,-0.055 c 0,0 -0.5118,0.3384 -1.1379,0.1158 -0.24055,-0.3452 -2.37558,-3.4185 -2.46323,-3.6525 -0.14991,-0.2794 -0.30697,-1.3443 -0.41698,-2.0926 l 0.332,-0.1158 c 0,0 -1.45171,-3.7065 -1.6988,-3.9535 -0.17786,-0.178 -0.72415,-0.2756 -1.14281,-0.2704 0.0124,-0.1105 0.0237,-0.2181 0.0386,-0.3551 l -0.008,-0.054 c 0.17283,0.048 0.33226,0.093 0.44786,0.139 0.43679,0.1747 0.69495,-1.0502 0.69495,-1.0502 0.1323,0.081 0.27953,0.052 0.35237,0 0.13758,-0.1598 -0.40322,-1.0292 -0.35237,-1.3956 0,0 0.0529,-0.1403 0.0386,-0.3784 l 0.78765,-0.1853 c -0.0112,-1.781 -1.52593,-2.4336 -3.03467,-2.4015 z m 0.77987,29.4049 c -0.0181,0.6067 0.0435,1.5402 0.0772,1.9768 -0.57268,-0.1679 -1.08877,-0.3147 -1.08877,-0.4093 0,-0.1946 0.0299,-1.0272 0.0467,-1.4594 z"
               id="path20937"
               inkscape:connector-curvature="0"
               sodipodi:nodetypes="cccccccccccccccccccccccsccscccccccccccscccccscsssssscsscccccccccccccccccccccscc" />
            <path
               style="color:#000000;fill:#ffdb95;fill-opacity:1;fill-rule:nonzero;stroke:none;stroke-width:1;marker:none;visibility:visible;display:inline;overflow:visible;enable-background:accumulate"
               d="m -574.40316,3808.1259 c -0.62198,0.32 -0.71891,1.2806 -0.67235,1.5967 l 0.40496,0.099 c 0,0.1654 0.007,0.3423 0.023,0.5042 0.0199,0.1772 -0.51453,0.8769 -0.33617,0.9781 0.28631,0.1622 0.48229,-0.078 0.51952,0.061 0.043,0.1606 0.21497,0.9481 0.46604,1.0849 0.12668,0.069 0.4077,0.054 0.6876,0.014 0.0367,0.1437 0.0766,0.2995 0.10698,0.4279 -0.0789,0 -0.14729,0.011 -0.2215,0.011 l 0,-0.011 c -1.54604,-0.1819 -2.75153,0.1807 -3.36935,0.7793 -0.25549,-0.2688 -0.52001,-0.6104 -0.87859,-0.6723 0,0 -1.14599,-0.3667 -1.08492,-0.1072 l 0.24447,0.1375 c 0,0 -0.99314,-0.3821 -1.20705,-0.1375 -0.14251,0.04 0.0863,1.2072 2.4448,1.5891 0.008,0.011 0.0155,0.013 0.023,0.023 -0.29534,0.9612 -1.18422,2.1775 -1.18422,2.1775 0,0 -2.29981,-3.2649 -2.80388,-3.5374 0,0 -0.007,-0.011 -0.008,-0.011 -0.37845,-0.2863 -0.87157,-0.4083 -1.48216,-0.4049 -0.20818,0 -0.11194,0.1497 0.008,0.2216 -1.34776,-0.057 -1.39046,-0.023 -1.60437,0.084 -0.14822,0.1204 0.37259,0.6405 0.73343,0.7258 0.5078,0.162 1.59316,-0.066 2.18507,1.0238 0.34022,0.6264 1.20712,2.0934 1.4516,2.7046 0.24447,0.6112 1.49809,1.9446 2.13926,1.7954 0.92323,-0.2149 1.3094,-2.4374 1.99401,-3.0331 0.42869,0.485 0.47481,0.6262 1.05441,2.185 l 0.66463,3.4152 c -0.40466,1.093 -1.28681,3.8538 -1.39811,4.7293 -0.1729,1.3593 -0.62978,2.3052 -1.06201,5.5466 l 0.51323,-0.014 c -0.4953,1.3421 -0.90269,5.3463 -1.2314,5.501 -1.55587,0.4321 -2.68797,1.0774 -3.39986,0.9779 -0.65641,-0.092 -0.26321,0.7351 0.67236,0.7945 1.45221,0.093 1.15999,-0.276 2.05514,-0.1758 0.83888,0.094 1.34315,0.2592 1.85656,0.1147 0.55514,-0.1562 -0.0174,-1.5358 0.19866,-1.6656 1.31806,-2.0963 2.02341,-3.3378 1.83496,-5.5772 l 1.67184,-0.011 c -0.0193,1.4432 0.13498,4.1892 0.20626,4.5459 0.0864,0.4321 0.12463,0.9808 -0.21391,1.253 -1.10203,0.8859 -2.67534,0.3593 -2.81154,0.8251 -0.0343,0.4539 0.68281,0.9052 2.63586,0.5501 0.47115,-0.069 1.87891,0.418 2.18507,-0.1604 0.27707,-0.5235 -0.56121,-1.2592 -0.36673,-1.8642 0.12966,-0.3458 0.42809,-2.2039 0.55772,-2.7658 0.10441,-0.4525 0.11828,-1.8081 0.12224,-2.4142 l 1.42108,-0.023 c 0,0 0.01,-3.6864 -1.15367,-10.1842 l -0.0688,-0.2674 c 0,0 0.36673,-1.8948 0.36673,-2.3838 0,-0.1321 0.0176,-0.9414 0.0306,-1.5203 0.76087,-0.376 1.1045,-1.1589 1.3752,-1.3523 0.8557,-0.6112 1.03907,-2.6893 0.55011,-3.1783 -0.13713,-0.137 -0.47708,-0.1891 -0.89391,-0.191 -0.1436,-0.4324 -0.30823,-0.8413 -0.45075,-1.0314 -0.36674,-0.489 -0.61121,-3.3006 -1.22242,-4.0339 -1.08044,-1.0761 -3.28333,-0.6381 -4.27853,0.2443 z"
               id="path20939"
               inkscape:connector-curvature="0"
               sodipodi:nodetypes="ccccsccccccccccccccccccccssccccccccssscccccccccccccccsccccccc" />
          </g>
          <path
             id="path20941"
             d="m 60.134184,3314.08 c -1.234231,0.025 -2.423623,0.791 -2.265939,2.2863 l 0.270562,-0.02 c -0.285713,0.7114 -0.91991,2.8746 -0.91991,2.8746 l 0.189393,0.027 c -0.137314,0.1701 -0.28766,0.3771 -0.344958,0.5344 -0.101057,0.2779 -0.757571,1.8195 -0.757571,1.8195 l 0.385543,0.1082 c -0.181172,0.6335 -0.489693,1.9779 -0.432902,2.3471 0.06725,0.4369 1.183543,3.6845 1.264885,4.0856 0.166732,0.5413 0.386189,1.1831 0.581693,1.603 0.08337,0.1995 0.186963,0.3394 0.297616,0.4329 l 0.324669,8.1779 0.243509,-0.027 c -0.07289,0.4655 0.06086,1.6436 0.06086,1.6436 0,0 -0.248941,0.6563 0.05407,0.6563 0.189508,0 1.29054,0.024 2.137436,0.01 0.735434,0.013 2.656375,0.049 2.813846,-0.1083 0.454867,-0.4549 -2.272721,-0.907 -2.272721,-1.1092 0,-0.1427 0.01906,-0.8623 0.03387,-1.3935 l 0.216447,-0.02 -0.588483,-11.6543 0.0065,0.01 0.155582,-4.3696 0.148808,0.7575 0.202924,-0.074 c 0.09712,0.772 0.193508,1.5096 0.568178,2.2727 0.237749,0.3859 2.292159,2.7309 2.536526,2.7798 0.440976,0.4939 0.733201,0.721 1.285148,0.7983 l 0,11.6949 c 0,0.1605 0.144113,0.3113 0.30439,0.3113 0.160286,0 0.306729,-0.1508 0.30439,-0.3113 l 0,-11.7557 c 0.193941,-0.2336 0.299285,-0.9022 0.236734,-1.1838 -0.02397,-0.1067 -0.121083,-0.1545 -0.236734,-0.1758 l 0,-9.9566 c 0.188075,0 0.338184,-0.1502 0.338184,-0.3383 0,-0.05 -0.0082,-0.099 -0.02708,-0.142 l 0.04737,0 c 0.188092,0 0.344975,-0.1502 0.344975,-0.3384 0,-0.188 -0.156883,-0.3449 -0.344975,-0.3449 l -1.35956,0 c -0.188027,0 -0.338225,0.1569 -0.338225,0.3449 0,0.1882 0.150198,0.3384 0.338225,0.3384 l 0.05408,0 c -0.01947,0.043 -0.03379,0.092 -0.03379,0.142 0,0.1881 0.156883,0.3383 0.34495,0.3383 l 0.02708,0 0,9.7874 -0.01342,-0.048 c 0,0 -0.414478,0.2767 -0.926684,0.095 -0.196796,-0.2824 -1.943977,-2.7916 -2.01569,-2.9829 -0.122637,-0.2286 -0.254977,-1.106 -0.344974,-1.7181 l 0.277336,-0.095 c 0,0 -1.191249,-3.0311 -1.393388,-3.2333 -0.145503,-0.1457 -0.590953,-0.2205 -0.933441,-0.2164 0.01014,-0.09 0.02168,-0.1788 0.03387,-0.2907 l -0.0065,-0.047 c 0.141388,0.039 0.270693,0.078 0.365263,0.1149 0.357335,0.1429 0.568178,-0.8591 0.568178,-0.8591 0.108223,0.066 0.224505,0.043 0.284085,0 0.112559,-0.1307 -0.325684,-0.8432 -0.284085,-1.1431 0,0 0.03878,-0.1164 0.02708,-0.3112 l 0.649348,-0.1487 c -0.0091,-1.4569 -1.24813,-1.9878 -2.48241,-1.9616 l 0,-0.01 z m 21.02941,0.1759 c -0.743893,0.02 -1.510381,0.3108 -1.968324,0.7169 l 0,0.01 c -0.508827,0.2617 -0.592745,1.0467 -0.554672,1.3054 l 0.331452,0.081 c 0,0.1353 0.0074,0.2801 0.02037,0.4125 0.0162,0.1451 -0.423223,0.7154 -0.277319,0.7983 0.234223,0.1327 0.39567,-0.06 0.426144,0.054 0.03518,0.1312 0.180156,0.7741 0.385542,0.886 0.103634,0.056 0.332442,0.047 0.561429,0.013 0.03002,0.1175 0.06307,0.2398 0.08792,0.345 -0.06455,0 -0.121926,0.013 -0.182644,0.013 l 0,-0.013 c -1.264778,-0.1489 -2.254289,0.1528 -2.759721,0.6424 -0.209002,-0.2199 -0.423641,-0.5039 -0.71697,-0.5546 0,0 -0.936059,-0.3002 -0.886099,-0.088 l 0.202924,0.1149 c 0,0 -0.812554,-0.3151 -0.987557,-0.1149 -0.116576,0.033 0.06594,0.9861 1.99541,1.2987 0.0065,0.01 0.01407,0.013 0.02037,0.02 -0.241602,0.7863 -0.967252,1.7857 -0.967252,1.7857 0,0 -1.880658,-2.6721 -2.293018,-2.895 0,0 -0.0057,-0.013 -0.0065,-0.013 -0.309609,-0.2341 -0.718026,-0.3342 -1.217526,-0.3316 -0.170324,0 -0.09136,0.124 0.0065,0.1827 -1.10257,-0.047 -1.137223,-0.02 -1.312226,0.068 -0.121255,0.099 0.306795,0.5254 0.602014,0.5952 0.41541,0.1326 1.30146,-0.052 1.785704,0.8388 0.278309,0.5124 0.990453,1.7117 1.190472,2.2117 0.199979,0.5002 1.227351,1.59 1.751877,1.4679 0.755272,-0.1757 1.070059,-1.9952 1.630139,-2.4824 0.350693,0.3967 0.384872,0.5173 0.85902,1.7924 l 0.547899,2.7935 c -0.331059,0.8944 -1.052071,3.153 -1.143131,3.8692 -0.141445,1.1119 -0.518954,1.8868 -0.872568,4.5385 l 0.419387,-0.013 c -0.405193,1.0979 -0.738935,4.3714 -1.007853,4.4981 -1.272828,0.3535 -2.19763,0.8864 -2.78001,0.805 -0.53701,-0.075 -0.217486,0.6006 0.547882,0.6494 1.188026,0.076 0.951937,-0.2308 1.68423,-0.149 0.686275,0.077 1.101923,0.213 1.521924,0.095 0.454154,-0.1279 -0.01448,-1.2535 0.162339,-1.3597 1.078256,-1.715 1.649011,-2.7335 1.494861,-4.5655 l 1.373084,-0.01 c -0.01579,1.1805 0.110783,3.4283 0.169112,3.72 0.07068,0.3535 0.101082,0.7988 -0.175886,1.0215 -0.901528,0.7246 -2.188345,0.2952 -2.299767,0.6763 -0.02806,0.3713 0.559998,0.7438 2.157733,0.4531 0.385436,-0.057 1.535258,0.3381 1.785712,-0.1351 0.226664,-0.4283 -0.463489,-1.027 -0.304373,-1.522 0.106055,-0.283 0.353891,-1.8063 0.459955,-2.2658 0.08541,-0.3704 0.0982,-1.4794 0.101449,-1.9754 l 1.16341,-0.02 c 0,0 0.0049,-3.0108 -0.946963,-8.3266 l -0.05407,-0.2231 c 0,0 0.297616,-1.548 0.297616,-1.9481 0,-0.1082 0.01644,-0.7709 0.02708,-1.2445 0.62245,-0.3076 0.901389,-0.9444 1.122834,-1.1026 0.700019,-0.5 0.853196,-2.2042 0.453198,-2.6041 -0.112183,-0.1122 -0.396293,-0.1541 -0.737291,-0.1557 -0.11746,-0.3537 -0.248654,-0.69 -0.365255,-0.8454 -0.300021,-0.4 -0.501055,-2.6942 -1.001079,-3.2941 -0.386705,-0.3851 -0.950081,-0.5366 -1.528673,-0.5208 z m -22.686586,7.1158 0,3.0911 c -0.265237,0.289 -0.470042,0.729 -0.588483,1.2176 -0.22565,-0.7752 -0.427747,-1.4799 -0.412597,-1.5557 0.03109,-0.1544 0.384177,-1.6034 0.493766,-2.0495 l 0.20294,0.054 0.304374,-0.7576 z m 2.293017,16.7612 c -0.01489,0.4963 0.04009,1.2595 0.06766,1.6166 -0.468479,-0.1374 -0.892856,-0.254 -0.892856,-0.3314 0,-0.1592 0.02013,-0.8436 0.03387,-1.1974 l 0.791399,-0.088 z"
             style="color:#000000;fill:#4f4227;fill-opacity:1;fill-rule:nonzero;stroke:none;stroke-width:8;marker:none;visibility:visible;display:inline;overflow:visible;enable-background:accumulate"
             inkscape:connector-curvature="0" />
          <path
             id="path20944"
             d="m 60.134187,3314.0799 c -1.222679,0.025 -2.397306,0.778 -2.265942,2.2457 0.138895,-1.1485 1.18599,-1.7364 2.265942,-1.7587 l 0,0.01 c 1.090731,-0.023 2.182198,0.3935 2.428301,1.4951 l 0.05411,-0.013 c -0.0091,-1.457 -1.248133,-1.9877 -2.482413,-1.9615 l 0,-0.013 z m 21.029408,0.176 c -0.743893,0.019 -1.510383,0.3108 -1.968324,0.7169 l 0,0.01 c -0.508829,0.2617 -0.592725,1.0467 -0.554673,1.3054 l 0.03383,0.01 c 0.06266,-0.3113 0.209761,-0.6652 0.520842,-0.8251 l 0,-0.01 c 0.457941,-0.4061 1.224431,-0.6974 1.968324,-0.7169 0.578591,-0.015 1.141965,0.1357 1.528673,0.5208 0.500019,0.6 0.701057,2.8941 1.001078,3.2941 0.116601,0.1552 0.247791,0.4918 0.365258,0.8455 0.340994,0 0.625105,0.044 0.737291,0.1556 0.114025,0.1141 0.18541,0.334 0.209674,0.6019 0.04097,-0.4744 -0.03139,-0.9108 -0.209674,-1.0889 -0.112186,-0.1121 -0.396297,-0.1541 -0.737291,-0.1556 -0.117467,-0.3537 -0.248657,-0.6903 -0.365258,-0.8455 -0.300021,-0.4 -0.501059,-2.6941 -1.001078,-3.2941 -0.386708,-0.3851 -0.950082,-0.5366 -1.528673,-0.5208 z m -15.225841,1.7316 c -0.18803,0 -0.338224,0.1569 -0.338224,0.345 0,0.094 0.04041,0.1756 0.101472,0.2366 0.0022,0 0.0056,0 0.0067,0 0.06048,-0.059 0.139328,-0.1015 0.229999,-0.1015 l 1.359561,0 c 0.09093,0 0.174609,0.042 0.236752,0.1015 0.06493,-0.061 0.108224,-0.1407 0.108224,-0.2366 0,-0.1881 -0.156882,-0.345 -0.344976,-0.345 l -1.359561,0 z m -3.970502,0.7506 c 0.0022,0.1611 -0.02706,0.2572 -0.02706,0.2572 -0.02277,0.1641 0.09366,0.4483 0.189393,0.6967 0.03773,-0.01 0.07093,-0.017 0.0947,-0.034 0.08993,-0.1044 -0.169415,-0.5799 -0.257034,-0.92 z m -3.828446,0.095 -0.175865,0.013 c -0.311492,0.915 -0.744044,2.3743 -0.744044,2.3743 l 0.142055,0.019 c 0.171298,-0.576 0.549175,-1.8386 0.777854,-2.408 z m 20.83324,0.034 c -0.07922,0.2124 -0.382184,0.6392 -0.257033,0.7104 0.0463,0.026 0.08835,0.035 0.128527,0.041 0.07861,-0.1468 0.155757,-0.2894 0.148788,-0.3517 -0.01255,-0.1282 -0.01991,-0.2676 -0.02035,-0.3992 z m -6.594927,1.8736 c -0.170324,0 -0.09115,0.124 0.0067,0.1827 -1.102571,-0.046 -1.137224,-0.019 -1.312224,0.068 -0.07578,0.062 0.06344,0.255 0.250281,0.4059 0.158246,-0.019 0.433266,-0.013 1.061943,0.013 -0.0979,-0.059 -0.177077,-0.1827 -0.0067,-0.1827 0.4995,0 0.907918,0.097 1.217527,0.3316 0,0 0.0067,0.013 0.0067,0.013 0.412358,0.2229 2.29302,2.895 2.29302,2.895 0,0 0.725646,-0.9994 0.967247,-1.7857 -0.0063,-0.01 -0.01385,-0.011 -0.02035,-0.019 -0.05288,-0.01 -0.09855,-0.017 -0.148831,-0.027 -0.308873,0.6753 -0.798135,1.3461 -0.798135,1.3461 0,0 -1.880662,-2.672 -2.29302,-2.895 0,0 -0.0061,-0.013 -0.0067,-0.013 -0.309609,-0.2342 -0.718027,-0.3342 -1.217527,-0.3316 z m 3.36847,0.061 c -0.08071,0 -0.127467,0.022 -0.114978,0.074 l 0.202921,0.1149 c 0,0 -0.81255,-0.3151 -0.987549,-0.1149 -0.05007,0.013 -0.03968,0.1961 0.13528,0.426 0.288116,-0.046 0.852269,0.1759 0.852269,0.1759 l -0.202921,-0.1149 c -0.04996,-0.2125 0.8861,0.088 0.8861,0.088 0.29331,0.051 0.507985,0.3346 0.716967,0.5545 0.505452,-0.4896 1.49495,-0.7913 2.759727,-0.6424 l 0,0.013 c 0.06074,0 0.118095,-0.013 0.18264,-0.013 -0.02485,-0.1054 -0.0579,-0.2277 -0.08792,-0.345 -0.229004,0.034 -0.457791,0.043 -0.561426,-0.013 -0.04937,-0.027 -0.09357,-0.089 -0.135281,-0.1623 -0.973784,-0.01 -1.736205,0.2681 -2.157739,0.6764 -0.208982,-0.2199 -0.423657,-0.5039 -0.716967,-0.5546 0,0 -0.528915,-0.1675 -0.771122,-0.1623 z m -14.062426,0.034 c -0.08496,0.131 -0.19,0.2108 -0.311146,0.1623 -0.09457,-0.037 -0.223874,-0.076 -0.365258,-0.1149 l 0.0067,0.047 c -0.01212,0.1119 -0.02368,0.2004 -0.03383,0.2907 0.342487,0 0.78794,0.071 0.933437,0.2165 0.174545,0.1746 0.978589,2.1937 1.22428,2.8138 l 0.169112,-0.061 c 0,0 -1.19125,-3.0312 -1.393392,-3.2333 -0.04771,-0.048 -0.131991,-0.089 -0.229977,-0.1217 z m -4.362816,0.5277 c -0.108485,0.1429 -0.211991,0.2957 -0.257012,0.4193 -0.10106,0.2779 -0.757573,1.8194 -0.757573,1.8194 l 0.182619,0.054 c 0.19409,-0.4578 0.50108,-1.1836 0.574954,-1.3866 0.05729,-0.1574 0.207639,-0.3643 0.344955,-0.5344 l -0.189393,-0.027 c 0,0 0.07712,-0.2628 0.10145,-0.3448 z m -0.744023,2.8002 c -0.1708,0.6816 -0.363657,1.5965 -0.317921,1.8939 0.0022,0.015 0.0158,0.054 0.02035,0.075 0.06853,-0.5625 0.274913,-1.453 0.412596,-1.9346 l -0.114978,-0.034 z m 6.520534,0.5816 -0.06766,0.019 c 0.09,0.6121 0.222337,1.4896 0.344977,1.7182 0.07171,0.1913 1.818888,2.7004 2.015684,2.9829 0.512205,0.182 0.926684,-0.095 0.926684,-0.095 l 0.01342,0.047 0,-0.4801 -0.01342,-0.047 c 0,0 -0.414479,0.2766 -0.926684,0.095 -0.196796,-0.2823 -1.943974,-2.7916 -2.015684,-2.9829 -0.09409,-0.1754 -0.195323,-0.7318 -0.277314,-1.2582 z m -5.566815,1.6507 c -0.0097,0.042 -0.05082,0.2 -0.05411,0.2164 -0.01515,0.075 0.186947,0.7805 0.412596,1.5556 0.118441,-0.4885 0.323245,-0.9285 0.588482,-1.2175 l 0,-0.487 c -0.265237,0.2889 -0.470041,0.729 -0.588482,1.2175 -0.152597,-0.5242 -0.287337,-0.998 -0.358483,-1.285 z m 25.412483,1.7857 c -0.01385,0.074 -0.04734,0.2772 -0.04734,0.2772 l 0.05411,0.2232 c 0.742897,4.1489 0.898957,6.8344 0.933438,7.8396 l 0.01342,0 c 0,0 0.005,-3.0108 -0.946966,-8.3266 l -0.0067,-0.013 z m -3.564637,0.2028 c -0.349133,0.9723 -0.995732,3.0127 -1.082247,3.6933 -0.141449,1.1119 -0.518937,1.8867 -0.872571,4.5385 l 0.07442,0 c 0.331925,-2.2502 0.666144,-3.0139 0.798156,-4.0515 0.09106,-0.7163 0.812075,-2.9747 1.143134,-3.8693 l -0.06089,-0.311 z m -17.938232,0.2502 -0.0067,0.2164 -0.0067,-0.013 0.561426,11.1672 0.02706,0 -0.574955,-11.3703 z m 5.499175,0.4736 0,0.487 c 0.115649,0.022 0.212769,0.062 0.23673,0.169 0.02509,-0.1883 0.02556,-0.3651 0,-0.4803 -0.02396,-0.1067 -0.121081,-0.1545 -0.23673,-0.1757 z m 12.527,7.9545 c 0.0095,0.1121 0.01623,0.2182 0.02035,0.3247 0.0045,-0.1065 0.0022,-0.213 0,-0.3247 l -0.02035,0 z m -1.623369,0.027 -0.142056,0.01 c -0.340648,1.3602 -0.629629,3.8931 -0.865797,4.0044 -1.27283,0.3534 -2.197631,0.8863 -2.780009,0.8049 -0.384501,-0.054 -0.329458,0.2767 0.01342,0.487 0.583114,0.072 1.503002,-0.4541 2.766502,-0.8049 0.268917,-0.1267 0.60266,-3.4002 1.007853,-4.4981 z m -18.891972,3.7269 c 0,0.045 0.0052,0.09 0.0067,0.1355 0.0035,-0.048 0.0074,-0.097 0.01342,-0.1355 l -0.02035,0 z m 22.084598,0.1285 c -0.02881,0.1438 -0.08989,0.2745 -0.202943,0.3654 -0.901511,0.7247 -2.188345,0.2952 -2.299773,0.6764 -0.0091,0.1214 0.0526,0.2396 0.189393,0.3381 0.412119,-0.1112 1.38586,0.055 2.11038,-0.5275 0.234675,-0.1887 0.24712,-0.5353 0.202943,-0.8524 z m 1.15664,0.2503 c -0.0069,0.024 -0.01429,0.058 -0.02035,0.074 -0.107294,0.3338 0.167293,0.7113 0.290843,1.0552 0.0043,-0.01 0.0095,-0.013 0.01342,-0.019 0.166363,-0.3145 -0.160951,-0.7199 -0.284089,-1.1095 z m -22.233386,0.2437 c -0.0045,0.171 -0.01364,0.4045 -0.01364,0.4666 0,0.077 0.424392,0.194 0.892853,0.3314 -0.0089,-0.1164 -0.02236,-0.3143 -0.03381,-0.4937 -0.417617,-0.1223 -0.788806,-0.2299 -0.845494,-0.3043 z m 1.819516,0 c -0.0035,0.1485 -0.01342,0.4188 -0.01342,0.4666 0,0.1401 1.308393,0.399 1.961572,0.6966 0.156514,-0.017 0.278678,-0.042 0.311145,-0.074 0.438375,-0.4385 -2.076094,-0.877 -2.259189,-1.0889 z m 16.19311,0.1892 c -0.08706,0.052 -0.0184,0.3504 0.02035,0.6562 0.04437,-0.1805 0.0132,-0.4298 -0.02035,-0.6562 z m -18.973141,0.4532 c -0.04535,0.1515 -0.106644,0.4193 -0.0067,0.5141 0.02212,-0.077 0.04059,-0.1353 0.04059,-0.1353 0,0 -0.01948,-0.2253 -0.03383,-0.3788 z"
             style="opacity:0.77433627;color:#000000;fill:#2c2416;fill-opacity:1;fill-rule:nonzero;stroke:none;stroke-width:8;marker:none;visibility:visible;display:inline;overflow:visible;enable-background:accumulate"
             inkscape:connector-curvature="0" />
        </g>
        <path
           style="color:#000000;fill:#b09b58;fill-opacity:1;fill-rule:nonzero;stroke:none;stroke-width:10;marker:none;visibility:visible;display:inline;overflow:visible;enable-background:accumulate"
           d="m -615.80063,3367.805 c -1.99243,-0.221 -3.60755,1.8146 -3.60755,4.5419 0,1.498 0.48813,2.8944 1.25761,3.8848 -2.07605,-0.5231 -4.91025,-1.131 -4.91025,-1.131 l 0.0801,2.785 6.48859,0 c -0.13188,4.1523 -0.71646,13.9926 -0.71646,13.9926 l 3.04638,0.3378 -0.6614,-14.1154 6.20298,1.376 0.0801,-2.7672 c 0,0 -2.83769,-0.015 -4.91524,0.047 0.77232,-0.8194 1.26259,-2.1099 1.26259,-3.6112 l -0.0103,-0.3721 c -0.14059,-2.5929 -1.70934,-4.7606 -3.59749,-4.9701 z m 0,1.436 c 1.33909,0.1485 2.45057,1.6866 2.55033,3.5256 l 0.0103,0.2644 c 0,1.9342 -1.14733,3.3728 -2.56039,3.216 -1.41307,-0.1567 -2.5603,-1.8498 -2.5603,-3.7839 0,-1.9343 1.14723,-3.3789 2.5603,-3.2221 z"
           id="path20946"
           inkscape:connector-curvature="0" />
        <path
           style="color:#000000;fill:#b09b58;fill-opacity:1;fill-rule:nonzero;stroke:none;stroke-width:12;marker:none;visibility:visible;display:inline;overflow:visible;enable-background:accumulate"
           d="m -616.89314,3333.6978 c -0.25548,0.031 -0.48482,0.1693 -0.66905,0.4905 l -0.77612,-0.3684 0.2944,0.703 -0.56201,0.3259 0.56201,0.274 c -0.88317,1.3489 -1.63253,1.6539 -1.73957,1.889 -0.10705,0.2351 0.37468,0.3592 0.40144,0.6091 0.0266,0.25 -0.0536,0.8057 0.0803,1.2793 0.1338,0.4736 0.4282,0.7179 0.61553,0.6327 0.18736,-0.085 0.53528,-0.611 0.80288,-0.5813 0.26764,0.029 0.18736,0.656 0.18736,0.656 0,0 0.0266,1.2379 0.1338,1.4262 0.0171,0.03 0.0496,0.065 0.087,0.1022 l -0.087,0.1447 c -0.56201,0.1847 -1.71281,0.1982 -1.98041,0.1332 -0.26764,-0.064 -1.06608,-0.4711 -1.39165,-0.5072 -0.34791,-0.039 -0.54195,0.6368 -0.45496,0.9464 -0.16984,0.058 -0.24068,0.4356 -0.0803,0.7234 0.0851,0.032 -0.0402,-0.3485 0.2208,-0.2932 0.18735,0.011 0.0201,-0.069 0.31448,0.2113 0.29438,0.2797 1.09725,0.404 1.33813,0.3248 0.24084,-0.079 0.58876,0.1003 1.01697,0.1478 0.4282,0.047 2.27481,0.2174 2.56918,0.073 0.2944,-0.1436 0.34791,-0.5612 0.34791,-0.5612 0,0 0.0803,0.75 0.66909,0.8505 1.09876,0.2069 3.13618,0.3384 4.79048,0.5663 1.61256,0.3784 2.50457,0.3449 2.75653,-0.2588 0.14093,-0.3378 0.10705,-1.8231 0,-2.6466 -0.10704,-0.8234 -0.74933,-1.3887 -1.84662,-1.5456 -0.0798,-0.01 -0.17269,-0.019 -0.26092,-0.029 0,-0.033 -0.006,-0.072 -0.007,-0.1022 -0.0266,-0.8851 0.61533,-1.309 0.7226,-1.3313 0.77614,-0.1608 0.73803,0.4307 1.01697,0.6775 0.56879,0.5028 0.92603,-0.1028 0.82965,-0.8255 -0.10023,-0.7513 -1.73956,-1.428 -2.48893,-0.4877 -0.3138,0.3936 -0.58887,1.1503 -0.69249,2.0139 -1.05517,-0.073 -2.29119,-0.093 -2.5993,-0.2619 -0.31067,-0.1711 -0.77303,-0.5448 -0.97011,-0.7075 l 0.0223,-0.051 0.65962,-0.08 c 0,0 -0.99454,-0.918 -0.8607,-0.9737 0.11282,-0.099 0.17358,-0.1477 0.27572,-0.1974 -0.0891,-0.1564 -0.94672,-1.1911 -1.4552,-1.3887 0,0 0.10704,-0.7998 -0.2944,-0.9148 -0.40141,-0.1154 -0.56201,-0.5917 -0.56201,-0.5917 -0.48856,-0.2167 -0.48964,0.1025 -0.72257,0.167 l -0.21411,-0.659 z"
           id="path20948"
           inkscape:connector-curvature="0"
           sodipodi:nodetypes="ccccccsssssccccsscccsssscccssccccssscsccccccscccc" />
        <path
           style="font-size:medium;font-style:normal;font-variant:normal;font-weight:normal;font-stretch:normal;text-indent:0;text-align:start;text-decoration:none;line-height:normal;letter-spacing:normal;word-spacing:normal;text-transform:none;direction:ltr;block-progression:tb;writing-mode:lr-tb;text-anchor:start;baseline-shift:baseline;color:#000000;fill:#b09b58;fill-opacity:1;stroke:none;stroke-width:8;marker:none;visibility:visible;display:inline;overflow:visible;enable-background:accumulate;font-family:Sans;-inkscape-font-specification:Sans"
           d="m -614.18354,3243.2254 c -0.31622,0.1466 -0.57143,0.3392 -0.76806,0.5874 -0.30563,0.3857 -0.43099,0.9272 -0.36777,1.4212 0.0781,0.611 0.35992,1.1266 0.74017,1.5273 -0.27368,0.4004 -0.42503,0.883 -0.46087,1.3496 -0.0586,0.7645 0.0994,1.5034 0.526,2.0538 -0.0676,0.068 -0.13531,0.1417 -0.20014,0.2226 -0.41982,0.5233 -0.61388,1.4603 -0.27002,2.5436 0.13139,0.4138 0.30968,0.7798 0.50743,1.1012 -0.26726,0.1613 -0.47017,0.237 -0.47017,0.237 -0.29368,0.093 -0.46445,0.5094 -0.35844,0.8718 0.10603,0.3626 0.46974,0.6068 0.76344,0.5128 0,0 0.45251,-0.1274 0.98222,-0.5026 0.52972,0.4927 0.98223,0.7204 0.98223,0.7204 0.29632,0.1724 0.6728,0.01 0.77988,-0.3363 0.10699,-0.3464 -0.0761,-0.8092 -0.37954,-0.9589 0,0 -0.19933,-0.1198 -0.46549,-0.3408 0.19776,-0.2774 0.37604,-0.604 0.50739,-0.9886 0.34385,-1.0071 0.14981,-1.9871 -0.27002,-2.6035 -0.0648,-0.095 -0.13245,-0.1827 -0.20014,-0.267 0.42652,-0.4558 0.58473,-1.1596 0.526,-1.9371 -0.0358,-0.4746 -0.18719,-0.9908 -0.46082,-1.4518 0.3802,-0.3164 0.662,-0.7695 0.74013,-1.3632 0.0632,-0.48 -0.0621,-1.0493 -0.36775,-1.5027 -0.19551,-0.2901 -0.44966,-0.5359 -0.76344,-0.7516 0,0 0,0 0,0 -0.51966,-0.4008 -0.92007,-0.2601 -1.25222,-0.1389 z m 0.62379,1.2921 c 0.2637,0.1633 0.41684,0.3246 0.49344,0.4383 0.10224,0.1516 0.10278,0.2064 0.0884,0.3155 -0.0245,0.1864 -0.25899,0.5177 -0.5819,0.6915 -0.32286,-0.2454 -0.55735,-0.6288 -0.58189,-0.8206 -0.0142,-0.1119 -0.0138,-0.167 0.0884,-0.2959 0.0767,-0.097 0.22976,-0.2239 0.49344,-0.3288 z m 0,3.0962 c 0.19464,0.2499 0.27135,0.5313 0.29328,0.8218 0.0311,0.4096 -0.13854,0.8017 -0.19554,0.8566 -0.0311,0.029 -0.0639,0.061 -0.0977,0.088 -0.0338,-0.036 -0.0665,-0.075 -0.0977,-0.1098 -0.0569,-0.069 -0.22646,-0.4973 -0.19551,-0.9 0.0221,-0.2856 0.0986,-0.55 0.29325,-0.7568 z m 0,3.5631 c 0.10559,0.1095 0.19735,0.2137 0.26068,0.3069 0.20795,0.3052 0.29136,0.4281 0.0558,1.1178 -0.0778,0.2279 -0.18868,0.4268 -0.31656,0.6041 -0.12756,-0.2057 -0.2387,-0.4292 -0.31654,-0.6743 -0.23549,-0.7419 -0.15209,-0.8464 0.0558,-1.1054 0.0634,-0.079 0.15509,-0.163 0.26068,-0.2491 z"
           id="path20950"
           inkscape:connector-curvature="0"
           sodipodi:nodetypes="ccccscccccscccscccccsccsccccccccccccccccccccccccc" />
        <path
           style="color:#000000;fill:#b09b58;fill-opacity:1;fill-rule:nonzero;stroke:none;stroke-width:8;marker:none;visibility:visible;display:inline;overflow:visible;enable-background:accumulate"
           d="m -616.22143,3293.9271 c -0.0563,0 -0.11379,0 -0.17336,0 -0.43591,0.013 -0.78354,0.4483 -0.94592,1.0305 -0.011,0 -0.8902,0.5778 -1.07471,0.7206 0.22416,0.2591 1.04994,0.6664 1.04994,0.6664 0.0758,0.4576 0.46423,1.0074 0.98062,1.0905 -0.49939,2.6523 0.65414,5.9704 2.11967,7.0655 l 0,3.2939 c 0,0.016 0.004,0.032 0.005,0.048 l -0.45564,-0.05 c -0.23986,-0.027 -0.43055,0.1319 -0.43087,0.3543 0,0.2224 0.19101,0.4227 0.43087,0.45 l 2.92201,0.3335 c 0.23986,0.026 0.43555,-0.1256 0.43583,-0.3479 0,-0.2224 -0.19597,-0.4232 -0.43583,-0.4505 l -0.25258,-0.028 c 0,-0.019 0,-0.04 0,-0.06 l 0,-2.1407 c 1.86257,0.5833 3.10521,1.3084 4.05609,0.4678 -0.42194,-0.6006 -0.73535,-1.2328 -1.00534,-1.8797 0.50025,-0.017 0.88564,-0.2623 1.06975,-0.7388 -0.22927,-0.088 -1.20205,-1.133 -2.22371,-2.2691 -0.7331,-1.6945 -1.81403,-3.2814 -4.37802,-4.4183 0.0138,-0.035 0.028,-0.068 0.0397,-0.1079 0.21715,-0.7536 0.0114,-2.9406 -1.73335,-3.025 z m 8.33011,9.7354 c -0.009,0.03 -0.0189,0.058 -0.03,0.086 0.0441,0.014 0.0565,-0.01 0.03,-0.086 z m -5.70033,1.2662 c 0.171,0.1954 0.33388,0.3535 0.48532,0.4676 0.1117,0.084 0.24363,0.1609 0.38633,0.2322 l 0,2.3359 c 0,0.018 0.004,0.036 0.005,0.054 l -0.87658,-0.097 0,-0.053 0,-2.939 z"
           id="path20952"
           inkscape:connector-curvature="0" />
        <path
           style="font-size:medium;font-style:normal;font-variant:normal;font-weight:normal;font-stretch:normal;text-indent:0;text-align:start;text-decoration:none;line-height:normal;letter-spacing:normal;word-spacing:normal;text-transform:none;direction:ltr;block-progression:tb;writing-mode:lr-tb;text-anchor:start;baseline-shift:baseline;color:#000000;fill:#b09b58;fill-opacity:1;stroke:none;stroke-width:20;marker:none;visibility:visible;display:inline;overflow:visible;enable-background:accumulate;font-family:Sans;-inkscape-font-specification:Sans"
           d="m -617.88697,3277.6271 a 1.003093,0.81780886 76.574441 0 0 -0.8288,0.8977 l 0,9.0551 a 1.003093,0.81780886 76.574441 1 0 1.65756,0.1838 l 0,-8.0654 8.03907,0.8916 0,7.0759 -4.57118,-0.507 -0.0699,-4.727 a 1.0031408,0.81784789 76.574441 1 0 -1.65753,-0.1499 l 0.0829,5.6995 a 1.003093,0.81780886 76.574441 0 0 0.82877,1.0661 l 6.21577,0.6893 a 1.003093,0.81780886 76.574441 0 0 0.82877,-0.8976 l 0,-9.0552 a 1.003093,0.81780886 76.574441 0 0 -0.82877,-1.0814 l -9.69659,-1.0755 z"
           id="path20954"
           inkscape:connector-curvature="0" />
        <path
           style="color:#000000;fill:#b09b58;fill-opacity:1;fill-rule:nonzero;stroke:none;stroke-width:0;marker:none;visibility:visible;display:inline;overflow:visible;enable-background:accumulate"
           d="m 243.78125,675.40625 c -2.40946,-0.59434 -1.13306,25.84515 -3.21875,26.71875 -2.08584,0.8736 -21.10921,-18.13832 -22.3125,-16.03125 -1.20313,2.10785 19.0625,18.94256 19.0625,21.71875 0.002,2.77697 -20.23738,9.57906 -19.03125,12.28125 1.20617,2.7018 20.19385,-6.90298 22.28125,-5 2.08752,1.90298 0.84058,27.71426 3.25,28.3125 2.4093,0.59395 1.16412,-25.84476 3.25,-26.71875 2.08572,-0.87321 21.10921,18.10746 22.3125,16 1.20317,-2.10746 -19.09375,-18.91092 -19.09375,-21.6875 -0.002,-2.77775 20.26859,-9.57906 19.0625,-12.28125 -1.20617,-2.70258 -20.19373,6.90337 -22.28125,5 -2.08755,-1.90337 -0.87195,-27.71426 -3.28125,-28.3125 z"
           transform="matrix(0.25675496,0,0,0.25675496,-676.28329,3140.505)"
           id="path20956"
           inkscape:connector-curvature="0" />
        <path
           style="color:#000000;fill:#b09b58;fill-opacity:1;fill-rule:nonzero;stroke:none;stroke-width:8;marker:none;visibility:visible;display:inline;overflow:visible;enable-background:accumulate"
           d="m -617.73744,3349.0037 c 0.10408,1.0137 1.41943,1.7157 2.86725,1.9812 l 0,2.3794 c -0.30035,0.066 -0.58157,0.2098 -0.80134,0.4453 -0.80855,0.9493 -1.18499,6.2524 0.12527,8.973 0.32802,0.226 2.04692,0.3887 2.42901,0.2694 1.31025,-2.4299 0.93376,-7.8165 0.12521,-8.9453 -0.2422,-0.288 -0.51765,-0.4935 -0.80129,-0.6229 l 0,-2.3794 c 1.39071,0.035 2.66422,-0.3698 2.86725,-1.3452 -0.37749,-0.1099 -6.6868,-0.7908 -6.81136,-0.7555 z"
           id="path20958"
           inkscape:connector-curvature="0"
           sodipodi:nodetypes="ccccccccccc" />
        <g
           style="fill:#b09b58;fill-opacity:1"
           transform="matrix(0.18023395,0.02013216,-0.01385866,0.21675243,-1023.3308,3471.2061)"
           id="g20960">
          <path
             sodipodi:nodetypes="cssccccsccssss"
             inkscape:connector-curvature="0"
             id="path20962"
             d="m 2188.5074,-1179.0122 c -16.2206,0 -29.4688,13.2169 -29.4688,29.4375 0,16.2206 13.2482,29.4688 29.4688,29.4688 16.2206,0 29.4375,-13.2482 29.4375,-29.4688 0.034,-0.9211 -0.031,-1.5898 -0.063,-2.1873 -1.1456,-15.3368 -13.9955,-27.25 -29.375,-27.25 z m 0,8 c 11.267,0 20.5357,8.608 21.375,19.8437 0.051,0.3908 0.07,1.161 0.062,1.5938 0,11.8971 -9.5404,21.4688 -21.4375,21.4688 -11.8971,0 -21.4688,-9.5717 -21.4688,-21.4688 0,-11.8971 9.5717,-21.4375 21.4688,-21.4375 z"
             style="font-size:medium;font-style:normal;font-variant:normal;font-weight:normal;font-stretch:normal;text-indent:0;text-align:start;text-decoration:none;line-height:normal;letter-spacing:normal;word-spacing:normal;text-transform:none;direction:ltr;block-progression:tb;writing-mode:lr-tb;text-anchor:start;baseline-shift:baseline;color:#000000;fill:#b09b58;fill-opacity:1;stroke:none;stroke-width:8;marker:none;visibility:visible;display:inline;overflow:visible;enable-background:accumulate;font-family:Sans;-inkscape-font-specification:Sans" />
          <path
             sodipodi:type="arc"
             style="color:#000000;fill:#b09b58;fill-opacity:1;stroke:none;stroke-width:8;marker:none;visibility:visible;display:inline;overflow:visible;enable-background:accumulate"
             id="path20964"
             sodipodi:cx="2189.5562"
             sodipodi:cy="-1147.8005"
             sodipodi:rx="9.5459414"
             sodipodi:ry="9.5459414"
             d="m 2199.1021,-1147.8005 c 0,5.272 -4.2739,9.5459 -9.5459,9.5459 -5.2721,0 -9.546,-4.2739 -9.546,-9.5459 0,-5.2721 4.2739,-9.546 9.546,-9.546 4.9962,0 9.1472,3.8525 9.5194,8.8349"
             sodipodi:start="0"
             sodipodi:end="6.2086261"
             sodipodi:open="true"
             transform="translate(-1.0607559,-1.7677406)" />
        </g>
      </g>
    </g>
    <g
       id="g16864"
       transform="translate(-1318.2118,201.29317)">
      <path
         sodipodi:nodetypes="ccccscsc"
         style="color:#000000;fill:#fddd82;fill-opacity:1;fill-rule:nonzero;stroke:#8a7626;stroke-width:2.9045434;stroke-linejoin:round;stroke-miterlimit:4;stroke-opacity:1;stroke-dasharray:none;marker:none;visibility:visible;display:inline;overflow:visible;enable-background:accumulate"
         d="m 1480.4813,127.50885 c 5.6779,-5.40211 8.0879,-10.71752 11.512,-12.24106 l 6.754,-0.96472 -0.4824,-4.34193 c 0,0 6.5127,1.92972 8.6836,2.41221 2.1709,0.4825 8.2011,4.10055 16.8848,5.54777 8.6836,1.44749 11.8193,4.82443 7.9599,4.82443 -3.8593,0 -51.3119,4.7633 -51.3119,4.7633 z"
         id="path21068"
         inkscape:connector-curvature="0" />
      <path
         sodipodi:nodetypes="ccccscsc"
         inkscape:connector-curvature="0"
         id="path21066"
         d="m 1476.797,129.49942 c 7.96,-3.61832 15.1963,-14.23163 15.1963,-14.23163 l 6.754,-0.96472 -0.4824,-4.34193 c 0,0 6.5127,1.92972 8.6836,2.41221 2.1709,0.4825 8.2011,4.10055 16.8848,5.54777 8.6836,1.44749 12.4203,3.92084 15.9199,5.54804 3.4293,1.59449 -50.0084,8.8625 -62.9562,6.03026 z"
         style="color:#000000;fill:#fddd82;fill-opacity:1;fill-rule:nonzero;stroke:none;stroke-width:10.92599964;marker:none;visibility:visible;display:inline;overflow:visible;enable-background:accumulate" />
      <path
         style="color:#000000;fill:#ffeda8;fill-opacity:1;fill-rule:nonzero;stroke:none;stroke-width:10.92599964;marker:none;visibility:visible;display:inline;overflow:visible;enable-background:accumulate"
         d="m 357.71875,1019.6875 1.8125,16.4375 L 334,1039.75 c 0,0 -7.86746,11.5129 -19.75,24.2812 10.79803,-8.3887 21.87261,-17.4567 23.6875,-17.0937 3.40651,0.6813 29.96229,-8.1687 32.6875,-9.5313 2.7252,-1.3625 77.0049,20.4189 94.71875,18.375 12.57263,-1.4506 23.33318,3.2524 30.28125,5.875 -9.86837,-4.341 -22.51412,-8.7466 -41.28125,-11.875 -32.82028,-5.4698 -55.60752,-19.1451 -63.8125,-20.9687 -8.20498,-1.8236 -32.8125,-9.125 -32.8125,-9.125 z m -65.53125,64.4375 c -1.66316,1.2305 -3.35536,2.4149 -5.0625,3.5312 l 6.53125,-0.5312 c 0,0 -0.7326,-1.3439 -1.46875,-3 z"
         transform="matrix(0.26458333,0,0,0.26458333,1403.6224,-159.83515)"
         id="path3859"
         inkscape:connector-curvature="0" />
    </g>
    <path
       transform="matrix(0.26458333,0,0,0.26458333,85.410608,41.458019)"
       inkscape:connector-curvature="0"
       id="path3082"
       d="m 31.339895,1086.446 c -52.460259,-6.813 11.582134,-42.922 11.582134,-42.922 l 67.448911,6.813 c 0,0 15.66994,19.0765 57.22936,32.7025 41.55943,13.626 49.73505,3.4065 49.73505,3.4065 0,0 41.55943,2.7252 60.63589,1.3626 19.07645,-1.3626 50.12567,7.9451 45.64724,8.8569 C 176.51354,1126.6152 31.339895,1086.446 31.339895,1086.446 z"
       style="color:#000000;fill:#fddd82;fill-opacity:1;fill-rule:nonzero;stroke:#8a7626;stroke-width:12;stroke-linejoin:round;stroke-miterlimit:4;stroke-opacity:1;stroke-dasharray:none;marker:none;visibility:visible;display:inline;overflow:visible;enable-background:accumulate"
       sodipodi:nodetypes="cccscssc" />
    <path
       style="color:#000000;fill:#fddd82;fill-opacity:1;fill-rule:nonzero;stroke:none;stroke-width:0;marker:none;visibility:visible;display:inline;overflow:visible;enable-background:accumulate"
       d="M -16.351249,1094.6216 C 8.1756246,1066.007 42.922029,1043.524 42.922029,1043.524 l 67.448911,6.813 c 0,0 15.66994,19.0765 57.22936,32.7025 41.55943,13.626 49.73505,3.4065 49.73505,3.4065 0,0 41.55943,2.7252 60.63589,1.3626 19.07645,-1.3626 100.8327,3.4065 96.74489,5.4504 -4.08781,2.0439 -163.51249,31.3399 -168.96291,30.6586 -5.45042,-0.6813 -222.104469,-29.296 -222.104469,-29.296 z"
       id="path3080"
       inkscape:connector-curvature="0"
       transform="matrix(0.26458333,0,0,0.26458333,85.410608,41.458019)"
       sodipodi:nodetypes="cccscsssc" />
    <path
       style="color:#000000;fill:#ffeda8;fill-opacity:1;fill-rule:nonzero;stroke:none;stroke-width:12;marker:none;visibility:visible;display:inline;overflow:visible;enable-background:accumulate"
       d="m 42.9375,1043.5312 c 0,0 -34.7543766,22.4792 -59.28125,51.0938 0,0 1.93377,0.2454 1.96875,0.25 16.662228,-14.7106 56.581433,-39.8142 63.4375,-40.4375 7.494322,-0.6813 53.8125,2.7187 53.8125,2.7187 0,0 34.74067,25.8805 74.9375,36.7813 40.19682,10.9009 47.6875,-1.375 47.6875,-1.375 l 62.625,-5 c -4.1962,-0.01 -7.70925,0.075 -10.15625,0.25 -19.07646,1.3626 -60.625,-1.375 -60.625,-1.375 0,0 -8.19057,10.2197 -49.75,-3.4063 -41.55942,-13.6259 -57.21875,-32.6874 -57.21875,-32.6874 l -67.4375,-6.8126 z"
       transform="matrix(0.26458333,0,0,0.26458333,85.410608,41.458019)"
       id="path3854"
       inkscape:connector-curvature="0" />
  </g>
</svg>
