<?xml version="1.0" encoding="UTF-8" standalone="no"?>
<!-- Created with Inkscape (http://www.inkscape.org/) -->

<svg
   xmlns:dc="http://purl.org/dc/elements/1.1/"
   xmlns:cc="http://creativecommons.org/ns#"
   xmlns:rdf="http://www.w3.org/1999/02/22-rdf-syntax-ns#"
   xmlns:svg="http://www.w3.org/2000/svg"
   xmlns="http://www.w3.org/2000/svg"
   xmlns:sodipodi="http://sodipodi.sourceforge.net/DTD/sodipodi-0.dtd"
   xmlns:inkscape="http://www.inkscape.org/namespaces/inkscape"
   width="548.09161"
   height="503.32611"
   viewBox="0 0 145.0159 133.1717"
   version="1.1"
   id="svg23489"
   inkscape:version="0.48.5 r10040"
   sodipodi:docname="pyramid_entrance.svg"
   tags="pyramid entrance, templ, egypt, structure, ">
  <defs
     id="defs23483" />
  <sodipodi:namedview
     id="base"
     pagecolor="#7d848b"
     bordercolor="#666666"
     borderopacity="1.0"
     inkscape:pageopacity="0"
     inkscape:pageshadow="2"
     inkscape:zoom="1.2054152"
     inkscape:cx="191.61345"
     inkscape:cy="259.69391"
     inkscape:document-units="px"
     inkscape:current-layer="layer1"
     showgrid="false"
     inkscape:pagecheckerboard="false"
     showborder="true"
     units="px"
     inkscape:window-width="1920"
     inkscape:window-height="1017"
     inkscape:window-x="-8"
     inkscape:window-y="-8"
     inkscape:window-maximized="1"
     inkscape:showpageshadow="false"
     guidetolerance="28"
     fit-margin-top="25"
     fit-margin-left="25"
     fit-margin-bottom="25"
     fit-margin-right="25">
    <inkscape:grid
       type="xygrid"
       id="grid24034"
       spacingx="1px"
       spacingy="1px"
       empspacing="8"
       visible="true"
       enabled="true"
       snapvisiblegridlinesonly="true"
       originx="64.159608px"
       originy="-294.61932px" />
  </sodipodi:namedview>
  <metadata
     id="metadata23486">
    <rdf:RDF>
      <cc:Work
         rdf:about="">
        <dc:format>image/svg+xml</dc:format>
        <dc:type
           rdf:resource="http://purl.org/dc/dcmitype/StillImage" />
        <dc:title></dc:title>
        <cc:license
           rdf:resource="" />
        <dc:creator>
          <cc:Agent>
            <dc:title>Robert Brooks</dc:title>
          </cc:Agent>
        </dc:creator>
      </cc:Work>
    </rdf:RDF>
  </metadata>
  <g
     inkscape:label="Layer 1"
     inkscape:groupmode="layer"
     id="layer1"
     transform="translate(16.975563,-85.876924)">
    <g
       id="g12650"
       transform="matrix(1.0337557,0,0,1.0337557,2310.5182,-3504.6113)">
      <g
         transform="translate(0,27.840224)"
         id="g12603">
        <g
           transform="translate(0,-53.734876)"
           id="g12523">
          <path
             sodipodi:nodetypes="ccccccc"
             inkscape:connector-curvature="0"
             id="path12525"
             d="m -2228.5138,3521.2119 85.5259,0 20.098,-0.094 0.2963,-8.3942 -20.327,-1.0131 -85.7715,0.6736 z"
             style="color:#000000;fill:#d4a72f;fill-opacity:1;fill-rule:nonzero;stroke:#a0892c;stroke-width:3.17500019;stroke-linecap:round;stroke-linejoin:round;stroke-miterlimit:4;stroke-opacity:1;stroke-dasharray:none;stroke-dashoffset:0;marker:none;visibility:visible;display:inline;overflow:visible;enable-background:accumulate" />
          <path
             style="color:#000000;fill:#e9c254;fill-opacity:1;fill-rule:nonzero;stroke:none;stroke-width:12;marker:none;visibility:visible;display:inline;overflow:visible;enable-background:accumulate"
             d="m -2228.5138,3521.2119 85.5259,0 20.098,-0.094 0.2963,-8.3942 -20.327,-1.0131 -85.7715,0.6736 z"
             id="path12527"
             inkscape:connector-curvature="0"
             sodipodi:nodetypes="ccccccc" />
          <path
             style="color:#000000;fill:#daaf3a;fill-opacity:1;fill-rule:nonzero;stroke:#a0892c;stroke-width:2.64583349;stroke-miterlimit:4;stroke-opacity:1;stroke-dasharray:none;marker:none;visibility:visible;display:inline;overflow:visible;enable-background:accumulate"
             d="m -2142.9206,3511.711 c 0.7187,1.7901 2.6005,6.6701 -0.067,9.5012 l 0,0 20.0956,-0.091 0.2976,-8.3957 z"
             id="path12533"
             inkscape:connector-curvature="0"
             sodipodi:nodetypes="cccccc" />
          <path
             sodipodi:nodetypes="cccccc"
             inkscape:connector-curvature="0"
             id="path12529"
             d="m -2142.9206,3511.711 c -0.2927,1.7901 0.5243,6.6701 -0.067,9.5012 l 0,0 20.0956,-0.091 0.2976,-8.3957 z"
             style="color:#000000;fill:#daaf3a;fill-opacity:1;fill-rule:nonzero;stroke:none;stroke-width:12;marker:none;visibility:visible;display:inline;overflow:visible;enable-background:accumulate" />
          <path
             inkscape:connector-curvature="0"
             style="color:#000000;fill:#00abab;fill-opacity:1;fill-rule:nonzero;stroke:none;stroke-width:12;marker:none;visibility:visible;display:inline;overflow:visible;enable-background:accumulate"
             d="m -8135.5312,12999.625 -36.6563,0.281 c 0.2314,11.291 0.6172,23.517 1,35.375 l 35.6563,0 0,-35.656 z m -62.2188,0.5 -36.6562,0.281 c 0.2367,11.188 0.6186,23.195 1,34.875 l 35.6562,0 0,-35.156 z m -71.2188,0.563 -36.625,0.281 c 0.2366,11.066 0.5958,22.834 0.9688,34.312 l 35.6562,0 0,-34.593 z m -70.5937,0.562 -36.625,0.281 c 0.2376,10.942 0.6023,22.472 0.9687,33.75 l 35.6563,0 0,-34.031 z m -68,0.531 -15.8437,0.125 0.6874,33.375 16.4688,0 c -0.4597,-11.252 -0.9317,-22.801 -1.3125,-33.5 z"
             transform="matrix(0.26458334,0,0,0.26458334,-6.3049604e-6,72.297369)"
             id="path12539" />
          <path
             inkscape:connector-curvature="0"
             style="color:#000000;fill:#ff9200;fill-opacity:1;fill-rule:nonzero;stroke:none;stroke-width:12;marker:none;visibility:visible;display:inline;overflow:visible;enable-background:accumulate"
             d="m -8080.8125,13000.25 c 0.1476,11.479 0.3473,23.526 0.5625,34.938 l 20.375,-0.09 0,-33.782 -20.9375,-1.062 z m 40.5,2.031 c 0.1471,10.906 0.3303,22.061 0.5313,32.719 l 16.25,-0.09 1.125,-31.718 -17.9063,-0.907 z"
             transform="matrix(0.26458334,0,0,0.26458334,-6.3049604e-6,72.297369)"
             id="path12566" />
          <path
             inkscape:connector-curvature="0"
             style="color:#000000;fill:#008080;fill-opacity:1;fill-rule:nonzero;stroke:none;stroke-width:12;marker:none;visibility:visible;display:inline;overflow:visible;enable-background:accumulate"
             d="m -8101.0312,12999.344 c 0.1471,11.719 0.3721,24.19 0.5937,35.937 l 0.9687,0 19.4063,-0.09 0,-34.876 -19.1563,-0.968 -1.8124,0 z m 40.5,1.937 c 0.1475,11.196 0.3546,22.783 0.5624,33.813 l 20.375,-0.09 0,-32.688 -20.9374,-1.031 z"
             transform="matrix(0.26458334,0,0,0.26458334,-6.3049604e-6,72.297369)"
             id="path12570" />
          <path
             inkscape:connector-curvature="0"
             style="color:#000000;fill:#ffcc00;fill-opacity:1;fill-rule:nonzero;stroke:none;stroke-width:12;marker:none;visibility:visible;display:inline;overflow:visible;enable-background:accumulate"
             d="m -8100.25,12999.344 -36.625,0.312 c 0.2345,11.341 0.61,23.678 1,35.625 l 35.625,0 0,-35.937 z m -62.2188,0.5 -36.6562,0.281 c 0.232,11.246 0.6197,23.376 1,35.156 l 35.6562,0 0,-35.437 z m -71.2187,0.562 -36.625,0.282 c 0.2336,11.127 0.595,23.014 0.9687,34.593 l 35.6563,0 0,-34.875 z m -70.5937,0.563 -36.5938,0.281 c 0.2371,11.004 0.5677,22.653 0.9375,34.031 l 35.6563,0 0,-34.312 z m -69.2813,0.531 -36.625,0.312 c 0.238,10.879 0.6055,22.292 0.9687,33.469 l 35.6563,0 0,-33.781 z"
             transform="matrix(0.26458334,0,0,0.26458334,-6.3049604e-6,72.297369)"
             id="path12590" />
          <path
             style="opacity:0.2932692;color:#000000;fill:#0d0a02;fill-opacity:1;fill-rule:nonzero;stroke:none;stroke-width:12;marker:none;visibility:visible;display:inline;overflow:visible;enable-background:accumulate"
             d="m 420.0708,49.125 -330.97705,2.625 0.21875,11.46875 332.96241,0 80.97509,0.375 0.375,-10.53125 z"
             transform="matrix(0.25594377,0,0,0.25594377,-2251.493,3499.141)"
             id="path13297"
             inkscape:connector-curvature="0"
             sodipodi:nodetypes="ccccccc" />
        </g>
      </g>
      <g
         transform="matrix(0.9382909,0,0,0.9382909,-209.25029,244.48102)"
         id="g12383">
        <path
           style="color:#000000;fill:#dbb342;fill-opacity:1;fill-rule:nonzero;stroke:#a0892c;stroke-width:10.82716465;stroke-linecap:round;stroke-linejoin:round;stroke-miterlimit:4;stroke-opacity:1;stroke-dasharray:none;stroke-dashoffset:0;marker:none;visibility:visible;display:inline;overflow:visible;enable-background:accumulate"
           d="m -7851.3125,13037.688 -0.125,11.156 -58.7187,0.781 -0.031,0 -6.125,0.09 -0.031,0 c -2.6444,0 -6.4054,3.26 -10.8437,8.843 l 5.2813,-12.906 -154.6563,4.969 0,-0.03 -48.7813,0 -0.8124,75.094 7.5312,5.968 c 0,0 0.044,0.19 0.062,0.25 l 0.1563,4.032 c -0.553,5.218 -2.9376,25.187 -2.9376,25.187 l -5.5,29.125 -0.4374,40.312 0,0.09 -1.2813,121.688 -29.375,6.656 -2.6875,-0.06 c 0.2042,0 0.3592,0.2 0.5,0.562 l -0.4688,0.09 c 0.095,0.03 0.3228,0.07 0.4688,0.09 l -1.25,0.281 c -0.051,0.936 -0.081,2.001 -0.094,3.156 0,0.213 0,0.41 0,0.625 -0.01,0.982 -0.014,2.001 0,3.062 0.069,8.272 0.6563,16.688 0.6563,16.688 -0.216,0.03 -0.7813,4 -0.7813,4 l -30,6.781 -2.7187,-0.06 c 0.1996,0 0.361,0.215 0.5,0.562 l -0.4687,0.09 c 0.1137,0.03 0.3579,0.06 0.5312,0.09 l -1.3125,0.312 c -0.051,0.936 -0.081,2.002 -0.094,3.157 0,0.204 0,0.387 0,0.593 -0.01,0.99 -0.014,1.992 0,3.063 0.068,8.272 0.6562,16.687 0.6562,16.687 -0.187,0.03 214.9958,7.821 235.1562,3.031 0.1836,0.318 0.3176,0.274 0.4376,-0.03 0.027,0.01 0.069,0.02 0.094,0.03 -3.1162,2.267 55.9846,-8.447 113.4687,-21.187 l 34.3126,1.437 -0.031,1.594 5.5313,-1.344 3,0.126 0,-0.876 87.2187,-21.25 0.7187,-83 -0.031,0 0.031,-4.062 0.031,0 1.4375,-161.656 c -8.6341,0.231 -8.8687,-1.923 0.031,-4 l 0.7813,-89.906 -90.2187,0 z"
           transform="matrix(0.26458334,0,0,0.26458334,-6.3049604e-6,18.562493)"
           id="path12146"
           inkscape:connector-curvature="0"
           sodipodi:nodetypes="cccccscccccccccccccccccccccccccccccccccccccccccccccccccccccc" />
        <g
           id="g64081"
           transform="matrix(0.90226373,0,0,0.90226373,-402.01577,356.44298)">
          <path
             sodipodi:nodetypes="ccccc"
             transform="matrix(0.26458334,0,0,0.26458334,-6.3049604e-6,18.562493)"
             inkscape:connector-curvature="0"
             id="path64072"
             d="m -7170.5407,13166.101 c 7.08,-25.487 80.7111,-188.325 80.7111,-188.325 l 213.8135,-2.832 -55.2233,205.317 z"
             style="color:#000000;fill:#554400;fill-opacity:1;fill-rule:nonzero;stroke:#a0892c;stroke-width:12;stroke-linecap:round;stroke-linejoin:round;stroke-miterlimit:4;stroke-opacity:1;stroke-dasharray:none;stroke-dashoffset:0;marker:none;visibility:visible;display:inline;overflow:visible;enable-background:accumulate" />
          <path
             style="color:#000000;fill:#645000;fill-opacity:1;fill-rule:nonzero;stroke:none;stroke-width:12;marker:none;visibility:visible;display:inline;overflow:visible;enable-background:accumulate"
             d="m -7170.5407,13166.101 c 7.08,-25.487 80.7111,-188.325 80.7111,-188.325 l 213.8135,-2.832 -55.2233,205.317 z"
             id="path64074"
             inkscape:connector-curvature="0"
             transform="matrix(0.26458334,0,0,0.26458334,-6.3049604e-6,18.562493)"
             sodipodi:nodetypes="ccccc" />
          <path
             id="path64076"
             transform="matrix(0.26458334,0,0,0.26458334,-6.3049604e-6,18.562493)"
             d="m -7083.0312,12977.688 -6.8126,0.09 c -19.7537,0 -95.548,162.826 -80.6874,188.313 l 86.4747,7.562 40.8312,-149.156 c 0,0 -11.2379,-25.582 -39.8059,-46.812 z"
             style="opacity:0.09292034;color:#000000;fill:#d4a72f;fill-opacity:1;fill-rule:nonzero;stroke:none;stroke-width:12;marker:none;visibility:visible;display:inline;overflow:visible;enable-background:accumulate"
             inkscape:connector-curvature="0"
             sodipodi:nodetypes="ccccccc" />
        </g>
        <g
           transform="matrix(0.86102732,0,0,0.86102732,-824.98661,561.16151)"
           id="g12060">
          <path
             inkscape:connector-curvature="0"
             style="color:#000000;fill:#d4a72f;fill-opacity:1;fill-rule:nonzero;stroke:#a0892c;stroke-width:12;stroke-linejoin:round;stroke-miterlimit:4;stroke-opacity:1;stroke-dasharray:none;marker:none;visibility:visible;display:inline;overflow:visible;enable-background:accumulate"
             d="m -7921.9062,13045.656 -157.5938,5.063 -1.3125,82.969 1.4687,0.06 0.25,0 123.8438,-6.844 33.3438,-81.25 z m -35.0313,85.375 -122.1563,6.719 a 2.0002001,2.0002001 0 0 1 -0.125,0 l -1.6562,-0.06 -4.2188,265.968 25.9063,-23.344 102.25,-249.281 z"
             transform="matrix(0.30728797,0,0,0.30728797,958.14219,-630.17631)"
             id="path12086" />
          <path
             style="color:#000000;fill:#e6b93a;fill-opacity:1;fill-rule:nonzero;stroke:none;stroke-width:12;marker:none;visibility:visible;display:inline;overflow:visible;enable-background:accumulate"
             d="m -7921.9062,13045.656 -157.5938,5.063 -1.3125,82.969 1.4687,0.06 0.25,0 c 47.9738,2.18 90.3699,0.642 123.8438,-6.844 z m -35.0313,85.375 -122.1563,6.719 c -0.042,0 -0.083,0 -0.125,0 l -1.6562,-0.06 -4.2188,265.968 25.9063,-23.344 z"
             transform="matrix(0.30728797,0,0,0.30728797,958.14219,-630.17631)"
             id="path12062"
             inkscape:connector-curvature="0"
             sodipodi:nodetypes="cccccccccccccc" />
          <path
             inkscape:connector-curvature="0"
             style="color:#000000;fill:#fddd82;fill-opacity:1;fill-rule:nonzero;stroke:#a0892c;stroke-width:12;stroke-linejoin:round;stroke-miterlimit:4;stroke-opacity:1;stroke-dasharray:none;marker:none;visibility:visible;display:inline;overflow:visible;enable-background:accumulate"
             d="m -8125.3438,13050.594 -0.8124,75.094 7.5312,5.968 c 0,0 0.043,0.189 0.062,0.25 l 31.2813,1.469 c 2.1455,-26.544 5.5819,-54.043 10.7187,-82.781 l -48.7813,0 z m 6.9376,85.344 c -0.5527,5.219 -2.9376,25.187 -2.9376,25.187 l -5.5,29.125 -2.2187,209.969 52.5,2.219 c -8.6199,-84.74 -18.3831,-168.641 -11.0313,-265.094 l -30.8124,-1.406 z"
             transform="matrix(0.30728797,0,0,0.30728797,958.14219,-630.17631)"
             id="path12084" />
          <path
             style="color:#000000;fill:#fddd82;fill-opacity:1;fill-rule:nonzero;stroke:none;stroke-width:12;marker:none;visibility:visible;display:inline;overflow:visible;enable-background:accumulate"
             d="m -8125.3438,13050.594 -0.8124,75.094 7.5312,5.968 c 0,0 0.043,0.189 0.062,0.25 l 39.2187,1.844 0.25,0 2.5313,-0.125 0,-83.031 z m 6.9376,85.344 c -0.5527,5.219 -2.9376,25.187 -2.9376,25.187 l -5.5,29.125 -2.2187,209.969 52.5,2.219 c 0.2983,-56.57 -4.0365,-102.637 -4.0748,-160.553 -0.02,-30.589 5.4107,-68.409 4.0748,-104.26 l -2.5313,0.125 c -0.042,0 -0.083,0 -0.125,0 z"
             transform="matrix(0.30728797,0,0,0.30728797,958.14219,-630.17631)"
             id="path12064"
             inkscape:connector-curvature="0"
             sodipodi:nodetypes="ccccccccccccccscccc" />
          <path
             inkscape:connector-curvature="0"
             style="color:#000000;fill:#e9c254;fill-opacity:1;fill-rule:nonzero;stroke:none;stroke-width:12;marker:none;visibility:visible;display:inline;overflow:visible;enable-background:accumulate"
             d="m -8118.4062,13135.938 c -0.5527,5.218 -2.9376,25.187 -2.9376,25.187 l -5.5,29.125 -0.4374,40.406 c 2.223,-18.561 3.7963,-36.829 5.875,-44.312 3.208,-11.549 10.9062,-44.25 10.9062,-44.25 l 27.5938,2.562 c 0,0 2.5624,19.243 2.5624,34 0,14.757 -1.9394,32.09 -0.6562,34.656 0.1604,0.321 0.703,0.04 1.5,-0.687 1.5055,-23.878 3.873,-49.893 2.9375,-75 l -2.5313,0.125 -0.125,0 -39.1874,-1.812 z"
             transform="matrix(0.30728797,0,0,0.30728797,958.14219,-630.17631)"
             id="path12141" />
          <path
             id="path12499"
             transform="matrix(0.32749755,0,0,0.32749755,1217.1493,-931.37364)"
             d="m -8223.9062,13160.312 -144.5,4.657 c -1.6356,18.993 -2.3757,37.433 -0.2188,28.375 2.2684,-9.528 0.918,-17.236 4.0938,-16.782 3.1758,0.454 122.5,0 122.5,0 0,0 -9.6427,29.839 -19.7813,61.376 2.2402,-0.432 4.4318,-0.892 6.5937,-1.376 l 31.3126,-76.25 z m -32.875,80.094 -5.9376,0.313 c -8.0582,25.074 -16.0204,49.943 -20.25,63.5 l 26.1876,-63.813 z"
             style="color:#000000;fill:#cea026;fill-opacity:1;fill-rule:nonzero;stroke:none;stroke-width:12;marker:none;visibility:visible;display:inline;overflow:visible;enable-background:accumulate"
             inkscape:connector-curvature="0" />
          <path
             sodipodi:nodetypes="ccccccccccccccscccc"
             inkscape:connector-curvature="0"
             id="path12632"
             transform="matrix(0.30728797,0,0,0.30728797,958.14219,-630.17631)"
             d="m -8125.3438,13050.594 -0.8124,75.094 7.5312,5.968 c 0,0 0.043,0.189 0.062,0.25 l 39.2187,1.844 0.25,0 2.5313,-0.125 0,-83.031 z m 6.9376,85.344 c -0.5527,5.219 -2.9376,25.187 -2.9376,25.187 l -5.5,29.125 -2.2187,209.969 52.5,2.219 c 0.2983,-56.57 -4.0365,-102.637 -4.0748,-160.553 -0.02,-30.589 5.4107,-68.409 4.0748,-104.26 l -2.5313,0.125 c -0.042,0 -0.083,0 -0.125,0 z"
             style="color:#000000;fill:#fddd82;fill-opacity:1;fill-rule:nonzero;stroke:none;stroke-width:12;marker:none;visibility:visible;display:inline;overflow:visible;enable-background:accumulate" />
          <path
             id="path12635"
             transform="matrix(0.32749755,0,0,0.32749755,1217.1493,-931.37364)"
             d="m -8412.7812,13277.719 -1.3438,7.25 39.3125,0 101.3437,-3.875 1.3438,-3.282 -101.7812,-0.09 -38.875,0 z m 133.625,17.281 -94.75,3.594 -42.3438,0 -0.062,7.25 41.5,0 90.9687,-7.188 3.4063,-0.562 1.2813,-3.094 z"
             style="color:#000000;fill:#63c1bc;fill-opacity:1;fill-rule:nonzero;stroke:none;stroke-width:12;marker:none;visibility:visible;display:inline;overflow:visible;enable-background:accumulate"
             inkscape:connector-curvature="0" />
          <path
             id="path12643"
             transform="matrix(0.32749755,0,0,0.32749755,1217.1493,-931.37364)"
             d="m -8369.4062,13277.719 c -0.077,2.714 -0.088,4.996 -0.094,7.062 l 96.0312,-3.687 1.3438,-3.282 -97.2812,-0.09 z m 90.25,17.281 -91.375,3.469 c -0.7039,2.251 -0.9404,4.636 -1,7.125 l 87.6874,-6.938 3.4063,-0.562 1.2813,-3.094 z"
             style="color:#000000;fill:#24a0b4;fill-opacity:1;fill-rule:nonzero;stroke:none;stroke-width:12;marker:none;visibility:visible;display:inline;overflow:visible;enable-background:accumulate"
             inkscape:connector-curvature="0" />
        </g>
        <g
           id="g63784"
           transform="matrix(0.75523613,0,0,0.75523613,-887.72197,927.36332)">
          <g
             id="g63706">
            <path
               style="color:#000000;fill:#e8c35b;fill-opacity:1;fill-rule:nonzero;stroke:none;stroke-width:12;marker:none;visibility:visible;display:inline;overflow:visible;enable-background:accumulate"
               d="m -6407.4738,13116.958 311.8543,5.492 c 0,0 2.2348,34.91 0,31.039 -13.7377,-5.514 -311.7372,-4.055 -311.3893,-4.005 0,0 2.5388,-32.526 -0.465,-32.526 z"
               id="path63667"
               inkscape:connector-curvature="0"
               transform="matrix(0.26458334,0,0,0.26458334,-6.3049604e-6,18.562493)"
               sodipodi:nodetypes="ccccc" />
            <path
               style="color:#000000;fill:#fddd82;fill-opacity:1;fill-rule:nonzero;stroke:none;stroke-width:12;marker:none;visibility:visible;display:inline;overflow:visible;enable-background:accumulate"
               d="m -6407.3255,13118.666 c 9.9119,2.832 193.2817,4.956 202.4856,5.664 9.2039,0.708 105.4908,-1.416 109.0308,-2.124 3.5399,-0.708 45.3114,-10.62 40.3555,-9.912 -3.5044,0.501 -308.6844,-4.248 -308.6844,-4.248 z"
               id="path63669"
               inkscape:connector-curvature="0"
               transform="matrix(0.26458334,0,0,0.26458334,-6.3049604e-6,18.562493)"
               sodipodi:nodetypes="cssscc" />
            <path
               transform="matrix(0.26458334,0,0,0.26458334,-6.3049604e-6,18.562493)"
               style="color:#000000;fill:#e8c35b;fill-opacity:1;fill-rule:nonzero;stroke:#a0892c;stroke-width:12;stroke-linejoin:round;stroke-opacity:1;marker:none;visibility:visible;display:inline;overflow:visible;enable-background:accumulate"
               d="m -6408.4615,13118.343 312.7472,3.985 c 0,0 1.6216,35.032 -0.613,31.161 -24.7237,-3.945 -312.4649,-3.951 -311.3893,-4.005 0,0 -1.281,-18.397 -0.7449,-31.141 z"
               id="path63698"
               inkscape:connector-curvature="0"
               sodipodi:nodetypes="cccccc" />
            <path
               sodipodi:nodetypes="cccccc"
               inkscape:connector-curvature="0"
               id="path63673"
               d="m -6408.4615,13118.343 312.0392,-0.971 c 0,0 2.3296,39.988 0.095,36.117 -34.3083,8.151 -312.5531,-3.816 -311.3893,-4.005 0,0 -1.281,-21.229 -0.7449,-31.141 z"
               style="color:#000000;fill:#e8c35b;fill-opacity:1;fill-rule:nonzero;stroke:none;stroke-width:12;marker:none;visibility:visible;display:inline;overflow:visible;enable-background:accumulate"
               transform="matrix(0.26458334,0,0,0.26458334,-6.3049604e-6,18.562493)" />
            <path
               transform="matrix(0.26458334,0,0,0.26458334,-6.3049604e-6,18.562493)"
               style="color:#000000;fill:#fddd82;fill-opacity:1;fill-rule:nonzero;stroke:#a0892c;stroke-width:12;stroke-linejoin:round;stroke-opacity:1;marker:none;visibility:visible;display:inline;overflow:visible;enable-background:accumulate"
               d="m -6408.4615,13118.343 c 9.9119,2.832 229.8168,1.031 193.0018,-1.801 -36.8151,-2.832 115.4974,1.538 119.0374,0.83 3.5399,-0.708 35.3952,-8.992 31.0568,-6.494 -20.2053,11.635 -303.162,0.09 -298.7725,-2.832 z"
               id="path63700"
               inkscape:connector-curvature="0"
               sodipodi:nodetypes="cssscc" />
            <path
               sodipodi:nodetypes="cssscc"
               inkscape:connector-curvature="0"
               id="path63675"
               d="m -6407.3996,13117.812 c 9.9119,2.832 193.3558,5.81 202.5597,6.518 9.2039,0.708 104.8776,-6.25 108.4176,-6.958 3.5399,-0.708 45.9246,-5.786 40.9687,-5.078 -3.5044,0.501 -308.6844,-4.248 -308.6844,-4.248 z"
               style="color:#000000;fill:#fddd82;fill-opacity:1;fill-rule:nonzero;stroke:none;stroke-width:12;marker:none;visibility:visible;display:inline;overflow:visible;enable-background:accumulate"
               transform="matrix(0.26458334,0,0,0.26458334,-6.3049604e-6,18.562493)" />
          </g>
          <g
             transform="translate(11.801338,-12.363307)"
             id="g63714">
            <path
               sodipodi:nodetypes="ccccc"
               transform="matrix(0.26458334,0,0,0.26458334,-6.3049604e-6,18.562493)"
               inkscape:connector-curvature="0"
               id="path63716"
               d="m -6407.4738,13116.958 311.8543,5.492 c 0,0 2.2348,34.91 0,31.039 -13.7377,-5.514 -311.7372,-4.055 -311.3893,-4.005 0,0 2.5388,-32.526 -0.465,-32.526 z"
               style="color:#000000;fill:#e8c35b;fill-opacity:1;fill-rule:nonzero;stroke:none;stroke-width:12;marker:none;visibility:visible;display:inline;overflow:visible;enable-background:accumulate" />
            <path
               sodipodi:nodetypes="cssscc"
               transform="matrix(0.26458334,0,0,0.26458334,-6.3049604e-6,18.562493)"
               inkscape:connector-curvature="0"
               id="path63718"
               d="m -6407.3255,13118.666 c 9.9119,2.832 193.2817,4.956 202.4856,5.664 9.2039,0.708 105.4908,-1.416 109.0308,-2.124 3.5399,-0.708 45.3114,-10.62 40.3555,-9.912 -3.5044,0.501 -308.6844,-4.248 -308.6844,-4.248 z"
               style="color:#000000;fill:#fddd82;fill-opacity:1;fill-rule:nonzero;stroke:none;stroke-width:12;marker:none;visibility:visible;display:inline;overflow:visible;enable-background:accumulate" />
            <path
               sodipodi:nodetypes="cccccc"
               inkscape:connector-curvature="0"
               id="path63720"
               d="m -6408.4615,13118.343 312.7472,3.985 c 0,0 1.6216,35.032 -0.613,31.161 -24.7237,-3.945 -312.4649,-3.951 -311.3893,-4.005 0,0 -1.281,-18.397 -0.7449,-31.141 z"
               style="color:#000000;fill:#e8c35b;fill-opacity:1;fill-rule:nonzero;stroke:#a0892c;stroke-width:12;stroke-linejoin:round;stroke-opacity:1;marker:none;visibility:visible;display:inline;overflow:visible;enable-background:accumulate"
               transform="matrix(0.26458334,0,0,0.26458334,-6.3049604e-6,18.562493)" />
            <path
               transform="matrix(0.26458334,0,0,0.26458334,-6.3049604e-6,18.562493)"
               style="color:#000000;fill:#e8c35b;fill-opacity:1;fill-rule:nonzero;stroke:none;stroke-width:12;marker:none;visibility:visible;display:inline;overflow:visible;enable-background:accumulate"
               d="m -6408.4615,13118.343 312.0392,-0.971 c 0,0 2.3296,39.988 0.095,36.117 -34.3083,8.151 -312.5531,-3.816 -311.3893,-4.005 0,0 -1.281,-21.229 -0.7449,-31.141 z"
               id="path63722"
               inkscape:connector-curvature="0"
               sodipodi:nodetypes="cccccc" />
            <path
               sodipodi:nodetypes="cssscc"
               inkscape:connector-curvature="0"
               id="path63724"
               d="m -6407.3996,13117.812 c 9.9119,2.832 228.7549,1.562 191.9399,-1.27 -36.8151,-2.832 115.4974,1.538 119.0374,0.83 3.5399,-0.708 35.3952,-8.992 31.0568,-6.494 -20.2053,11.635 -303.162,0.09 -298.7725,-2.832 z"
               style="color:#000000;fill:#fddd82;fill-opacity:1;fill-rule:nonzero;stroke:#a0892c;stroke-width:12;stroke-linejoin:round;stroke-opacity:1;marker:none;visibility:visible;display:inline;overflow:visible;enable-background:accumulate"
               transform="matrix(0.26458334,0,0,0.26458334,-6.3049604e-6,18.562493)" />
            <path
               transform="matrix(0.26458334,0,0,0.26458334,-6.3049604e-6,18.562493)"
               style="color:#000000;fill:#fddd82;fill-opacity:1;fill-rule:nonzero;stroke:none;stroke-width:12;marker:none;visibility:visible;display:inline;overflow:visible;enable-background:accumulate"
               d="m -6408.4615,13118.343 c 9.9119,2.832 194.4177,5.279 203.6216,5.987 9.2039,0.708 104.8776,-6.25 108.4176,-6.958 3.5399,-0.708 45.9246,-5.786 40.9687,-5.078 -3.5044,0.501 -308.6844,-4.248 -308.6844,-4.248 z"
               id="path63726"
               inkscape:connector-curvature="0"
               sodipodi:nodetypes="cssscc" />
          </g>
          <g
             id="g63728"
             transform="translate(23.789999,-24.726614)">
            <path
               style="color:#000000;fill:#e8c35b;fill-opacity:1;fill-rule:nonzero;stroke:none;stroke-width:12;marker:none;visibility:visible;display:inline;overflow:visible;enable-background:accumulate"
               d="m -6407.4738,13116.958 311.8543,5.492 c 0,0 2.2348,34.91 0,31.039 -13.7377,-5.514 -311.7372,-4.055 -311.3893,-4.005 0,0 2.5388,-32.526 -0.465,-32.526 z"
               id="path63730"
               inkscape:connector-curvature="0"
               transform="matrix(0.26458334,0,0,0.26458334,-6.3049604e-6,18.562493)"
               sodipodi:nodetypes="ccccc" />
            <path
               style="color:#000000;fill:#fddd82;fill-opacity:1;fill-rule:nonzero;stroke:none;stroke-width:12;marker:none;visibility:visible;display:inline;overflow:visible;enable-background:accumulate"
               d="m -6407.3255,13118.666 c 9.9119,2.832 193.2817,4.956 202.4856,5.664 9.2039,0.708 105.4908,-1.416 109.0308,-2.124 3.5399,-0.708 45.3114,-10.62 40.3555,-9.912 -3.5044,0.501 -308.6844,-4.248 -308.6844,-4.248 z"
               id="path63732"
               inkscape:connector-curvature="0"
               transform="matrix(0.26458334,0,0,0.26458334,-6.3049604e-6,18.562493)"
               sodipodi:nodetypes="cssscc" />
            <path
               transform="matrix(0.26458334,0,0,0.26458334,-6.3049604e-6,18.562493)"
               style="color:#000000;fill:#e8c35b;fill-opacity:1;fill-rule:nonzero;stroke:#a0892c;stroke-width:12;stroke-linejoin:round;stroke-opacity:1;marker:none;visibility:visible;display:inline;overflow:visible;enable-background:accumulate"
               d="m -6408.4615,13117.812 312.7472,4.516 c 0,0 1.6216,35.032 -0.613,31.161 -24.7237,-3.945 -312.4649,-3.951 -311.3893,-4.005 0,0 -1.281,-17.866 -0.7449,-30.61 z"
               id="path63734"
               inkscape:connector-curvature="0"
               sodipodi:nodetypes="cccccc" />
            <path
               sodipodi:nodetypes="cccccc"
               inkscape:connector-curvature="0"
               id="path63736"
               d="m -6408.4615,13117.812 312.0392,-0.44 c 0,0 2.3296,39.988 0.095,36.117 -34.3083,8.151 -312.5531,-3.816 -311.3893,-4.005 0,0 -1.281,-21.76 -0.7449,-31.672 z"
               style="color:#000000;fill:#e8c35b;fill-opacity:1;fill-rule:nonzero;stroke:none;stroke-width:12;marker:none;visibility:visible;display:inline;overflow:visible;enable-background:accumulate"
               transform="matrix(0.26458334,0,0,0.26458334,-6.3049604e-6,18.562493)" />
            <path
               transform="matrix(0.26458334,0,0,0.26458334,-6.3049604e-6,18.562493)"
               style="color:#000000;fill:#fddd82;fill-opacity:1;fill-rule:nonzero;stroke:#a0892c;stroke-width:12;stroke-linejoin:round;stroke-opacity:1;marker:none;visibility:visible;display:inline;overflow:visible;enable-background:accumulate"
               d="m -6407.3996,13117.812 c 9.9119,2.832 228.7549,1.562 191.9399,-1.27 -36.8151,-2.832 115.4974,1.538 119.0374,0.83 3.5399,-0.708 35.3952,-8.992 31.0568,-6.494 -20.2053,11.635 -303.162,0.09 -298.7725,-2.832 z"
               id="path63738"
               inkscape:connector-curvature="0"
               sodipodi:nodetypes="cssscc" />
            <path
               sodipodi:nodetypes="cssscc"
               inkscape:connector-curvature="0"
               id="path63740"
               d="m -6408.4615,13117.812 c 9.9119,2.832 194.4177,5.81 203.6216,6.518 9.2039,0.708 104.8776,-6.25 108.4176,-6.958 3.5399,-0.708 45.9246,-5.786 40.9687,-5.078 -3.5044,0.501 -308.6844,-4.248 -308.6844,-4.248 z"
               style="color:#000000;fill:#fddd82;fill-opacity:1;fill-rule:nonzero;stroke:none;stroke-width:12;marker:none;visibility:visible;display:inline;overflow:visible;enable-background:accumulate"
               transform="matrix(0.26458334,0,0,0.26458334,-6.3049604e-6,18.562493)" />
          </g>
          <g
             transform="translate(35.029369,-36.902598)"
             id="g63742">
            <path
               sodipodi:nodetypes="ccccc"
               transform="matrix(0.26458334,0,0,0.26458334,-6.3049604e-6,18.562493)"
               inkscape:connector-curvature="0"
               id="path63744"
               d="m -6407.4738,13116.958 311.8543,5.492 c 0,0 2.2348,34.91 0,31.039 -13.7377,-5.514 -311.7372,-4.055 -311.3893,-4.005 0,0 2.5388,-32.526 -0.465,-32.526 z"
               style="color:#000000;fill:#e8c35b;fill-opacity:1;fill-rule:nonzero;stroke:none;stroke-width:12;marker:none;visibility:visible;display:inline;overflow:visible;enable-background:accumulate" />
            <path
               sodipodi:nodetypes="cssscc"
               transform="matrix(0.26458334,0,0,0.26458334,-6.3049604e-6,18.562493)"
               inkscape:connector-curvature="0"
               id="path63746"
               d="m -6407.3255,13118.666 c 9.9119,2.832 193.2817,4.956 202.4856,5.664 9.2039,0.708 105.4908,-1.416 109.0308,-2.124 3.5399,-0.708 45.3114,-10.62 40.3555,-9.912 -3.5044,0.501 -308.6844,-4.248 -308.6844,-4.248 z"
               style="color:#000000;fill:#fddd82;fill-opacity:1;fill-rule:nonzero;stroke:none;stroke-width:12;marker:none;visibility:visible;display:inline;overflow:visible;enable-background:accumulate" />
            <path
               sodipodi:nodetypes="cccccc"
               inkscape:connector-curvature="0"
               id="path63748"
               d="m -6408.4615,13117.812 312.7472,4.516 c 0,0 1.6216,35.032 -0.613,31.161 -24.7237,-3.945 -312.4649,-3.951 -311.3893,-4.005 0,0 -1.281,-17.866 -0.7449,-30.61 z"
               style="color:#000000;fill:#e8c35b;fill-opacity:1;fill-rule:nonzero;stroke:#a0892c;stroke-width:12;stroke-linejoin:round;stroke-opacity:1;marker:none;visibility:visible;display:inline;overflow:visible;enable-background:accumulate"
               transform="matrix(0.26458334,0,0,0.26458334,-6.3049604e-6,18.562493)" />
            <path
               transform="matrix(0.26458334,0,0,0.26458334,-6.3049604e-6,18.562493)"
               style="color:#000000;fill:#e8c35b;fill-opacity:1;fill-rule:nonzero;stroke:none;stroke-width:12;marker:none;visibility:visible;display:inline;overflow:visible;enable-background:accumulate"
               d="m -6408.4615,13117.812 312.0392,-0.44 c 0,0 2.3296,39.988 0.095,36.117 -34.3083,8.151 -312.5531,-3.816 -311.3893,-4.005 0,0 -1.281,-21.76 -0.7449,-31.672 z"
               id="path63750"
               inkscape:connector-curvature="0"
               sodipodi:nodetypes="cccccc" />
            <path
               sodipodi:nodetypes="cssscc"
               inkscape:connector-curvature="0"
               id="path63752"
               d="m -6408.4615,13117.812 c 9.9119,2.832 229.8168,1.562 193.0018,-1.27 -36.8151,-2.832 115.4974,1.538 119.0374,0.83 3.5399,-0.708 35.3952,-8.992 31.0568,-6.494 -20.2053,11.635 -303.162,0.09 -298.7725,-2.832 z"
               style="color:#000000;fill:#fddd82;fill-opacity:1;fill-rule:nonzero;stroke:#a0892c;stroke-width:12;stroke-linejoin:round;stroke-opacity:1;marker:none;visibility:visible;display:inline;overflow:visible;enable-background:accumulate"
               transform="matrix(0.26458334,0,0,0.26458334,-6.3049604e-6,18.562493)" />
            <path
               transform="matrix(0.26458334,0,0,0.26458334,-6.3049604e-6,18.562493)"
               style="color:#000000;fill:#fddd82;fill-opacity:1;fill-rule:nonzero;stroke:none;stroke-width:12;marker:none;visibility:visible;display:inline;overflow:visible;enable-background:accumulate"
               d="m -6407.3996,13117.812 c 9.9119,2.832 193.3558,5.81 202.5597,6.518 9.2039,0.708 104.8776,-6.25 108.4176,-6.958 3.5399,-0.708 45.9246,-5.786 40.9687,-5.078 -3.5044,0.501 -308.6844,-4.248 -308.6844,-4.248 z"
               id="path63754"
               inkscape:connector-curvature="0"
               sodipodi:nodetypes="cssscc" />
          </g>
          <g
             id="g63756"
             transform="translate(46.830707,-48.891259)">
            <path
               style="color:#000000;fill:#e8c35b;fill-opacity:1;fill-rule:nonzero;stroke:none;stroke-width:12;marker:none;visibility:visible;display:inline;overflow:visible;enable-background:accumulate"
               d="m -6407.4738,13116.958 311.8543,5.492 c 0,0 2.2348,34.91 0,31.039 -13.7377,-5.514 -311.7372,-4.055 -311.3893,-4.005 0,0 2.5388,-32.526 -0.465,-32.526 z"
               id="path63758"
               inkscape:connector-curvature="0"
               transform="matrix(0.26458334,0,0,0.26458334,-6.3049604e-6,18.562493)"
               sodipodi:nodetypes="ccccc" />
            <path
               style="color:#000000;fill:#fddd82;fill-opacity:1;fill-rule:nonzero;stroke:none;stroke-width:12;marker:none;visibility:visible;display:inline;overflow:visible;enable-background:accumulate"
               d="m -6407.3255,13118.666 c 9.9119,2.832 193.2817,4.956 202.4856,5.664 9.2039,0.708 105.4908,-1.416 109.0308,-2.124 3.5399,-0.708 45.3114,-10.62 40.3555,-9.912 -3.5044,0.501 -308.6844,-4.248 -308.6844,-4.248 z"
               id="path63760"
               inkscape:connector-curvature="0"
               transform="matrix(0.26458334,0,0,0.26458334,-6.3049604e-6,18.562493)"
               sodipodi:nodetypes="cssscc" />
            <path
               transform="matrix(0.26458334,0,0,0.26458334,-6.3049604e-6,18.562493)"
               style="color:#000000;fill:#e8c35b;fill-opacity:1;fill-rule:nonzero;stroke:#a0892c;stroke-width:12;stroke-linejoin:round;stroke-opacity:1;marker:none;visibility:visible;display:inline;overflow:visible;enable-background:accumulate"
               d="m -6408.4615,13117.812 312.7472,4.516 c 0,0 1.6216,35.032 -0.613,31.161 -24.7237,-3.945 -312.4649,-3.951 -311.3893,-4.005 0,0 -1.281,-17.866 -0.7449,-30.61 z"
               id="path63762"
               inkscape:connector-curvature="0"
               sodipodi:nodetypes="cccccc" />
            <path
               sodipodi:nodetypes="cccccc"
               inkscape:connector-curvature="0"
               id="path63764"
               d="m -6408.4615,13117.812 312.0392,-0.44 c 0,0 2.3296,39.988 0.095,36.117 -34.3083,8.151 -312.5531,-3.816 -311.3893,-4.005 0,0 -1.281,-21.76 -0.7449,-31.672 z"
               style="color:#000000;fill:#e8c35b;fill-opacity:1;fill-rule:nonzero;stroke:none;stroke-width:12;marker:none;visibility:visible;display:inline;overflow:visible;enable-background:accumulate"
               transform="matrix(0.26458334,0,0,0.26458334,-6.3049604e-6,18.562493)" />
            <path
               transform="matrix(0.26458334,0,0,0.26458334,-6.3049604e-6,18.562493)"
               style="color:#000000;fill:#fddd82;fill-opacity:1;fill-rule:nonzero;stroke:#a0892c;stroke-width:12;stroke-linejoin:round;stroke-opacity:1;marker:none;visibility:visible;display:inline;overflow:visible;enable-background:accumulate"
               d="m -6408.4615,13117.812 c 9.9119,2.832 229.8168,1.562 193.0018,-1.27 -36.8151,-2.832 115.4974,1.538 119.0374,0.83 3.5399,-0.708 35.3952,-8.992 31.0568,-6.494 -20.2053,11.635 -303.162,0.09 -298.7725,-2.832 z"
               id="path63766"
               inkscape:connector-curvature="0"
               sodipodi:nodetypes="cssscc" />
            <path
               sodipodi:nodetypes="cssscc"
               inkscape:connector-curvature="0"
               id="path63768"
               d="m -6408.4615,13117.812 c 9.9119,2.832 194.4177,5.81 203.6216,6.518 9.2039,0.708 104.8776,-6.25 108.4176,-6.958 3.5399,-0.708 45.9246,-5.786 40.9687,-5.078 -3.5044,0.501 -308.6844,-4.248 -308.6844,-4.248 z"
               style="color:#000000;fill:#fddd82;fill-opacity:1;fill-rule:nonzero;stroke:none;stroke-width:12;marker:none;visibility:visible;display:inline;overflow:visible;enable-background:accumulate"
               transform="matrix(0.26458334,0,0,0.26458334,-6.3049604e-6,18.562493)" />
          </g>
          <g
             transform="translate(60.317951,-61.254566)"
             id="g63770">
            <path
               sodipodi:nodetypes="ccccc"
               transform="matrix(0.26458334,0,0,0.26458334,-6.3049604e-6,18.562493)"
               inkscape:connector-curvature="0"
               id="path63772"
               d="m -6407.4738,13116.958 311.8543,5.492 c 0,0 2.2348,34.91 0,31.039 -13.7377,-5.514 -311.7372,-4.055 -311.3893,-4.005 0,0 2.5388,-32.526 -0.465,-32.526 z"
               style="color:#000000;fill:#e8c35b;fill-opacity:1;fill-rule:nonzero;stroke:none;stroke-width:12;marker:none;visibility:visible;display:inline;overflow:visible;enable-background:accumulate" />
            <path
               sodipodi:nodetypes="cssscc"
               transform="matrix(0.26458334,0,0,0.26458334,-6.3049604e-6,18.562493)"
               inkscape:connector-curvature="0"
               id="path63774"
               d="m -6407.3255,13118.666 c 9.9119,2.832 193.2817,4.956 202.4856,5.664 9.2039,0.708 105.4908,-1.416 109.0308,-2.124 3.5399,-0.708 45.3114,-10.62 40.3555,-9.912 -3.5044,0.501 -308.6844,-4.248 -308.6844,-4.248 z"
               style="color:#000000;fill:#fddd82;fill-opacity:1;fill-rule:nonzero;stroke:none;stroke-width:12;marker:none;visibility:visible;display:inline;overflow:visible;enable-background:accumulate" />
            <path
               sodipodi:nodetypes="cccccc"
               inkscape:connector-curvature="0"
               id="path63776"
               d="m -6408.4615,13118.343 312.7472,3.985 c 0,0 1.6216,35.032 -0.613,31.161 -24.7237,-3.945 -312.4649,-3.951 -311.3893,-4.005 0,0 -1.281,-18.397 -0.7449,-31.141 z"
               style="color:#000000;fill:#e8c35b;fill-opacity:1;fill-rule:nonzero;stroke:#a0892c;stroke-width:12;stroke-linejoin:round;stroke-opacity:1;marker:none;visibility:visible;display:inline;overflow:visible;enable-background:accumulate"
               transform="matrix(0.26458334,0,0,0.26458334,-6.3049604e-6,18.562493)" />
            <path
               transform="matrix(0.26458334,0,0,0.26458334,-6.3049604e-6,18.562493)"
               style="color:#000000;fill:#e8c35b;fill-opacity:1;fill-rule:nonzero;stroke:none;stroke-width:12;marker:none;visibility:visible;display:inline;overflow:visible;enable-background:accumulate"
               d="m -6408.4615,13118.343 312.0392,-0.971 c 0,0 2.3296,39.988 0.095,36.117 -34.3083,8.151 -312.5531,-3.816 -311.3893,-4.005 0,0 -1.281,-21.229 -0.7449,-31.141 z"
               id="path63778"
               inkscape:connector-curvature="0"
               sodipodi:nodetypes="cccccc" />
            <path
               sodipodi:nodetypes="cssscc"
               inkscape:connector-curvature="0"
               id="path63780"
               d="m -6408.4615,13118.343 c 9.9119,2.832 229.8168,1.031 193.0018,-1.801 -36.8151,-2.832 115.4974,1.538 119.0374,0.83 3.5399,-0.708 35.3952,-8.992 31.0568,-6.494 -20.2053,11.635 -303.162,0.09 -298.7725,-2.832 z"
               style="color:#000000;fill:#fddd82;fill-opacity:1;fill-rule:nonzero;stroke:#a0892c;stroke-width:12;stroke-linejoin:round;stroke-opacity:1;marker:none;visibility:visible;display:inline;overflow:visible;enable-background:accumulate"
               transform="matrix(0.26458334,0,0,0.26458334,-6.3049604e-6,18.562493)" />
            <path
               transform="matrix(0.26458334,0,0,0.26458334,-6.3049604e-6,18.562493)"
               style="color:#000000;fill:#fddd82;fill-opacity:1;fill-rule:nonzero;stroke:none;stroke-width:12;marker:none;visibility:visible;display:inline;overflow:visible;enable-background:accumulate"
               d="m -6408.4615,13118.343 c 9.9119,2.832 194.4177,5.279 203.6216,5.987 9.2039,0.708 104.8776,-6.25 108.4176,-6.958 3.5399,-0.708 45.9246,-5.786 40.9687,-5.078 -3.5044,0.501 -308.6844,-4.248 -308.6844,-4.248 z"
               id="path63782"
               inkscape:connector-curvature="0"
               sodipodi:nodetypes="cssscc" />
          </g>
          <g
             id="g63702">
            <path
               sodipodi:nodetypes="ccccccccccccccc"
               transform="matrix(0.26458334,0,0,0.26458334,-6.3049604e-6,18.562493)"
               inkscape:connector-curvature="0"
               id="path63671"
               d="m -6095.6195,13153.489 c 0,-4.005 0.8736,-30.698 0.8736,-30.698 l 38.9329,-10.215 -0.9374,-37.185 40.9722,-5.972 0,-38.084 53.3293,-5.992 0,-43.068 45.3374,-5.676 0,-39.38 42.9074,-8.226 2.0025,-36.831 c 0,0 49.509,-10.67 60.5227,-8.668 -3.0037,13.017 -2.5235,169.441 -4.5915,206.916 -30.3877,7.738 -279.3491,63.079 -279.3491,63.079 z"
               style="color:#000000;fill:#dab245;fill-opacity:1;fill-rule:nonzero;stroke:#a0892c;stroke-width:9.26862431;stroke-linejoin:round;stroke-miterlimit:4;stroke-opacity:1;stroke-dasharray:none;marker:none;visibility:visible;display:inline;overflow:visible;enable-background:accumulate" />
            <path
               style="color:#000000;fill:#dab245;fill-opacity:1;fill-rule:nonzero;stroke:none;stroke-width:12;marker:none;visibility:visible;display:inline;overflow:visible;enable-background:accumulate"
               d="m -6095.6195,13153.489 c 0,-4.005 -1.0013,-33.042 -1.0013,-33.042 l 40.8078,-7.871 -0.9374,-37.185 40.9722,-5.972 0,-38.084 53.3293,-5.992 0,-43.068 45.3374,-5.676 0,-39.381 42.9074,-8.225 2.0025,-36.831 c 0,0 59.5215,-0.658 60.5227,-8.668 -5.0062,15.019 -2.5235,169.441 -4.5915,206.916 -51.1859,22.864 -286.4259,68.226 -279.3491,63.079 z"
               id="path63663"
               inkscape:connector-curvature="0"
               transform="matrix(0.26458334,0,0,0.26458334,-6.3049604e-6,18.562493)"
               sodipodi:nodetypes="ccccccccccccccc" />
          </g>
        </g>
        <g
           id="g64147"
           transform="matrix(0.82454937,0,0,0.82454937,-543.74434,626.84843)"
           style="opacity:0.53539824">
          <path
             transform="matrix(0.26458334,0,0,0.26458334,-6.3049604e-6,18.562493)"
             inkscape:connector-curvature="0"
             id="path64145"
             d="m -7121.4018,13383.026 c -1.2515,23.279 -0.5006,30.287 1.0013,25.281 1.5019,-5.006 1.0012,-23.029 2.5031,-22.528 1.5019,0.501 25.2816,-5.757 25.5319,-4.756 0.2504,1.001 4.5057,22.028 5.5069,17.021 1.0013,-5.006 -0.2503,-17.021 2.0025,-18.022 2.2528,-1.001 43.0538,-7.51 43.5545,-6.258 0.5006,1.252 4.5056,18.773 5.0062,14.518 0.5007,-4.255 1.2516,-15.77 2.5032,-16.27 1.2515,-0.501 25.2816,-6.008 23.2791,-6.508 -2.0025,-0.501 -48.3104,7.509 -48.8111,6.257 -0.5006,-1.251 2.0025,-20.525 2.5032,-22.027 0.5006,-1.502 40.801,-7.509 41.5519,-6.008 0.7509,1.502 4.756,10.013 4.5056,8.01 -0.2503,-2.002 2.2529,-13.016 -1.7521,-13.516 -4.0051,-0.501 -24.2804,3.754 -24.0301,1.501 0.2503,-2.252 1.0013,-21.777 2.0025,-22.277 1.0013,-0.501 34.0426,-5.507 30.7885,-6.258 -3.2541,-0.751 -76.0951,6.258 -76.0951,9.261 0,3.004 0.7509,18.023 1.5019,14.518 0.7509,-3.504 2.0025,-12.015 3.0037,-12.265 1.0013,-0.25 33.2916,-3.504 33.2916,-3.504 0,0 4.005,21.276 4.005,19.274 0,-2.003 2.0025,3.254 0,2.253 -2.0025,-1.002 -34.7935,7.008 -39.0488,6.508 -4.2553,-0.501 -23.7797,4.255 -22.0275,4.756 1.7522,0.5 33.2916,-2.503 33.0413,-1.252 -0.2503,1.252 6.0075,17.021 5.5069,19.024 -0.5006,2.002 1.2515,3.004 -3.7547,3.004 -5.0063,0 -56.5707,10.763 -57.0714,10.263 z"
             style="opacity:0.34513275;color:#000000;fill:#fddd82;fill-opacity:1;fill-rule:nonzero;stroke:none;stroke-width:3;marker:none;visibility:visible;display:inline;overflow:visible;enable-background:accumulate" />
          <path
             sodipodi:nodetypes="cccccccscccccccsccccccsccccscccccscccscccccccscccscccccccccsccccccccccsccc"
             inkscape:connector-curvature="0"
             id="path64092"
             transform="matrix(0.26458334,0,0,0.26458334,-6.3049604e-6,18.562493)"
             d="m -7038.7188,13307.938 c -0.731,0.107 -1.3194,0.824 -1.2812,1.562 l 0.062,3 c -0.5676,0.07 -1.2467,0.153 -1.7813,0.219 -2.2393,0.276 -4.1623,0.528 -5.625,0.75 -0.7313,0.109 -1.3508,0.218 -1.8437,0.312 -0.4925,0.1 -0.7788,0.124 -1.2187,0.313 -0.7279,0.303 -1.1148,1.241 -0.8121,1.968 0.3026,0.728 1.2403,1.116 1.9683,0.813 -0.1285,0.06 0.2006,-0.08 0.625,-0.156 0.4229,-0.08 1.0127,-0.176 1.7188,-0.281 1.412,-0.216 3.3386,-0.478 5.5624,-0.75 0.4482,-0.06 1.028,-0.101 1.5,-0.157 l 0.5626,24.531 c -19.7063,4.275 -32.4631,5.076 -47.2188,6.876 -0.7845,0.106 -1.3991,0.922 -1.2837,1.705 0.1155,0.784 0.9395,1.388 1.7212,1.263 l 23.5,-3.437 c -0.063,0.169 -0.095,0.35 -0.094,0.531 l 0.3437,24.094 c 0,0.115 0.01,0.231 0.031,0.344 -30.0121,6.538 -36.219,5.831 -52.5938,8.218 -0.7774,0.123 -1.3732,0.942 -1.2505,1.719 0.1228,0.777 0.9419,1.373 1.7193,1.25 l 24.5312,-3.844 c -0.032,0.143 -0.042,0.292 -0.031,0.438 l 0,19.812 c -0.011,0.792 0.7075,1.521 1.5,1.521 0.7925,0 1.5112,-0.729 1.5,-1.521 l 0,-19.812 c 0.01,-0.308 -0.079,-0.618 -0.25,-0.875 19.0262,-3.754 35.2387,-6.383 47.5937,-7.469 l 0.9687,17.281 c 0.038,0.793 0.8022,1.478 1.5949,1.428 0.7926,-0.05 1.4659,-0.823 1.4051,-1.615 l -1,-17.531 25.8438,-4.063 c 0.7266,-0.149 1.2735,-0.905 1.1882,-1.642 -0.085,-0.737 -0.7905,-1.348 -1.532,-1.327 -0.042,0 -0.084,0.02 -0.125,0.03 -22.1622,5.065 -33.2347,5.509 -48.0937,7.531 l -0.3437,-24 c 1e-4,-0.311 -0.1,-0.622 -0.2813,-0.875 16.0764,-2.591 33.8833,-5.923 45.625,-6.656 l 1.5937,14.781 c 0,0.836 0.8265,1.572 1.6574,1.485 0.831,-0.09 1.4817,-0.98 1.3114,-1.798 l -1.5938,-14.906 5.2813,-0.781 c 0.7854,-0.09 1.4181,-0.886 1.3281,-1.672 -0.09,-0.785 -0.8864,-1.418 -1.6718,-1.328 -0.032,0 -0.063,0.02 -0.094,0.03 l -5.8125,0.844 c -0.2189,-0.121 -0.4685,-0.187 -0.7187,-0.188 -0.3975,0 -0.7894,0.18 -1.0626,0.469 l -22.1874,3.25 -0.5938,-24.437 c 3.554,-0.404 7.3683,-0.833 11.3125,-1.25 11.2751,-1.194 22.25,-2.282 22.25,-2.282 0.8416,0.01 1.6,-0.803 1.5206,-1.641 -0.079,-0.838 -0.9781,-1.5 -1.8019,-1.327 0,0 -10.9887,1.054 -22.2812,2.25 -3.8389,0.406 -7.5691,0.816 -11.0625,1.218 l -0.062,-2.718 c 6e-4,-0.807 -0.7565,-1.534 -1.5625,-1.5 -0.052,0 -0.1042,0 -0.1563,0 z m -82.6874,75.031 c -0.053,0 -0.1048,0.02 -0.1563,0.03 -0.7311,0.107 -1.3195,0.824 -1.2813,1.562 l 0.7188,23.719 c 0.024,0.785 0.761,1.478 1.5465,1.454 0.7855,-0.03 1.478,-0.762 1.4535,-1.547 l -0.7188,-23.719 c 6e-4,-0.807 -0.7565,-1.533 -1.5624,-1.5 z"
             style="font-size:medium;font-style:normal;font-variant:normal;font-weight:normal;font-stretch:normal;text-indent:0;text-align:start;text-decoration:none;line-height:normal;letter-spacing:normal;word-spacing:normal;text-transform:none;direction:ltr;block-progression:tb;writing-mode:lr-tb;text-anchor:start;baseline-shift:baseline;color:#000000;fill:#a0892c;fill-opacity:1;fill-rule:nonzero;stroke:none;stroke-width:3;marker:none;visibility:visible;display:inline;overflow:visible;enable-background:accumulate;font-family:Sans;-inkscape-font-specification:Sans" />
        </g>
        <path
           inkscape:connector-curvature="0"
           id="path64151"
           d="m -2123.8222,3550.7641 c 0,-1.7796 -1.0302,-5.7134 -0.2809,-6.0881 0.7493,-0.3746 5.9943,-2.2479 4.4957,-1.5922 -1.4986,0.6556 -3.3718,1.1239 -3.5591,2.0605 -0.1873,0.9367 0.2809,6.0881 0.2809,6.0881 z"
           style="opacity:0.5442478;color:#000000;fill:#a0892c;fill-opacity:1;fill-rule:nonzero;stroke:none;stroke-width:3;marker:none;visibility:visible;display:inline;overflow:visible;enable-background:accumulate" />
        <path
           style="color:#000000;fill:#a0892c;fill-opacity:1;fill-rule:nonzero;stroke:none;stroke-width:3;marker:none;visibility:visible;display:inline;overflow:visible;enable-background:accumulate"
           d="m -2075.0779,3532.7499 c 0,-1.7796 -1.0302,-5.7134 -0.2809,-6.0881 0.7493,-0.3746 5.9943,-2.2479 4.4957,-1.5922 -1.4986,0.6556 -3.3718,1.1239 -3.5591,2.0605 -0.1873,0.9367 0.2809,6.0881 0.2809,6.0881 z"
           id="path64153"
           inkscape:connector-curvature="0" />
        <path
           inkscape:connector-curvature="0"
           id="path64155"
           d="m -2128.8555,3532.7499 c 0,-1.7796 -1.0302,-5.7134 -0.2809,-6.0881 0.7493,-0.3746 5.9943,-2.2479 4.4957,-1.5922 -1.4986,0.6556 -3.3718,1.1239 -3.5591,2.0605 -0.1873,0.9367 0.2809,6.0881 0.2809,6.0881 z"
           style="opacity:0.5442478;color:#000000;fill:#a0892c;fill-opacity:1;fill-rule:nonzero;stroke:none;stroke-width:3;marker:none;visibility:visible;display:inline;overflow:visible;enable-background:accumulate" />
        <path
           style="opacity:0.5442478;color:#000000;fill:#a0892c;fill-opacity:1;fill-rule:nonzero;stroke:none;stroke-width:3;marker:none;visibility:visible;display:inline;overflow:visible;enable-background:accumulate"
           d="m -2111.901,3523.213 c 0,-1.7796 -1.0302,-5.7134 -0.2809,-6.0881 0.7493,-0.3746 5.9943,-2.2479 4.4957,-1.5922 -1.4986,0.6556 -3.3718,1.1239 -3.5591,2.0605 -0.1873,0.9367 0.2809,6.0881 0.2809,6.0881 z"
           id="path64157"
           inkscape:connector-curvature="0" />
        <g
           id="g63653"
           transform="matrix(0.86102732,0,0,0.86102732,-752.48447,561.16151)">
          <path
             sodipodi:nodetypes="ccccccccccccccccccccccccc"
             inkscape:connector-curvature="0"
             style="color:#000000;fill:#d4a72f;fill-opacity:1;fill-rule:nonzero;stroke:#a0892c;stroke-width:12;stroke-linejoin:round;stroke-miterlimit:4;stroke-opacity:1;stroke-dasharray:none;marker:none;visibility:visible;display:inline;overflow:visible;enable-background:accumulate"
             d="m -7805.4688,13037.688 -1.4687,96 1.625,0.06 0.2187,0 92,-6.156 6.5835,-89.906 -98.9585,0 z m 92.3438,93.906 -91.8438,6.156 c -0.073,0 -0.1459,0 -0.2187,0 l -1.8125,-0.09 -2.5938,170.063 4.375,0.219 90.6563,-14.688 1.4375,-161.656 z m -1.4688,165.718 -90.2187,14.594 c -0.1441,0.03 -0.2912,0.04 -0.4375,0.03 l -4.4062,-0.219 -1.4063,91.937 95.75,-23.344 0.7187,-83 z"
             transform="matrix(0.30728797,0,0,0.30728797,873.93796,-630.17631)"
             id="path12074" />
          <path
             sodipodi:nodetypes="cccccccccccccccccc"
             inkscape:connector-curvature="0"
             id="path63651"
             transform="matrix(0.32749755,0,0,0.32749755,771.59923,-896.90315)"
             d="m -7011.3125,13047.594 -1.375,90.062 1.5313,0.06 0.1874,0 c 5.8266,0.356 56.1509,-0.297 62.0858,-0.157 -5.5333,1.113 -55.7791,3.053 -61.9608,3.907 l -0.2187,0 -1.6875,-0.09 -2.4375,159.594 4.0937,0.187 71.4219,-9.943 c -10.5482,3.555 -59.7214,11.477 -71.0156,13.662 -0.1352,0.03 -0.2689,0.04 -0.4063,0.03 l -4.1562,-0.218 -1.3125,86.281 89.8437,-21.907 10.0721,-321.467 z"
             style="color:#000000;fill:#e9c254;fill-opacity:1;fill-rule:nonzero;stroke:none;stroke-width:12;marker:none;visibility:visible;display:inline;overflow:visible;enable-background:accumulate" />
          <path
             sodipodi:nodetypes="cccccccc"
             inkscape:connector-curvature="0"
             id="path12460"
             transform="matrix(0.32749755,0,0,0.32749755,771.59923,-896.90315)"
             d="m -7011.3125,13047.594 -0.25,23.697 82.9375,0 c 0,0 -8.183,284.924 -11.8125,287.647 -2.0898,1.567 -27.529,14.498 -49.3437,25.5 l 63.0624,-15.376 10.0626,-321.468 z"
             style="opacity:0.69026549;color:#000000;fill:#d4a72f;fill-opacity:1;fill-rule:nonzero;stroke:none;stroke-width:12;marker:none;visibility:visible;display:inline;overflow:visible;enable-background:accumulate" />
          <path
             inkscape:connector-curvature="0"
             style="color:#000000;fill:#fddd82;fill-opacity:1;fill-rule:nonzero;stroke:#a0892c;stroke-width:12;stroke-linejoin:round;stroke-miterlimit:4;stroke-opacity:1;stroke-dasharray:none;marker:none;visibility:visible;display:inline;overflow:visible;enable-background:accumulate"
             d="m -7851.3125,13037.688 -0.9063,89.25 3.5,3.281 c 0,0 1.0887,0.746 2.2813,1.593 l 38.0313,1.782 c 1.7197,-26.27 3.881,-55.253 5.875,-95.906 l -48.7813,0 z m 6.3437,98.187 c -2.0773,1.819 -5.3643,5.325 -7.4374,7.656 l -1.6563,162.125 44.5313,2.094 c -1.3669,-29.611 -2.041,-59.371 -2.0626,-87.656 -0.024,-31.079 1.1907,-55.383 2.9376,-82.5 l -36.3126,-1.719 z m -9.125,173.781 -0.9374,90.563 52.5,2.219 c -3.0582,-28.785 -5.3126,-59.617 -6.8126,-90.688 l -44.75,-2.094 z"
             transform="matrix(0.30728797,0,0,0.30728797,873.93796,-630.17631)"
             id="path12076" />
          <path
             style="color:#000000;fill:#fddd82;fill-opacity:1;fill-rule:nonzero;stroke:none;stroke-width:12;marker:none;visibility:visible;display:inline;overflow:visible;enable-background:accumulate"
             d="m -7851.3125,13037.688 -0.9063,89.25 3.5,3.281 c 0,0 1.0887,0.746 2.2813,1.593 l 41.125,1.938 0.2187,0 2.5626,-0.156 0,-95.906 z m 6.3437,98.187 c -2.0773,1.819 -5.3643,5.325 -7.4374,7.656 l -1.6563,162.125 48.8437,2.282 2.6876,-0.438 1.361,-67.429 -3.0352,-24.487 1.1027,-16.813 0.5715,-61.177 -2.4376,0.156 c -0.073,0 -0.1459,0 -0.2187,0 z m -9.125,173.781 -0.9374,90.563 52.5,2.219 0,-90.907 -2.2813,0.375 c -0.1441,0.03 -0.2911,0.04 -0.4375,0.03 z"
             transform="matrix(0.30728797,0,0,0.30728797,873.93796,-630.17631)"
             id="path63649"
             inkscape:connector-curvature="0"
             sodipodi:nodetypes="cccccccccccccccccccccccccccc" />
          <path
             inkscape:connector-curvature="0"
             style="color:#000000;fill:#feecb8;fill-opacity:1;fill-rule:nonzero;stroke:none;stroke-width:12;marker:none;visibility:visible;display:inline;overflow:visible;enable-background:accumulate"
             d="m -7844.9688,13135.875 c -2.0772,1.819 -5.3644,5.325 -7.4374,7.656 l -0.9376,90.625 c 2.6405,-25.231 5.5992,-83.615 6.4688,-87.094 0.9074,-3.629 5.4353,-8.157 7.25,-7.25 1.8147,0.909 31.765,0.905 32.2188,2.719 0.4537,1.815 3.64,61.232 4.0937,50.344 0.1134,-2.722 0.2261,-7.236 0.375,-12.531 0.01,-0.208 0.025,-0.447 0.031,-0.656 l 0.375,-42.094 -2.4376,0.156 -0.2187,0 -39.7813,-1.875 z"
             transform="matrix(0.30728797,0,0,0.30728797,873.93796,-630.17631)"
             id="path12136" />
          <path
             sodipodi:nodetypes="cccccccccccccccccccccccccccc"
             inkscape:connector-curvature="0"
             id="path12482"
             transform="matrix(0.30728797,0,0,0.30728797,873.93796,-630.17631)"
             d="m -7851.3125,13037.688 -0.9063,89.25 3.5,3.281 c 0,0 1.0887,0.746 2.2813,1.593 l 41.125,1.938 0.2187,0 2.5626,-0.156 0,-95.906 z m 6.3437,98.187 c -2.0773,1.819 -5.3643,5.325 -7.4374,7.656 l -1.6563,162.125 48.8437,2.282 2.6876,-0.438 1.361,-67.429 -3.0352,-24.487 1.1027,-16.813 0.5715,-61.177 -2.4376,0.156 c -0.073,0 -0.1459,0 -0.2187,0 z m -9.125,173.781 -0.9374,90.563 52.5,2.219 0,-90.907 -2.2813,0.375 c -0.1441,0.03 -0.2911,0.04 -0.4375,0.03 z"
             style="color:#000000;fill:#fddd82;fill-opacity:1;fill-rule:nonzero;stroke:none;stroke-width:12;marker:none;visibility:visible;display:inline;overflow:visible;enable-background:accumulate" />
          <path
             sodipodi:nodetypes="cccccccccccccc"
             inkscape:connector-curvature="0"
             id="path12485"
             transform="matrix(0.32749755,0,0,0.32749755,1132.945,-931.37364)"
             d="m -8024.5312,13276.475 -90.9376,-0.1 -43.75,0 -0.062,7.25 42.9062,0 91.625,-4.5 z m -0.6563,16.338 -90.2813,4.437 -43.9687,0 -0.062,7.25 43.125,0 90.9688,-7.19 z"
             style="opacity:0.60619465;color:#000000;fill:#00afe1;fill-opacity:1;fill-rule:nonzero;stroke:none;stroke-width:12;marker:none;visibility:visible;display:inline;overflow:visible;enable-background:accumulate" />
          <path
             sodipodi:nodetypes="cccccccccc"
             inkscape:connector-curvature="0"
             id="path12494"
             transform="matrix(0.32749755,0,0,0.32749755,1132.945,-931.37364)"
             d="m -8113.0938,13276.375 c -4e-4,2.878 0.3491,5.052 0.7188,7.063 l 87.625,-4.313 0.2188,-2.656 z m 87.9063,16.438 -86.625,4.25 c 0.1892,2.261 0.5308,4.65 0.9063,7 l 85.5,-6.75 z"
             style="opacity:0.60619465;color:#000000;fill:#0092bb;fill-opacity:1;fill-rule:nonzero;stroke:none;stroke-width:12;marker:none;visibility:visible;display:inline;overflow:visible;enable-background:accumulate" />
        </g>
      </g>
      <g
         id="g12507">
        <path
           style="color:#000000;fill:#d4a72f;fill-opacity:1;fill-rule:nonzero;stroke:#a0892c;stroke-width:3.17500019;stroke-linecap:round;stroke-linejoin:round;stroke-miterlimit:4;stroke-opacity:1;stroke-dasharray:none;stroke-dashoffset:0;marker:none;visibility:visible;display:inline;overflow:visible;enable-background:accumulate"
           d="m -2232.9275,3499.9922 93.3347,0 20.098,-0.094 -0.3827,-3.641 -19.648,-0.6736 -93.5803,0.6736 z"
           id="path12465"
           inkscape:connector-curvature="0"
           sodipodi:nodetypes="ccccccc" />
        <path
           sodipodi:nodetypes="ccccccc"
           inkscape:connector-curvature="0"
           id="path12469"
           d="m -2232.9275,3499.9922 93.3347,0 20.098,-0.094 -0.3827,-3.641 -19.648,-0.6736 -93.5803,0.6736 z"
           style="color:#000000;fill:#fddd82;fill-opacity:1;fill-rule:nonzero;stroke:none;stroke-width:12;marker:none;visibility:visible;display:inline;overflow:visible;enable-background:accumulate" />
        <path
           style="color:#000000;fill:#daaf3a;fill-opacity:1;fill-rule:nonzero;stroke:none;stroke-width:12;marker:none;visibility:visible;display:inline;overflow:visible;enable-background:accumulate"
           d="m -2139.5255,3495.584 c -0.2927,1.7901 0.5243,1.5774 -0.067,4.4085 l 0,0 20.0956,-0.091 -0.3814,-3.6425 z"
           id="path12471"
           inkscape:connector-curvature="0"
           sodipodi:nodetypes="cccccc" />
        <path
           style="color:#000000;fill:#f8efd8;fill-opacity:1;fill-rule:nonzero;stroke:none;stroke-width:12;marker:none;visibility:visible;display:inline;overflow:visible;enable-background:accumulate"
           d="m -8086.4062,13141.5 -353.6876,2.531 0.6876,14.125 0.9062,0 c 0.8209,-4.925 1.8438,-11.094 1.8438,-11.094 l 347.9687,-1.343 c 0,0 4.5324,8.159 3.625,5.437 -0.4612,-1.383 0.2656,-5.591 0.7187,-9.562 l -2.0624,-0.09 z"
           transform="matrix(0.26458334,0,0,0.26458334,-6.3049604e-6,18.562493)"
           id="path12502"
           inkscape:connector-curvature="0" />
      </g>
      <g
         transform="translate(0,-14.351144)"
         id="g12513">
        <path
           sodipodi:nodetypes="ccccccc"
           inkscape:connector-curvature="0"
           id="path12515"
           d="m -2232.9275,3499.9922 93.3347,0 20.098,0.4153 0.2963,-3.8108 -20.327,-1.0131 -93.5803,0.6736 z"
           style="color:#000000;fill:#d4a72f;fill-opacity:1;fill-rule:nonzero;stroke:#a0892c;stroke-width:3.17500019;stroke-linecap:round;stroke-linejoin:round;stroke-miterlimit:4;stroke-opacity:1;stroke-dasharray:none;stroke-dashoffset:0;marker:none;visibility:visible;display:inline;overflow:visible;enable-background:accumulate" />
        <path
           style="color:#000000;fill:#fddd82;fill-opacity:1;fill-rule:nonzero;stroke:none;stroke-width:12;marker:none;visibility:visible;display:inline;overflow:visible;enable-background:accumulate"
           d="m -2232.9275,3499.9922 93.3347,0 20.098,-0.094 0.2963,-3.3015 -20.327,-1.0131 -93.5803,0.6736 z"
           id="path12517"
           inkscape:connector-curvature="0"
           sodipodi:nodetypes="ccccccc" />
        <path
           sodipodi:nodetypes="cccccc"
           inkscape:connector-curvature="0"
           id="path12519"
           d="m -2139.5255,3495.584 c -0.2927,1.7901 0.5243,1.5774 -0.067,4.4085 l 0,0 20.0956,0.4183 0.2976,-3.8123 z"
           style="color:#000000;fill:#daaf3a;fill-opacity:1;fill-rule:nonzero;stroke:none;stroke-width:12;marker:none;visibility:visible;display:inline;overflow:visible;enable-background:accumulate" />
        <path
           inkscape:connector-curvature="0"
           id="path12521"
           transform="matrix(0.26458334,0,0,0.26458334,-6.3049604e-6,18.562493)"
           d="m -8086.4062,13141.5 -353.6876,2.531 0.6876,14.125 0.9062,0 c 0.8209,-4.925 1.8438,-11.094 1.8438,-11.094 l 347.9687,-1.343 c 0,0 4.5324,8.159 3.625,5.437 -0.4612,-1.383 0.2656,-5.591 0.7187,-9.562 l -2.0624,-0.09 z"
           style="color:#000000;fill:#f8efd8;fill-opacity:1;fill-rule:nonzero;stroke:none;stroke-width:12;marker:none;visibility:visible;display:inline;overflow:visible;enable-background:accumulate" />
      </g>
    </g>
  </g>
</svg>
