<?xml version="1.0" encoding="UTF-8" standalone="no"?>
<!-- Created with Inkscape (http://www.inkscape.org/) -->

<svg
   xmlns:dc="http://purl.org/dc/elements/1.1/"
   xmlns:cc="http://creativecommons.org/ns#"
   xmlns:rdf="http://www.w3.org/1999/02/22-rdf-syntax-ns#"
   xmlns:svg="http://www.w3.org/2000/svg"
   xmlns="http://www.w3.org/2000/svg"
   xmlns:sodipodi="http://sodipodi.sourceforge.net/DTD/sodipodi-0.dtd"
   xmlns:inkscape="http://www.inkscape.org/namespaces/inkscape"
   width="1208.7426"
   height="422.64334"
   viewBox="0 0 319.81312 111.82439"
   version="1.1"
   id="svg23489"
   inkscape:version="0.48.5 r10040"
   sodipodi:docname="New document 10">
  <defs
     id="defs23483" />
  <sodipodi:namedview
     id="base"
     pagecolor="#7d848b"
     bordercolor="#666666"
     borderopacity="1.0"
     inkscape:pageopacity="0"
     inkscape:pageshadow="2"
     inkscape:zoom="0.60270762"
     inkscape:cx="661.12384"
     inkscape:cy="181.93428"
     inkscape:document-units="px"
     inkscape:current-layer="layer1"
     showgrid="false"
     inkscape:pagecheckerboard="false"
     showborder="true"
     units="px"
     inkscape:window-width="1920"
     inkscape:window-height="1017"
     inkscape:window-x="-8"
     inkscape:window-y="-8"
     inkscape:window-maximized="1"
     inkscape:showpageshadow="false"
     guidetolerance="28"
     fit-margin-top="25"
     fit-margin-left="25"
     fit-margin-bottom="25"
     fit-margin-right="25">
    <inkscape:grid
       type="xygrid"
       id="grid24034"
       spacingx="1px"
       spacingy="1px"
       empspacing="8"
       visible="true"
       enabled="true"
       snapvisiblegridlinesonly="true"
       originx="387.43361px"
       originy="-277.30656px" />
  </sodipodi:namedview>
  <metadata
     id="metadata23486">
    <rdf:RDF>
      <cc:Work
         rdf:about="">
        <dc:format>image/svg+xml</dc:format>
        <dc:type
           rdf:resource="http://purl.org/dc/dcmitype/StillImage" />
        <dc:title></dc:title>
        <cc:license
           rdf:resource="" />
        <dc:creator>
          <cc:Agent>
            <dc:title>Robert Brooks</dc:title>
          </cc:Agent>
        </dc:creator>
      </cc:Work>
    </rdf:RDF>
  </metadata>
  <g
     inkscape:label="Layer 1"
     inkscape:groupmode="layer"
     id="layer1"
     transform="translate(102.50848,-111.80491)">
    <g
       transform="matrix(1.0529516,0.02185505,-0.01976256,0.95213757,656.1806,-3019.8868)"
       id="g19686">
      <path
         sodipodi:nodetypes="ccccc"
         inkscape:connector-curvature="0"
         id="path19688"
         d="m -648.36005,3392.1314 0.0612,4.5504 99.39026,7.7343 0,-1.3962 z"
         style="color:#000000;fill:#eec85d;fill-opacity:1;fill-rule:nonzero;stroke:#8a7626;stroke-width:3.17500019;stroke-linejoin:round;stroke-opacity:1;marker:none;visibility:visible;display:inline;overflow:visible;enable-background:accumulate" />
      <path
         inkscape:connector-curvature="0"
         id="path19690"
         d="m -549.43124,3402.1071 c -0.0993,0.5569 -2.12601,-3.0838 0.0103,2.3756 12.39316,-0.8479 127.40787,-13.2184 140.56732,-15.5991 0,0 0.84878,-2.2556 0,-2.2556 -0.84878,0 -22.28996,4.3452 -22.62947,4.5151 -0.33951,0.1696 -117.9482,10.964 -117.9482,10.964 z"
         style="color:#000000;fill:#d3aa37;fill-opacity:1;fill-rule:nonzero;stroke:#8a7626;stroke-width:3.17500019;stroke-linejoin:round;stroke-opacity:1;marker:none;visibility:visible;display:inline;overflow:visible;enable-background:accumulate"
         sodipodi:nodetypes="cccsccc" />
      <g
         id="g19692">
        <path
           sodipodi:nodetypes="ccccsc"
           inkscape:connector-curvature="0"
           id="path19694"
           d="m -516.41167,3380.6992 c -5.09273,1.8672 -132.62741,10.8945 -131.94838,11.2342 0.67903,0.3395 98.43811,12.47 99.79617,11.7908 1.35808,-0.6789 138.77664,-17.2661 138.77664,-17.2661 0,0 -93.55312,-6.9471 -94.23214,-6.9471 -0.67903,0 -12.39229,1.1882 -12.39229,1.1882 z"
           style="color:#000000;fill:#ffe581;fill-opacity:1;fill-rule:nonzero;stroke:#8a7626;stroke-width:3.17500019;stroke-linecap:round;stroke-linejoin:round;stroke-miterlimit:4;stroke-opacity:1;stroke-dasharray:none;stroke-dashoffset:0;marker:none;visibility:visible;display:inline;overflow:visible;enable-background:accumulate" />
        <path
           style="color:#000000;fill:#ffe581;fill-opacity:1;fill-rule:nonzero;stroke:none;stroke-width:12;marker:none;visibility:visible;display:inline;overflow:visible;enable-background:accumulate"
           d="m -515.26899,3380.8894 c -5.09273,1.8672 -133.77009,10.7043 -133.09106,11.044 0.67903,0.3395 98.43811,12.5459 99.79617,11.8667 1.35808,-0.6789 138.77664,-17.342 138.77664,-17.342 0,0 -93.55312,-6.9471 -94.23214,-6.9471 -0.67903,0 -11.24961,1.3784 -11.24961,1.3784 z"
           id="path19696"
           inkscape:connector-curvature="0"
           sodipodi:nodetypes="ccccsc" />
      </g>
      <path
         style="color:#000000;fill:#eec85d;fill-opacity:1;fill-rule:nonzero;stroke:none;stroke-width:12;marker:none;visibility:visible;display:inline;overflow:visible;enable-background:accumulate"
         d="m -648.36005,3391.7636 c 0,0.3394 0.0612,5.1217 0.0612,5.1217 0,0 94.05085,13.3756 99.79545,13.269 l -0.18776,-5.9319 -25.88231,-2.9239 -32.57016,-5.3522 z"
         id="path19698"
         inkscape:connector-curvature="0"
         sodipodi:nodetypes="ccccccc" />
      <path
         style="color:#000000;fill:#eebc50;fill-opacity:1;fill-rule:nonzero;stroke:none;stroke-width:12;marker:none;visibility:visible;display:inline;overflow:visible;enable-background:accumulate"
         d="m -548.6912,3404.2224 0,0 0.18776,5.9319 119.28816,-13.7413 20.42287,-4.4088 c 0,0 0.78762,-5.3762 -0.0612,-5.3762 -0.84879,0 -21.43295,3.5835 -21.77246,3.7534 -0.33951,0.1696 -118.06517,13.841 -118.06517,13.841 z"
         id="path19700"
         inkscape:connector-curvature="0"
         sodipodi:nodetypes="cccccscc" />
    </g>
    <g
       id="g19636"
       transform="matrix(0.88864286,0,0,0.95710618,213.78146,-3432.2196)">
      <path
         style="color:#000000;fill:#b08e2b;fill-opacity:1;fill-rule:nonzero;stroke:#746423;stroke-width:12;stroke-linecap:round;stroke-linejoin:round;stroke-miterlimit:4;stroke-opacity:1;stroke-dasharray:none;stroke-dashoffset:0;marker:none;visibility:visible;display:inline;overflow:visible;enable-background:accumulate"
         d="m 108.65625,534.1875 c 0.009,-0.005 -12.78125,7 -12.78125,7 l 6.75,85.0625 -2.65625,48.84375 1.65625,89.59375 317.3125,31.0083 271.2886,-21.12526 68.19086,4.13519 135.77054,-10.61491 c 0,-27.36554 0,-59.33677 0,-79.71582 l -10.46875,-5.75 c 0,0 5.4376,-2.99648 10.46875,-5.96875 l 0,-136.625 c 0,-0.0362 0.004,-0.0312 0,-0.0312 L 420.375,536.65625 99.375,540 z"
         transform="matrix(0.29773867,0,0,0.27644095,-355.92472,3576.4912)"
         id="path19638"
         inkscape:connector-curvature="0"
         sodipodi:nodetypes="ccccccccccccscccc" />
      <g
         transform="translate(0,34.809842)"
         id="g19640">
        <path
           inkscape:connector-curvature="0"
           style="color:#000000;fill:#eac767;fill-opacity:1;fill-rule:nonzero;stroke:none;stroke-width:10;marker:none;visibility:visible;display:inline;overflow:visible;enable-background:accumulate"
           d="m 420.375,527.28125 -321,3.34375 c -0.0089,0 -0.03125,0.0312 -0.03125,0.0312 l 1.375,97.875 -2.5,38.34375 3.40625,97.8125 317.3125,40.96875 475.25,-35.90625 0,-81.375 -10.46875,-5.75 c 0,0 5.4376,-2.99648 10.46875,-5.96875 l 0,-146 c 0,-0.0191 0.004,-0.0312 0,-0.0312 L 420.375,527.28125 z"
           transform="matrix(0.29773867,0,0,0.27644095,-355.92472,3541.6814)"
           id="path19642" />
        <path
           inkscape:connector-curvature="0"
           style="opacity:0.44690265;color:#000000;fill:#9d8633;fill-opacity:1;fill-rule:nonzero;stroke:none;stroke-width:10;marker:none;visibility:visible;display:inline;overflow:visible;enable-background:accumulate"
           d="m 420.40625,537.34375 -1,8.875 c 0.4931,2.64736 -3.43144,2.69315 -3.71875,42.84375 -0.0755,10.54922 4.42642,50.92242 4.1875,62.71875 -0.25592,12.63572 -3.92619,30.25608 -4,43.09375 -0.13988,24.3306 2.73264,40.63023 3.40625,60.34375 0.83905,24.55552 -0.46385,49.91971 -0.34375,50.4375 L 894.21875,769.75 l 0,-81.375 -10.5,-5.75 c 0,0 5.46245,-2.99193 10.5,-5.96875 l 0,-136.625 c 0,-0.0191 -0.0277,-0.0312 -0.0312,-0.0312 L 420.4063,537.3438 z"
           transform="matrix(0.29773867,0,0,0.27644095,-355.92472,3541.6814)"
           id="path19644" />
        <path
           style="color:#000000;fill:#fee594;fill-opacity:1;fill-rule:nonzero;stroke:none;stroke-width:10;marker:none;visibility:visible;display:inline;overflow:visible;enable-background:accumulate"
           d="m -872.15625,13876.438 -361.24995,3.5 c -0.01,0 -0.031,0.03 -0.031,0.03 l -8.125,24.437 c 0,0 1.3568,1.539 2.25,2.563 l 5.875,-17.719 c 0,0 0.021,-0.03 0.031,-0.03 l 362.41283,-6.958 531.99337,6.958 c 0.004,0 0.0312,0.01 0.0312,0.03 l 0,-9.281 c 0,-0.02 -0.0272,-0.03 -0.0312,-0.03 z"
           transform="matrix(0.26458334,0,0,0.26458334,-6.3049604e-6,18.562493)"
           id="path19646"
           inkscape:connector-curvature="0"
           sodipodi:nodetypes="ccccccccccscc" />
        <path
           inkscape:connector-curvature="0"
           style="opacity:0.42035397;color:#000000;fill:#9d8633;fill-opacity:1;fill-rule:nonzero;stroke:none;stroke-width:10;marker:none;visibility:visible;display:inline;overflow:visible;enable-background:accumulate"
           d="m 420.375,536.6875 -321.03125,3.34375 0.75,53.625 c 75.1952,5.454 313.875,11.65625 313.875,11.65625 0,0 4.65625,13.9635 4.65625,9.3125 0,-4.653 -3.49527,-8.15625 1.15625,-8.15625 4.65152,0 443.0625,-6.9375 443.0625,-6.9375 l 0,172.625 31.34375,-2.375 0,-81.40625 -10.46875,-5.75 c 0,0 5.4376,-2.99648 10.46875,-5.96875 l 0,-136.625 -473.8125,-3.34375 z"
           transform="matrix(0.29773867,0,0,0.27644095,-355.92472,3541.6814)"
           id="path20022" />
        <path
           inkscape:connector-curvature="0"
           id="path21833"
           transform="matrix(0.29773867,0,0,0.27644095,-355.92471,3541.6814)"
           d="m 894.1875,695.375 c -5.71677,16.20756 -14.43206,33.76831 -26,36.8125 -22.29112,5.86609 -380.12673,46.93482 -405.9375,49.28125 -25.81077,2.34644 -42.23303,-31.69104 -43.40625,-42.25 -1.17321,-10.55895 4.67858,43.43482 -1.1875,45.78125 -5.86609,2.34644 -300.3357,-25.82142 -307.375,-31.6875 -4.56468,-3.8039 -8.12,-25.90346 -11.03125,-50.21875 l 2.375,61.59375 317.3125,40.96875 475.25,-35.90625 0,-74.375 z"
           style="opacity:0.33628319;color:#000000;fill:#9d8633;fill-opacity:1;fill-rule:nonzero;stroke:none;stroke-width:10;marker:none;visibility:visible;display:inline;overflow:visible;enable-background:accumulate" />
        <path
           inkscape:connector-curvature="0"
           style="opacity:0.80088495;color:#000000;fill:#00ceff;fill-opacity:1;fill-rule:nonzero;stroke:none;stroke-width:10;marker:none;visibility:visible;display:inline;overflow:visible;enable-background:accumulate"
           d="m 824.625,621.5625 -404.84375,8.3125 -1.125,0 c 0.46999,5.87637 0.85757,11.31438 1.0625,15.65625 l 79.6875,-4.875 394.78125,-10.75 0,-8.15625 -69.5625,-0.1875 z m 0,19.0625 -404.84375,14.15625 -0.0312,0 c -0.33479,6.05331 -1.25841,12.95903 -2.125,19.84375 l 0.5,0.0312 81.28125,-4.96875 394.78125,-20.71875 0.0312,-0.15625 0,-8 -69.59375,-0.1875 z"
           transform="matrix(0.29773867,0,0,0.27644095,-355.92472,3541.6814)"
           id="path21892" />
        <path
           id="path22989"
           d="m -207.7253,3701.1894 0.24192,31.7648 c -14.04478,0.2667 -24.8777,0.5071 -25.18683,0.5788 -0.53692,0.1247 -27.39513,-2.1221 -52.3741,-4.0515 l -0.73504,-25.9941 c -0.45403,4.2155 -0.49016,22.7991 -0.49313,25.899 -18.80068,-1.4479 -36.22711,-2.6922 -40.21333,-2.5743 l -0.12096,1.7277 15.85459,1.0453 c -0.44493,3.1705 -0.86148,21.1284 -0.93043,24.4752 l 1.20956,0.1469 c 0.18473,-5.5725 0.95973,-24.098 0.97695,-24.5443 l 47.16367,3.1099 c -0.19497,4.107 -6.2e-4,23.0428 0.0372,26.9757 l 1.46078,0.1814 -0.16748,-27.0707 27.58735,1.8142 c 0,0 27.45204,-0.6289 54.01165,-1.2959 l -1.15373,0.1555 c 0.247,3.2107 0,27.059 0,27.059 l 0.093,0.017 1.15374,-0.078 0.48382,-27.1712 c 23.81727,-0.5989 46.68486,-1.9477 48.08121,-2.1638 1.99868,-0.3093 -44.13681,1.1509 -75.02656,1.7318 l -1.20956,-31.0477 -0.74435,-0.6912 z"
           style="color:#000000;fill:#ffe581;fill-opacity:1;fill-rule:nonzero;stroke:none;stroke-width:10;marker:none;visibility:visible;display:inline;overflow:visible;enable-background:accumulate"
           inkscape:connector-curvature="0"
           sodipodi:nodetypes="cccccccccccccccccccccccscccc" />
        <g
           id="g23120"
           class="color"
           name="stripes">
          <path
             sodipodi:nodetypes="ccccccccssccsssc"
             inkscape:connector-curvature="0"
             id="path23105"
             transform="matrix(0.29773867,0,0,0.27644095,-355.92472,3541.6814)"
             d="m 100.5,612.375 0.15625,10.78125 92.59375,4.25 226.42142,17.625 -0.45267,-14.90625 C 411.16158,629.31928 117.84548,613.32137 100.5,612.375 z m -0.15625,21.84375 -0.9375,14.46875 c 12.2893,0.585 30.90159,1.42015 52.40625,3.125 11.16855,0.88542 25.77418,4.76953 38.5,5.78125 98.53374,7.83351 228.79687,16.35937 228.79687,16.35937 L 421,653.34375 c -7.43712,1.39446 -110.55349,-3.63802 -202,-9.78125 -10.03558,-0.67417 -23.66252,-3.45054 -33.25,-4.15625 -12.98019,-0.95543 -30.19963,-0.98175 -41.40625,-1.75 -18.96129,-1.29986 -33.66093,-2.52498 -44,-3.4375 z"
             style="opacity:0.88938054;color:#000000;fill:#37dde8;fill-opacity:1;fill-rule:nonzero;stroke:none;stroke-width:10;marker:none;visibility:visible;display:inline;overflow:visible;enable-background:accumulate" />
          <path
             sodipodi:nodetypes="cccccccccccccccccc"
             inkscape:connector-curvature="0"
             id="path23001"
             transform="matrix(0.29773867,0,0,0.27644095,-355.92472,3541.6814)"
             d="m 824.625,621.5625 -405.40625,8.3125 0,0 c 0.46999,5.87637 0.24774,11.31438 0.45267,15.65625 l 79.73483,-4.875 394.78125,-10.75 0,-8.15625 z m 0,19.0625 -403.625,14.15625 0,0 c -0.33479,6.05331 -1.02404,12.28715 -1.89063,19.17187 l 0,0 80.29688,-4.26562 394.78125,-20.71875 0.0312,-0.15625 0,-8 z"
             style="color:#000000;fill:#17a2a1;fill-opacity:1;fill-rule:nonzero;stroke:none;stroke-width:10;marker:none;visibility:visible;display:inline;overflow:visible;enable-background:accumulate" />
        </g>
        <path
           inkscape:connector-curvature="0"
           style="color:#000000;fill:#9d8633;fill-opacity:1;fill-rule:nonzero;stroke:none;stroke-width:10;marker:none;visibility:visible;display:inline;overflow:visible;enable-background:accumulate"
           d="m 497.75,573.6875 0.8125,114.90625 c -41.20189,0.84251 -74.15398,1.61438 -82.53125,1.96875 -0.0787,1.41284 -0.14518,2.80154 -0.15625,4.125 6.59506,-0.20559 85.96178,-2.68496 171.5625,-5 l 1.5625,1 c 0.82959,11.61426 0,102.03125 0,102.03125 l 0.3125,0.0625 1.21875,-0.0937 2.65625,-0.1875 1.625,-102.4375 c 79.99387,-2.16622 157.09141,-4.40586 161.78125,-5.1875 6.71289,-1.11882 -148.5334,1.52366 -252.28125,3.625 l -4.0625,-112.3125 -2.5,-2.5 z m 388.8125,107.375 -95.96875,2.5625 97.03125,1.15625 -3.90625,-2.15625 c 0,0 1.35154,-0.72903 2.84375,-1.5625 z"
           transform="matrix(0.29773867,0,0,0.27644095,-355.92472,3541.6814)"
           id="path22979" />
        <path
           inkscape:connector-curvature="0"
           style="color:#000000;fill:#9d8633;fill-opacity:1;fill-rule:nonzero;stroke:none;stroke-width:10;marker:none;visibility:visible;display:inline;overflow:visible;enable-background:accumulate"
           d="m 234.0625,584.375 c -0.49449,2.44494 0.46659,89.90043 0.5,92.84375 L 98.21875,666.875 l 0.1875,5.1875 48.78125,3.46875 c -0.37871,8.10959 0.5637,92.40218 0.59375,95.125 l 2.96875,0.375 0,-95.25 160.15625,11.40625 c -0.48059,3.67844 0.53125,103 0.53125,103 l 3,1.25 0,-104 101.46875,7.21875 2.34375,-3.53125 -180.6875,-13.6875 0,-93.0625 -3.5,0 z"
           transform="matrix(0.29773867,0,0,0.27644095,-355.92472,3541.6814)"
           id="path23117" />
      </g>
    </g>
    <g
       id="g22663"
       transform="matrix(0.99942493,0.03390849,-0.03390849,0.99942493,25.024801,-62.585146)">
      <path
         transform="matrix(0.26458334,0,0,0.26458334,-120.26525,52.53163)"
         inkscape:connector-curvature="0"
         id="path22659"
         d="m 591.88794,581.43619 c 22.29112,4.10626 183.02184,-4.69287 183.02184,-4.69287 0,0 0.58661,-17.59826 -11.14556,-15.83843 -11.73217,1.75983 -134.91995,-10.55895 -147.23872,-2.93304 -12.31878,7.62591 -24.63756,23.46434 -24.63756,23.46434 z"
         style="color:#000000;fill:#746423;fill-opacity:1;fill-rule:nonzero;stroke:#746423;stroke-width:0;stroke-linecap:round;stroke-linejoin:round;stroke-miterlimit:4;stroke-opacity:1;stroke-dasharray:none;stroke-dashoffset:0;marker:none;visibility:visible;display:inline;overflow:visible;enable-background:accumulate" />
      <path
         style="color:#000000;fill:#b69537;fill-opacity:1;fill-rule:nonzero;stroke:#746423;stroke-width:0;stroke-linecap:round;stroke-linejoin:round;stroke-miterlimit:4;stroke-opacity:1;stroke-dasharray:none;stroke-dashoffset:0;marker:none;visibility:visible;display:inline;overflow:visible;enable-background:accumulate"
         d="m 36.338438,205.1283 c 5.897859,1.08645 48.42453,-1.24165 48.42453,-1.24165 0,0 0.155207,-4.65621 -2.94893,-4.19059 -3.104136,0.46563 -35.697571,-2.79372 -38.956912,-0.77603 -3.259344,2.01769 -6.518688,6.20827 -6.518688,6.20827 z"
         id="path22661"
         inkscape:connector-curvature="0" />
    </g>
    <g
       transform="matrix(0.93563416,0,0,1.0077178,223.57472,-3629.7078)"
       id="g19184">
      <path
         sodipodi:nodetypes="ccccssssscssccsscc"
         inkscape:connector-curvature="0"
         id="path19186"
         transform="matrix(0.28278504,0,0,0.26255698,-348.51573,3592.8411)"
         d="m 416.40625,502.78125 -338,3.5 c -0.01061,0 0,0.0312 0,0.0312 l 2.081696,55.13614 c 0,0 8.047303,7.76166 11.626615,8.00543 20.691579,1.40922 75.180339,6.28757 169.225799,9.4742 4.51146,0.15287 20.57492,-2.6699 35.64877,-2.19802 13.48704,0.4222 26.09912,4.14377 30.27687,4.2655 34.28263,0.99899 50.70827,0.4856 87.609,0.723 56.84394,0.3657 115.22217,0.1171 171.1875,-0.46875 29.02482,-2.61491 68.97773,-15.87859 71.8125,-15.87859 4.14795,0 17.32978,8.68759 23.98572,2.01696 4.69967,-4.71005 89.67053,10.45538 89.67053,10.45538 0,0 -0.0565,0.25698 -0.0625,0.28125 85.68413,-1.96258 143.8125,-3.98218 143.8125,-4 l 0,-67.8125 c 0,-0.0381 0.004,-0.0312 0,-0.0312 z"
         style="color:#000000;fill:#b08e2b;fill-opacity:1;fill-rule:nonzero;stroke:#746423;stroke-width:12;stroke-linecap:round;stroke-linejoin:round;stroke-miterlimit:4;stroke-opacity:1;stroke-dasharray:none;stroke-dashoffset:0;marker:none;visibility:visible;display:inline;overflow:visible;enable-background:accumulate" />
      <g
         id="g19188"
         transform="translate(0,34.809842)">
        <path
           sodipodi:nodetypes="cccccsssscssccsscc"
           inkscape:connector-curvature="0"
           id="path19190"
           transform="matrix(0.28278504,0,0,0.26255698,-348.51573,3558.0312)"
           d="m 416.40625,502.78125 -338,3.5 c -0.0094,0 0,0.0312 0,0.0312 l 2.375,55.72275 c 4.985782,2.05438 6.463455,6.15577 10.952136,7.52594 23.842304,1.63973 84.649644,5.53717 162.958344,8.49804 13.60229,0.51431 28.14742,-3.14759 42.7038,-2.70654 10.17395,0.30826 20.14123,4.74249 30.69661,5.00108 27.92939,0.68421 57.07208,1.1745 86.78286,1.36498 56.49172,0.36218 115.05206,0.10409 171.375,-0.5 29.00999,-2.61214 67.91652,-12.32769 70.74509,-12.32769 4.14795,0 20.78884,8.54083 23.69241,7.29644 2.90356,-1.24438 90.84375,1.65625 90.84375,1.65625 0,0 -0.0588,0.2035 -0.0625,0.21875 85.44244,-1.95282 143.8125,-3.93281 143.8125,-3.9375 l 0,-67.8125 c 0,-0.0202 0.004,-0.0312 0,-0.0312 z"
           style="color:#000000;fill:#eac767;fill-opacity:1;fill-rule:nonzero;stroke:none;stroke-width:10;marker:none;visibility:visible;display:inline;overflow:visible;enable-background:accumulate" />
        <path
           inkscape:connector-curvature="0"
           style="color:#000000;fill:#fde39a;fill-opacity:1;fill-rule:nonzero;stroke:none;stroke-width:10;marker:none;visibility:visible;display:inline;overflow:visible;enable-background:accumulate"
           d="m 88.5,506.1875 -10.09375,0.0937 c -0.0094,0 0,0.0312 0,0.0312 l 2.375,55.71875 c 4.985782,2.05438 6.448819,6.16108 10.9375,7.53125 23.8423,1.63973 84.66005,5.53913 162.96875,8.5 13.60229,0.51431 28.16237,-3.1598 42.71875,-2.71875 10.17395,0.30826 20.13212,4.74141 30.6875,5 27.92939,0.68421 57.07047,1.18452 86.78125,1.375 0.22812,10e-4 0.45931,-10e-4 0.6875,0 -0.52185,-8.43672 -0.97448,-16.88022 -0.78125,-18.8125 0.4148,-4.14795 -4.5625,12.875 -4.5625,12.875 0,0 -60.14185,0.40625 -63.875,0.40625 -3.73316,0 -42.3125,-5.8125 -42.3125,-5.8125 0,0 -25.70727,0.82959 -27.78125,0 -2.07397,-0.82959 -16.58228,3.32104 -18.65625,2.90625 -2.07398,-0.4148 -100.8125,-2.5 -100.8125,-2.5 0,0 -6.625,-14.09082 -6.625,-15.75 0,-1.39352 -17.9847,-12.07688 -24.53125,-16.46875 5.76113,4.67447 19.96875,16.875 19.96875,16.875 l 3.71875,12.46875 c 0,0 -44.77539,-2.5 -48.09375,-2.5 -3.318362,0 -5.818116,0.0115 -7.0625,-2.0625 -1.244385,-2.07397 -4.5625,-6.64477 -4.5625,-8.71875 0,-1.85471 -0.656813,-25.86396 -1.09375,-48.4375 z m 37.125,32.375 c -1.63941,-1.33018 -2.71316,-2.1488 -2.4375,-1.78125 0.19924,0.26566 1.18949,0.944 2.4375,1.78125 z"
           transform="matrix(0.28278504,0,0,0.26255698,-348.51573,3558.0313)"
           id="path22986" />
        <path
           sodipodi:nodetypes="ccccsscsscc"
           inkscape:connector-curvature="0"
           id="path19192"
           transform="matrix(0.28278504,0,0,0.26255698,-348.51573,3558.0312)"
           d="m 416.40625,503.46875 -1.03125,9.375 c 1.4235,-3.50484 -1.02189,39.01431 -0.5,68.875 0.32124,1.38417 82.4809,0.4028 179.90625,-1.25 27.70529,-2.44029 59.07532,-11.871 61.62723,-11.871 4.14795,0 21.37545,8.83414 24.27902,7.58975 2.19736,-0.94172 52.77788,0.46555 77.40625,1.21875 87.38293,-1.7476 157.1875,-3.27372 157.1875,-3.28125 l 0,-67.8125 c 0,-0.0202 -0.0275,0 -0.0312,0 z"
           style="opacity:0.50442475;color:#000000;fill:#9d8633;fill-opacity:1;fill-rule:nonzero;stroke:none;stroke-width:10;marker:none;visibility:visible;display:inline;overflow:visible;enable-background:accumulate" />
        <path
           sodipodi:nodetypes="ccccccccccscc"
           inkscape:connector-curvature="0"
           id="path19196"
           transform="matrix(0.26458334,0,0,0.26458334,-6.3049604e-6,18.562493)"
           d="m -872.15625,13876.438 -361.24995,3.5 c -0.01,0 -0.031,0.03 -0.031,0.03 l 0.339,24.437 c 0,0 9.5489,2.563 2.25,2.563 l 2.1132,-19.756 c 0,0 0.021,0.843 0.031,0.843 l 357.71063,-5.794 531.99337,6.958 c 0.004,0 0.0312,0.01 0.0312,0.03 l 0,-9.281 c 0,-0.02 -0.0272,-0.03 -0.0312,-0.03 z"
           style="color:#000000;fill:#fee594;fill-opacity:1;fill-rule:nonzero;stroke:none;stroke-width:10;marker:none;visibility:visible;display:inline;overflow:visible;enable-background:accumulate" />
        <path
           inkscape:connector-curvature="0"
           id="path22642"
           transform="matrix(0.28278504,0,0,0.26255698,-348.51573,3558.0312)"
           d="m 416.40625,502.78125 -338,3.5 c -0.0094,0 0,0.0312 0,0.0312 l 1.28125,33.65625 c 67.89407,0.55899 331.78125,0.5625 331.78125,0.5625 l 475.375,3.3125 -0.96875,31.21875 c 17.26348,-0.52193 29.40625,-0.93559 29.40625,-0.9375 l 0,-67.8125 c 0,-0.0202 0.004,-0.0312 0,-0.0312 l -498.875,-3.5 z"
           style="opacity:0.66371681;color:#000000;fill:#9d8633;fill-opacity:1;fill-rule:nonzero;stroke:none;stroke-width:10;marker:none;visibility:visible;display:inline;overflow:visible;enable-background:accumulate" />
      </g>
    </g>
    <path
       inkscape:connector-curvature="0"
       style="color:#000000;fill:#9d8633;fill-opacity:1;fill-rule:nonzero;stroke:#746423;stroke-width:0;stroke-linecap:round;stroke-linejoin:round;stroke-miterlimit:4;stroke-opacity:1;stroke-dasharray:none;stroke-dashoffset:0;marker:none;visibility:visible;display:inline;overflow:visible;enable-background:accumulate"
       d="m -57.115936,127.22186 c -0.11413,-0.007 -0.234831,0.0281 -0.380338,0.17363 -0.373243,0.37324 -5.098405,8.81869 -5.4653,9.47539 l -11.525912,-7.87962 -0.587044,0.27285 12.071615,8.55762 1.976107,5.05188 1.07487,0.11576 -2.323373,-5.34954 c 0.480828,-1.26538 6.010297,-10.39506 5.705079,-10.31875 -0.194009,0.0485 -0.355484,-0.0871 -0.545704,-0.0992 z"
       id="path22973" />
    <g
       id="g18614"
       transform="matrix(1.0077178,0,0,1.0077178,236.47126,-3633.8414)">
      <path
         sodipodi:nodetypes="scssssccsss"
         inkscape:connector-curvature="0"
         id="path18616"
         d="m -326.34041,3725.7695 95.58169,-0.9231 141.068726,0.9231 c 0.0011,0 0.0019,0 0.0019,0.01 l 0,7.8747 c 0,0.01 -4.92365,1.374 -4.924709,1.374 l -136.145867,0.14 -95.58169,-0.4477 c 0,0 -2.15807,-2.4643 -2.1564,-2.4693 l 2.15376,-6.4717 c 0,0 0,-0.01 0.003,-0.01 z"
         style="color:#000000;fill:#b08e2b;fill-opacity:1;fill-rule:nonzero;stroke:#746423;stroke-width:2.64583349;stroke-linecap:round;stroke-linejoin:round;stroke-miterlimit:4;stroke-opacity:1;stroke-dasharray:none;stroke-dashoffset:0;marker:none;visibility:visible;display:inline;overflow:visible;enable-background:accumulate" />
      <g
         transform="translate(0,34.809842)"
         id="g18618">
        <path
           sodipodi:nodetypes="scssssccsss"
           inkscape:connector-curvature="0"
           id="path18620"
           d="m -1233.4125,13879.926 361.25362,-3.489 533.17311,3.489 c 0.004,0 0.007,0.01 0.007,0.03 l 0,29.763 c 0,0.02 -18.60907,5.193 -18.61307,5.193 l -514.56704,0.529 -361.25362,-1.692 c 0,0 -8.1565,-9.314 -8.1502,-9.333 l 8.1402,-24.46 c 0,0 0,-0.03 0.01,-0.03 z"
           style="color:#000000;fill:#eac767;fill-opacity:1;fill-rule:nonzero;stroke:none;stroke-width:10;marker:none;visibility:visible;display:inline;overflow:visible;enable-background:accumulate"
           transform="matrix(0.26458334,0,0,0.26458334,-6.3049604e-6,18.562493)" />
        <path
           style="opacity:0.44690265;color:#000000;fill:#b69125;fill-opacity:1;fill-rule:nonzero;stroke:none;stroke-width:10;marker:none;visibility:visible;display:inline;overflow:visible;enable-background:accumulate"
           d="m -873.28125,13886.438 c 1.52143,7.584 0.55395,14.672 1.11174,16.903 0.84911,3.397 0.96122,4.351 -0.76799,12.097 l 0.78125,0 514.5625,-0.532 c 0.004,0 18.625,-5.167 18.625,-5.187 l 0,-29.75 c 0,-0.02 -0.0272,-0.03 -0.0312,-0.03 l -533.15625,-2.803 z"
           transform="matrix(0.26458334,0,0,0.26458334,-6.3049604e-6,18.562493)"
           id="path18622"
           inkscape:connector-curvature="0"
           sodipodi:nodetypes="cccccssccc" />
        <path
           inkscape:connector-curvature="0"
           style="opacity:0.62389377;color:#000000;fill:#9d8633;fill-opacity:1;fill-rule:nonzero;stroke:none;stroke-width:10;marker:none;visibility:visible;display:inline;overflow:visible;enable-background:accumulate"
           d="m -1241,13902.75 -0.5625,1.656 c -0.01,0.02 8.1563,9.344 8.1563,9.344 l 361.24995,1.688 514.5625,-0.532 c 0.004,0 18.625,-5.167 18.625,-5.187 l 0,-4.063 -532.03125,0 c 0,0 -309.1836,-0.96 -370,-2.906 z"
           transform="matrix(0.26458334,0,0,0.26458334,-6.3049604e-6,18.562493)"
           id="path18624" />
        <path
           style="color:#000000;fill:#ffe893;fill-opacity:1;fill-rule:nonzero;stroke:none;stroke-width:10;marker:none;visibility:visible;display:inline;overflow:visible;enable-background:accumulate"
           d="m -872.15625,13876.438 -361.24995,3.5 c -0.01,0 -0.031,0.03 -0.031,0.03 l -8.125,24.437 c 0,0 1.3568,1.539 2.25,2.563 l 5.875,-17.719 c 0,0 0.021,-0.03 0.031,-0.03 l 362.41283,-6.958 531.99337,6.958 c 0.004,0 0.0312,0.01 0.0312,0.03 l 0,-9.281 c 0,-0.02 -0.0272,-0.03 -0.0312,-0.03 z"
           transform="matrix(0.26458334,0,0,0.26458334,-6.3049604e-6,18.562493)"
           id="path18626"
           inkscape:connector-curvature="0"
           sodipodi:nodetypes="ccccccccccscc" />
      </g>
    </g>
    <g
       transform="translate(17.756741,-61.669416)"
       id="g23075"
       name="sand"
       class="switchable">
      <path
         sodipodi:nodetypes="ccccccccscccc"
         style="color:#000000;fill:#766623;fill-opacity:1;fill-rule:nonzero;stroke:#766623;stroke-width:2.64583349;stroke-linejoin:round;stroke-miterlimit:4;stroke-opacity:1;stroke-dasharray:none;marker:none;visibility:visible;display:inline;overflow:visible;enable-background:accumulate"
         d="m -19.28403,273.45951 c 19.62929,-1.4822 43.9484,-6.5577 43.47749,-6.95008 -18.93523,-0.93133 -2.486963,-5.02548 -2.486963,-5.02548 0,0 5.559899,-3.03404 19.048719,-7.38537 13.48881,-4.35108 24.405564,-11.99485 24.405564,-11.99485 14.9257,-1.31709 51.46057,8.7294 51.46057,8.7294 l 0.87025,-7.39695 c 0,0 7.809,3.90842 20.86269,9.12997 13.05369,5.22129 58.76482,13.61568 51.80285,15.79135 -6.96197,2.17567 -86.73648,-5.435 -110.66824,-0.21345 -23.93177,5.22129 -37.54529,5.47353 -49.72874,7.21422 -12.18344,1.74043 -37.1760109,-0.003 -35.4355209,0.43212 1.74049,0.43523 -21.3690101,-0.6236 -13.6086691,-2.33088 z"
         id="path23033"
         inkscape:connector-curvature="0" />
      <path
         transform="matrix(0.26458334,0,0,0.26458334,-120.26525,52.53163)"
         sodipodi:nodetypes="scccccscccccsccccccscccsc"
         inkscape:connector-curvature="0"
         id="path20025"
         d="m 712.3125,716.03125 c -4.11017,-0.005 -7.97424,0.15763 -11.5,0.46875 0,0 -49.54992,16.42997 -100.53125,32.875 -50.98137,16.44597 -101.84375,44.5 -101.84375,44.5 0,0 -18.59153,8.8071 25.875,13.3125 10.24713,-5.53503 28.25308,-13.58404 47.34375,-15.4375 0,0 16.3824,-0.69441 0.59375,2.34375 -24.22747,4.66202 -38.77461,16.09822 -38.27547,16.12277 -19.9247,1.48301 -78.12884,19.18146 -152.31828,24.78348 0,0 -37.66694,7.53995 -51.5625,8.34375 28.1137,1.69179 195.46183,15.89364 236.9375,9.96875 46.04768,-6.57899 97.48672,-4.00794 187.9375,-23.74195 90.45074,-19.73499 451.27405,25.12182 427.66695,-10.33033 -15.2795,-22.94618 -155.8302,-43.47496 -205.16695,-63.20897 -49.33678,-19.73499 -78.875,-34.5 -78.875,-34.5 L 896,743.65625 c 3.58217,2.94092 7.84375,8 7.84375,8 0,0 -2.58251,-0.62409 -8.46875,-2.8125 L 895.3125,749.5 c 0,0 -121.34745,-33.39886 -183,-33.46875 z M 325.71875,843.125 c -0.19032,0.0137 -0.17432,0.0424 0.0312,0.0937 0.82228,0.20562 2.30264,0.2374 4.28125,0.125 -2.08491,-0.12497 -3.90246,-0.24837 -4.3125,-0.21875 z"
         style="color:#000000;fill:#fddd82;fill-opacity:1;fill-rule:nonzero;stroke:none;stroke-width:12;marker:none;visibility:visible;display:inline;overflow:visible;enable-background:accumulate" />
      <path
         id="path23041"
         transform="matrix(0.26458334,0,0,0.26458334,-120.26525,52.53163)"
         d="m 639.625,779.4375 c -6.58796,0 -39.4929,6.85919 -63.78125,12.25 3.48377,0.053 6.42597,0.47819 -3.59375,2.40625 -14.15922,2.72462 -24.99342,7.74677 -31.46875,11.46875 -0.0103,0.01 -0.0209,0.0213 -0.0312,0.0312 -1.38287,1.33242 -3.07961,2.59807 -5.5,3.5625 -0.0318,0.0127 -0.0617,0.0187 -0.0937,0.0312 -0.77424,0.58498 -1.2732,1.02703 -1.1875,1.03125 -19.9247,1.48301 -78.12306,19.17923 -152.3125,24.78125 0,0 -37.66694,7.53995 -51.5625,8.34375 3.15845,0.19007 8.2965,0.57167 14.59375,1.03125 46.58466,-6.3992 166.95526,-22.13235 181.28125,-24.28125 16.59179,-2.48877 13.25391,-5.80616 46.4375,-18.25 C 605.58983,789.3999 649.58007,779.4375 639.625,779.4375 z M 325.71875,843.125 c -0.19032,0.0137 -0.17427,0.0425 0.0312,0.0937 0.82228,0.20562 2.30264,0.2374 4.28125,0.125 -2.08491,-0.12497 -3.90246,-0.24837 -4.3125,-0.21875 z"
         style="color:#000000;fill:#ffeeaa;fill-opacity:1;fill-rule:nonzero;stroke:none;stroke-width:10;marker:none;visibility:visible;display:inline;overflow:visible;enable-background:accumulate"
         inkscape:connector-curvature="0" />
      <path
         id="path23043"
         transform="matrix(0.26458334,0,0,0.26458334,-120.26525,52.53163)"
         d="m 712.3125,716.03125 c -4.11017,-0.005 -7.97424,0.15763 -11.5,0.46875 0,0 -49.54992,16.42997 -100.53125,32.875 -16.05818,5.18017 -32.08614,11.50356 -46.53125,17.75 -0.002,-0.01 0.002,-0.0215 0,-0.0312 -4.9034,2.11876 -9.52639,4.22989 -14,6.28125 -24.20733,11.10016 -41.3125,20.5 -41.3125,20.5 0,0 -18.59153,8.8071 25.875,13.3125 10.24713,-5.53503 28.25308,-13.58404 47.34375,-15.4375 0,0 10.81931,-0.45769 6.40625,1 2.79419,-0.89184 5.62319,-1.76218 8.46875,-2.53125 30.69482,-8.2959 27.35937,-3.32373 0.8125,-5.8125 -11.7059,-1.09743 -26.78981,-6.22234 -31.96875,-13.75 49.47286,-18.338 123.05213,-41.8125 175.5,-41.8125 61.81556,0 180.83989,29.30241 204.09375,35.9375 -8.15923,-3.47058 -25.35247,-12.65695 -35.3125,-17.6875 2.28983,2.3421 4.1875,4.5625 4.1875,4.5625 0,0 -2.58251,-0.62409 -8.46875,-2.8125 l -0.0625,0.6562 c 0,0 -121.34745,-33.39886 -183,-33.46875 z m 222.65625,48.75 c 1.98829,0.84573 3.48312,1.375 4.125,1.375 0.46845,0 -1.16447,-0.53026 -4.125,-1.375 z M 578.0625,792.75 c -1.0184,0.33639 -2.85213,0.77409 -5.8125,1.34375 -19.94521,3.838 -33.17013,12.18898 -37,15.0625 12.30207,-4.74589 27.07099,-11.38195 42.8125,-16.40625 z m -46.25,17.6875 c -5.57697,0.63221 -13.74366,2.26759 -23.59375,4.34375 1.72955,0.21164 3.25852,0.34375 4.46875,0.34375 5.00652,0 11.54084,-1.89534 19.125,-4.6875 z"
         style="opacity:0.2964602;color:#000000;fill:#d3af49;fill-opacity:1;fill-rule:nonzero;stroke:none;stroke-width:10;marker:none;visibility:visible;display:inline;overflow:visible;enable-background:accumulate"
         inkscape:connector-curvature="0" />
      <path
         id="path23057"
         transform="matrix(0.26458334,0,0,0.26458334,-120.26525,52.53163)"
         d="m 820.40625,785.71875 c -12.94577,0.042 -24.44143,0.63895 -33.96875,2 -83.06146,11.86593 -296.61411,72.02336 -412.65625,48.8125 -11.76995,2.24186 -33.7375,6.23693 -43.6875,6.8125 28.1137,1.69179 195.46183,15.89364 236.9375,9.96875 46.04768,-6.57899 97.48672,-4.01599 187.9375,-23.75 90.45074,-19.73499 451.26335,25.13965 427.65625,-10.3125 -0.4486,-0.67365 -0.9972,-1.36173 -1.6562,-2.03125 -5.4514,1.08913 -11.6657,2.10835 -18.7188,2.875 -33.9872,3.69427 -236.42818,-34.71737 -341.84375,-34.375 z M 325.71875,843.125 c -0.19032,0.0137 -0.17427,0.0425 0.0312,0.0937 0.82228,0.20562 2.30264,0.2374 4.28125,0.125 -2.08491,-0.12497 -3.90246,-0.24837 -4.3125,-0.21875 z"
         style="opacity:0.2964602;color:#000000;fill:#d3af49;fill-opacity:1;fill-rule:nonzero;stroke:none;stroke-width:10;marker:none;visibility:visible;display:inline;overflow:visible;enable-background:accumulate"
         inkscape:connector-curvature="0" />
      <path
         id="path23062"
         transform="matrix(0.26458334,0,0,0.26458334,-120.26525,52.53163)"
         d="m 898.59375,721.53125 -2.125,18.03125 c 29.72582,21.08888 72.65606,29.80281 123.09375,36.5625 36.0649,4.83344 71.5747,11.32962 99.8437,17.03125 -48.7101,-12.90051 -112.046,-25.16884 -141.93745,-37.125 -49.33678,-19.73499 -78.875,-34.5 -78.875,-34.5 z"
         style="opacity:0.2964602;color:#000000;fill:#d3af49;fill-opacity:1;fill-rule:nonzero;stroke:none;stroke-width:10;marker:none;visibility:visible;display:inline;overflow:visible;enable-background:accumulate"
         inkscape:connector-curvature="0" />
    </g>
  </g>
</svg>
