<?xml version="1.0" encoding="UTF-8" standalone="no"?>
<!-- Created with Inkscape (http://www.inkscape.org/) -->

<svg
   xmlns:dc="http://purl.org/dc/elements/1.1/"
   xmlns:cc="http://creativecommons.org/ns#"
   xmlns:rdf="http://www.w3.org/1999/02/22-rdf-syntax-ns#"
   xmlns:svg="http://www.w3.org/2000/svg"
   xmlns="http://www.w3.org/2000/svg"
   xmlns:xlink="http://www.w3.org/1999/xlink"
   xmlns:sodipodi="http://sodipodi.sourceforge.net/DTD/sodipodi-0.dtd"
   xmlns:inkscape="http://www.inkscape.org/namespaces/inkscape"
   width="127.25502"
   height="220.20564"
   viewBox="0 0 33.669556 58.262744"
   version="1.1"
   id="svg23489"
   inkscape:version="0.48.5 r10040"
   sodipodi:docname="New document 15"
   tags="palm tree leaf,tree leaf,tree part, leaves, leaf, palm tree,tree, tree part">
  <defs
     id="defs23483">
    <linearGradient
       inkscape:collect="always"
       xlink:href="#linearGradient26050"
       id="linearGradient26097"
       gradientUnits="userSpaceOnUse"
       x1="-3444.0586"
       y1="8170.0645"
       x2="-3439.3633"
       y2="8221.8965" />
    <linearGradient
       inkscape:collect="always"
       id="linearGradient26050">
      <stop
         style="stop-color:#7fad44;stop-opacity:1;"
         offset="0"
         id="stop26052" />
      <stop
         style="stop-color:#c88a37;stop-opacity:1"
         offset="1"
         id="stop26054" />
    </linearGradient>
  </defs>
  <sodipodi:namedview
     id="base"
     pagecolor="#7d848b"
     bordercolor="#666666"
     borderopacity="1.0"
     inkscape:pageopacity="0"
     inkscape:pageshadow="2"
     inkscape:zoom="0.42617864"
     inkscape:cx="910.18822"
     inkscape:cy="4.0936837"
     inkscape:document-units="px"
     inkscape:current-layer="layer1"
     showgrid="false"
     inkscape:pagecheckerboard="false"
     showborder="true"
     units="px"
     inkscape:window-width="1920"
     inkscape:window-height="1017"
     inkscape:window-x="-8"
     inkscape:window-y="-8"
     inkscape:window-maximized="1"
     inkscape:showpageshadow="false"
     guidetolerance="28"
     fit-margin-top="15"
     fit-margin-left="15"
     fit-margin-bottom="15"
     fit-margin-right="15">
    <inkscape:grid
       type="xygrid"
       id="grid24034"
       spacingx="1px"
       spacingy="1px"
       empspacing="8"
       visible="true"
       enabled="true"
       snapvisiblegridlinesonly="true"
       originx="527.11508px"
       originy="-358.88294px" />
  </sodipodi:namedview>
  <metadata
     id="metadata23486">
    <rdf:RDF>
      <cc:Work
         rdf:about="">
        <dc:format>image/svg+xml</dc:format>
        <dc:type
           rdf:resource="http://purl.org/dc/dcmitype/StillImage" />
        <dc:title></dc:title>
        <cc:license
           rdf:resource="" />
        <dc:creator>
          <cc:Agent>
            <dc:title>Robert Brooks</dc:title>
          </cc:Agent>
        </dc:creator>
      </cc:Work>
    </rdf:RDF>
  </metadata>
  <g
     inkscape:label="Layer 1"
     inkscape:groupmode="layer"
     id="layer1"
     transform="translate(139.46587,-143.7828)">
    <g
       transform="translate(-395.8014,-2818.3935)"
       id="g26073">
      <g
         id="g26075"
         transform="matrix(1.0370969,0,0,1.0370969,1104.7181,766.07986)"
         style="fill:#7fad44;fill-opacity:1">
        <path
           sodipodi:nodetypes="ccsccc"
           inkscape:connector-curvature="0"
           id="path26077"
           d="m -795.4242,2123.0805 c 0,0 -3.9492,22.4003 -3.74153,41.5092 -10e-4,0.349 0.31757,0.6669 0.66652,0.6643 0.34895,0 0.66313,-0.3254 0.6564,-0.6743 -0.20569,-18.925 2.99416,-41.4321 2.99416,-41.4321 0.152,-0.8532 -0.24421,-1.1502 -0.57555,-0.067 z"
           style="font-size:medium;font-style:normal;font-variant:normal;font-weight:normal;font-stretch:normal;text-indent:0;text-align:start;text-decoration:none;line-height:normal;letter-spacing:normal;word-spacing:normal;text-transform:none;direction:ltr;block-progression:tb;writing-mode:lr-tb;text-anchor:start;baseline-shift:baseline;color:#000000;fill:#7fad44;fill-opacity:1;fill-rule:nonzero;stroke:#1b3e1b;stroke-width:2.04095364;stroke-linejoin:round;stroke-miterlimit:4;stroke-opacity:1;stroke-dasharray:none;marker:none;visibility:visible;display:inline;overflow:visible;enable-background:accumulate;font-family:Sans;-inkscape-font-specification:Sans" />
        <path
           style="font-size:medium;font-style:normal;font-variant:normal;font-weight:normal;font-stretch:normal;text-indent:0;text-align:start;text-decoration:none;line-height:normal;letter-spacing:normal;word-spacing:normal;text-transform:none;direction:ltr;block-progression:tb;writing-mode:lr-tb;text-anchor:start;baseline-shift:baseline;color:#000000;fill:#7fad44;fill-opacity:1;fill-rule:nonzero;stroke:none;stroke-width:5;marker:none;visibility:visible;display:inline;overflow:visible;enable-background:accumulate;font-family:Sans;-inkscape-font-specification:Sans"
           d="m -795.4242,2123.0805 c 0,0 -3.9492,22.4003 -3.74153,41.5092 -10e-4,0.349 0.31757,0.6669 0.66652,0.6643 0.34895,0 0.66313,-0.3254 0.6564,-0.6743 -0.20569,-18.925 2.99416,-41.4321 2.99416,-41.4321 0.152,-0.8532 -0.24421,-1.1502 -0.57555,-0.067 z"
           id="path26079"
           inkscape:connector-curvature="0"
           sodipodi:nodetypes="ccsccc" />
      </g>
      <g
         transform="matrix(1.1033773,-0.06871296,0.06871296,1.1033773,184.40237,-124.73692)"
         id="g26081">
        <g
           style="fill:#7fad44;fill-opacity:1"
           id="g26083"
           transform="matrix(0.66342689,0.31772467,-0.31772467,0.66342689,1123.7804,1647.5364)">
          <path
             style="font-size:medium;font-style:normal;font-variant:normal;font-weight:normal;font-stretch:normal;text-indent:0;text-align:start;text-decoration:none;line-height:normal;letter-spacing:normal;word-spacing:normal;text-transform:none;direction:ltr;block-progression:tb;writing-mode:lr-tb;text-anchor:start;baseline-shift:baseline;color:#000000;fill:#7fb730;fill-opacity:1;stroke:#1b3e1b;stroke-width:2.60288811;stroke-linejoin:round;stroke-miterlimit:4;stroke-opacity:1;stroke-dasharray:none;marker:none;visibility:visible;display:inline;overflow:visible;enable-background:accumulate;font-family:Sans;-inkscape-font-specification:Sans"
             d="m -828.68328,2132.0377 c -1.60779,-0.877 -2.89821,-0.2862 -0.26728,0.5908 1.61015,0.5367 7.40317,3.6544 13.53806,9.5404 6.13487,5.8859 12.52736,15.2141 17.02401,28.994 l 1.25677,-0.4134 c -4.56549,-13.991 -11.52446,-23.3629 -17.80151,-29.3853 -6.27705,-6.0223 -11.8046,-8.678 -13.75005,-9.3265 z"
             id="path26085"
             inkscape:connector-curvature="0"
             sodipodi:nodetypes="ccsccsc" />
          <path
             style="font-size:medium;font-style:normal;font-variant:normal;font-weight:normal;font-stretch:normal;text-indent:0;text-align:start;text-decoration:none;line-height:normal;letter-spacing:normal;word-spacing:normal;text-transform:none;direction:ltr;block-progression:tb;writing-mode:lr-tb;text-anchor:start;baseline-shift:baseline;color:#000000;fill:#83a944;fill-opacity:1;stroke:#043205;stroke-width:0;stroke-linejoin:round;stroke-miterlimit:4;stroke-opacity:1;stroke-dasharray:none;marker:none;visibility:visible;display:inline;overflow:visible;enable-background:accumulate;font-family:Sans;-inkscape-font-specification:Sans"
             d="m -828.68328,2132.0377 c -1.60779,-0.877 -2.89821,-0.2862 -0.26728,0.5908 1.61015,0.5367 7.40317,3.6544 13.53806,9.5404 6.13487,5.8859 12.52736,15.2141 17.02401,28.994 l 1.25677,-0.4134 c -4.56549,-13.991 -11.52446,-23.3629 -17.80151,-29.3853 -6.27705,-6.0223 -11.8046,-8.678 -13.75005,-9.3265 z"
             id="path26087"
             inkscape:connector-curvature="0"
             sodipodi:nodetypes="ccsccsc" />
          <path
             sodipodi:nodetypes="ccsccsc"
             inkscape:connector-curvature="0"
             id="path26089"
             d="m -828.68328,2132.0377 c -1.60779,-0.877 -2.89821,-0.2862 -0.26728,0.5908 1.61015,0.5367 7.40317,3.6544 13.53806,9.5404 6.13487,5.8859 12.52736,15.2141 17.02401,28.994 l 1.25677,-0.4134 c -4.56549,-13.991 -11.52446,-23.3629 -17.80151,-29.3853 -6.27705,-6.0223 -11.8046,-8.678 -13.75005,-9.3265 z"
             style="font-size:medium;font-style:normal;font-variant:normal;font-weight:normal;font-stretch:normal;text-indent:0;text-align:start;text-decoration:none;line-height:normal;letter-spacing:normal;word-spacing:normal;text-transform:none;direction:ltr;block-progression:tb;writing-mode:lr-tb;text-anchor:start;baseline-shift:baseline;color:#000000;fill:#7fb730;fill-opacity:1;stroke:none;stroke-width:5;marker:none;visibility:visible;display:inline;overflow:visible;enable-background:accumulate;font-family:Sans;-inkscape-font-specification:Sans" />
        </g>
      </g>
      <g
         style="fill:#7fad44;fill-opacity:1"
         id="g26091"
         transform="matrix(1.0328678,0.09356342,-0.09356342,1.0328678,1420.3576,838.31288)">
        <path
           style="color:#000000;fill:#7fad44;fill-opacity:1;fill-rule:nonzero;stroke:#1d401b;stroke-width:8;stroke-linejoin:round;stroke-opacity:1;marker:none;visibility:visible;display:inline;overflow:visible;enable-background:accumulate"
           d="m -3449.8123,8201.2984 c 0,-32.0401 -11.0137,-57.572 -15.5194,-61.0764 -4.5056,-3.5044 20.0251,9.5119 24.5307,20.025 4.5056,10.5132 -5.0063,19.0238 4.005,1.0013 9.0113,-18.0225 31.0388,-15.5194 25.5319,-13.5169 -5.5069,2.0025 -9.5119,2.0025 -16.02,10.0125 -6.5081,8.01 -0.5006,37.5469 0,43.5545 0.5006,6.0075 -6.6234,5.2162 -15.1341,3.2137 -8.5106,-2.0025 -7.3941,-3.2137 -7.3941,-3.2137 z"
           id="path26093"
           inkscape:connector-curvature="0"
           transform="matrix(0.26458334,0,0,0.26458334,-6.3049604e-6,18.562493)"
           sodipodi:nodetypes="csssssssc" />
        <path
           transform="matrix(0.26458334,0,0,0.26458334,-6.3049604e-6,18.562493)"
           inkscape:connector-curvature="0"
           id="path26095"
           d="m -3449.8123,8201.2984 c 0,-32.0401 -11.0137,-57.572 -15.5194,-61.0764 -4.5056,-3.5044 20.0251,9.5119 24.5307,20.025 4.5056,10.5132 -5.0063,19.0238 4.005,1.0013 9.0113,-18.0225 31.0388,-15.5194 25.5319,-13.5169 -5.5069,2.0025 -9.5119,2.0025 -16.02,10.0125 -6.5081,8.01 -0.5006,37.5469 0,43.5545 0.5006,6.0075 -6.0075,12.015 -14.5182,10.0125 -8.5106,-2.0025 -8.01,-10.0125 -8.01,-10.0125 z"
           style="color:#000000;fill:url(#linearGradient26097);fill-opacity:1;fill-rule:nonzero;stroke:none;stroke-width:8;marker:none;visibility:visible;display:inline;overflow:visible;enable-background:accumulate" />
      </g>
    </g>
  </g>
</svg>
