<?xml version="1.0" encoding="UTF-8" standalone="no"?>
<!-- Created with Inkscape (http://www.inkscape.org/) -->

<svg
   xmlns:dc="http://purl.org/dc/elements/1.1/"
   xmlns:cc="http://creativecommons.org/ns#"
   xmlns:rdf="http://www.w3.org/1999/02/22-rdf-syntax-ns#"
   xmlns:svg="http://www.w3.org/2000/svg"
   xmlns="http://www.w3.org/2000/svg"
   xmlns:sodipodi="http://sodipodi.sourceforge.net/DTD/sodipodi-0.dtd"
   xmlns:inkscape="http://www.inkscape.org/namespaces/inkscape"
   width="186.92503"
   height="184.60822"
   viewBox="0 0 49.457246 48.844259"
   version="1.1"
   id="svg23489"
   inkscape:version="0.48.5 r10040"
   sodipodi:docname="leaf_03.svg"
   tags="palm tree leaf,tree leaf,tree part, leaves, leaf, palm tree,tree, tree part">
  <defs
     id="defs23483" />
  <sodipodi:namedview
     id="base"
     pagecolor="#7d848b"
     bordercolor="#666666"
     borderopacity="1.0"
     inkscape:pageopacity="0"
     inkscape:pageshadow="2"
     inkscape:zoom="0.30135381"
     inkscape:cx="-202.14777"
     inkscape:cy="-129.29062"
     inkscape:document-units="px"
     inkscape:current-layer="layer1"
     showgrid="false"
     inkscape:pagecheckerboard="false"
     showborder="true"
     units="px"
     inkscape:window-width="1920"
     inkscape:window-height="1017"
     inkscape:window-x="-8"
     inkscape:window-y="-8"
     inkscape:window-maximized="1"
     inkscape:showpageshadow="false"
     guidetolerance="28"
     fit-margin-top="15"
     fit-margin-left="15"
     fit-margin-bottom="15"
     fit-margin-right="15">
    <inkscape:grid
       type="xygrid"
       id="grid24034"
       spacingx="1px"
       spacingy="1px"
       empspacing="8"
       visible="true"
       enabled="true"
       snapvisiblegridlinesonly="true"
       originx="218.09551px"
       originy="-739.44091px" />
  </sodipodi:namedview>
  <metadata
     id="metadata23486">
    <rdf:RDF>
      <cc:Work
         rdf:about="">
        <dc:format>image/svg+xml</dc:format>
        <dc:type
           rdf:resource="http://purl.org/dc/dcmitype/StillImage" />
        <dc:title></dc:title>
        <cc:license
           rdf:resource="" />
        <dc:creator>
          <cc:Agent>
            <dc:title>Robert Brooks</dc:title>
          </cc:Agent>
        </dc:creator>
      </cc:Work>
    </rdf:RDF>
  </metadata>
  <g
     inkscape:label="Layer 1"
     inkscape:groupmode="layer"
     id="layer1"
     transform="translate(-81.761434,-147.46644)">
    <g
       id="g25095"
       transform="matrix(-0.94371424,0.19461218,0.19461218,0.94371424,-551.61899,-2441.2305)">
      <g
         transform="matrix(0.88216121,-0.27554169,0.15530618,0.90773386,377.62839,520.59902)"
         id="g25097"
         inkscape:transform-center-x="86.909693"
         inkscape:transform-center-y="-69.835469"
         style="fill:#7fad44;fill-opacity:1">
        <g
           transform="translate(9.5084638,0.51676427)"
           id="g25099"
           style="fill:#7fad44;fill-opacity:1;stroke-linejoin:round">
          <path
             style="color:#000000;fill:#7fad44;fill-opacity:1;fill-rule:nonzero;stroke:#043205;stroke-width:8;stroke-linejoin:round;stroke-opacity:1;marker:none;visibility:visible;display:inline;overflow:visible;enable-background:accumulate"
             d="m -3603.5156,8303.9247 c -10.9375,8.2031 -22.2657,28.5156 -19.1407,25 3.125,-3.5156 17.1875,-7.8125 21.875,-17.5781 4.6875,-9.7656 -2.7343,-7.4219 -2.7343,-7.4219 z"
             id="path25101"
             inkscape:connector-curvature="0"
             transform="matrix(0.26458334,0,0,0.26458334,-6.3049604e-6,18.562493)" />
          <path
             transform="matrix(0.26458334,0,0,0.26458334,-6.3049604e-6,18.562493)"
             inkscape:connector-curvature="0"
             id="path25103"
             d="m -3603.5156,8303.9247 c -10.9375,8.2031 -22.2657,28.5156 -19.1407,25 3.125,-3.5156 17.1875,-7.8125 21.875,-17.5781 4.6875,-9.7656 -2.7343,-7.4219 -2.7343,-7.4219 z"
             style="color:#000000;fill:#7fad44;fill-opacity:1;fill-rule:nonzero;stroke:none;stroke-width:8;marker:none;visibility:visible;display:inline;overflow:visible;enable-background:accumulate" />
        </g>
        <g
           id="g25105"
           transform="matrix(0.8880407,0,0,0.8880407,-97.262844,248.81407)"
           style="fill:#7fad44;fill-opacity:1;stroke-linejoin:round">
          <path
             style="color:#000000;fill:#7fad44;fill-opacity:1;fill-rule:nonzero;stroke:#1b4019;stroke-width:8;stroke-linejoin:round;stroke-opacity:1;marker:none;visibility:visible;display:inline;overflow:visible;enable-background:accumulate"
             d="m -3593.3594,8303.5341 c 2.7344,5.0781 6.25,4.2969 6.25,4.2969 0,0 1.5625,-3.9063 -0.3906,-8.2032 -1.9531,-4.2968 -11.3281,-4.6875 -11.3281,-4.6875 l -1.5625,1.9532 z"
             id="path25107"
             inkscape:connector-curvature="0"
             transform="matrix(0.26458334,0,0,0.26458334,-6.3049604e-6,18.562493)" />
          <path
             transform="matrix(0.26458334,0,0,0.26458334,-6.3049604e-6,18.562493)"
             inkscape:connector-curvature="0"
             id="path25109"
             d="m -3593.3594,8303.5341 c 2.7344,5.0781 6.25,4.2969 6.25,4.2969 0,0 1.5625,-3.9063 -0.3906,-8.2032 -1.9531,-4.2968 -11.3281,-4.6875 -11.3281,-4.6875 l -1.5625,1.9532 z"
             style="color:#000000;fill:#5b8135;fill-opacity:1;fill-rule:nonzero;stroke:none;stroke-width:8;marker:none;visibility:visible;display:inline;overflow:visible;enable-background:accumulate" />
        </g>
        <g
           id="g25111"
           transform="translate(6.9246421,-2.7905274)"
           style="fill:#7fad44;fill-opacity:1;stroke-linejoin:round">
          <path
             transform="matrix(0.26458334,0,0,0.26458334,-6.3049604e-6,18.562493)"
             inkscape:connector-curvature="0"
             id="path25113"
             d="m -3603.5156,8303.9247 c -10.9375,8.2031 -22.2657,28.5156 -19.1407,25 3.125,-3.5156 17.1875,-7.8125 21.875,-17.5781 4.6875,-9.7656 -2.7343,-7.4219 -2.7343,-7.4219 z"
             style="color:#000000;fill:#7fad44;fill-opacity:1;fill-rule:nonzero;stroke:#043205;stroke-width:8;stroke-linejoin:round;stroke-opacity:1;marker:none;visibility:visible;display:inline;overflow:visible;enable-background:accumulate" />
          <path
             style="color:#000000;fill:#7fad44;fill-opacity:1;fill-rule:nonzero;stroke:none;stroke-width:8;marker:none;visibility:visible;display:inline;overflow:visible;enable-background:accumulate"
             d="m -3603.5156,8303.9247 c -10.9375,8.2031 -22.2657,28.5156 -19.1407,25 3.125,-3.5156 17.1875,-7.8125 21.875,-17.5781 4.6875,-9.7656 -2.7343,-7.4219 -2.7343,-7.4219 z"
             id="path25115"
             inkscape:connector-curvature="0"
             transform="matrix(0.26458334,0,0,0.26458334,-6.3049604e-6,18.562493)" />
        </g>
        <g
           transform="matrix(0.8880407,0,0,0.8880407,-99.846664,245.50677)"
           id="g25117"
           style="fill:#7fad44;fill-opacity:1;stroke-linejoin:round">
          <path
             transform="matrix(0.26458334,0,0,0.26458334,-6.3049604e-6,18.562493)"
             inkscape:connector-curvature="0"
             id="path25119"
             d="m -3593.3594,8303.5341 c 2.7344,5.0781 6.25,4.2969 6.25,4.2969 0,0 1.5625,-3.9063 -0.3906,-8.2032 -1.9531,-4.2968 -11.3281,-4.6875 -11.3281,-4.6875 l -1.5625,1.9532 z"
             style="color:#000000;fill:#7fad44;fill-opacity:1;fill-rule:nonzero;stroke:#1b4019;stroke-width:8;stroke-linejoin:round;stroke-opacity:1;marker:none;visibility:visible;display:inline;overflow:visible;enable-background:accumulate" />
          <path
             style="color:#000000;fill:#5b8034;fill-opacity:1;fill-rule:nonzero;stroke:none;stroke-width:8;marker:none;visibility:visible;display:inline;overflow:visible;enable-background:accumulate"
             d="m -3593.3594,8303.5341 c 2.7344,5.0781 6.25,4.2969 6.25,4.2969 0,0 1.5625,-3.9063 -0.3906,-8.2032 -1.9531,-4.2968 -11.3281,-4.6875 -11.3281,-4.6875 l -1.5625,1.9532 z"
             id="path25121"
             inkscape:connector-curvature="0"
             transform="matrix(0.26458334,0,0,0.26458334,-6.3049604e-6,18.562493)" />
        </g>
        <g
           id="g25123"
           transform="translate(3.100586,-6.8212892)"
           style="fill:#7fad44;fill-opacity:1;stroke-linejoin:round">
          <path
             style="color:#000000;fill:#7fad44;fill-opacity:1;fill-rule:nonzero;stroke:#1b4019;stroke-width:2.11666679;stroke-linejoin:round;stroke-miterlimit:4;stroke-opacity:1;stroke-dasharray:none;marker:none;visibility:visible;display:inline;overflow:visible;enable-background:accumulate"
             d="m -970.09625,2199.8177 c 1.17926,-1.27 2.44924,-1.7235 3.08421,-1.27 0.63499,0.4536 2.72137,3.4471 3.35636,5.0799 0.63497,1.6328 -0.63499,2.9935 -1.63283,2.9028 -0.99784,-0.091 -0.8164,-2.8121 -1.36069,-4.6263 -0.54426,-1.8142 -0.8164,-2.6307 -1.45139,-2.6307 -0.63497,0 -1.99566,0.5443 -1.99566,0.5443 z"
             id="path25125"
             inkscape:connector-curvature="0" />
          <path
             inkscape:connector-curvature="0"
             id="path25127"
             d="m -970.09625,2199.8177 c 1.17926,-1.27 2.44924,-1.7235 3.08421,-1.27 0.63499,0.4536 2.72137,3.4471 3.35636,5.0799 0.63497,1.6328 -0.63499,2.9935 -1.63283,2.9028 -0.99784,-0.091 -0.8164,-2.8121 -1.36069,-4.6263 -0.54426,-1.8142 -0.8164,-2.6307 -1.45139,-2.6307 -0.63497,0 -1.99566,0.5443 -1.99566,0.5443 z"
             style="color:#000000;fill:#7fad44;fill-opacity:1;fill-rule:nonzero;stroke:none;stroke-width:8;marker:none;visibility:visible;display:inline;overflow:visible;enable-background:accumulate" />
        </g>
        <g
           id="g25129"
           transform="translate(3.100586,-6.8212892)"
           style="fill:#7fad44;fill-opacity:1;stroke-linejoin:round">
          <path
             style="color:#000000;fill:#7fad44;fill-opacity:1;fill-rule:nonzero;stroke:#1b4019;stroke-width:2.11666679;stroke-linejoin:round;stroke-miterlimit:4;stroke-opacity:1;stroke-dasharray:none;marker:none;visibility:visible;display:inline;overflow:visible;enable-background:accumulate"
             d="m -956.34468,2207.0584 c 2.48476,2.0463 3.80024,6.8697 3.21559,6.1389 -0.58468,-0.7308 -2.92328,-2.0463 -2.92328,-2.0463 0,0 0.29234,-2.0463 -0.14615,-3.0694 -0.4385,-1.0232 -0.14616,-1.0232 -0.14616,-1.0232 z"
             id="path25131"
             inkscape:connector-curvature="0" />
          <path
             inkscape:connector-curvature="0"
             id="path25133"
             d="m -956.34468,2207.0584 c 2.48476,2.0463 3.80024,6.8697 3.21559,6.1389 -0.58468,-0.7308 -2.92328,-2.0463 -2.92328,-2.0463 0,0 0.29234,-2.0463 -0.14615,-3.0694 -0.4385,-1.0232 -0.14616,-1.0232 -0.14616,-1.0232 z"
             style="color:#000000;fill:#7fad44;fill-opacity:1;fill-rule:nonzero;stroke:none;stroke-width:8;marker:none;visibility:visible;display:inline;overflow:visible;enable-background:accumulate" />
        </g>
        <g
           id="g25135"
           transform="translate(3.100586,-6.8212892)"
           style="fill:#7fad44;fill-opacity:1;stroke-linejoin:round">
          <path
             style="color:#000000;fill:#7fad44;fill-opacity:1;fill-rule:nonzero;stroke:#1b4019;stroke-width:2.11666679;stroke-linejoin:round;stroke-miterlimit:4;stroke-opacity:1;stroke-dasharray:none;marker:none;visibility:visible;display:inline;overflow:visible;enable-background:accumulate"
             d="m -958.82946,2203.989 c 0.87699,2.1925 -0.4385,4.9696 0.14615,5.9927 0.58465,1.0231 1.90014,0.5846 2.19245,-1.1693 0.29234,-1.754 -0.58465,-5.2619 -2.04629,-5.8465 -1.46161,-0.5847 -1.60779,3.0694 -1.46161,2.4848 0.14615,-0.5847 1.1693,-1.4617 1.1693,-1.4617 z"
             id="path25137"
             inkscape:connector-curvature="0" />
          <path
             inkscape:connector-curvature="0"
             id="path25139"
             d="m -958.82946,2203.989 c 0.87699,2.1925 -0.4385,4.9696 0.14615,5.9927 0.58465,1.0231 1.90014,0.5846 2.19245,-1.1693 0.29234,-1.754 -0.58465,-5.2619 -2.04629,-5.8465 -1.46161,-0.5847 -1.60779,3.0694 -1.46161,2.4848 0.14615,-0.5847 1.1693,-1.4617 1.1693,-1.4617 z"
             style="color:#000000;fill:#7fad44;fill-opacity:1;fill-rule:nonzero;stroke:none;stroke-width:8;marker:none;visibility:visible;display:inline;overflow:visible;enable-background:accumulate" />
        </g>
        <g
           transform="matrix(0.8880407,0,0,0.8880407,-106.7713,238.89218)"
           id="g25141"
           style="fill:#7fad44;fill-opacity:1;stroke-linejoin:round">
          <path
             transform="matrix(0.26458334,0,0,0.26458334,-6.3049604e-6,18.562493)"
             inkscape:connector-curvature="0"
             id="path25143"
             d="m -3593.3594,8303.5341 c 2.7344,5.0781 6.25,4.2969 6.25,4.2969 0,0 1.5625,-3.9063 -0.3906,-8.2032 -1.9531,-4.2968 -11.3281,-4.6875 -11.3281,-4.6875 l -1.5625,1.9532 z"
             style="color:#000000;fill:#7fad44;fill-opacity:1;fill-rule:nonzero;stroke:#1b4019;stroke-width:8;stroke-linejoin:round;stroke-opacity:1;marker:none;visibility:visible;display:inline;overflow:visible;enable-background:accumulate" />
          <path
             style="color:#000000;fill:#7fad44;fill-opacity:1;fill-rule:nonzero;stroke:none;stroke-width:8;marker:none;visibility:visible;display:inline;overflow:visible;enable-background:accumulate"
             d="m -3593.3594,8303.5341 c 2.7344,5.0781 6.25,4.2969 6.25,4.2969 0,0 1.5625,-3.9063 -0.3906,-8.2032 -1.9531,-4.2968 -11.3281,-4.6875 -11.3281,-4.6875 l -1.5625,1.9532 z"
             id="path25145"
             inkscape:connector-curvature="0"
             transform="matrix(0.26458334,0,0,0.26458334,-6.3049604e-6,18.562493)" />
        </g>
        <g
           id="g25147"
           transform="translate(-0.62011719,-10.231934)"
           style="fill:#7fad44;fill-opacity:1;stroke-linejoin:round">
          <path
             transform="matrix(0.26458334,0,0,0.26458334,-6.3049604e-6,18.562493)"
             inkscape:connector-curvature="0"
             id="path25149"
             d="m -3603.5156,8303.9247 c -10.9375,8.2031 -22.2657,28.5156 -19.1407,25 3.125,-3.5156 17.1875,-7.8125 21.875,-17.5781 4.6875,-9.7656 -2.7343,-7.4219 -2.7343,-7.4219 z"
             style="color:#000000;fill:#7fad44;fill-opacity:1;fill-rule:nonzero;stroke:#043205;stroke-width:8;stroke-linejoin:round;stroke-opacity:1;marker:none;visibility:visible;display:inline;overflow:visible;enable-background:accumulate" />
          <path
             style="color:#000000;fill:#7fad44;fill-opacity:1;fill-rule:nonzero;stroke:none;stroke-width:8;marker:none;visibility:visible;display:inline;overflow:visible;enable-background:accumulate"
             d="m -3603.5156,8303.9247 c -10.9375,8.2031 -22.2657,28.5156 -19.1407,25 3.125,-3.5156 17.1875,-7.8125 21.875,-17.5781 4.6875,-9.7656 -2.7343,-7.4219 -2.7343,-7.4219 z"
             id="path25151"
             inkscape:connector-curvature="0"
             transform="matrix(0.26458334,0,0,0.26458334,-6.3049604e-6,18.562493)" />
        </g>
        <g
           id="g25153"
           transform="translate(3.100586,-6.8212892)"
           style="fill:#7fad44;fill-opacity:1;stroke-linejoin:round">
          <path
             style="color:#000000;fill:#7fad44;fill-opacity:1;fill-rule:nonzero;stroke:#043205;stroke-width:8;stroke-linejoin:round;stroke-opacity:1;marker:none;visibility:visible;display:inline;overflow:visible;enable-background:accumulate"
             d="m -3603.5156,8303.9247 c -10.9375,8.2031 -22.2657,28.5156 -19.1407,25 3.125,-3.5156 17.1875,-7.8125 21.875,-17.5781 4.6875,-9.7656 -2.7343,-7.4219 -2.7343,-7.4219 z"
             id="path25155"
             inkscape:connector-curvature="0"
             transform="matrix(0.26458334,0,0,0.26458334,-6.3049604e-6,18.562493)" />
          <path
             transform="matrix(0.26458334,0,0,0.26458334,-6.3049604e-6,18.562493)"
             inkscape:connector-curvature="0"
             id="path25157"
             d="m -3603.5156,8303.9247 c -10.9375,8.2031 -22.2657,28.5156 -19.1407,25 3.125,-3.5156 17.1875,-7.8125 21.875,-17.5781 4.6875,-9.7656 -2.7343,-7.4219 -2.7343,-7.4219 z"
             style="color:#000000;fill:#7fad44;fill-opacity:1;fill-rule:nonzero;stroke:none;stroke-width:8;marker:none;visibility:visible;display:inline;overflow:visible;enable-background:accumulate" />
        </g>
        <g
           id="g25159"
           transform="matrix(0.8880407,0,0,0.8880407,-103.67071,241.476)"
           style="fill:#7fad44;fill-opacity:1;stroke-linejoin:round">
          <path
             style="color:#000000;fill:#5b8135;fill-opacity:1;fill-rule:nonzero;stroke:#1b4019;stroke-width:8;stroke-linejoin:round;stroke-opacity:1;marker:none;visibility:visible;display:inline;overflow:visible;enable-background:accumulate"
             d="m -3593.3594,8303.5341 c 2.7344,5.0781 6.25,4.2969 6.25,4.2969 0,0 1.5625,-3.9063 -0.3906,-8.2032 -1.9531,-4.2968 -11.3281,-4.6875 -11.3281,-4.6875 l -1.5625,1.9532 z"
             id="path25161"
             inkscape:connector-curvature="0"
             transform="matrix(0.26458334,0,0,0.26458334,-6.3049604e-6,18.562493)" />
          <path
             transform="matrix(0.26458334,0,0,0.26458334,-6.3049604e-6,18.562493)"
             inkscape:connector-curvature="0"
             id="path25163"
             d="m -3593.3594,8303.5341 c 2.7344,5.0781 6.25,4.2969 6.25,4.2969 0,0 1.5625,-3.9063 -0.3906,-8.2032 -1.9531,-4.2968 -11.3281,-4.6875 -11.3281,-4.6875 l -1.5625,1.9532 z"
             style="color:#000000;fill:#5b8034;fill-opacity:1;fill-rule:nonzero;stroke:none;stroke-width:8;marker:none;visibility:visible;display:inline;overflow:visible;enable-background:accumulate" />
        </g>
        <g
           id="g25165"
           transform="translate(3.100586,-6.8212892)"
           style="fill:#7fad44;fill-opacity:1;stroke-linejoin:round">
          <path
             style="color:#000000;fill:#7fad44;fill-opacity:1;fill-rule:nonzero;stroke:#1b4019;stroke-width:2.11666679;stroke-linejoin:round;stroke-miterlimit:4;stroke-opacity:1;stroke-dasharray:none;marker:none;visibility:visible;display:inline;overflow:visible;enable-background:accumulate"
             d="m -961.97859,2207.3567 c -0.72347,-3.204 -0.41341,-7.8549 -0.10337,-7.2347 0.31007,0.6201 1.96371,4.9609 1.86037,6.8212 -0.10335,1.8604 -1.757,0.4135 -1.757,0.4135 z"
             id="path25167"
             inkscape:connector-curvature="0" />
          <path
             inkscape:connector-curvature="0"
             id="path25169"
             d="m -961.97859,2207.3567 c -0.72347,-3.204 -0.41341,-7.8549 -0.10337,-7.2347 0.31007,0.6201 1.96371,4.9609 1.86037,6.8212 -0.10335,1.8604 -1.757,0.4135 -1.757,0.4135 z"
             style="color:#000000;fill:#7daa43;fill-opacity:1;fill-rule:nonzero;stroke:none;stroke-width:8;marker:none;visibility:visible;display:inline;overflow:visible;enable-background:accumulate" />
        </g>
        <g
           transform="matrix(0.96492703,0,0,0.96492703,-162.98101,142.00798)"
           id="g25171"
           style="fill:#7fad44;fill-opacity:1;stroke-linejoin:round">
          <path
             sodipodi:nodetypes="ccsccsc"
             inkscape:connector-curvature="0"
             id="path25173"
             d="m -828.68328,2132.0377 c -1.60779,-0.877 -2.89821,-0.2862 -0.26728,0.5908 1.61015,0.5367 7.40317,3.6544 13.53806,9.5404 6.13487,5.8859 12.52736,15.2141 17.02401,28.994 l 1.25677,-0.4134 c -4.56549,-13.991 -11.52446,-23.3629 -17.80151,-29.3853 -6.27705,-6.0223 -11.8046,-8.678 -13.75005,-9.3265 z"
             style="font-size:medium;font-style:normal;font-variant:normal;font-weight:normal;font-stretch:normal;text-indent:0;text-align:start;text-decoration:none;line-height:normal;letter-spacing:normal;word-spacing:normal;text-transform:none;direction:ltr;block-progression:tb;writing-mode:lr-tb;text-anchor:start;baseline-shift:baseline;color:#000000;fill:#7fad44;fill-opacity:1;stroke:#1b3e1b;stroke-width:2.11666679;stroke-linejoin:round;stroke-miterlimit:4;stroke-opacity:1;stroke-dasharray:none;marker:none;visibility:visible;display:inline;overflow:visible;enable-background:accumulate;font-family:Sans;-inkscape-font-specification:Sans" />
          <path
             style="font-size:medium;font-style:normal;font-variant:normal;font-weight:normal;font-stretch:normal;text-indent:0;text-align:start;text-decoration:none;line-height:normal;letter-spacing:normal;word-spacing:normal;text-transform:none;direction:ltr;block-progression:tb;writing-mode:lr-tb;text-anchor:start;baseline-shift:baseline;color:#000000;fill:#7fad44;fill-opacity:1;stroke:none;stroke-width:5;marker:none;visibility:visible;display:inline;overflow:visible;enable-background:accumulate;font-family:Sans;-inkscape-font-specification:Sans"
             d="m -828.68328,2132.0377 c -1.60779,-0.877 -2.89821,-0.2862 -0.26728,0.5908 1.61015,0.5367 7.40317,3.6544 13.53806,9.5404 6.13487,5.8859 15.67996,19.8068 16.80956,30.2121 0.78877,3.0197 1.84218,1.2613 1.71031,-0.4896 -4.56549,-13.991 -11.76355,-24.5048 -18.0406,-30.5272 -6.27705,-6.0223 -11.8046,-8.678 -13.75005,-9.3265 z"
             id="path25175"
             inkscape:connector-curvature="0"
             sodipodi:nodetypes="ccsccsc" />
        </g>
        <path
           id="path25177"
           transform="matrix(0.28471121,0.0864238,-0.04871187,0.27669034,-313.92718,-648.35805)"
           d="m -519.03125,10435.75 c -11.83603,-0.02 -26.63679,1.035 -28.125,1.344 -2.16439,0.449 -1.20811,0.516 4.9375,2.75 5.07247,1.843 26.09671,7.706 38.6875,7.594 -17.48264,6.003 -32.54457,19.553 -34.78125,21.218 -2.69876,2.009 19.68487,-7.225 25.96875,-8.468 6.28376,-1.245 21.50793,-6.454 23.34375,-10.876 1.83584,-4.419 -3.46875,-4.5 -3.46875,-4.5 -1.16228,0.132 -2.3427,0.34 -3.5,0.563 0.32802,-0.541 0.64613,-1.306 0.75,-2.281 0.24581,-2.307 -2.71107,-4.443 -11.0625,-6.469 -2.6098,-0.633 -7.36999,-0.865 -12.75,-0.875 z m 38.34375,12.344 c -0.89941,0.05 -1.65625,0.375 -1.65625,0.375 -17.79757,6.306 -41.69588,32.076 -38.25,31 3.3775,-1.055 28.47894,-14.972 36.21875,-20.094 -12.66027,10.804 -23.12496,26.082 -18.96875,23.187 5.50485,-3.832 23.8512,-15.107 31.75,-22.593 10.32088,-9.782 -0.1875,-8.907 -0.1875,-8.907 -2.61128,1.129 -5.27712,2.764 -7.9375,4.688 2.81024,-2.831 2.36336,-4.619 1.53125,-6.312 -0.55693,-1.135 -1.60059,-1.392 -2.5,-1.344 z m 21.0625,6.094 c -1.21104,0.05 -2.25,0.656 -2.25,0.656 -9.66081,3.546 -10.27724,5.577 -15.625,12.812 -4.27273,5.033 -8.21875,27.906 -8.21875,27.906 0,0 4.71162,11.453 5.21875,12.407 -0.0158,-0.06 -0.0119,-0.137 -0.0625,-0.281 -1.0021,-2.858 -0.88795,-8.192 0.375,-12.813 1.26302,-4.621 8.0265,-22.043 13.53125,-25.875 5.50473,-3.833 11.5095,-7.825 10.25,-12.188 -0.62978,-2.18 -2.00771,-2.673 -3.21875,-2.624 z m 9.15625,3.031 c -0.97756,-0.04 -1.6875,0.406 -1.6875,0.406 -13.67614,10.083 -16.36998,30.443 -17.71875,34.563 -1.34871,4.119 2.44165,17.221 2.5,14.562 0.0584,-2.659 4.27506,-14.017 7,-19.094 2.72498,-5.077 16.12134,-19.847 14.03125,-26.062 -1.17559,-3.496 -2.86813,-4.321 -4.125,-4.375 z m 11.84375,10.281 c -0.86478,0.04 -1.46875,0.281 -1.46875,0.281 -9.60233,7.094 -13.03131,29.73 -13.78125,34.844 -0.74962,5.115 -4.68094,16.866 -2.59375,15.187 2.08725,-1.676 6.81662,-11.976 8.59375,-16.562 1.77738,-4.587 11.58275,-19.146 13.8125,-25.562 2.22942,-6.418 -1.13894,-7.453 -2.8125,-7.969 -0.62767,-0.194 -1.23113,-0.244 -1.75,-0.219 z m 11.96875,9.375 c -0.17346,0.01 -0.28125,0.03 -0.28125,0.03 -10.41995,5.374 -17.40871,27.525 -18.96875,32.532 -1.55976,5.007 -7.28712,16.116 -5,14.812 2.28705,-1.304 8.53601,-10.807 11,-15.094 2.46438,-4.288 14.30004,-17.142 17.5,-23.187 3.19957,-6.045 0.12309,-7.705 -1.40625,-8.531 -1.14715,-0.62 -2.32338,-0.606 -2.84375,-0.563 z m 10.875,8.625 c -0.86751,0 -1.5,0.25 -1.5,0.25 -8.88188,11.739 -15.69815,35.535 -17.625,39.125 -1.92685,3.59 -7.54075,10.948 -4.5,9.625 3.04066,-1.323 16.05173,-14.368 20.25,-21.656 4.19827,-7.288 9.75181,-17.218 8.03125,-23.032 -1.07529,-3.632 -3.2104,-4.315 -4.65625,-4.312 z m 13.78125,11 c -0.83045,-0.04 -1.40625,0.219 -1.40625,0.219 -7.03511,5.559 -6.89364,21.201 -11.03125,28.843 -4.13759,7.644 -15.44956,20.16 -12.125,18.376 3.32466,-1.786 17.07676,-10.587 22.1875,-18.907 5.11066,-8.32 9.71214,-15.365 7.34375,-22.843 -1.48029,-4.675 -3.58467,-5.617 -4.96875,-5.688 z"
           style="color:#000000;fill:#7fad44;fill-opacity:1;stroke:#1b4019;stroke-width:7.34764624;stroke-linejoin:round;stroke-miterlimit:4;stroke-opacity:1;stroke-dasharray:none;marker:none;visibility:visible;display:inline;overflow:visible;enable-background:accumulate"
           inkscape:connector-curvature="0" />
        <path
           id="path25179"
           transform="matrix(0.28471121,0.0864238,-0.04871187,0.27669034,-313.92718,-648.35805)"
           d="m -519.03125,10435.75 c -11.83603,-0.02 -26.63679,1.035 -28.125,1.344 -2.16439,0.449 -1.20811,0.516 4.9375,2.75 5.0683,1.841 26.06196,7.697 38.65625,7.594 -17.3229,6.068 -32.18556,19.471 -34.40625,21.124 -2.69876,2.01 19.68487,-7.224 25.96875,-8.468 6.28376,-1.245 21.50793,-6.486 23.34375,-10.906 1.83584,-4.42 -3.46875,-4.469 -3.46875,-4.469 -1.27544,0.144 -2.57463,0.34 -3.84375,0.593 0.31757,-0.537 0.64914,-1.271 0.75,-2.218 0.24581,-2.307 -2.71107,-4.443 -11.0625,-6.469 -2.6098,-0.633 -7.36999,-0.865 -12.75,-0.875 z m 38.34375,12.344 c -0.89941,0.05 -1.65625,0.375 -1.65625,0.375 -17.79757,6.306 -41.69588,32.076 -38.25,31 3.3775,-1.055 28.47894,-14.972 36.21875,-20.094 -12.66027,10.804 -23.12496,26.081 -18.96875,23.187 5.50485,-3.832 23.8512,-15.107 31.75,-22.593 10.32088,-9.782 -0.1875,-8.907 -0.1875,-8.907 -2.61128,1.129 -5.27712,2.764 -7.9375,4.688 2.81024,-2.831 2.36336,-4.619 1.53125,-6.312 -0.55693,-1.134 -1.60059,-1.392 -2.5,-1.344 z m 21.0625,6.094 c -1.21104,0.05 -2.25,0.656 -2.25,0.656 -9.66081,3.546 -10.27724,5.577 -15.625,12.812 -4.27273,5.033 -8.21875,27.906 -8.21875,27.906 0,0 4.71162,11.453 5.21875,12.407 -0.0158,-0.06 -0.0119,-0.137 -0.0625,-0.281 -1.0021,-2.857 -0.88795,-8.192 0.375,-12.813 1.26302,-4.621 8.0265,-22.043 13.53125,-25.875 5.50473,-3.833 11.5095,-7.826 10.25,-12.188 -0.62978,-2.18 -2.00771,-2.673 -3.21875,-2.624 z m 9.15625,3.031 c -0.97756,-0.04 -1.6875,0.406 -1.6875,0.406 -13.67614,10.083 -16.36998,30.444 -17.71875,34.563 -1.34871,4.119 2.44165,17.221 2.5,14.562 0.0584,-2.659 4.27506,-14.017 7,-19.094 2.72498,-5.077 16.12134,-19.847 14.03125,-26.062 -1.17559,-3.496 -2.86813,-4.321 -4.125,-4.375 z m 11.84375,10.281 c -0.86478,0.04 -1.46875,0.281 -1.46875,0.281 -9.60233,7.094 -13.03131,29.73 -13.78125,34.844 -0.74962,5.115 -4.68094,16.865 -2.59375,15.187 2.08725,-1.676 6.81662,-11.976 8.59375,-16.562 1.77738,-4.587 11.58275,-19.146 13.8125,-25.562 2.22942,-6.417 -1.13894,-7.453 -2.8125,-7.969 -0.62767,-0.194 -1.23113,-0.244 -1.75,-0.219 z m 11.96875,9.375 c -0.17346,0.01 -0.28125,0.03 -0.28125,0.03 -10.41995,5.374 -17.40871,27.525 -18.96875,32.532 -1.55976,5.007 -7.28712,16.116 -5,14.812 2.28705,-1.304 8.53601,-10.807 11,-15.094 2.46438,-4.288 14.30004,-17.142 17.5,-23.187 3.19957,-6.045 0.12309,-7.705 -1.40625,-8.531 -1.14715,-0.62 -2.32338,-0.606 -2.84375,-0.563 z m 10.875,8.625 c -0.86751,0 -1.5,0.25 -1.5,0.25 -8.88188,11.739 -15.69815,35.535 -17.625,39.125 -1.92685,3.59 -7.54075,10.948 -4.5,9.625 3.04066,-1.323 16.05173,-14.368 20.25,-21.656 4.19827,-7.288 9.75181,-17.219 8.03125,-23.032 -1.07529,-3.632 -3.2104,-4.315 -4.65625,-4.312 z m 13.78125,11 c -0.83045,-0.04 -1.40625,0.219 -1.40625,0.219 -7.03511,5.559 -6.89364,21.201 -11.03125,28.843 -4.13759,7.643 -15.44956,20.161 -12.125,18.376 3.32466,-1.786 17.07676,-10.587 22.1875,-18.907 5.11066,-8.32 9.71214,-15.365 7.34375,-22.843 -1.48029,-4.674 -3.58467,-5.617 -4.96875,-5.688 z"
           style="color:#000000;fill:#587d33;fill-opacity:1;stroke:none;stroke-width:8;marker:none;visibility:visible;display:inline;overflow:visible;enable-background:accumulate"
           inkscape:connector-curvature="0" />
        <path
           inkscape:connector-curvature="0"
           id="path25181"
           d="m -945.8298,2213.6054 c -3.22842,0.5862 -6.30014,6.1129 -6.98819,7.3634 -0.68802,1.2508 -2.85288,3.8227 -2.1382,3.6596 0.71466,-0.1631 2.95434,-2.2464 3.86469,-3.2196 0.9105,-0.9734 4.89967,-3.5105 6.10519,-4.9065 1.20542,-1.3961 0.41527,-2.1181 0.0201,-2.4789 -0.39521,-0.3609 -0.86362,-0.418 -0.86362,-0.418 z"
           style="color:#000000;fill:#7fad44;fill-opacity:1;fill-rule:nonzero;stroke:none;stroke-width:8;marker:none;visibility:visible;display:inline;overflow:visible;enable-background:accumulate" />
        <path
           id="path25183"
           transform="matrix(0.28471121,0.0864238,-0.04871187,0.27669034,-313.92718,-648.35805)"
           d="m -519.03125,10435.75 c -11.83603,-0.02 -26.63679,1.035 -28.125,1.344 -1.51985,0.315 -1.36775,0.491 0.90625,1.312 24.23702,-0.847 49.125,2.688 49.125,2.688 0,0 -5.00949,3.046 -10.1875,6.218 1.30231,0.09 2.57429,0.135 3.75,0.126 -5.577,1.953 -10.89775,4.662 -15.625,7.5 -0.12375,0.185 0.46679,-0.03 2.03125,-0.813 8.39886,-4.199 22.40748,-2.805 25.53125,-1.937 1.4735,-1.006 2.56286,-2.023 2.96875,-3 1.83584,-4.421 -3.46875,-4.469 -3.46875,-4.469 -1.27544,0.144 -2.57463,0.341 -3.84375,0.593 0.31757,-0.537 0.64914,-1.271 0.75,-2.218 0.24581,-2.307 -2.71107,-4.443 -11.0625,-6.469 -2.6098,-0.633 -7.36999,-0.865 -12.75,-0.875 z m 38.34375,12.344 c -0.89941,0.05 -1.65625,0.375 -1.65625,0.375 -2.82254,1 -5.78524,2.518 -8.78125,4.312 1.16703,0.167 8.29139,0.06 7.03125,3.844 -0.35711,1.071 -1.60135,2.715 -3.125,4.531 1.05426,-0.65 2.08579,-1.279 2.84375,-1.781 -2.83919,2.423 -5.55304,5.07 -8.03125,7.687 7.08015,-6.395 12.14092,-9.291 16.3125,-7.437 1.16288,0.517 1.32477,1.831 0.96875,3.406 1.31481,-1.066 2.51351,-2.098 3.53125,-3.062 10.32088,-9.782 -0.1875,-8.907 -0.1875,-8.907 -2.61128,1.129 -5.27712,2.764 -7.9375,4.688 2.81024,-2.831 2.36336,-4.619 1.53125,-6.312 -0.55693,-1.135 -1.60059,-1.392 -2.5,-1.344 z m 21.0625,6.094 c -1.21104,0.05 -2.25,0.656 -2.25,0.656 -8.61998,3.164 -10.18286,5.319 -14.1875,10.844 2.96492,-2.282 7.14928,-3.398 12.46875,-4.063 2.38856,-0.298 2.83251,1.28 2.3125,3.5 3.31616,-2.642 5.71454,-5.405 4.875,-8.313 -0.62978,-2.18 -2.00771,-2.673 -3.21875,-2.624 z m 9.15625,3.031 c -0.97756,-0.04 -1.6875,0.406 -1.6875,0.406 -4.14339,3.055 -7.29219,7.046 -9.6875,11.25 2.27602,-1.396 5.06527,-2.25 8.28125,-2.25 2.55088,0 3.49912,2.588 3.6875,5.781 2.58634,-4.21 4.39636,-8.24 3.53125,-10.812 -1.17559,-3.496 -2.86813,-4.321 -4.125,-4.375 z m -25.65625,8.562 c -0.46457,0.641 -0.82545,1.132 -1.375,1.875 -0.63274,0.746 -1.26834,1.917 -1.875,3.313 0.80883,-0.87 2.23232,-2.982 3.25,-5.188 z m 37.5,1.719 c -0.86478,0.04 -1.46875,0.281 -1.46875,0.281 -3.41199,2.521 -6.02137,7.007 -8.03125,11.969 2.1243,-1.482 5.08807,-2.59 8.5625,-2.094 2.16328,0.309 2.64866,2.24 2.3125,4.688 1.40389,-2.57 2.58405,-4.92 3.1875,-6.656 2.22942,-6.418 -1.13894,-7.453 -2.8125,-7.969 -0.62767,-0.194 -1.23113,-0.244 -1.75,-0.219 z m 12.46875,9.344 c -0.20137,0 -0.36991,0.02 -0.5,0.03 -0.17346,0.01 -0.28125,0.03 -0.28125,0.03 -3.27218,1.688 -6.18517,5.023 -8.71875,8.969 1.0463,-0.367 2.24522,-0.632 3.625,-0.719 6.88881,-0.43 3.78655,8 2.78125,10.375 2.89519,-3.617 5.56215,-7.141 6.84375,-9.562 3.19957,-6.045 0.12309,-7.705 -1.40625,-8.531 -0.86036,-0.466 -1.73963,-0.587 -2.34375,-0.594 z m 10.375,8.656 c -0.86751,0 -1.5,0.25 -1.5,0.25 -1.36183,1.8 -2.65172,3.906 -3.90625,6.156 1.821,-0.377 3.64367,-0.309 5.15625,0.75 2.385,1.67 2.6045,6.073 2.1875,10.219 2.24376,-4.864 3.72505,-9.663 2.71875,-13.063 -1.07529,-3.632 -3.2104,-4.315 -4.65625,-4.312 z m 13.78125,11 c -0.83045,-0.04 -1.40625,0.219 -1.40625,0.219 -2.21335,1.749 -3.72562,4.505 -4.875,7.687 2.14243,-0.948 4.62671,-1.044 7.28125,0.782 1.90703,1.311 3.19461,3.171 4.0625,5.218 0.70819,-2.739 0.78407,-5.447 -0.0937,-8.218 -1.48029,-4.675 -3.58467,-5.617 -4.96875,-5.688 z"
           style="color:#000000;fill:#7fad44;fill-opacity:1;stroke:none;stroke-width:8;marker:none;visibility:visible;display:inline;overflow:visible;enable-background:accumulate"
           inkscape:connector-curvature="0" />
      </g>
    </g>
  </g>
</svg>
