<?xml version="1.0" encoding="UTF-8" standalone="no"?>
<!-- Created with Inkscape (http://www.inkscape.org/) -->

<svg
   xmlns:dc="http://purl.org/dc/elements/1.1/"
   xmlns:cc="http://creativecommons.org/ns#"
   xmlns:rdf="http://www.w3.org/1999/02/22-rdf-syntax-ns#"
   xmlns:svg="http://www.w3.org/2000/svg"
   xmlns="http://www.w3.org/2000/svg"
   xmlns:sodipodi="http://sodipodi.sourceforge.net/DTD/sodipodi-0.dtd"
   xmlns:inkscape="http://www.inkscape.org/namespaces/inkscape"
   width="139.50412"
   height="253.18251"
   viewBox="0 0 36.910464 66.987875"
   version="1.1"
   id="svg23489"
   inkscape:version="0.48.5 r10040"
   sodipodi:docname="leaf_05.svg"
   tags="palm tree leaf,tree leaf,tree part, leaves, leaf, palm tree,tree, tree part">
  <defs
     id="defs23483" />
  <sodipodi:namedview
     id="base"
     pagecolor="#7d848b"
     bordercolor="#666666"
     borderopacity="1.0"
     inkscape:pageopacity="0"
     inkscape:pageshadow="2"
     inkscape:zoom="0.30135381"
     inkscape:cx="-570.66379"
     inkscape:cy="-92.118964"
     inkscape:document-units="px"
     inkscape:current-layer="layer1"
     showgrid="false"
     inkscape:pagecheckerboard="false"
     showborder="true"
     units="px"
     inkscape:window-width="1920"
     inkscape:window-height="1017"
     inkscape:window-x="-8"
     inkscape:window-y="-8"
     inkscape:window-maximized="1"
     inkscape:showpageshadow="false"
     guidetolerance="28"
     fit-margin-top="15"
     fit-margin-left="15"
     fit-margin-bottom="15"
     fit-margin-right="15">
    <inkscape:grid
       type="xygrid"
       id="grid24034"
       spacingx="1px"
       spacingy="1px"
       empspacing="8"
       visible="true"
       enabled="true"
       snapvisiblegridlinesonly="true"
       originx="-150.42051px"
       originy="-702.26926px" />
  </sodipodi:namedview>
  <metadata
     id="metadata23486">
    <rdf:RDF>
      <cc:Work
         rdf:about="">
        <dc:format>image/svg+xml</dc:format>
        <dc:type
           rdf:resource="http://purl.org/dc/dcmitype/StillImage" />
        <dc:title></dc:title>
        <cc:license
           rdf:resource="" />
        <dc:creator>
          <cc:Agent>
            <dc:title>Robert Brooks</dc:title>
          </cc:Agent>
        </dc:creator>
      </cc:Work>
    </rdf:RDF>
  </metadata>
  <g
     inkscape:label="Layer 1"
     inkscape:groupmode="layer"
     id="layer1"
     transform="translate(-179.26463,-139.15783)">
    <g
       transform="translate(-203.68247,-2844.5785)"
       id="g26961">
      <g
         id="g26859"
         transform="translate(48.703935,60.473134)">
        <path
           style="color:#000000;fill:#83a944;fill-opacity:1;fill-rule:nonzero;stroke:#1d401b;stroke-width:7;stroke-linejoin:round;stroke-miterlimit:4;stroke-opacity:1;stroke-dasharray:none;marker:none;visibility:visible;display:inline;overflow:visible;enable-background:accumulate"
           d="m 1362.2812,11022.969 c -0.5611,-0.01 -1.1087,0.02 -1.5937,0.09 -7.7597,1.253 -17.5221,0.998 -24.7813,1.25 -6.7585,0.501 -7.4736,11.769 3.0313,11.282 9.0102,-0.417 18.9943,-4.999 23.5,-5.5 4.5056,-0.5 18.5274,0.748 21.5313,1.75 2.8159,0.938 -13.2697,-8.7 -21.6876,-8.875 z m -43.625,7.625 c -14.5181,1.502 -41.316,13.752 -38.5624,12.5 2.7534,-1.251 33.3033,-0.747 40.5624,-2.75 7.2592,-2.002 4.5082,-10.251 -2,-9.75 z m 29.8438,6.375 c -13.5873,0.258 -20.3494,6.498 -15.8438,8.375 6.0075,2.503 15.5181,0.748 26.0313,2.25 10.5131,1.502 13.5162,0.247 25.5313,1.5 -6.258,-4.256 -11.9901,-7.997 -20,-10 -5.8824,-1.627 -11.1897,-2.211 -15.7188,-2.125 z m -22.3438,3.281 c -13.5758,0.211 -23.3379,10.202 -28.0312,11.375 -3.706,0.927 -9.1953,5.936 -11.1875,7.781 2.595,-1.559 11.1381,-2.866 15.9375,-3.781 5.2566,-1.001 14.2718,-0.746 21.7812,-4.5 7.5095,-3.755 4.25,-10.781 4.25,-10.781 -0.9386,-0.08 -1.8449,-0.108 -2.75,-0.09 z m -39.2187,19.156 c -0.2472,0.149 -0.4631,0.317 -0.5937,0.469 -0.079,0.09 -0.098,0.151 -0.125,0.187 0.099,-0.08 0.3561,-0.32 0.7187,-0.656 z M 1347,11051.5 c -3.5956,0.122 -4.75,1.125 -4.75,1.125 -10.6038,1.502 -3.5253,8 1.1875,8.5 4.7127,0.501 7.0571,-2.004 18.25,1 11.1929,3.003 20.0313,2.5 20.0313,2.5 0,0 -14.1197,-9.497 -25.3126,-12 -4.1973,-0.939 -7.2489,-1.198 -9.4062,-1.125 z m -23.6562,6.062 c -17.1865,0.784 -35.9614,20.57 -31.9376,16.969 4.4402,-3.974 31.6449,-1.988 37.75,-6.625 6.1052,-4.635 -0.5624,-9.937 -0.5624,-9.937 -1.7171,-0.373 -3.4721,-0.488 -5.25,-0.407 z m 24.9062,7.094 c -11.2128,3.019 -8.0797,7.625 -2.7188,9.938 5.3609,2.312 15.4006,5.534 21.6876,7.218 6.2867,1.683 17.798,12.235 15.2812,8.532 -2.5167,-3.704 -8.098,-11.516 -18.6562,-18.688 -10.5581,-7.171 -15.5938,-7 -15.5938,-7 z m -18.75,8.469 c -26.9564,2.937 -41.4137,31.725 -37.4688,26.437 3.9448,-5.286 23.6654,-11.143 35.5,-15.843 11.8345,-4.7 1.9688,-10.594 1.9688,-10.594 z m 17.6875,9.281 c -11.0138,0 -7.5057,10.998 -3,13 4.5056,2.003 17.5231,5.024 24.0313,11.532 6.508,6.507 8.9994,20.503 9.5,18 0.5005,-2.503 -0.4893,-16.017 -9,-28.032 -8.5106,-12.014 -21.5313,-14.5 -21.5313,-14.5 z m -17.5,7.438 c -0.4362,0 -0.7187,0.06 -0.7187,0.06 -23.3704,5.168 -39.6139,35.199 -35.7188,30.032 3.895,-5.167 16.8702,-11.898 27.9062,-16.032 11.0359,-4.134 13.6492,-3.628 13,-9.312 -0.4868,-4.263 -3.1602,-4.761 -4.4687,-4.75 z m 22,15.594 c -16.5207,1.001 -9.0094,8.992 -1.5,14 7.5094,5.005 23.5293,18.025 25.0313,22.531 1.5018,4.505 3,8.004 3,5 0,-3.004 1.5068,-4.983 -4,-18.5 -5.5069,-13.517 -22.5313,-23.031 -22.5313,-23.031 z m -21.7813,2.5 c -20.9382,1.666 -38.2051,38.5 -33.625,33.5 4.5803,-5 26.1775,-17.775 33.375,-22.219 7.1974,-4.444 6.2574,-10.28 0.25,-11.281 z m 15.6563,15.468 c -0.9362,0.07 -2.1419,0.537 -3.2813,2.125 -2.2787,3.178 -1.4614,7.615 6.5,13.563 7.9615,5.946 23.1247,20.904 25.5938,27.25 2.4691,6.346 -9.9881,-40.426 -27.2188,-42.688 0,0 -0.6575,-0.318 -1.5937,-0.25 z m -14.8437,0.656 c -0.9387,0 -1.5626,0.344 -1.5626,0.344 -17.0213,3.197 -26.0337,46.592 -24.0312,40.656 2.0025,-5.935 16.0218,-20.564 23.5312,-26.5 7.5094,-5.936 8.0032,-10.041 5.5,-12.781 -1.2515,-1.37 -2.4988,-1.718 -3.4374,-1.719 z m 1.9374,16.407 c -14.4882,4.271 -17.29,59.175 -16.5,53.062 1.0013,-6.008 7.9912,-18.015 15,-30.531 7.0088,-12.515 1.5,-22.531 1.5,-22.531 z m 12.4063,4.281 c -0.88,-0.04 -1.375,0.219 -1.375,0.219 -5.0063,5.006 7.995,22.55 12,32.062 4.005,9.513 6.5006,10.006 6,5.5 -0.5006,-4.506 -4.4937,-24.522 -9.5,-32.031 -3.1289,-4.694 -5.6583,-5.677 -7.125,-5.75 z m -5.2813,8.219 c -0.948,0.07 -1.5937,0.531 -1.5937,0.531 -6.0075,13.016 1.5,39.022 1.5,45.531 0,6.508 1.5,14.031 1.5,14.031 0,0 2.9975,-12.503 5,-35.031 0.8267,-9.3 -0.4062,-18.11 -2.125,-21.719 -1.3752,-2.885 -3.0623,-3.431 -4.2813,-3.343 z"
           transform="matrix(0.26458334,0,0,0.26458334,-6.3049604e-6,18.562493)"
           id="path26861"
           inkscape:connector-curvature="0" />
        <path
           style="font-size:medium;font-style:normal;font-variant:normal;font-weight:normal;font-stretch:normal;text-indent:0;text-align:start;text-decoration:none;line-height:normal;letter-spacing:normal;word-spacing:normal;text-transform:none;direction:ltr;block-progression:tb;writing-mode:lr-tb;text-anchor:start;baseline-shift:baseline;color:#000000;fill:#83a944;fill-opacity:1;fill-rule:nonzero;stroke:#1e431a;stroke-width:1.85208333;stroke-linejoin:round;stroke-miterlimit:4;stroke-opacity:1;stroke-dasharray:none;marker:none;visibility:visible;display:inline;overflow:visible;enable-background:accumulate;font-family:Sans;-inkscape-font-specification:Sans"
           d="m 349.72691,2928.3873 c -0.7648,0.058 -1.22557,1.1227 -0.74414,1.7198 0.34274,0.4392 0.89326,1.1644 1.28992,2.6866 1.87071,6.8655 2.69687,15.7536 2.99385,20.9439 0.594,10.3814 0.79391,20.1001 0.79391,20.1001 -0.002,0.5583 0.93546,0.5412 0.92456,-0.017 0,0 0.069,-9.7515 -0.529,-20.1991 -0.29898,-5.2239 -1.37253,-17.7319 -2.26526,-21.1669 -0.42912,-1.647 -0.82089,-2.7358 -1.5378,-3.6544 -0.21374,-0.2803 -0.57465,-0.4414 -0.92604,-0.4133 z"
           id="path26863"
           inkscape:connector-curvature="0"
           sodipodi:nodetypes="cccsccscccc" />
        <path
           sodipodi:nodetypes="cccsccscccc"
           inkscape:connector-curvature="0"
           id="path26865"
           d="m 349.72691,2928.3873 c -0.7648,0.058 -1.22557,1.1227 -0.74414,1.7198 0.34274,0.4392 0.89326,1.1644 1.28992,2.6866 1.87071,6.8655 2.69687,15.7536 2.99385,20.9439 0.594,10.3814 0.79391,20.1001 0.79391,20.1001 -0.002,0.5583 0.93546,0.5412 0.92456,-0.017 0,0 0.069,-9.7515 -0.529,-20.1991 -0.29898,-5.2239 -1.37253,-17.7319 -2.26526,-21.1669 -0.42912,-1.647 -0.82089,-2.7358 -1.5378,-3.6544 -0.21374,-0.2803 -0.57465,-0.4414 -0.92604,-0.4133 z"
           style="font-size:medium;font-style:normal;font-variant:normal;font-weight:normal;font-stretch:normal;text-indent:0;text-align:start;text-decoration:none;line-height:normal;letter-spacing:normal;word-spacing:normal;text-transform:none;direction:ltr;block-progression:tb;writing-mode:lr-tb;text-anchor:start;baseline-shift:baseline;color:#000000;fill:#83a944;fill-opacity:1;fill-rule:nonzero;stroke:none;stroke-width:8;marker:none;visibility:visible;display:inline;overflow:visible;enable-background:accumulate;font-family:Sans;-inkscape-font-specification:Sans" />
        <path
           sodipodi:nodetypes="ccccccccsccscsccsccccccccccccccccccccccccccccccccccccccccccscccccsscccscsccccscccccccccccccsccccscsccscc"
           inkscape:connector-curvature="0"
           transform="matrix(0.26458334,0,0,0.26458334,-6.3049604e-6,18.562493)"
           id="path26867"
           d="m 1362.2812,11022.969 c -0.5611,-0.01 -1.1087,0.02 -1.5937,0.09 -7.7597,1.253 -13.6281,0.998 -20.8873,1.25 -5.1606,0.235 -5.3855,10.772 1.2613,10.928 9.0102,-0.417 16.8703,-4.645 21.376,-5.146 4.5056,-0.5 18.5274,0.748 21.5313,1.75 2.8159,0.938 -13.2697,-8.7 -21.6876,-8.875 z m -43.625,7.625 c -14.5181,1.502 -41.316,13.752 -38.5624,12.5 2.7534,-1.251 33.3033,-0.747 40.5624,-2.75 7.2592,-2.002 4.5082,-10.251 -2,-9.75 z m 29.8438,6.375 c -13.5873,0.258 -15.0395,6.852 -10.5339,8.729 6.0075,2.503 10.2082,0.394 20.7214,1.896 10.5131,1.502 13.5162,0.247 25.5313,1.5 -6.258,-4.256 -11.9901,-7.997 -20,-10 -5.8824,-1.627 -11.1897,-2.211 -15.7188,-2.125 z m -22.3438,3.281 c -13.5758,0.211 -23.3379,10.202 -28.0312,11.375 -3.706,0.927 -9.1953,5.936 -11.1875,7.781 2.595,-1.559 11.1381,-2.866 15.9375,-3.781 5.2566,-1.001 14.2718,-0.746 21.7812,-4.5 7.5095,-3.755 4.25,-10.781 4.25,-10.781 -0.9386,-0.08 -1.8449,-0.108 -2.75,-0.09 z m -39.2187,19.156 c -0.2472,0.149 -0.4631,0.317 -0.5937,0.469 -0.079,0.09 -0.098,0.151 -0.125,0.187 0.099,-0.08 0.3561,-0.32 0.7187,-0.656 z M 1347,11051.5 c -3.5956,0.122 -4.75,1.125 -4.75,1.125 -10.6038,1.502 -3.5253,8 1.1875,8.5 4.7127,0.501 7.0571,-2.004 18.25,1 11.1929,3.003 20.0313,2.5 20.0313,2.5 0,0 -14.1197,-9.497 -25.3126,-12 -4.1973,-0.939 -7.2489,-1.198 -9.4062,-1.125 z m -23.6562,6.062 c -17.1865,0.784 -35.9614,20.57 -31.9376,16.969 4.4402,-3.974 31.6449,-1.988 37.75,-6.625 6.1052,-4.635 -0.5624,-9.937 -0.5624,-9.937 -1.7171,-0.373 -3.4721,-0.488 -5.25,-0.407 z m 24.9062,7.094 c -11.2128,3.019 -8.0797,7.625 -2.7188,9.938 5.3609,2.312 15.4006,5.534 21.6876,7.218 6.2867,1.683 17.798,12.235 15.2812,8.532 -2.5167,-3.704 -8.098,-11.516 -18.6562,-18.688 -10.5581,-7.171 -15.5938,-7 -15.5938,-7 z m -18.75,8.469 c -26.9564,2.937 -41.4137,31.725 -37.4688,26.437 3.9448,-5.286 23.6654,-11.143 35.5,-15.843 11.8345,-4.7 1.9688,-10.594 1.9688,-10.594 z m 17.6875,9.281 c -11.0138,0 -7.5057,10.998 -3,13 4.5056,2.003 17.5231,5.024 24.0313,11.532 6.508,6.507 8.9994,20.503 9.5,18 0.5005,-2.503 -0.4893,-16.017 -9,-28.032 -8.5106,-12.014 -21.5313,-14.5 -21.5313,-14.5 z m -17.5,7.438 c -0.4362,0 -0.7187,0.06 -0.7187,0.06 -23.3704,5.168 -39.6139,35.199 -35.7188,30.032 3.895,-5.167 16.8702,-11.898 27.9062,-16.032 11.0359,-4.134 13.6492,-3.628 13,-9.312 -0.4868,-4.263 -3.1602,-4.761 -4.4687,-4.75 z m 22,15.594 c -13.3347,-3.601 -9.0094,8.992 -1.5,14 7.5094,5.005 23.5293,18.025 25.0313,22.531 1.5018,4.505 3,8.004 3,5 0,-3.004 1.5068,-4.983 -4,-18.5 -5.5069,-13.517 -22.5313,-23.031 -22.5313,-23.031 z m -21.7813,2.5 c -20.9382,1.666 -38.2051,38.5 -33.625,33.5 4.5803,-5 26.1775,-17.775 33.375,-22.219 7.1974,-4.444 6.2574,-10.28 0.25,-11.281 z m 15.6563,15.468 c -0.9362,0.07 -2.1419,0.537 -3.2813,2.125 -2.2787,3.178 -1.4614,7.615 6.5,13.563 7.9615,5.946 23.1247,20.904 25.5938,27.25 2.4691,6.346 -9.9881,-40.426 -27.2188,-42.688 0,0 -0.6575,-0.318 -1.5937,-0.25 z m -14.8437,0.656 c -0.9387,0 -1.5626,0.344 -1.5626,0.344 -17.0213,3.197 -26.0337,46.592 -24.0312,40.656 2.0025,-5.935 16.0218,-20.564 23.5312,-26.5 7.5094,-5.936 8.0032,-10.041 5.5,-12.781 -1.2515,-1.37 -2.4988,-1.718 -3.4374,-1.719 z m 1.9374,16.407 c -14.4882,4.271 -17.29,59.175 -16.5,53.062 1.0013,-6.008 7.9912,-18.015 15,-30.531 7.0088,-12.515 1.5,-22.531 1.5,-22.531 z m 12.4063,4.281 c -0.88,-0.04 -1.375,0.219 -1.375,0.219 -5.0063,5.006 7.995,22.55 12,32.062 4.005,9.513 6.5006,10.006 6,5.5 -0.5006,-4.506 -4.4937,-24.522 -9.5,-32.031 -3.1289,-4.694 -5.6583,-5.677 -7.125,-5.75 z m -5.2813,8.219 c -0.948,0.07 -1.5937,0.531 -1.5937,0.531 -6.0075,13.016 1.5,39.022 1.5,45.531 0,6.508 1.5,14.031 1.5,14.031 0,0 2.9975,-12.503 5,-35.031 0.8267,-9.3 -0.4062,-18.11 -2.125,-21.719 -1.3752,-2.885 -3.0623,-3.431 -4.2813,-3.343 z"
           style="color:#000000;fill:#588134;fill-opacity:1;fill-rule:nonzero;stroke:none;stroke-width:8;marker:none;visibility:visible;display:inline;overflow:visible;enable-background:accumulate" />
        <path
           id="path26869"
           transform="matrix(0.26458334,0,0,0.26458334,-6.3049604e-6,18.562493)"
           d="m 1361.4688,11022.969 c -0.2677,0.02 -0.5388,0.06 -0.7813,0.09 -7.7597,1.254 -13.6158,0.998 -20.875,1.25 -3.8995,0.178 -4.9784,6.232 -2.4063,9.25 0.5465,-5.462 24.3373,-9.735 34.6876,-5.25 2.3616,1.024 4.4135,1.862 6.25,2.563 2.5355,0.305 4.6663,0.649 5.625,0.969 2.8159,0.938 -13.2696,-8.7 -21.6876,-8.875 -0.2805,0 -0.5448,-0.01 -0.8124,0 z m -42.8126,7.625 c -8.4619,0.875 -20.9775,5.373 -29.5,8.75 11.273,-3.087 27.2733,-5.804 31.25,-4.313 2.4206,0.908 3.565,1.821 4.0626,2.563 1.6279,-3.122 -1.0878,-7.364 -5.8126,-7 z m 29.8438,6.375 c -7.6429,0.145 -11.437,2.281 -12.5,4.469 7.677,-2.871 30.1552,0.765 38.2188,5.281 1.1062,0.619 2.26,1.251 3.4374,1.875 1.9,0.09 4.0054,0.233 6.5626,0.5 -6.2581,-4.256 -11.9901,-7.997 -20,-10 -5.8825,-1.627 -11.1897,-2.211 -15.7188,-2.125 z m -1.5,14.531 c -3.5956,0.122 -4.75,1.125 -4.75,1.125 -5.0129,0.71 -6.0538,2.531 -5.2812,4.313 6.3934,-2.762 21.7031,-0.251 35.8124,5 2.7053,1.006 4.9305,1.901 6.9376,2.718 1.2448,0 2,-0.03 2,-0.03 0,0 -14.1196,-9.497 -25.3126,-12 -4.1973,-0.939 -7.2489,-1.198 -9.4062,-1.125 z"
           style="color:#000000;fill:#81b043;fill-opacity:1;fill-rule:nonzero;stroke:none;stroke-width:7;marker:none;visibility:visible;display:inline;overflow:visible;enable-background:accumulate"
           inkscape:connector-curvature="0" />
        <path
           id="path26871"
           transform="matrix(0.26458334,0,0,0.26458334,-6.3049604e-6,18.562493)"
           d="m 1324.5,11037.531 c -4.8349,1.035 -10.0742,2.485 -15.0312,4 4.8473,-0.263 9.0583,-0.6 11.1874,-1.187 2.0243,-0.559 3.2407,-1.608 3.8438,-2.813 z m 13.2188,2.031 c -2.6155,1.865 -2.5511,4.253 -0.6876,5.594 0.5359,-1.866 1.0498,-3.923 0.6876,-5.594 z m -11.5626,0.688 c -13.5758,0.211 -23.3379,10.202 -28.0312,11.375 -2.5793,0.645 -6.0045,3.249 -8.5312,5.406 11.1085,-7.151 31.7185,-14.75 35.7812,-13.5 1.9212,0.591 2.9512,2.068 3.5312,3.563 1.5752,-3.337 0,-6.75 0,-6.75 -0.9386,-0.08 -1.8448,-0.112 -2.75,-0.09 z m -1.4687,17.281 c -0.4414,0 -0.8993,0.01 -1.3437,0.03 -17.1866,0.785 -35.9614,20.57 -31.9376,16.969 0.07,-0.06 0.1687,-0.1 0.25,-0.156 0.055,-0.04 0.096,-0.09 0.1563,-0.125 0.021,-0.02 0.041,-0.04 0.062,-0.06 7.1721,-6.808 30.155,-13.617 35.25,-12.938 1.1957,0.159 2.3811,-0.257 3.5,-0.969 -0.9063,-1.395 -2.0312,-2.312 -2.0312,-2.312 -1.2879,-0.28 -2.5822,-0.422 -3.9063,-0.438 z"
           style="color:#000000;fill:#81b043;fill-opacity:1;fill-rule:nonzero;stroke:none;stroke-width:7;marker:none;visibility:visible;display:inline;overflow:visible;enable-background:accumulate"
           inkscape:connector-curvature="0" />
        <g
           transform="translate(18.67647,0.26491449)"
           id="g26873">
          <path
             sodipodi:nodetypes="cccsscscssccc"
             inkscape:connector-curvature="0"
             id="path26875"
             d="m 330.21486,2928.0257 c -0.43158,0.1276 -0.62551,0.3975 -0.75,0.5938 -0.12449,0.1962 -0.18699,0.3722 -0.25,0.5624 -0.25204,0.7611 -0.37933,2.029 -0.5,3.3881 -0.24134,2.7183 -0.35643,6.6357 -0.40625,10.6875 -0.0996,8.1036 0.0625,16.6875 0.0625,16.6875 -0.08,0.6008 0.45877,1.207 1.06484,1.1981 0.60608,-0.01 1.12669,-0.6309 1.02891,-1.2291 0,0 -0.16156,-8.5687 -0.0625,-16.625 0.0495,-4.0281 -0.45346,-7.9346 -0.22292,-10.5312 0.0911,-1.026 -0.85324,-1.8724 -0.74716,-2.3568 0.62853,-0.1493 1.21416,-2.5026 0.78258,-2.375 z"
             style="font-size:medium;font-style:normal;font-variant:normal;font-weight:normal;font-stretch:normal;text-indent:0;text-align:start;text-decoration:none;line-height:normal;letter-spacing:normal;word-spacing:normal;text-transform:none;direction:ltr;block-progression:tb;writing-mode:lr-tb;text-anchor:start;baseline-shift:baseline;color:#000000;fill:#83a944;fill-opacity:1;fill-rule:nonzero;stroke:#22451d;stroke-width:2.11666679;stroke-linejoin:round;stroke-opacity:1;marker:none;visibility:visible;display:inline;overflow:visible;enable-background:accumulate;font-family:Sans;-inkscape-font-specification:Sans" />
          <path
             sodipodi:nodetypes="cccsscscssccscc"
             style="font-size:medium;font-style:normal;font-variant:normal;font-weight:normal;font-stretch:normal;text-indent:0;text-align:start;text-decoration:none;line-height:normal;letter-spacing:normal;word-spacing:normal;text-transform:none;direction:ltr;block-progression:tb;writing-mode:lr-tb;text-anchor:start;baseline-shift:baseline;color:#000000;fill:#83a944;fill-opacity:1;fill-rule:nonzero;stroke:none;stroke-width:2.11666679;marker:none;visibility:visible;display:inline;overflow:visible;enable-background:accumulate;font-family:Sans;-inkscape-font-specification:Sans"
             d="m 330.21486,2928.0257 c -0.43158,0.1276 -0.62551,0.3975 -0.75,0.5938 -0.12449,0.1962 -0.18699,0.3722 -0.25,0.5624 -0.25204,0.7611 -0.37933,2.029 -0.5,3.3881 -0.24134,2.7183 -0.35643,6.6357 -0.40625,10.6875 -0.0996,8.1036 0.0625,16.6875 0.0625,16.6875 -0.08,0.6008 0.45877,1.207 1.06484,1.1981 0.60608,-0.01 1.12669,-0.6309 1.02891,-1.2291 0,0 -0.16156,-8.5687 -0.0625,-16.625 0.0495,-4.0281 0.17571,-7.9346 0.40625,-10.5312 0.0911,-1.026 0.20642,-1.8724 0.3125,-2.3568 0.62854,-0.1493 0.99355,-0.9623 0.6875,-1.5312 -0.10208,-0.1914 -0.20713,-0.3985 -0.4375,-0.5938 -0.23037,-0.1953 -0.72467,-0.3776 -1.15625,-0.25 z"
             id="path26877"
             inkscape:connector-curvature="0" />
          <path
             id="path26879"
             transform="matrix(0.26458334,0,0,0.26458334,-18.676476,18.297579)"
             d="m 1319.9062,10997.25 c -0.4181,0 -0.8422,0.04 -1.25,0.156 -1.6311,0.483 -2.3732,1.508 -2.8437,2.25 -0.4705,0.742 -0.6994,1.406 -0.9375,2.125 -0.9526,2.877 -1.4502,7.645 -1.9062,12.781 -0.9122,10.274 -1.343,25.093 -1.5313,40.407 -0.01,0.499 0.01,1 0,1.5 1.0944,-22.609 3.0993,-43.03 6.8437,-47.625 2.5597,-3.141 4.7962,-4.927 6.7188,-5.844 0.1411,-0.82 0.055,-1.665 -0.3438,-2.406 -0.3858,-0.724 -0.7855,-1.512 -1.6562,-2.25 -0.653,-0.554 -1.8394,-1.069 -3.0938,-1.094 z"
             style="font-size:medium;font-style:normal;font-variant:normal;font-weight:normal;font-stretch:normal;text-indent:0;text-align:start;text-decoration:none;line-height:normal;letter-spacing:normal;word-spacing:normal;text-transform:none;direction:ltr;block-progression:tb;writing-mode:lr-tb;text-anchor:start;baseline-shift:baseline;color:#000000;fill:#a2e138;fill-opacity:1;fill-rule:nonzero;stroke:none;stroke-width:2.11666679;marker:none;visibility:visible;display:inline;overflow:visible;enable-background:accumulate;font-family:Sans;-inkscape-font-specification:Sans"
             inkscape:connector-curvature="0" />
        </g>
        <path
           id="path26881"
           transform="matrix(0.26458334,0,0,0.26458334,-6.3049604e-6,18.562493)"
           d="m 1363.0938,11090.719 c 0.8914,1.78 2.4537,4.791 1.5624,7.687 -1.0619,3.452 -6.9103,0.931 -7.375,1.844 4.0477,1.712 8.1138,3.864 10.9376,6.688 6.508,6.507 8.9993,20.503 9.5,18 0.5005,-2.504 -0.4893,-16.017 -9,-28.032 -1.7303,-2.442 -3.6693,-4.473 -5.625,-6.187 z m 3.1874,26.125 c 1.7337,3.408 3.2024,7.217 2.9688,11.656 -0.1489,2.829 -3.628,1.762 -7.2812,-0.09 6.3156,5.224 12.3571,10.884 13.25,13.563 1.5018,4.505 3,8.004 3,5 0,-3.004 1.5068,-4.983 -4,-18.5 -1.7722,-4.35 -4.7312,-8.288 -7.9376,-11.625 z m -60.6874,7.625 c -7.7099,9.771 -11.8376,19.725 -9.3126,16.969 1.6078,-1.756 5.3701,-4.495 9.8126,-7.469 -2.4693,0.155 -2.8997,-3.721 -0.5,-9.5 z m 52.7187,6.812 c 0.7482,2.17 1.2682,4.484 2.0937,7.125 1.1184,3.579 -1.5673,6.287 -5.3124,5.938 7.8922,7.057 17.3713,17.091 19.2812,22 1.8932,4.866 -4.9817,-21.48 -16.0625,-35.063 z m -32.7187,9.813 c -1.1634,0.291 -3.2735,1.42 -5.9063,2.968 -3.7952,2.233 -6.5935,2.226 -8.0625,0.219 -5.2804,11.915 -7.6235,24.112 -6.5,20.781 1.7588,-5.212 12.7851,-17.122 20.5312,-23.968 -0.022,0 -0.039,0 -0.062,0 z m 29.2187,14.625 c 0.158,1.281 0.3449,2.67 0.625,4.281 1.1876,6.829 -1.3402,10.401 -4.2813,8.25 1.8019,3.23 3.4804,6.285 4.5313,8.781 4.005,9.513 6.5006,10.006 6,5.5 -0.4087,-3.679 -3.1592,-17.704 -6.875,-26.812 z m -34.25,6.343 c -4.0053,16.313 -4.8871,35.19 -4.4063,31.469 0.9214,-5.528 6.9322,-16.183 13.3438,-27.593 -1.4437,1.599 -3.4383,2.83 -5.9062,1.843 -1.8216,-0.728 -2.7451,-2.917 -3.0313,-5.719 z m 25.6563,15.719 c -0.2811,0.336 -0.5289,0.855 -0.6876,1.688 -1.0929,5.738 -5.9627,5.972 -8.625,0.906 1.1339,8.267 2.7813,15.607 2.7813,18.656 0,6.508 1.5,14.031 1.5,14.031 0,0 2.9975,-12.503 5,-35.031 0.01,-0.08 0.024,-0.166 0.031,-0.25 z"
           style="color:#000000;fill:#446723;fill-opacity:1;fill-rule:nonzero;stroke:none;stroke-width:7;marker:none;visibility:visible;display:inline;overflow:visible;enable-background:accumulate"
           inkscape:connector-curvature="0" />
      </g>
    </g>
  </g>
</svg>
