<?xml version="1.0" encoding="UTF-8" standalone="no"?>
<!-- Created with Inkscape (http://www.inkscape.org/) -->

<svg
   xmlns:dc="http://purl.org/dc/elements/1.1/"
   xmlns:cc="http://creativecommons.org/ns#"
   xmlns:rdf="http://www.w3.org/1999/02/22-rdf-syntax-ns#"
   xmlns:svg="http://www.w3.org/2000/svg"
   xmlns="http://www.w3.org/2000/svg"
   xmlns:sodipodi="http://sodipodi.sourceforge.net/DTD/sodipodi-0.dtd"
   xmlns:inkscape="http://www.inkscape.org/namespaces/inkscape"
   width="151.67433"
   height="244.25446"
   viewBox="0 0 40.130499 64.625661"
   version="1.1"
   id="svg23489"
   inkscape:version="0.48.5 r10040"
   sodipodi:docname="leaf_07.svg"
   tags="palm tree leaf,tree leaf,tree part, leaves, leaf, palm tree,tree, tree part">
  <defs
     id="defs23483" />
  <sodipodi:namedview
     id="base"
     pagecolor="#7d848b"
     bordercolor="#666666"
     borderopacity="1.0"
     inkscape:pageopacity="0"
     inkscape:pageshadow="2"
     inkscape:zoom="0.30135381"
     inkscape:cx="-817.70873"
     inkscape:cy="-98.758626"
     inkscape:document-units="px"
     inkscape:current-layer="layer1"
     showgrid="false"
     inkscape:pagecheckerboard="false"
     showborder="true"
     units="px"
     inkscape:window-width="1920"
     inkscape:window-height="1017"
     inkscape:window-x="-8"
     inkscape:window-y="-8"
     inkscape:window-maximized="1"
     inkscape:showpageshadow="false"
     guidetolerance="28"
     fit-margin-top="15"
     fit-margin-left="15"
     fit-margin-bottom="15"
     fit-margin-right="15">
    <inkscape:grid
       type="xygrid"
       id="grid24034"
       spacingx="1px"
       spacingy="1px"
       empspacing="8"
       visible="true"
       enabled="true"
       snapvisiblegridlinesonly="true"
       originx="-397.47221px"
       originy="-709.14612px" />
  </sodipodi:namedview>
  <metadata
     id="metadata23486">
    <rdf:RDF>
      <cc:Work
         rdf:about="">
        <dc:format>image/svg+xml</dc:format>
        <dc:type
           rdf:resource="http://purl.org/dc/dcmitype/StillImage" />
        <dc:title></dc:title>
        <cc:license
           rdf:resource="" />
        <dc:creator>
          <cc:Agent>
            <dc:title>Robert Brooks</dc:title>
          </cc:Agent>
        </dc:creator>
      </cc:Work>
    </rdf:RDF>
  </metadata>
  <g
     inkscape:label="Layer 1"
     inkscape:groupmode="layer"
     id="layer1"
     transform="translate(-244.6304,-139.70054)">
    <g
       transform="matrix(1.0634497,0.10245387,-0.10245387,1.0634497,1495.2275,-2200.2318)"
       id="g25559"
       inkscape:transform-center-x="10.448212"
       inkscape:transform-center-y="21.6086"
       style="fill:#7fad44;fill-opacity:1">
      <path
         style="color:#000000;fill:#7fad44;fill-opacity:1;fill-rule:nonzero;stroke:#1d401b;stroke-width:2.19025111;stroke-linecap:round;stroke-linejoin:round;stroke-miterlimit:4;stroke-opacity:1;stroke-dasharray:none;stroke-dashoffset:0;marker:none;visibility:visible;display:inline;overflow:visible;enable-background:accumulate"
         d="m -928.64903,2294.627 c -2.01541,0.6475 -2.53547,3.0796 -3.23045,4.8383 -2.55718,8.6442 -3.37199,17.7106 -3.59897,26.6901 -0.19497,1.5699 0.35151,3.8342 -0.0908,4.9771 -1.53975,0.4473 -1.22881,2.395 -1.39652,3.6308 -0.13971,3.9018 0.20333,7.9258 1.58678,11.6001 0.5341,-0.7016 0.30556,-3.4155 0.60982,-4.6735 0.1988,-3.2874 0.73419,-6.6632 0.0244,-9.9123 -0.64716,-1.4635 -0.21602,-3.323 -0.33591,-4.9399 0.34394,-8.5351 1.33414,-17.0914 3.45862,-25.3762 0.659,-2.0264 1.1087,-4.3174 2.66264,-5.8701 1.81902,-0.5336 2.21144,2.706 2.7964,3.557 -0.24937,-1.5652 -0.31001,-4.4971 -2.48597,-4.5214 z m -6.27557,7.1933 c -3.49522,0.2383 -6.26629,2.8489 -8.40847,5.4017 -0.49828,0.7757 1.65623,-1.1502 2.31935,-1.3571 1.77782,-1.1586 3.78278,-1.8313 5.83573,-2.292 0.7271,-0.055 2.20439,-1.2112 1.13103,-1.7118 -0.28591,-0.05 -0.58887,-0.033 -0.87764,-0.041 z m 5.40739,0.3721 c -1.73143,-0.4496 -2.08993,1.5543 -0.21419,1.6632 1.97085,0.3509 3.99311,0.5445 5.81076,1.4736 0.87452,0.2217 3.10836,1.7078 3.08691,1.4319 -2.31098,-2.2572 -5.32956,-4.5319 -8.68348,-4.5687 z m -6.33344,3.2163 c -2.05216,0.2595 -4.87692,0.4211 -5.9025,2.5255 -0.41077,0.8459 -1.6595,3.4375 -1.36514,3.4491 1.31392,-1.9075 2.80514,-4.0814 5.38423,-4.0904 1.05061,-0.7367 4.6939,0.5287 3.84527,-1.434 -0.6297,-0.2521 -1.26096,-0.4936 -1.96186,-0.4502 z m 4.63021,0.2894 c -1.90846,1.0324 1.79309,2.1629 2.74475,2.2489 2.11313,0.7721 4.02131,2.0547 5.73286,3.4961 -1.53492,-2.507 -4.06342,-5.1314 -7.19508,-5.6847 -0.42259,-0.065 -0.86851,-0.059 -1.28253,-0.06 z m -3.84474,3.1089 c -2.46722,0.4564 -4.23636,2.538 -5.76554,4.3798 -1.20583,2.1217 -1.70419,4.7868 -0.93995,7.1496 0.70914,-1.344 1.12726,-3.2632 1.71916,-4.8162 0.43044,-2.2937 2.96083,-3.1006 4.57845,-4.439 0.97379,-0.2105 2.06575,-2.3002 0.40788,-2.2742 z m 2.83599,0.4299 c -1.82787,1.1983 1.9864,2.2248 2.9481,2.4632 1.82403,0.8565 3.48741,2.058 4.94765,3.4395 -1.44273,-2.5786 -3.65445,-5.1704 -6.66321,-5.8326 -0.3995,-0.072 -0.85248,-0.095 -1.23254,-0.07 z m -0.30591,2.9352 c -0.97597,0.1784 -0.48309,1.6226 0.28869,1.8541 1.4246,1.1235 4.00436,2.244 4.24159,3.861 -1.28877,-1.3635 -3.21765,-2.7007 -5.15043,-2.2497 -0.94653,1.6762 2.11181,2.3688 3.19384,2.9473 1.48399,0.9653 3.26771,1.9707 3.53655,3.8838 0.34272,-0.041 0.31435,-1.2372 0.9453,-0.046 1.54263,1.9411 -0.45197,-1.3796 -0.48402,-2.0496 -0.0961,-2.1722 -0.83424,-4.4054 -2.56001,-5.8389 -1.12239,-1.0452 -2.38434,-2.3125 -4.01151,-2.3621 z m -3.37344,1.6372 c -3.40153,1.028 -5.07464,4.596 -6.14614,7.6984 -0.38747,1.1055 -0.50368,1.9622 0.23852,0.3873 1.41469,-2.2353 3.07359,-4.3763 5.3361,-5.8064 0.61428,-0.4009 2.03158,-2.1523 0.57152,-2.2793 z m 2.86909,5.92 c -2.09216,1.3897 1.92653,2.7212 3.04986,3.2581 1.85848,1.2014 3.50111,2.7494 4.86252,4.4894 -0.56276,-1.7949 -1.78877,-3.8432 -3.21534,-5.3748 -1.20803,-1.3373 -2.86243,-2.3349 -4.69704,-2.3727 z m -3.94396,0.074 c -3.76179,0.5139 -6.15457,4.0066 -7.44133,7.2867 -0.33486,1.3257 -1.85889,2.3959 -2.17427,3.4555 2.28216,-1.9594 4.95619,-3.6429 7.98275,-4.084 1.53468,0.066 2.49892,-2.3225 0.50903,-2.0902 -2.43497,-0.1288 -4.5425,1.4295 -6.16754,3.0812 1.78059,-2.2629 3.92213,-4.311 6.58754,-5.4767 0.7946,-0.3309 2.3323,-1.9281 0.70382,-2.1725 z m 3.68763,4.4731 c -1.68169,0.2728 0.0155,2.2368 1.03208,2.3789 2.81028,0.9515 4.98769,3.1345 6.8307,5.3743 -1.07202,-2.9329 -2.92399,-5.9029 -5.82777,-7.2964 -0.64054,-0.2869 -1.34851,-0.4034 -2.03501,-0.4568 z m -3.99356,4.1341 c -1.6126,0.2045 -2.6865,1.743 -3.69587,2.8942 -1.62996,2.1917 -2.40969,4.8999 -2.67012,7.5912 1.32909,-3.4215 3.75444,-6.4644 6.81279,-8.4922 0.75655,-0.587 0.84891,-2.1123 -0.4468,-1.9932 z m 3.8282,0.5292 c -2.29443,0.941 1.01118,2.8184 1.88666,3.6989 1.84616,1.9663 3.49492,4.2315 4.31455,6.8269 -0.0158,-3.9881 -1.76196,-8.1042 -5.15078,-10.3522 -0.328,-0.1486 -0.6939,-0.1923 -1.05043,-0.1736 z"
         id="path25561"
         inkscape:connector-curvature="0" />
      <path
         style="color:#000000;fill:#83a944;fill-opacity:1;fill-rule:nonzero;stroke:none;stroke-width:2.11666679;marker:none;visibility:visible;display:inline;overflow:visible;enable-background:accumulate"
         d="m -928.64903,2294.627 c -1.91619,0.5913 -2.45606,2.8671 -3.12805,4.5277 -2.57073,8.405 -3.37724,17.2441 -3.68478,25.9932 -0.0385,2.0007 -0.0411,4.0065 0.1321,6.0016 -1.28358,-0.047 -1.55563,1.5455 -1.55669,2.524 -0.32826,4.2438 0.0298,8.6298 1.48264,12.6489 0.57077,-0.1048 0.23048,-2.854 0.54593,-3.6741 0.26404,-3.5199 0.76235,-7.0943 0.20454,-10.605 -0.75268,-1.4394 -0.30448,-3.2419 -0.43488,-4.8502 0.30266,-8.5495 1.3051,-17.1144 3.38114,-25.4221 0.67938,-2.1292 1.1342,-4.5351 2.74762,-6.1796 2.28225,-0.1745 1.5806,4.5873 2.71007,5.9086 4.45368,3.2205 1.49469,-3.9195 -0.44001,-5.7482 -0.54331,-0.5152 -1.13459,-1.1989 -1.95963,-1.1248 z m -6.27557,7.1933 c -3.49522,0.2384 -6.26594,2.8514 -8.40847,5.4017 -0.46041,0.7489 1.86817,-1.3081 2.56606,-1.5011 1.70491,-1.0976 3.63203,-1.7017 5.58902,-2.148 0.7271,-0.055 2.20439,-1.2112 1.13103,-1.7118 -0.28591,-0.05 -0.58887,-0.033 -0.87764,-0.041 z m 5.40739,0.3721 c -2.03769,-0.4307 -1.80432,1.7706 0.0666,1.7358 1.99502,0.2284 3.97865,0.6131 5.79553,1.5159 0.79184,0.1285 4.10008,2.4532 2.305,0.7992 -2.23971,-2.0099 -5.04494,-4.0385 -8.16715,-4.0509 z m -6.33344,3.2163 c -2.05216,0.2595 -4.87692,0.4211 -5.9025,2.5255 -0.45626,0.9292 -1.63168,3.3875 -1.36514,3.4491 1.28211,-1.7234 2.55502,-3.9496 4.97619,-4.0106 1.30112,-0.8252 3.9913,0.4056 4.51559,-1.1453 -0.3405,-0.702 -1.49694,-0.7879 -2.22414,-0.8187 z m 4.63021,0.2894 c -1.88632,1.0463 1.80883,2.1728 2.74475,2.2489 2.11422,0.7696 4.02077,2.0557 5.73286,3.4961 -1.48795,-2.4512 -3.92745,-4.9603 -6.93049,-5.6437 -0.50909,-0.093 -1.04329,-0.1077 -1.54712,-0.1013 z m -3.84474,3.1089 c -2.46788,0.4473 -4.23567,2.5442 -5.76554,4.3798 -1.19327,2.0928 -1.67814,4.7027 -0.98125,7.0486 0.61393,-0.3838 0.89964,-2.6092 1.38929,-3.5975 0.28337,-2.0664 1.65205,-3.5041 3.40301,-4.5016 1.07617,-0.6476 4.19783,-2.3779 1.95429,-3.3281 l 2e-4,0 z m 2.83599,0.4299 c -1.82787,1.1983 1.9864,2.2248 2.9481,2.4632 1.82593,0.8534 3.48513,2.0613 4.94765,3.4395 -1.40607,-2.5401 -3.55747,-5.0183 -6.45649,-5.7996 -0.46678,-0.087 -0.98855,-0.1361 -1.43926,-0.1031 z m -0.30591,2.9352 c -0.85982,0.097 -0.59012,1.4117 0.0677,1.7013 1.53527,1.2979 3.93548,2.019 4.53703,4.0968 -1.29274,-1.4056 -3.23664,-2.7694 -5.20823,-2.3427 -1.00839,1.5488 1.90495,2.3701 2.95797,2.8443 1.47786,0.937 3.35029,1.8948 3.67995,3.7705 0.32305,1.0312 0.25856,-1.4077 0.82559,-0.034 0.93198,1.311 0.96243,0.9506 0.39711,-0.1892 -0.99757,-1.3703 -0.59251,-3.0992 -1.27037,-4.6212 -0.68858,-1.9842 -2.44086,-3.4149 -4.09751,-4.6051 -0.5685,-0.3425 -1.20776,-0.6638 -1.88919,-0.6208 z m -3.37344,1.6372 c -3.39873,1.0257 -5.07576,4.5963 -6.14614,7.6984 -0.38747,1.1055 -0.50368,1.9622 0.23852,0.3873 1.41695,-2.2328 3.06899,-4.3818 5.3361,-5.8064 0.61428,-0.4009 2.03158,-2.1523 0.57152,-2.2793 z m 2.86909,5.92 c -2.09216,1.3897 1.92653,2.7212 3.04986,3.2581 1.85848,1.2014 3.50111,2.7494 4.86252,4.4894 -0.48391,-1.6078 -1.58582,-3.4418 -2.77775,-4.893 -1.28292,-1.5486 -3.0608,-2.8186 -5.13463,-2.8545 z m -3.94396,0.074 c -3.76176,0.5141 -6.15463,4.0064 -7.44133,7.2867 -0.18352,1.1147 -2.30208,2.9817 -2.03099,3.3119 2.2719,-1.8703 4.87239,-3.5238 7.83947,-3.9404 1.53468,0.066 2.49892,-2.3225 0.50903,-2.0902 -2.43504,-0.1288 -4.54245,1.4295 -6.16754,3.0812 1.78059,-2.2629 3.92213,-4.311 6.58754,-5.4767 0.7946,-0.3309 2.3323,-1.9281 0.70382,-2.1725 z m 3.68763,4.4731 c -1.68169,0.2728 0.0155,2.2368 1.03208,2.3789 2.81049,0.9487 4.98965,3.1337 6.8307,5.3743 -1.02765,-2.8396 -2.79898,-5.6638 -5.51141,-7.1505 -0.72689,-0.3798 -1.54777,-0.5467 -2.35137,-0.6027 z m -3.99356,4.1341 c -1.50114,0.1569 -2.50237,1.5751 -3.47264,2.6048 -1.77877,2.235 -2.62343,5.0699 -2.89335,7.8806 1.19971,-3.0911 3.30568,-5.8923 5.96138,-7.8796 1.09802,-0.3267 2.31341,-2.5769 0.40461,-2.6058 z m 3.8282,0.5292 c -2.29443,0.941 1.01118,2.8184 1.88666,3.6989 1.84616,1.9663 3.49492,4.2315 4.31455,6.8269 -0.0158,-3.9881 -1.76196,-8.1042 -5.15078,-10.3522 -0.328,-0.1486 -0.6939,-0.1923 -1.05043,-0.1736 z"
         id="path25563"
         inkscape:connector-curvature="0"
         sodipodi:nodetypes="cccccccccccccccccccccccccccccccccccccccccccccccccccccccccccccccccccccccccccccccccccccccccccccccc" />
      <path
         inkscape:connector-curvature="0"
         style="opacity:0.37168142;color:#000000;fill:#a2e138;fill-opacity:1;fill-rule:nonzero;stroke:none;stroke-width:2.11666679;marker:none;visibility:visible;display:inline;overflow:visible;enable-background:accumulate"
         d="m -3021.1562,8127.5 c -6.9639,1.4353 -9.6575,9.274 -12.5938,14.9062 -3.5665,8.6062 -6.5929,17.4175 -9.1875,26.3438 0.093,0.1593 0.1845,0.3237 0.25,0.5 -0.1947,0.4335 -0.409,0.7917 -0.6875,1.0938 -0.9727,3.4185 -1.8942,6.8605 -2.75,10.3124 0.059,0.5331 -0.1104,1.0671 -0.4062,1.5938 0,0.01 0,0.023 0,0.031 -4.0434,16.6674 -6.825,33.666 -9.0626,50.625 -0.8161,7.048 -1.4954,14.1186 -1.5624,21.2188 -4.5142,-0.6023 -6.0074,4.922 -6.3438,8.375 -1.2811,7.3207 -2.0006,14.8332 -1.9375,22.3125 0.094,-6.6465 0.7994,-13.3086 1.9375,-19.8125 0.3364,-3.453 1.8296,-8.9773 6.3438,-8.375 0.067,-7.1002 0.7463,-14.1708 1.5624,-21.2188 4.0603,-30.7734 9.9132,-61.7104 21.8438,-90.5 2.9363,-5.6322 5.6299,-13.4709 12.5938,-14.9062 2.9369,0.019 4.7889,2.622 6.5312,4.625 3.3457,3.8339 7.2141,13.2144 7.7812,19.0312 0.6764,-5.1577 -3.9023,-17.0863 -7.7812,-21.5312 -1.7423,-2.003 -3.5943,-4.606 -6.5312,-4.625 z m -24.5938,23.25 c -12.4167,-0.347 -23.1025,7.9465 -31.5312,16.2188 -1.2363,1.6355 2.1905,-0.6186 5.4062,-2.4688 7.4254,-6.3108 16.2301,-11.5266 26.125,-11.25 1.0164,0.1264 2.0704,0.1638 3.0625,0.4375 0.2607,0.1536 0.4868,0.3333 0.6563,0.5 0.7664,-1.0076 0.822,-2.129 -0.6563,-3 -0.9921,-0.2737 -2.0461,-0.3111 -3.0625,-0.4375 z m 16.625,2.75 c -2.6557,0.015 -3.5002,2.05 -2.6562,3.8438 0.6347,-1.1379 2.2564,-1.7895 4.9687,-0.9376 9.5048,0.9539 17.6761,7.1224 24.375,13.8438 3.509,2.4406 6.8404,4.9034 3.0937,0.7188 -7.2211,-7.8551 -16.4538,-15.9572 -27.4687,-17.0626 -0.8806,-0.2766 -1.6532,-0.41 -2.3125,-0.4062 z m -21.125,9.5938 c -7.3309,0.218 -17.3524,-0.1721 -21.6875,6.9062 -1.9262,3.1243 -6.9197,11.4107 -6,11.7188 0.5907,-0.6527 1.2132,-1.3463 1.8125,-2.0313 1.3925,-2.5575 3.191,-5.5711 4.1875,-7.1875 4.3351,-7.0783 14.3566,-6.6882 21.6875,-6.9062 2.0768,0.2892 5.1573,0.8014 6.75,2.375 0.3317,-0.326 0.5896,-0.7224 0.8125,-1.2188 -0.963,-2.5933 -5.0065,-3.3003 -7.5625,-3.6562 z m 16.25,2.5937 c -2.312,1.0059 -2.4542,2.2646 -1.5312,3.5 0.3369,-0.3419 0.8299,-0.6949 1.5312,-1 1.7803,0.1487 3.6412,0.4049 5.4062,0.9063 8.3276,2.7578 14.9812,9.5315 19.5626,16.8437 1.0178,0.9554 2.0282,1.9148 3,2.9063 -4.418,-9.1569 -12.1963,-18.8171 -22.5626,-22.25 -1.765,-0.5014 -3.6259,-0.7576 -5.4062,-0.9063 z m -14.625,9.6875 c -8.8619,0.7395 -15.8203,7.5418 -21.8438,13.5 -4.1123,5.831 -6.5726,13.0802 -6.3124,20.2812 0.3232,-6.358 2.6795,-12.63 6.3124,-17.7812 6.0235,-5.9582 12.9819,-12.7605 21.8438,-13.5 1.0961,0.594 1.7794,1.1919 2.1562,1.8125 0.7687,-1.4397 0.3969,-2.9288 -2.1562,-4.3125 z m 9.8438,2.4688 c -2.1433,1.1273 -2.3176,2.3958 -1.4688,3.625 0.3162,-0.3817 0.7833,-0.7645 1.4688,-1.125 1.6019,0.037 3.4446,0.3779 5.0624,0.8437 8.062,3.0281 14.0044,9.8331 18.1563,17.3125 0.9027,0.9355 1.803,1.9003 2.6563,2.875 -4.0988,-9.4428 -10.8468,-18.9444 -20.8126,-22.6875 -1.6178,-0.4658 -3.4605,-0.807 -5.0624,-0.8437 z m -2.0626,10.25 c -2.0256,0.033 -2.4935,2.1108 -1.9374,3.875 0.2909,-0.7751 0.8973,-1.3581 1.9374,-1.375 2.4196,0.08 4.5789,1.4416 6.4688,2.8437 5.4421,4.7638 11.1195,10.4193 12.875,17.6563 1.8749,5.602 -0.1485,11.5433 2.9062,16.7187 0.096,0.2515 0.1674,0.4577 0.25,0.6875 1.1113,1.3829 0.9314,-0.09 -0.25,-3.1875 -3.0547,-5.1754 -1.0313,-11.1167 -2.9062,-16.7187 -1.7555,-7.237 -7.4329,-12.8925 -12.875,-17.6563 -1.8899,-1.4021 -4.0492,-2.7638 -6.4688,-2.8437 z m -12.4687,4.625 c -8.1528,1.6276 -14.0237,7.4489 -18.4687,14.25 -1.457,3.6156 -2.8281,8.0879 -4.5313,8.9374 -0.039,-0.1976 -0.06,-0.3955 -0.094,-0.5937 -0.4076,0.8403 -0.8408,1.6721 -1.2188,2.5 -1.5542,3.3608 -2.2523,6.0489 -0.1562,2.8437 0.053,-0.1169 0.1013,-0.2249 0.1562,-0.3437 4.8324,-10.5842 11.9687,-22.5981 24.3125,-25.0625 0.8228,0.1521 1.3615,0.4212 1.6875,0.7812 0.7452,-1.4969 0.5973,-2.89 -1.6875,-3.3124 z m 10.5,7.2812 c -0.438,0 -0.8998,0.041 -1.3437,0.094 -1.0525,1.3197 -1.1538,2.5421 -0.6876,3.6874 0.1571,-0.3891 0.3647,-0.7826 0.6876,-1.1874 7.1033,-0.8356 13.5092,4.6309 17.5937,10.0312 -0.4427,-2.3555 -1.5656,-4.2796 -3.0313,-6 -0.052,-0.061 -0.1032,-0.1269 -0.1562,-0.1875 -0.093,-0.094 -0.1865,-0.1884 -0.2812,-0.2813 -3.534,-3.4638 -7.9628,-6.2056 -12.7813,-6.1562 z m -16.3125,13.5312 c -6.6866,0.2662 -12.4387,3.2344 -17.2188,7.5313 -0.1836,0.2329 -0.3805,0.4537 -0.5624,0.6875 -2.06,3.4643 -2.476,3.39 -2.0313,1.875 -3.6372,3.9063 -6.622,8.5337 -8.9375,13.0938 -1.0267,3.8716 -9.157,9.7424 -8.3125,11 1.2814,-0.863 2.6092,-1.7185 3.9375,-2.5313 1.9156,-1.9884 3.901,-4.1815 4.375,-5.9687 0.249,-0.4904 0.5169,-0.978 0.7812,-1.4688 -0.1196,0.099 -0.2565,0.182 -0.375,0.2812 0.1529,-0.1599 0.3148,-0.3096 0.4688,-0.4687 5.7503,-10.5961 15.0905,-21.0224 27.875,-21.5313 0.9356,0.234 1.5081,0.5687 1.875,0.9688 0.8482,-1.4258 0.6949,-2.8262 -1.875,-3.4688 z m 13.9375,1.0626 c -2.406,1.2841 -2.7687,2.7459 -2.0313,4.2187 0.362,-0.5934 1.0142,-1.1759 2.0313,-1.7187 7.3069,0.8318 13.155,5.942 17.1563,11.8437 2.8417,4.2298 5.394,9.2049 6.9687,13.9375 0.3939,0.5813 0.7792,1.159 1.1563,1.75 -1.1612,-5.8389 -4.4118,-12.6918 -8.125,-18.2188 -4.0013,-5.9016 -9.8494,-10.9806 -17.1563,-11.8124 z m -22.6563,14.4687 c -3.2235,0.056 -6.3317,0.8925 -9.2812,2.2187 -3.7178,2.7567 -7.1505,5.9086 -10.3438,9.25 6.297,-5.2767 14.2624,-10.0637 22.8126,-8.7812 1.8717,-0.038 2.9523,0.5179 3.4374,1.3125 0.8207,-1.9044 0.096,-3.8838 -3.4374,-3.8125 -1.0688,-0.1603 -2.1391,-0.2059 -3.1876,-0.1875 z m 20.1876,1.5 c -2.7153,0.1761 -3.0966,1.7887 -2.4063,3.5937 0.3788,-0.6013 1.1152,-1.01 2.4063,-1.0937 2.817,0.4709 5.6574,1.3499 8.0937,2.9375 7.7971,5.305 12.8085,13.8616 15.75,22.75 0.4277,0.6143 0.8668,1.2271 1.2813,1.8438 -2.6614,-10.3712 -7.9639,-20.9246 -17.0313,-27.0938 -2.4363,-1.5876 -5.2767,-2.4666 -8.0937,-2.9375 z m -15.5,13.2187 c -5.3513,0.043 -9.3506,4.7271 -13.125,8.0313 -7.0378,7.2831 -10.998,16.9845 -12.9063,26.8125 0.3262,-0.6481 0.6818,-1.2687 1.0313,-1.9062 0,-0.01 0,-0.022 0,-0.031 2.1634,-8.265 5.9037,-16.1956 11.875,-22.375 3.7744,-3.3042 7.7737,-7.9567 13.125,-8 1.6547,0.1847 2.611,0.7589 3.0312,1.5625 0.6751,-1.9203 0.097,-3.7445 -3.0312,-4.0938 z m 13.3437,3.1876 c -3.0251,0.9131 -3.5254,2.4973 -2.8125,4.3124 0.4174,-0.7375 1.3,-1.3559 2.8125,-1.8124 1.2647,0.055 2.5492,0.3327 3.6563,0.9687 9.6315,7.8166 14.4673,20.0993 14.8124,32.3437 0.2914,-13.0537 -4.5222,-26.4925 -14.8124,-34.8437 -1.1071,-0.636 -2.3916,-0.9135 -3.6563,-0.9687 z m -6.1875,6.4062 c -0.1058,2.2942 0.082,4.5191 0.9375,6.625 0.045,0.7346 0.073,1.4851 0.094,2.2188 0.011,-1.5684 0,-3.1463 -0.094,-4.7188 -0.5418,-1.334 -0.8399,-2.7031 -0.9375,-4.125 z"
         transform="matrix(0.28073822,-0.02704662,0.02704662,0.28073822,-300.31407,-68.785505)"
         id="path25565" />
    </g>
  </g>
</svg>
