<?xml version="1.0" encoding="UTF-8" standalone="no"?>
<!-- Created with Inkscape (http://www.inkscape.org/) -->

<svg
   xmlns:dc="http://purl.org/dc/elements/1.1/"
   xmlns:cc="http://creativecommons.org/ns#"
   xmlns:rdf="http://www.w3.org/1999/02/22-rdf-syntax-ns#"
   xmlns:svg="http://www.w3.org/2000/svg"
   xmlns="http://www.w3.org/2000/svg"
   xmlns:sodipodi="http://sodipodi.sourceforge.net/DTD/sodipodi-0.dtd"
   xmlns:inkscape="http://www.inkscape.org/namespaces/inkscape"
   width="205.11761"
   height="213.73534"
   viewBox="0 0 54.2707 56.55081"
   version="1.1"
   id="svg23489"
   inkscape:version="0.48.5 r10040"
   sodipodi:docname="leaf_04.svg"
   tags="palm tree leaf,tree leaf,tree part, leaves, leaf, palm tree,tree, tree part">
  <defs
     id="defs23483" />
  <sodipodi:namedview
     id="base"
     pagecolor="#7d848b"
     bordercolor="#666666"
     borderopacity="1.0"
     inkscape:pageopacity="0"
     inkscape:pageshadow="2"
     inkscape:zoom="0.30135381"
     inkscape:cx="-367.03803"
     inkscape:cy="-88.784794"
     inkscape:document-units="px"
     inkscape:current-layer="layer1"
     showgrid="false"
     inkscape:pagecheckerboard="false"
     showborder="true"
     units="px"
     inkscape:window-width="1920"
     inkscape:window-height="1017"
     inkscape:window-x="-8"
     inkscape:window-y="-8"
     inkscape:window-maximized="1"
     inkscape:showpageshadow="false"
     guidetolerance="28"
     fit-margin-top="15"
     fit-margin-left="15"
     fit-margin-bottom="15"
     fit-margin-right="15">
    <inkscape:grid
       type="xygrid"
       id="grid24034"
       spacingx="1px"
       spacingy="1px"
       empspacing="8"
       visible="true"
       enabled="true"
       snapvisiblegridlinesonly="true"
       originx="53.20525px"
       originy="-698.93509px" />
  </sodipodi:namedview>
  <metadata
     id="metadata23486">
    <rdf:RDF>
      <cc:Work
         rdf:about="">
        <dc:format>image/svg+xml</dc:format>
        <dc:type
           rdf:resource="http://purl.org/dc/dcmitype/StillImage" />
        <dc:title></dc:title>
        <cc:license
           rdf:resource="" />
        <dc:creator>
          <cc:Agent>
            <dc:title>Robert Brooks</dc:title>
          </cc:Agent>
        </dc:creator>
      </cc:Work>
    </rdf:RDF>
  </metadata>
  <g
     inkscape:label="Layer 1"
     inkscape:groupmode="layer"
     id="layer1"
     transform="translate(-125.38865,-150.47706)">
    <g
       id="g25971"
       transform="translate(-139.99271,-2851.322)">
      <path
         style="font-size:medium;font-style:normal;font-variant:normal;font-weight:normal;font-stretch:normal;text-indent:0;text-align:start;text-decoration:none;line-height:normal;letter-spacing:normal;word-spacing:normal;text-transform:none;direction:ltr;block-progression:tb;writing-mode:lr-tb;text-anchor:start;baseline-shift:baseline;color:#000000;fill:#7fad44;fill-opacity:1;stroke:#1d401b;stroke-width:2.04750562;stroke-linejoin:round;stroke-miterlimit:4;stroke-opacity:1;stroke-dasharray:none;marker:none;visibility:visible;display:inline;overflow:visible;enable-background:accumulate;font-family:Sans;-inkscape-font-specification:Sans"
         d="m 290.50656,3007.2396 c 0.94127,0.2157 1.92658,0.5143 2.93771,0.9015 8.07462,3.0961 11.78403,9.0285 13.36383,14.2606 0.78989,2.6161 1.04853,5.0738 1.07571,6.9285 0.0135,0.9275 -0.49426,4.0053 -0.74777,3.8446 -0.25347,-0.1607 0.33947,-2.6276 0.0254,-4.0633 -0.38149,-1.744 -0.63966,-3.9345 -1.39877,-6.4486 -1.51821,-5.0283 -5.01054,-10.6295 -12.73922,-13.593 -7.71531,-2.9585 -12.93295,-0.4265 -16.39915,2.8513 -3.46617,3.2777 -5.04123,7.2953 -5.04123,7.2953 -0.0635,0.2779 -0.41674,0.4625 -0.70682,0.3692 -0.29004,-0.093 -0.44862,-0.4421 -0.31721,-0.6982 0,0 1.60553,-4.2178 5.26753,-7.6808 3.20427,-3.0302 8.09211,-5.4799 14.68006,-3.967 z"
         id="path25185"
         inkscape:connector-curvature="0"
         sodipodi:nodetypes="ccccssccscscscc" />
      <g
         transform="matrix(1.1055148,0,0,1.1055148,380.82251,-123.59382)"
         id="g25187">
        <g
           id="g25189"
           transform="matrix(-0.76998555,-0.03551739,-0.043138,0.71101253,-63.274454,763.69311)"
           style="fill:#7fad44;fill-opacity:1">
          <path
             transform="matrix(0.26458334,0,0,0.26458334,-6.3049604e-6,18.562493)"
             inkscape:connector-curvature="0"
             id="path25191"
             d="m -565.23438,10908.612 c -24.21875,3.125 -27.73437,33.203 -28.90625,37.5 -1.17187,4.297 6.64063,26.172 5.85938,22.656 -0.78125,-3.515 -1.17188,-16.796 -0.39063,-21.093 0.78125,-4.297 8.20313,-22.657 15.23438,-26.563 7.03125,-3.906 12.89062,-8.203 11.71875,-10.547 -1.17188,-2.343 -3.51563,-1.953 -3.51563,-1.953 z"
             style="color:#000000;fill:#7fad44;fill-opacity:1;fill-rule:nonzero;stroke:#1d401b;stroke-width:9.4473772;stroke-linecap:round;stroke-linejoin:round;stroke-miterlimit:4;stroke-opacity:1;stroke-dasharray:none;stroke-dashoffset:0;marker:none;visibility:visible;display:inline;overflow:visible;enable-background:accumulate" />
          <path
             style="color:#000000;fill:#a2e138;fill-opacity:1;fill-rule:nonzero;stroke:none;stroke-width:12;marker:none;visibility:visible;display:inline;overflow:visible;enable-background:accumulate"
             d="m -565.23438,10908.612 c -24.21875,3.125 -27.73437,33.203 -28.90625,37.5 -1.17187,4.297 6.64063,26.172 5.85938,22.656 -0.78125,-3.515 -1.17188,-16.796 -0.39063,-21.093 0.78125,-4.297 8.20313,-22.657 15.23438,-26.563 7.03125,-3.906 12.89062,-8.203 11.71875,-10.547 -1.17188,-2.343 -3.51563,-1.953 -3.51563,-1.953 z"
             id="path25193"
             inkscape:connector-curvature="0"
             transform="matrix(0.26458334,0,0,0.26458334,-6.3049604e-6,18.562493)" />
        </g>
        <g
           transform="matrix(-0.76998555,-0.03551739,-0.043138,0.71101253,-60.674407,765.75299)"
           id="g25195"
           style="fill:#7fad44;fill-opacity:1">
          <path
             style="color:#000000;fill:#7fad44;fill-opacity:1;fill-rule:nonzero;stroke:#1d401b;stroke-width:9.4473772;stroke-linecap:round;stroke-linejoin:round;stroke-miterlimit:4;stroke-opacity:1;stroke-dasharray:none;stroke-dashoffset:0;marker:none;visibility:visible;display:inline;overflow:visible;enable-background:accumulate"
             d="m -565.23438,10908.612 c -24.21875,3.125 -27.73437,33.203 -28.90625,37.5 -1.17187,4.297 6.64063,26.172 5.85938,22.656 -0.78125,-3.515 -1.17188,-16.796 -0.39063,-21.093 0.78125,-4.297 8.20313,-22.657 15.23438,-26.563 7.03125,-3.906 12.89062,-8.203 11.71875,-10.547 -1.17188,-2.343 -3.51563,-1.953 -3.51563,-1.953 z"
             id="path25197"
             inkscape:connector-curvature="0"
             transform="matrix(0.26458334,0,0,0.26458334,-6.3049604e-6,18.562493)" />
          <path
             transform="matrix(0.26458334,0,0,0.26458334,-6.3049604e-6,18.562493)"
             inkscape:connector-curvature="0"
             id="path25199"
             d="m -565.23438,10908.612 c -24.21875,3.125 -27.73437,33.203 -28.90625,37.5 -1.17187,4.297 6.64063,26.172 5.85938,22.656 -0.78125,-3.515 -1.17188,-16.796 -0.39063,-21.093 0.78125,-4.297 8.20313,-22.657 15.23438,-26.563 7.03125,-3.906 12.89062,-8.203 11.71875,-10.547 -1.17188,-2.343 -3.51563,-1.953 -3.51563,-1.953 z"
             style="color:#000000;fill:#7fad44;fill-opacity:1;fill-rule:nonzero;stroke:none;stroke-width:12;marker:none;visibility:visible;display:inline;overflow:visible;enable-background:accumulate" />
          <path
             sodipodi:nodetypes="cccccccccccscccccc"
             inkscape:connector-curvature="0"
             id="path25201"
             transform="matrix(-0.3426622,-0.01711709,-0.02078973,0.37108339,-19.868716,-1051.8748)"
             d="m -270.40625,10651.312 c -0.0256,0.04 -0.0691,0.05 -0.0937,0.09 -0.96061,1.556 2.96747,4.618 7.90625,7.532 -1.04091,-1.315 -1.43742,-2.501 -0.78125,-3.376 0.93999,-1.253 2.40323,-1.861 4,-2.093 -3.55185,-0.63 -6.81081,-4.468 -11.03125,-2.157 z m 11.03125,2.157 c 0.10026,0.01 0.18189,0.02 0.28125,0.03 -0.0305,-0.02 -0.0631,-0.04 -0.0937,-0.06 -0.0638,0 -0.12413,0.02 -0.1875,0.03 z m 0.84375,9.187 c 3.80967,5.123 6.86367,13.695 7.1875,16.094 0.41619,3.083 -0.46557,12.529 -1.21875,15 -0.66215,2.173 4.63377,-9.386 5.4375,-14.312 -2.94463,-1.218 -5.01999,-2.851 -4.90625,-5.126 0.16964,-3.392 1.7827,-4.261 3.4375,-4.25 -0.0979,-0.371 -0.20065,-0.741 -0.3125,-1.124 -2.80901,-1.623 -6.56557,-3.935 -9.625,-6.282 z"
             style="color:#000000;fill:#a2e138;fill-opacity:1;fill-rule:nonzero;stroke:none;stroke-width:12;marker:none;visibility:visible;display:inline;overflow:visible;enable-background:accumulate" />
        </g>
        <g
           id="g25203"
           transform="matrix(-0.76998555,-0.03551739,-0.043138,0.71101253,-57.83679,769.91102)"
           style="fill:#7fad44;fill-opacity:1">
          <path
             transform="matrix(0.26458334,0,0,0.26458334,-6.3049604e-6,18.562493)"
             inkscape:connector-curvature="0"
             id="path25205"
             d="m -565.23438,10908.612 c -24.21875,3.125 -27.73437,33.203 -28.90625,37.5 -1.17187,4.297 6.64063,26.172 5.85938,22.656 -0.78125,-3.515 -1.17188,-16.796 -0.39063,-21.093 0.78125,-4.297 8.20313,-22.657 15.23438,-26.563 7.03125,-3.906 12.89062,-8.203 11.71875,-10.547 -1.17188,-2.343 -3.51563,-1.953 -3.51563,-1.953 z"
             style="color:#000000;fill:#7fad44;fill-opacity:1;fill-rule:nonzero;stroke:#1d401b;stroke-width:9.4473772;stroke-linecap:round;stroke-linejoin:round;stroke-miterlimit:4;stroke-opacity:1;stroke-dasharray:none;stroke-dashoffset:0;marker:none;visibility:visible;display:inline;overflow:visible;enable-background:accumulate" />
          <path
             style="color:#000000;fill:#7fad44;fill-opacity:1;fill-rule:nonzero;stroke:none;stroke-width:12;marker:none;visibility:visible;display:inline;overflow:visible;enable-background:accumulate"
             d="m -565.23438,10908.612 c -24.21875,3.125 -27.73437,33.203 -28.90625,37.5 -1.17187,4.297 6.64063,26.172 5.85938,22.656 -0.78125,-3.515 -1.17188,-16.796 -0.39063,-21.093 0.78125,-4.297 8.20313,-22.657 15.23438,-26.563 7.03125,-3.906 12.89062,-8.203 11.71875,-10.547 -1.17188,-2.343 -3.51563,-1.953 -3.51563,-1.953 z"
             id="path25207"
             inkscape:connector-curvature="0"
             transform="matrix(0.26458334,0,0,0.26458334,-6.3049604e-6,18.562493)" />
          <path
             inkscape:connector-curvature="0"
             id="path25209"
             transform="matrix(-0.3426622,-0.01711709,-0.02078973,0.37108339,-15.866996,-1057.523)"
             d="m -257.59375,10665.844 c -0.61197,0.04 -1.56037,0.266 -2.1875,1.281 -0.94853,1.536 2.89913,4.526 7.75,7.406 -8.8e-4,-0.07 -0.004,-0.145 0,-0.219 0.23118,-4.623 3.13802,-4.564 5.15625,-3.968 -0.37484,-0.307 -0.75303,-0.622 -1.15625,-0.906 -0.85103,-0.483 -1.71898,-0.989 -2.78125,-1.626 -0.0211,-0.01 -0.0414,-0.02 -0.0625,-0.03 -1.79645,-0.874 -3.80583,-1.525 -6.09375,-1.906 0,0 -0.25782,-0.05 -0.625,-0.03 z M -247,10679.469 c 3.43855,5.172 6.07365,12.767 6.375,15 0.20384,1.51 0.093,4.539 -0.15625,7.531 0.0209,-0.02 0.0406,-0.04 0.0625,-0.06 0.81424,-0.815 1.73072,-1.13 2.65625,-1.126 0.62164,-1.716 1.15797,-3.386 1.46875,-4.75 -1.66918,-3.482 -2.60516,-6.912 -0.78125,-8.312 -0.4031,-1.831 -0.99745,-3.901 -1.8125,-6.062 -2.71638,-0.583 -5.49884,-1.278 -7.8125,-2.219 z m 5.875,26.125 c -0.21214,1.671 -0.45775,3.09 -0.6875,3.844 -0.25201,0.827 0.38292,-0.412 1.28125,-2.438 -0.23343,-0.48 -0.44592,-0.954 -0.59375,-1.406 z"
             style="color:#000000;fill:#a2e138;fill-opacity:1;fill-rule:nonzero;stroke:none;stroke-width:12;marker:none;visibility:visible;display:inline;overflow:visible;enable-background:accumulate" />
        </g>
        <g
           transform="matrix(-0.76998555,-0.03551739,-0.043138,0.71101253,-55.22357,774.10997)"
           id="g25211"
           style="fill:#7fad44;fill-opacity:1">
          <path
             style="color:#000000;fill:#7fad44;fill-opacity:1;fill-rule:nonzero;stroke:#1d401b;stroke-width:9.4473772;stroke-linecap:round;stroke-linejoin:round;stroke-miterlimit:4;stroke-opacity:1;stroke-dasharray:none;stroke-dashoffset:0;marker:none;visibility:visible;display:inline;overflow:visible;enable-background:accumulate"
             d="m -565.23438,10908.612 c -24.21875,3.125 -27.73437,33.203 -28.90625,37.5 -1.17187,4.297 6.64063,26.172 5.85938,22.656 -0.78125,-3.515 -1.17188,-16.796 -0.39063,-21.093 0.78125,-4.297 8.20313,-22.657 15.23438,-26.563 7.03125,-3.906 12.89062,-8.203 11.71875,-10.547 -1.17188,-2.343 -3.51563,-1.953 -3.51563,-1.953 z"
             id="path25213"
             inkscape:connector-curvature="0"
             transform="matrix(0.26458334,0,0,0.26458334,-6.3049604e-6,18.562493)" />
          <path
             transform="matrix(0.26458334,0,0,0.26458334,-6.3049604e-6,18.562493)"
             inkscape:connector-curvature="0"
             id="path25215"
             d="m -565.23438,10908.612 c -24.21875,3.125 -27.73437,33.203 -28.90625,37.5 -1.17187,4.297 6.64063,26.172 5.85938,22.656 -0.78125,-3.515 -1.17188,-16.796 -0.39063,-21.093 0.78125,-4.297 8.20313,-22.657 15.23438,-26.563 7.03125,-3.906 12.89062,-8.203 11.71875,-10.547 -1.17188,-2.343 -3.51563,-1.953 -3.51563,-1.953 z"
             style="color:#000000;fill:#7fad44;fill-opacity:1;fill-rule:nonzero;stroke:none;stroke-width:12;marker:none;visibility:visible;display:inline;overflow:visible;enable-background:accumulate" />
          <path
             inkscape:connector-curvature="0"
             id="path25217"
             transform="matrix(-0.3426622,-0.01711709,-0.02078973,0.37108339,-12.152678,-1063.243)"
             d="m -247.71875,10681.688 c -0.61197,0.04 -1.52912,0.297 -2.15625,1.312 -1.00344,1.625 3.31704,4.879 8.5625,7.906 1.8184,1.05 3.58972,3.333 5.15625,6 -2.07756,-4.068 -3.38507,-8.275 -0.65625,-9.468 0.27879,-0.122 0.54279,-0.24 0.8125,-0.344 -2.76918,-2.574 -6.37061,-4.589 -11.09375,-5.375 0,0 -0.25782,-0.05 -0.625,-0.03 z m 12.9375,17.75 c 0.63583,1.263 1.20549,2.546 1.71875,3.781 0.91116,0.777 1.63629,1.524 2,1.937 -0.47313,-0.644 -2.05545,-2.885 -3.71875,-5.718 z"
             style="color:#000000;fill:#a2e138;fill-opacity:1;fill-rule:nonzero;stroke:none;stroke-width:12;marker:none;visibility:visible;display:inline;overflow:visible;enable-background:accumulate" />
        </g>
        <g
           id="g25219"
           transform="matrix(-0.76351099,-0.09596288,-0.10857999,0.70540161,135.81538,784.67931)"
           style="fill:#7fad44;fill-opacity:1">
          <path
             transform="matrix(0.26458334,0,0,0.26458334,-6.3049604e-6,18.562493)"
             inkscape:connector-curvature="0"
             id="path25221"
             d="m -565.23438,10908.612 c -24.21875,3.125 -27.73437,33.203 -28.90625,37.5 -1.17187,4.297 6.64063,26.172 5.85938,22.656 -0.78125,-3.515 -1.17188,-16.796 -0.39063,-21.093 0.78125,-4.297 8.20313,-22.657 15.23438,-26.563 7.03125,-3.906 12.89062,-8.203 11.71875,-10.547 -1.17188,-2.343 -3.51563,-1.953 -3.51563,-1.953 z"
             style="color:#000000;fill:#7fad44;fill-opacity:1;fill-rule:nonzero;stroke:#1d401b;stroke-width:9.4473772;stroke-linecap:round;stroke-linejoin:round;stroke-miterlimit:4;stroke-opacity:1;stroke-dasharray:none;stroke-dashoffset:0;marker:none;visibility:visible;display:inline;overflow:visible;enable-background:accumulate" />
          <path
             style="color:#000000;fill:#7fad44;fill-opacity:1;fill-rule:nonzero;stroke:none;stroke-width:12;marker:none;visibility:visible;display:inline;overflow:visible;enable-background:accumulate"
             d="m -565.23438,10908.612 c -24.21875,3.125 -27.73437,33.203 -28.90625,37.5 -1.17187,4.297 6.64063,26.172 5.85938,22.656 -0.78125,-3.515 -1.17188,-16.796 -0.39063,-21.093 0.78125,-4.297 8.20313,-22.657 15.23438,-26.563 7.03125,-3.906 12.89062,-8.203 11.71875,-10.547 -1.17188,-2.343 -3.51563,-1.953 -3.51563,-1.953 z"
             id="path25223"
             inkscape:connector-curvature="0"
             transform="matrix(0.26458334,0,0,0.26458334,-6.3049604e-6,18.562493)" />
          <path
             transform="matrix(0.26458334,0,0,0.26458334,-6.3049604e-6,18.562493)"
             inkscape:connector-curvature="0"
             id="path25225"
             d="m -565.23438,10908.612 c -24.21875,3.125 -27.73437,33.203 -28.90625,37.5 -1.17187,4.297 6.64063,26.172 5.85938,22.656 -0.78125,-3.515 -1.17188,-16.796 -0.39063,-21.093 0.78125,-4.297 8.20313,-22.657 15.23438,-26.563 7.03125,-3.906 12.89062,-8.203 11.71875,-10.547 -1.17188,-2.343 -3.51563,-1.953 -3.51563,-1.953 z"
             style="color:#000000;fill:#7fad44;fill-opacity:1;fill-rule:nonzero;stroke:none;stroke-width:12;marker:none;visibility:visible;display:inline;overflow:visible;enable-background:accumulate" />
          <path
             inkscape:connector-curvature="0"
             id="path25227"
             transform="matrix(-0.33995809,-0.04624792,-0.05232855,0.36796307,326.02705,-1041.7191)"
             d="m -247.8125,10694.156 c -0.61285,-0.01 -1.56303,0.163 -2.28125,1.125 -1.14925,1.541 2.86818,5.133 7.8125,8.563 0.30902,0.214 0.60772,0.461 0.90625,0.75 -0.17364,-1.062 -0.0202,-1.98 0.65625,-2.656 1.46023,-1.461 3.21551,-1.331 4.84375,-0.594 -2.58177,-3.188 -6.19681,-5.818 -11.3125,-7.094 0,0 -0.25729,-0.09 -0.625,-0.09 z m 11.21875,18.625 c 0.56012,1.411 1.04777,2.824 1.46875,4.188 1.9434,0.137 3.25,0.906 3.25,0.906 0,0 -2.33936,-2.242 -4.71875,-5.094 z m 2.59375,16.563 c -0.19953,1.325 -0.45806,2.714 -0.71875,4.031 0.75563,-0.911 1.66661,-1.285 2.46875,-1.406 0.15527,-0.317 0.31717,-0.619 0.46875,-0.938 -0.6411,-0.467 -1.17007,-0.847 -2.21875,-1.687 z m -2.15625,9.594 c -0.0562,0.151 -0.0483,0.199 0,0.156 -0.001,-0.05 6.1e-4,-0.106 0,-0.156 z"
             style="color:#000000;fill:#a2e138;fill-opacity:1;fill-rule:nonzero;stroke:none;stroke-width:12;marker:none;visibility:visible;display:inline;overflow:visible;enable-background:accumulate" />
        </g>
        <g
           transform="matrix(1.194473,0.46137051,-0.47759366,0.45150732,1501.078,1608.4978)"
           id="g25229"
           style="fill:#7fad44;fill-opacity:1">
          <path
             style="color:#000000;fill:#7fad44;fill-opacity:1;fill-rule:nonzero;stroke:#1d401b;stroke-width:2.12495947;stroke-linecap:round;stroke-linejoin:round;stroke-miterlimit:4;stroke-opacity:1;stroke-dasharray:none;stroke-dashoffset:0;marker:none;visibility:visible;display:inline;overflow:visible;enable-background:accumulate"
             d="m -149.01725,2907.342 c 1.87355,4.3329 5.26935,7.8456 6.08903,8.8994 0.81968,1.0541 1.52225,3.63 1.52225,3.63 0,0 0.46839,-2.2249 -0.35128,-5.0352 -0.81968,-2.8103 -3.27871,-5.7375 -5.03517,-7.1429 -1.75644,-1.405 -2.22483,-0.3513 -2.22483,-0.3513 z"
             id="path25231"
             inkscape:connector-curvature="0" />
          <path
             inkscape:connector-curvature="0"
             id="path25233"
             d="m -149.01725,2907.342 c 1.87355,4.3329 5.26935,7.8456 6.08903,8.8994 0.81968,1.0541 1.52225,3.63 1.52225,3.63 0,0 0.46839,-2.2249 -0.35128,-5.0352 -0.81968,-2.8103 -3.27871,-5.7375 -5.03517,-7.1429 -1.75644,-1.405 -2.22483,-0.3513 -2.22483,-0.3513 z"
             style="color:#000000;fill:#7fad44;fill-opacity:1;fill-rule:nonzero;stroke:none;stroke-width:3.17499995;marker:none;visibility:visible;display:inline;overflow:visible;enable-background:accumulate" />
          <path
             style="color:#000000;fill:#a2e138;fill-opacity:1;fill-rule:nonzero;stroke:none;stroke-width:3.17499995;marker:none;visibility:visible;display:inline;overflow:visible;enable-background:accumulate"
             d="m -149.01725,2907.342 c 1.87355,4.3329 5.26935,7.8456 6.08903,8.8994 0.81968,1.0541 1.52225,3.63 1.52225,3.63 0,0 0.46839,-2.2249 -0.35128,-5.0352 -0.81968,-2.8103 -3.27871,-5.7375 -5.03517,-7.1429 -1.75644,-1.405 -2.22483,-0.3513 -2.22483,-0.3513 z"
             id="path25235"
             inkscape:connector-curvature="0" />
        </g>
        <path
           style="font-size:medium;font-style:normal;font-variant:normal;font-weight:normal;font-stretch:normal;text-indent:0;text-align:start;text-decoration:none;line-height:normal;letter-spacing:normal;word-spacing:normal;text-transform:none;direction:ltr;block-progression:tb;writing-mode:lr-tb;text-anchor:start;baseline-shift:baseline;color:#000000;fill:#7fad44;fill-opacity:1;stroke:none;stroke-width:1.32291675;marker:none;visibility:visible;display:inline;overflow:visible;enable-background:accumulate;font-family:Sans;-inkscape-font-specification:Sans"
           d="m -81.695828,2832.014 c 0.851425,0.1951 1.742693,0.4652 2.657317,0.8155 7.303945,2.8006 10.659315,8.1668 12.088338,12.8995 0.714497,2.3664 0.94845,4.5895 0.973033,6.2672 0.01225,0.839 -0.447079,3.623 -0.676396,3.4777 -0.229279,-0.1454 0.307066,-2.3768 0.02296,-3.6755 -0.345081,-1.5776 -0.578607,-3.559 -1.265271,-5.8331 -1.3733,-4.5484 -4.532308,-9.615 -11.523331,-12.2957 -6.978932,-2.6761 -11.698582,-0.3858 -14.833955,2.5792 -3.135344,2.9649 -4.59003,7.8571 -4.59003,7.8571 -0.416915,1.4196 -2.962197,0.6529 -1.585267,-1.4958 0,0 2.141223,-3.8751 5.453707,-7.0076 2.898447,-2.741 7.319764,-4.9569 13.278933,-3.5884 z"
           id="path25237"
           inkscape:connector-curvature="0"
           sodipodi:nodetypes="ccccssccsccscc" />
        <g
           transform="matrix(-0.76351099,-0.09596288,-0.10857999,0.70540161,136.52289,792.95986)"
           id="g25239"
           style="fill:#7fad44;fill-opacity:1">
          <path
             style="color:#000000;fill:#7fad44;fill-opacity:1;fill-rule:nonzero;stroke:#1d401b;stroke-width:9.4473772;stroke-linecap:round;stroke-linejoin:round;stroke-miterlimit:4;stroke-opacity:1;stroke-dasharray:none;stroke-dashoffset:0;marker:none;visibility:visible;display:inline;overflow:visible;enable-background:accumulate"
             d="m -565.23438,10908.612 c -24.21875,3.125 -27.73437,33.203 -28.90625,37.5 -1.17187,4.297 6.64063,26.172 5.85938,22.656 -0.78125,-3.515 -1.17188,-16.796 -0.39063,-21.093 0.78125,-4.297 8.20313,-22.657 15.23438,-26.563 7.03125,-3.906 12.89062,-8.203 11.71875,-10.547 -1.17188,-2.343 -3.51563,-1.953 -3.51563,-1.953 z"
             id="path25241"
             inkscape:connector-curvature="0"
             transform="matrix(0.26458334,0,0,0.26458334,-6.3049604e-6,18.562493)" />
          <path
             transform="matrix(0.26458334,0,0,0.26458334,-6.3049604e-6,18.562493)"
             inkscape:connector-curvature="0"
             id="path25243"
             d="m -565.23438,10908.612 c -24.21875,3.125 -27.73437,33.203 -28.90625,37.5 -1.17187,4.297 6.64063,26.172 5.85938,22.656 -0.78125,-3.515 -1.17188,-16.796 -0.39063,-21.093 0.78125,-4.297 8.20313,-22.657 15.23438,-26.563 7.03125,-3.906 12.89062,-8.203 11.71875,-10.547 -1.17188,-2.343 -3.51563,-1.953 -3.51563,-1.953 z"
             style="color:#000000;fill:#7fad44;fill-opacity:1;fill-rule:nonzero;stroke:none;stroke-width:12;marker:none;visibility:visible;display:inline;overflow:visible;enable-background:accumulate" />
          <path
             inkscape:connector-curvature="0"
             id="path25245"
             transform="matrix(-0.33995809,-0.04624792,-0.05232855,0.36796307,328.57382,-1053.1114)"
             d="m -245.53125,10725.469 c -0.58043,0.07 -1.30043,0.355 -1.875,1.125 -1.14925,1.541 2.83693,5.132 7.78125,8.562 1.25765,0.873 2.44423,2.396 3.5,4.25 -0.16009,-4.478 1.20237,-6.339 2.65625,-7.062 -2.56444,-3.051 -6.11008,-5.577 -11.0625,-6.813 0,0 -0.41957,-0.13 -1,-0.06 z"
             style="color:#000000;fill:#7fad44;fill-opacity:1;fill-rule:nonzero;stroke:none;stroke-width:12;marker:none;visibility:visible;display:inline;overflow:visible;enable-background:accumulate" />
          <path
             inkscape:connector-curvature="0"
             id="path25247"
             transform="matrix(-0.33995809,-0.04624792,-0.05232855,0.36796307,328.57382,-1053.1114)"
             d="m -226.59375,10753.844 c -0.98365,0.939 -2.78554,1.294 -4.40625,0.437 0.0642,0.42 0.11362,0.791 0.125,1.063 0.12992,3.106 -1.6156,12.439 -2.59375,14.844 -0.97826,2.405 7.36567,-12.263 6.9375,-15.407 -0.0251,-0.184 -0.0404,-0.634 -0.0625,-0.937 z"
             style="opacity:0.52654868;color:#000000;fill:#365a26;fill-opacity:1;fill-rule:nonzero;stroke:none;stroke-width:12;marker:none;visibility:visible;display:inline;overflow:visible;enable-background:accumulate" />
        </g>
        <g
           transform="matrix(-0.80203947,-0.21302727,-0.27624633,0.86952173,616.97136,297.62163)"
           id="g25249"
           style="fill:#7fad44;fill-opacity:1">
          <path
             style="color:#000000;fill:#7fad44;fill-opacity:1;fill-rule:nonzero;stroke:#1d401b;stroke-width:2.12976193;stroke-linecap:round;stroke-linejoin:round;stroke-miterlimit:4;stroke-opacity:1;stroke-dasharray:none;stroke-dashoffset:0;marker:none;visibility:visible;display:inline;overflow:visible;enable-background:accumulate"
             d="m -149.01725,2907.342 c 1.87355,4.3329 5.26935,7.8456 6.08903,8.8994 0.81968,1.0541 1.52225,3.63 1.52225,3.63 0,0 0.46839,-2.2249 -0.35128,-5.0352 -0.81968,-2.8103 -3.27871,-5.7375 -5.03517,-7.1429 -1.75644,-1.405 -2.22483,-0.3513 -2.22483,-0.3513 z"
             id="path25251"
             inkscape:connector-curvature="0" />
          <path
             inkscape:connector-curvature="0"
             id="path25253"
             d="m -149.01725,2907.342 c 1.87355,4.3329 5.26935,7.8456 6.08903,8.8994 0.81968,1.0541 1.52225,3.63 1.52225,3.63 0,0 0.46839,-2.2249 -0.35128,-5.0352 -0.81968,-2.8103 -3.27871,-5.7375 -5.03517,-7.1429 -1.75644,-1.405 -2.22483,-0.3513 -2.22483,-0.3513 z"
             style="color:#000000;fill:#7fad44;fill-opacity:1;fill-rule:nonzero;stroke:none;stroke-width:3.17499995;marker:none;visibility:visible;display:inline;overflow:visible;enable-background:accumulate" />
          <path
             inkscape:connector-curvature="0"
             id="path25255"
             transform="matrix(-0.30421737,-0.07453131,-0.0966496,0.28060752,811.32985,-122.16343)"
             d="m -273.34375,10738.469 c -3.2404,2.911 -6.23439,6.219 -8.40625,9.656 -5.41887,8.576 -6.3125,16.25 -6.3125,16.25 0,0 4.82096,-7.915 8.40625,-10.719 1.73291,-1.355 5.88949,-4.136 10.875,-8.062 -0.19247,-0.139 -0.40375,-0.192 -0.625,-0.125 -3.53996,1.062 -7.77049,3.56 -7.0625,0.375 0.31797,-1.431 1.55987,-4.389 3.125,-7.375 z"
             style="opacity:0.52654868;color:#000000;fill:#365a26;fill-opacity:1;fill-rule:nonzero;stroke:none;stroke-width:3.17499995;marker:none;visibility:visible;display:inline;overflow:visible;enable-background:accumulate" />
          <path
             inkscape:connector-curvature="0"
             id="path25257"
             transform="matrix(-0.30421737,-0.07453131,-0.0966496,0.28060752,811.32985,-122.16343)"
             d="m -254.375,10727.406 c -1.04604,-0.04 -2.53397,0.281 -4.65625,1.282 -2.1418,1.01 -4.64488,2.467 -7.25,4.25 4.34639,-1.554 8.59061,0.288 9,2.406 1.84389,-1.895 3.67446,-3.91 5.375,-6.032 0,0 -0.16747,-1.812 -2.46875,-1.906 z"
             style="color:#000000;fill:#a2e138;fill-opacity:1;fill-rule:nonzero;stroke:none;stroke-width:3.17499995;marker:none;visibility:visible;display:inline;overflow:visible;enable-background:accumulate" />
        </g>
        <g
           id="g25259"
           transform="matrix(-0.8511554,-0.22607281,-0.25005994,0.7870966,532.91802,531.78536)"
           style="fill:#7fad44;fill-opacity:1">
          <path
             inkscape:connector-curvature="0"
             id="path25261"
             d="m -149.01725,2907.342 c 1.87355,4.3329 5.26935,7.8456 6.08903,8.8994 0.81968,1.0541 1.52225,3.63 1.52225,3.63 0,0 0.46839,-2.2249 -0.35128,-5.0352 -0.81968,-2.8103 -3.27871,-5.7375 -5.03517,-7.1429 -1.75644,-1.405 -2.22483,-0.3513 -2.22483,-0.3513 z"
             style="color:#000000;fill:#7fad44;fill-opacity:1;fill-rule:nonzero;stroke:#1d401b;stroke-width:2.1729548;stroke-linecap:round;stroke-linejoin:round;stroke-miterlimit:4;stroke-opacity:1;stroke-dasharray:none;stroke-dashoffset:0;marker:none;visibility:visible;display:inline;overflow:visible;enable-background:accumulate" />
          <path
             style="color:#000000;fill:#7fad44;fill-opacity:1;fill-rule:nonzero;stroke:none;stroke-width:3.17499995;marker:none;visibility:visible;display:inline;overflow:visible;enable-background:accumulate"
             d="m -149.01725,2907.342 c 1.87355,4.3329 5.26935,7.8456 6.08903,8.8994 0.81968,1.0541 1.52225,3.63 1.52225,3.63 0,0 0.46839,-2.2249 -0.35128,-5.0352 -0.81968,-2.8103 -3.27871,-5.7375 -5.03517,-7.1429 -1.75644,-1.405 -2.22483,-0.3513 -2.22483,-0.3513 z"
             id="path25263"
             inkscape:connector-curvature="0" />
          <path
             inkscape:connector-curvature="0"
             id="path25265"
             transform="matrix(-0.2866625,-0.08233627,-0.09107244,0.30999287,754.04625,-435.46563)"
             d="m -280.40625,10727.156 c -1.60618,1.565 -3.04384,3.206 -4.21875,4.906 -5.29289,7.66 -5.90625,14.688 -5.90625,14.688 0,0 4.71063,-7.065 8.34375,-9.5 1.82451,-1.223 6.31388,-3.747 11.625,-7.375 -3.19788,0.786 -7.57057,2.096 -9.8125,2.844 -1.89154,0.63 -1.38112,-2.112 -0.0312,-5.563 z"
             style="opacity:0.52654868;color:#000000;fill:#365a26;fill-opacity:1;fill-rule:nonzero;stroke:none;stroke-width:3.17499995;marker:none;visibility:visible;display:inline;overflow:visible;enable-background:accumulate" />
          <path
             inkscape:connector-curvature="0"
             id="path25267"
             transform="matrix(-0.2866625,-0.08233627,-0.09107244,0.30999287,754.04625,-435.46563)"
             d="m -257.5625,10714.125 c -1.02922,0.05 -2.38043,0.33 -4.125,1 -3.19325,1.226 -7.15945,3.28 -11.03125,5.875 0.28458,0.149 0.78783,0.08 1.5625,-0.312 6.37193,-3.187 11.33248,-0.697 9.5625,1.781 -0.235,0.329 -0.90723,1.173 -1.40625,1.812 3.04752,-2.478 6.07634,-5.261 8.8125,-8.312 0,0 -0.28734,-1.98 -3.375,-1.844 z"
             style="color:#000000;fill:#a2e138;fill-opacity:1;fill-rule:nonzero;stroke:none;stroke-width:3.17499995;marker:none;visibility:visible;display:inline;overflow:visible;enable-background:accumulate" />
        </g>
        <g
           id="g25269"
           transform="matrix(0.96794757,0.25709362,-0.27725492,0.87269639,1441.5058,1159.9422)"
           style="fill:#7fad44;fill-opacity:1">
          <path
             inkscape:connector-curvature="0"
             id="path25271"
             d="m -942.66327,2196.5556 c -0.75023,4.6521 -3.13207,8.8768 -3.65852,10.0961 -0.52637,1.2197 -0.58376,3.886 -0.58376,3.886 0,0 -0.96649,-2.0434 -0.85364,-4.9651 0.11287,-2.9218 1.74734,-6.3528 3.07624,-8.1392 1.32896,-1.7859 2.01968,-0.8778 2.01968,-0.8778 z"
             style="color:#000000;fill:#7fad44;fill-opacity:1;fill-rule:nonzero;stroke:#1d401b;stroke-width:1.93513668;stroke-linecap:round;stroke-linejoin:round;stroke-miterlimit:4;stroke-opacity:1;stroke-dasharray:none;stroke-dashoffset:0;marker:none;visibility:visible;display:inline;overflow:visible;enable-background:accumulate" />
          <path
             style="color:#000000;fill:#7fad44;fill-opacity:1;fill-rule:nonzero;stroke:none;stroke-width:3.17499995;marker:none;visibility:visible;display:inline;overflow:visible;enable-background:accumulate"
             d="m -942.66327,2196.5556 c -0.75023,4.6521 -3.13207,8.8768 -3.65852,10.0961 -0.52637,1.2197 -0.58376,3.886 -0.58376,3.886 0,0 -0.96649,-2.0434 -0.85364,-4.9651 0.11287,-2.9218 1.74734,-6.3528 3.07624,-8.1392 1.32896,-1.7859 2.01968,-0.8778 2.01968,-0.8778 z"
             id="path25273"
             inkscape:connector-curvature="0" />
          <path
             inkscape:connector-curvature="0"
             id="path25275"
             transform="matrix(0.25207392,-0.07426019,0.08008368,0.27958674,-1718.8229,-801.51736)"
             d="m -314.53125,10660.562 c -1.96216,0.538 -10.77911,6.704 -13.28125,8.094 -1.43604,0.798 -2.05712,-0.136 -1.78125,-2.531 -0.23615,0.544 -0.45811,1.082 -0.65625,1.625 -3.47448,9.527 -2.09375,17.219 -2.09375,17.219 0,0 3.01497,-8.739 6.21875,-12.25 1.74579,-1.913 6.4477,-6.255 11.59375,-12.157 z"
             style="opacity:0.52654868;color:#000000;fill:#365a26;fill-opacity:1;fill-rule:nonzero;stroke:none;stroke-width:3.17499995;marker:none;visibility:visible;display:inline;overflow:visible;enable-background:accumulate" />
          <path
             inkscape:connector-curvature="0"
             id="path25277"
             transform="matrix(0.25207392,-0.07426019,0.08008368,0.27958674,-1718.8229,-801.51736)"
             d="m -304.875,10641.594 c -1.26323,0.03 -3.06877,0.588 -5.59375,2.312 -3.03011,2.071 -6.63397,5.182 -10,8.844 7.54855,-5.201 10.26184,-7.22 11.4375,-4.281 0.531,1.327 -0.19369,4.072 -1.125,6.75 2.87859,-3.723 5.70181,-7.842 8,-12.25 0,0 -0.61336,-1.424 -2.71875,-1.375 z"
             style="color:#000000;fill:#a2e138;fill-opacity:1;fill-rule:nonzero;stroke:none;stroke-width:3.17499995;marker:none;visibility:visible;display:inline;overflow:visible;enable-background:accumulate" />
        </g>
        <g
           id="g25279"
           transform="matrix(-0.96023605,-0.17312561,-0.15427021,0.83197053,229.71008,392.47338)"
           style="fill:#7fad44;fill-opacity:1">
          <path
             inkscape:connector-curvature="0"
             id="path25281"
             d="m -149.01725,2907.342 c 1.87355,4.3329 5.26935,7.8456 6.08903,8.8994 0.81968,1.0541 1.52225,3.63 1.52225,3.63 0,0 0.46839,-2.2249 -0.35128,-5.0352 -0.81968,-2.8103 -3.27871,-5.7375 -5.03517,-7.1429 -1.75644,-1.405 -2.22483,-0.3513 -2.22483,-0.3513 z"
             style="color:#000000;fill:#7fad44;fill-opacity:1;fill-rule:nonzero;stroke:#1d401b;stroke-width:2.03834033;stroke-linecap:round;stroke-linejoin:round;stroke-miterlimit:4;stroke-opacity:1;stroke-dasharray:none;stroke-dashoffset:0;marker:none;visibility:visible;display:inline;overflow:visible;enable-background:accumulate" />
          <path
             style="color:#000000;fill:#7fad44;fill-opacity:1;fill-rule:nonzero;stroke:none;stroke-width:3.17499995;marker:none;visibility:visible;display:inline;overflow:visible;enable-background:accumulate"
             d="m -149.01725,2907.342 c 1.87355,4.3329 5.26935,7.8456 6.08903,8.8994 0.81968,1.0541 1.52225,3.63 1.52225,3.63 0,0 0.46839,-2.2249 -0.35128,-5.0352 -0.81968,-2.8103 -3.27871,-5.7375 -5.03517,-7.1429 -1.75644,-1.405 -2.22483,-0.3513 -2.22483,-0.3513 z"
             id="path25283"
             inkscape:connector-curvature="0" />
          <path
             inkscape:connector-curvature="0"
             id="path25285"
             transform="matrix(-0.26662615,-0.05548251,-0.04943982,0.3077321,301.35232,-386.71933)"
             d="m -311.5,10664.5 c -2.1521,2.223 -4.02079,4.595 -5.375,7.031 -4.61338,8.301 -4.21875,15.594 -4.21875,15.594 0,0 4.06682,-7.628 7.65625,-10.406 1.49571,-1.158 4.90474,-3.391 9,-6.469 -0.30972,-1.355 -6.08103,-0.564 -8.5,1.25 -2.30946,1.732 -0.6096,-2.634 1.4375,-7 z"
             style="opacity:0.52654868;color:#000000;fill:#365a26;fill-opacity:1;fill-rule:nonzero;stroke:none;stroke-width:3.17499995;marker:none;visibility:visible;display:inline;overflow:visible;enable-background:accumulate" />
          <path
             inkscape:connector-curvature="0"
             id="path25287"
             transform="matrix(-0.26662615,-0.05548251,-0.04943982,0.3077321,301.35232,-386.71933)"
             d="m -289.34375,10651 c -1.20831,0 -2.8457,0.354 -5.09375,1.375 -1.81518,0.825 -3.86781,1.901 -5.96875,3.219 3.32104,-0.928 6.09663,-1.068 6.25,0.312 0.18408,1.657 -2.21927,6.055 -3.96875,9.282 4.14052,-3.548 8.41765,-7.748 11.96875,-12.469 0,0 -0.52921,-1.712 -3.1875,-1.719 z"
             style="color:#000000;fill:#a2e138;fill-opacity:1;fill-rule:nonzero;stroke:none;stroke-width:3.17499995;marker:none;visibility:visible;display:inline;overflow:visible;enable-background:accumulate" />
        </g>
        <g
           id="g25289"
           transform="matrix(-0.89840459,-0.02945778,-0.03735104,0.82952345,-99.952391,422.95763)"
           style="fill:#7fad44;fill-opacity:1">
          <path
             inkscape:connector-curvature="0"
             id="path25291"
             d="m -149.01725,2907.342 c 1.87355,4.3329 5.26935,7.8456 6.08903,8.8994 0.81968,1.0541 1.52225,3.63 1.52225,3.63 0,0 0.46839,-2.2249 -0.35128,-5.0352 -0.81968,-2.8103 -3.27871,-5.7375 -5.03517,-7.1429 -1.75644,-1.405 -2.22483,-0.3513 -2.22483,-0.3513 z"
             style="color:#000000;fill:#7fad44;fill-opacity:1;fill-rule:nonzero;stroke:#1d401b;stroke-width:2.14382768;stroke-linecap:round;stroke-linejoin:round;stroke-miterlimit:4;stroke-opacity:1;stroke-dasharray:none;stroke-dashoffset:0;marker:none;visibility:visible;display:inline;overflow:visible;enable-background:accumulate" />
          <path
             style="color:#000000;fill:#a2e138;fill-opacity:1;fill-rule:nonzero;stroke:none;stroke-width:3.17499995;marker:none;visibility:visible;display:inline;overflow:visible;enable-background:accumulate"
             d="m -149.01725,2907.342 c 1.87355,4.3329 5.26935,7.8456 6.08903,8.8994 0.81968,1.0541 1.52225,3.63 1.52225,3.63 0,0 0.46839,-2.2249 -0.35128,-5.0352 -0.81968,-2.8103 -3.27871,-5.7375 -5.03517,-7.1429 -1.75644,-1.405 -2.22483,-0.3513 -2.22483,-0.3513 z"
             id="path25293"
             inkscape:connector-curvature="0" />
          <path
             inkscape:connector-curvature="0"
             id="path25295"
             transform="matrix(-0.29406939,-0.0104429,-0.01324109,0.31848803,-90.853425,-490.72932)"
             d="m -297.40625,10667.438 c -4.3513,4.402 -8.51251,9.925 -10.5,15.374 -3.17995,8.72 -1.90625,15.75 -1.90625,15.75 0,0 2.75543,-8.005 5.6875,-11.218 0.95165,-1.043 2.89719,-2.929 5.28125,-5.375 3.21081,-3.793 7.22474,-8.449 10.4375,-12.063 0.26178,-0.352 0.52239,-0.703 0.78125,-1.062 -2.9575,1.499 -6.14383,0.831 -7.96875,2.656 -2.47798,2.478 -2.458,0 -1.75,-3.188 0.10083,-0.453 0.0562,-0.728 -0.0625,-0.874 z"
             style="opacity:0.52654868;color:#000000;fill:#365a26;fill-opacity:1;fill-rule:nonzero;stroke:none;stroke-width:3.17499995;marker:none;visibility:visible;display:inline;overflow:visible;enable-background:accumulate" />
        </g>
        <g
           transform="matrix(-1.1466254,-0.27881862,-0.23464816,0.96779398,439.80426,-13.138549)"
           id="g25297"
           inkscape:transform-center-x="14.904485"
           inkscape:transform-center-y="24.715037"
           style="fill:#7fad44;fill-opacity:1">
          <path
             style="color:#000000;fill:#7fad44;fill-opacity:1;fill-rule:nonzero;stroke:#1d401b;stroke-width:1.70851648;stroke-linecap:round;stroke-linejoin:round;stroke-miterlimit:4;stroke-opacity:1;stroke-dasharray:none;stroke-dashoffset:0;marker:none;visibility:visible;display:inline;overflow:visible;enable-background:accumulate"
             d="m -149.01725,2907.342 c 1.87355,4.3329 5.26935,7.8456 6.08903,8.8994 0.81968,1.0541 1.52225,3.63 1.52225,3.63 0,0 0.46839,-2.2249 -0.35128,-5.0352 -0.81968,-2.8103 -3.27871,-5.7375 -5.03517,-7.1429 -1.75644,-1.405 -2.22483,-0.3513 -2.22483,-0.3513 z"
             id="path25299"
             inkscape:connector-curvature="0" />
          <path
             inkscape:connector-curvature="0"
             id="path25301"
             d="m -149.01725,2907.342 c 1.87355,4.3329 5.26935,7.8456 6.08903,8.8994 0.81968,1.0541 1.52225,3.63 1.52225,3.63 0,0 0.46839,-2.2249 -0.35128,-5.0352 -0.81968,-2.8103 -3.27871,-5.7375 -5.03517,-7.1429 -1.75644,-1.405 -2.22483,-0.3513 -2.22483,-0.3513 z"
             style="color:#000000;fill:#7fad44;fill-opacity:1;fill-rule:nonzero;stroke:none;stroke-width:3.17499995;marker:none;visibility:visible;display:inline;overflow:visible;enable-background:accumulate" />
          <path
             inkscape:connector-curvature="0"
             id="path25303"
             transform="matrix(-0.21790272,-0.06277714,-0.05283198,0.25816734,355.87925,135.28375)"
             d="m -297.21875,10680.062 c -4.48911,3.351 -8.57685,7.243 -11.25,11.407 -6.04455,9.416 -5.96875,18.062 -5.96875,18.062 0,0 5.32541,-8.695 9.8125,-11.687 2.85432,-1.903 11.10376,-6.353 19.8125,-12.906 -2.69695,1.201 -6.61676,3.042 -9.71875,4.593 -6.37192,3.186 -12.39344,2.143 -7.4375,-3.875 1.10522,-1.342 2.8909,-3.416 4.75,-5.594 z"
             style="opacity:0.52654868;color:#000000;fill:#365a26;fill-opacity:1;fill-rule:nonzero;stroke:none;stroke-width:3.17499995;marker:none;visibility:visible;display:inline;overflow:visible;enable-background:accumulate" />
          <path
             inkscape:connector-curvature="0"
             id="path25305"
             transform="matrix(-0.21790272,-0.06277714,-0.05283198,0.25816734,355.87925,135.28375)"
             d="m -275,10669.438 c -1.34834,0.05 -3.09802,0.396 -5.3125,1.218 -4.33895,1.612 -9.72845,4.363 -14.8125,7.875 3e-5,0 -7.3e-4,0.03 0,0.03 0.0159,0.113 0.1955,0.01 0.59375,-0.343 3.18597,-2.832 16.63525,-5.676 16.28125,-1.781 -0.10811,1.189 -1.23261,3.231 -2.65625,5.406 3.69177,-3.033 7.34595,-6.394 10.5625,-10.125 0,0 -0.61124,-2.446 -4.65625,-2.281 z"
             style="color:#000000;fill:#a2e138;fill-opacity:1;fill-rule:nonzero;stroke:none;stroke-width:3.17499995;marker:none;visibility:visible;display:inline;overflow:visible;enable-background:accumulate" />
        </g>
        <g
           id="g25307"
           transform="matrix(-1.183465,-0.0661351,-0.01507182,0.9921076,-202.67046,-48.479663)"
           style="fill:#7fad44;fill-opacity:1">
          <path
             inkscape:connector-curvature="0"
             id="path25309"
             d="m -149.01725,2907.342 c 1.87355,4.3329 5.26935,7.8456 6.08903,8.8994 0.81968,1.0541 1.52225,3.63 1.52225,3.63 0,0 0.46839,-2.2249 -0.35128,-5.0352 -0.81968,-2.8103 -3.27871,-5.7375 -5.03517,-7.1429 -1.75644,-1.405 -2.22483,-0.3513 -2.22483,-0.3513 z"
             style="color:#000000;fill:#7fad44;fill-opacity:1;fill-rule:nonzero;stroke:#1d401b;stroke-width:1.70851648;stroke-linecap:round;stroke-linejoin:round;stroke-miterlimit:4;stroke-opacity:1;stroke-dasharray:none;stroke-dashoffset:0;marker:none;visibility:visible;display:inline;overflow:visible;enable-background:accumulate" />
          <path
             style="color:#000000;fill:#7fad44;fill-opacity:1;fill-rule:nonzero;stroke:none;stroke-width:3.17499995;marker:none;visibility:visible;display:inline;overflow:visible;enable-background:accumulate"
             d="m -149.01725,2907.342 c 1.87355,4.3329 5.26935,7.8456 6.08903,8.8994 0.81968,1.0541 1.52225,3.63 1.52225,3.63 0,0 0.46839,-2.2249 -0.35128,-5.0352 -0.81968,-2.8103 -3.27871,-5.7375 -5.03517,-7.1429 -1.75644,-1.405 -2.22483,-0.3513 -2.22483,-0.3513 z"
             id="path25311"
             inkscape:connector-curvature="0" />
          <path
             inkscape:connector-curvature="0"
             id="path25313"
             transform="matrix(-0.22337704,-0.01489059,-0.00339348,0.26646193,-171.96636,56.112002)"
             d="m -291.5625,10701 c -2.74992,3.438 -5.04246,7.13 -6.40625,10.812 -3.82642,10.333 -1.84375,18.782 -1.84375,18.782 0,0 3.27358,-9.471 7,-13.219 2.12126,-2.133 8.03137,-7.066 14.3125,-13.813 -4.3622,0.3 -10.18965,1.127 -12.5,2.282 -1.55694,0.778 -1.48975,-1.522 -0.5625,-4.844 z"
             style="opacity:0.52654868;color:#000000;fill:#365a26;fill-opacity:1;fill-rule:nonzero;stroke:none;stroke-width:3.17499995;marker:none;visibility:visible;display:inline;overflow:visible;enable-background:accumulate" />
          <path
             inkscape:connector-curvature="0"
             id="path25315"
             transform="matrix(-0.22337704,-0.01489059,-0.00339348,0.26646193,-171.96636,56.112002)"
             d="m -268.40625,10683.906 c -1.5203,0 -3.64882,0.564 -6.625,2.375 -1.36183,0.829 -2.84516,1.811 -4.34375,2.938 4.41997,-0.44 8.79085,-0.157 8.21875,1.75 -0.65113,2.17 -2.80248,6.377 -4.28125,9.156 3.75571,-4.351 7.45441,-9.283 10.375,-14.625 0,0 -0.80992,-1.581 -3.34375,-1.594 z"
             style="color:#000000;fill:#a2e138;fill-opacity:1;fill-rule:nonzero;stroke:none;stroke-width:3.17499995;marker:none;visibility:visible;display:inline;overflow:visible;enable-background:accumulate" />
        </g>
        <g
           transform="matrix(-0.8627197,-0.22914436,-0.2534574,0.79779055,539.53446,496.02327)"
           id="g25317"
           style="fill:#7fad44;fill-opacity:1">
          <path
             style="color:#000000;fill:#7fad44;fill-opacity:1;fill-rule:nonzero;stroke:#1d401b;stroke-width:2.14382768;stroke-linecap:round;stroke-linejoin:round;stroke-miterlimit:4;stroke-opacity:1;stroke-dasharray:none;stroke-dashoffset:0;marker:none;visibility:visible;display:inline;overflow:visible;enable-background:accumulate"
             d="m -149.01725,2907.342 c 1.87355,4.3329 5.26935,7.8456 6.08903,8.8994 0.81968,1.0541 1.52225,3.63 1.52225,3.63 0,0 0.46839,-2.2249 -0.35128,-5.0352 -0.81968,-2.8103 -3.27871,-5.7375 -5.03517,-7.1429 -1.75644,-1.405 -2.22483,-0.3513 -2.22483,-0.3513 z"
             id="path25319"
             inkscape:connector-curvature="0" />
          <path
             inkscape:connector-curvature="0"
             id="path25321"
             d="m -149.01725,2907.342 c 1.87355,4.3329 5.26935,7.8456 6.08903,8.8994 0.81968,1.0541 1.52225,3.63 1.52225,3.63 0,0 0.46839,-2.2249 -0.35128,-5.0352 -0.81968,-2.8103 -3.27871,-5.7375 -5.03517,-7.1429 -1.75644,-1.405 -2.22483,-0.3513 -2.22483,-0.3513 z"
             style="color:#000000;fill:#7fad44;fill-opacity:1;fill-rule:nonzero;stroke:none;stroke-width:3.17499995;marker:none;visibility:visible;display:inline;overflow:visible;enable-background:accumulate" />
          <path
             inkscape:connector-curvature="0"
             id="path25323"
             transform="matrix(-0.28281994,-0.08123259,-0.08985166,0.30583759,738.86645,-386.2589)"
             d="m -276.09375,10703.438 c -5.54492,3.34 -11.28015,7.915 -14.75,12.937 -5.3648,7.764 -5.96875,14.875 -5.96875,14.875 0,0 4.75502,-7.156 8.4375,-9.625 1.70538,-1.143 5.75782,-3.428 10.59375,-6.656 -2.05581,0.301 -4.46026,0.863 -6.125,1.469 -3.89395,1.416 7.09529,-10.959 10.28125,-12.376 1.10371,-0.49 -0.20909,-0.67 -2.46875,-0.624 z"
             style="opacity:0.52654868;color:#000000;fill:#365a26;fill-opacity:1;fill-rule:nonzero;stroke:none;stroke-width:3.17499995;marker:none;visibility:visible;display:inline;overflow:visible;enable-background:accumulate" />
          <path
             inkscape:connector-curvature="0"
             id="path25325"
             transform="matrix(-0.28281994,-0.08123259,-0.08985166,0.30583759,738.86645,-386.2589)"
             d="m -263.4375,10698.188 c -1.0432,0.05 -2.38798,0.321 -4.15625,1 -1.38949,0.533 -2.92225,1.243 -4.53125,2.062 3.34423,-0.344 7.17765,0 6.96875,2.094 -0.0599,0.598 -0.44869,1.607 -1.03125,2.812 2.14232,-1.886 4.24357,-3.926 6.1875,-6.094 0,0 -0.30789,-2.012 -3.4375,-1.874 z"
             style="color:#000000;fill:#a2e138;fill-opacity:1;fill-rule:nonzero;stroke:none;stroke-width:3.17499995;marker:none;visibility:visible;display:inline;overflow:visible;enable-background:accumulate" />
        </g>
        <g
           transform="matrix(-0.8627197,-0.22914436,-0.2534574,0.79779055,542.69282,502.29093)"
           id="g25327"
           style="fill:#7fad44;fill-opacity:1">
          <path
             style="color:#000000;fill:#7fad44;fill-opacity:1;stroke:#1d401b;stroke-width:2.14382768;stroke-linecap:round;stroke-linejoin:round;stroke-miterlimit:4;stroke-opacity:1;stroke-dasharray:none;stroke-dashoffset:0;marker:none;visibility:visible;display:inline;overflow:visible;enable-background:accumulate"
             d="m -149.56555,2908.3731 c -3.95695,2.3377 -5.66306,10.8685 -6.199,13.3886 -0.53594,2.5201 -0.41534,6.5286 -0.28136,5.8986 0.13401,-0.6301 2.21516,-9.3993 4.27401,-12.9797 2.05892,-3.5807 3.4434,-5.0068 3.18883,-5.8433 -0.25453,-0.8368 -0.98248,-0.4642 -0.98248,-0.4642 z"
             id="path25329"
             inkscape:connector-curvature="0"
             sodipodi:nodetypes="cssccc" />
          <path
             sodipodi:nodetypes="cssccc"
             inkscape:connector-curvature="0"
             id="path25331"
             d="m -149.56555,2908.3731 c -3.95695,2.3377 -5.66306,10.8685 -6.199,13.3886 -0.53594,2.5201 -0.41534,6.5286 -0.28136,5.8986 0.13401,-0.6301 2.21516,-9.3993 4.27401,-12.9797 2.05892,-3.5807 3.4434,-5.0068 3.18883,-5.8433 -0.25453,-0.8368 -0.98248,-0.4642 -0.98248,-0.4642 z"
             style="color:#000000;fill:#7fad44;fill-opacity:1;stroke:none;stroke-width:3.17499995;marker:none;visibility:visible;display:inline;overflow:visible;enable-background:accumulate" />
          <path
             inkscape:connector-curvature="0"
             id="path25333"
             transform="matrix(-0.28281994,-0.08123259,-0.08985166,0.30583759,744.37098,-392.53414)"
             d="m -249.03125,10726.688 c -0.59349,0.03 -1.26317,0.323 -1.875,1.187 -1.15623,1.631 0.13302,5.024 2.125,11.25 1.11761,-4.742 3.96113,-5.706 6.25,-4.281 -1.17087,-2.942 -2.72979,-5.515 -4.75,-7.5 0,0 -0.76085,-0.705 -1.75,-0.656 z"
             style="color:#000000;fill:#7fad44;fill-opacity:1;stroke:none;stroke-width:3.17499995;marker:none;visibility:visible;display:inline;overflow:visible;enable-background:accumulate" />
          <path
             style="color:#000000;fill:#7fad44;fill-opacity:1;stroke:none;stroke-width:3.17499995;marker:none;visibility:visible;display:inline;overflow:visible;enable-background:accumulate"
             d="m -149.56555,2908.3731 c -3.95695,2.3377 -5.66306,10.8685 -6.199,13.3886 -0.53594,2.5201 -0.41534,6.5286 -0.28136,5.8986 0.13401,-0.6301 2.21516,-9.3993 4.27401,-12.9797 2.05892,-3.5807 3.4434,-5.0068 3.18883,-5.8433 -0.25453,-0.8368 -0.98248,-0.4642 -0.98248,-0.4642 z"
             id="path25335"
             inkscape:connector-curvature="0"
             sodipodi:nodetypes="cssccc" />
          <path
             inkscape:connector-curvature="0"
             id="path25337"
             transform="matrix(-0.28281994,-0.08123259,-0.08985166,0.30583759,744.37098,-392.53414)"
             d="m -239.125,10757.062 c -0.37347,0.732 -0.68866,1.727 -0.875,2.938 -0.51002,3.315 -2.66836,3.103 -4.5,-0.562 0.98765,13.442 0.002,30.123 -0.125,31.656 -0.16664,2.015 4.0834,-9.969 4.75,-18.032 0.25941,-3.137 0.79889,-9.179 0.75,-16 z"
             style="opacity:0.52654868;color:#000000;fill:#365a26;fill-opacity:1;stroke:none;stroke-width:3.17499995;marker:none;visibility:visible;display:inline;overflow:visible;enable-background:accumulate" />
        </g>
      </g>
    </g>
  </g>
</svg>
