<?xml version="1.0" encoding="UTF-8" standalone="no"?>
<!-- Created with Inkscape (http://www.inkscape.org/) -->

<svg
   xmlns:dc="http://purl.org/dc/elements/1.1/"
   xmlns:cc="http://creativecommons.org/ns#"
   xmlns:rdf="http://www.w3.org/1999/02/22-rdf-syntax-ns#"
   xmlns:svg="http://www.w3.org/2000/svg"
   xmlns="http://www.w3.org/2000/svg"
   xmlns:xlink="http://www.w3.org/1999/xlink"
   xmlns:sodipodi="http://sodipodi.sourceforge.net/DTD/sodipodi-0.dtd"
   xmlns:inkscape="http://www.inkscape.org/namespaces/inkscape"
   width="220.19902"
   height="130.43306"
   viewBox="0 0 58.260988 34.510415"
   version="1.1"
   id="svg23489"
   inkscape:version="0.48.5 r10040"
   sodipodi:docname="leaf_03.svg"
   tags="palm tree leaf,tree leaf,tree part, leaves, leaf, palm tree,tree, tree part">
  <defs
     id="defs23483">
    <linearGradient
       inkscape:collect="always"
       xlink:href="#linearGradient26050"
       id="linearGradient26097"
       gradientUnits="userSpaceOnUse"
       x1="-3444.0586"
       y1="8170.0645"
       x2="-3439.3633"
       y2="8221.8965" />
    <linearGradient
       inkscape:collect="always"
       id="linearGradient26050">
      <stop
         style="stop-color:#7fad44;stop-opacity:1;"
         offset="0"
         id="stop26052" />
      <stop
         style="stop-color:#c88a37;stop-opacity:1"
         offset="1"
         id="stop26054" />
    </linearGradient>
  </defs>
  <sodipodi:namedview
     id="base"
     pagecolor="#7d848b"
     bordercolor="#666666"
     borderopacity="1.0"
     inkscape:pageopacity="0"
     inkscape:pageshadow="2"
     inkscape:zoom="1.3301435"
     inkscape:cx="80.473143"
     inkscape:cy="23.272621"
     inkscape:document-units="px"
     inkscape:current-layer="layer1"
     showgrid="false"
     inkscape:pagecheckerboard="false"
     showborder="true"
     units="px"
     inkscape:window-width="1920"
     inkscape:window-height="1017"
     inkscape:window-x="-8"
     inkscape:window-y="-8"
     inkscape:window-maximized="1"
     inkscape:showpageshadow="false"
     guidetolerance="28"
     fit-margin-top="15"
     fit-margin-left="15"
     fit-margin-bottom="15"
     fit-margin-right="15">
    <inkscape:grid
       type="xygrid"
       id="grid24034"
       spacingx="1px"
       spacingy="1px"
       empspacing="8"
       visible="true"
       enabled="true"
       snapvisiblegridlinesonly="true"
       originx="436.46549px"
       originy="-720.6407px" />
  </sodipodi:namedview>
  <metadata
     id="metadata23486">
    <rdf:RDF>
      <cc:Work
         rdf:about="">
        <dc:format>image/svg+xml</dc:format>
        <dc:type
           rdf:resource="http://purl.org/dc/dcmitype/StillImage" />
        <dc:title />
        <cc:license
           rdf:resource="" />
        <dc:creator>
          <cc:Agent>
            <dc:title>Robert Brooks</dc:title>
          </cc:Agent>
        </dc:creator>
      </cc:Work>
    </rdf:RDF>
  </metadata>
  <g
     inkscape:label="Layer 1"
     inkscape:groupmode="layer"
     id="layer1"
     transform="translate(-23.984373,-166.7745)">
    <g
       transform="matrix(1.1713348,0.13446525,-0.12608128,1.0983016,495.36091,-2908.9173)"
       id="g25567">
      <g
         id="g25569"
         transform="matrix(0.76885614,0.17572756,-0.19157629,0.70525019,592.61684,790.70056)"
         style="fill:#7fad44;fill-opacity:1">
        <path
           inkscape:connector-curvature="0"
           id="path25571"
           d="m -149.01725,2907.342 c 1.87355,4.3329 5.26935,7.8456 6.08903,8.8994 0.81968,1.0541 1.52225,3.63 1.52225,3.63 0,0 0.46839,-2.2249 -0.35128,-5.0352 -0.81968,-2.8103 -3.27871,-5.7375 -5.03517,-7.1429 -1.75644,-1.405 -2.22483,-0.3513 -2.22483,-0.3513 z"
           style="color:#000000;fill:#7fad44;fill-opacity:1;fill-rule:nonzero;stroke:#1d401b;stroke-width:2.64583349;stroke-linecap:round;stroke-linejoin:round;stroke-miterlimit:4;stroke-opacity:1;stroke-dasharray:none;stroke-dashoffset:0;marker:none;visibility:visible;display:inline;overflow:visible;enable-background:accumulate" />
        <path
           style="color:#000000;fill:#7fad44;fill-opacity:1;fill-rule:nonzero;stroke:none;stroke-width:3.17499995;marker:none;visibility:visible;display:inline;overflow:visible;enable-background:accumulate"
           d="m -149.01725,2907.342 c 1.87355,4.3329 5.26935,7.8456 6.08903,8.8994 0.81968,1.0541 1.52225,3.63 1.52225,3.63 0,0 0.46839,-2.2249 -0.35128,-5.0352 -0.81968,-2.8103 -3.27871,-5.7375 -5.03517,-7.1429 -1.75644,-1.405 -2.22483,-0.3513 -2.22483,-0.3513 z"
           id="path25573"
           inkscape:connector-curvature="0" />
      </g>
      <g
         id="g25575"
         transform="matrix(0.87898367,0.04423852,-0.04537414,0.90154754,188.88654,200.77133)"
         style="fill:#7fad44;fill-opacity:1">
        <path
           inkscape:connector-curvature="0"
           id="path25577"
           d="m -149.01725,2907.342 c 1.87355,4.3329 5.26935,7.8456 6.08903,8.8994 0.81968,1.0541 1.52225,3.63 1.52225,3.63 0,0 0.46839,-2.2249 -0.35128,-5.0352 -0.81968,-2.8103 -3.27871,-5.7375 -5.03517,-7.1429 -1.75644,-1.405 -2.22483,-0.3513 -2.22483,-0.3513 z"
           style="color:#000000;fill:#7fad44;fill-opacity:1;fill-rule:nonzero;stroke:#1d401b;stroke-width:2.01208711;stroke-linecap:round;stroke-linejoin:round;stroke-miterlimit:4;stroke-opacity:1;stroke-dasharray:none;stroke-dashoffset:0;marker:none;visibility:visible;display:inline;overflow:visible;enable-background:accumulate" />
        <path
           style="color:#000000;fill:#3e6229;fill-opacity:1;fill-rule:nonzero;stroke:none;stroke-width:3.17499995;marker:none;visibility:visible;display:inline;overflow:visible;enable-background:accumulate"
           d="m -149.01725,2907.342 c 1.87355,4.3329 5.26935,7.8456 6.08903,8.8994 0.81968,1.0541 1.52225,3.63 1.52225,3.63 0,0 0.46839,-2.2249 -0.35128,-5.0352 -0.81968,-2.8103 -3.27871,-5.7375 -5.03517,-7.1429 -1.75644,-1.405 -2.22483,-0.3513 -2.22483,-0.3513 z"
           id="path25579"
           inkscape:connector-curvature="0" />
      </g>
      <g
         id="g25581"
         transform="matrix(-0.74497098,0.17873268,0.17425937,0.76409469,-684.8324,621.74227)"
         style="fill:#7fad44;fill-opacity:1">
        <path
           transform="matrix(0.26458334,0,0,0.26458334,-6.3049604e-6,18.562493)"
           inkscape:connector-curvature="0"
           id="path25583"
           d="m -565.23438,10908.612 c -24.21875,3.125 -27.73437,33.203 -28.90625,37.5 -1.17187,4.297 6.64063,26.172 5.85938,22.656 -0.78125,-3.515 -1.17188,-16.796 -0.39063,-21.093 0.78125,-4.297 8.20313,-22.657 15.23438,-26.563 7.03125,-3.906 12.89062,-8.203 11.71875,-10.547 -1.17188,-2.343 -3.51563,-1.953 -3.51563,-1.953 z"
           style="color:#000000;fill:#7fad44;fill-opacity:1;fill-rule:nonzero;stroke:#1d401b;stroke-width:8.74797058;stroke-linecap:round;stroke-linejoin:round;stroke-miterlimit:4;stroke-opacity:1;stroke-dasharray:none;stroke-dashoffset:0;marker:none;visibility:visible;display:inline;overflow:visible;enable-background:accumulate" />
        <path
           style="color:#000000;fill:#3e6229;fill-opacity:1;fill-rule:nonzero;stroke:none;stroke-width:12;marker:none;visibility:visible;display:inline;overflow:visible;enable-background:accumulate"
           d="m -565.23438,10908.612 c -24.21875,3.125 -27.73437,33.203 -28.90625,37.5 -1.17187,4.297 6.64063,26.172 5.85938,22.656 -0.78125,-3.515 -1.17188,-16.796 -0.39063,-21.093 0.78125,-4.297 8.20313,-22.657 15.23438,-26.563 7.03125,-3.906 12.89062,-8.203 11.71875,-10.547 -1.17188,-2.343 -3.51563,-1.953 -3.51563,-1.953 z"
           id="path25585"
           inkscape:connector-curvature="0"
           transform="matrix(0.26458334,0,0,0.26458334,-6.3049604e-6,18.562493)" />
      </g>
      <g
         transform="matrix(-0.74497098,0.17873268,0.17425937,0.76409469,-678.28227,623.45559)"
         id="g25587"
         style="fill:#7fad44;fill-opacity:1">
        <path
           style="color:#000000;fill:#7fad44;fill-opacity:1;fill-rule:nonzero;stroke:#1d401b;stroke-width:8.74797058;stroke-linecap:round;stroke-linejoin:round;stroke-miterlimit:4;stroke-opacity:1;stroke-dasharray:none;stroke-dashoffset:0;marker:none;visibility:visible;display:inline;overflow:visible;enable-background:accumulate"
           d="m -565.23438,10908.612 c -24.21875,3.125 -27.73437,33.203 -28.90625,37.5 -1.17187,4.297 6.64063,26.172 5.85938,22.656 -0.78125,-3.515 -1.17188,-16.796 -0.39063,-21.093 0.78125,-4.297 8.20313,-22.657 15.23438,-26.563 7.03125,-3.906 12.89062,-8.203 11.71875,-10.547 -1.17188,-2.343 -3.51563,-1.953 -3.51563,-1.953 z"
           id="path25589"
           inkscape:connector-curvature="0"
           transform="matrix(0.26458334,0,0,0.26458334,-6.3049604e-6,18.562493)" />
        <path
           transform="matrix(0.26458334,0,0,0.26458334,-6.3049604e-6,18.562493)"
           inkscape:connector-curvature="0"
           id="path25591"
           d="m -565.23438,10908.612 c -24.21875,3.125 -27.73437,33.203 -28.90625,37.5 -1.17187,4.297 6.64063,26.172 5.85938,22.656 -0.78125,-3.515 -1.17188,-16.796 -0.39063,-21.093 0.78125,-4.297 8.20313,-22.657 15.23438,-26.563 7.03125,-3.906 12.89062,-8.203 11.71875,-10.547 -1.17188,-2.343 -3.51563,-1.953 -3.51563,-1.953 z"
           style="color:#000000;fill:#7fad44;fill-opacity:1;fill-rule:nonzero;stroke:none;stroke-width:12;marker:none;visibility:visible;display:inline;overflow:visible;enable-background:accumulate" />
        <path
           id="path25593"
           transform="matrix(-0.32243724,0.03593139,0.04028531,0.33458773,-645.89099,-629.7042)"
           d="m -194.90625,10601.281 c -0.34166,2.188 -2.62093,3.548 -5.125,3.219 3.15261,4.416 5.65303,9.201 6.21875,10.969 0.22453,0.701 0.45002,1.762 0.65625,2.969 0.44633,0.718 0.77612,1.315 0.9375,1.718 0.49462,1.237 0.31301,2.814 -0.15625,4.5 0.28831,3.08 0.44613,6.017 0.3125,7.313 -0.28981,2.811 3.89904,-14.937 2.53125,-18.188 -0.61199,-1.454 -2.12582,-6.901 -5.375,-12.5 z"
           style="opacity:0.47787607;color:#000000;fill:#3e6229;fill-opacity:1;fill-rule:nonzero;stroke:none;stroke-width:12;marker:none;visibility:visible;display:inline;overflow:visible;enable-background:accumulate"
           inkscape:connector-curvature="0" />
        <path
           id="path25595"
           transform="matrix(-0.32243724,0.03593139,0.04028531,0.33458773,-645.89099,-629.7042)"
           d="m -216.90625,10587.031 c -0.57821,0.06 -1.80341,0.365 -2.34375,1.813 -0.72035,1.931 4.45718,4.782 10.53125,7.218 4.77191,1.915 10.5506,10.699 13.34375,16 0.21513,-3.573 0.12966,-8.21 -0.40625,-12.25 -4.08827,-6.423 -10.58664,-12.61 -20.8125,-12.781 0,0 -0.11976,-0.02 -0.3125,0 z"
           style="color:#000000;fill:#a2e138;fill-opacity:1;fill-rule:nonzero;stroke:none;stroke-width:12;marker:none;visibility:visible;display:inline;overflow:visible;enable-background:accumulate"
           inkscape:connector-curvature="0" />
      </g>
      <g
         style="fill:#7fad44;fill-opacity:1"
         transform="matrix(0.98704564,-0.44394738,0.2936311,0.6782543,211.19642,941.58789)"
         id="g25597">
        <path
           style="font-size:medium;font-style:normal;font-variant:normal;font-weight:normal;font-stretch:normal;text-indent:0;text-align:start;text-decoration:none;line-height:normal;letter-spacing:normal;word-spacing:normal;text-transform:none;direction:ltr;block-progression:tb;writing-mode:lr-tb;text-anchor:start;baseline-shift:baseline;color:#000000;fill:#3e6229;fill-opacity:1;stroke:#1d401b;stroke-width:2.00531864;stroke-linejoin:round;stroke-miterlimit:4;stroke-opacity:1;stroke-dasharray:none;marker:none;visibility:visible;display:inline;overflow:visible;enable-background:accumulate;font-family:Sans;-inkscape-font-specification:Sans"
           d="m -938.43685,2150.3366 c 0.85807,-0.038 1.77542,-0.011 2.73809,0.091 7.68859,0.8179 12.40687,5.3349 15.12795,9.743 1.36054,2.2041 2.22712,4.3959 2.73809,6.0922 0.25548,0.8483 0.63266,3.8017 0.37459,3.7178 -0.25806,-0.084 -0.4021,-2.4979 -1.04709,-3.7374 -0.78353,-1.5059 -1.57944,-3.4525 -2.88694,-5.5706 -2.61503,-4.2364 -7.06141,-8.5038 -14.42061,-9.2867 -7.34646,-0.7815 -11.12251,2.852 -13.21129,6.7312 -2.08878,3.8791 -2.37301,7.9632 -2.37301,7.9632 0.019,0.2711 -0.23314,0.5292 -0.50463,0.5163 -0.27148,-0.013 -0.4982,-0.2934 -0.4537,-0.5616 0,0 0.2575,-4.2756 2.46428,-8.3739 1.93093,-3.5861 5.44782,-7.0614 11.45434,-7.3244 z"
           id="path25599"
           inkscape:connector-curvature="0"
           sodipodi:nodetypes="ccccssccscscscc" />
        <path
           sodipodi:nodetypes="ccccssccsccscc"
           inkscape:connector-curvature="0"
           id="path25601"
           d="m -938.43685,2150.3366 c 0.85807,-0.038 1.77542,-0.011 2.73809,0.091 7.68859,0.8179 12.40687,5.3349 15.12795,9.743 1.36054,2.2041 2.22712,4.3959 2.73809,6.0922 0.25548,0.8483 0.63266,3.8017 0.37459,3.7178 -0.25806,-0.084 -0.4021,-2.4979 -1.04709,-3.7374 -0.78353,-1.5059 -1.57944,-3.4525 -2.88694,-5.5706 -2.61503,-4.2364 -7.06141,-8.5038 -14.42061,-9.2867 -7.34646,-0.7815 -11.12251,2.852 -13.21129,6.7312 -2.08878,3.8791 -2.56629,9.8912 -2.56629,9.8912 0.019,0.2711 -1.57845,1.085 -1.02778,-1.2853 0,0 0.52023,-4.9636 2.72701,-9.0619 1.93093,-3.5861 5.44782,-7.0614 11.45434,-7.3244 z"
           style="font-size:medium;font-style:normal;font-variant:normal;font-weight:normal;font-stretch:normal;text-indent:0;text-align:start;text-decoration:none;line-height:normal;letter-spacing:normal;word-spacing:normal;text-transform:none;direction:ltr;block-progression:tb;writing-mode:lr-tb;text-anchor:start;baseline-shift:baseline;color:#000000;fill:#7fad44;fill-opacity:1;stroke:none;stroke-width:1.32291675;marker:none;visibility:visible;display:inline;overflow:visible;enable-background:accumulate;font-family:Sans;-inkscape-font-specification:Sans" />
      </g>
      <g
         inkscape:transform-center-y="23.132656"
         inkscape:transform-center-x="16.617308"
         id="g25603"
         transform="matrix(-0.96634628,-0.10411087,-0.0774134,0.92595337,19.005886,110.93736)"
         style="fill:#7fad44;fill-opacity:1">
        <path
           inkscape:connector-curvature="0"
           id="path25605"
           d="m -149.01725,2907.342 c 1.87355,4.3329 5.26935,7.8456 6.08903,8.8994 0.81968,1.0541 1.52225,3.63 1.52225,3.63 0,0 0.46839,-2.2249 -0.35128,-5.0352 -0.81968,-2.8103 -3.27871,-5.7375 -5.03517,-7.1429 -1.75644,-1.405 -2.22483,-0.3513 -2.22483,-0.3513 z"
           style="color:#000000;fill:#7fad44;fill-opacity:1;fill-rule:nonzero;stroke:#1d401b;stroke-width:1.88743818;stroke-linecap:round;stroke-linejoin:round;stroke-miterlimit:4;stroke-opacity:1;stroke-dasharray:none;stroke-dashoffset:0;marker:none;visibility:visible;display:inline;overflow:visible;enable-background:accumulate" />
        <path
           style="color:#000000;fill:#7fad44;fill-opacity:1;fill-rule:nonzero;stroke:none;stroke-width:3.17499995;marker:none;visibility:visible;display:inline;overflow:visible;enable-background:accumulate"
           d="m -149.01725,2907.342 c 1.87355,4.3329 5.26935,7.8456 6.08903,8.8994 0.81968,1.0541 1.52225,3.63 1.52225,3.63 0,0 0.46839,-2.2249 -0.35128,-5.0352 -0.81968,-2.8103 -3.27871,-5.7375 -5.03517,-7.1429 -1.75644,-1.405 -2.22483,-0.3513 -2.22483,-0.3513 z"
           id="path25607"
           inkscape:connector-curvature="0" />
        <path
           id="path25609"
           transform="matrix(-0.25018709,-0.06071827,-0.05155585,0.2780804,341.39689,-52.415282)"
           d="m -239.9375,10610.312 c -3.04786,0.138 -9.9034,2.074 -12.09375,1.344 -0.58891,-0.196 -1.01943,-0.635 -1.28125,-1.25 -1.07849,1.349 -2.03904,2.746 -2.84375,4.156 -5.12804,8.987 -4.90625,17.032 -4.90625,17.032 0,0 4.4923,-8.276 8.375,-11.219 2.10055,-1.592 7.6205,-5.034 13.84375,-9.969 -0.25672,-0.08 -0.62516,-0.115 -1.09375,-0.09 z"
           style="opacity:0.47787607;color:#000000;fill:#3e6229;fill-opacity:1;fill-rule:nonzero;stroke:none;stroke-width:3.17499995;marker:none;visibility:visible;display:inline;overflow:visible;enable-background:accumulate"
           inkscape:connector-curvature="0" />
        <path
           id="path25611"
           transform="matrix(-0.25018709,-0.06071827,-0.05155585,0.2780804,341.39689,-52.415282)"
           d="m -227.21875,10592.844 c -1.18277,0.1 -2.69636,0.501 -4.625,1.344 -2.96399,1.294 -6.46676,3.26 -9.96875,5.718 2.12398,-0.547 3.93801,-0.536 5,0.438 1.96468,1.801 1.79731,4.813 1.0625,7.531 4.37879,-3.71 8.89139,-8.114 12.6875,-13.063 0,0 -0.60795,-2.259 -4.15625,-1.968 z"
           style="color:#000000;fill:#a2e138;fill-opacity:1;fill-rule:nonzero;stroke:none;stroke-width:3.17499995;marker:none;visibility:visible;display:inline;overflow:visible;enable-background:accumulate"
           inkscape:connector-curvature="0" />
      </g>
      <g
         id="g25613"
         transform="matrix(-0.86558787,0.22121556,0.215679,0.88780788,-816.5322,271.01598)"
         style="fill:#7fad44;fill-opacity:1">
        <path
           inkscape:connector-curvature="0"
           id="path25615"
           d="m -149.01725,2907.342 c 1.87355,4.3329 5.26935,7.8456 6.08903,8.8994 0.81968,1.0541 1.52225,3.63 1.52225,3.63 0,0 0.46839,-2.2249 -0.35128,-5.0352 -0.81968,-2.8103 -3.27871,-5.7375 -5.03517,-7.1429 -1.75644,-1.405 -2.22483,-0.3513 -2.22483,-0.3513 z"
           style="color:#000000;fill:#7fad44;fill-opacity:1;fill-rule:nonzero;stroke:#1d401b;stroke-width:1.98511612;stroke-linecap:round;stroke-linejoin:round;stroke-miterlimit:4;stroke-opacity:1;stroke-dasharray:none;stroke-dashoffset:0;marker:none;visibility:visible;display:inline;overflow:visible;enable-background:accumulate" />
        <path
           style="color:#000000;fill:#7fad44;fill-opacity:1;fill-rule:nonzero;stroke:none;stroke-width:3.17499995;marker:none;visibility:visible;display:inline;overflow:visible;enable-background:accumulate"
           d="m -149.01725,2907.342 c 1.87355,4.3329 5.26935,7.8456 6.08903,8.8994 0.81968,1.0541 1.52225,3.63 1.52225,3.63 0,0 0.46839,-2.2249 -0.35128,-5.0352 -0.81968,-2.8103 -3.27871,-5.7375 -5.03517,-7.1429 -1.75644,-1.405 -2.22483,-0.3513 -2.22483,-0.3513 z"
           id="path25617"
           inkscape:connector-curvature="0" />
        <path
           id="path25619"
           transform="matrix(-0.27606919,0.0348,0.03868402,0.28643528,-618.93199,-120.79017)"
           d="m -233.15625,10613.25 c -0.45821,0.118 -1.43255,1.186 -2.625,2.875 -1.70577,3.572 -2.99929,7.313 -3.5625,10.906 -1.56759,10.002 1.15625,17.438 1.15625,17.438 0,0 1.27512,-9.152 3.6875,-13.125 1.30575,-2.15 4.95101,-7.113 8.75,-13.688 -3.49578,2.832 -9.69246,3.429 -7.53125,-2.437 0.54206,-1.472 0.51937,-2.07 0.125,-1.969 z"
           style="opacity:0.47787607;color:#000000;fill:#3e6229;fill-opacity:1;fill-rule:nonzero;stroke:none;stroke-width:3.17499995;marker:none;visibility:visible;display:inline;overflow:visible;enable-background:accumulate"
           inkscape:connector-curvature="0" />
        <path
           id="path25621"
           transform="matrix(-0.27606919,0.0348,0.03868402,0.28643528,-618.93199,-120.79017)"
           d="m -219.375,10597.125 c -1.24079,0.04 -3.0275,0.776 -5.46875,3.219 -2.47223,2.474 -5.30214,6.026 -7.8125,10.094 4.69786,-5.305 10.20142,-9.835 11.0625,-4.094 0.11761,0.784 0.26788,1.71 0.40625,2.562 1.56791,-3.393 2.99984,-7.011 4.09375,-10.75 0,0 -0.68595,-1.079 -2.28125,-1.031 z"
           style="color:#000000;fill:#a2e138;fill-opacity:1;fill-rule:nonzero;stroke:none;stroke-width:3.17499995;marker:none;visibility:visible;display:inline;overflow:visible;enable-background:accumulate"
           inkscape:connector-curvature="0" />
      </g>
      <g
         transform="matrix(0.88741001,0.31823615,-0.32797159,0.80966148,1027.4515,513.80119)"
         id="g25623"
         inkscape:transform-center-x="-7.498433"
         inkscape:transform-center-y="24.199975"
         style="fill:#7fad44;fill-opacity:1">
        <path
           style="color:#000000;fill:#7fad44;fill-opacity:1;fill-rule:nonzero;stroke:#1d401b;stroke-width:1.97703385;stroke-linecap:round;stroke-linejoin:round;stroke-miterlimit:4;stroke-opacity:1;stroke-dasharray:none;stroke-dashoffset:0;marker:none;visibility:visible;display:inline;overflow:visible;enable-background:accumulate"
           d="m -149.01725,2907.342 c 1.87355,4.3329 5.26935,7.8456 6.08903,8.8994 0.81968,1.0541 1.52225,3.63 1.52225,3.63 0,0 0.46839,-2.2249 -0.35128,-5.0352 -0.81968,-2.8103 -3.27871,-5.7375 -5.03517,-7.1429 -1.75644,-1.405 -2.22483,-0.3513 -2.22483,-0.3513 z"
           id="path25625"
           inkscape:connector-curvature="0" />
        <path
           inkscape:connector-curvature="0"
           id="path25627"
           d="m -149.01725,2907.342 c 1.87355,4.3329 5.26935,7.8456 6.08903,8.8994 0.81968,1.0541 1.52225,3.63 1.52225,3.63 0,0 0.46839,-2.2249 -0.35128,-5.0352 -0.81968,-2.8103 -3.27871,-5.7375 -5.03517,-7.1429 -1.75644,-1.405 -2.22483,-0.3513 -2.22483,-0.3513 z"
           style="color:#000000;fill:#7fad44;fill-opacity:1;fill-rule:nonzero;stroke:none;stroke-width:3.17499995;marker:none;visibility:visible;display:inline;overflow:visible;enable-background:accumulate" />
        <path
           id="path25629"
           transform="matrix(0.23048348,-0.12785993,0.13260584,0.27252999,-1506.9505,-9.1086656)"
           d="m -205.5625,10629.344 c 1.16996,4.426 2.31105,7.836 2.71875,9.531 1.04813,4.36 -0.84375,12.937 -0.84375,12.937 0,0 5.28487,-5.691 7.15625,-15.124 0.19681,-0.993 0.3229,-2.015 0.40625,-3.063 -1.231,3.078 -6.46016,0.785 -9.4375,-4.281 z"
           style="opacity:0.47787607;color:#000000;fill:#3e6229;fill-opacity:1;fill-rule:nonzero;stroke:none;stroke-width:3.17499995;marker:none;visibility:visible;display:inline;overflow:visible;enable-background:accumulate"
           inkscape:connector-curvature="0" />
        <path
           id="path25631"
           transform="matrix(0.23048348,-0.12785993,0.13260584,0.27252999,-1506.9505,-9.1086656)"
           d="m -207.625,10603.031 c -0.78249,0.04 -1.25,0.375 -1.25,0.375 -0.29316,5.675 0.30841,11.359 1.21875,16.5 2.20373,-5.467 6.48381,-5.887 8.96875,-4.25 -0.94959,-2.915 -2.02821,-5.571 -3.15625,-7.687 -2.29078,-4.297 -4.47711,-5.006 -5.78125,-4.938 z"
           style="color:#000000;fill:#a2e138;fill-opacity:1;fill-rule:nonzero;stroke:none;stroke-width:3.17499995;marker:none;visibility:visible;display:inline;overflow:visible;enable-background:accumulate"
           inkscape:connector-curvature="0" />
      </g>
      <g
         inkscape:transform-center-y="30.537235"
         inkscape:transform-center-x="14.904234"
         id="g25633"
         transform="matrix(0.95432815,0.30162482,-0.30162482,0.95432815,1495.2643,1004.4741)"
         style="fill:#7fad44;fill-opacity:1">
        <path
           inkscape:connector-curvature="0"
           id="path25635"
           d="m -942.66327,2196.5556 c -0.75023,4.6521 -3.13207,8.8768 -3.65852,10.0961 -0.52637,1.2197 -0.58376,3.886 -0.58376,3.886 0,0 -0.96649,-2.0434 -0.85364,-4.9651 0.11287,-2.9218 1.74734,-6.3528 3.07624,-8.1392 1.32896,-1.7859 2.01968,-0.8778 2.01968,-0.8778 z"
           style="color:#000000;fill:#7fad44;fill-opacity:1;fill-rule:nonzero;stroke:#1d401b;stroke-width:1.791875;stroke-linecap:round;stroke-linejoin:round;stroke-miterlimit:4;stroke-opacity:1;stroke-dasharray:none;stroke-dashoffset:0;marker:none;visibility:visible;display:inline;overflow:visible;enable-background:accumulate" />
        <path
           style="color:#000000;fill:#7fad44;fill-opacity:1;fill-rule:nonzero;stroke:none;stroke-width:3.17499995;marker:none;visibility:visible;display:inline;overflow:visible;enable-background:accumulate"
           d="m -942.66327,2196.5556 c -0.75023,4.6521 -3.13207,8.8768 -3.65852,10.0961 -0.52637,1.2197 -0.58376,3.886 -0.58376,3.886 0,0 -0.96649,-2.0434 -0.85364,-4.9651 0.11287,-2.9218 1.74734,-6.3528 3.07624,-8.1392 1.32896,-1.7859 2.01968,-0.8778 2.01968,-0.8778 z"
           id="path25637"
           inkscape:connector-curvature="0" />
        <path
           id="path25639"
           transform="matrix(0.22572139,-0.10296067,0.10610316,0.24190176,-2011.2166,-388.73539)"
           d="m -272.125,10603.219 c -1.03733,1.45 -1.97177,2.911 -2.75,4.406 -5.14751,9.887 -4.90625,18.469 -4.90625,18.469 0,0 4.5506,-9.095 8.46875,-12.469 1.8698,-1.61 6.42744,-4.966 11.78125,-9.594 -3.38484,1.417 -7.05058,2.545 -9.5,1.969 -1.57404,-0.37 -2.52157,-1.435 -3.09375,-2.781 z"
           style="opacity:0.47787607;color:#000000;fill:#3e6229;fill-opacity:1;fill-rule:nonzero;stroke:none;stroke-width:3.17499995;marker:none;visibility:visible;display:inline;overflow:visible;enable-background:accumulate"
           inkscape:connector-curvature="0" />
        <path
           id="path25641"
           transform="matrix(0.22572139,-0.10296067,0.10610316,0.24190176,-2011.2166,-388.73539)"
           d="m -244.84375,10582.656 c -1.29673,0.03 -3.06318,0.512 -5.5,1.782 -4.37725,2.282 -9.94978,6.192 -14.90625,10.937 9.47609,-5.67 15.70679,-7.886 14.28125,-2.469 -0.39478,1.5 -0.93719,3.094 -1.53125,4.656 3.85592,-3.831 7.71201,-8.185 11.03125,-12.968 0,0 -0.5222,-2.014 -3.375,-1.938 z"
           style="color:#000000;fill:#a2e138;fill-opacity:1;fill-rule:nonzero;stroke:none;stroke-width:3.17499995;marker:none;visibility:visible;display:inline;overflow:visible;enable-background:accumulate"
           inkscape:connector-curvature="0" />
      </g>
      <g
         transform="matrix(-0.89092604,0.04483958,0.04599062,0.91379649,-340.01988,166.14039)"
         id="g25643"
         style="fill:#7fad44;fill-opacity:1">
        <path
           style="color:#000000;fill:#7fad44;fill-opacity:1;fill-rule:nonzero;stroke:#1d401b;stroke-width:1.98511612;stroke-linecap:round;stroke-linejoin:round;stroke-miterlimit:4;stroke-opacity:1;stroke-dasharray:none;stroke-dashoffset:0;marker:none;visibility:visible;display:inline;overflow:visible;enable-background:accumulate"
           d="m -149.01725,2907.342 c 1.87355,4.3329 5.26935,7.8456 6.08903,8.8994 0.81968,1.0541 1.52225,3.63 1.52225,3.63 0,0 0.46839,-2.2249 -0.35128,-5.0352 -0.81968,-2.8103 -3.27871,-5.7375 -5.03517,-7.1429 -1.75644,-1.405 -2.22483,-0.3513 -2.22483,-0.3513 z"
           id="path25645"
           inkscape:connector-curvature="0" />
        <path
           inkscape:connector-curvature="0"
           id="path25647"
           d="m -149.01725,2907.342 c 1.87355,4.3329 5.26935,7.8456 6.08903,8.8994 0.81968,1.0541 1.52225,3.63 1.52225,3.63 0,0 0.46839,-2.2249 -0.35128,-5.0352 -0.81968,-2.8103 -3.27871,-5.7375 -5.03517,-7.1429 -1.75644,-1.405 -2.22483,-0.3513 -2.22483,-0.3513 z"
           style="color:#000000;fill:#7fad44;fill-opacity:1;fill-rule:nonzero;stroke:none;stroke-width:3.17499995;marker:none;visibility:visible;display:inline;overflow:visible;enable-background:accumulate" />
        <path
           id="path25649"
           transform="matrix(-0.27764357,-0.01939783,-0.01686585,0.28848137,-44.991528,-150.21163)"
           d="m -291.53125,10597.031 c -1.71648,2.545 -3.17047,5.19 -4.15625,7.844 -3.52959,9.504 -2.3125,17.313 -2.3125,17.313 0,0 3.05742,-8.715 6.21875,-12.157 1.71954,-1.871 6.33469,-6.099 11.40625,-11.875 -1.62382,0.836 -3.30774,1.613 -4.9375,2.188 -4.95927,1.75 -7.76595,1.557 -6.21875,-3.313 z"
           style="opacity:0.47787607;color:#000000;fill:#3e6229;fill-opacity:1;fill-rule:nonzero;stroke:none;stroke-width:3.17499995;marker:none;visibility:visible;display:inline;overflow:visible;enable-background:accumulate"
           inkscape:connector-curvature="0" />
        <path
           id="path25651"
           transform="matrix(-0.27764357,-0.01939783,-0.01686585,0.28848137,-44.991528,-150.21163)"
           d="m -270.6875,10579.281 c -1.22258,-0.01 -2.96432,0.496 -5.4375,2.157 -3.57379,2.399 -7.99385,6.299 -11.84375,10.874 4.67853,-3.501 10.20384,-6.869 12.5625,-5.781 1.38084,0.638 1.70246,1.952 1.53125,3.469 2.08116,-2.887 4.09555,-5.985 5.8125,-9.25 0,0 -0.58736,-1.451 -2.625,-1.469 z"
           style="color:#000000;fill:#a2e138;fill-opacity:1;fill-rule:nonzero;stroke:none;stroke-width:3.17499995;marker:none;visibility:visible;display:inline;overflow:visible;enable-background:accumulate"
           inkscape:connector-curvature="0" />
      </g>
      <g
         style="fill:#7fad44;fill-opacity:1"
         id="g25653"
         transform="matrix(-0.69594901,0.04483958,0.1947283,0.91379649,-749.30927,166.67067)">
        <path
           inkscape:connector-curvature="0"
           id="path25655"
           d="m -149.01725,2907.342 c 1.87355,4.3329 5.26935,7.8456 6.08903,8.8994 0.81968,1.0541 1.52225,3.63 1.52225,3.63 0,0 0.46839,-2.2249 -0.35128,-5.0352 -0.81968,-2.8103 -3.27871,-5.7375 -5.03517,-7.1429 -1.75644,-1.405 -2.22483,-0.3513 -2.22483,-0.3513 z"
           style="color:#000000;fill:#7fad44;fill-opacity:1;fill-rule:nonzero;stroke:#1d401b;stroke-width:2.23360443;stroke-linecap:round;stroke-linejoin:round;stroke-miterlimit:4;stroke-opacity:1;stroke-dasharray:none;stroke-dashoffset:0;marker:none;visibility:visible;display:inline;overflow:visible;enable-background:accumulate" />
        <path
           style="color:#000000;fill:#7fad44;fill-opacity:1;fill-rule:nonzero;stroke:none;stroke-width:3.17499995;marker:none;visibility:visible;display:inline;overflow:visible;enable-background:accumulate"
           d="m -149.01725,2907.342 c 1.87355,4.3329 5.26935,7.8456 6.08903,8.8994 0.81968,1.0541 1.52225,3.63 1.52225,3.63 0,0 0.46839,-2.2249 -0.35128,-5.0352 -0.81968,-2.8103 -3.27871,-5.7375 -5.03517,-7.1429 -1.75644,-1.405 -2.22483,-0.3513 -2.22483,-0.3513 z"
           id="path25657"
           inkscape:connector-curvature="0" />
        <path
           id="path25659"
           transform="matrix(-0.35846422,-0.015432,0.039292,0.28572573,-669.39151,-120.15291)"
           d="m -297.0625,10594.562 c -2.69717,2.227 -5.28899,4.837 -6.3125,6.5 -2.35008,3.819 -4.93031,2.26 -4.53125,-2.624 -0.71979,2.259 -1.27464,4.561 -1.5625,6.874 -1.21571,9.77 0.96875,17.688 0.96875,17.688 0,0 0.98153,-8.976 2.875,-12.562 1.22054,-2.312 5.03398,-8.074 8.5625,-15.876 z"
           style="opacity:0.47787607;color:#000000;fill:#3e6229;fill-opacity:1;fill-rule:nonzero;stroke:none;stroke-width:3.17499995;marker:none;visibility:visible;display:inline;overflow:visible;enable-background:accumulate"
           inkscape:connector-curvature="0" />
        <path
           id="path25661"
           transform="matrix(-0.35846422,-0.015432,0.039292,0.28572573,-669.39151,-120.15291)"
           d="m -294.21875,10578.594 c -0.94514,0.02 -2.22992,0.588 -3.875,2.344 -1.23745,1.32 -2.58181,3.058 -3.90625,5.093 1.5394,-1.151 3.17074,-1.294 5,-0.562 1.27285,0.509 2.05756,1.523 2.53125,2.781 0.94649,-2.601 1.81358,-5.353 2.5,-8.219 0,0 -0.67476,-1.472 -2.25,-1.437 z"
           style="color:#000000;fill:#a2e138;fill-opacity:1;fill-rule:nonzero;stroke:none;stroke-width:3.17499995;marker:none;visibility:visible;display:inline;overflow:visible;enable-background:accumulate"
           inkscape:connector-curvature="0" />
      </g>
      <g
         transform="matrix(-0.69594901,0.04483958,0.1947283,0.91379649,-753.68413,168.39409)"
         id="g25663"
         style="fill:#7fad44;fill-opacity:1">
        <path
           style="color:#000000;fill:#7fad44;fill-opacity:1;fill-rule:nonzero;stroke:#1d401b;stroke-width:2.23360443;stroke-linecap:round;stroke-linejoin:round;stroke-miterlimit:4;stroke-opacity:1;stroke-dasharray:none;stroke-dashoffset:0;marker:none;visibility:visible;display:inline;overflow:visible;enable-background:accumulate"
           d="m -149.01725,2907.342 c 1.87355,4.3329 5.26935,7.8456 6.08903,8.8994 0.81968,1.0541 1.52225,3.63 1.52225,3.63 0,0 0.46839,-2.2249 -0.35128,-5.0352 -0.81968,-2.8103 -3.27871,-5.7375 -5.03517,-7.1429 -1.75644,-1.405 -2.22483,-0.3513 -2.22483,-0.3513 z"
           id="path25665"
           inkscape:connector-curvature="0" />
        <path
           inkscape:connector-curvature="0"
           id="path25667"
           d="m -149.01725,2907.342 c 1.87355,4.3329 5.26935,7.8456 6.08903,8.8994 0.81968,1.0541 1.52225,3.63 1.52225,3.63 0,0 0.46839,-2.2249 -0.35128,-5.0352 -0.81968,-2.8103 -3.27871,-5.7375 -5.03517,-7.1429 -1.75644,-1.405 -2.22483,-0.3513 -2.22483,-0.3513 z"
           style="color:#000000;fill:#7fad44;fill-opacity:1;fill-rule:nonzero;stroke:none;stroke-width:3.17499995;marker:none;visibility:visible;display:inline;overflow:visible;enable-background:accumulate" />
        <path
           id="path25669"
           transform="matrix(-0.35846422,-0.015432,0.039292,0.28572573,-676.11311,-121.70909)"
           d="m -315.46875,10599.406 c -2.18347,2.576 -5.8474,7.474 -7.375,9.438 -1.79566,2.308 -3.78092,0.506 -4.0625,-3.344 -0.35499,1.421 -0.63439,2.85 -0.8125,4.281 -1.21571,9.77 0.96875,17.688 0.96875,17.688 0,0 0.95028,-8.976 2.84375,-12.563 1.20143,-2.275 4.95564,-7.884 8.4375,-15.5 z"
           style="opacity:0.47787607;color:#000000;fill:#3e6229;fill-opacity:1;fill-rule:nonzero;stroke:none;stroke-width:3.17499995;marker:none;visibility:visible;display:inline;overflow:visible;enable-background:accumulate"
           inkscape:connector-curvature="0" />
        <path
           id="path25671"
           transform="matrix(-0.35846422,-0.015432,0.039292,0.28572573,-676.11311,-121.70909)"
           d="m -312.5,10583.062 c -0.94514,0.02 -2.19867,0.589 -3.84375,2.344 -3.30877,3.532 -7.41487,10.036 -9.75,17.219 0.14289,-0.188 0.25201,-0.323 0.40625,-0.531 7.01065,-9.449 11.66561,-12.32 13.5,-10.906 0.732,-2.144 1.38413,-4.378 1.9375,-6.688 0,0 -0.67476,-1.473 -2.25,-1.438 z"
           style="color:#000000;fill:#a2e138;fill-opacity:1;fill-rule:nonzero;stroke:none;stroke-width:3.17499995;marker:none;visibility:visible;display:inline;overflow:visible;enable-background:accumulate"
           inkscape:connector-curvature="0" />
      </g>
    </g>
  </g>
</svg>
