<?xml version="1.0" encoding="UTF-8" standalone="no"?>
<!-- Created with Inkscape (http://www.inkscape.org/) -->

<svg
   xmlns:dc="http://purl.org/dc/elements/1.1/"
   xmlns:cc="http://creativecommons.org/ns#"
   xmlns:rdf="http://www.w3.org/1999/02/22-rdf-syntax-ns#"
   xmlns:svg="http://www.w3.org/2000/svg"
   xmlns="http://www.w3.org/2000/svg"
   xmlns:xlink="http://www.w3.org/1999/xlink"
   xmlns:sodipodi="http://sodipodi.sourceforge.net/DTD/sodipodi-0.dtd"
   xmlns:inkscape="http://www.inkscape.org/namespaces/inkscape"
   width="247.70953"
   height="206.82275"
   viewBox="0 0 65.539811 54.721855"
   version="1.1"
   id="svg23489"
   inkscape:version="0.48.5 r10040"
   sodipodi:docname="leaf_05.svg"
   tags="palm tree leaf,tree leaf,tree part, leaves, leaf, palm tree,tree, tree part">
  <defs
     id="defs23483">
    <linearGradient
       inkscape:collect="always"
       xlink:href="#linearGradient26050"
       id="linearGradient26097"
       gradientUnits="userSpaceOnUse"
       x1="-3444.0586"
       y1="8170.0645"
       x2="-3439.3633"
       y2="8221.8965" />
    <linearGradient
       inkscape:collect="always"
       id="linearGradient26050">
      <stop
         style="stop-color:#7fad44;stop-opacity:1;"
         offset="0"
         id="stop26052" />
      <stop
         style="stop-color:#c88a37;stop-opacity:1"
         offset="1"
         id="stop26054" />
    </linearGradient>
  </defs>
  <sodipodi:namedview
     id="base"
     pagecolor="#7d848b"
     bordercolor="#666666"
     borderopacity="1.0"
     inkscape:pageopacity="0"
     inkscape:pageshadow="2"
     inkscape:zoom="0.30135381"
     inkscape:cx="520.67942"
     inkscape:cy="-96.412758"
     inkscape:document-units="px"
     inkscape:current-layer="layer1"
     showgrid="false"
     inkscape:pagecheckerboard="false"
     showborder="true"
     units="px"
     inkscape:window-width="1920"
     inkscape:window-height="1017"
     inkscape:window-x="-8"
     inkscape:window-y="-8"
     inkscape:window-maximized="1"
     inkscape:showpageshadow="false"
     guidetolerance="28"
     fit-margin-top="15"
     fit-margin-left="15"
     fit-margin-bottom="15"
     fit-margin-right="15">
    <inkscape:grid
       type="xygrid"
       id="grid24034"
       spacingx="1px"
       spacingy="1px"
       empspacing="8"
       visible="true"
       enabled="true"
       snapvisiblegridlinesonly="true"
       originx="940.9227px"
       originy="-706.56304px" />
  </sodipodi:namedview>
  <metadata
     id="metadata23486">
    <rdf:RDF>
      <cc:Work
         rdf:about="">
        <dc:format>image/svg+xml</dc:format>
        <dc:type
           rdf:resource="http://purl.org/dc/dcmitype/StillImage" />
        <dc:title></dc:title>
        <cc:license
           rdf:resource="" />
        <dc:creator>
          <cc:Agent>
            <dc:title>Robert Brooks</dc:title>
          </cc:Agent>
        </dc:creator>
      </cc:Work>
    </rdf:RDF>
  </metadata>
  <g
     inkscape:label="Layer 1"
     inkscape:groupmode="layer"
     id="layer1"
     transform="translate(109.4866,-150.28778)">
    <g
       transform="matrix(1.2962576,0,0,1.0631753,73.758499,-2843.421)"
       id="g25451">
      <g
         id="g25453"
         transform="matrix(0.83511898,0.19534628,-0.19534628,0.83511898,578.6734,423.86991)">
        <path
           transform="matrix(0.26458334,0,0,0.26458334,-6.3049604e-6,18.562493)"
           inkscape:connector-curvature="0"
           id="path25455"
           d="m -565.23438,10908.612 c -24.21875,3.125 -27.73437,33.203 -28.90625,37.5 -1.17187,4.297 6.64063,26.172 5.85938,22.656 -0.78125,-3.515 -1.17188,-16.796 -0.39063,-21.093 0.78125,-4.297 8.20313,-22.657 15.23438,-26.563 7.03125,-3.906 12.89062,-8.203 11.71875,-10.547 -1.17188,-2.343 -3.51563,-1.953 -3.51563,-1.953 z"
           style="color:#000000;fill:#00ff00;fill-opacity:1;fill-rule:nonzero;stroke:#1b3e1b;stroke-width:8.16172504;stroke-linecap:round;stroke-linejoin:round;stroke-miterlimit:4;stroke-opacity:1;stroke-dasharray:none;stroke-dashoffset:0;marker:none;visibility:visible;display:inline;overflow:visible;enable-background:accumulate" />
        <path
           style="color:#000000;fill:#a2e138;fill-opacity:1;fill-rule:nonzero;stroke:none;stroke-width:12;marker:none;visibility:visible;display:inline;overflow:visible;enable-background:accumulate"
           d="m -565.23438,10908.612 c -24.21875,3.125 -27.73437,33.203 -28.90625,37.5 -1.17187,4.297 6.64063,26.172 5.85938,22.656 -0.78125,-3.515 -1.17188,-16.796 -0.39063,-21.093 0.78125,-4.297 8.20313,-22.657 15.23438,-26.563 7.03125,-3.906 12.89062,-8.203 11.71875,-10.547 -1.17188,-2.343 -3.51563,-1.953 -3.51563,-1.953 z"
           id="path25457"
           inkscape:connector-curvature="0"
           transform="matrix(0.26458334,0,0,0.26458334,-6.3049604e-6,18.562493)" />
      </g>
      <g
         transform="matrix(0.83511898,0.19534628,-0.19534628,0.83511898,573.99618,425.77003)"
         id="g25459">
        <path
           style="color:#000000;fill:#00ff00;fill-opacity:1;fill-rule:nonzero;stroke:#1b3e1b;stroke-width:8.16172504;stroke-linecap:round;stroke-linejoin:round;stroke-miterlimit:4;stroke-opacity:1;stroke-dasharray:none;stroke-dashoffset:0;marker:none;visibility:visible;display:inline;overflow:visible;enable-background:accumulate"
           d="m -565.23438,10908.612 c -24.21875,3.125 -27.73437,33.203 -28.90625,37.5 -1.17187,4.297 6.64063,26.172 5.85938,22.656 -0.78125,-3.515 -1.17188,-16.796 -0.39063,-21.093 0.78125,-4.297 8.20313,-22.657 15.23438,-26.563 7.03125,-3.906 12.89062,-8.203 11.71875,-10.547 -1.17188,-2.343 -3.51563,-1.953 -3.51563,-1.953 z"
           id="path25461"
           inkscape:connector-curvature="0"
           transform="matrix(0.26458334,0,0,0.26458334,-6.3049604e-6,18.562493)" />
        <path
           transform="matrix(0.26458334,0,0,0.26458334,-6.3049604e-6,18.562493)"
           inkscape:connector-curvature="0"
           id="path25463"
           d="m -565.23438,10908.612 c -24.21875,3.125 -27.73437,33.203 -28.90625,37.5 -1.17187,4.297 6.64063,26.172 5.85938,22.656 -0.78125,-3.515 -1.17188,-16.796 -0.39063,-21.093 0.78125,-4.297 8.20313,-22.657 15.23438,-26.563 7.03125,-3.906 12.89062,-8.203 11.71875,-10.547 -1.17188,-2.343 -3.51563,-1.953 -3.51563,-1.953 z"
           style="color:#000000;fill:#a2e138;fill-opacity:1;fill-rule:nonzero;stroke:none;stroke-width:12;marker:none;visibility:visible;display:inline;overflow:visible;enable-background:accumulate" />
      </g>
      <g
         id="g25465"
         transform="matrix(0.83511898,0.19534628,-0.19534628,0.83511898,570.50657,430.64823)">
        <path
           transform="matrix(0.26458334,0,0,0.26458334,-6.3049604e-6,18.562493)"
           inkscape:connector-curvature="0"
           id="path25467"
           d="m -565.23438,10908.612 c -24.21875,3.125 -27.73437,33.203 -28.90625,37.5 -1.17187,4.297 6.64063,26.172 5.85938,22.656 -0.78125,-3.515 -1.17188,-16.796 -0.39063,-21.093 0.78125,-4.297 8.20313,-22.657 15.23438,-26.563 7.03125,-3.906 12.89062,-8.203 11.71875,-10.547 -1.17188,-2.343 -3.51563,-1.953 -3.51563,-1.953 z"
           style="color:#000000;fill:#00ff00;fill-opacity:1;fill-rule:nonzero;stroke:#1b3e1b;stroke-width:10;stroke-linecap:round;stroke-linejoin:round;stroke-miterlimit:4;stroke-opacity:1;stroke-dasharray:none;stroke-dashoffset:0;marker:none;visibility:visible;display:inline;overflow:visible;enable-background:accumulate" />
        <path
           style="color:#000000;fill:#a2e138;fill-opacity:1;fill-rule:nonzero;stroke:none;stroke-width:12;marker:none;visibility:visible;display:inline;overflow:visible;enable-background:accumulate"
           d="m -565.23438,10908.612 c -24.21875,3.125 -27.73437,33.203 -28.90625,37.5 -1.17187,4.297 6.64063,26.172 5.85938,22.656 -0.78125,-3.515 -1.17188,-16.796 -0.39063,-21.093 0.78125,-4.297 8.20313,-22.657 15.23438,-26.563 7.03125,-3.906 12.89062,-8.203 11.71875,-10.547 -1.17188,-2.343 -3.51563,-1.953 -3.51563,-1.953 z"
           id="path25469"
           inkscape:connector-curvature="0"
           transform="matrix(0.26458334,0,0,0.26458334,-6.3049604e-6,18.562493)" />
      </g>
      <g
         transform="matrix(0.84872525,0.12348821,-0.12348821,0.84872525,359.8939,384.96857)"
         id="g25471">
        <path
           style="color:#000000;fill:#00ff00;fill-opacity:1;fill-rule:nonzero;stroke:#1b3e1b;stroke-width:8.16172409;stroke-linecap:round;stroke-linejoin:round;stroke-miterlimit:4;stroke-opacity:1;stroke-dasharray:none;stroke-dashoffset:0;marker:none;visibility:visible;display:inline;overflow:visible;enable-background:accumulate"
           d="m -565.23438,10908.612 c -24.21875,3.125 -27.73437,33.203 -28.90625,37.5 -1.17187,4.297 6.64063,26.172 5.85938,22.656 -0.78125,-3.515 -1.17188,-16.796 -0.39063,-21.093 0.78125,-4.297 8.20313,-22.657 15.23438,-26.563 7.03125,-3.906 12.89062,-8.203 11.71875,-10.547 -1.17188,-2.343 -3.51563,-1.953 -3.51563,-1.953 z"
           id="path25473"
           inkscape:connector-curvature="0"
           transform="matrix(0.26458334,0,0,0.26458334,-6.3049604e-6,18.562493)" />
        <path
           transform="matrix(0.26458334,0,0,0.26458334,-6.3049604e-6,18.562493)"
           inkscape:connector-curvature="0"
           id="path25475"
           d="m -565.23438,10908.612 c -24.21875,3.125 -27.73437,33.203 -28.90625,37.5 -1.17187,4.297 6.64063,26.172 5.85938,22.656 -0.78125,-3.515 -1.17188,-16.796 -0.39063,-21.093 0.78125,-4.297 8.20313,-22.657 15.23438,-26.563 7.03125,-3.906 12.89062,-8.203 11.71875,-10.547 -1.17188,-2.343 -3.51563,-1.953 -3.51563,-1.953 z"
           style="color:#000000;fill:#a2e138;fill-opacity:1;fill-rule:nonzero;stroke:none;stroke-width:12;marker:none;visibility:visible;display:inline;overflow:visible;enable-background:accumulate" />
      </g>
      <g
         id="g25477"
         transform="matrix(-1.4334829,0.16658003,0.35718171,0.66853824,-1379.4686,918.97856)">
        <path
           inkscape:connector-curvature="0"
           id="path25479"
           d="m -149.01725,2907.342 c 1.87355,4.3329 5.26935,7.8456 6.08903,8.8994 0.81968,1.0541 1.52225,3.63 1.52225,3.63 0,0 0.46839,-2.2249 -0.35128,-5.0352 -0.81968,-2.8103 -3.27871,-5.7375 -5.03517,-7.1429 -1.75644,-1.405 -2.22483,-0.3513 -2.22483,-0.3513 z"
           style="color:#000000;fill:#00ff00;fill-opacity:1;fill-rule:nonzero;stroke:#1b3e1b;stroke-width:1.83578289;stroke-linecap:round;stroke-linejoin:round;stroke-miterlimit:4;stroke-opacity:1;stroke-dasharray:none;stroke-dashoffset:0;marker:none;visibility:visible;display:inline;overflow:visible;enable-background:accumulate" />
        <path
           style="color:#000000;fill:#9dd93a;fill-opacity:1;fill-rule:nonzero;stroke:none;stroke-width:3.17499995;marker:none;visibility:visible;display:inline;overflow:visible;enable-background:accumulate"
           d="m -149.01725,2907.342 c 1.87355,4.3329 5.26935,7.8456 6.08903,8.8994 0.81968,1.0541 1.52225,3.63 1.52225,3.63 0,0 0.46839,-2.2249 -0.35128,-5.0352 -0.81968,-2.8103 -3.27871,-5.7375 -5.03517,-7.1429 -1.75644,-1.405 -2.22483,-0.3513 -2.22483,-0.3513 z"
           id="path25481"
           inkscape:connector-curvature="0" />
      </g>
      <g
         id="g25483"
         transform="matrix(0.84872525,0.12348821,-0.12348821,0.84872525,356.09367,394.32301)">
        <path
           transform="matrix(0.26458334,0,0,0.26458334,-6.3049604e-6,18.562493)"
           inkscape:connector-curvature="0"
           id="path25485"
           d="m -565.23438,10908.612 c -24.21875,3.125 -27.73437,33.203 -28.90625,37.5 -1.17187,4.297 6.64063,26.172 5.85938,22.656 -0.78125,-3.515 -1.17188,-16.796 -0.39063,-21.093 0.78125,-4.297 8.20313,-22.657 15.23438,-26.563 7.03125,-3.906 12.89062,-8.203 11.71875,-10.547 -1.17188,-2.343 -3.51563,-1.953 -3.51563,-1.953 z"
           style="color:#000000;fill:#00ff00;fill-opacity:1;fill-rule:nonzero;stroke:#1b3e1b;stroke-width:8.16172409;stroke-linecap:round;stroke-linejoin:round;stroke-miterlimit:4;stroke-opacity:1;stroke-dasharray:none;stroke-dashoffset:0;marker:none;visibility:visible;display:inline;overflow:visible;enable-background:accumulate" />
        <path
           style="color:#000000;fill:#83a944;fill-opacity:1;fill-rule:nonzero;stroke:none;stroke-width:12;marker:none;visibility:visible;display:inline;overflow:visible;enable-background:accumulate"
           d="m -565.23438,10908.612 c -24.21875,3.125 -27.73437,33.203 -28.90625,37.5 -1.17187,4.297 6.64063,26.172 5.85938,22.656 -0.78125,-3.515 -1.17188,-16.796 -0.39063,-21.093 0.78125,-4.297 8.20313,-22.657 15.23438,-26.563 7.03125,-3.906 12.89062,-8.203 11.71875,-10.547 -1.17188,-2.343 -3.51563,-1.953 -3.51563,-1.953 z"
           id="path25487"
           inkscape:connector-curvature="0"
           transform="matrix(0.26458334,0,0,0.26458334,-6.3049604e-6,18.562493)" />
        <path
           inkscape:connector-curvature="0"
           style="color:#000000;fill:#acf434;fill-opacity:1;fill-rule:nonzero;stroke:none;stroke-width:12;marker:none;visibility:visible;display:inline;overflow:visible;enable-background:accumulate"
           d="m -489.625,10668.344 c -0.94318,-0.01 -1.83252,0.07 -2.71875,0.156 -3.56476,0.99 -4.14008,1.12 -7.875,2.156 -12.72369,6.242 -17.33213,23.144 -18.5625,25.969 -0.20309,0.466 -0.31138,1.213 -0.34375,2.156 5.53314,-15.347 16.64185,-26.3 27.4375,-27.281 1.81743,-0.165 3.41246,-0.468 4.84375,-0.844 -0.01,-0.07 -0.008,-0.147 -0.0312,-0.218 -0.70527,-2.134 -2.75,-2.094 -2.75,-2.094 z"
           transform="matrix(0.30527934,-0.04441767,0.04441767,0.30527934,-473.94688,-373.77663)"
           id="path25489" />
      </g>
      <g
         id="g25491"
         transform="matrix(1.1171907,0,0,1.1171907,87.050139,-315.12825)">
        <path
           style="font-size:medium;font-style:normal;font-variant:normal;font-weight:normal;font-stretch:normal;text-indent:0;text-align:start;text-decoration:none;line-height:normal;letter-spacing:normal;word-spacing:normal;text-transform:none;direction:ltr;block-progression:tb;writing-mode:lr-tb;text-anchor:start;baseline-shift:baseline;color:#000000;fill:#7fad44;fill-opacity:1;stroke:#1b3e1b;stroke-width:1.89062762;stroke-linejoin:round;stroke-miterlimit:4;stroke-opacity:1;stroke-dasharray:none;marker:none;visibility:visible;display:inline;overflow:visible;enable-background:accumulate;font-family:Sans;-inkscape-font-specification:Sans"
           d="m -174.63558,2807.5403 c -0.72976,-0.036 -1.50992,-0.01 -2.32863,0.085 -6.53881,0.7673 -10.55151,5.0048 -12.86567,9.1401 -1.15708,2.0677 -1.89407,4.1238 -2.32863,5.7151 -0.21727,0.7958 -0.53805,3.5665 -0.31857,3.4877 0.21947,-0.079 0.34197,-2.3433 0.89051,-3.5061 0.66635,-1.4127 1.34324,-3.2388 2.45521,-5.2258 2.22397,-3.9742 6.00543,-7.9775 12.26411,-8.712 6.24784,-0.7331 9.45921,2.6755 11.23563,6.3147 1.77642,3.639 2.01814,7.4703 2.01814,7.4703 -0.0162,0.2543 0.19828,0.4965 0.42917,0.4844 0.23088,-0.012 -0.18301,-0.2753 -0.22085,-0.5269 0,0 0.38771,-4.011 -1.48906,-7.8556 -1.64218,-3.3642 -4.63314,-6.6244 -9.74142,-6.8711 z"
           id="path25493"
           inkscape:connector-curvature="0"
           sodipodi:nodetypes="ccccssccscscscc" />
        <path
           sodipodi:nodetypes="ccccssccscscscc"
           inkscape:connector-curvature="0"
           id="path25495"
           d="m -174.63558,2807.5403 c -0.72976,-0.036 -1.50992,-0.01 -2.32863,0.085 -6.53881,0.7673 -10.55151,5.0048 -12.86567,9.1401 -1.15708,2.0677 -1.89407,4.1238 -2.32863,5.7151 -0.21727,0.7958 -0.53805,3.5665 -0.31857,3.4877 0.21947,-0.079 0.34197,-2.3433 0.89051,-3.5061 0.66635,-1.4127 1.34324,-3.2388 2.45521,-5.2258 2.22397,-3.9742 6.00543,-7.9775 12.26411,-8.712 6.24784,-0.7331 9.45921,2.6755 11.23563,6.3147 1.77642,3.639 2.01814,7.4703 2.01814,7.4703 -0.0162,0.2543 -0.004,1.8526 0.22694,1.8405 0.23088,-0.012 1.48541,0.033 1.44757,-0.2187 0,0 -1.07848,-5.6753 -2.95525,-9.5199 -1.64218,-3.3642 -4.63314,-6.6244 -9.74142,-6.8711 z"
           style="font-size:medium;font-style:normal;font-variant:normal;font-weight:normal;font-stretch:normal;text-indent:0;text-align:start;text-decoration:none;line-height:normal;letter-spacing:normal;word-spacing:normal;text-transform:none;direction:ltr;block-progression:tb;writing-mode:lr-tb;text-anchor:start;baseline-shift:baseline;color:#000000;fill:#7fad44;fill-opacity:1;stroke:none;stroke-width:1.32291675;marker:none;visibility:visible;display:inline;overflow:visible;enable-background:accumulate;font-family:Sans;-inkscape-font-specification:Sans" />
      </g>
      <g
         id="g25497"
         transform="matrix(0.99924866,-0.03875709,0.03875709,0.99924866,-92.112309,-69.897284)"
         inkscape:transform-center-x="5.8692067"
         inkscape:transform-center-y="35.259106">
        <path
           sodipodi:nodetypes="cssccc"
           inkscape:connector-curvature="0"
           id="path25499"
           d="m -149.82952,2908.6331 c -3.4096,3.1966 -3.30305,11.8273 -3.30305,14.3845 0,2.5572 0.95895,6.3928 0.95895,5.7535 0,-0.6394 0.2131,-9.5892 1.4917,-13.5315 1.2786,-3.9426 2.3441,-5.6474 1.9179,-6.3932 -0.4262,-0.746 -1.0655,-0.2133 -1.0655,-0.2133 z"
           style="color:#000000;fill:#00ff00;stroke:#1b3e1b;stroke-width:1.85208333;stroke-linecap:round;stroke-linejoin:round;stroke-miterlimit:4;stroke-opacity:1;stroke-dasharray:none;stroke-dashoffset:0;marker:none;visibility:visible;display:inline;overflow:visible;enable-background:accumulate" />
        <path
           style="color:#000000;fill:#83a944;fill-opacity:1;stroke:none;stroke-width:3.17499995;marker:none;visibility:visible;display:inline;overflow:visible;enable-background:accumulate"
           d="m -149.82952,2908.6331 c -3.4096,3.1966 -3.30305,11.8273 -3.30305,14.3845 0,2.5572 0.95895,6.3928 0.95895,5.7535 0,-0.6394 0.2131,-9.5892 1.4917,-13.5315 1.2786,-3.9426 2.3441,-5.6474 1.9179,-6.3932 -0.4262,-0.746 -1.0655,-0.2133 -1.0655,-0.2133 z"
           id="path25501"
           inkscape:connector-curvature="0"
           sodipodi:nodetypes="cssccc" />
        <path
           inkscape:connector-curvature="0"
           style="opacity:0.51769912;color:#000000;fill:#365a26;fill-opacity:1;stroke:none;stroke-width:3.17499995;marker:none;visibility:visible;display:inline;overflow:visible;enable-background:accumulate"
           d="m -492.6875,10712.969 c -1.21921,4.393 -2.36888,8.985 -2.90625,12.343 -0.55693,3.481 -1.54072,5.346 -2.5,4.876 0.91322,9.388 4.33505,21.005 4.25,18.812 -0.0684,-1.765 -0.35224,-20.292 1.15625,-36.031 z"
           transform="matrix(0.26438455,0.01025448,-0.01025448,0.26438455,88.614652,91.963319)"
           id="path25503" />
      </g>
      <g
         id="g25505"
         transform="matrix(0.92966403,0,0,0.92966403,10.98604,139.94053)">
        <path
           inkscape:connector-curvature="0"
           id="path25507"
           d="m -149.01725,2907.342 c 1.87355,4.3329 5.26935,7.8456 6.08903,8.8994 0.81968,1.0541 1.52225,3.63 1.52225,3.63 0,0 0.46839,-2.2249 -0.35128,-5.0352 -0.81968,-2.8103 -3.27871,-5.7375 -5.03517,-7.1429 -1.75644,-1.405 -2.22483,-0.3513 -2.22483,-0.3513 z"
           style="color:#000000;fill:#00ff00;fill-opacity:1;fill-rule:nonzero;stroke:#1b3e1b;stroke-width:1.99220717;stroke-linecap:round;stroke-linejoin:round;stroke-miterlimit:4;stroke-opacity:1;stroke-dasharray:none;stroke-dashoffset:0;marker:none;visibility:visible;display:inline;overflow:visible;enable-background:accumulate" />
        <path
           style="color:#000000;fill:#83a944;fill-opacity:1;fill-rule:nonzero;stroke:none;stroke-width:3.17499995;marker:none;visibility:visible;display:inline;overflow:visible;enable-background:accumulate"
           d="m -149.01725,2907.342 c 1.87355,4.3329 5.26935,7.8456 6.08903,8.8994 0.81968,1.0541 1.52225,3.63 1.52225,3.63 0,0 0.46839,-2.2249 -0.35128,-5.0352 -0.81968,-2.8103 -3.27871,-5.7375 -5.03517,-7.1429 -1.75644,-1.405 -2.22483,-0.3513 -2.22483,-0.3513 z"
           id="path25509"
           inkscape:connector-curvature="0" />
        <path
           inkscape:connector-curvature="0"
           style="opacity:0.51769912;color:#000000;fill:#365a26;fill-opacity:1;fill-rule:nonzero;stroke:none;stroke-width:3.17499995;marker:none;visibility:visible;display:inline;overflow:visible;enable-background:accumulate"
           d="m -465.90625,10684 c 0.66504,2.454 2.17035,8.526 0.75,9.094 -1.43811,0.575 -2.38903,1.834 -6.5,-1.125 4.81904,6.588 9.33847,11.466 10.96875,13.562 2.8801,3.704 5.34375,12.75 5.34375,12.75 0,0 1.66132,-7.813 -1.21875,-17.687 -1.68528,-5.778 -5.36259,-11.688 -9.34375,-16.594 z"
           transform="matrix(0.28460103,0,0,0.28460103,-11.817222,-130.56118)"
           id="path25511" />
      </g>
      <g
         transform="matrix(0.83085758,0,0,0.83085758,-1.881892,422.34078)"
         id="g25513">
        <path
           style="color:#000000;fill:#0d9500;fill-opacity:1;fill-rule:nonzero;stroke:#1d401b;stroke-width:2.64583349;stroke-linecap:round;stroke-linejoin:round;stroke-miterlimit:4;stroke-opacity:1;stroke-dasharray:none;stroke-dashoffset:0;marker:none;visibility:visible;display:inline;overflow:visible;enable-background:accumulate"
           d="m -149.01725,2907.342 c 1.87355,4.3329 5.26935,7.8456 6.08903,8.8994 0.81968,1.0541 1.52225,3.63 1.52225,3.63 0,0 0.46839,-2.2249 -0.35128,-5.0352 -0.81968,-2.8103 -3.27871,-5.7375 -5.03517,-7.1429 -1.75644,-1.405 -2.22483,-0.3513 -2.22483,-0.3513 z"
           id="path25515"
           inkscape:connector-curvature="0" />
        <path
           inkscape:connector-curvature="0"
           id="path25517"
           d="m -149.01725,2907.342 c 1.87355,4.3329 5.26935,7.8456 6.08903,8.8994 0.81968,1.0541 1.52225,3.63 1.52225,3.63 0,0 0.46839,-2.2249 -0.35128,-5.0352 -0.81968,-2.8103 -3.27871,-5.7375 -5.03517,-7.1429 -1.75644,-1.405 -2.22483,-0.3513 -2.22483,-0.3513 z"
           style="color:#000000;fill:#83a944;fill-opacity:1;fill-rule:nonzero;stroke:none;stroke-width:3.17499995;marker:none;visibility:visible;display:inline;overflow:visible;enable-background:accumulate" />
        <path
           inkscape:connector-curvature="0"
           style="opacity:0.51769912;color:#000000;fill:#365a26;fill-opacity:1;fill-rule:nonzero;stroke:none;stroke-width:3.17499995;marker:none;visibility:visible;display:inline;overflow:visible;enable-background:accumulate"
           d="m -456.75,10669.938 c -0.11102,0.679 -0.0994,1.562 0.0937,2.624 0.51304,2.822 -1.58518,5.07 -5.46875,3.813 2.80809,3.484 5.15419,6.109 6.1875,7.437 2.574,3.311 4.78125,11.407 4.78125,11.407 0,0 1.44897,-6.988 -1.125,-15.813 -0.93151,-3.193 -2.53737,-6.423 -4.46875,-9.468 z"
           transform="matrix(0.31844608,0,0,0.31844608,2.2649919,-485.97774)"
           id="path25519" />
      </g>
      <g
         id="g25521"
         transform="translate(25.447128,-74.680364)">
        <path
           inkscape:connector-curvature="0"
           id="path25523"
           d="m -149.01725,2907.342 c 1.87355,4.3329 5.26935,7.8456 6.08903,8.8994 0.81968,1.0541 1.52225,3.63 1.52225,3.63 0,0 0.46839,-2.2249 -0.35128,-5.0352 -0.81968,-2.8103 -3.27871,-5.7375 -5.03517,-7.1429 -1.75644,-1.405 -2.22483,-0.3513 -2.22483,-0.3513 z"
           style="color:#000000;fill:#00ff00;fill-opacity:1;fill-rule:nonzero;stroke:#1b3e1b;stroke-width:1.85208333;stroke-linecap:round;stroke-linejoin:round;stroke-miterlimit:4;stroke-opacity:1;stroke-dasharray:none;stroke-dashoffset:0;marker:none;visibility:visible;display:inline;overflow:visible;enable-background:accumulate" />
        <path
           style="color:#000000;fill:#83a944;fill-opacity:1;fill-rule:nonzero;stroke:none;stroke-width:3.17499995;marker:none;visibility:visible;display:inline;overflow:visible;enable-background:accumulate"
           d="m -149.01725,2907.342 c 1.87355,4.3329 5.26935,7.8456 6.08903,8.8994 0.81968,1.0541 1.52225,3.63 1.52225,3.63 0,0 0.46839,-2.2249 -0.35128,-5.0352 -0.81968,-2.8103 -3.27871,-5.7375 -5.03517,-7.1429 -1.75644,-1.405 -2.22483,-0.3513 -2.22483,-0.3513 z"
           id="path25525"
           inkscape:connector-curvature="0" />
        <path
           inkscape:connector-curvature="0"
           style="opacity:0.51769912;color:#000000;fill:#365a26;fill-opacity:1;fill-rule:nonzero;stroke:none;stroke-width:3.17499995;marker:none;visibility:visible;display:inline;overflow:visible;enable-background:accumulate"
           d="m -445.09375,10652.688 c 0.63265,2.256 1.25335,4.599 1.53125,6.406 0.64421,4.186 -1.11717,5.122 -7.5625,2.062 3.21435,3.962 5.89571,6.898 7.09375,8.438 3.098,3.984 5.75,13.718 5.75,13.718 0,0 1.78547,-8.409 -1.3125,-19.031 -1.14029,-3.909 -3.12225,-7.873 -5.5,-11.593 z"
           transform="matrix(0.26458334,0,0,0.26458334,-25.447134,93.242857)"
           id="path25527" />
      </g>
      <g
         transform="matrix(0.97033158,0.24177804,-0.24177804,0.97033158,728.02595,42.17177)"
         id="g25529">
        <path
           style="color:#000000;fill:#00ff00;fill-opacity:1;fill-rule:nonzero;stroke:#1b3e1b;stroke-width:1.85208333;stroke-linecap:round;stroke-linejoin:round;stroke-miterlimit:4;stroke-opacity:1;stroke-dasharray:none;stroke-dashoffset:0;marker:none;visibility:visible;display:inline;overflow:visible;enable-background:accumulate"
           d="m -149.01725,2907.342 c 1.87355,4.3329 5.26935,7.8456 6.08903,8.8994 0.81968,1.0541 1.52225,3.63 1.52225,3.63 0,0 0.46839,-2.2249 -0.35128,-5.0352 -0.81968,-2.8103 -3.27871,-5.7375 -5.03517,-7.1429 -1.75644,-1.405 -2.22483,-0.3513 -2.22483,-0.3513 z"
           id="path25531"
           inkscape:connector-curvature="0" />
        <path
           inkscape:connector-curvature="0"
           id="path25533"
           d="m -149.01725,2907.342 c 1.87355,4.3329 5.26935,7.8456 6.08903,8.8994 0.81968,1.0541 1.52225,3.63 1.52225,3.63 0,0 0.46839,-2.2249 -0.35128,-5.0352 -0.81968,-2.8103 -3.27871,-5.7375 -5.03517,-7.1429 -1.75644,-1.405 -2.22483,-0.3513 -2.22483,-0.3513 z"
           style="color:#000000;fill:#83a944;fill-opacity:1;fill-rule:nonzero;stroke:none;stroke-width:3.17499995;marker:none;visibility:visible;display:inline;overflow:visible;enable-background:accumulate" />
        <path
           inkscape:connector-curvature="0"
           style="opacity:0.51769912;color:#000000;fill:#365a26;fill-opacity:1;fill-rule:nonzero;stroke:none;stroke-width:3.17499995;marker:none;visibility:visible;display:inline;overflow:visible;enable-background:accumulate"
           d="m -432.65625,10643.594 c -0.12582,3.185 -0.75257,6.215 -2.40625,7.718 -1.20416,1.095 -2.3213,1.076 -3.4375,0.157 0.42952,0.865 0.78593,1.602 1.03125,2.156 2.04285,4.615 2.28125,14.719 2.28125,14.719 0,0 3.75048,-7.726 3.3125,-18.782 -0.077,-1.943 -0.37776,-3.95 -0.78125,-5.968 z"
           transform="matrix(0.25673357,-0.06397044,0.06397044,0.25673357,-712.13478,153.11186)"
           id="path25535" />
        <path
           inkscape:connector-curvature="0"
           style="color:#000000;fill:#a2e138;fill-opacity:1;fill-rule:nonzero;stroke:none;stroke-width:3.17499995;marker:none;visibility:visible;display:inline;overflow:visible;enable-background:accumulate"
           d="m -449.6875,10614.562 c -1.31487,0.01 -1.96875,0.876 -1.96875,0.876 0.83525,5.049 2.19202,9.946 3.75,14.5 0.11712,-2.58 0.71879,-4.751 2.21875,-5.876 1.63034,-1.222 3.32744,-1.289 4.90625,-0.781 -1.02685,-1.697 -2.04163,-3.234 -3.03125,-4.531 -2.57883,-3.379 -4.56013,-4.202 -5.875,-4.188 z"
           transform="matrix(0.25673357,-0.06397044,0.06397044,0.25673357,-712.13478,153.11186)"
           id="path25537" />
      </g>
      <g
         id="g25539"
         transform="matrix(1.0602327,0.26417875,-0.26417875,1.0602327,810.47212,-219.81207)">
        <path
           inkscape:connector-curvature="0"
           id="path25541"
           d="m -149.01725,2907.342 c 1.87355,4.3329 5.26935,7.8456 6.08903,8.8994 0.81968,1.0541 1.52225,3.63 1.52225,3.63 0,0 0.46839,-2.2249 -0.35128,-5.0352 -0.81968,-2.8103 -3.27871,-5.7375 -5.03517,-7.1429 -1.75644,-1.405 -2.22483,-0.3513 -2.22483,-0.3513 z"
           style="color:#000000;fill:#00ff00;fill-opacity:1;fill-rule:nonzero;stroke:#1b3e1b;stroke-width:1.69503832;stroke-linecap:round;stroke-linejoin:round;stroke-miterlimit:4;stroke-opacity:1;stroke-dasharray:none;stroke-dashoffset:0;marker:none;visibility:visible;display:inline;overflow:visible;enable-background:accumulate" />
        <path
           style="color:#000000;fill:#83a944;fill-opacity:1;fill-rule:nonzero;stroke:none;stroke-width:3.17499995;marker:none;visibility:visible;display:inline;overflow:visible;enable-background:accumulate"
           d="m -149.01725,2907.342 c 1.87355,4.3329 5.26935,7.8456 6.08903,8.8994 0.81968,1.0541 1.52225,3.63 1.52225,3.63 0,0 0.46839,-2.2249 -0.35128,-5.0352 -0.81968,-2.8103 -3.27871,-5.7375 -5.03517,-7.1429 -1.75644,-1.405 -2.22483,-0.3513 -2.22483,-0.3513 z"
           id="path25543"
           inkscape:connector-curvature="0" />
        <path
           inkscape:connector-curvature="0"
           style="opacity:0.52654868;color:#000000;fill:#365a26;fill-opacity:1;fill-rule:nonzero;stroke:none;stroke-width:3.17499995;marker:none;visibility:visible;display:inline;overflow:visible;enable-background:accumulate"
           d="m -417.25,10626.312 c -0.29817,3.804 -0.64419,7.709 -0.8125,8.719 -0.2655,1.593 -4.7128,0.214 -8.5625,-3.719 2.37971,5.096 4.44393,8.977 5.3125,10.938 2.23212,5.042 2.46875,16.062 2.46875,16.062 0,0 4.10356,-8.451 3.625,-20.531 -0.14714,-3.713 -0.88956,-7.616 -2.03125,-11.469 z"
           transform="matrix(0.23496416,-0.05854615,0.05854615,0.23496416,-666.99587,391.02802)"
           id="path25545" />
        <path
           inkscape:connector-curvature="0"
           style="color:#000000;fill:#a2e138;fill-opacity:1;fill-rule:nonzero;stroke:none;stroke-width:3.17499995;marker:none;visibility:visible;display:inline;overflow:visible;enable-background:accumulate"
           d="m -434.65625,10599.562 c -1.43669,0.02 -2.1875,0.938 -2.1875,0.938 0.89104,5.387 2.34834,10.624 4,15.5 0.46486,-0.74 1.02321,-1.485 1.6875,-2.219 2.67508,-2.956 5.28428,-3.244 7.46875,-2.562 -1.51978,-2.72 -3.11231,-5.152 -4.59375,-7.094 -2.81776,-3.692 -4.93831,-4.578 -6.375,-4.563 z"
           transform="matrix(0.23496416,-0.05854615,0.05854615,0.23496416,-666.99587,391.02802)"
           id="path25547" />
      </g>
      <g
         transform="matrix(1.0602327,0.20973015,-0.26417875,0.84171329,815.58783,405.28089)"
         id="g25549">
        <path
           style="color:#000000;fill:#00ff00;fill-opacity:1;fill-rule:nonzero;stroke:#1b3e1b;stroke-width:1.90238321;stroke-linecap:round;stroke-linejoin:round;stroke-miterlimit:4;stroke-opacity:1;stroke-dasharray:none;stroke-dashoffset:0;marker:none;visibility:visible;display:inline;overflow:visible;enable-background:accumulate"
           d="m -149.01725,2907.342 c 1.87355,4.3329 5.26935,7.8456 6.08903,8.8994 0.81968,1.0541 1.52225,3.63 1.52225,3.63 0,0 0.46839,-2.2249 -0.35128,-5.0352 -0.81968,-2.8103 -3.27871,-5.7375 -5.03517,-7.1429 -1.75644,-1.405 -2.22483,-0.3513 -2.22483,-0.3513 z"
           id="path25551"
           inkscape:connector-curvature="0" />
        <path
           inkscape:connector-curvature="0"
           id="path25553"
           d="m -149.01725,2907.342 c 1.87355,4.3329 5.26935,7.8456 6.08903,8.8994 0.81968,1.0541 1.52225,3.63 1.52225,3.63 0,0 0.46839,-2.2249 -0.35128,-5.0352 -0.81968,-2.8103 -3.27871,-5.7375 -5.03517,-7.1429 -1.75644,-1.405 -2.22483,-0.3513 -2.22483,-0.3513 z"
           style="color:#000000;fill:#83a944;fill-opacity:1;fill-rule:nonzero;stroke:none;stroke-width:3.17499995;marker:none;visibility:visible;display:inline;overflow:visible;enable-background:accumulate" />
        <path
           inkscape:connector-curvature="0"
           style="opacity:0.51769912;color:#000000;fill:#365a26;fill-opacity:1;fill-rule:nonzero;stroke:none;stroke-width:3.17499995;marker:none;visibility:visible;display:inline;overflow:visible;enable-background:accumulate"
           d="m -397.84375,10613.375 c -0.86796,3.049 -1.46875,6.912 -1.46875,7.844 0,1.508 -3.9494,-1.729 -9.46875,-6.844 2.98027,5.338 5.76628,9.437 6.8125,11.313 2.23212,4.003 2.46875,12.75 2.46875,12.75 0,0 4.10356,-6.692 3.625,-16.282 -0.14168,-2.839 -0.89718,-5.833 -1.96875,-8.781 z"
           transform="matrix(0.23496417,-0.05854615,0.07374547,0.29596383,-832.07297,-252.11389)"
           id="path25555" />
        <path
           inkscape:connector-curvature="0"
           style="color:#000000;fill:#a2e138;fill-opacity:1;fill-rule:nonzero;stroke:none;stroke-width:3.17499995;marker:none;visibility:visible;display:inline;overflow:visible;enable-background:accumulate"
           d="m -415.34375,10591.781 c -1.43669,0.01 -2.15625,0.781 -2.15625,0.781 0.65184,3.129 1.61319,6.188 2.71875,9.126 0.29739,-0.217 0.63733,-0.412 0.96875,-0.626 2.68042,-1.723 5.29264,-2.346 7.6875,-2.374 -0.94887,-1.205 -1.89874,-2.3 -2.8125,-3.25 -2.81776,-2.931 -4.96956,-3.669 -6.40625,-3.657 z"
           transform="matrix(0.23496417,-0.05854615,0.07374547,0.29596383,-832.07297,-252.11389)"
           id="path25557" />
      </g>
    </g>
  </g>
</svg>
