<?xml version="1.0" encoding="UTF-8" standalone="no"?>
<!-- Created with Inkscape (http://www.inkscape.org/) -->

<svg
   xmlns:dc="http://purl.org/dc/elements/1.1/"
   xmlns:cc="http://creativecommons.org/ns#"
   xmlns:rdf="http://www.w3.org/1999/02/22-rdf-syntax-ns#"
   xmlns:svg="http://www.w3.org/2000/svg"
   xmlns="http://www.w3.org/2000/svg"
   xmlns:sodipodi="http://sodipodi.sourceforge.net/DTD/sodipodi-0.dtd"
   xmlns:inkscape="http://www.inkscape.org/namespaces/inkscape"
   width="139.50284"
   height="253.00732"
   viewBox="0 0 36.910125 66.941524"
   version="1.1"
   id="svg23489"
   inkscape:version="0.48.5 r10040"
   sodipodi:docname="leaf_06.svg"
   tags="palm tree leaf,tree leaf,tree part, leaves, leaf, palm tree,tree, tree part">
  <defs
     id="defs23483" />
  <sodipodi:namedview
     id="base"
     pagecolor="#7d848b"
     bordercolor="#666666"
     borderopacity="1.0"
     inkscape:pageopacity="0"
     inkscape:pageshadow="2"
     inkscape:zoom="0.30135381"
     inkscape:cx="-705.14041"
     inkscape:cy="-92.372824"
     inkscape:document-units="px"
     inkscape:current-layer="layer1"
     showgrid="false"
     inkscape:pagecheckerboard="false"
     showborder="true"
     units="px"
     inkscape:window-width="1920"
     inkscape:window-height="1017"
     inkscape:window-x="-8"
     inkscape:window-y="-8"
     inkscape:window-maximized="1"
     inkscape:showpageshadow="false"
     guidetolerance="28"
     fit-margin-top="15"
     fit-margin-left="15"
     fit-margin-bottom="15"
     fit-margin-right="15">
    <inkscape:grid
       type="xygrid"
       id="grid24034"
       spacingx="1px"
       spacingy="1px"
       empspacing="8"
       visible="true"
       enabled="true"
       snapvisiblegridlinesonly="true"
       originx="-284.89714px"
       originy="-702.52312px" />
  </sodipodi:namedview>
  <metadata
     id="metadata23486">
    <rdf:RDF>
      <cc:Work
         rdf:about="">
        <dc:format>image/svg+xml</dc:format>
        <dc:type
           rdf:resource="http://purl.org/dc/dcmitype/StillImage" />
        <dc:title></dc:title>
        <cc:license
           rdf:resource="" />
        <dc:creator>
          <cc:Agent>
            <dc:title>Robert Brooks</dc:title>
          </cc:Agent>
        </dc:creator>
      </cc:Work>
    </rdf:RDF>
  </metadata>
  <g
     inkscape:label="Layer 1"
     inkscape:groupmode="layer"
     id="layer1"
     transform="translate(-214.84491,-139.13701)">
    <g
       transform="translate(-203.68247,-2844.5785)"
       id="g26944">
      <g
         transform="matrix(-1,0,0,1,771.0054,60.738048)"
         id="g26897">
        <path
           sodipodi:nodetypes="cccsscscssccc"
           inkscape:connector-curvature="0"
           id="path26899"
           d="m 330.21486,2928.0257 c -0.43158,0.1276 -0.62551,0.3975 -0.75,0.5938 -0.12449,0.1962 -0.18699,0.3722 -0.25,0.5624 -0.25204,0.7611 -0.37933,2.029 -0.5,3.3881 -0.24134,2.7183 -0.35643,6.6357 -0.40625,10.6875 -0.0996,8.1036 0.0625,16.6875 0.0625,16.6875 -0.08,0.6008 0.45877,1.207 1.06484,1.1981 0.60608,-0.01 1.12669,-0.6309 1.02891,-1.2291 0,0 -0.16156,-8.5687 -0.0625,-16.625 0.0495,-4.0281 -0.45346,-7.9346 -0.22292,-10.5312 0.0911,-1.026 -0.85324,-1.8724 -0.74716,-2.3568 0.62853,-0.1493 1.21416,-2.5026 0.78258,-2.375 z"
           style="font-size:medium;font-style:normal;font-variant:normal;font-weight:normal;font-stretch:normal;text-indent:0;text-align:start;text-decoration:none;line-height:normal;letter-spacing:normal;word-spacing:normal;text-transform:none;direction:ltr;block-progression:tb;writing-mode:lr-tb;text-anchor:start;baseline-shift:baseline;color:#000000;fill:#83a944;fill-opacity:1;fill-rule:nonzero;stroke:#22451d;stroke-width:2.11666679;stroke-linejoin:round;stroke-opacity:1;marker:none;visibility:visible;display:inline;overflow:visible;enable-background:accumulate;font-family:Sans;-inkscape-font-specification:Sans" />
        <path
           sodipodi:nodetypes="cccsscscssccscc"
           style="font-size:medium;font-style:normal;font-variant:normal;font-weight:normal;font-stretch:normal;text-indent:0;text-align:start;text-decoration:none;line-height:normal;letter-spacing:normal;word-spacing:normal;text-transform:none;direction:ltr;block-progression:tb;writing-mode:lr-tb;text-anchor:start;baseline-shift:baseline;color:#000000;fill:#83a944;fill-opacity:1;fill-rule:nonzero;stroke:none;stroke-width:2.11666679;marker:none;visibility:visible;display:inline;overflow:visible;enable-background:accumulate;font-family:Sans;-inkscape-font-specification:Sans"
           d="m 330.21486,2928.0257 c -0.43158,0.1276 -0.62551,0.3975 -0.75,0.5938 -0.12449,0.1962 -0.18699,0.3722 -0.25,0.5624 -0.25204,0.7611 -0.37933,2.029 -0.5,3.3881 -0.24134,2.7183 -0.35643,6.6357 -0.40625,10.6875 -0.0996,8.1036 0.0625,16.6875 0.0625,16.6875 -0.08,0.6008 0.45877,1.207 1.06484,1.1981 0.60608,-0.01 1.12669,-0.6309 1.02891,-1.2291 0,0 -0.16156,-8.5687 -0.0625,-16.625 0.0495,-4.0281 0.17571,-7.9346 0.40625,-10.5312 0.0911,-1.026 0.20642,-1.8724 0.3125,-2.3568 0.62854,-0.1493 0.99355,-0.9623 0.6875,-1.5312 -0.10208,-0.1914 -0.20713,-0.3985 -0.4375,-0.5938 -0.23037,-0.1953 -0.72467,-0.3776 -1.15625,-0.25 z"
           id="path26901"
           inkscape:connector-curvature="0" />
        <path
           id="path26903"
           transform="matrix(0.26458334,0,0,0.26458334,-18.676476,18.297579)"
           d="m 1319.9062,10997.25 c -0.4181,0 -0.8422,0.04 -1.25,0.156 -1.6311,0.483 -2.3732,1.508 -2.8437,2.25 -0.4705,0.742 -0.6994,1.406 -0.9375,2.125 -0.9526,2.877 -1.4502,7.645 -1.9062,12.781 -0.9122,10.274 -1.343,25.093 -1.5313,40.407 -0.01,0.499 0.01,1 0,1.5 1.0944,-22.609 3.0993,-43.03 6.8437,-47.625 2.5597,-3.141 4.7962,-4.927 6.7188,-5.844 0.1411,-0.82 0.055,-1.665 -0.3438,-2.406 -0.3858,-0.724 -0.7855,-1.512 -1.6562,-2.25 -0.653,-0.554 -1.8394,-1.069 -3.0938,-1.094 z"
           style="font-size:medium;font-style:normal;font-variant:normal;font-weight:normal;font-stretch:normal;text-indent:0;text-align:start;text-decoration:none;line-height:normal;letter-spacing:normal;word-spacing:normal;text-transform:none;direction:ltr;block-progression:tb;writing-mode:lr-tb;text-anchor:start;baseline-shift:baseline;color:#000000;fill:#a2e138;fill-opacity:1;fill-rule:nonzero;stroke:none;stroke-width:2.11666679;marker:none;visibility:visible;display:inline;overflow:visible;enable-background:accumulate;font-family:Sans;-inkscape-font-specification:Sans"
           inkscape:connector-curvature="0" />
      </g>
      <path
         style="color:#000000;fill:#83a944;fill-opacity:1;fill-rule:nonzero;stroke:#1d401b;stroke-width:1.85208333;stroke-linejoin:round;stroke-miterlimit:4;stroke-opacity:1;stroke-dasharray:none;marker:none;visibility:visible;display:inline;overflow:visible;enable-background:accumulate"
         d="m 429.24497,2995.5296 c 0.14846,0 0.29334,0.01 0.42167,0.024 2.05308,0.3315 4.63605,0.264 6.55672,0.3307 1.78818,0.1326 1.97739,3.1139 -0.80204,2.9851 -2.38394,-0.1104 -5.02557,-1.3227 -6.2177,-1.4553 -1.19211,-0.1322 -4.90205,0.198 -5.69683,0.4631 -0.74504,0.2481 3.51094,-2.3019 5.73818,-2.3482 z m 11.54245,2.0174 c 3.84125,0.3974 10.93152,3.6386 10.20297,3.3073 -0.72851,-0.331 -8.8115,-0.1976 -10.73214,-0.7276 -1.92066,-0.5297 -1.19279,-2.7122 0.52917,-2.5797 z m -7.89617,1.6867 c 3.59497,0.068 5.38411,1.7193 4.192,2.2159 -1.58948,0.6623 -4.10583,0.1979 -6.88745,0.5953 -2.78159,0.3975 -3.57616,0.065 -6.75515,0.3969 1.65576,-1.126 3.17238,-2.1159 5.29166,-2.6458 1.55639,-0.4305 2.96061,-0.585 4.15894,-0.5623 z m 5.91179,0.8681 c 3.59193,0.056 6.17482,2.6993 7.41659,3.0097 0.98055,0.2453 2.43292,1.5705 2.96003,2.0587 -0.6866,-0.4125 -2.94696,-0.7583 -4.2168,-1.0004 -1.39081,-0.2648 -3.77608,-0.1974 -5.76294,-1.1906 -1.98689,-0.9935 -1.12448,-2.8525 -1.12448,-2.8525 0.24834,-0.021 0.48813,-0.029 0.7276,-0.024 z m 10.37662,5.0684 c 0.0654,0.039 0.12253,0.084 0.15708,0.1241 0.0209,0.024 0.0259,0.04 0.0331,0.05 -0.0262,-0.021 -0.0942,-0.085 -0.19015,-0.1736 z m -15.89154,-2.0918 c 0.95134,0.032 1.25677,0.2977 1.25677,0.2977 2.80559,0.3974 0.93274,2.1166 -0.31419,2.2489 -1.2469,0.1326 -1.86719,-0.5302 -4.82865,0.2646 -2.96145,0.7946 -5.29995,0.6615 -5.29995,0.6615 0,0 3.73584,-2.5128 6.6973,-3.175 1.11053,-0.2485 1.91794,-0.317 2.48872,-0.2977 z m 6.25904,1.6039 c 4.54726,0.2074 9.51478,5.4425 8.45015,4.4897 -1.1748,-1.0514 -8.37271,-0.526 -9.98802,-1.7528 -1.61533,-1.2264 0.1488,-2.6292 0.1488,-2.6292 0.45432,-0.099 0.91866,-0.1291 1.38907,-0.1077 z m -6.58977,1.877 c 2.96672,0.7987 2.13776,2.0174 0.71935,2.6294 -1.4184,0.6117 -4.07474,1.4642 -5.73818,1.9098 -1.66335,0.4453 -4.70905,3.2371 -4.04315,2.2574 0.66588,-0.98 2.1426,-3.047 4.93612,-4.9445 2.7935,-1.8974 4.12586,-1.8521 4.12586,-1.8521 z m 4.96094,2.2407 c 7.13221,0.7771 10.95737,8.3939 9.91362,6.9948 -1.04373,-1.3986 -6.26147,-2.9482 -9.39271,-4.1918 -3.13121,-1.2435 -0.52091,-2.803 -0.52091,-2.803 z m -4.67982,2.4556 c 2.91407,0 1.98588,2.9099 0.79375,3.4396 -1.19211,0.53 -4.63632,1.3293 -6.35828,3.0512 -1.72191,1.7216 -2.38109,5.4247 -2.51354,4.7625 -0.13243,-0.6623 0.12946,-4.2379 2.38125,-7.4168 2.25176,-3.1787 5.69682,-3.8365 5.69682,-3.8365 z m 4.63021,1.968 c 0.11541,0 0.19016,0.016 0.19016,0.016 6.18341,1.3673 10.48117,9.313 9.4506,7.9459 -1.03056,-1.3671 -4.46358,-3.148 -7.38352,-4.2418 -2.91992,-1.0938 -3.61135,-0.9599 -3.43958,-2.4638 0.1288,-1.1279 0.83613,-1.2596 1.18234,-1.2567 z m -5.82083,4.1259 c 4.3711,0.2649 2.38373,2.3791 0.39687,3.7042 -1.98686,1.3242 -6.22546,4.7691 -6.62286,5.9613 -0.39735,1.1919 -0.79375,2.1177 -0.79375,1.3229 0,-0.7948 -0.39868,-1.3184 1.05833,-4.8948 1.45703,-3.5763 5.96141,-6.0936 5.96141,-6.0936 z m 5.76297,0.6615 c 5.53989,0.4408 10.10843,10.1864 8.89661,8.8635 -1.21187,-1.3229 -6.92613,-4.703 -8.83047,-5.8788 -1.90431,-1.1758 -1.6556,-2.7199 -0.0661,-2.9847 z m -4.1424,4.0925 c 0.2477,0.019 0.56671,0.1421 0.86818,0.5623 0.6029,0.8408 0.38666,2.0148 -1.71979,3.5885 -2.10649,1.5732 -6.11842,5.5309 -6.7717,7.2099 -0.65328,1.6791 2.64269,-10.696 7.20164,-11.2945 0,0 0.17397,-0.084 0.42167,-0.066 z m 3.9274,0.1736 c 0.24836,0 0.41343,0.091 0.41343,0.091 4.50356,0.8459 6.88809,12.3275 6.35826,10.7569 -0.52983,-1.5703 -4.2391,-5.4409 -6.22597,-7.0114 -1.98686,-1.5706 -2.11751,-2.6567 -1.4552,-3.3817 0.33112,-0.3625 0.66114,-0.4545 0.90948,-0.4548 z m -0.51261,4.341 c 3.83334,1.1301 4.57465,15.6567 4.36563,14.0393 -0.26493,-1.5896 -2.11434,-4.7664 -3.96875,-8.0779 -1.85442,-3.3113 -0.39688,-5.9614 -0.39688,-5.9614 z m -3.2825,1.1327 c 0.23283,-0.011 0.3638,0.058 0.3638,0.058 1.32459,1.3246 -2.11534,5.9664 -3.175,8.4831 -1.05965,2.517 -1.71995,2.6474 -1.5875,1.4552 0.13245,-1.1922 1.18896,-6.4881 2.51354,-8.4748 0.82786,-1.242 1.4971,-1.5021 1.88516,-1.5214 z m 1.39735,2.1746 c 0.25082,0.019 0.42166,0.1405 0.42166,0.1405 1.58949,3.4438 -0.39687,10.3246 -0.39687,12.0468 0,1.7219 -0.39688,3.7123 -0.39688,3.7123 0,0 -0.79309,-3.3081 -1.32292,-9.2686 -0.21873,-2.4606 0.10748,-4.7916 0.56224,-5.7465 0.36386,-0.7633 0.81024,-0.9078 1.13277,-0.8845 z"
         id="path26885"
         inkscape:connector-curvature="0" />
      <path
         style="font-size:medium;font-style:normal;font-variant:normal;font-weight:normal;font-stretch:normal;text-indent:0;text-align:start;text-decoration:none;line-height:normal;letter-spacing:normal;word-spacing:normal;text-transform:none;direction:ltr;block-progression:tb;writing-mode:lr-tb;text-anchor:start;baseline-shift:baseline;color:#000000;fill:#83a944;fill-opacity:1;fill-rule:nonzero;stroke:#1e431a;stroke-width:1.85208333;stroke-linejoin:round;stroke-miterlimit:4;stroke-opacity:1;stroke-dasharray:none;marker:none;visibility:visible;display:inline;overflow:visible;enable-background:accumulate;font-family:Sans;-inkscape-font-specification:Sans"
         d="m 439.95496,2988.8604 c 0.7648,0.058 -0.43015,1.2552 -0.91158,1.8523 -0.34274,0.4392 0.76246,1.0319 0.3658,2.5541 -1.87071,6.8655 -2.69687,15.7536 -2.99385,20.9439 -0.594,10.3814 -0.79391,20.1001 -0.79391,20.1001 0.002,0.5583 -0.93546,0.5412 -0.92456,-0.017 0,0 -0.069,-9.7515 0.529,-20.1991 0.29898,-5.2239 1.37253,-17.7319 2.26526,-21.1669 0.42912,-1.647 0.82089,-2.7358 1.5378,-3.6544 0.21374,-0.2803 0.90579,-0.7063 1.25718,-0.6782 z"
         id="path26887"
         inkscape:connector-curvature="0"
         sodipodi:nodetypes="cccsccscccc" />
      <path
         sodipodi:nodetypes="cccsccsccc"
         inkscape:connector-curvature="0"
         id="path26889"
         d="m 440.08742,2988.5955 c 1.75823,-0.1407 1.49048,1.3876 1.00905,1.9847 -0.34274,0.4392 -1.29063,1.1644 -1.68729,2.6866 -1.87071,6.8655 -2.69687,15.7536 -2.99385,20.9439 -0.594,10.3814 -0.79391,20.1001 -0.79391,20.1001 0.002,0.5583 -0.93546,0.5412 -0.92456,-0.017 0,0 -0.069,-9.7515 0.529,-20.1991 0.29898,-5.2239 1.37253,-17.7319 2.26526,-21.1669 0.42912,-1.647 0.82089,-2.7358 1.5378,-3.6544 0.21374,-0.2803 1.0585,-0.6779 1.0585,-0.6779 z"
         style="font-size:medium;font-style:normal;font-variant:normal;font-weight:normal;font-stretch:normal;text-indent:0;text-align:start;text-decoration:none;line-height:normal;letter-spacing:normal;word-spacing:normal;text-transform:none;direction:ltr;block-progression:tb;writing-mode:lr-tb;text-anchor:start;baseline-shift:baseline;color:#000000;fill:#83a944;fill-opacity:1;fill-rule:nonzero;stroke:none;stroke-width:8;marker:none;visibility:visible;display:inline;overflow:visible;enable-background:accumulate;font-family:Sans;-inkscape-font-specification:Sans" />
      <path
         sodipodi:nodetypes="ccccccccsccscsccsccccccccccccccccccccccccccccccccccccccccccscccccsscccscsccccscccccccccccccsccccscsccscc"
         inkscape:connector-curvature="0"
         id="path26891"
         d="m 429.24497,2995.5296 c 0.14846,0 0.29334,0.01 0.42167,0.024 2.05308,0.3315 3.60576,0.264 5.52643,0.3307 1.36541,0.062 1.42491,2.8501 -0.33372,2.8914 -2.38395,-0.1103 -4.4636,-1.229 -5.65573,-1.3616 -1.19211,-0.1322 -4.90205,0.198 -5.69683,0.4631 -0.74504,0.2481 3.51094,-2.3019 5.73818,-2.3482 z m 11.54245,2.0174 c 3.84125,0.3974 10.93152,3.6386 10.20297,3.3073 -0.72851,-0.331 -8.8115,-0.1976 -10.73214,-0.7276 -1.92066,-0.5297 -1.19279,-2.7122 0.52917,-2.5797 z m -7.89617,1.6867 c 3.59497,0.068 3.9792,1.813 2.78709,2.3096 -1.58948,0.6622 -2.70092,0.1042 -5.48254,0.5016 -2.78159,0.3975 -3.57616,0.065 -6.75515,0.3969 1.65576,-1.126 3.17238,-2.1159 5.29166,-2.6458 1.55639,-0.4305 2.96061,-0.585 4.15894,-0.5623 z m 5.91179,0.8681 c 3.59193,0.056 6.17482,2.6993 7.41659,3.0097 0.98055,0.2453 2.43292,1.5705 2.96003,2.0587 -0.6866,-0.4125 -2.94696,-0.7583 -4.2168,-1.0004 -1.39081,-0.2648 -3.77608,-0.1974 -5.76294,-1.1906 -1.98689,-0.9935 -1.12448,-2.8525 -1.12448,-2.8525 0.24834,-0.021 0.48813,-0.029 0.7276,-0.024 z m 10.37662,5.0684 c 0.0654,0.039 0.12253,0.084 0.15708,0.1241 0.0209,0.024 0.0259,0.04 0.0331,0.05 -0.0262,-0.021 -0.0942,-0.085 -0.19015,-0.1736 z m -15.89154,-2.0918 c 0.95134,0.032 1.25677,0.2977 1.25677,0.2977 2.80559,0.3974 0.93274,2.1166 -0.31419,2.2489 -1.2469,0.1326 -1.86719,-0.5302 -4.82865,0.2646 -2.96145,0.7946 -5.29995,0.6615 -5.29995,0.6615 0,0 3.73584,-2.5128 6.6973,-3.175 1.11053,-0.2485 1.91794,-0.317 2.48872,-0.2977 z m 6.25904,1.6039 c 4.54726,0.2074 9.51478,5.4425 8.45015,4.4897 -1.1748,-1.0514 -8.37271,-0.526 -9.98802,-1.7528 -1.61533,-1.2264 0.1488,-2.6292 0.1488,-2.6292 0.45432,-0.099 0.91866,-0.1291 1.38907,-0.1077 z m -6.58977,1.877 c 2.96672,0.7987 2.13776,2.0174 0.71935,2.6294 -1.4184,0.6117 -4.07474,1.4642 -5.73818,1.9098 -1.66335,0.4453 -4.70905,3.2371 -4.04315,2.2574 0.66588,-0.98 2.1426,-3.047 4.93612,-4.9445 2.7935,-1.8974 4.12586,-1.8521 4.12586,-1.8521 z m 4.96094,2.2407 c 7.13221,0.7771 10.95737,8.3939 9.91362,6.9948 -1.04373,-1.3986 -6.26147,-2.9482 -9.39271,-4.1918 -3.13121,-1.2435 -0.52091,-2.803 -0.52091,-2.803 z m -4.67982,2.4556 c 2.91407,0 1.98588,2.9099 0.79375,3.4396 -1.19211,0.53 -4.63632,1.3293 -6.35828,3.0512 -1.72191,1.7216 -2.38109,5.4247 -2.51354,4.7625 -0.13243,-0.6623 0.12946,-4.2379 2.38125,-7.4168 2.25176,-3.1787 5.69682,-3.8365 5.69682,-3.8365 z m 4.63021,1.968 c 0.11541,0 0.19016,0.016 0.19016,0.016 6.18341,1.3673 10.48117,9.313 9.4506,7.9459 -1.03056,-1.3671 -4.46358,-3.148 -7.38352,-4.2418 -2.91992,-1.0938 -3.61135,-0.9599 -3.43958,-2.4638 0.1288,-1.1279 0.83613,-1.2596 1.18234,-1.2567 z m -5.82083,4.1259 c 3.52814,-0.9528 2.38373,2.3791 0.39687,3.7042 -1.98686,1.3242 -6.22546,4.7691 -6.62286,5.9613 -0.39735,1.1919 -0.79375,2.1177 -0.79375,1.3229 0,-0.7948 -0.39868,-1.3184 1.05833,-4.8948 1.45703,-3.5763 5.96141,-6.0936 5.96141,-6.0936 z m 5.76297,0.6615 c 5.53989,0.4408 10.10843,10.1864 8.89661,8.8635 -1.21187,-1.3229 -6.92613,-4.703 -8.83047,-5.8788 -1.90431,-1.1758 -1.6556,-2.7199 -0.0661,-2.9847 z m -4.1424,4.0925 c 0.2477,0.019 0.56671,0.1421 0.86818,0.5623 0.6029,0.8408 0.38666,2.0148 -1.71979,3.5885 -2.10649,1.5732 -6.11842,5.5309 -6.7717,7.2099 -0.65328,1.6791 2.64269,-10.696 7.20164,-11.2945 0,0 0.17397,-0.084 0.42167,-0.066 z m 3.9274,0.1736 c 0.24836,0 0.41343,0.091 0.41343,0.091 4.50356,0.8459 6.88809,12.3275 6.35826,10.7569 -0.52983,-1.5703 -4.2391,-5.4409 -6.22597,-7.0114 -1.98686,-1.5706 -2.11751,-2.6567 -1.4552,-3.3817 0.33112,-0.3625 0.66114,-0.4545 0.90948,-0.4548 z m -0.51261,4.341 c 3.83334,1.1301 4.57465,15.6567 4.36563,14.0393 -0.26493,-1.5896 -2.11434,-4.7664 -3.96875,-8.0779 -1.85442,-3.3113 -0.39688,-5.9614 -0.39688,-5.9614 z m -3.2825,1.1327 c 0.23283,-0.011 0.3638,0.058 0.3638,0.058 1.32459,1.3246 -2.11534,5.9664 -3.175,8.4831 -1.05965,2.517 -1.71995,2.6474 -1.5875,1.4552 0.13245,-1.1922 1.18896,-6.4881 2.51354,-8.4748 0.82786,-1.242 1.4971,-1.5021 1.88516,-1.5214 z m 1.39735,2.1746 c 0.25082,0.019 0.42166,0.1405 0.42166,0.1405 1.58949,3.4438 -0.39687,10.3246 -0.39687,12.0468 0,1.7219 -0.39688,3.7123 -0.39688,3.7123 0,0 -0.79309,-3.3081 -1.32292,-9.2686 -0.21873,-2.4606 0.10748,-4.7916 0.56224,-5.7465 0.36386,-0.7633 0.81024,-0.9078 1.13277,-0.8845 z"
         style="color:#000000;fill:#7fac44;fill-opacity:1;fill-rule:nonzero;stroke:none;stroke-width:8;marker:none;visibility:visible;display:inline;overflow:visible;enable-background:accumulate" />
      <path
         id="path26893"
         d="m 429.45992,2995.5296 c 0.0708,0.01 0.14256,0.016 0.20672,0.024 2.05308,0.3318 3.60251,0.264 5.52317,0.3307 1.03175,0.047 1.31721,1.6489 0.63667,2.4474 -0.14459,-1.4451 -6.43924,-2.5757 -9.17776,-1.389 -0.62484,0.2709 -1.16774,0.4926 -1.65365,0.6781 -0.67085,0.081 -1.23462,0.1717 -1.48828,0.2564 -0.74504,0.2481 3.51092,-2.3019 5.73818,-2.3482 0.0742,0 0.14415,0 0.21495,0 z m 11.3275,2.0174 c 2.23888,0.2315 5.5503,1.4216 7.80521,2.3151 -2.98265,-0.8167 -7.21606,-1.5356 -8.26823,-1.1411 -0.64045,0.2402 -0.94324,0.4818 -1.0749,0.6781 -0.43071,-0.826 0.28781,-1.9484 1.53792,-1.8521 z m -7.89617,1.6867 c 2.02218,0.038 3.02604,0.6036 3.30729,1.1825 -2.03121,-0.7596 -7.97857,0.2024 -10.11206,1.3972 -0.29268,0.1638 -0.59796,0.331 -0.90948,0.4961 -0.50271,0.024 -1.05976,0.062 -1.73635,0.1323 1.65579,-1.126 3.17238,-2.1159 5.29166,-2.6458 1.55641,-0.4305 2.96061,-0.585 4.15894,-0.5623 z m 0.39687,3.8447 c 0.95134,0.032 1.25677,0.2977 1.25677,0.2977 1.32633,0.1878 1.60174,0.6696 1.39732,1.1411 -1.69159,-0.7308 -5.74228,-0.066 -9.47536,1.3229 -0.71578,0.2662 -1.30453,0.503 -1.83558,0.7192 -0.32935,0 -0.52917,-0.01 -0.52917,-0.01 0,0 3.73582,-2.5127 6.6973,-3.175 1.11053,-0.2484 1.91794,-0.3169 2.48872,-0.2976 z"
         style="color:#000000;fill:#a2e138;fill-opacity:1;fill-rule:nonzero;stroke:none;stroke-width:7;marker:none;visibility:visible;display:inline;overflow:visible;enable-background:accumulate"
         inkscape:connector-curvature="0" />
      <path
         id="path26895"
         d="m 439.24125,2999.3824 c 1.27923,0.2739 2.66546,0.6575 3.977,1.0584 -1.28251,-0.07 -2.39667,-0.1588 -2.96,-0.3141 -0.53559,-0.1479 -0.85743,-0.4254 -1.017,-0.7443 z m -3.49748,0.5374 c 0.69202,0.4935 0.67498,1.1253 0.18193,1.4801 -0.14179,-0.4937 -0.27776,-1.038 -0.18193,-1.4801 z m 3.05927,0.182 c 3.59193,0.056 6.17482,2.6993 7.41659,3.0097 0.68244,0.1706 1.58869,0.8596 2.25722,1.4303 -2.93913,-1.892 -8.39219,-3.9026 -9.46711,-3.5719 -0.50832,0.1564 -0.78084,0.5472 -0.9343,0.9428 -0.41677,-0.883 0,-1.786 0,-1.786 0.24834,-0.021 0.4881,-0.03 0.7276,-0.024 z m 0.3886,4.5723 c 0.11678,0 0.23794,0 0.35552,0.01 4.54729,0.2077 9.51478,5.4425 8.45015,4.4898 -0.0185,-0.016 -0.0446,-0.026 -0.0661,-0.041 -0.0145,-0.011 -0.0254,-0.024 -0.0414,-0.033 -0.006,-0.01 -0.0108,-0.011 -0.0164,-0.016 -1.89762,-1.8012 -7.97851,-3.6028 -9.32656,-3.4231 -0.31637,0.042 -0.63,-0.068 -0.92604,-0.2564 0.23979,-0.3691 0.53742,-0.6117 0.53742,-0.6117 0.34075,-0.074 0.6832,-0.1117 1.03354,-0.1159 z"
         style="color:#000000;fill:#81b043;fill-opacity:1;fill-rule:nonzero;stroke:none;stroke-width:7;marker:none;visibility:visible;display:inline;overflow:visible;enable-background:accumulate"
         inkscape:connector-curvature="0" />
      <path
         id="path26905"
         d="m 429.02997,3013.4551 c -0.23585,0.471 -0.64921,1.2676 -0.41339,2.0339 0.28097,0.9133 1.82835,0.2463 1.95131,0.4878 -1.07096,0.453 -2.14678,1.0224 -2.89391,1.7696 -1.72191,1.7216 -2.38106,5.4247 -2.51354,4.7625 -0.13243,-0.6625 0.12946,-4.2379 2.38125,-7.4168 0.45781,-0.6461 0.97083,-1.1835 1.48828,-1.637 z m -0.84333,6.9122 c -0.45871,0.9017 -0.8473,1.9095 -0.7855,3.084 0.0394,0.7485 0.95991,0.4662 1.92649,-0.024 -1.67101,1.3822 -3.26949,2.8797 -3.50573,3.5886 -0.39735,1.1919 -0.79375,2.1177 -0.79375,1.3229 0,-0.7948 -0.39868,-1.3184 1.05833,-4.8948 0.46889,-1.151 1.2518,-2.1929 2.10016,-3.0758 z m 16.05687,2.0175 c 2.03991,2.5852 3.13203,5.2189 2.46396,4.4897 -0.4254,-0.4646 -1.42084,-1.1893 -2.59625,-1.9762 0.65334,0.041 0.76721,-0.9845 0.13229,-2.5135 z m -13.94849,1.8023 c -0.19796,0.5742 -0.33554,1.1864 -0.55396,1.8852 -0.29591,0.9469 0.41469,1.6634 1.40558,1.5711 -2.08815,1.8671 -4.59616,4.522 -5.10149,5.8208 -0.50091,1.2875 1.31808,-5.6832 4.24987,-9.2771 z m 8.65682,2.5964 c 0.30782,0.077 0.86612,0.3757 1.56271,0.7853 1.00415,0.5908 1.74453,0.5889 2.13321,0.058 1.3971,3.1525 2.01705,6.3796 1.71979,5.4983 -0.46535,-1.379 -3.38273,-4.5302 -5.43222,-6.3415 0.006,0 0.0103,0 0.0164,0 z m -7.73078,3.8695 c -0.0418,0.339 -0.0913,0.7065 -0.16536,1.1327 -0.31422,1.8068 0.35459,2.7519 1.13276,2.1828 -0.47675,0.8546 -0.92086,1.6629 -1.19891,2.3233 -1.05965,2.517 -1.71995,2.6474 -1.5875,1.4552 0.10814,-0.9734 0.83587,-4.6842 1.81901,-7.094 z m 9.06198,1.6783 c 1.05974,4.3161 1.29305,9.3107 1.16584,8.3261 -0.24379,-1.4626 -1.83415,-4.2817 -3.53055,-7.3006 0.38198,0.4231 0.90972,0.7488 1.56268,0.4876 0.48197,-0.1926 0.72631,-0.7718 0.80203,-1.5131 z m -6.78823,4.159 c 0.0744,0.089 0.13994,0.2262 0.18193,0.4466 0.28916,1.5182 1.57763,1.5801 2.28203,0.2397 -0.30001,2.1873 -0.73588,4.1293 -0.73588,4.9361 0,1.7219 -0.39688,3.7123 -0.39688,3.7123 0,0 -0.79309,-3.3081 -1.32292,-9.2686 -0.003,-0.021 -0.006,-0.044 -0.008,-0.066 z"
         style="opacity:0.73008848;color:#000000;fill:#4b722e;fill-opacity:1;fill-rule:nonzero;stroke:none;stroke-width:7;marker:none;visibility:visible;display:inline;overflow:visible;enable-background:accumulate"
         inkscape:connector-curvature="0" />
      <path
         inkscape:connector-curvature="0"
         id="path26918"
         transform="matrix(0.26458334,0,0,0.26458334,-6.3049604e-6,18.562493)"
         d="m 1664.4688,11225.281 c -0.3572,-0.01 -0.741,0 -1.1563,0.03 0,0 -3.1922,1.504 -4,2.563 -2.7096,3.472 -4.1906,7.588 -5.8125,13.813 -2.9831,11.478 -6.4752,49.699 -8.0312,72.062 0.2131,-0.415 0.4182,-1.333 0.5937,-2.812 1.7522,-14.769 5.9872,-69.584 16.25,-77.844 1.5561,-1.253 2.9647,-0.956 4.2187,0.437 0.2361,-0.256 0.4254,-0.503 0.5938,-0.719 1.7059,-2.115 2.7014,-7.326 -2.6562,-7.531 z"
         style="color:#000000;fill:#a2e138;fill-opacity:1;fill-rule:nonzero;stroke:none;stroke-width:7;marker:none;visibility:visible;display:inline;overflow:visible;enable-background:accumulate" />
      <path
         inkscape:connector-curvature="0"
         id="path26929"
         transform="matrix(0.26458334,0,0,0.26458334,-6.3049604e-6,18.562493)"
         d="m 1635.8438,11280.062 c -1.9652,0.09 -4.4771,0.421 -7.625,1.126 -11.193,2.502 -25.3126,12 -25.3126,12 0,0 0.579,0.02 1.0313,0.03 14.3424,-7.655 31.2185,-10.956 38.125,-8.813 2.6284,0.816 3.6885,1.913 3.9687,3.094 2.6334,-2.183 3.3324,-5.323 -3.6562,-6.312 0,0 -1.1544,-1.005 -4.75,-1.126 -0.5393,-0.02 -1.1262,-0.03 -1.7812,0 z m 24.0937,6.032 c -1.3241,0.02 -2.6184,0.157 -3.9063,0.437 0,0 -4.0575,3.241 -2.9062,6.875 3.0963,-3.956 12.9963,-4.933 28.9688,2.75 3.2438,1.561 6.0283,3.024 8.4687,4.344 -5.6179,-4.842 -17.784,-13.851 -29.2813,-14.375 -0.4444,-0.02 -0.9023,-0.04 -1.3437,-0.03 z"
         style="opacity:0.73008848;color:#000000;fill:#a2e138;fill-opacity:1;fill-rule:nonzero;stroke:none;stroke-width:7;marker:none;visibility:visible;display:inline;overflow:visible;enable-background:accumulate" />
      <path
         inkscape:connector-curvature="0"
         id="path26931"
         transform="matrix(0.26458334,0,0,0.26458334,-6.3049604e-6,18.562493)"
         d="m 1636.125,11293.219 c -1.1082,0.07 -6.1054,0.725 -15.3438,7 -7.1475,4.855 -11.977,9.968 -15.1562,13.937 9.162,-7.804 24.0789,-14.635 31.6562,-15.25 2.9419,-0.238 5.0693,-0.37 6.6563,-0.406 0.099,-1.836 -1.8936,-3.755 -7.5625,-5.281 0,0 -0.092,-0.01 -0.25,0 z m 19,8.469 c 0,0 -3.4638,2.077 -3.8125,4.75 0,0 0,0.02 0,0.03 0.1666,0.247 0.3375,0.476 0.5,0.719 8.4441,-2.733 34.628,11.788 39.4375,19.593 0.5391,0.451 1.0128,0.901 1.3438,1.344 3.9448,5.288 -10.5124,-23.5 -37.4688,-26.437 z m -3.3125,5.5 c -0.1835,0.06 -0.3025,0.127 -0.4687,0.187 0.1801,1.077 0.9338,2.226 2.6562,3.344 -0.4491,-0.892 -1.2717,-2.164 -2.1875,-3.531 z"
         style="opacity:0.73008848;color:#000000;fill:#a2e138;fill-opacity:1;fill-rule:nonzero;stroke:none;stroke-width:7;marker:none;visibility:visible;display:inline;overflow:visible;enable-background:accumulate" />
      <path
         inkscape:connector-curvature="0"
         id="path26939"
         transform="matrix(0.26458334,0,0,0.26458334,-6.3049604e-6,18.562493)"
         d="m 1657.0938,11268.812 c -0.4571,0.02 -0.9057,0.06 -1.375,0.09 0,0 -1.2911,2.782 -0.375,5.782 3.9016,-2.225 29.1445,5.686 33.7812,8.468 2.3933,1.436 5.437,3.026 8,4.313 -2.2755,-2.088 -7.1691,-6.417 -10.625,-7.281 -4.6933,-1.174 -14.4555,-11.164 -28.0312,-11.376 -0.4526,0 -0.918,-0.01 -1.375,0 z"
         style="opacity:0.73008848;color:#000000;fill:#a2e138;fill-opacity:1;fill-rule:nonzero;stroke:none;stroke-width:7;marker:none;visibility:visible;display:inline;overflow:visible;enable-background:accumulate" />
    </g>
  </g>
</svg>
