<?xml version="1.0" encoding="UTF-8" standalone="no"?>
<!-- Created with Inkscape (http://www.inkscape.org/) -->

<svg
   xmlns:dc="http://purl.org/dc/elements/1.1/"
   xmlns:cc="http://creativecommons.org/ns#"
   xmlns:rdf="http://www.w3.org/1999/02/22-rdf-syntax-ns#"
   xmlns:svg="http://www.w3.org/2000/svg"
   xmlns="http://www.w3.org/2000/svg"
   xmlns:sodipodi="http://sodipodi.sourceforge.net/DTD/sodipodi-0.dtd"
   xmlns:inkscape="http://www.inkscape.org/namespaces/inkscape"
   width="114.68597"
   height="636.67639"
   viewBox="0 0 30.343994 168.45396"
   version="1.1"
   id="svg23489"
   inkscape:version="0.48.5 r10040"
   sodipodi:docname="trunk_02.svg"
   tags="palm tree trunk, palm tree, tree trunk, tree, trunk">
  <defs
     id="defs23483" />
  <sodipodi:namedview
     id="base"
     pagecolor="#7d848b"
     bordercolor="#666666"
     borderopacity="1.0"
     inkscape:pageopacity="1"
     inkscape:pageshadow="2"
     inkscape:zoom="0.42617864"
     inkscape:cx="483.51927"
     inkscape:cy="248.87696"
     inkscape:document-units="px"
     inkscape:current-layer="layer1"
     showgrid="false"
     inkscape:pagecheckerboard="false"
     showborder="true"
     units="px"
     inkscape:window-width="1920"
     inkscape:window-height="1017"
     inkscape:window-x="-8"
     inkscape:window-y="-8"
     inkscape:window-maximized="1"
     inkscape:showpageshadow="false"
     guidetolerance="28"
     fit-margin-top="15"
     fit-margin-left="15"
     fit-margin-right="15"
     fit-margin-bottom="15">
    <inkscape:grid
       type="xygrid"
       id="grid24034"
       spacingx="1px"
       spacingy="1px"
       empspacing="8"
       visible="true"
       enabled="true"
       snapvisiblegridlinesonly="true"
       originx="-215.60992px"
       originy="-107.55168px" />
  </sodipodi:namedview>
  <metadata
     id="metadata23486">
    <rdf:RDF>
      <cc:Work
         rdf:about="">
        <dc:format>image/svg+xml</dc:format>
        <dc:type
           rdf:resource="http://purl.org/dc/dcmitype/StillImage" />
        <dc:title></dc:title>
        <cc:license
           rdf:resource="" />
        <dc:creator>
          <cc:Agent>
            <dc:title>Robert Brooks</dc:title>
          </cc:Agent>
        </dc:creator>
      </cc:Work>
    </rdf:RDF>
  </metadata>
  <g
     inkscape:label="Layer 1"
     inkscape:groupmode="layer"
     id="layer1"
     transform="translate(-57.046794,-100.08962)">
    <g
       id="g34444"
       transform="translate(445.17204,-2489.6084)">
      <path
         style="color:#000000;fill:#c88a37;fill-opacity:1;fill-rule:nonzero;stroke:#42220d;stroke-width:2.64583349;stroke-linejoin:round;stroke-miterlimit:4;stroke-opacity:1;stroke-dasharray:none;marker:none;visibility:visible;display:inline;overflow:visible;enable-background:accumulate"
         d="m -382.83833,2751.5848 c 0.39909,-9.0032 15.90032,-154.0685 16.26557,-154.9208 1.24024,-2.8939 3.50147,-1.5096 3.50147,0.144 0,1.6536 -8.5699,155.4425 -8.5699,155.4425 0.26554,0.4151 -10.87902,0.8741 -11.19714,-0.6657 z"
         id="path34221"
         inkscape:connector-curvature="0"
         sodipodi:nodetypes="csscc" />
      <path
         sodipodi:nodetypes="csscc"
         inkscape:connector-curvature="0"
         id="path34199"
         d="m -382.83833,2751.5848 c 0.39909,-9.0032 15.90032,-154.0685 16.26557,-154.9208 1.24024,-2.8939 3.50147,-1.5096 3.50147,0.144 0,1.6536 -8.5699,155.4425 -8.5699,155.4425 0,2.2739 -11.19714,3.1009 -11.19714,-0.6657 z"
         style="color:#000000;fill:#c88a37;fill-opacity:1;fill-rule:nonzero;stroke:none;stroke-width:0;marker:none;visibility:visible;display:inline;overflow:visible;enable-background:accumulate" />
      <path
         style="color:#000000;fill:#b36e10;fill-opacity:1;fill-rule:nonzero;stroke:none;stroke-width:0;marker:none;visibility:visible;display:inline;overflow:visible;enable-background:accumulate"
         d="m -1376.4688,9738.4688 c -0.056,0.4066 -0.098,0.8126 -0.1562,1.2187 -1.8934,15.507 -3.1293,31.0888 -4.4062,46.6563 -0.8174,10.9508 -1.6673,21.8868 -2.4063,32.8437 -1.6086,23.2324 -3.1062,46.4743 -4.5313,69.7187 -2.0328,33.4674 -4.0483,66.9615 -5.9374,100.4376 -3.9675,68.5822 -7.7755,137.1502 -11.9688,205.7182 -1.9826,31.733 -4.0005,63.47 -6.625,95.157 -0.7646,8.793 -1.5213,17.584 -2.625,26.343 -0.4825,3.365 -0.7799,6.795 -1.75,10.063 -0.1591,0.797 -0.7134,1.302 -1.4688,1.531 -2.9918,1.298 -6.3773,0.648 -9.375,-0.281 -4.9823,-1.678 -9.5142,-4.495 -13.6874,-7.656 -1.3996,-1.155 -2.7875,-2.343 -4.125,-3.594 -0.2047,2.27 -0.4235,4.542 -0.625,6.813 0.071,3.114 -1.4278,6.712 0.5937,9.437 2.1477,3.136 6.7505,4.734 10.6563,5.375 8.416,1.378 17.3383,0.997 25.375,-2 2.4784,-1.066 4.9779,-2.548 4.5624,-5.719 10.8705,-194.307 21.8298,-388.6068 32.2813,-582.9372 0.7406,-3.6428 -0.6018,-7.8324 -3.7813,-9.125 z"
         transform="matrix(0.26458334,0,0,0.26458334,-6.3049604e-6,18.562493)"
         id="path34587"
         inkscape:connector-curvature="0" />
      <path
         style="opacity:0.7477876;color:#000000;fill:#eaab15;fill-opacity:1;fill-rule:nonzero;stroke:none;stroke-width:0;marker:none;visibility:visible;display:inline;overflow:visible;enable-background:accumulate"
         d="m -1379.625,9737.8125 c -2.0674,0.5015 -4.1919,2.3332 -5.8438,6.1875 -1.3804,3.2213 -59.9603,551.503 -61.4687,585.531 0,3.835 3.0761,6.39 7.5625,7.938 3.8241,-32.256 58.3188,-587.8379 59.4062,-597.6252 0.074,-0.6611 0.199,-1.3455 0.3438,-2.0313 z"
         transform="matrix(0.26458334,0,0,0.26458334,-6.3049604e-6,18.562493)"
         id="path34596"
         inkscape:connector-curvature="0" />
      <path
         style="opacity:0.73008848;color:#000000;fill:#5b3606;fill-opacity:1;fill-rule:nonzero;stroke:none;stroke-width:0;marker:none;visibility:visible;display:inline;overflow:visible;enable-background:accumulate"
         d="m -1381.5625,9748.4375 c -0.6637,-0.019 -1.3125,0.021 -1.9687,0.125 -0.9082,0.1464 -1.8095,0.4196 -2.6563,0.8125 -0.1324,1.08 -0.3337,2.7209 -0.5,4.125 0.3408,-0.3506 0.7005,-0.6543 1.0937,-0.9062 1.5273,-0.978 3.4897,-1.2774 5.4688,-0.9063 3.2637,0.6124 6.3344,2.9022 7.2188,6.4063 0.088,-1.6727 0.2428,-4.275 0.3124,-5.625 -1.8678,-1.9963 -4.387,-3.328 -6.9687,-3.8126 -0.6577,-0.1228 -1.3363,-0.1998 -2,-0.2187 z m -1.125,22 c -2.1527,0.061 -4.2652,0.5245 -6.0937,1.4375 -0.1315,1.1665 -0.3306,2.7678 -0.4688,4 3.7775,-3.647 11.2974,-2.9772 15.375,0.4062 0.051,-0.9369 0.1392,-2.7263 0.1875,-3.625 -1.9654,-1.1309 -4.2561,-1.8675 -6.5937,-2.125 -0.8033,-0.088 -1.605,-0.1164 -2.4063,-0.094 z m -2.3437,18.375 c -2.0384,0.056 -4.055,0.4653 -5.8126,1.2813 0,0.011 0,0.02 0,0.031 -0.1547,1.3958 -0.2771,2.3939 -0.4374,3.8438 0.2701,-0.2332 0.543,-0.431 0.8437,-0.625 4.5098,-2.9112 12.212,-1.4981 15.4687,2.5624 0.069,-1.2601 0.184,-2.8139 0.25,-4.0312 6e-4,-0.01 -5e-4,-0.022 0,-0.031 -1.0948,-0.8029 -2.3608,-1.4469 -3.6874,-1.9376 -0.012,0 -0.019,-0.027 -0.031,-0.031 -0.3352,-0.1231 -0.6555,-0.2099 -1,-0.3125 -1.0331,-0.3125 -2.1074,-0.5373 -3.1875,-0.6563 -0.8031,-0.088 -1.605,-0.1156 -2.4062,-0.094 z m -1.1563,20.3125 c -2.4962,0.068 -4.921,0.6907 -6.9375,1.9062 -0.1642,1.4958 -0.3317,3.0267 -0.5,4.5626 3.7216,-5.3199 13.7718,-4.147 17.5625,0.6874 0.08,-1.4724 0.1405,-2.6286 0.2187,-4.0624 -2.2115,-1.6433 -5.0401,-2.6813 -7.9374,-3 -0.8033,-0.089 -1.6042,-0.1157 -2.4063,-0.094 z m -1.9687,19.5312 c -2.5762,0.07 -5.0775,0.7342 -7.125,2.0313 -0.1616,1.4806 -0.367,3.2411 -0.5313,4.75 3.8364,-6.1548 15.6909,-4.2857 18.5937,1.7187 0.1055,-1.9218 0.1472,-2.842 0.25,-4.7187 -2.3156,-2.0387 -5.5047,-3.3269 -8.7812,-3.6875 -0.8031,-0.088 -1.605,-0.1156 -2.4062,-0.094 z m -2.4688,19.1876 c -0.3903,0 -0.7725,0.01 -1.1562,0.031 -1.5354,0.098 -3.0132,0.4272 -4.375,1.0625 -0.4091,0.1907 -0.8089,0.4068 -1.1876,0.6563 -0.1758,1.6196 -0.3839,3.5725 -0.5624,5.2187 0.6416,-1.4857 1.7025,-2.4281 3.0624,-3.0625 1.9052,-0.8886 4.484,-1.0391 7.0626,-0.4688 2.5782,0.5702 5.1133,1.8608 6.9062,3.5626 1.2155,1.1532 2.0605,2.4594 2.4688,3.9062 0.088,-1.601 0.2259,-3.9233 0.3124,-5.5 -0.2058,-0.2226 -0.4047,-0.4474 -0.625,-0.6562 -2.2762,-2.1602 -5.2758,-3.6586 -8.375,-4.3438 -1.162,-0.258 -2.3602,-0.3955 -3.5312,-0.4062 z m -0.6875,20.5 c -0.8479,-0.019 -1.704,0.026 -2.5313,0.125 -1.6541,0.1965 -3.2378,0.6426 -4.6874,1.3437 -0.3626,0.1754 -0.7205,0.3802 -1.0626,0.5937 -0.1637,1.5137 -0.3032,3.0622 -0.4687,4.5938 0.7015,-1.0397 1.658,-1.8175 2.875,-2.4062 2.1686,-1.0494 5.0817,-1.3675 7.9687,-0.9688 2.8875,0.3987 5.7066,1.5258 7.6876,3.0938 0.9007,0.7127 1.6098,1.4941 2.125,2.3437 0.074,-1.3432 0.1767,-3.0769 0.25,-4.4063 -0.1466,-0.1266 -0.2853,-0.2544 -0.4376,-0.375 -2.5278,-2.0005 -5.8115,-3.2523 -9.1874,-3.7187 -0.8443,-0.1172 -1.6834,-0.1999 -2.5313,-0.2187 z m -3.9375,24.2812 c -0.4098,0 -0.8178,0.014 -1.2188,0.031 -1.603,0.068 -3.1287,0.2909 -4.5,0.6876 -0.3895,0.1124 -0.762,0.264 -1.125,0.4062 -0.1419,1.3174 -0.2633,2.4535 -0.4062,3.7812 0.022,-0.022 0.039,-0.041 0.062,-0.062 0.4762,-0.4375 1.2845,-0.8505 2.3437,-1.1563 2.1189,-0.6111 5.1671,-0.7412 8.2188,-0.375 3.0517,0.3666 6.1231,1.2311 8.2812,2.3437 1.0795,0.5566 1.9191,1.1661 2.4376,1.75 0.2047,0.231 0.3306,0.4484 0.4374,0.6563 0.074,-1.3314 0.146,-2.8354 0.2188,-4.1563 -0.522,-0.3675 -1.0863,-0.7212 -1.6875,-1.0312 -2.6311,-1.3565 -5.9546,-2.2232 -9.3125,-2.625 -1.2593,-0.1502 -2.5206,-0.2449 -3.75,-0.25 z m -1.7812,22.6562 c -0.4302,0 -0.859,0.014 -1.2813,0.031 -1.6892,0.068 -3.2814,0.2645 -4.7187,0.6563 -0.5323,0.1447 -1.0455,0.331 -1.5313,0.5312 -0.1512,1.4087 -0.2541,2.4574 -0.4063,3.875 0.071,-0.076 0.1289,-0.1407 0.2188,-0.2188 0.5137,-0.4456 1.3918,-0.8775 2.5312,-1.1874 2.2792,-0.6205 5.5258,-0.7434 8.7813,-0.375 3.2555,0.3666 6.5334,1.2212 8.8437,2.3437 1.1555,0.5613 2.071,1.1926 2.625,1.7813 0.011,0.012 0.021,0.02 0.031,0.031 0.069,-1.2478 0.1503,-2.5095 0.2187,-3.75 -0.4831,-0.3017 -0.9894,-0.5803 -1.5312,-0.8438 -2.7721,-1.347 -6.2987,-2.2249 -9.8438,-2.625 -1.3292,-0.1502 -2.6475,-0.2446 -3.9374,-0.25 z m -2.4688,19.5313 c -1.641,0 -3.1934,0.052 -4.5625,0.2187 -0.93,0.1131 -1.7687,0.2706 -2.5313,0.5 -0.1417,1.3237 -0.2951,2.764 -0.4374,4.0938 a 1.550155,1.550155 0 0 0 0.3437,-0.6875 c 0.03,-0.038 0.1181,-0.1129 0.3437,-0.2187 0.4999,-0.2308 1.4675,-0.4509 2.6563,-0.5938 2.3776,-0.2872 5.7053,-0.256 9.0313,0.031 3.3256,0.2799 6.6575,0.7914 9.0937,1.4063 1.136,0.2855 2.0569,0.6006 2.6563,0.875 0.061,-1.1085 0.1265,-2.1462 0.1874,-3.25 -0.6299,-0.2209 -1.3318,-0.4327 -2.0937,-0.625 -2.6814,-0.6769 -6.1246,-1.2078 -9.5937,-1.5 -1.7348,-0.1474 -3.4528,-0.2424 -5.0938,-0.25 z m -4.5625,21.5937 c -0.8137,-0.019 -1.5843,0 -2.3125,0.031 -0.9031,0.04 -1.7167,0.1105 -2.4688,0.25 -0.1169,1.0955 -0.2576,2.2138 -0.375,3.3125 0.036,-0.014 0.03,-0.01 0.094,-0.031 0.5435,-0.1968 1.5904,-0.3791 2.875,-0.4376 2.5692,-0.1171 6.1739,0.1658 9.75,0.6876 3.5761,0.5204 7.1493,1.2669 9.7812,2.0624 1.0597,0.3205 1.9039,0.6411 2.5626,0.9376 0.063,-1.1478 0.1242,-2.1373 0.1874,-3.2813 -0.5699,-0.2122 -1.1749,-0.4229 -1.8437,-0.625 -2.8518,-0.8625 -6.5429,-1.616 -10.25,-2.1563 -2.7803,-0.4047 -5.5589,-0.6927 -8,-0.75 z m -1.1563,21.8126 c -2.1845,0.028 -4.2342,0.1703 -5.9687,0.4374 -0.1164,1.0927 -0.2272,2.1553 -0.3437,3.25 3.3366,-0.6724 9.5965,-0.7327 15.2187,-0.1562 2.9745,0.3061 5.8053,0.7637 7.9375,1.3125 1.0661,0.2759 1.9668,0.59 2.5938,0.875 0.1887,0.085 0.3381,0.1686 0.4687,0.25 0.066,-1.1894 0.1218,-2.1571 0.1875,-3.3437 -0.7397,-0.2899 -1.5447,-0.5437 -2.4688,-0.7813 -2.3628,-0.6085 -5.3182,-1.0897 -8.4062,-1.4063 -3.088,-0.3174 -6.2729,-0.4679 -9.2188,-0.4374 z m -8.2187,21.5 c -0.1286,1.2112 -0.2462,2.3502 -0.375,3.5622 1.0609,0.432 2.3482,0.735 3.8437,1 3.1938,0.566 7.3182,0.844 11.4063,0.813 4.0881,-0.04 8.1102,-0.374 11.2187,-1.125 0.3252,-0.08 0.633,-0.164 0.9376,-0.25 0.066,-1.191 0.1216,-2.123 0.1874,-3.313 -0.5136,0.198 -1.1345,0.391 -1.8437,0.563 -2.7049,0.654 -6.6034,1 -10.5313,1.031 -3.9274,0.04 -7.9015,-0.234 -10.8124,-0.75 -1.4557,-0.257 -2.6709,-0.598 -3.375,-0.906 -0.3109,-0.136 -0.4806,-0.248 -0.5626,-0.313 a 1.550155,1.550155 0 0 0 0,-0.03 1.550155,1.550155 0 0 0 -0.094,-0.2812 z m -2,18.6872 c -0.137,1.293 -0.2691,2.487 -0.4063,3.782 1.0254,0.544 2.2946,1.019 3.75,1.468 3.1806,0.984 7.2901,1.828 11.375,2.344 4.0852,0.516 8.1004,0.728 11.2188,0.406 0.6725,-0.07 1.2872,-0.152 1.875,-0.281 0.066,-1.198 0.09,-2.114 0.1562,-3.313 -0.5589,0.191 -1.364,0.399 -2.3437,0.5 -2.695,0.282 -6.6003,0.09 -10.5313,-0.406 -3.9305,-0.496 -7.9195,-1.283 -10.8437,-2.187 -1.4621,-0.452 -2.6721,-0.958 -3.4063,-1.375 -0.3669,-0.208 -0.5996,-0.408 -0.6874,-0.5 a 1.550155,1.550155 0 0 0 -0.1563,-0.438 z m -2.3437,22.219 c -0.1329,1.256 -0.2424,2.463 -0.375,3.719 1.0873,0.513 2.4261,0.934 4,1.312 3.2929,0.793 7.519,1.359 11.75,1.625 4.2305,0.269 8.4383,0.233 11.6562,-0.281 0.7095,-0.113 1.3538,-0.239 1.9688,-0.406 0.094,-1.691 0.094,-1.684 0.1874,-3.375 -0.5954,0.256 -1.5105,0.533 -2.6562,0.719 -2.8153,0.45 -6.8595,0.506 -10.9375,0.25 -4.078,-0.26 -8.2187,-0.834 -11.25,-1.563 -1.5157,-0.367 -2.7762,-0.754 -3.5313,-1.125 -0.3575,-0.178 -0.5647,-0.325 -0.6562,-0.406 0,0 0,-0.03 0,-0.03 a 1.550155,1.550155 0 0 0 -0.1562,-0.437 z m -2.125,20.281 c -0.1212,1.148 -0.2542,2.259 -0.375,3.406 1.0324,0.53 2.2542,0.972 3.625,1.376 3.5037,1.026 7.9872,1.727 12.4687,2.093 4.4815,0.367 8.917,0.395 12.3125,-0.09 0.7065,-0.102 1.3508,-0.224 1.9688,-0.376 0.09,-1.629 0.066,-1.648 0.1562,-3.281 -0.6465,0.223 -1.5124,0.444 -2.5625,0.594 -3.0039,0.431 -7.3096,0.445 -11.625,0.09 -4.3154,-0.352 -8.6883,-1.099 -11.875,-2.031 -1.5934,-0.47 -2.8676,-0.983 -3.6563,-1.469 -0.1822,-0.113 -0.325,-0.222 -0.4374,-0.313 z m -2.5313,23.969 c -0.2017,1.919 -0.3929,3.837 -0.5937,5.75 0.8379,0.651 1.8005,1.218 2.9062,1.687 3.341,1.422 7.7796,2.243 12.3125,2.626 4.5329,0.379 9.1296,0.276 12.75,-0.344 1.3866,-0.238 2.6175,-0.548 3.6875,-0.969 0.097,-1.739 0.091,-1.847 0.1875,-3.594 -0.1211,0.118 -0.3138,0.259 -0.6563,0.438 -0.7893,0.412 -2.1324,0.817 -3.75,1.093 -3.2344,0.557 -7.6583,0.641 -11.9687,0.282 -4.3104,-0.363 -8.5244,-1.208 -11.3437,-2.406 -1.4099,-0.603 -2.4461,-1.27 -2.9688,-1.876 -0.5227,-0.602 -0.6383,-0.961 -0.4688,-1.593 a 1.550155,1.550155 0 0 0 -0.094,-1.094 z m 30.0937,25.906 c -0.017,0.02 -0.014,0.04 -0.031,0.06 -0.9334,0.954 -2.3691,1.892 -4.125,2.75 -3.5119,1.715 -8.3132,3.038 -13.0312,3.656 -4.7185,0.618 -9.3719,0.52 -12.5313,-0.312 -1.5797,-0.418 -2.7642,-1.025 -3.4063,-1.657 -0.052,-0.05 -0.079,-0.106 -0.125,-0.156 -0.1229,1.175 -0.2524,2.422 -0.375,3.594 0.92,0.515 1.9568,0.918 3.0938,1.219 3.8108,1.001 8.7513,1.032 13.75,0.374 4.9987,-0.654 10.0534,-1.978 14,-3.906 0.9147,-0.446 1.778,-0.919 2.5625,-1.437 0.1088,-1.958 0.1091,-2.214 0.2187,-4.188 z m -1.4062,25.5 c -0.014,0 -0.017,0.02 -0.031,0.03 -0.9486,0.586 -2.4621,1.157 -4.2813,1.626 -3.6384,0.93 -8.557,1.466 -13.4063,1.468 -4.8488,0 -9.6596,-0.528 -13,-1.531 -1.4724,-0.442 -2.6237,-0.992 -3.375,-1.531 -0.1212,1.164 -0.223,2.247 -0.3437,3.406 0.8588,0.424 1.8112,0.783 2.8437,1.094 3.8258,1.148 8.812,1.658 13.875,1.656 5.0635,0 10.1718,-0.535 14.1876,-1.562 1.2226,-0.315 2.3409,-0.679 3.3437,-1.094 0.088,-1.575 0.099,-1.974 0.1875,-3.563 z m -36.5625,23.938 c -0.1244,1.199 -0.2514,2.432 -0.375,3.625 0.9892,0.623 2.1223,1.157 3.4063,1.625 3.8822,1.414 8.9658,2.278 14.125,2.625 5.1587,0.347 10.3736,0.166 14.4687,-0.594 1.1765,-0.218 2.2666,-0.484 3.25,-0.812 0.077,-1.385 0.1096,-2.006 0.1875,-3.407 -0.9542,0.453 -2.3281,0.845 -4,1.157 -3.7052,0.686 -8.739,0.895 -13.6875,0.562 -4.9485,-0.333 -9.8514,-1.186 -13.2813,-2.438 -1.7148,-0.623 -3.0496,-1.375 -3.8124,-2.062 -0.1146,-0.103 -0.193,-0.188 -0.2813,-0.281 z m -2.6563,25.406 c -0.1394,1.353 -0.2367,2.565 -0.375,3.906 1.0366,0.734 2.25,1.376 3.625,1.938 3.8395,1.568 8.8583,2.61 13.9688,3.156 5.1105,0.546 10.279,0.582 14.3438,-0.03 1.6969,-0.253 3.19,-0.627 4.4687,-1.156 0.074,-1.337 0.1431,-2.328 0.2187,-3.688 -0.1703,0.177 -0.4426,0.389 -0.9062,0.625 -0.9273,0.472 -2.4188,0.883 -4.25,1.156 -3.6625,0.546 -8.632,0.551 -13.5312,0.03 -4.8995,-0.523 -9.7568,-1.58 -13.1563,-2.968 -1.6997,-0.695 -3.0144,-1.488 -3.7813,-2.219 -0.2949,-0.281 -0.4844,-0.522 -0.625,-0.75 z m -2.5937,25.531 c -0.1499,1.466 -0.3209,3.053 -0.4687,4.5 1.1626,0.831 2.5728,1.475 4.2187,2.032 3.9561,1.334 9.1513,2.096 14.4063,2.343 5.2546,0.246 10.5559,0 14.7187,-0.843 1.6753,-0.337 3.1411,-0.784 4.4063,-1.344 0.064,-1.161 0.1525,-2.499 0.2187,-3.688 -0.1896,0.172 -0.4295,0.352 -0.8125,0.563 -0.9784,0.536 -2.5455,1.058 -4.4375,1.437 -3.784,0.758 -8.8894,1.018 -13.9375,0.782 -5.0481,-0.241 -10.0601,-1.006 -13.5625,-2.188 -1.7512,-0.591 -3.1297,-1.3 -3.9063,-1.969 -0.7762,-0.668 -0.9147,-1.078 -0.8437,-1.625 z m -2.75,26.969 c -0.1481,1.464 -0.2923,2.843 -0.4375,4.281 1.1649,0.897 2.595,1.637 4.25,2.313 4.0119,1.637 9.2756,2.792 14.625,3.437 5.3494,0.645 10.7589,0.778 15,0.25 1.9183,-0.239 3.5778,-0.607 4.9688,-1.187 0.052,-0.931 0.1337,-2.785 0.1874,-3.75 -0.1335,0.194 -0.4075,0.442 -1.0624,0.75 -0.9794,0.46 -2.5427,0.854 -4.4688,1.093 -3.8522,0.481 -9.1014,0.372 -14.25,-0.25 -5.1486,-0.619 -10.2504,-1.752 -13.8438,-3.218 -1.7964,-0.733 -3.2082,-1.551 -4.0312,-2.313 -0.6173,-0.571 -0.8764,-1 -0.9375,-1.406 z m 37.5,25.063 c -0.2551,0.472 -0.6138,0.94 -1.125,1.437 -1.0489,1.019 -2.648,2.037 -4.625,2.906 -3.954,1.74 -9.3589,2.967 -14.7187,3.469 -5.3603,0.502 -10.7148,0.286 -14.4688,-0.688 -1.877,-0.485 -3.3274,-1.18 -4.1875,-1.906 -0.8601,-0.725 -1.1576,-1.356 -1.0937,-2.281 l -0.094,0 c -0.1791,1.803 -0.3278,3.165 -0.5,4.906 1.3675,1.052 3.119,1.764 5.125,2.281 4.3149,1.12 9.8736,1.309 15.5,0.782 5.6264,-0.527 11.2797,-1.779 15.6875,-3.719 1.599,-0.704 3.0345,-1.492 4.25,-2.406 0.052,-0.934 0.1946,-3.787 0.25,-4.781 z m -42.4063,24.062 c -0.1137,1.173 -0.2346,2.649 -0.3437,3.781 1.1717,0.851 2.5245,1.612 4.0625,2.281 4.4828,1.953 10.3362,3.241 16.25,3.813 5.9138,0.572 11.8693,0.439 16.5312,-0.656 1.5386,-0.362 2.9331,-0.828 4.1563,-1.438 0.025,-0.452 0.1911,-3.316 0.2187,-3.812 -0.1047,0.09 -0.1914,0.16 -0.3124,0.25 -1.047,0.778 -2.7117,1.479 -4.7813,1.969 -4.1393,0.972 -9.8415,1.14 -15.5,0.593 -5.6585,-0.547 -11.3183,-1.812 -15.3437,-3.562 -2.013,-0.876 -3.6049,-1.86 -4.5938,-2.844 -0.132,-0.131 -0.2338,-0.247 -0.3438,-0.375 z m -2.1562,22.969 c -0.1171,1.289 -0.2708,3.014 -0.375,4.187 1.2716,1.039 2.8338,1.917 4.625,2.688 4.4493,1.914 10.2588,3.134 16.125,3.656 5.8662,0.522 11.7806,0.351 16.4062,-0.781 1.7883,-0.439 3.3955,-1.024 4.75,-1.813 0.011,-0.194 0.2048,-3.936 0.2188,-4.187 -0.2304,0.327 -0.5355,0.639 -0.9688,0.969 -1.0392,0.787 -2.6984,1.494 -4.75,2 -4.1023,1.006 -9.7664,1.249 -15.375,0.75 -5.6083,-0.502 -11.2017,-1.724 -15.1874,-3.438 -1.9932,-0.857 -3.5549,-1.842 -4.5313,-2.812 -0.4306,-0.431 -0.7286,-0.824 -0.9375,-1.219 z"
         transform="matrix(0.26458334,0,0,0.26458334,-6.3049604e-6,18.562493)"
         id="path34573"
         inkscape:connector-curvature="0" />
    </g>
  </g>
</svg>
