<?xml version="1.0" encoding="UTF-8" standalone="no"?>
<!-- Created with Inkscape (http://www.inkscape.org/) -->

<svg
   xmlns:dc="http://purl.org/dc/elements/1.1/"
   xmlns:cc="http://creativecommons.org/ns#"
   xmlns:rdf="http://www.w3.org/1999/02/22-rdf-syntax-ns#"
   xmlns:svg="http://www.w3.org/2000/svg"
   xmlns="http://www.w3.org/2000/svg"
   xmlns:sodipodi="http://sodipodi.sourceforge.net/DTD/sodipodi-0.dtd"
   xmlns:inkscape="http://www.inkscape.org/namespaces/inkscape"
   width="108.65866"
   height="621.55139"
   viewBox="0 0 28.749269 164.45214"
   version="1.1"
   id="svg23489"
   inkscape:version="0.48.5 r10040"
   sodipodi:docname="trunk_03.svg"
   tags="palm tree trunk, palm tree, tree trunk, tree, trunk">
  <defs
     id="defs23483" />
  <sodipodi:namedview
     id="base"
     pagecolor="#7d848b"
     bordercolor="#666666"
     borderopacity="1.0"
     inkscape:pageopacity="1"
     inkscape:pageshadow="2"
     inkscape:zoom="0.42617864"
     inkscape:cx="265.23468"
     inkscape:cy="627.0829"
     inkscape:document-units="px"
     inkscape:current-layer="layer1"
     showgrid="false"
     inkscape:pagecheckerboard="false"
     showborder="true"
     units="px"
     inkscape:window-width="1920"
     inkscape:window-height="1017"
     inkscape:window-x="-8"
     inkscape:window-y="-8"
     inkscape:window-maximized="1"
     inkscape:showpageshadow="false"
     guidetolerance="28"
     fit-margin-top="15"
     fit-margin-left="15"
     fit-margin-right="15"
     fit-margin-bottom="15">
    <inkscape:grid
       type="xygrid"
       id="grid24034"
       spacingx="1px"
       spacingy="1px"
       empspacing="8"
       visible="true"
       enabled="true"
       snapvisiblegridlinesonly="true"
       originx="-433.89451px"
       originy="-107.19705px" />
  </sodipodi:namedview>
  <metadata
     id="metadata23486">
    <rdf:RDF>
      <cc:Work
         rdf:about="">
        <dc:format>image/svg+xml</dc:format>
        <dc:type
           rdf:resource="http://purl.org/dc/dcmitype/StillImage" />
        <dc:title></dc:title>
        <cc:license
           rdf:resource="" />
        <dc:creator>
          <cc:Agent>
            <dc:title>Robert Brooks</dc:title>
          </cc:Agent>
        </dc:creator>
      </cc:Work>
    </rdf:RDF>
  </metadata>
  <g
     inkscape:label="Layer 1"
     inkscape:groupmode="layer"
     id="layer1"
     transform="translate(-114.80126,-104.18527)">
    <g
       id="g34736"
       transform="translate(445.17204,-2490.0527)">
      <path
         style="color:#000000;fill:#c88a37;fill-opacity:1;fill-rule:nonzero;stroke:#42220d;stroke-width:2.64583349;stroke-linejoin:round;stroke-miterlimit:4;stroke-opacity:1;stroke-dasharray:none;marker:none;visibility:visible;display:inline;overflow:visible;enable-background:accumulate"
         d="m -319.51238,2752.2466 c 9.93907,-14.9088 -5.26188,-105.3836 -5.55419,-122.9232 -0.29234,-17.5396 1.86743,-24.7138 2.92325,-27.4786 1.12667,-2.9504 4.83576,-3.6515 3.70483,1.3242 -0.99822,4.3918 -3.18432,11.6812 -1.65854,31.7086 1.18366,15.5368 10.58688,67.1315 12.27769,87.8438 1.1693,14.3241 0.87699,29.7442 0.87699,29.7442 0.56208,1.0415 -11.61003,1.5297 -12.57003,-0.219 z"
         id="path34223"
         inkscape:connector-curvature="0"
         sodipodi:nodetypes="cssssscc" />
      <path
         sodipodi:nodetypes="cssssscc"
         inkscape:connector-curvature="0"
         id="path34201"
         d="m -319.51238,2752.2466 c 9.93907,-14.9088 -5.26188,-105.3836 -5.55419,-122.9232 -0.29234,-17.5396 1.86743,-24.7138 2.92325,-27.4786 1.12667,-2.9504 4.83576,-3.6515 3.70483,1.3242 -0.99822,4.3918 -3.18432,11.6812 -1.65854,31.7086 1.18366,15.5368 10.58688,67.1315 12.27769,87.8438 1.1693,14.3241 0.87699,29.7442 0.87699,29.7442 0.21019,3.1528 -11.79848,2.6604 -12.57003,-0.219 z"
         style="color:#000000;fill:#c88a37;fill-opacity:1;fill-rule:nonzero;stroke:none;stroke-width:0;marker:none;visibility:visible;display:inline;overflow:visible;enable-background:accumulate" />
      <path
         id="path34723"
         transform="matrix(0.26458334,0,0,0.26458334,-6.3049604e-6,18.562493)"
         d="m -1205.25,9755.625 c -26.1564,97.5694 -3.5795,184.8301 9.9375,262.375 4.2703,24.498 9.1746,47.629 14.0313,68.406 -12.0372,-78.642 -25.8497,-162.7694 -28.5313,-197.9685 -5.7667,-75.6941 2.4772,-103.2448 6.25,-119.8437 1.6723,-7.3576 0.5603,-11.4038 -1.6875,-12.9688 z m -8.5312,254.125 c 14.4443,124.522 30.9202,285.182 6.1874,322.281 2.9161,10.883 48.2945,12.76 47.5,0.844 0,0 0.1241,-6.845 0.125,-17.406 -2.2897,2.664 -5.6083,4.725 -10.3437,4.093 -11.7188,-1.563 -15.625,-10.937 -12.5,-48.437 2.4888,-29.865 -4.9552,-131.615 -30.9687,-261.375 z"
         style="opacity:0.83628319;color:#000000;fill:#b36e10;fill-opacity:1;fill-rule:nonzero;stroke:none;stroke-width:2.79999995;marker:none;visibility:visible;display:inline;overflow:visible;enable-background:accumulate"
         inkscape:connector-curvature="0" />
      <path
         id="path34731"
         transform="matrix(0.26458334,0,0,0.26458334,-6.3049604e-6,18.562493)"
         d="m -1208.0312,9754.8438 c -3.3959,0.1569 -7.5352,3.5229 -9.5313,8.75 -3.9905,10.4496 -12.1362,37.5523 -11.0313,103.8437 0.1359,8.1538 1.1284,20.5184 2.6876,35.9687 -1.1563,-91.6659 14.5887,-135.2669 20.9687,-147.5624 -0.8655,-0.7285 -1.9472,-1.053 -3.0937,-1 z m 17.75,273.2812 c -0.6144,7.852 -0.12,18.074 2.7812,32.844 8.5937,43.75 21.8751,178.125 21.0938,207.812 -0.7581,28.808 -0.061,45.093 6.4062,51.031 0.066,-20.099 -0.2424,-60.616 -3.4062,-99.374 -3.5081,-42.974 -15.76,-120.845 -26.875,-192.313 z"
         style="opacity:0.83628319;color:#000000;fill:#e1a31e;fill-opacity:1;fill-rule:nonzero;stroke:none;stroke-width:2.79999995;marker:none;visibility:visible;display:inline;overflow:visible;enable-background:accumulate"
         inkscape:connector-curvature="0" />
      <path
         id="path34448-1"
         transform="matrix(0.26458334,0,0,0.26458334,-6.3049604e-6,18.562493)"
         d="m -1213,9758.6875 c -0.6092,0.013 -1.2224,0.078 -1.8125,0.1875 -0.8331,1.0013 -1.601,2.1635 -2.2187,3.4688 0.3958,-0.2609 0.8302,-0.4806 1.3124,-0.6563 1.6778,-0.6115 3.7776,-0.6762 5.8126,-0.2187 2.0348,0.4592 3.9361,1.3824 5.1874,2.5937 0.7822,0.7569 1.3522,1.5545 1.5938,2.4375 0.2519,-1.4981 0.3669,-2.8444 0.375,-4.0312 -0.062,-0.064 -0.1235,-0.1256 -0.1875,-0.1876 -1.6647,-1.6112 -3.991,-2.6424 -6.4063,-3.1874 -1.2075,-0.2725 -2.4378,-0.4313 -3.6562,-0.4063 z m -4.125,15.7187 c -1.2184,0.025 -2.4079,0.2165 -3.5312,0.625 -0.196,0.072 -0.3718,0.1644 -0.5626,0.25 -0.2769,1.0796 -0.5334,2.1985 -0.8124,3.4063 0.6032,-0.5725 1.3486,-0.9754 2.1874,-1.2813 1.6778,-0.6115 3.7464,-0.7111 5.7813,-0.25 2.0349,0.4594 3.9674,1.3825 5.2187,2.5938 1.2515,1.2113 1.8911,2.5768 1.625,4.1562 a 1.2208936,1.2208936 0 0 0 0.094,0.8126 c 0.3682,-1.893 0.7291,-3.7047 1.0938,-5.375 -0.3101,-0.4463 -0.6674,-0.8676 -1.0626,-1.25 -1.6646,-1.6114 -3.9597,-2.7367 -6.375,-3.2813 -1.2075,-0.2723 -2.4378,-0.4308 -3.6562,-0.4063 z m -2.5,17.1876 c -1.3001,0.054 -2.5575,0.2721 -3.75,0.6874 -0.4648,0.1617 -0.9086,0.3668 -1.3438,0.5938 -0.1789,1.1609 -0.3591,2.3581 -0.5312,3.5938 0.6688,-0.8321 1.5719,-1.4245 2.6875,-1.8126 1.809,-0.6292 4.0627,-0.7228 6.25,-0.25 2.1873,0.4711 4.3494,1.4825 5.6875,2.7188 0.5436,0.5021 0.9601,1.0231 1.25,1.5625 0.1506,-1.1612 0.3104,-2.2798 0.4688,-3.375 -0.022,-0.02 -0.041,-0.042 -0.063,-0.062 -1.7781,-1.6426 -4.1812,-2.7599 -6.75,-3.3125 -1.2843,-0.2765 -2.6061,-0.3979 -3.9062,-0.3437 z m -2.125,17.375 c -1.4163,0.021 -2.815,0.2326 -4.125,0.6874 -0.3056,0.1064 -0.6096,0.21 -0.9062,0.3438 -0.1037,1.107 -0.2156,2.2534 -0.3126,3.4062 0.5905,-0.4371 1.2782,-0.7583 2.0626,-1.0312 1.9871,-0.6913 4.566,-0.7689 6.9687,-0.25 2.4027,0.517 4.6551,1.6107 6.125,2.9688 0.3553,0.3281 0.6516,0.6539 0.9063,1 0.082,-1.2674 0.1567,-2.4787 0.25,-3.6876 -1.8569,-1.4553 -4.2186,-2.4688 -6.6876,-3 -1.4107,-0.3036 -2.8649,-0.4583 -4.2812,-0.4374 z m -0.2812,16.5937 c -1.4459,0.051 -2.8775,0.2938 -4.1876,0.75 -0.6328,0.2201 -1.2373,0.5054 -1.8124,0.8437 -0.061,1.2054 -0.1028,2.4412 -0.1563,3.6876 0.7273,-0.8922 1.6952,-1.5162 2.9063,-1.9376 1.9871,-0.6912 4.566,-0.7689 6.9687,-0.25 2.4027,0.5172 4.6862,1.6108 6.1563,2.9688 0.1614,0.1491 0.2973,0.316 0.4374,0.4688 0.024,-1.2114 0.06,-2.394 0.094,-3.5626 -1.7565,-1.2317 -3.8708,-2.1155 -6.0938,-2.5937 -1.4107,-0.3037 -2.8667,-0.4257 -4.3124,-0.375 z m -0.094,17.7813 c -1.7917,0.047 -3.5536,0.3703 -5.1562,1.0312 -0.453,0.1869 -0.886,0.4114 -1.3126,0.6562 -0.018,1.1062 -0.019,2.3039 -0.031,3.4376 0.657,-0.6373 1.4641,-1.1112 2.4062,-1.5 1.9451,-0.8025 4.4157,-1.0994 6.8438,-0.7188 2.4281,0.3802 4.7056,1.3215 6.25,2.5938 0.5923,0.488 1.0755,1.0104 1.4375,1.5624 -0.027,-1.3916 -0.047,-2.7476 -0.062,-4.0937 -1.9891,-1.4531 -4.5417,-2.3716 -7.1562,-2.7813 -1.0694,-0.1675 -2.1438,-0.2159 -3.2188,-0.1874 z m 1.9062,17.7812 c -2.5292,0.015 -5.0567,0.4935 -7.1874,1.6562 -0.4403,0.2402 -0.846,0.5135 -1.25,0.8126 0.015,1.2764 0.041,2.537 0.062,3.8437 7e-4,0.039 -6e-4,0.086 0,0.125 0.5772,-0.9397 1.4197,-1.6918 2.5,-2.2813 1.8472,-1.0076 4.2638,-1.554 6.7188,-1.4374 2.455,0.1171 4.9524,0.9329 6.625,2.0312 0.6565,0.4312 1.2081,0.8728 1.625,1.375 -0.061,-1.2762 -0.1045,-2.5376 -0.1562,-3.7812 -2.2133,-1.4349 -4.9857,-2.1768 -7.8438,-2.3126 -0.3604,-0.017 -0.7323,-0.033 -1.0938,-0.031 z m -1.125,21.375 c -1.6499,0.049 -3.2064,0.3112 -4.625,0.8438 -0.6022,0.2265 -1.1895,0.5131 -1.7187,0.875 0.091,1.1548 0.2094,2.4392 0.3125,3.6562 0.3224,-0.9039 1.0946,-1.4676 2.3438,-1.9375 1.6246,-0.6115 4.0774,-0.7584 6.5,-0.4687 2.4224,0.291 4.8858,0.9371 6.7187,1.9062 0.8656,0.4575 1.544,0.9628 2.0313,1.4688 -0.01,-0.1274 -0.022,-0.2802 -0.031,-0.4063 -0.082,-1.0817 -0.142,-2.1253 -0.2187,-3.1875 -0.1531,-0.087 -0.3114,-0.1668 -0.4688,-0.25 -2.2246,-1.1762 -5.0723,-2.0481 -7.8125,-2.375 -1.0276,-0.1233 -2.0412,-0.1543 -3.0313,-0.125 z m 6.0626,17 c -0.6918,0.014 -1.4001,0.082 -2.0938,0.1562 -2.7749,0.295 -5.4391,1.0259 -7.6562,2.3438 -0.3352,0.1991 -0.6578,0.4272 -0.9688,0.6562 0.1122,1.1186 0.2568,2.2548 0.375,3.4063 0.482,-0.6183 1.151,-1.183 2,-1.6875 1.7288,-1.0277 4.1683,-1.7381 6.625,-2 2.4567,-0.2608 4.9174,-0.087 6.7188,0.4688 0.8795,0.2707 1.5351,0.6222 2,1 -0.1251,-1.1065 -0.261,-2.2545 -0.375,-3.3126 -0.2558,-0.099 -0.5151,-0.1993 -0.7813,-0.2812 -1.731,-0.5326 -3.7688,-0.792 -5.8437,-0.75 z m 0.031,18.9375 c -2.9069,0.076 -5.7828,0.6025 -8.125,1.75 -0.2504,0.1227 -0.4781,0.2665 -0.7188,0.4063 0.1105,1.0057 0.2303,2.0386 0.3438,3.0624 0.4106,-0.351 0.9165,-0.6676 1.5312,-0.9687 1.811,-0.8871 4.3678,-1.3698 6.9688,-1.4375 2.601,-0.068 5.2873,0.2657 7.2188,0.9688 0.9333,0.3406 1.622,0.7436 2.125,1.1562 -0.1579,-1.1913 -0.2869,-2.3408 -0.4376,-3.5 -0.2444,-0.106 -0.4959,-0.1886 -0.75,-0.2812 -2.3851,-0.8706 -5.2493,-1.2319 -8.1562,-1.1563 z m 1.625,16.5 c -0.3578,0 -0.7007,0.012 -1.0625,0.031 -2.1706,0.1154 -4.2908,0.5224 -6.0937,1.2812 -0.5042,0.2123 -0.9807,0.4913 -1.4376,0.7812 0.1175,1.0278 0.2241,2.1456 0.3438,3.1876 0.4897,-0.5337 1.2071,-0.9757 2.1562,-1.375 1.8587,-0.7825 4.4932,-1.1434 7.0938,-1.0626 2.6006,0.079 5.1746,0.6233 7.0625,1.4376 0.8834,0.3809 1.5741,0.7717 2.0625,1.1874 -0.1652,-1.1679 -0.3708,-2.4159 -0.5312,-3.5624 -0.154,-0.072 -0.3125,-0.1514 -0.4688,-0.2188 -2.3315,-1.0054 -5.1248,-1.5655 -8.0312,-1.6562 -0.3634,-0.011 -0.736,-0.029 -1.0938,-0.031 z m 3.8438,16.8437 c -0.3662,0.01 -0.7314,0.034 -1.0938,0.063 -2.8991,0.2267 -5.7514,0.983 -8.0312,2.25 -0.4377,0.2431 -0.8558,0.5167 -1.25,0.8124 0.1416,1.2123 0.2625,2.273 0.4062,3.5 0.4082,-0.7212 1.1023,-1.3517 2.1562,-1.9374 1.7628,-0.9798 4.3748,-1.5791 6.9688,-1.7813 2.594,-0.2003 5.2224,0 7.1875,0.5937 0.9626,0.2961 1.6934,0.6617 2.2187,1.0626 -0.1634,-1.1126 -0.3397,-2.2456 -0.5,-3.3438 -0.2819,-0.1053 -0.5809,-0.2221 -0.875,-0.3125 -1.8202,-0.5598 -3.9295,-0.8802 -6.0937,-0.9063 -0.3607,0 -0.7276,-0.01 -1.0937,0 z m 3.5624,16.875 c -0.7213,0 -1.4314,0.037 -2.1562,0.094 -2.8991,0.2268 -5.7514,0.8581 -8.0312,2.125 -0.6347,0.3526 -1.2121,0.7767 -1.75,1.25 0.1613,1.3709 0.3369,2.7706 0.5,4.1562 0.2101,-1.1644 1.0181,-2.0968 2.5312,-2.9374 1.7626,-0.9798 4.3747,-1.6732 6.9688,-1.875 2.5939,-0.2005 5.2536,0.085 7.2187,0.6874 0.9709,0.2987 1.6926,0.7126 2.2187,1.125 -0.1818,-1.2069 -0.3208,-2.3368 -0.5,-3.5312 -0.2912,-0.1126 -0.6028,-0.2192 -0.9062,-0.3125 -1.8202,-0.5598 -3.9295,-0.7886 -6.0938,-0.7813 z m -2.125,18.75 c -2.2833,0.082 -4.4664,0.432 -6.3124,1.1876 -0.5145,0.2104 -1.0042,0.4717 -1.4688,0.75 0.1336,1.1376 0.2407,2.1668 0.375,3.3124 0.015,-0.018 0.015,-0.044 0.031,-0.062 0.445,-0.5077 1.1791,-1.0197 2.125,-1.4063 1.892,-0.7737 4.6251,-1.1547 7.4376,-1.0625 2.8123,0.091 5.783,0.699 7.9374,1.5312 1.0773,0.4162 1.9094,0.895 2.5,1.375 -0.1828,-1.1914 -0.3502,-2.3484 -0.5312,-3.5312 -0.3382,-0.1508 -0.6763,-0.3004 -1.0312,-0.4375 -2.5485,-0.9846 -5.655,-1.5545 -8.75,-1.6563 -0.7739,-0.025 -1.5513,-0.027 -2.3126,0 z m 10.625,17.7498 c -2.0657,0 -4.3745,0.208 -6.6562,0.563 -3.0423,0.469 -6.031,1.221 -8.375,2.219 -0.4092,0.173 -0.7914,0.366 -1.1562,0.562 0.1181,1.017 0.2253,2.04 0.3437,3.062 0.5004,-0.328 1.2155,-0.666 2,-1 2.0061,-0.852 4.787,-1.589 7.6563,-2.031 2.8691,-0.442 5.7454,-0.639 7.9374,-0.469 1.0962,0.09 2.0198,0.258 2.5938,0.469 0.026,0.01 0.038,0.02 0.062,0.03 -0.1541,-0.995 -0.3155,-2.039 -0.4687,-3.031 -0.6061,-0.137 -1.2656,-0.226 -1.9688,-0.281 -0.629,-0.05 -1.2801,-0.09 -1.9688,-0.09 z m 2.4688,19.5 c -2.066,0 -4.3363,0.178 -6.625,0.532 -3.0516,0.47 -6.0441,1.245 -8.4062,2.25 -0.4755,0.202 -0.9157,0.428 -1.3438,0.656 0.1287,1.13 0.2464,2.271 0.375,3.406 0.4555,-0.37 1.2168,-0.819 2.1562,-1.219 1.9882,-0.845 4.8275,-1.559 7.6876,-2 2.8599,-0.44 5.7315,-0.669 7.9062,-0.5 1.0874,0.08 2.0404,0.296 2.5938,0.5 0.4149,0.153 0.5651,0.286 0.5937,0.281 a 1.5501551,1.5501551 0 0 0 0.1563,0.438 c -0.2011,-1.292 -0.3936,-2.556 -0.5938,-3.844 -0.7772,-0.212 -1.6282,-0.367 -2.5312,-0.437 -0.6334,-0.05 -1.2801,-0.06 -1.9688,-0.06 z m 7,16.656 c -4.9934,1.422 -15.378,2.865 -21.5312,3.282 0.1139,1.024 0.23,2.035 0.3437,3.062 6.2387,-0.397 15.9792,-1.643 21.6875,-3.25 -0.1636,-1.052 -0.3366,-2.043 -0.5,-3.094 z m 2.875,18.469 c -0.1068,0.04 -0.1839,0.06 -0.3438,0.125 -1.9534,0.735 -5.0872,1.671 -8.375,2.375 -3.2876,0.704 -6.7848,1.224 -9.4374,1.407 -1.3265,0.09 -2.4662,0.1 -3.1876,0 -0.2883,-0.04 -0.4728,-0.06 -0.5937,-0.09 -0.023,0 -0.1583,-0.14 -0.125,-0.125 a 1.5501551,1.5501551 0 0 0 -0.3125,-0.281 c 0.127,1.178 0.2487,2.35 0.375,3.531 0.095,0.02 0.184,0.05 0.2812,0.06 1.0847,0.148 2.3343,0.1 3.7813,0 2.894,-0.196 6.4175,-0.803 9.8125,-1.531 3.2959,-0.706 6.4134,-1.503 8.625,-2.312 -0.163,-1.053 -0.3368,-2.105 -0.5,-3.157 z m 3.2812,21.281 c -0.1191,0.07 -0.2271,0.16 -0.4374,0.25 -1.868,0.811 -4.9675,1.769 -8.375,2.469 -3.4077,0.701 -7.0961,1.195 -10.0313,1.407 -1.4676,0.105 -2.7142,0.194 -3.6563,0.124 -0.3188,-0.02 -0.6039,-0.101 -0.8437,-0.156 0.1087,1.061 0.2046,2.126 0.3125,3.188 0.095,0 0.1829,0.02 0.2812,0.03 1.1772,0.08 2.5633,0.02 4.125,-0.09 3.1236,-0.223 6.8761,-0.837 10.4063,-1.562 3.3686,-0.693 6.4991,-1.426 8.75,-2.344 -0.1696,-1.107 -0.361,-2.204 -0.5313,-3.313 z m 3.3126,21.657 c -0.047,0.08 -0.1,0.191 -0.1876,0.312 -0.3514,0.485 -1.1573,1.045 -2.25,1.657 -2.185,1.22 -5.5012,2.37 -8.9687,3.062 -3.4675,0.692 -7.0784,1.064 -9.6875,0.844 -1.3045,-0.11 -2.3705,-0.433 -2.9688,-0.719 -0.1495,-0.07 -0.2524,-0.128 -0.3437,-0.187 0.113,1.177 0.201,2.354 0.3125,3.531 0.8463,0.226 1.7819,0.356 2.75,0.437 3.0618,0.257 6.8361,-0.107 10.5312,-0.844 3.6953,-0.737 7.25,-1.922 9.9063,-3.406 0.5329,-0.297 1.0185,-0.61 1.4687,-0.937 -0.1885,-1.253 -0.3725,-2.492 -0.5624,-3.75 z m 2.2187,14.781 a 1.5501551,1.5501551 0 0 0 0.062,1.125 c 0.1296,0.336 0.1385,0.452 -0.2188,0.937 -0.3571,0.488 -1.1438,1.171 -2.25,1.782 -2.2121,1.222 -5.7156,2.245 -9.2187,2.937 -3.5031,0.693 -7.0506,1.064 -9.6875,0.844 -1.3185,-0.11 -2.4559,-0.432 -3.0625,-0.719 -0.6066,-0.287 -0.5796,-0.351 -0.5937,-0.468 a 1.5501551,1.5501551 0 0 0 -0.2188,-0.782 c 0.1346,1.485 0.2744,2.955 0.4062,4.438 0.9348,0.31 1.9679,0.497 3.125,0.594 3.0859,0.257 6.8964,-0.08 10.625,-0.813 3.7288,-0.737 7.3502,-1.83 10.0313,-3.313 0.6492,-0.358 1.2633,-0.749 1.8125,-1.156 -0.2649,-1.795 -0.5434,-3.595 -0.8125,-5.406 z m 3.0313,20.656 a 1.5501551,1.5501551 0 0 0 0,1.125 c 0.1262,0.325 0.1207,0.481 -0.25,0.969 -0.3709,0.488 -1.2297,1.137 -2.375,1.75 -2.2908,1.226 -5.7595,2.4 -9.4376,3.094 -3.6779,0.694 -7.5545,0.911 -10.5,0.687 -1.4726,-0.113 -2.7318,-0.358 -3.5624,-0.687 -0.084,-0.03 -0.1462,-0.06 -0.2188,-0.09 0.092,1.13 0.1596,2.248 0.25,3.375 0.9925,0.253 2.065,0.376 3.2812,0.469 3.3471,0.253 7.4448,-0.08 11.3438,-0.813 3.899,-0.736 7.6484,-1.835 10.4062,-3.312 0.6896,-0.37 1.2967,-0.764 1.8438,-1.188 -0.2492,-1.749 -0.5264,-3.604 -0.7812,-5.375 z m 3.5312,25.25 c -0.07,0.167 -0.1767,0.345 -0.3438,0.563 -0.4976,0.647 -1.5058,1.419 -2.8437,2.125 -2.6758,1.41 -6.6836,2.634 -10.75,3.312 -4.0664,0.678 -8.185,0.868 -11.0937,0.469 -1.3444,-0.185 -2.4141,-0.509 -3.0313,-0.844 0.08,1.147 0.1725,2.296 0.25,3.438 0.713,0.226 1.4845,0.386 2.3125,0.5 3.4095,0.467 7.7266,0.218 12.0312,-0.5 4.3048,-0.718 8.5292,-1.991 11.6876,-3.657 0.8409,-0.443 1.6172,-0.919 2.3124,-1.437 -0.1736,-1.3 -0.3528,-2.651 -0.5312,-3.969 z m 2.9062,22.344 c -0.52,0.61 -1.5415,1.321 -2.9062,1.969 -2.7756,1.317 -6.8867,2.393 -11.0938,2.937 -4.2069,0.545 -8.5708,0.623 -11.5937,0.125 -1.5114,-0.249 -2.6527,-0.665 -3.2813,-1.062 -0.6284,-0.398 -0.6209,-0.502 -0.5937,-0.813 a 1.5581724,1.5581724 0 0 0 -0.2813,-1.062 c 0.098,1.679 0.1899,3.334 0.2813,5 0.9968,0.422 2.1308,0.696 3.4063,0.906 3.5025,0.576 7.9659,0.575 12.4062,0 4.4403,-0.574 8.7969,-1.637 12.0625,-3.188 0.7298,-0.346 1.4129,-0.716 2.0313,-1.124 -0.1489,-1.234 -0.2823,-2.429 -0.4376,-3.688 z m 2.4688,21.688 a 1.5501551,1.5501551 0 0 0 -0.062,1.062 c 0.161,0.519 0.075,0.908 -0.4687,1.531 -0.5437,0.623 -1.607,1.369 -3.0626,2.031 -2.9109,1.327 -7.3035,2.393 -11.6874,2.938 -4.3841,0.546 -8.7766,0.5 -11.9376,0 -1.5804,-0.249 -2.8937,-0.656 -3.5624,-1.062 -0.068,-0.04 -0.1032,-0.06 -0.1563,-0.09 0.044,1.162 0.085,2.316 0.125,3.468 0.9354,0.327 1.9713,0.568 3.125,0.75 3.6235,0.574 8.2664,0.575 12.875,0 4.6086,-0.573 9.1108,-1.644 12.5,-3.187 1.0786,-0.491 2.0447,-1.055 2.875,-1.687 -0.1753,-1.848 -0.3619,-3.802 -0.5625,-5.75 z m 2.0938,24.937 c -0.1386,0.179 -0.3032,0.372 -0.5,0.563 -0.7875,0.761 -2.1513,1.496 -3.7813,2.156 -3.26,1.318 -7.7324,2.194 -12.2813,2.468 -4.5487,0.277 -9.1034,-0.05 -12.2812,-0.937 -1.5889,-0.446 -2.8357,-1.064 -3.5312,-1.656 -0.026,-0.02 -0.038,-0.04 -0.063,-0.06 0.02,1.223 0.017,2.448 0.031,3.656 0.8288,0.395 1.7399,0.726 2.7187,1 3.7118,1.044 8.44,1.353 13.25,1.063 4.8102,-0.291 9.6041,-1.081 13.3438,-2.594 1.2466,-0.504 2.3611,-1.075 3.3438,-1.75 -0.082,-1.302 -0.1627,-2.602 -0.25,-3.906 z m 1.375,25.75 c -0.113,0.154 -0.207,0.314 -0.3438,0.469 -0.8412,0.95 -2.2109,1.949 -3.9062,2.718 -3.3909,1.54 -8.1256,2.463 -12.875,2.688 -4.7496,0.227 -9.5627,-0.265 -12.875,-1.406 -1.6563,-0.57 -2.903,-1.375 -3.6563,-2.125 -0.077,-0.08 -0.1209,-0.146 -0.1875,-0.219 -0.028,1.321 -0.087,2.609 -0.125,3.906 0.9207,0.549 1.942,1.032 3.0312,1.406 3.8892,1.34 8.8836,1.771 13.9376,1.532 5.0538,-0.238 10.1289,-1.184 14.0624,-2.969 1.1697,-0.53 2.2035,-1.144 3.125,-1.844 -0.053,-1.375 -0.1292,-2.765 -0.1874,-4.156 z m 0.75,21.375 c -0.1526,0.745 -0.5045,1.46 -1.0938,2.125 -0.8412,0.951 -2.2109,1.824 -3.9062,2.594 -3.3909,1.538 -8.1256,2.492 -12.875,2.719 -4.7496,0.226 -9.5627,-0.297 -12.875,-1.438 -1.6563,-0.57 -2.903,-1.374 -3.6563,-2.125 -0.7533,-0.751 -1.0174,-1.304 -0.9375,-2.219 a 1.5501551,1.5501551 0 0 0 -0.094,-0.968 c -0.1386,2.069 -0.3299,4.079 -0.5,6.062 1.1704,0.932 2.6503,1.668 4.25,2.219 3.8892,1.338 8.8836,1.771 13.9376,1.531 5.0538,-0.238 10.1289,-1.152 14.0624,-2.938 1.4522,-0.658 2.7148,-1.469 3.7813,-2.406 -0.037,-1.71 -0.049,-3.392 -0.094,-5.156 z m -37.1876,18.25 c -0.3347,2.54 -0.6897,4.97 -1.0937,7.312 1.1136,1.403 2.5997,2.553 4.3437,3.469 4.0192,2.113 9.3822,3.214 14.7813,3.313 5.3991,0.1 10.8517,-0.756 15.125,-2.719 1.6915,-0.777 3.2136,-1.79 4.4375,-3 -0.015,-2.291 -0.034,-4.522 -0.062,-7.031 a 1.5501551,1.5501551 0 0 0 -0.031,0.125 c 0.04,3.08 -2.0011,5.414 -5.6562,7.093 -3.6551,1.681 -8.7868,2.436 -13.8125,2.344 -5.0257,-0.09 -9.9715,-1.07 -13.3437,-2.844 -1.6863,-0.886 -2.8973,-1.928 -3.6563,-3.062 -0.759,-1.134 -1.08,-2.408 -0.8437,-3.906 a 1.5501551,1.5501551 0 0 0 -0.1876,-1.094 z m -4.25,21.156 c -0.4591,1.523 -0.958,2.973 -1.4687,4.344 0.043,0.06 0.081,0.127 0.125,0.188 1.2696,1.748 3.1082,3.195 5.3125,4.343 4.4087,2.296 10.2454,3.531 16.1875,3.907 5.9421,0.374 11.9633,-0.14 16.6563,-1.876 1.9064,-0.703 3.6181,-1.639 5,-2.812 0.021,-1.847 0.017,-2.288 0.031,-5.375 -0.2189,0.874 -0.6711,1.632 -1.375,2.375 -1.0479,1.106 -2.6797,2.09 -4.7188,2.844 -4.0778,1.506 -9.7691,2.134 -15.375,1.781 -5.6057,-0.355 -11.1749,-1.664 -15,-3.656 -1.9124,-0.996 -3.3733,-2.105 -4.25,-3.313 -0.6371,-0.877 -1.0457,-1.766 -1.125,-2.75 z"
         style="font-size:medium;font-style:normal;font-variant:normal;font-weight:normal;font-stretch:normal;text-indent:0;text-align:start;text-decoration:none;line-height:normal;letter-spacing:normal;word-spacing:normal;text-transform:none;direction:ltr;block-progression:tb;writing-mode:lr-tb;text-anchor:start;baseline-shift:baseline;opacity:0.53539824;color:#000000;fill:#673c03;fill-opacity:1;stroke:none;stroke-width:0.82020837;marker:none;visibility:visible;display:inline;overflow:visible;enable-background:accumulate;font-family:Sans;-inkscape-font-specification:Sans"
         inkscape:connector-curvature="0" />
    </g>
  </g>
</svg>
