<?xml version="1.0" encoding="UTF-8" standalone="no"?>
<!-- Created with Inkscape (http://www.inkscape.org/) -->

<svg
   xmlns:dc="http://purl.org/dc/elements/1.1/"
   xmlns:cc="http://creativecommons.org/ns#"
   xmlns:rdf="http://www.w3.org/1999/02/22-rdf-syntax-ns#"
   xmlns:svg="http://www.w3.org/2000/svg"
   xmlns="http://www.w3.org/2000/svg"
   xmlns:sodipodi="http://sodipodi.sourceforge.net/DTD/sodipodi-0.dtd"
   xmlns:inkscape="http://www.inkscape.org/namespaces/inkscape"
   width="171.56366"
   height="622.1748"
   viewBox="0 0 45.392883 164.61709"
   version="1.1"
   id="svg23489"
   inkscape:version="0.48.5 r10040"
   sodipodi:docname="New document 12"
   tags="palm tree trunk, palm tree, tree trunk, tree, trunk">
  <defs
     id="defs23483" />
  <sodipodi:namedview
     id="base"
     pagecolor="#7d848b"
     bordercolor="#666666"
     borderopacity="1.0"
     inkscape:pageopacity="1"
     inkscape:pageshadow="2"
     inkscape:zoom="0.60270762"
     inkscape:cx="511.92359"
     inkscape:cy="464.46832"
     inkscape:document-units="px"
     inkscape:current-layer="layer1"
     showgrid="false"
     inkscape:pagecheckerboard="false"
     showborder="true"
     units="px"
     inkscape:window-width="1920"
     inkscape:window-height="1017"
     inkscape:window-x="-8"
     inkscape:window-y="-8"
     inkscape:window-maximized="1"
     inkscape:showpageshadow="false"
     guidetolerance="28"
     fit-margin-top="15"
     fit-margin-left="15"
     fit-margin-right="15"
     fit-margin-bottom="15">
    <inkscape:grid
       type="xygrid"
       id="grid24034"
       spacingx="1px"
       spacingy="1px"
       empspacing="8"
       visible="true"
       enabled="true"
       snapvisiblegridlinesonly="true"
       originx="202.7581px"
       originy="-106.54387px" />
  </sodipodi:namedview>
  <metadata
     id="metadata23486">
    <rdf:RDF>
      <cc:Work
         rdf:about="">
        <dc:format>image/svg+xml</dc:format>
        <dc:type
           rdf:resource="http://purl.org/dc/dcmitype/StillImage" />
        <dc:title></dc:title>
        <cc:license
           rdf:resource="" />
        <dc:creator>
          <cc:Agent>
            <dc:title>Robert Brooks</dc:title>
          </cc:Agent>
        </dc:creator>
      </cc:Work>
    </rdf:RDF>
  </metadata>
  <g
     inkscape:label="Layer 1"
     inkscape:groupmode="layer"
     id="layer1"
     transform="translate(53.646414,-104.19315)">
    <g
       id="g33821"
       transform="translate(1018.1311,-2496.3855)">
      <g
         transform="matrix(1.1081169,0,0,1.1081169,-538.32686,-292.00946)"
         id="g33775">
        <path
           sodipodi:nodetypes="csssccc"
           transform="matrix(0.26458334,0,0,0.26458334,-6.3049604e-6,18.562493)"
           inkscape:connector-curvature="0"
           id="path33691"
           d="m -1718.8298,10323.178 c 3.125,-323.51 -76.6696,-455.1925 -82.2724,-496.5758 -2.3508,-17.3632 9.0284,-14.9547 12.343,-5.011 3.3146,9.9436 71.9694,184.8178 87.9307,336.1768 4.9259,46.711 18.1013,153.702 18.1353,179.79 -0.3906,1.563 -36.4602,2.734 -36.4602,0 z"
           style="color:#000000;fill:#844b24;fill-opacity:1;fill-rule:nonzero;stroke:#42220d;stroke-width:9.0243187;stroke-linejoin:round;stroke-miterlimit:4;stroke-opacity:1;stroke-dasharray:none;marker:none;visibility:visible;display:inline;overflow:visible;enable-background:accumulate" />
        <path
           style="color:#000000;fill:#c88a37;fill-opacity:1;fill-rule:nonzero;stroke:none;stroke-width:20;marker:none;visibility:visible;display:inline;overflow:visible;enable-background:accumulate"
           d="m -1718.8298,10323.178 c 3.125,-323.51 -76.6696,-455.1925 -82.2724,-496.5758 -2.3508,-17.3632 9.0284,-14.9547 12.343,-5.011 3.3146,9.9436 71.9694,184.8178 87.9307,336.1768 4.9259,46.711 18.1013,153.702 18.1353,179.79 -0.041,5.41 -36.0737,6.985 -36.4602,0 z"
           id="path33689"
           inkscape:connector-curvature="0"
           transform="matrix(0.26458334,0,0,0.26458334,-6.3049604e-6,18.562493)"
           sodipodi:nodetypes="csssccc" />
        <path
           sodipodi:nodetypes="csccscc"
           inkscape:connector-curvature="0"
           id="path33818"
           transform="matrix(0.23876844,0,0,0.23876844,485.80331,280.27003)"
           d="m -4024.9375,9778.8438 c 33.0315,61.5776 90.4088,275.0542 101.2812,395.0632 9.977,110.124 19.7631,185.32 12.1563,189.843 6.8352,-0.797 12.2333,-2.394 12.25,-4.594 -0.038,-28.908 -14.6353,-147.489 -20.0938,-199.25 -17.6869,-167.7232 -93.7645,-361.4811 -97.4374,-372.4998 -1.6473,-4.9417 -5.0927,-8.2028 -8.1563,-8.5624 z"
           style="color:#000000;fill:#e5ae2d;fill-opacity:1;fill-rule:nonzero;stroke:none;stroke-width:20;marker:none;visibility:visible;display:inline;overflow:visible;enable-background:accumulate" />
        <path
           id="path33813"
           transform="matrix(0.23876844,0,0,0.23876844,485.80331,280.27003)"
           d="m -4029.7812,9796.7812 c 10.1116,49.8234 93.8724,197.3099 90.5,546.4378 l -0.375,15.937 c 0.4282,7.74 40.3608,5.995 40.4062,0 0,-3.206 -0.2012,-7.677 -0.5312,-12.875 -0.583,1.46 -1.119,2.738 -1.4688,3.438 -2.2097,4.419 -19.8931,11.035 -24.3125,4.406 -4.4194,-6.629 -1.0855,-75.123 -14.3437,-212.125 -11.8867,-122.829 -52.2034,-278.4915 -89.875,-345.2188 z"
           style="color:#000000;fill:#b36e10;fill-opacity:1;fill-rule:nonzero;stroke:none;stroke-width:20;marker:none;visibility:visible;display:inline;overflow:visible;enable-background:accumulate"
           inkscape:connector-curvature="0" />
        <path
           style="font-size:medium;font-style:normal;font-variant:normal;font-weight:normal;font-stretch:normal;text-indent:0;text-align:start;text-decoration:none;line-height:normal;letter-spacing:normal;word-spacing:normal;text-transform:none;direction:ltr;block-progression:tb;writing-mode:lr-tb;text-anchor:start;baseline-shift:baseline;opacity:0.67699118;color:#000000;fill:#42220d;fill-opacity:1;stroke:none;stroke-width:0.5291667;marker:none;visibility:visible;display:inline;overflow:visible;enable-background:accumulate;font-family:Sans;-inkscape-font-specification:Sans"
           d="m -1590.375,10130.656 c -0.5933,0.462 -1.4361,0.961 -2.5,1.406 -2.6251,1.1 -6.4545,1.996 -10.2188,2.469 -3.7641,0.474 -7.4451,0.468 -10.1874,0 -1.3713,-0.234 -2.5049,-0.486 -3.1563,-0.906 -0.2312,-0.149 -0.3936,-0.288 -0.5313,-0.437 0.082,0.925 0.1691,1.851 0.25,2.781 0.8792,0.387 1.8971,0.619 3.0313,0.812 3.0963,0.528 7.0784,0.493 11,0 3.9216,-0.493 7.6775,-1.404 10.5937,-2.625 0.7152,-0.299 1.3901,-0.634 2,-1 -0.062,-0.588 -0.1583,-1.396 -0.2187,-1.968 -0.019,-0.177 -0.044,-0.355 -0.062,-0.532 z m 2.125,19.438 c -0.012,0.01 -0.019,0.02 -0.031,0.03 -0.5839,0.525 -1.588,1.046 -2.9063,1.563 -2.6365,1.03 -6.4043,1.839 -10.1875,2.218 -3.7832,0.381 -7.5839,0.411 -10.3438,-0.125 -1.3798,-0.268 -2.4938,-0.746 -3.1562,-1.187 -0.2351,-0.157 -0.3938,-0.288 -0.5312,-0.438 0.072,0.933 0.1482,1.876 0.2187,2.813 0.8579,0.395 1.8361,0.692 2.9375,0.906 3.1075,0.604 7.1842,0.644 11.125,0.25 3.9408,-0.398 7.8165,-1.197 10.75,-2.344 0.9247,-0.361 1.7129,-0.789 2.4062,-1.25 -0.1001,-0.898 -0.1835,-1.558 -0.2812,-2.437 z m 2.125,18.937 c -0.09,0.09 -0.2086,0.193 -0.3438,0.313 -0.5918,0.526 -1.6667,1.203 -3,1.718 -2.6662,1.033 -6.3965,1.715 -10.2187,2.094 -3.8222,0.381 -7.6788,0.411 -10.4687,-0.125 -1.3951,-0.268 -2.6104,-0.745 -3.2813,-1.187 -0.2961,-0.196 -0.4773,-0.372 -0.5937,-0.532 0.064,0.973 0.1252,1.931 0.1874,2.907 0.9046,0.46 1.9352,0.796 3.1563,1.031 3.1348,0.603 7.1467,0.522 11.125,0.125 3.9783,-0.394 7.9138,-1.23 10.875,-2.375 1.0948,-0.424 2.071,-0.828 2.875,-1.344 -0.1017,-0.898 -0.2121,-1.737 -0.3125,-2.625 z m 2.25,20.031 a 1.1082278,1.1082278 0 0 0 0.031,0.438 c 0.057,0.293 -0.045,0.661 -0.6562,1.188 -0.6108,0.524 -1.6301,1.052 -3,1.562 -2.7399,1.02 -6.7054,1.857 -10.625,2.219 -3.9196,0.36 -7.8529,0.298 -10.7188,-0.25 -1.4328,-0.277 -2.5876,-0.738 -3.2812,-1.188 -0.3104,-0.201 -0.5145,-0.379 -0.6562,-0.562 0.048,0.912 0.109,1.834 0.1562,2.75 0.9606,0.492 2.0725,0.843 3.375,1.093 3.2024,0.618 7.3341,0.629 11.4062,0.25 4.0723,-0.376 8.094,-1.09 11.125,-2.218 1.3262,-0.495 2.3999,-1.024 3.2813,-1.688 -0.1357,-1.197 -0.3028,-2.406 -0.4375,-3.594 z m 2.375,20.876 c -0.1295,0.189 -0.3444,0.399 -0.6562,0.656 -0.6583,0.54 -1.673,1.161 -3.125,1.687 -2.9043,1.053 -7.1161,1.819 -11.25,2.219 -4.1341,0.398 -8.251,0.403 -11.2813,-0.125 -1.5152,-0.264 -2.7925,-0.739 -3.5313,-1.187 -0.1846,-0.113 -0.3491,-0.218 -0.4687,-0.313 0.037,0.896 0.057,1.788 0.094,2.687 1.0058,0.464 2.2163,0.803 3.5313,1.032 3.3535,0.583 7.6274,0.54 11.9063,0.125 4.2787,-0.415 8.4738,-1.191 11.6562,-2.344 1.3614,-0.494 2.5102,-1.082 3.4375,-1.75 -0.1005,-0.896 -0.212,-1.793 -0.3125,-2.687 z m -29.625,22.062 c 0.04,1.28 0.087,2.557 0.125,3.844 0.064,0.04 0.1221,0.09 0.1875,0.125 1.1692,0.697 2.561,1.117 4.3125,1.437 3.503,0.641 8.0765,0.742 12.5625,0.406 4.486,-0.335 8.9755,-1.003 12.3125,-2.093 1.0977,-0.359 2.0494,-0.765 2.875,-1.219 -0.09,-0.821 -0.1906,-1.646 -0.2812,-2.469 -0.7258,0.514 -1.9428,1.126 -3.375,1.594 -3.0653,1.001 -7.3087,1.644 -11.6563,1.969 -4.3476,0.326 -8.8347,0.302 -12.0313,-0.282 -1.5982,-0.293 -2.8652,-0.684 -3.6562,-1.156 -0.791,-0.472 -0.9375,-0.886 -0.9375,-1.312 a 1.1082278,1.1082278 0 0 0 -0.125,-0.282 1.1082278,1.1082278 0 0 0 -0.125,-0.374 1.1082278,1.1082278 0 0 0 -0.1875,-0.188 z m 34.1562,19.344 c -0.093,0.111 -0.1957,0.232 -0.3437,0.344 -0.753,0.566 -2.0408,1.136 -3.6563,1.687 -3.2307,1.102 -7.751,1.918 -12.3124,2.375 -4.5616,0.457 -9.204,0.616 -12.5626,0.125 -1.6792,-0.247 -2.9491,-0.737 -3.7812,-1.187 -0.5338,-0.29 -0.8009,-0.54 -0.9375,-0.782 0.019,0.955 0.045,1.917 0.062,2.875 1.1885,0.571 2.7189,0.941 4.4062,1.188 3.6567,0.534 8.4008,0.47 13.0938,0 4.693,-0.471 9.3254,-1.311 12.8125,-2.5 1.4005,-0.478 2.5407,-1.012 3.5,-1.625 -0.089,-0.836 -0.1913,-1.66 -0.2813,-2.5 z m 2.375,22.437 c -0.1255,0.173 -0.2933,0.351 -0.4687,0.531 -0.7686,0.795 -2.1366,1.558 -3.8125,2.219 -3.3517,1.322 -8.1279,2.129 -12.9688,2.375 -4.8407,0.247 -9.7396,-0.02 -13.3437,-0.937 -1.8021,-0.46 -3.2459,-1.141 -4.1875,-1.813 -0.3949,-0.282 -0.6685,-0.545 -0.875,-0.812 0.01,0.981 0.024,1.952 0.031,2.937 1.2357,0.773 2.7781,1.366 4.5313,1.813 3.9372,1.004 8.9825,1.286 14,1.031 5.0175,-0.255 9.8781,-1.004 13.5937,-2.469 1.4518,-0.573 2.7484,-1.224 3.7813,-2.031 -0.094,-0.942 -0.1848,-1.89 -0.2813,-2.844 z m 1.8438,18.875 c -0.074,0.08 -0.1296,0.159 -0.2188,0.25 -0.7615,0.783 -2.094,1.615 -3.8124,2.344 -3.4371,1.457 -8.4238,2.557 -13.4688,3.031 -5.045,0.475 -10.1286,0.369 -14,-0.531 -1.9357,-0.449 -3.6266,-1.07 -4.7188,-1.844 -0.5315,-0.376 -0.9123,-0.801 -1.1874,-1.25 -3e-4,1.016 0,2.012 0,3.032 1.4298,0.98 3.3108,1.676 5.375,2.156 4.2365,0.983 9.558,1.148 14.7812,0.656 5.2232,-0.492 10.2338,-1.56 14,-3.156 1.3323,-0.566 2.5251,-1.213 3.5,-1.938 -0.082,-0.902 -0.1648,-1.827 -0.25,-2.75 z m 1.4688,17.563 a 1.1082278,1.1082278 0 0 0 0,0.5 c 0.1,0.504 -0.1275,1.085 -1.0313,1.812 -0.9038,0.727 -2.4341,1.447 -4.3437,2.094 -3.8195,1.294 -9.1904,2.247 -14.5313,2.5 -5.3409,0.255 -10.597,-0.249 -14.375,-1.437 -1.889,-0.595 -3.4105,-1.354 -4.3125,-2.25 -0.143,-0.143 -0.2562,-0.292 -0.375,-0.438 0,0.504 0,0.996 0,1.5 l -0.031,1.469 c 1.1435,0.758 2.5391,1.334 4.0624,1.812 4.2012,1.32 9.6704,1.7 15.1876,1.438 5.517,-0.26 10.9175,-1.107 15.0312,-2.5 2.0107,-0.682 3.7905,-1.439 5.0312,-2.407 -0.09,-1.289 -0.2075,-2.715 -0.3124,-4.093 z"
           transform="matrix(0.23876844,0,0,0.23876844,-70.296253,287.12894)"
           id="path33693"
           inkscape:connector-curvature="0" />
        <path
           style="color:#000000;fill:none;stroke:#42220d;stroke-width:0.5291667;stroke-linecap:round;stroke-linejoin:round;stroke-miterlimit:4;stroke-opacity:1;stroke-dasharray:none;stroke-dashoffset:0;marker:none;visibility:visible;display:inline;overflow:visible;enable-background:accumulate"
           d="m -457.12487,2702.4966 c 0,1.7023 7.33625,0.1124 7.05235,-1.3521"
           id="path33713"
           inkscape:connector-curvature="0"
           sodipodi:nodetypes="cc" />
        <path
           sodipodi:nodetypes="cc"
           inkscape:connector-curvature="0"
           id="path33715"
           d="m -457.70952,2697.814 c 0,1.7023 7.11701,0.3317 6.83311,-1.1328"
           style="color:#000000;fill:none;stroke:#42220d;stroke-width:0.5291667;stroke-linecap:round;stroke-linejoin:round;stroke-miterlimit:4;stroke-opacity:1;stroke-dasharray:none;stroke-dashoffset:0;marker:none;visibility:visible;display:inline;overflow:visible;enable-background:accumulate" />
        <path
           style="color:#000000;fill:none;stroke:#42220d;stroke-width:0.5291667;stroke-linecap:round;stroke-linejoin:round;stroke-miterlimit:4;stroke-opacity:1;stroke-dasharray:none;stroke-dashoffset:0;marker:none;visibility:visible;display:inline;overflow:visible;enable-background:accumulate"
           d="m -458.14802,2693.6063 c 0,1.7023 6.78815,0.1856 6.50425,-1.2789"
           id="path33717"
           inkscape:connector-curvature="0"
           sodipodi:nodetypes="cc" />
        <path
           sodipodi:nodetypes="cc"
           inkscape:connector-curvature="0"
           id="path33719"
           d="m -458.5865,2689.3255 c 1.05968,1.1177 5.83808,0.5875 6.21191,-0.4385"
           style="color:#000000;fill:none;stroke:#42220d;stroke-width:0.5291667;stroke-linecap:round;stroke-linejoin:round;stroke-miterlimit:4;stroke-opacity:1;stroke-dasharray:none;stroke-dashoffset:0;marker:none;visibility:visible;display:inline;overflow:visible;enable-background:accumulate" />
        <path
           style="color:#000000;fill:none;stroke:#42220d;stroke-width:0.5291667;stroke-linecap:round;stroke-linejoin:round;stroke-miterlimit:4;stroke-opacity:1;stroke-dasharray:none;stroke-dashoffset:0;marker:none;visibility:visible;display:inline;overflow:visible;enable-background:accumulate"
           d="m -459.31732,2685.0814 c 0.43849,1.1908 6.02079,0.039 6.17538,-1.2059"
           id="path33721"
           inkscape:connector-curvature="0"
           sodipodi:nodetypes="cc" />
        <path
           sodipodi:nodetypes="cc"
           inkscape:connector-curvature="0"
           id="path33723"
           d="m -459.85422,2680.8928 c 0.33003,0.4773 5.95345,-0.2798 5.60344,-1.2816"
           style="color:#000000;fill:none;stroke:#42220d;stroke-width:0.5291667;stroke-linecap:round;stroke-linejoin:round;stroke-miterlimit:4;stroke-opacity:1;stroke-dasharray:none;stroke-dashoffset:0;marker:none;visibility:visible;display:inline;overflow:visible;enable-background:accumulate" />
        <path
           style="color:#000000;fill:none;stroke:#42220d;stroke-width:0.5291667;stroke-linecap:round;stroke-linejoin:round;stroke-miterlimit:4;stroke-opacity:1;stroke-dasharray:none;stroke-dashoffset:0;marker:none;visibility:visible;display:inline;overflow:visible;enable-background:accumulate"
           d="m -460.68105,2676.8329 c 0.54692,0.4262 6.09237,-1.0362 5.55177,-1.9017"
           id="path33725"
           inkscape:connector-curvature="0"
           sodipodi:nodetypes="cc" />
        <path
           sodipodi:nodetypes="cc"
           inkscape:connector-curvature="0"
           id="path33727"
           d="m -461.55955,2671.7911 5.7068,-0.093"
           style="color:#000000;fill:none;stroke:#42220d;stroke-width:0.5291667;stroke-linecap:round;stroke-linejoin:round;stroke-miterlimit:4;stroke-opacity:1;stroke-dasharray:none;stroke-dashoffset:0;marker:none;visibility:visible;display:inline;overflow:visible;enable-background:accumulate" />
        <path
           style="color:#000000;fill:none;stroke:#42220d;stroke-width:0.5291667;stroke-linecap:round;stroke-linejoin:round;stroke-miterlimit:4;stroke-opacity:1;stroke-dasharray:none;stroke-dashoffset:0;marker:none;visibility:visible;display:inline;overflow:visible;enable-background:accumulate"
           d="m -462.07631,2668.5063 c 0.56844,-0.6718 4.70354,-1.2461 5.2203,-1.0911"
           id="path33729"
           inkscape:connector-curvature="0"
           sodipodi:nodetypes="cc" />
        <path
           sodipodi:nodetypes="cc"
           inkscape:connector-curvature="0"
           id="path33749"
           d="m -462.95481,2664.8889 c 0.56844,-0.6718 4.70354,-1.2461 5.2203,-1.0911"
           style="color:#000000;fill:none;stroke:#42220d;stroke-width:0.5291667;stroke-linecap:round;stroke-linejoin:round;stroke-miterlimit:4;stroke-opacity:1;stroke-dasharray:none;stroke-dashoffset:0;marker:none;visibility:visible;display:inline;overflow:visible;enable-background:accumulate" />
        <path
           style="color:#000000;fill:none;stroke:#42220d;stroke-width:0.5291667;stroke-linecap:round;stroke-linejoin:round;stroke-miterlimit:4;stroke-opacity:1;stroke-dasharray:none;stroke-dashoffset:0;marker:none;visibility:visible;display:inline;overflow:visible;enable-background:accumulate"
           d="m -463.85471,2661.5868 c -0.15503,-1.2919 4.03175,-2.3313 5.06527,-1.3495"
           id="path33751"
           inkscape:connector-curvature="0"
           sodipodi:nodetypes="cc" />
        <path
           sodipodi:nodetypes="cc"
           inkscape:connector-curvature="0"
           id="path33753"
           d="m -464.68521,2658.112 c -0.15503,-1.2919 3.80732,-2.3793 4.84084,-1.3975"
           style="color:#000000;fill:none;stroke:#42220d;stroke-width:0.5291667;stroke-linecap:round;stroke-linejoin:round;stroke-miterlimit:4;stroke-opacity:1;stroke-dasharray:none;stroke-dashoffset:0;marker:none;visibility:visible;display:inline;overflow:visible;enable-background:accumulate" />
        <path
           style="color:#000000;fill:none;stroke:#42220d;stroke-width:0.5291667;stroke-linecap:round;stroke-linejoin:round;stroke-miterlimit:4;stroke-opacity:1;stroke-dasharray:none;stroke-dashoffset:0;marker:none;visibility:visible;display:inline;overflow:visible;enable-background:accumulate"
           d="m -465.63527,2654.3118 c -0.15503,-1.2919 4.39197,-2.5986 4.987,-0.8129"
           id="path33755"
           inkscape:connector-curvature="0"
           sodipodi:nodetypes="cc" />
        <path
           style="color:#000000;fill:none;stroke:#42220d;stroke-width:2;stroke-linecap:round;stroke-linejoin:round;stroke-miterlimit:4;stroke-opacity:1;stroke-dasharray:none;stroke-dashoffset:0;marker:none;visibility:visible;display:inline;overflow:visible;enable-background:accumulate"
           d="m -1763.752,9948.1779 c 0.7223,-9.4109 16.7484,-7.5583 17.577,-4.7961"
           id="path33757"
           inkscape:connector-curvature="0"
           transform="matrix(0.26458334,0,0,0.26458334,-6.3049604e-6,18.562493)"
           sodipodi:nodetypes="cc" />
        <path
           sodipodi:nodetypes="cc"
           inkscape:connector-curvature="0"
           id="path33759"
           d="m -468.00299,2647.2223 c 0.19111,-2.49 4.68973,-2.1548 4.90896,-1.424"
           style="color:#000000;fill:none;stroke:#42220d;stroke-width:0.5291667;stroke-linecap:round;stroke-linejoin:round;stroke-miterlimit:4;stroke-opacity:1;stroke-dasharray:none;stroke-dashoffset:0;marker:none;visibility:visible;display:inline;overflow:visible;enable-background:accumulate" />
        <path
           style="color:#000000;fill:none;stroke:#42220d;stroke-width:0.5291667;stroke-linecap:round;stroke-linejoin:round;stroke-miterlimit:4;stroke-opacity:1;stroke-dasharray:none;stroke-dashoffset:0;marker:none;visibility:visible;display:inline;overflow:visible;enable-background:accumulate"
           d="m -468.82981,2643.5016 c -0.2223,-2.5417 4.26685,-2.7204 4.70226,-1.269"
           id="path33761"
           inkscape:connector-curvature="0"
           sodipodi:nodetypes="cc" />
        <path
           sodipodi:nodetypes="cc"
           inkscape:connector-curvature="0"
           id="path33763"
           d="m -470.07005,2639.7809 c -0.37733,-2.645 4.22465,-2.6716 4.54723,-1.3206"
           style="color:#000000;fill:none;stroke:#42220d;stroke-width:0.5291667;stroke-linecap:round;stroke-linejoin:round;stroke-miterlimit:4;stroke-opacity:1;stroke-dasharray:none;stroke-dashoffset:0;marker:none;visibility:visible;display:inline;overflow:visible;enable-background:accumulate" />
        <path
           style="color:#000000;fill:none;stroke:#42220d;stroke-width:0.5291667;stroke-linecap:round;stroke-linejoin:round;stroke-miterlimit:4;stroke-opacity:1;stroke-dasharray:none;stroke-dashoffset:0;marker:none;visibility:visible;display:inline;overflow:visible;enable-background:accumulate"
           d="m -471.41363,2636.1119 c -0.42901,-2.7484 4.22465,-3.1884 4.65058,-1.5791"
           id="path33765"
           inkscape:connector-curvature="0"
           sodipodi:nodetypes="cc" />
        <path
           sodipodi:nodetypes="cc"
           inkscape:connector-curvature="0"
           id="path33767"
           d="m -472.80889,2631.7194 c -0.79074,-2.4383 4.17297,-3.1367 4.44387,-1.6824"
           style="color:#000000;fill:none;stroke:#42220d;stroke-width:0.5291667;stroke-linecap:round;stroke-linejoin:round;stroke-miterlimit:4;stroke-opacity:1;stroke-dasharray:none;stroke-dashoffset:0;marker:none;visibility:visible;display:inline;overflow:visible;enable-background:accumulate" />
        <path
           style="color:#000000;fill:none;stroke:#42220d;stroke-width:0.5291667;stroke-linecap:round;stroke-linejoin:round;stroke-miterlimit:4;stroke-opacity:1;stroke-dasharray:none;stroke-dashoffset:0;marker:none;visibility:visible;display:inline;overflow:visible;enable-background:accumulate"
           d="m -474.20415,2627.947 c -0.37733,-2.645 4.32799,-3.085 4.75393,-1.6824"
           id="path33769"
           inkscape:connector-curvature="0"
           sodipodi:nodetypes="cc" />
        <path
           sodipodi:nodetypes="cc"
           inkscape:connector-curvature="0"
           id="path33771"
           d="m -475.44439,2624.278 c 0.19111,-2.49 4.43135,-2.8783 4.54723,-1.4757"
           style="color:#000000;fill:none;stroke:#42220d;stroke-width:0.5291667;stroke-linecap:round;stroke-linejoin:round;stroke-miterlimit:4;stroke-opacity:1;stroke-dasharray:none;stroke-dashoffset:0;marker:none;visibility:visible;display:inline;overflow:visible;enable-background:accumulate" />
        <path
           style="color:#000000;fill:none;stroke:#42220d;stroke-width:0.5291667;stroke-linecap:round;stroke-linejoin:round;stroke-miterlimit:4;stroke-opacity:1;stroke-dasharray:none;stroke-dashoffset:0;marker:none;visibility:visible;display:inline;overflow:visible;enable-background:accumulate"
           d="m -476.58127,2620.2989 c -0.37733,-2.7484 3.91459,-2.7233 4.34052,-1.269"
           id="path33773"
           inkscape:connector-curvature="0"
           sodipodi:nodetypes="cc" />
      </g>
    </g>
  </g>
</svg>
