<?xml version="1.0" encoding="UTF-8" standalone="no"?>
<!-- Created with Inkscape (http://www.inkscape.org/) -->

<svg
   xmlns:dc="http://purl.org/dc/elements/1.1/"
   xmlns:cc="http://creativecommons.org/ns#"
   xmlns:rdf="http://www.w3.org/1999/02/22-rdf-syntax-ns#"
   xmlns:svg="http://www.w3.org/2000/svg"
   xmlns="http://www.w3.org/2000/svg"
   xmlns:sodipodi="http://sodipodi.sourceforge.net/DTD/sodipodi-0.dtd"
   xmlns:inkscape="http://www.inkscape.org/namespaces/inkscape"
   width="96.273064"
   height="360.39694"
   viewBox="0 0 25.472247 95.355025"
   version="1.1"
   id="svg23489"
   inkscape:version="0.48.5 r10040"
   sodipodi:docname="trunk_04.svg"
   tags="palm tree trunk, palm tree, tree trunk, tree, trunk">
  <defs
     id="defs23483" />
  <sodipodi:namedview
     id="base"
     pagecolor="#7d848b"
     bordercolor="#666666"
     borderopacity="1.0"
     inkscape:pageopacity="1"
     inkscape:pageshadow="2"
     inkscape:zoom="0.42617864"
     inkscape:cx="101.68117"
     inkscape:cy="439.77823"
     inkscape:document-units="px"
     inkscape:current-layer="layer1"
     showgrid="false"
     inkscape:pagecheckerboard="false"
     showborder="true"
     units="px"
     inkscape:window-width="1920"
     inkscape:window-height="1017"
     inkscape:window-x="-8"
     inkscape:window-y="-8"
     inkscape:window-maximized="1"
     inkscape:showpageshadow="false"
     guidetolerance="28"
     fit-margin-top="15"
     fit-margin-left="15"
     fit-margin-right="15"
     fit-margin-bottom="15">
    <inkscape:grid
       type="xygrid"
       id="grid24034"
       spacingx="1px"
       spacingy="1px"
       empspacing="8"
       visible="true"
       enabled="true"
       snapvisiblegridlinesonly="true"
       originx="-597.44802px"
       originy="-106.78702px" />
  </sodipodi:namedview>
  <metadata
     id="metadata23486">
    <rdf:RDF>
      <cc:Work
         rdf:about="">
        <dc:format>image/svg+xml</dc:format>
        <dc:type
           rdf:resource="http://purl.org/dc/dcmitype/StillImage" />
        <dc:title></dc:title>
        <cc:license
           rdf:resource="" />
        <dc:creator>
          <cc:Agent>
            <dc:title>Robert Brooks</dc:title>
          </cc:Agent>
        </dc:creator>
      </cc:Work>
    </rdf:RDF>
  </metadata>
  <g
     inkscape:label="Layer 1"
     inkscape:groupmode="layer"
     id="layer1"
     transform="translate(-158.07479,-173.39088)">
    <g
       id="g34817"
       transform="translate(445.17204,-2486.5997)">
      <path
         style="color:#000000;fill:#c88a37;fill-opacity:1;fill-rule:nonzero;stroke:#42220d;stroke-width:2.64583349;stroke-linejoin:round;stroke-miterlimit:4;stroke-opacity:1;stroke-dasharray:none;marker:none;visibility:visible;display:inline;overflow:visible;enable-background:accumulate"
         d="m -276.51351,2749.2359 c 0,-7.4414 -5.27836,-81.8354 -5.27836,-81.8354 -0.58465,-2.631 4.39592,-2.8676 4.6686,-0.3678 2.16876,19.8821 10.21853,82.4453 10.21853,82.4453 0.63518,-1.9776 -10.2756,2.2417 -9.60877,-0.2421 z"
         id="path34225"
         inkscape:connector-curvature="0"
         sodipodi:nodetypes="ccscc" />
      <path
         sodipodi:nodetypes="ccscc"
         inkscape:connector-curvature="0"
         id="path34203"
         d="m -276.51351,2749.2359 c 0,-7.4414 -5.27836,-81.8354 -5.27836,-81.8354 -0.58465,-2.631 4.39592,-2.8676 4.6686,-0.3678 2.16876,19.8821 10.21853,82.4453 10.21853,82.4453 0.43849,1.1694 -10.3396,3.2657 -9.60877,-0.2421 z"
         style="color:#000000;fill:#c88a37;fill-opacity:1;fill-rule:nonzero;stroke:none;stroke-width:0;marker:none;visibility:visible;display:inline;overflow:visible;enable-background:accumulate" />
      <path
         id="path34807"
         transform="matrix(0.26458334,0,0,0.26458334,-6.3049604e-6,18.562493)"
         d="m -1060.2188,10003.906 c -3.2918,1.027 -5.6842,3.515 -4.8124,7.438 0,0 19.9374,281.187 19.9374,309.312 -2.7621,13.258 37.9698,5.326 36.3126,0.906 0,0 -1.895,-14.902 -4.3438,-34.062 -3.7723,3.764 -8.9844,5.485 -15.8438,0.531 -16.2322,-11.723 -22.0536,-164.995 -31.25,-284.125 z"
         style="color:#000000;fill:#b67316;fill-opacity:1;stroke:none;stroke-width:2.70000005;marker:none;visibility:visible;display:inline;overflow:visible;enable-background:accumulate"
         inkscape:connector-curvature="0" />
      <path
         id="path34812"
         transform="matrix(0.26458334,0,0,0.26458334,-6.3049604e-6,18.562493)"
         d="m -1051.3438,10004.562 c 5.8769,89.746 37.9137,300.824 38.7188,320.063 2.6388,-1.016 4.1949,-2.126 3.8438,-3.063 0,0 -30.4282,-236.448 -38.625,-311.593 -0.2774,-2.542 -1.8401,-4.337 -3.9376,-5.407 z"
         style="color:#000000;fill:#dd9f22;fill-opacity:1;fill-rule:nonzero;stroke:none;stroke-width:2.70000005;marker:none;visibility:visible;display:inline;overflow:visible;enable-background:accumulate"
         inkscape:connector-curvature="0" />
      <path
         id="path34743"
         transform="matrix(0.26458334,0,0,0.26458334,-6.3049604e-6,18.562493)"
         d="m -1045.625,10025.844 c -0.2951,0.297 -0.654,0.621 -1.0938,0.937 -1.6915,1.219 -4.3208,2.41 -7.0312,3.281 -2.7104,0.873 -5.5154,1.421 -7.5312,1.469 -1.0081,0.04 -1.813,-0.1 -2.2188,-0.25 -0.1015,-0.04 -0.1083,-0.05 -0.1562,-0.06 0.062,0.882 0.149,1.792 0.2187,2.781 0.6795,0.132 1.4229,0.175 2.2187,0.156 2.4133,-0.06 5.3834,-0.661 8.2813,-1.594 2.8656,-0.92 5.64,-2.165 7.6875,-3.624 -0.1129,-0.978 -0.2659,-2.144 -0.375,-3.094 z m 2.6875,22.625 c -0.041,0.02 -0.083,0.02 -0.125,0.03 -2.0462,0.765 -5.1934,1.318 -8.4063,1.531 -3.2127,0.212 -6.5344,0.122 -8.9687,-0.312 -0.7521,-0.134 -1.3958,-0.284 -1.9375,-0.469 0.095,1.364 0.056,1.1 0.1562,2.531 0.4379,0.109 0.894,0.196 1.375,0.281 2.7275,0.488 6.1593,0.597 9.5313,0.376 3.1739,-0.21 6.275,-0.715 8.6563,-1.532 -0.09,-0.756 -0.1926,-1.69 -0.2813,-2.437 z m 2.2813,19.062 c -0.3391,0.19 -0.7481,0.387 -1.2188,0.563 -2.0542,0.768 -5.1902,1.318 -8.4062,1.531 -3.2164,0.212 -6.5597,0.09 -9,-0.344 -0.6669,-0.117 -1.2471,-0.246 -1.75,-0.406 0.054,0.774 0.1329,1.652 0.1874,2.437 0.3779,0.09 0.776,0.178 1.1876,0.25 2.721,0.486 6.1312,0.567 9.5,0.344 3.3685,-0.223 6.6699,-0.75 9.0937,-1.656 0.2394,-0.09 0.4655,-0.184 0.6875,-0.281 -0.1,-0.823 -0.1828,-1.622 -0.2812,-2.438 z m 2.4062,20.063 c -0.3929,0.273 -0.9464,0.578 -1.6562,0.844 -2.0624,0.769 -5.2179,1.318 -8.4376,1.531 -3.2194,0.211 -6.5222,0.122 -8.9687,-0.313 -0.9044,-0.159 -1.6847,-0.365 -2.2813,-0.594 0.057,0.824 0.099,1.513 0.1563,2.344 0.5381,0.154 1.0974,0.297 1.7187,0.406 2.7152,0.486 6.1659,0.599 9.5313,0.376 3.3654,-0.224 6.6467,-0.785 9.0625,-1.688 0.4218,-0.158 0.8184,-0.317 1.1875,-0.5 -0.1061,-0.868 -0.2072,-1.544 -0.3125,-2.406 z m 2.4375,19.562 a 1.250125,1.250125 0 0 0 0.031,0.906 c 0.1198,0.293 0.1206,0.344 -0.1876,0.719 -0.308,0.378 -1.0135,0.879 -2,1.344 -1.9724,0.929 -5.0151,1.737 -8.125,2.187 -3.1096,0.452 -6.3429,0.57 -8.6874,0.313 -1.1724,-0.129 -2.1042,-0.366 -2.6563,-0.625 -0.5521,-0.257 -0.5607,-0.386 -0.5625,-0.406 a 1.2547993,1.2547993 0 0 0 -0.062,-0.25 c 0.071,1.033 0.1474,2.147 0.2187,3.187 0.8221,0.287 1.7706,0.448 2.8126,0.563 2.6705,0.295 6.0014,0.163 9.2812,-0.313 3.2798,-0.474 6.4845,-1.262 8.8438,-2.375 0.6045,-0.284 1.14,-0.595 1.625,-0.937 -0.1769,-1.433 -0.3559,-2.889 -0.5313,-4.313 z m 2.6875,21.719 c -0.4009,0.447 -1.155,1.018 -2.1562,1.563 -2.1687,1.178 -5.4566,2.277 -8.8126,3.062 -3.3556,0.785 -6.7911,1.269 -9.3124,1.25 -1.2609,0 -2.3032,-0.178 -2.875,-0.375 -0.1317,-0.05 -0.1435,-0.06 -0.2188,-0.09 0.066,0.971 0.1212,1.901 0.1875,2.875 0.8518,0.185 1.8145,0.273 2.875,0.282 2.8598,0.04 6.4468,-0.458 9.9687,-1.282 3.5223,-0.823 6.9395,-1.968 9.4688,-3.344 0.4521,-0.245 0.8564,-0.517 1.25,-0.781 -0.1332,-1.072 -0.2422,-2.086 -0.375,-3.156 z m -22.1562,23.375 c 0.082,1.21 0.1681,2.319 0.25,3.531 0.827,0.343 1.758,0.655 2.7812,0.907 3.0648,0.753 6.9635,1.185 10.7812,1.312 3.818,0.129 7.5184,-0.06 10.3126,-0.688 0.5343,-0.119 1.0282,-0.249 1.5,-0.406 -0.1311,-1.048 -0.2441,-2.076 -0.375,-3.125 -0.4244,0.197 -1.0213,0.422 -1.7813,0.594 -2.3432,0.53 -5.9166,0.746 -9.5625,0.625 -3.6459,-0.121 -7.4004,-0.572 -10.1562,-1.25 -1.3782,-0.34 -2.5035,-0.747 -3.1876,-1.125 -0.3076,-0.17 -0.4651,-0.286 -0.5624,-0.375 z m 27.25,17.594 c -0.031,0.03 -0.022,0.02 -0.063,0.06 -0.4038,0.407 -1.3086,0.977 -2.5312,1.5 -2.4451,1.046 -6.1305,1.968 -9.875,2.563 -3.7445,0.595 -7.5904,0.875 -10.4062,0.719 -1.2211,-0.07 -2.2246,-0.239 -2.9063,-0.438 0.071,1.061 0.1479,2.096 0.2187,3.156 0.774,0.143 1.6162,0.23 2.5313,0.282 3.1514,0.173 7.1166,-0.129 11.0313,-0.75 3.9143,-0.624 7.7551,-1.568 10.5937,-2.782 0.6712,-0.287 1.2887,-0.577 1.8437,-0.906 -0.1427,-1.137 -0.2946,-2.267 -0.4374,-3.406 z m 2.7187,21.718 c -0.576,0.471 -1.4023,0.995 -2.4375,1.469 -2.7007,1.239 -6.6845,2.268 -10.7188,2.813 -4.034,0.544 -8.156,0.596 -11.125,0.09 -1.1672,-0.2 -2.1442,-0.484 -2.8437,-0.813 0.072,1.088 0.1472,2.197 0.2187,3.281 0.6693,0.206 1.3685,0.372 2.125,0.5 3.4501,0.586 7.7717,0.484 12.0313,-0.09 4.2596,-0.574 8.4303,-1.625 11.5625,-3.062 0.5803,-0.266 1.1187,-0.546 1.625,-0.844 -0.1445,-1.147 -0.2924,-2.191 -0.4375,-3.344 z m 2.5313,19.876 c -0.071,0.216 -0.19,0.438 -0.375,0.687 -0.4594,0.617 -1.3717,1.326 -2.6563,1.937 -2.5693,1.228 -6.482,2.109 -10.5,2.438 -4.018,0.329 -8.1557,0.121 -11.1563,-0.594 -1.5002,-0.355 -2.7356,-0.861 -3.4687,-1.375 -0.088,-0.06 -0.1452,-0.129 -0.2187,-0.187 0.083,1.272 0.1366,2.331 0.2187,3.594 0.8354,0.356 1.7577,0.638 2.75,0.874 3.4672,0.828 7.8181,1.007 12.0937,0.657 4.2758,-0.352 8.4451,-1.201 11.5626,-2.688 0.8367,-0.399 1.5783,-0.856 2.25,-1.375 -0.1838,-1.453 -0.3145,-2.501 -0.5,-3.968 z m 2.6874,21.124 c -0.092,0.186 -0.1911,0.376 -0.3124,0.563 -0.6437,0.99 -1.7244,1.985 -3.1563,2.875 -2.8637,1.781 -7.0747,3.107 -11.2813,3.688 -4.2062,0.579 -8.4266,0.404 -11.3437,-0.563 -1.4586,-0.484 -2.5807,-1.15 -3.25,-1.906 -0.1063,-0.12 -0.1927,-0.251 -0.2813,-0.375 0.087,1.365 0.1646,2.747 0.25,4.094 0.7162,0.403 1.482,0.755 2.3126,1.031 3.6034,1.194 8.1742,1.314 12.7187,0.687 4.5445,-0.626 9.0485,-1.984 12.4375,-4.094 0.8882,-0.551 1.6919,-1.172 2.4062,-1.843 -0.1801,-1.42 -0.3171,-2.715 -0.5,-4.157 z m 2.375,18.813 c -0.058,0.692 -0.3012,1.345 -0.75,2 -0.6524,0.953 -1.7548,1.88 -3.2187,2.719 -2.9277,1.678 -7.2252,2.873 -11.5313,3.312 -4.3057,0.44 -8.6508,0.136 -11.6562,-0.937 -1.5027,-0.537 -2.6446,-1.266 -3.3438,-2.063 -0.111,-0.126 -0.1893,-0.245 -0.2812,-0.375 0.08,1.286 0.1722,2.896 0.25,4.157 0.7285,0.425 1.5275,0.791 2.375,1.093 3.6617,1.308 8.3284,1.6 12.9688,1.125 4.6402,-0.473 9.2159,-1.697 12.6874,-3.687 1.1968,-0.686 2.2439,-1.475 3.125,-2.375 -0.1975,-1.552 -0.4225,-3.377 -0.625,-4.969 z m 2.2188,17.531 c -0.1402,0.5 -0.3826,1 -0.7188,1.532 -0.7145,1.128 -1.8939,2.31 -3.4374,3.406 -3.0873,2.188 -7.5319,4.053 -12,5.156 -4.4683,1.103 -9.007,1.422 -12.0938,0.812 -1.5434,-0.302 -2.6763,-0.838 -3.3438,-1.468 -0.022,-0.02 -0.041,-0.04 -0.062,-0.06 0.07,1.187 0.183,2.538 0.25,3.688 0.7996,0.345 1.6679,0.599 2.5937,0.781 3.8,0.748 8.604,0.333 13.375,-0.844 4.771,-1.177 9.4682,-3.12 13,-5.625 1.1597,-0.822 2.172,-1.723 3.0313,-2.687 -0.1681,-1.317 -0.4205,-3.328 -0.5938,-4.688 z m 2.5625,20.156 c -0.136,0.315 -0.2935,0.621 -0.5313,0.938 -0.6995,0.932 -1.8949,1.846 -3.4687,2.656 -3.1476,1.621 -7.7356,2.747 -12.3437,3.094 -4.6085,0.348 -9.2551,-0.06 -12.5,-1.219 -1.6226,-0.577 -2.8639,-1.329 -3.625,-2.156 -0.7615,-0.827 -1.1131,-1.683 -1.0313,-2.844 l -0.062,0 c 0.1162,2.07 0.2408,4.22 0.3438,6.125 0.9883,0.691 2.1217,1.242 3.375,1.688 3.8615,1.372 8.7948,1.777 13.7187,1.406 4.9239,-0.37 9.809,-1.506 13.5,-3.406 1.1965,-0.617 2.2486,-1.341 3.1563,-2.156 -0.257,-2.008 -0.2452,-1.888 -0.5313,-4.126 z m 2.1875,17.188 c 0.1236,0.841 -0.1,1.54 -0.875,2.375 -0.7752,0.835 -2.1012,1.673 -3.8125,2.406 -3.4227,1.466 -8.3402,2.441 -13.1875,2.719 -4.8473,0.28 -9.6509,-0.144 -12.9062,-1.25 -1.628,-0.553 -2.8503,-1.273 -3.5,-2 -0.1625,-0.182 -0.3002,-0.353 -0.4063,-0.531 0.062,1.42 0.1431,2.959 0.1875,4.156 0.824,0.482 1.7586,0.882 2.75,1.219 3.8634,1.312 8.9383,1.699 14.0625,1.406 5.1242,-0.295 10.2397,-1.258 14.1563,-2.938 1.6344,-0.698 3.0539,-1.52 4.1874,-2.531 -0.1274,-0.992 -0.4721,-3.596 -0.6562,-5.031 z"
         style="font-size:medium;font-style:normal;font-variant:normal;font-weight:normal;font-stretch:normal;text-indent:0;text-align:start;text-decoration:none;line-height:normal;letter-spacing:normal;word-spacing:normal;text-transform:none;direction:ltr;block-progression:tb;writing-mode:lr-tb;text-anchor:start;baseline-shift:baseline;color:#000000;fill:#42220d;fill-opacity:1;stroke:none;stroke-width:3;marker:none;visibility:visible;display:inline;overflow:visible;enable-background:accumulate;font-family:Sans;-inkscape-font-specification:Sans"
         inkscape:connector-curvature="0" />
    </g>
  </g>
</svg>
